%TF.GenerationSoftware,KiCad,Pcbnew,9.0.1*%
%TF.CreationDate,2025-06-21T17:37:17+02:00*%
%TF.ProjectId,PicoLogger,5069636f-4c6f-4676-9765-722e6b696361,rev?*%
%TF.SameCoordinates,Original*%
%TF.FileFunction,Copper,L2,Bot*%
%TF.FilePolarity,Positive*%
%FSLAX46Y46*%
G04 Gerber Fmt 4.6, Leading zero omitted, Abs format (unit mm)*
G04 Created by KiCad (PCBNEW 9.0.1) date 2025-06-21 17:37:17*
%MOMM*%
%LPD*%
G01*
G04 APERTURE LIST*
G04 Aperture macros list*
%AMRoundRect*
0 Rectangle with rounded corners*
0 $1 Rounding radius*
0 $2 $3 $4 $5 $6 $7 $8 $9 X,Y pos of 4 corners*
0 Add a 4 corners polygon primitive as box body*
4,1,4,$2,$3,$4,$5,$6,$7,$8,$9,$2,$3,0*
0 Add four circle primitives for the rounded corners*
1,1,$1+$1,$2,$3*
1,1,$1+$1,$4,$5*
1,1,$1+$1,$6,$7*
1,1,$1+$1,$8,$9*
0 Add four rect primitives between the rounded corners*
20,1,$1+$1,$2,$3,$4,$5,0*
20,1,$1+$1,$4,$5,$6,$7,0*
20,1,$1+$1,$6,$7,$8,$9,0*
20,1,$1+$1,$8,$9,$2,$3,0*%
%AMFreePoly0*
4,1,37,0.603843,0.796157,0.639018,0.796157,0.711114,0.766294,0.766294,0.711114,0.796157,0.639018,0.796157,0.603843,0.800000,0.600000,0.800000,-0.600000,0.796157,-0.603843,0.796157,-0.639018,0.766294,-0.711114,0.711114,-0.766294,0.639018,-0.796157,0.603843,-0.796157,0.600000,-0.800000,0.000000,-0.800000,0.000000,-0.796148,-0.078414,-0.796148,-0.232228,-0.765552,-0.377117,-0.705537,
-0.507515,-0.618408,-0.618408,-0.507515,-0.705537,-0.377117,-0.765552,-0.232228,-0.796148,-0.078414,-0.796148,0.078414,-0.765552,0.232228,-0.705537,0.377117,-0.618408,0.507515,-0.507515,0.618408,-0.377117,0.705537,-0.232228,0.765552,-0.078414,0.796148,0.000000,0.796148,0.000000,0.800000,0.600000,0.800000,0.603843,0.796157,0.603843,0.796157,$1*%
%AMFreePoly1*
4,1,37,0.000000,0.796148,0.078414,0.796148,0.232228,0.765552,0.377117,0.705537,0.507515,0.618408,0.618408,0.507515,0.705537,0.377117,0.765552,0.232228,0.796148,0.078414,0.796148,-0.078414,0.765552,-0.232228,0.705537,-0.377117,0.618408,-0.507515,0.507515,-0.618408,0.377117,-0.705537,0.232228,-0.765552,0.078414,-0.796148,0.000000,-0.796148,0.000000,-0.800000,-0.600000,-0.800000,
-0.603843,-0.796157,-0.639018,-0.796157,-0.711114,-0.766294,-0.766294,-0.711114,-0.796157,-0.639018,-0.796157,-0.603843,-0.800000,-0.600000,-0.800000,0.600000,-0.796157,0.603843,-0.796157,0.639018,-0.766294,0.711114,-0.711114,0.766294,-0.639018,0.796157,-0.603843,0.796157,-0.600000,0.800000,0.000000,0.800000,0.000000,0.796148,0.000000,0.796148,$1*%
G04 Aperture macros list end*
%TA.AperFunction,ComponentPad*%
%ADD10R,1.700000X1.700000*%
%TD*%
%TA.AperFunction,ComponentPad*%
%ADD11C,1.700000*%
%TD*%
%TA.AperFunction,ComponentPad*%
%ADD12C,5.600000*%
%TD*%
%TA.AperFunction,ComponentPad*%
%ADD13C,2.000000*%
%TD*%
%TA.AperFunction,ComponentPad*%
%ADD14R,2.300000X2.300000*%
%TD*%
%TA.AperFunction,ComponentPad*%
%ADD15C,2.300000*%
%TD*%
%TA.AperFunction,ComponentPad*%
%ADD16RoundRect,0.250000X-1.050000X1.050000X-1.050000X-1.050000X1.050000X-1.050000X1.050000X1.050000X0*%
%TD*%
%TA.AperFunction,ComponentPad*%
%ADD17C,2.600000*%
%TD*%
%TA.AperFunction,ComponentPad*%
%ADD18RoundRect,0.200000X-0.600000X-0.600000X0.600000X-0.600000X0.600000X0.600000X-0.600000X0.600000X0*%
%TD*%
%TA.AperFunction,ComponentPad*%
%ADD19C,1.600000*%
%TD*%
%TA.AperFunction,ComponentPad*%
%ADD20FreePoly0,0.000000*%
%TD*%
%TA.AperFunction,ComponentPad*%
%ADD21FreePoly1,0.000000*%
%TD*%
%TA.AperFunction,ComponentPad*%
%ADD22R,2.000000X2.000000*%
%TD*%
%TA.AperFunction,ComponentPad*%
%ADD23R,3.000000X3.000000*%
%TD*%
%TA.AperFunction,ComponentPad*%
%ADD24C,3.000000*%
%TD*%
%TA.AperFunction,ViaPad*%
%ADD25C,1.000000*%
%TD*%
%TA.AperFunction,Conductor*%
%ADD26C,0.600000*%
%TD*%
G04 APERTURE END LIST*
D10*
%TO.P,J8,1,Pin_1*%
%TO.N,K1_Pin5*%
X187000000Y-103260000D03*
D11*
%TO.P,J8,2,Pin_2*%
%TO.N,+3.3V*%
X187000000Y-105800000D03*
%TO.P,J8,3,Pin_3*%
%TO.N,GND*%
X187000000Y-108340000D03*
%TO.P,J8,4,Pin_4*%
%TO.N,SPI CSn*%
X187000000Y-110880000D03*
%TO.P,J8,5,Pin_5*%
%TO.N,SPI SCK*%
X187000000Y-113420000D03*
%TO.P,J8,6,Pin_6*%
%TO.N,SPI RX*%
X187000000Y-115960000D03*
%TO.P,J8,7,Pin_7*%
%TO.N,SPI TX*%
X187000000Y-118500000D03*
%TD*%
D12*
%TO.P,H2,1,1*%
%TO.N,GND*%
X194500000Y-50000000D03*
%TD*%
D10*
%TO.P,J1,1,Pin_1*%
%TO.N,+3.3V*%
X161000000Y-48460000D03*
D11*
%TO.P,J1,2,Pin_2*%
%TO.N,GND*%
X161000000Y-51000000D03*
%TO.P,J1,3,Pin_3*%
%TO.N,SDA*%
X161000000Y-53540000D03*
%TO.P,J1,4,Pin_4*%
%TO.N,SCL*%
X161000000Y-56080000D03*
%TD*%
D13*
%TO.P,SW2,1,1*%
%TO.N,GND*%
X143250000Y-117750000D03*
X143250000Y-111250000D03*
%TO.P,SW2,2,2*%
%TO.N,GPIO20*%
X147750000Y-117750000D03*
X147750000Y-111250000D03*
%TD*%
D14*
%TO.P,K2,1*%
%TO.N,K2_Pin1*%
X129875000Y-72700000D03*
D15*
%TO.P,K2,2*%
%TO.N,K2_Pin2*%
X119715000Y-72700000D03*
%TO.P,K2,3*%
%TO.N,K2_Pin3*%
X112095000Y-72700000D03*
%TO.P,K2,4*%
%TO.N,K2_Pin4*%
X114635000Y-80320000D03*
%TO.P,K2,5*%
%TO.N,K1_Pin5*%
X129875000Y-80320000D03*
%TD*%
D16*
%TO.P,J6,1,Pin_1*%
%TO.N,K3_Pin3*%
X103827500Y-91000000D03*
D17*
%TO.P,J6,2,Pin_2*%
%TO.N,K3_Pin4*%
X103827500Y-96000000D03*
%TO.P,J6,3,Pin_3*%
%TO.N,K3_Pin2*%
X103827500Y-101000000D03*
%TD*%
D10*
%TO.P,J2,1,Pin_1*%
%TO.N,GND*%
X165000000Y-48420000D03*
D11*
%TO.P,J2,2,Pin_2*%
%TO.N,K1_Pin5*%
X165000000Y-50960000D03*
%TO.P,J2,3,Pin_3*%
%TO.N,SDA*%
X165000000Y-53500000D03*
%TO.P,J2,4,Pin_4*%
%TO.N,SCL*%
X165000000Y-56040000D03*
%TD*%
D12*
%TO.P,H1,1,1*%
%TO.N,GND*%
X194500000Y-125000000D03*
%TD*%
D18*
%TO.P,A1,1,GPIO0*%
%TO.N,SDA*%
X170720000Y-49320000D03*
D19*
%TO.P,A1,2,GPIO1*%
%TO.N,SCL*%
X170720000Y-51860000D03*
D20*
%TO.P,A1,3,GND*%
%TO.N,GND*%
X170720000Y-54400000D03*
D19*
%TO.P,A1,4,GPIO2*%
%TO.N,GPIO2*%
X170720000Y-56940000D03*
%TO.P,A1,5,GPIO3*%
%TO.N,unconnected-(A1-GPIO3-Pad5)*%
X170720000Y-59480000D03*
%TO.P,A1,6,GPIO4*%
%TO.N,TX*%
X170720000Y-62020000D03*
%TO.P,A1,7,GPIO5*%
%TO.N,RX*%
X170720000Y-64560000D03*
D20*
%TO.P,A1,8,GND*%
%TO.N,GND*%
X170720000Y-67100000D03*
D19*
%TO.P,A1,9,GPIO6*%
%TO.N,GPIO6*%
X170720000Y-69640000D03*
%TO.P,A1,10,GPIO7*%
%TO.N,GPIO7*%
X170720000Y-72180000D03*
%TO.P,A1,11,GPIO8*%
%TO.N,GPIO8*%
X170720000Y-74720000D03*
%TO.P,A1,12,GPIO9*%
%TO.N,GPIO9*%
X170720000Y-77260000D03*
D20*
%TO.P,A1,13,GND*%
%TO.N,GND*%
X170720000Y-79800000D03*
D19*
%TO.P,A1,14,GPIO10*%
%TO.N,GPIO10*%
X170720000Y-82340000D03*
%TO.P,A1,15,GPIO11*%
%TO.N,GPIO11*%
X170720000Y-84880000D03*
%TO.P,A1,16,GPIO12*%
%TO.N,GPIO12*%
X170720000Y-87420000D03*
%TO.P,A1,17,GPIO13*%
%TO.N,GPIO13*%
X170720000Y-89960000D03*
D20*
%TO.P,A1,18,GND*%
%TO.N,GND*%
X170720000Y-92500000D03*
D19*
%TO.P,A1,19,GPIO14*%
%TO.N,GPIO14*%
X170720000Y-95040000D03*
%TO.P,A1,20,GPIO15*%
%TO.N,GPIO15*%
X170720000Y-97580000D03*
%TO.P,A1,21,GPIO16*%
%TO.N,SPI RX*%
X188500000Y-97580000D03*
%TO.P,A1,22,GPIO17*%
%TO.N,SPI CSn*%
X188500000Y-95040000D03*
D21*
%TO.P,A1,23,GND*%
%TO.N,GND*%
X188500000Y-92500000D03*
D19*
%TO.P,A1,24,GPIO18*%
%TO.N,SPI SCK*%
X188500000Y-89960000D03*
%TO.P,A1,25,GPIO19*%
%TO.N,SPI TX*%
X188500000Y-87420000D03*
%TO.P,A1,26,GPIO20*%
%TO.N,GPIO20*%
X188500000Y-84880000D03*
%TO.P,A1,27,GPIO21*%
%TO.N,GPIO21*%
X188500000Y-82340000D03*
D21*
%TO.P,A1,28,GND*%
%TO.N,GND*%
X188500000Y-79800000D03*
D19*
%TO.P,A1,29,GPIO22*%
%TO.N,unconnected-(A1-GPIO22-Pad29)*%
X188500000Y-77260000D03*
%TO.P,A1,30,RUN*%
%TO.N,unconnected-(A1-RUN-Pad30)*%
X188500000Y-74720000D03*
%TO.P,A1,31,GPIO26_ADC0*%
%TO.N,unconnected-(A1-GPIO26_ADC0-Pad31)*%
X188500000Y-72180000D03*
%TO.P,A1,32,GPIO27_ADC1*%
%TO.N,unconnected-(A1-GPIO27_ADC1-Pad32)*%
X188500000Y-69640000D03*
D21*
%TO.P,A1,33,AGND*%
%TO.N,GND*%
X188500000Y-67100000D03*
D19*
%TO.P,A1,34,GPIO28_ADC2*%
%TO.N,unconnected-(A1-GPIO28_ADC2-Pad34)*%
X188500000Y-64560000D03*
%TO.P,A1,35,ADC_VREF*%
%TO.N,unconnected-(A1-ADC_VREF-Pad35)*%
X188500000Y-62020000D03*
%TO.P,A1,36,3V3*%
%TO.N,unconnected-(A1-3V3-Pad36)*%
X188500000Y-59480000D03*
%TO.P,A1,37,3V3_EN*%
%TO.N,unconnected-(A1-3V3_EN-Pad37)*%
X188500000Y-56940000D03*
D21*
%TO.P,A1,38,GND*%
%TO.N,GND*%
X188500000Y-54400000D03*
D19*
%TO.P,A1,39,VSYS*%
%TO.N,+3.3V*%
X188500000Y-51860000D03*
%TO.P,A1,40,VBUS*%
%TO.N,K1_Pin5*%
X188500000Y-49320000D03*
%TD*%
D14*
%TO.P,K4,1*%
%TO.N,K4_Pin1*%
X129875000Y-107700000D03*
D15*
%TO.P,K4,2*%
%TO.N,K4_Pin2*%
X119715000Y-107700000D03*
%TO.P,K4,3*%
%TO.N,K4_Pin3*%
X112095000Y-107700000D03*
%TO.P,K4,4*%
%TO.N,K4_Pin4*%
X114635000Y-115320000D03*
%TO.P,K4,5*%
%TO.N,K1_Pin5*%
X129875000Y-115320000D03*
%TD*%
D13*
%TO.P,SW1,1,1*%
%TO.N,GND*%
X152250000Y-117750000D03*
X152250000Y-111250000D03*
%TO.P,SW1,2,2*%
%TO.N,GPIO21*%
X156750000Y-117750000D03*
X156750000Y-111250000D03*
%TD*%
D22*
%TO.P,BZ1,1,+*%
%TO.N,GPIO11*%
X161700000Y-114500000D03*
D13*
%TO.P,BZ1,2,-*%
%TO.N,GND*%
X169300000Y-114500000D03*
%TD*%
D14*
%TO.P,K3,1*%
%TO.N,K3_Pin1*%
X129740000Y-90200000D03*
D15*
%TO.P,K3,2*%
%TO.N,K3_Pin2*%
X119580000Y-90200000D03*
%TO.P,K3,3*%
%TO.N,K3_Pin3*%
X111960000Y-90200000D03*
%TO.P,K3,4*%
%TO.N,K3_Pin4*%
X114500000Y-97820000D03*
%TO.P,K3,5*%
%TO.N,K1_Pin5*%
X129740000Y-97820000D03*
%TD*%
D16*
%TO.P,J4,1,Pin_1*%
%TO.N,K1_Pin3*%
X103900000Y-56500000D03*
D17*
%TO.P,J4,2,Pin_2*%
%TO.N,K1_Pin4*%
X103900000Y-61500000D03*
%TO.P,J4,3,Pin_3*%
%TO.N,K1_Pin2*%
X103900000Y-66500000D03*
%TD*%
D16*
%TO.P,J7,1,Pin_1*%
%TO.N,K4_Pin3*%
X103827500Y-108440000D03*
D17*
%TO.P,J7,2,Pin_2*%
%TO.N,K4_Pin4*%
X103827500Y-113440000D03*
%TO.P,J7,3,Pin_3*%
%TO.N,K4_Pin2*%
X103827500Y-118440000D03*
%TD*%
D14*
%TO.P,K1,1*%
%TO.N,K1_Pin1*%
X129875000Y-55500000D03*
D15*
%TO.P,K1,2*%
%TO.N,K1_Pin2*%
X119715000Y-55500000D03*
%TO.P,K1,3*%
%TO.N,K1_Pin3*%
X112095000Y-55500000D03*
%TO.P,K1,4*%
%TO.N,K1_Pin4*%
X114635000Y-63120000D03*
%TO.P,K1,5*%
%TO.N,K1_Pin5*%
X129875000Y-63120000D03*
%TD*%
D16*
%TO.P,J5,1,Pin_1*%
%TO.N,K2_Pin3*%
X103900000Y-73700000D03*
D17*
%TO.P,J5,2,Pin_2*%
%TO.N,K2_Pin4*%
X103900000Y-78700000D03*
%TO.P,J5,3,Pin_3*%
%TO.N,K2_Pin2*%
X103900000Y-83700000D03*
%TD*%
D10*
%TO.P,J3,1,Pin_1*%
%TO.N,RX*%
X139260000Y-57000000D03*
D11*
%TO.P,J3,2,Pin_2*%
%TO.N,TX*%
X141800000Y-57000000D03*
%TO.P,J3,3,Pin_3*%
%TO.N,GPIO2*%
X144340000Y-57000000D03*
%TO.P,J3,4,Pin_4*%
%TO.N,SDA*%
X146880000Y-57000000D03*
%TO.P,J3,5,Pin_5*%
%TO.N,SCL*%
X149420000Y-57000000D03*
%TO.P,J3,6,Pin_6*%
%TO.N,GND*%
X151960000Y-57000000D03*
%TO.P,J3,7,Pin_7*%
%TO.N,+3.3V*%
X154500000Y-57000000D03*
%TO.P,J3,8,Pin_8*%
%TO.N,K1_Pin5*%
X157040000Y-57000000D03*
%TD*%
D23*
%TO.P,BT1,1,+*%
%TO.N,+BATT*%
X145500000Y-66510000D03*
D24*
%TO.P,BT1,2,-*%
%TO.N,GND*%
X145500000Y-87000000D03*
%TD*%
D25*
%TO.N,GPIO21*%
X183250000Y-94250000D03*
%TO.N,GPIO20*%
X184500000Y-94500000D03*
X181312500Y-97812500D03*
%TO.N,GPIO21*%
X180000000Y-96500000D03*
%TO.N,+3.3V*%
X185500000Y-79000000D03*
X185500000Y-85500000D03*
%TO.N,SPI RX*%
X185000000Y-116000000D03*
X186000000Y-98000000D03*
%TO.N,SCL*%
X154000000Y-60500000D03*
X150500000Y-59500000D03*
X149500000Y-75500000D03*
%TO.N,SDA*%
X148500000Y-76500000D03*
X148500000Y-59500000D03*
%TO.N,GND*%
X156000000Y-101500000D03*
X142500000Y-80000000D03*
X150000000Y-101500000D03*
X159000000Y-56500000D03*
X156000000Y-64500000D03*
X142500000Y-88000000D03*
%TO.N,K1_Pin5*%
X138000000Y-78500000D03*
X149000000Y-80500000D03*
X137500000Y-96000000D03*
X144000000Y-94000000D03*
X140500000Y-100400000D03*
X145500000Y-69000000D03*
X137500000Y-113500000D03*
X138000000Y-61000000D03*
%TO.N,GPIO9*%
X158000000Y-75500000D03*
X158000000Y-78000000D03*
X144500000Y-76500000D03*
%TO.N,K2_Pin1*%
X140000000Y-90000000D03*
X140000000Y-85000000D03*
%TO.N,K1_Pin1*%
X141000000Y-79500000D03*
X139000000Y-60000000D03*
%TD*%
D26*
%TO.N,SPI RX*%
X185000000Y-99000000D02*
X186000000Y-98000000D01*
X185000000Y-116000000D02*
X185000000Y-99000000D01*
%TO.N,+3.3V*%
X185500000Y-85500000D02*
X185500000Y-79000000D01*
%TO.N,GPIO21*%
X183250000Y-94250000D02*
X181000000Y-96500000D01*
X181000000Y-96500000D02*
X180000000Y-96500000D01*
%TO.N,GPIO20*%
X184500000Y-94625000D02*
X184500000Y-94500000D01*
X181312500Y-97812500D02*
X184500000Y-94625000D01*
%TO.N,SCL*%
X150500000Y-59500000D02*
X153000000Y-59500000D01*
X149500000Y-60500000D02*
X149500000Y-75500000D01*
X150500000Y-59500000D02*
X149500000Y-60500000D01*
X153000000Y-59500000D02*
X154000000Y-60500000D01*
%TO.N,SDA*%
X148500000Y-65000000D02*
X148500000Y-76500000D01*
X148500000Y-59500000D02*
X148500000Y-65000000D01*
%TO.N,GND*%
X159000000Y-61500000D02*
X156000000Y-64500000D01*
X142500000Y-80000000D02*
X142500000Y-84000000D01*
X159000000Y-56500000D02*
X159000000Y-61500000D01*
X145500000Y-87000000D02*
X143500000Y-87000000D01*
X150000000Y-101500000D02*
X156000000Y-101500000D01*
X143500000Y-87000000D02*
X142500000Y-88000000D01*
X142500000Y-84000000D02*
X145500000Y-87000000D01*
%TO.N,GPIO9*%
X144500000Y-76500000D02*
X146000000Y-78000000D01*
X146000000Y-78000000D02*
X158000000Y-78000000D01*
X158000000Y-75500000D02*
X158000000Y-78000000D01*
%TO.N,K2_Pin1*%
X140000000Y-85000000D02*
X140000000Y-90000000D01*
%TO.N,K1_Pin1*%
X140500000Y-61500000D02*
X140500000Y-73500000D01*
X139000000Y-60000000D02*
X140500000Y-61500000D01*
X141000000Y-74000000D02*
X141000000Y-79500000D01*
X140500000Y-73500000D02*
X141000000Y-74000000D01*
%TD*%
%TA.AperFunction,Conductor*%
%TO.N,K1_Pin5*%
G36*
X197942539Y-46520185D02*
G01*
X197988294Y-46572989D01*
X197999500Y-46624500D01*
X197999500Y-128375500D01*
X197979815Y-128442539D01*
X197927011Y-128488294D01*
X197875500Y-128499500D01*
X136265466Y-128499500D01*
X136198427Y-128479815D01*
X136152672Y-128427011D01*
X136141468Y-128374757D01*
X136162753Y-124820259D01*
X191299500Y-124820259D01*
X191299500Y-125179740D01*
X191339746Y-125536935D01*
X191339748Y-125536951D01*
X191419737Y-125887407D01*
X191419741Y-125887419D01*
X191538465Y-126226711D01*
X191694432Y-126550579D01*
X191694434Y-126550582D01*
X191885685Y-126854956D01*
X192109812Y-127136003D01*
X192363997Y-127390188D01*
X192645044Y-127614315D01*
X192949418Y-127805566D01*
X193273292Y-127961536D01*
X193528119Y-128050703D01*
X193612580Y-128080258D01*
X193612592Y-128080262D01*
X193963052Y-128160252D01*
X194320260Y-128200499D01*
X194320261Y-128200500D01*
X194320264Y-128200500D01*
X194679739Y-128200500D01*
X194679739Y-128200499D01*
X195036948Y-128160252D01*
X195387408Y-128080262D01*
X195726708Y-127961536D01*
X196050582Y-127805566D01*
X196354956Y-127614315D01*
X196636003Y-127390188D01*
X196890188Y-127136003D01*
X197114315Y-126854956D01*
X197305566Y-126550582D01*
X197461536Y-126226708D01*
X197580262Y-125887408D01*
X197660252Y-125536948D01*
X197700500Y-125179736D01*
X197700500Y-124820264D01*
X197660252Y-124463052D01*
X197580262Y-124112592D01*
X197461536Y-123773292D01*
X197305566Y-123449418D01*
X197114315Y-123145044D01*
X196890188Y-122863997D01*
X196636003Y-122609812D01*
X196354956Y-122385685D01*
X196050582Y-122194434D01*
X196050579Y-122194432D01*
X195726711Y-122038465D01*
X195387419Y-121919741D01*
X195387407Y-121919737D01*
X195036951Y-121839748D01*
X195036935Y-121839746D01*
X194679740Y-121799500D01*
X194679736Y-121799500D01*
X194320264Y-121799500D01*
X194320259Y-121799500D01*
X193963064Y-121839746D01*
X193963048Y-121839748D01*
X193612592Y-121919737D01*
X193612580Y-121919741D01*
X193273288Y-122038465D01*
X192949420Y-122194432D01*
X192645045Y-122385684D01*
X192363997Y-122609811D01*
X192109811Y-122863997D01*
X191885684Y-123145045D01*
X191694432Y-123449420D01*
X191538465Y-123773288D01*
X191419741Y-124112580D01*
X191419737Y-124112592D01*
X191339748Y-124463048D01*
X191339746Y-124463064D01*
X191299500Y-124820259D01*
X136162753Y-124820259D01*
X136162778Y-124816042D01*
X136162778Y-124816041D01*
X136205749Y-117639778D01*
X141849500Y-117639778D01*
X141849500Y-117860221D01*
X141883985Y-118077952D01*
X141952103Y-118287603D01*
X141952104Y-118287606D01*
X142052187Y-118484025D01*
X142181752Y-118662358D01*
X142181756Y-118662363D01*
X142337636Y-118818243D01*
X142337641Y-118818247D01*
X142493192Y-118931260D01*
X142515978Y-118947815D01*
X142644375Y-119013237D01*
X142712393Y-119047895D01*
X142712396Y-119047896D01*
X142817221Y-119081955D01*
X142922049Y-119116015D01*
X143139778Y-119150500D01*
X143139779Y-119150500D01*
X143360221Y-119150500D01*
X143360222Y-119150500D01*
X143577951Y-119116015D01*
X143787606Y-119047895D01*
X143984022Y-118947815D01*
X144162365Y-118818242D01*
X144318242Y-118662365D01*
X144447815Y-118484022D01*
X144547895Y-118287606D01*
X144616015Y-118077951D01*
X144650500Y-117860222D01*
X144650500Y-117639778D01*
X146349500Y-117639778D01*
X146349500Y-117860221D01*
X146383985Y-118077952D01*
X146452103Y-118287603D01*
X146452104Y-118287606D01*
X146552187Y-118484025D01*
X146681752Y-118662358D01*
X146681756Y-118662363D01*
X146837636Y-118818243D01*
X146837641Y-118818247D01*
X146993192Y-118931260D01*
X147015978Y-118947815D01*
X147144375Y-119013237D01*
X147212393Y-119047895D01*
X147212396Y-119047896D01*
X147317221Y-119081955D01*
X147422049Y-119116015D01*
X147639778Y-119150500D01*
X147639779Y-119150500D01*
X147860221Y-119150500D01*
X147860222Y-119150500D01*
X148077951Y-119116015D01*
X148287606Y-119047895D01*
X148484022Y-118947815D01*
X148662365Y-118818242D01*
X148818242Y-118662365D01*
X148947815Y-118484022D01*
X149047895Y-118287606D01*
X149116015Y-118077951D01*
X149150500Y-117860222D01*
X149150500Y-117639778D01*
X150849500Y-117639778D01*
X150849500Y-117860221D01*
X150883985Y-118077952D01*
X150952103Y-118287603D01*
X150952104Y-118287606D01*
X151052187Y-118484025D01*
X151181752Y-118662358D01*
X151181756Y-118662363D01*
X151337636Y-118818243D01*
X151337641Y-118818247D01*
X151493192Y-118931260D01*
X151515978Y-118947815D01*
X151644375Y-119013237D01*
X151712393Y-119047895D01*
X151712396Y-119047896D01*
X151817221Y-119081955D01*
X151922049Y-119116015D01*
X152139778Y-119150500D01*
X152139779Y-119150500D01*
X152360221Y-119150500D01*
X152360222Y-119150500D01*
X152577951Y-119116015D01*
X152787606Y-119047895D01*
X152984022Y-118947815D01*
X153162365Y-118818242D01*
X153318242Y-118662365D01*
X153447815Y-118484022D01*
X153547895Y-118287606D01*
X153616015Y-118077951D01*
X153650500Y-117860222D01*
X153650500Y-117639778D01*
X155349500Y-117639778D01*
X155349500Y-117860221D01*
X155383985Y-118077952D01*
X155452103Y-118287603D01*
X155452104Y-118287606D01*
X155552187Y-118484025D01*
X155681752Y-118662358D01*
X155681756Y-118662363D01*
X155837636Y-118818243D01*
X155837641Y-118818247D01*
X155993192Y-118931260D01*
X156015978Y-118947815D01*
X156144375Y-119013237D01*
X156212393Y-119047895D01*
X156212396Y-119047896D01*
X156317221Y-119081955D01*
X156422049Y-119116015D01*
X156639778Y-119150500D01*
X156639779Y-119150500D01*
X156860221Y-119150500D01*
X156860222Y-119150500D01*
X157077951Y-119116015D01*
X157287606Y-119047895D01*
X157484022Y-118947815D01*
X157662365Y-118818242D01*
X157818242Y-118662365D01*
X157947815Y-118484022D01*
X158047895Y-118287606D01*
X158116015Y-118077951D01*
X158150500Y-117860222D01*
X158150500Y-117639778D01*
X158116015Y-117422049D01*
X158069956Y-117280291D01*
X158047896Y-117212396D01*
X158047895Y-117212393D01*
X158000249Y-117118884D01*
X157947815Y-117015978D01*
X157838775Y-116865896D01*
X157818247Y-116837641D01*
X157818243Y-116837636D01*
X157662363Y-116681756D01*
X157662358Y-116681752D01*
X157484025Y-116552187D01*
X157484024Y-116552186D01*
X157484022Y-116552185D01*
X157417274Y-116518175D01*
X157287606Y-116452104D01*
X157287603Y-116452103D01*
X157077952Y-116383985D01*
X156969086Y-116366742D01*
X156860222Y-116349500D01*
X156639778Y-116349500D01*
X156567201Y-116360995D01*
X156422047Y-116383985D01*
X156212396Y-116452103D01*
X156212393Y-116452104D01*
X156015974Y-116552187D01*
X155837641Y-116681752D01*
X155837636Y-116681756D01*
X155681756Y-116837636D01*
X155681752Y-116837641D01*
X155552187Y-117015974D01*
X155452104Y-117212393D01*
X155452103Y-117212396D01*
X155383985Y-117422047D01*
X155349500Y-117639778D01*
X153650500Y-117639778D01*
X153616015Y-117422049D01*
X153569956Y-117280291D01*
X153547896Y-117212396D01*
X153547895Y-117212393D01*
X153500249Y-117118884D01*
X153447815Y-117015978D01*
X153338775Y-116865896D01*
X153318247Y-116837641D01*
X153318243Y-116837636D01*
X153162363Y-116681756D01*
X153162358Y-116681752D01*
X152984025Y-116552187D01*
X152984024Y-116552186D01*
X152984022Y-116552185D01*
X152917274Y-116518175D01*
X152787606Y-116452104D01*
X152787603Y-116452103D01*
X152577952Y-116383985D01*
X152469086Y-116366742D01*
X152360222Y-116349500D01*
X152139778Y-116349500D01*
X152067201Y-116360995D01*
X151922047Y-116383985D01*
X151712396Y-116452103D01*
X151712393Y-116452104D01*
X151515974Y-116552187D01*
X151337641Y-116681752D01*
X151337636Y-116681756D01*
X151181756Y-116837636D01*
X151181752Y-116837641D01*
X151052187Y-117015974D01*
X150952104Y-117212393D01*
X150952103Y-117212396D01*
X150883985Y-117422047D01*
X150849500Y-117639778D01*
X149150500Y-117639778D01*
X149116015Y-117422049D01*
X149069956Y-117280291D01*
X149047896Y-117212396D01*
X149047895Y-117212393D01*
X149000249Y-117118884D01*
X148947815Y-117015978D01*
X148838775Y-116865896D01*
X148818247Y-116837641D01*
X148818243Y-116837636D01*
X148662363Y-116681756D01*
X148662358Y-116681752D01*
X148484025Y-116552187D01*
X148484024Y-116552186D01*
X148484022Y-116552185D01*
X148417274Y-116518175D01*
X148287606Y-116452104D01*
X148287603Y-116452103D01*
X148077952Y-116383985D01*
X147969086Y-116366742D01*
X147860222Y-116349500D01*
X147639778Y-116349500D01*
X147567201Y-116360995D01*
X147422047Y-116383985D01*
X147212396Y-116452103D01*
X147212393Y-116452104D01*
X147015974Y-116552187D01*
X146837641Y-116681752D01*
X146837636Y-116681756D01*
X146681756Y-116837636D01*
X146681752Y-116837641D01*
X146552187Y-117015974D01*
X146452104Y-117212393D01*
X146452103Y-117212396D01*
X146383985Y-117422047D01*
X146349500Y-117639778D01*
X144650500Y-117639778D01*
X144616015Y-117422049D01*
X144569956Y-117280291D01*
X144547896Y-117212396D01*
X144547895Y-117212393D01*
X144500249Y-117118884D01*
X144447815Y-117015978D01*
X144338775Y-116865896D01*
X144318247Y-116837641D01*
X144318243Y-116837636D01*
X144162363Y-116681756D01*
X144162358Y-116681752D01*
X143984025Y-116552187D01*
X143984024Y-116552186D01*
X143984022Y-116552185D01*
X143917274Y-116518175D01*
X143787606Y-116452104D01*
X143787603Y-116452103D01*
X143577952Y-116383985D01*
X143469086Y-116366742D01*
X143360222Y-116349500D01*
X143139778Y-116349500D01*
X143067201Y-116360995D01*
X142922047Y-116383985D01*
X142712396Y-116452103D01*
X142712393Y-116452104D01*
X142515974Y-116552187D01*
X142337641Y-116681752D01*
X142337636Y-116681756D01*
X142181756Y-116837636D01*
X142181752Y-116837641D01*
X142052187Y-117015974D01*
X141952104Y-117212393D01*
X141952103Y-117212396D01*
X141883985Y-117422047D01*
X141849500Y-117639778D01*
X136205749Y-117639778D01*
X136205783Y-117634164D01*
X136205783Y-117634163D01*
X136216099Y-115911304D01*
X184099500Y-115911304D01*
X184099500Y-116088695D01*
X184134103Y-116262658D01*
X184134106Y-116262667D01*
X184201983Y-116426540D01*
X184201990Y-116426553D01*
X184300535Y-116574034D01*
X184300538Y-116574038D01*
X184425961Y-116699461D01*
X184425965Y-116699464D01*
X184573446Y-116798009D01*
X184573459Y-116798016D01*
X184669110Y-116837635D01*
X184737334Y-116865894D01*
X184737336Y-116865894D01*
X184737341Y-116865896D01*
X184911304Y-116900499D01*
X184911307Y-116900500D01*
X184911309Y-116900500D01*
X185088693Y-116900500D01*
X185088694Y-116900499D01*
X185146682Y-116888964D01*
X185262658Y-116865896D01*
X185262661Y-116865894D01*
X185262666Y-116865894D01*
X185426547Y-116798013D01*
X185574035Y-116699464D01*
X185699464Y-116574035D01*
X185701030Y-116571691D01*
X185702168Y-116570739D01*
X185703328Y-116569327D01*
X185703595Y-116569546D01*
X185754638Y-116526886D01*
X185823963Y-116518175D01*
X185886992Y-116548326D01*
X185914619Y-116584284D01*
X185930476Y-116615405D01*
X186046172Y-116774646D01*
X186185354Y-116913828D01*
X186344595Y-117029524D01*
X186467992Y-117092397D01*
X186521213Y-117119515D01*
X186572009Y-117167489D01*
X186588804Y-117235310D01*
X186566267Y-117301445D01*
X186521213Y-117340485D01*
X186344594Y-117430476D01*
X186253741Y-117496485D01*
X186185354Y-117546172D01*
X186185352Y-117546174D01*
X186185351Y-117546174D01*
X186046174Y-117685351D01*
X186046174Y-117685352D01*
X186046172Y-117685354D01*
X185996485Y-117753741D01*
X185930476Y-117844594D01*
X185841117Y-118019970D01*
X185780290Y-118207173D01*
X185749500Y-118401577D01*
X185749500Y-118598422D01*
X185780290Y-118792826D01*
X185841117Y-118980029D01*
X185910405Y-119116014D01*
X185930476Y-119155405D01*
X186046172Y-119314646D01*
X186185354Y-119453828D01*
X186344595Y-119569524D01*
X186427455Y-119611743D01*
X186519970Y-119658882D01*
X186519972Y-119658882D01*
X186519975Y-119658884D01*
X186620317Y-119691487D01*
X186707173Y-119719709D01*
X186901578Y-119750500D01*
X186901583Y-119750500D01*
X187098422Y-119750500D01*
X187292826Y-119719709D01*
X187480025Y-119658884D01*
X187655405Y-119569524D01*
X187814646Y-119453828D01*
X187953828Y-119314646D01*
X188069524Y-119155405D01*
X188158884Y-118980025D01*
X188219709Y-118792826D01*
X188240372Y-118662365D01*
X188250500Y-118598422D01*
X188250500Y-118401577D01*
X188219709Y-118207173D01*
X188177722Y-118077952D01*
X188158884Y-118019975D01*
X188158882Y-118019972D01*
X188158882Y-118019970D01*
X188077486Y-117860222D01*
X188069524Y-117844595D01*
X187953828Y-117685354D01*
X187814646Y-117546172D01*
X187735025Y-117488324D01*
X187655403Y-117430474D01*
X187478787Y-117340485D01*
X187427990Y-117292511D01*
X187411195Y-117224690D01*
X187433732Y-117158555D01*
X187478787Y-117119515D01*
X187655403Y-117029525D01*
X187655402Y-117029525D01*
X187655405Y-117029524D01*
X187814646Y-116913828D01*
X187953828Y-116774646D01*
X188069524Y-116615405D01*
X188158884Y-116440025D01*
X188219709Y-116252826D01*
X188250500Y-116058422D01*
X188250500Y-115861577D01*
X188219709Y-115667173D01*
X188158882Y-115479970D01*
X188085341Y-115335638D01*
X188069524Y-115304595D01*
X187953828Y-115145354D01*
X187814646Y-115006172D01*
X187735025Y-114948324D01*
X187655403Y-114890474D01*
X187478787Y-114800485D01*
X187427990Y-114752511D01*
X187411195Y-114684690D01*
X187433732Y-114618555D01*
X187478787Y-114579515D01*
X187655403Y-114489525D01*
X187655402Y-114489525D01*
X187655405Y-114489524D01*
X187814646Y-114373828D01*
X187953828Y-114234646D01*
X188069524Y-114075405D01*
X188158884Y-113900025D01*
X188219709Y-113712826D01*
X188250500Y-113518422D01*
X188250500Y-113321577D01*
X188219709Y-113127173D01*
X188158882Y-112939970D01*
X188085341Y-112795638D01*
X188069524Y-112764595D01*
X187953828Y-112605354D01*
X187814646Y-112466172D01*
X187735025Y-112408324D01*
X187655403Y-112350474D01*
X187478787Y-112260485D01*
X187427990Y-112212511D01*
X187411195Y-112144690D01*
X187433732Y-112078555D01*
X187478787Y-112039515D01*
X187655403Y-111949525D01*
X187655402Y-111949525D01*
X187655405Y-111949524D01*
X187814646Y-111833828D01*
X187953828Y-111694646D01*
X188069524Y-111535405D01*
X188158884Y-111360025D01*
X188219709Y-111172826D01*
X188224943Y-111139778D01*
X188250500Y-110978422D01*
X188250500Y-110781577D01*
X188219709Y-110587173D01*
X188158882Y-110399970D01*
X188085341Y-110255638D01*
X188069524Y-110224595D01*
X187953828Y-110065354D01*
X187814646Y-109926172D01*
X187709117Y-109849500D01*
X187655403Y-109810474D01*
X187478787Y-109720485D01*
X187427990Y-109672511D01*
X187411195Y-109604690D01*
X187433732Y-109538555D01*
X187478787Y-109499515D01*
X187655403Y-109409525D01*
X187655402Y-109409525D01*
X187655405Y-109409524D01*
X187814646Y-109293828D01*
X187953828Y-109154646D01*
X188069524Y-108995405D01*
X188158884Y-108820025D01*
X188219709Y-108632826D01*
X188250500Y-108438422D01*
X188250500Y-108241577D01*
X188219709Y-108047173D01*
X188158882Y-107859970D01*
X188085341Y-107715638D01*
X188069524Y-107684595D01*
X187953828Y-107525354D01*
X187814646Y-107386172D01*
X187735025Y-107328324D01*
X187655403Y-107270474D01*
X187478787Y-107180485D01*
X187427990Y-107132511D01*
X187411195Y-107064690D01*
X187433732Y-106998555D01*
X187478787Y-106959515D01*
X187655403Y-106869525D01*
X187655402Y-106869525D01*
X187655405Y-106869524D01*
X187814646Y-106753828D01*
X187953828Y-106614646D01*
X188069524Y-106455405D01*
X188158884Y-106280025D01*
X188219709Y-106092826D01*
X188250500Y-105898422D01*
X188250500Y-105701577D01*
X188219709Y-105507173D01*
X188158882Y-105319970D01*
X188085341Y-105175638D01*
X188069524Y-105144595D01*
X187953828Y-104985354D01*
X187814646Y-104846172D01*
X187798328Y-104834316D01*
X187755664Y-104778987D01*
X187749686Y-104709373D01*
X187782293Y-104647579D01*
X187843132Y-104613222D01*
X187871216Y-104610000D01*
X187897828Y-104610000D01*
X187897844Y-104609999D01*
X187957372Y-104603598D01*
X187957379Y-104603596D01*
X188092086Y-104553354D01*
X188092093Y-104553350D01*
X188207187Y-104467190D01*
X188207190Y-104467187D01*
X188293350Y-104352093D01*
X188293354Y-104352086D01*
X188343596Y-104217379D01*
X188343598Y-104217372D01*
X188349999Y-104157844D01*
X188350000Y-104157827D01*
X188350000Y-103510000D01*
X187433012Y-103510000D01*
X187465925Y-103452993D01*
X187500000Y-103325826D01*
X187500000Y-103194174D01*
X187465925Y-103067007D01*
X187433012Y-103010000D01*
X188350000Y-103010000D01*
X188350000Y-102362172D01*
X188349999Y-102362155D01*
X188343598Y-102302627D01*
X188343596Y-102302620D01*
X188293354Y-102167913D01*
X188293350Y-102167906D01*
X188207190Y-102052812D01*
X188207187Y-102052809D01*
X188092093Y-101966649D01*
X188092086Y-101966645D01*
X187957379Y-101916403D01*
X187957372Y-101916401D01*
X187897844Y-101910000D01*
X187250000Y-101910000D01*
X187250000Y-102826988D01*
X187192993Y-102794075D01*
X187065826Y-102760000D01*
X186934174Y-102760000D01*
X186807007Y-102794075D01*
X186750000Y-102826988D01*
X186750000Y-101910000D01*
X186102155Y-101910000D01*
X186042627Y-101916401D01*
X186042620Y-101916403D01*
X185907913Y-101966645D01*
X185907911Y-101966646D01*
X185898810Y-101973460D01*
X185833345Y-101997876D01*
X185765072Y-101983024D01*
X185715667Y-101933618D01*
X185700500Y-101874192D01*
X185700500Y-99341518D01*
X185720185Y-99274479D01*
X185736815Y-99253841D01*
X186063925Y-98926730D01*
X186125246Y-98893247D01*
X186127237Y-98892831D01*
X186262666Y-98865894D01*
X186426547Y-98798013D01*
X186574035Y-98699464D01*
X186699464Y-98574035D01*
X186798013Y-98426547D01*
X186865894Y-98262666D01*
X186876530Y-98209199D01*
X186900499Y-98088695D01*
X186900500Y-98088693D01*
X186900500Y-97911306D01*
X186900499Y-97911304D01*
X186865896Y-97737341D01*
X186865893Y-97737332D01*
X186798016Y-97573459D01*
X186798009Y-97573446D01*
X186699464Y-97425965D01*
X186699461Y-97425961D01*
X186574038Y-97300538D01*
X186574034Y-97300535D01*
X186426553Y-97201990D01*
X186426540Y-97201983D01*
X186262667Y-97134106D01*
X186262658Y-97134103D01*
X186088694Y-97099500D01*
X186088691Y-97099500D01*
X185911309Y-97099500D01*
X185911306Y-97099500D01*
X185737341Y-97134103D01*
X185737332Y-97134106D01*
X185573459Y-97201983D01*
X185573446Y-97201990D01*
X185425965Y-97300535D01*
X185425961Y-97300538D01*
X185300538Y-97425961D01*
X185300535Y-97425965D01*
X185201990Y-97573446D01*
X185201983Y-97573459D01*
X185134106Y-97737332D01*
X185134104Y-97737340D01*
X185107202Y-97872586D01*
X185074817Y-97934496D01*
X185073266Y-97936075D01*
X184455890Y-98553451D01*
X184455884Y-98553458D01*
X184417763Y-98610512D01*
X184417763Y-98610513D01*
X184398494Y-98639351D01*
X184379225Y-98668188D01*
X184379221Y-98668195D01*
X184326421Y-98795667D01*
X184326418Y-98795677D01*
X184299500Y-98931004D01*
X184299500Y-115389899D01*
X184279815Y-115456938D01*
X184278602Y-115458790D01*
X184201988Y-115573449D01*
X184201987Y-115573452D01*
X184134106Y-115737332D01*
X184134103Y-115737341D01*
X184099500Y-115911304D01*
X136216099Y-115911304D01*
X136230727Y-113468475D01*
X160299500Y-113468475D01*
X160299500Y-115531517D01*
X160306142Y-115573452D01*
X160314354Y-115625304D01*
X160371950Y-115738342D01*
X160371952Y-115738344D01*
X160371954Y-115738347D01*
X160461652Y-115828045D01*
X160461654Y-115828046D01*
X160461658Y-115828050D01*
X160574694Y-115885645D01*
X160574698Y-115885647D01*
X160668475Y-115900499D01*
X160668481Y-115900500D01*
X162731518Y-115900499D01*
X162825304Y-115885646D01*
X162938342Y-115828050D01*
X163028050Y-115738342D01*
X163085646Y-115625304D01*
X163085646Y-115625302D01*
X163085647Y-115625301D01*
X163100499Y-115531524D01*
X163100500Y-115531519D01*
X163100499Y-114389778D01*
X167899500Y-114389778D01*
X167899500Y-114610221D01*
X167933985Y-114827952D01*
X168002103Y-115037603D01*
X168002104Y-115037606D01*
X168102187Y-115234025D01*
X168231752Y-115412358D01*
X168231756Y-115412363D01*
X168387636Y-115568243D01*
X168387641Y-115568247D01*
X168523803Y-115667173D01*
X168565978Y-115697815D01*
X168645526Y-115738347D01*
X168762393Y-115797895D01*
X168762396Y-115797896D01*
X168855197Y-115828048D01*
X168972049Y-115866015D01*
X169189778Y-115900500D01*
X169189779Y-115900500D01*
X169410221Y-115900500D01*
X169410222Y-115900500D01*
X169627951Y-115866015D01*
X169837606Y-115797895D01*
X170034022Y-115697815D01*
X170212365Y-115568242D01*
X170368242Y-115412365D01*
X170497815Y-115234022D01*
X170597895Y-115037606D01*
X170666015Y-114827951D01*
X170700500Y-114610222D01*
X170700500Y-114389778D01*
X170666015Y-114172049D01*
X170597895Y-113962394D01*
X170597895Y-113962393D01*
X170563237Y-113894375D01*
X170497815Y-113765978D01*
X170459198Y-113712826D01*
X170368247Y-113587641D01*
X170368243Y-113587636D01*
X170212363Y-113431756D01*
X170212358Y-113431752D01*
X170034025Y-113302187D01*
X170034024Y-113302186D01*
X170034022Y-113302185D01*
X169954482Y-113261657D01*
X169837606Y-113202104D01*
X169837603Y-113202103D01*
X169627952Y-113133985D01*
X169504006Y-113114354D01*
X169410222Y-113099500D01*
X169189778Y-113099500D01*
X169117201Y-113110995D01*
X168972047Y-113133985D01*
X168762396Y-113202103D01*
X168762393Y-113202104D01*
X168565974Y-113302187D01*
X168387641Y-113431752D01*
X168387636Y-113431756D01*
X168231756Y-113587636D01*
X168231752Y-113587641D01*
X168102187Y-113765974D01*
X168002104Y-113962393D01*
X168002103Y-113962396D01*
X167933985Y-114172047D01*
X167899500Y-114389778D01*
X163100499Y-114389778D01*
X163100499Y-113468482D01*
X163085646Y-113374696D01*
X163028050Y-113261658D01*
X163028046Y-113261654D01*
X163028045Y-113261652D01*
X162938347Y-113171954D01*
X162938344Y-113171952D01*
X162938342Y-113171950D01*
X162850463Y-113127173D01*
X162825301Y-113114352D01*
X162731524Y-113099500D01*
X160668482Y-113099500D01*
X160587519Y-113112323D01*
X160574696Y-113114354D01*
X160461658Y-113171950D01*
X160461657Y-113171951D01*
X160461652Y-113171954D01*
X160371954Y-113261652D01*
X160371951Y-113261657D01*
X160314352Y-113374698D01*
X160299500Y-113468475D01*
X136230727Y-113468475D01*
X136230761Y-113462866D01*
X136230761Y-113462865D01*
X136243353Y-111360029D01*
X136244672Y-111139778D01*
X141849500Y-111139778D01*
X141849500Y-111360221D01*
X141883985Y-111577952D01*
X141952103Y-111787603D01*
X141952104Y-111787606D01*
X142052187Y-111984025D01*
X142181752Y-112162358D01*
X142181756Y-112162363D01*
X142337636Y-112318243D01*
X142337641Y-112318247D01*
X142493192Y-112431260D01*
X142515978Y-112447815D01*
X142644375Y-112513237D01*
X142712393Y-112547895D01*
X142712396Y-112547896D01*
X142817221Y-112581955D01*
X142922049Y-112616015D01*
X143139778Y-112650500D01*
X143139779Y-112650500D01*
X143360221Y-112650500D01*
X143360222Y-112650500D01*
X143577951Y-112616015D01*
X143787606Y-112547895D01*
X143984022Y-112447815D01*
X144162365Y-112318242D01*
X144318242Y-112162365D01*
X144447815Y-111984022D01*
X144547895Y-111787606D01*
X144616015Y-111577951D01*
X144650500Y-111360222D01*
X144650500Y-111139778D01*
X146349500Y-111139778D01*
X146349500Y-111360221D01*
X146383985Y-111577952D01*
X146452103Y-111787603D01*
X146452104Y-111787606D01*
X146552187Y-111984025D01*
X146681752Y-112162358D01*
X146681756Y-112162363D01*
X146837636Y-112318243D01*
X146837641Y-112318247D01*
X146993192Y-112431260D01*
X147015978Y-112447815D01*
X147144375Y-112513237D01*
X147212393Y-112547895D01*
X147212396Y-112547896D01*
X147317221Y-112581955D01*
X147422049Y-112616015D01*
X147639778Y-112650500D01*
X147639779Y-112650500D01*
X147860221Y-112650500D01*
X147860222Y-112650500D01*
X148077951Y-112616015D01*
X148287606Y-112547895D01*
X148484022Y-112447815D01*
X148662365Y-112318242D01*
X148818242Y-112162365D01*
X148947815Y-111984022D01*
X149047895Y-111787606D01*
X149116015Y-111577951D01*
X149150500Y-111360222D01*
X149150500Y-111139778D01*
X150849500Y-111139778D01*
X150849500Y-111360221D01*
X150883985Y-111577952D01*
X150952103Y-111787603D01*
X150952104Y-111787606D01*
X151052187Y-111984025D01*
X151181752Y-112162358D01*
X151181756Y-112162363D01*
X151337636Y-112318243D01*
X151337641Y-112318247D01*
X151493192Y-112431260D01*
X151515978Y-112447815D01*
X151644375Y-112513237D01*
X151712393Y-112547895D01*
X151712396Y-112547896D01*
X151817221Y-112581955D01*
X151922049Y-112616015D01*
X152139778Y-112650500D01*
X152139779Y-112650500D01*
X152360221Y-112650500D01*
X152360222Y-112650500D01*
X152577951Y-112616015D01*
X152787606Y-112547895D01*
X152984022Y-112447815D01*
X153162365Y-112318242D01*
X153318242Y-112162365D01*
X153447815Y-111984022D01*
X153547895Y-111787606D01*
X153616015Y-111577951D01*
X153650500Y-111360222D01*
X153650500Y-111139778D01*
X155349500Y-111139778D01*
X155349500Y-111360221D01*
X155383985Y-111577952D01*
X155452103Y-111787603D01*
X155452104Y-111787606D01*
X155552187Y-111984025D01*
X155681752Y-112162358D01*
X155681756Y-112162363D01*
X155837636Y-112318243D01*
X155837641Y-112318247D01*
X155993192Y-112431260D01*
X156015978Y-112447815D01*
X156144375Y-112513237D01*
X156212393Y-112547895D01*
X156212396Y-112547896D01*
X156317221Y-112581955D01*
X156422049Y-112616015D01*
X156639778Y-112650500D01*
X156639779Y-112650500D01*
X156860221Y-112650500D01*
X156860222Y-112650500D01*
X157077951Y-112616015D01*
X157287606Y-112547895D01*
X157484022Y-112447815D01*
X157662365Y-112318242D01*
X157818242Y-112162365D01*
X157947815Y-111984022D01*
X158047895Y-111787606D01*
X158116015Y-111577951D01*
X158150500Y-111360222D01*
X158150500Y-111139778D01*
X158116015Y-110922049D01*
X158047895Y-110712394D01*
X158047895Y-110712393D01*
X158013237Y-110644375D01*
X157947815Y-110515978D01*
X157931260Y-110493192D01*
X157818247Y-110337641D01*
X157818243Y-110337636D01*
X157662363Y-110181756D01*
X157662358Y-110181752D01*
X157484025Y-110052187D01*
X157484024Y-110052186D01*
X157484022Y-110052185D01*
X157421096Y-110020122D01*
X157287606Y-109952104D01*
X157287603Y-109952103D01*
X157077952Y-109883985D01*
X156969086Y-109866742D01*
X156860222Y-109849500D01*
X156639778Y-109849500D01*
X156567201Y-109860995D01*
X156422047Y-109883985D01*
X156212396Y-109952103D01*
X156212393Y-109952104D01*
X156015974Y-110052187D01*
X155837641Y-110181752D01*
X155837636Y-110181756D01*
X155681756Y-110337636D01*
X155681752Y-110337641D01*
X155552187Y-110515974D01*
X155452104Y-110712393D01*
X155452103Y-110712396D01*
X155383985Y-110922047D01*
X155349500Y-111139778D01*
X153650500Y-111139778D01*
X153616015Y-110922049D01*
X153547895Y-110712394D01*
X153547895Y-110712393D01*
X153513237Y-110644375D01*
X153447815Y-110515978D01*
X153431260Y-110493192D01*
X153318247Y-110337641D01*
X153318243Y-110337636D01*
X153162363Y-110181756D01*
X153162358Y-110181752D01*
X152984025Y-110052187D01*
X152984024Y-110052186D01*
X152984022Y-110052185D01*
X152921096Y-110020122D01*
X152787606Y-109952104D01*
X152787603Y-109952103D01*
X152577952Y-109883985D01*
X152469086Y-109866742D01*
X152360222Y-109849500D01*
X152139778Y-109849500D01*
X152067201Y-109860995D01*
X151922047Y-109883985D01*
X151712396Y-109952103D01*
X151712393Y-109952104D01*
X151515974Y-110052187D01*
X151337641Y-110181752D01*
X151337636Y-110181756D01*
X151181756Y-110337636D01*
X151181752Y-110337641D01*
X151052187Y-110515974D01*
X150952104Y-110712393D01*
X150952103Y-110712396D01*
X150883985Y-110922047D01*
X150849500Y-111139778D01*
X149150500Y-111139778D01*
X149116015Y-110922049D01*
X149047895Y-110712394D01*
X149047895Y-110712393D01*
X149013237Y-110644375D01*
X148947815Y-110515978D01*
X148931260Y-110493192D01*
X148818247Y-110337641D01*
X148818243Y-110337636D01*
X148662363Y-110181756D01*
X148662358Y-110181752D01*
X148484025Y-110052187D01*
X148484024Y-110052186D01*
X148484022Y-110052185D01*
X148421096Y-110020122D01*
X148287606Y-109952104D01*
X148287603Y-109952103D01*
X148077952Y-109883985D01*
X147969086Y-109866742D01*
X147860222Y-109849500D01*
X147639778Y-109849500D01*
X147567201Y-109860995D01*
X147422047Y-109883985D01*
X147212396Y-109952103D01*
X147212393Y-109952104D01*
X147015974Y-110052187D01*
X146837641Y-110181752D01*
X146837636Y-110181756D01*
X146681756Y-110337636D01*
X146681752Y-110337641D01*
X146552187Y-110515974D01*
X146452104Y-110712393D01*
X146452103Y-110712396D01*
X146383985Y-110922047D01*
X146349500Y-111139778D01*
X144650500Y-111139778D01*
X144616015Y-110922049D01*
X144547895Y-110712394D01*
X144547895Y-110712393D01*
X144513237Y-110644375D01*
X144447815Y-110515978D01*
X144431260Y-110493192D01*
X144318247Y-110337641D01*
X144318243Y-110337636D01*
X144162363Y-110181756D01*
X144162358Y-110181752D01*
X143984025Y-110052187D01*
X143984024Y-110052186D01*
X143984022Y-110052185D01*
X143921096Y-110020122D01*
X143787606Y-109952104D01*
X143787603Y-109952103D01*
X143577952Y-109883985D01*
X143469086Y-109866742D01*
X143360222Y-109849500D01*
X143139778Y-109849500D01*
X143067201Y-109860995D01*
X142922047Y-109883985D01*
X142712396Y-109952103D01*
X142712393Y-109952104D01*
X142515974Y-110052187D01*
X142337641Y-110181752D01*
X142337636Y-110181756D01*
X142181756Y-110337636D01*
X142181752Y-110337641D01*
X142052187Y-110515974D01*
X141952104Y-110712393D01*
X141952103Y-110712396D01*
X141883985Y-110922047D01*
X141849500Y-111139778D01*
X136244672Y-111139778D01*
X136272726Y-106454629D01*
X136302926Y-101411304D01*
X149099500Y-101411304D01*
X149099500Y-101588695D01*
X149134103Y-101762658D01*
X149134106Y-101762667D01*
X149201983Y-101926540D01*
X149201990Y-101926553D01*
X149300535Y-102074034D01*
X149300538Y-102074038D01*
X149425961Y-102199461D01*
X149425965Y-102199464D01*
X149573446Y-102298009D01*
X149573459Y-102298016D01*
X149696363Y-102348923D01*
X149737334Y-102365894D01*
X149737336Y-102365894D01*
X149737341Y-102365896D01*
X149911304Y-102400499D01*
X149911307Y-102400500D01*
X149911309Y-102400500D01*
X150088693Y-102400500D01*
X150088694Y-102400499D01*
X150146682Y-102388964D01*
X150262658Y-102365896D01*
X150262661Y-102365894D01*
X150262666Y-102365894D01*
X150426547Y-102298013D01*
X150541209Y-102221397D01*
X150607886Y-102200520D01*
X150610100Y-102200500D01*
X155389900Y-102200500D01*
X155456939Y-102220185D01*
X155458788Y-102221396D01*
X155573453Y-102298013D01*
X155737334Y-102365894D01*
X155737336Y-102365894D01*
X155737341Y-102365896D01*
X155911304Y-102400499D01*
X155911307Y-102400500D01*
X155911309Y-102400500D01*
X156088693Y-102400500D01*
X156088694Y-102400499D01*
X156146682Y-102388964D01*
X156262658Y-102365896D01*
X156262661Y-102365894D01*
X156262666Y-102365894D01*
X156426547Y-102298013D01*
X156574035Y-102199464D01*
X156699464Y-102074035D01*
X156798013Y-101926547D01*
X156865894Y-101762666D01*
X156900500Y-101588691D01*
X156900500Y-101411309D01*
X156900500Y-101411306D01*
X156900499Y-101411304D01*
X156865896Y-101237341D01*
X156865893Y-101237332D01*
X156798016Y-101073459D01*
X156798009Y-101073446D01*
X156699464Y-100925965D01*
X156699461Y-100925961D01*
X156574038Y-100800538D01*
X156574034Y-100800535D01*
X156426553Y-100701990D01*
X156426540Y-100701983D01*
X156262667Y-100634106D01*
X156262658Y-100634103D01*
X156088694Y-100599500D01*
X156088691Y-100599500D01*
X155911309Y-100599500D01*
X155911306Y-100599500D01*
X155737341Y-100634103D01*
X155737332Y-100634106D01*
X155573452Y-100701987D01*
X155573450Y-100701988D01*
X155458791Y-100778602D01*
X155392114Y-100799480D01*
X155389900Y-100799500D01*
X150610100Y-100799500D01*
X150543061Y-100779815D01*
X150541209Y-100778602D01*
X150426549Y-100701988D01*
X150426547Y-100701987D01*
X150262667Y-100634106D01*
X150262658Y-100634103D01*
X150088694Y-100599500D01*
X150088691Y-100599500D01*
X149911309Y-100599500D01*
X149911306Y-100599500D01*
X149737341Y-100634103D01*
X149737332Y-100634106D01*
X149573459Y-100701983D01*
X149573446Y-100701990D01*
X149425965Y-100800535D01*
X149425961Y-100800538D01*
X149300538Y-100925961D01*
X149300535Y-100925965D01*
X149201990Y-101073446D01*
X149201983Y-101073459D01*
X149134106Y-101237332D01*
X149134103Y-101237341D01*
X149099500Y-101411304D01*
X136302926Y-101411304D01*
X136302967Y-101404474D01*
X136302967Y-101404473D01*
X136393416Y-86299500D01*
X136401728Y-84911304D01*
X139099500Y-84911304D01*
X139099500Y-85088695D01*
X139134103Y-85262658D01*
X139134106Y-85262667D01*
X139201984Y-85426542D01*
X139201985Y-85426543D01*
X139201987Y-85426547D01*
X139257214Y-85509199D01*
X139278602Y-85541208D01*
X139299480Y-85607885D01*
X139299500Y-85610099D01*
X139299500Y-89389899D01*
X139279815Y-89456938D01*
X139278602Y-89458790D01*
X139201988Y-89573449D01*
X139201987Y-89573452D01*
X139134106Y-89737332D01*
X139134103Y-89737341D01*
X139099500Y-89911304D01*
X139099500Y-90088695D01*
X139134103Y-90262658D01*
X139134106Y-90262667D01*
X139201983Y-90426540D01*
X139201990Y-90426553D01*
X139300535Y-90574034D01*
X139300538Y-90574038D01*
X139425961Y-90699461D01*
X139425965Y-90699464D01*
X139573446Y-90798009D01*
X139573459Y-90798016D01*
X139696363Y-90848923D01*
X139737334Y-90865894D01*
X139737336Y-90865894D01*
X139737341Y-90865896D01*
X139911304Y-90900499D01*
X139911307Y-90900500D01*
X139911309Y-90900500D01*
X140088693Y-90900500D01*
X140088694Y-90900499D01*
X140146682Y-90888964D01*
X140262658Y-90865896D01*
X140262661Y-90865894D01*
X140262666Y-90865894D01*
X140426547Y-90798013D01*
X140574035Y-90699464D01*
X140699464Y-90574035D01*
X140798013Y-90426547D01*
X140865894Y-90262666D01*
X140870181Y-90241118D01*
X140900499Y-90088695D01*
X140900500Y-90088693D01*
X140900500Y-89911306D01*
X140900499Y-89911304D01*
X140865896Y-89737341D01*
X140865893Y-89737332D01*
X140798013Y-89573453D01*
X140798011Y-89573451D01*
X140798011Y-89573449D01*
X140721398Y-89458790D01*
X140700520Y-89392112D01*
X140700500Y-89389899D01*
X140700500Y-85610099D01*
X140720185Y-85543060D01*
X140721398Y-85541208D01*
X140742786Y-85509199D01*
X140798013Y-85426547D01*
X140865894Y-85262666D01*
X140870932Y-85237341D01*
X140900499Y-85088695D01*
X140900500Y-85088693D01*
X140900500Y-84911306D01*
X140900499Y-84911304D01*
X140865896Y-84737341D01*
X140865893Y-84737332D01*
X140798016Y-84573459D01*
X140798009Y-84573446D01*
X140699464Y-84425965D01*
X140699461Y-84425961D01*
X140574038Y-84300538D01*
X140574034Y-84300535D01*
X140426553Y-84201990D01*
X140426540Y-84201983D01*
X140262667Y-84134106D01*
X140262658Y-84134103D01*
X140088694Y-84099500D01*
X140088691Y-84099500D01*
X139911309Y-84099500D01*
X139911306Y-84099500D01*
X139737341Y-84134103D01*
X139737332Y-84134106D01*
X139573459Y-84201983D01*
X139573446Y-84201990D01*
X139425965Y-84300535D01*
X139425961Y-84300538D01*
X139300538Y-84425961D01*
X139300535Y-84425965D01*
X139201990Y-84573446D01*
X139201983Y-84573459D01*
X139134106Y-84737332D01*
X139134103Y-84737341D01*
X139099500Y-84911304D01*
X136401728Y-84911304D01*
X136437095Y-79005024D01*
X136551429Y-59911304D01*
X138099500Y-59911304D01*
X138099500Y-60088695D01*
X138134103Y-60262658D01*
X138134106Y-60262667D01*
X138201983Y-60426540D01*
X138201990Y-60426553D01*
X138300535Y-60574034D01*
X138300538Y-60574038D01*
X138425961Y-60699461D01*
X138425965Y-60699464D01*
X138573446Y-60798009D01*
X138573459Y-60798016D01*
X138647039Y-60828493D01*
X138713901Y-60856188D01*
X138737332Y-60865893D01*
X138737334Y-60865894D01*
X138872590Y-60892798D01*
X138934497Y-60925181D01*
X138936076Y-60926733D01*
X139763181Y-61753837D01*
X139796666Y-61815160D01*
X139799500Y-61841518D01*
X139799500Y-73431006D01*
X139799500Y-73568994D01*
X139799500Y-73568996D01*
X139799499Y-73568996D01*
X139826418Y-73704322D01*
X139826421Y-73704332D01*
X139879222Y-73831807D01*
X139955887Y-73946545D01*
X139955888Y-73946546D01*
X140263181Y-74253838D01*
X140296666Y-74315161D01*
X140299500Y-74341519D01*
X140299500Y-78889899D01*
X140279815Y-78956938D01*
X140278602Y-78958790D01*
X140201988Y-79073449D01*
X140201987Y-79073452D01*
X140134106Y-79237332D01*
X140134103Y-79237341D01*
X140099500Y-79411304D01*
X140099500Y-79588695D01*
X140134103Y-79762658D01*
X140134106Y-79762667D01*
X140201983Y-79926540D01*
X140201990Y-79926553D01*
X140300535Y-80074034D01*
X140300538Y-80074038D01*
X140425961Y-80199461D01*
X140425965Y-80199464D01*
X140573446Y-80298009D01*
X140573459Y-80298016D01*
X140660626Y-80334121D01*
X140737334Y-80365894D01*
X140737336Y-80365894D01*
X140737341Y-80365896D01*
X140911304Y-80400499D01*
X140911307Y-80400500D01*
X140911309Y-80400500D01*
X141088693Y-80400500D01*
X141088694Y-80400499D01*
X141146682Y-80388964D01*
X141262658Y-80365896D01*
X141262661Y-80365894D01*
X141262666Y-80365894D01*
X141426547Y-80298013D01*
X141474949Y-80265671D01*
X141541624Y-80244793D01*
X141609005Y-80263276D01*
X141655696Y-80315254D01*
X141658401Y-80321321D01*
X141701984Y-80426542D01*
X141701985Y-80426543D01*
X141701987Y-80426547D01*
X141774627Y-80535259D01*
X141778602Y-80541208D01*
X141799480Y-80607885D01*
X141799500Y-80610099D01*
X141799500Y-83931006D01*
X141799500Y-84068994D01*
X141799500Y-84068996D01*
X141799499Y-84068996D01*
X141826418Y-84204322D01*
X141826421Y-84204332D01*
X141879222Y-84331807D01*
X141955887Y-84446545D01*
X141955888Y-84446546D01*
X143597162Y-86087819D01*
X143630647Y-86149142D01*
X143625663Y-86218834D01*
X143583791Y-86274767D01*
X143518327Y-86299184D01*
X143509481Y-86299500D01*
X143431004Y-86299500D01*
X143295677Y-86326418D01*
X143295667Y-86326421D01*
X143168192Y-86379222D01*
X143053454Y-86455887D01*
X142436075Y-87073266D01*
X142374752Y-87106751D01*
X142372586Y-87107202D01*
X142237340Y-87134104D01*
X142237332Y-87134106D01*
X142073459Y-87201983D01*
X142073446Y-87201990D01*
X141925965Y-87300535D01*
X141925961Y-87300538D01*
X141800538Y-87425961D01*
X141800535Y-87425965D01*
X141701990Y-87573446D01*
X141701983Y-87573459D01*
X141634106Y-87737332D01*
X141634103Y-87737341D01*
X141599500Y-87911304D01*
X141599500Y-88088695D01*
X141634103Y-88262658D01*
X141634106Y-88262667D01*
X141701983Y-88426540D01*
X141701990Y-88426553D01*
X141800535Y-88574034D01*
X141800538Y-88574038D01*
X141925961Y-88699461D01*
X141925965Y-88699464D01*
X142073446Y-88798009D01*
X142073459Y-88798016D01*
X142192813Y-88847453D01*
X142237334Y-88865894D01*
X142237336Y-88865894D01*
X142237341Y-88865896D01*
X142411304Y-88900499D01*
X142411307Y-88900500D01*
X142411309Y-88900500D01*
X142588693Y-88900500D01*
X142588694Y-88900499D01*
X142646682Y-88888964D01*
X142762658Y-88865896D01*
X142762661Y-88865894D01*
X142762666Y-88865894D01*
X142926547Y-88798013D01*
X143074035Y-88699464D01*
X143199464Y-88574035D01*
X143298013Y-88426547D01*
X143365894Y-88262666D01*
X143392797Y-88127408D01*
X143425180Y-88065503D01*
X143426676Y-88063979D01*
X143625025Y-87865630D01*
X143686346Y-87832147D01*
X143756038Y-87837131D01*
X143811971Y-87879003D01*
X143820091Y-87891313D01*
X143916400Y-88058126D01*
X144068060Y-88255774D01*
X144068066Y-88255781D01*
X144244218Y-88431933D01*
X144244225Y-88431939D01*
X144441873Y-88583599D01*
X144657623Y-88708162D01*
X144657638Y-88708169D01*
X144756825Y-88749253D01*
X144887793Y-88803502D01*
X145128435Y-88867982D01*
X145375435Y-88900500D01*
X145375442Y-88900500D01*
X145624558Y-88900500D01*
X145624565Y-88900500D01*
X145871565Y-88867982D01*
X146112207Y-88803502D01*
X146342373Y-88708164D01*
X146558127Y-88583599D01*
X146755776Y-88431938D01*
X146931938Y-88255776D01*
X147083599Y-88058127D01*
X147208164Y-87842373D01*
X147303502Y-87612207D01*
X147367982Y-87371565D01*
X147400500Y-87124565D01*
X147400500Y-86875435D01*
X147367982Y-86628435D01*
X147303502Y-86387793D01*
X147233517Y-86218834D01*
X147208169Y-86157638D01*
X147208162Y-86157623D01*
X147083599Y-85941873D01*
X146931939Y-85744225D01*
X146931933Y-85744218D01*
X146755781Y-85568066D01*
X146755774Y-85568060D01*
X146558126Y-85416400D01*
X146342376Y-85291837D01*
X146342361Y-85291830D01*
X146112207Y-85196498D01*
X145871561Y-85132017D01*
X145624575Y-85099501D01*
X145624570Y-85099500D01*
X145624565Y-85099500D01*
X145375435Y-85099500D01*
X145375429Y-85099500D01*
X145375424Y-85099501D01*
X145128438Y-85132017D01*
X144887785Y-85196500D01*
X144822466Y-85223556D01*
X144752996Y-85231025D01*
X144690517Y-85199749D01*
X144687333Y-85196676D01*
X143236819Y-83746162D01*
X143203334Y-83684839D01*
X143200500Y-83658481D01*
X143200500Y-80610099D01*
X143220185Y-80543060D01*
X143221398Y-80541208D01*
X143225373Y-80535259D01*
X143298013Y-80426547D01*
X143365894Y-80262666D01*
X143369450Y-80244793D01*
X143400499Y-80088695D01*
X143400500Y-80088693D01*
X143400500Y-79911306D01*
X143400499Y-79911304D01*
X143365896Y-79737341D01*
X143365893Y-79737332D01*
X143298016Y-79573459D01*
X143298009Y-79573446D01*
X143199464Y-79425965D01*
X143199461Y-79425961D01*
X143074038Y-79300538D01*
X143074034Y-79300535D01*
X142926553Y-79201990D01*
X142926540Y-79201983D01*
X142762667Y-79134106D01*
X142762658Y-79134103D01*
X142588694Y-79099500D01*
X142588691Y-79099500D01*
X142411309Y-79099500D01*
X142411306Y-79099500D01*
X142237341Y-79134103D01*
X142237332Y-79134106D01*
X142073459Y-79201983D01*
X142073441Y-79201993D01*
X142025049Y-79234328D01*
X141958372Y-79255206D01*
X141890992Y-79236721D01*
X141844302Y-79184742D01*
X141841598Y-79178678D01*
X141823136Y-79134106D01*
X141798013Y-79073453D01*
X141798011Y-79073451D01*
X141798011Y-79073449D01*
X141721398Y-78958790D01*
X141700520Y-78892112D01*
X141700500Y-78889899D01*
X141700500Y-76411304D01*
X143599500Y-76411304D01*
X143599500Y-76588695D01*
X143634103Y-76762658D01*
X143634106Y-76762667D01*
X143701983Y-76926540D01*
X143701990Y-76926553D01*
X143800535Y-77074034D01*
X143800538Y-77074038D01*
X143925961Y-77199461D01*
X143925965Y-77199464D01*
X144073446Y-77298009D01*
X144073459Y-77298016D01*
X144237332Y-77365893D01*
X144237334Y-77365894D01*
X144372590Y-77392798D01*
X144434497Y-77425181D01*
X144436076Y-77426733D01*
X145455886Y-78446542D01*
X145521686Y-78512342D01*
X145553459Y-78544115D01*
X145668182Y-78620771D01*
X145668186Y-78620773D01*
X145668189Y-78620775D01*
X145742866Y-78651707D01*
X145795671Y-78673580D01*
X145822591Y-78678934D01*
X145919630Y-78698237D01*
X145931006Y-78700500D01*
X145931007Y-78700500D01*
X157389900Y-78700500D01*
X157456939Y-78720185D01*
X157458788Y-78721396D01*
X157573453Y-78798013D01*
X157737334Y-78865894D01*
X157737336Y-78865894D01*
X157737341Y-78865896D01*
X157911304Y-78900499D01*
X157911307Y-78900500D01*
X157911309Y-78900500D01*
X158088693Y-78900500D01*
X158088694Y-78900499D01*
X158146682Y-78888964D01*
X158262658Y-78865896D01*
X158262661Y-78865894D01*
X158262666Y-78865894D01*
X158402535Y-78807958D01*
X158426540Y-78798016D01*
X158426540Y-78798015D01*
X158426547Y-78798013D01*
X158574035Y-78699464D01*
X158699464Y-78574035D01*
X158798013Y-78426547D01*
X158805700Y-78407990D01*
X158850207Y-78300538D01*
X158865894Y-78262666D01*
X158900500Y-78088691D01*
X158900500Y-77911309D01*
X158900500Y-77911306D01*
X158900499Y-77911304D01*
X158865896Y-77737341D01*
X158865893Y-77737332D01*
X158859059Y-77720832D01*
X158798013Y-77573453D01*
X158798011Y-77573451D01*
X158798011Y-77573449D01*
X158721398Y-77458790D01*
X158700520Y-77392112D01*
X158700500Y-77389899D01*
X158700500Y-76110099D01*
X158720185Y-76043060D01*
X158721398Y-76041208D01*
X158746170Y-76004134D01*
X158798013Y-75926547D01*
X158865894Y-75762666D01*
X158900500Y-75588691D01*
X158900500Y-75411309D01*
X158900500Y-75411306D01*
X158900499Y-75411304D01*
X158865896Y-75237341D01*
X158865893Y-75237332D01*
X158798016Y-75073459D01*
X158798009Y-75073446D01*
X158699464Y-74925965D01*
X158699461Y-74925961D01*
X158574038Y-74800538D01*
X158574034Y-74800535D01*
X158426553Y-74701990D01*
X158426540Y-74701983D01*
X158262667Y-74634106D01*
X158262658Y-74634103D01*
X158088694Y-74599500D01*
X158088691Y-74599500D01*
X157911309Y-74599500D01*
X157911306Y-74599500D01*
X157737341Y-74634103D01*
X157737332Y-74634106D01*
X157573459Y-74701983D01*
X157573446Y-74701990D01*
X157425965Y-74800535D01*
X157425961Y-74800538D01*
X157300538Y-74925961D01*
X157300535Y-74925965D01*
X157201990Y-75073446D01*
X157201983Y-75073459D01*
X157134106Y-75237332D01*
X157134103Y-75237341D01*
X157099500Y-75411304D01*
X157099500Y-75588695D01*
X157134103Y-75762658D01*
X157134106Y-75762667D01*
X157201984Y-75926542D01*
X157201985Y-75926543D01*
X157201987Y-75926547D01*
X157253830Y-76004134D01*
X157278602Y-76041208D01*
X157299480Y-76107885D01*
X157299500Y-76110099D01*
X157299500Y-77175500D01*
X157279815Y-77242539D01*
X157227011Y-77288294D01*
X157175500Y-77299500D01*
X149273362Y-77299500D01*
X149206323Y-77279815D01*
X149160568Y-77227011D01*
X149150624Y-77157853D01*
X149179649Y-77094297D01*
X149185681Y-77087819D01*
X149199461Y-77074038D01*
X149199464Y-77074035D01*
X149298013Y-76926547D01*
X149365894Y-76762666D01*
X149400500Y-76588691D01*
X149400500Y-76524500D01*
X149420185Y-76457461D01*
X149472989Y-76411706D01*
X149524500Y-76400500D01*
X149588693Y-76400500D01*
X149588694Y-76400499D01*
X149646682Y-76388964D01*
X149762658Y-76365896D01*
X149762661Y-76365894D01*
X149762666Y-76365894D01*
X149926547Y-76298013D01*
X150074035Y-76199464D01*
X150199464Y-76074035D01*
X150298013Y-75926547D01*
X150365894Y-75762666D01*
X150400500Y-75588691D01*
X150400500Y-75411309D01*
X150400500Y-75411306D01*
X150400499Y-75411304D01*
X150365896Y-75237341D01*
X150365893Y-75237332D01*
X150298015Y-75073459D01*
X150298013Y-75073453D01*
X150298011Y-75073451D01*
X150298011Y-75073449D01*
X150221398Y-74958790D01*
X150200520Y-74892112D01*
X150200500Y-74889899D01*
X150200500Y-60841518D01*
X150220185Y-60774479D01*
X150236815Y-60753841D01*
X150563925Y-60426730D01*
X150625246Y-60393247D01*
X150627237Y-60392831D01*
X150762666Y-60365894D01*
X150926547Y-60298013D01*
X151041209Y-60221397D01*
X151107886Y-60200520D01*
X151110100Y-60200500D01*
X152658481Y-60200500D01*
X152725520Y-60220185D01*
X152746162Y-60236819D01*
X153073266Y-60563923D01*
X153106751Y-60625246D01*
X153107202Y-60627413D01*
X153134103Y-60762658D01*
X153134106Y-60762667D01*
X153201983Y-60926540D01*
X153201990Y-60926553D01*
X153300535Y-61074034D01*
X153300538Y-61074038D01*
X153425961Y-61199461D01*
X153425965Y-61199464D01*
X153573446Y-61298009D01*
X153573459Y-61298016D01*
X153696363Y-61348923D01*
X153737334Y-61365894D01*
X153737336Y-61365894D01*
X153737341Y-61365896D01*
X153911304Y-61400499D01*
X153911307Y-61400500D01*
X153911309Y-61400500D01*
X154088693Y-61400500D01*
X154088694Y-61400499D01*
X154146682Y-61388964D01*
X154262658Y-61365896D01*
X154262661Y-61365894D01*
X154262666Y-61365894D01*
X154426547Y-61298013D01*
X154574035Y-61199464D01*
X154699464Y-61074035D01*
X154798013Y-60926547D01*
X154805922Y-60907454D01*
X154838628Y-60828493D01*
X154865894Y-60762666D01*
X154867651Y-60753837D01*
X154889536Y-60643812D01*
X154900500Y-60588691D01*
X154900500Y-60411309D01*
X154900500Y-60411306D01*
X154900499Y-60411304D01*
X154865896Y-60237341D01*
X154865893Y-60237332D01*
X154798016Y-60073459D01*
X154798009Y-60073446D01*
X154699464Y-59925965D01*
X154699461Y-59925961D01*
X154574038Y-59800538D01*
X154574034Y-59800535D01*
X154426553Y-59701990D01*
X154426540Y-59701983D01*
X154262667Y-59634106D01*
X154262658Y-59634103D01*
X154127413Y-59607202D01*
X154065502Y-59574817D01*
X154063923Y-59573266D01*
X153446546Y-58955888D01*
X153446545Y-58955887D01*
X153331807Y-58879222D01*
X153204332Y-58826421D01*
X153204322Y-58826418D01*
X153068996Y-58799500D01*
X153068994Y-58799500D01*
X153068993Y-58799500D01*
X151110100Y-58799500D01*
X151043061Y-58779815D01*
X151041209Y-58778602D01*
X150926549Y-58701988D01*
X150926547Y-58701987D01*
X150762667Y-58634106D01*
X150762658Y-58634103D01*
X150588694Y-58599500D01*
X150588691Y-58599500D01*
X150411309Y-58599500D01*
X150411306Y-58599500D01*
X150237341Y-58634103D01*
X150237332Y-58634106D01*
X150073459Y-58701983D01*
X150073446Y-58701990D01*
X149925965Y-58800535D01*
X149925961Y-58800538D01*
X149800538Y-58925961D01*
X149800535Y-58925965D01*
X149701990Y-59073446D01*
X149701983Y-59073459D01*
X149634106Y-59237332D01*
X149634104Y-59237340D01*
X149621617Y-59300118D01*
X149589232Y-59362028D01*
X149528516Y-59396603D01*
X149458747Y-59392863D01*
X149402075Y-59351996D01*
X149378383Y-59300118D01*
X149365895Y-59237340D01*
X149365894Y-59237334D01*
X149308802Y-59099500D01*
X149298016Y-59073459D01*
X149298009Y-59073446D01*
X149199464Y-58925965D01*
X149199461Y-58925961D01*
X149074038Y-58800538D01*
X149074034Y-58800535D01*
X148926553Y-58701990D01*
X148926540Y-58701983D01*
X148762667Y-58634106D01*
X148762658Y-58634103D01*
X148588694Y-58599500D01*
X148588691Y-58599500D01*
X148411309Y-58599500D01*
X148411306Y-58599500D01*
X148237341Y-58634103D01*
X148237332Y-58634106D01*
X148073459Y-58701983D01*
X148073446Y-58701990D01*
X147925965Y-58800535D01*
X147925961Y-58800538D01*
X147800538Y-58925961D01*
X147800535Y-58925965D01*
X147701990Y-59073446D01*
X147701983Y-59073459D01*
X147634106Y-59237332D01*
X147634103Y-59237341D01*
X147599500Y-59411304D01*
X147599500Y-59588695D01*
X147634103Y-59762658D01*
X147634106Y-59762667D01*
X147701984Y-59926542D01*
X147701985Y-59926543D01*
X147701987Y-59926547D01*
X147711535Y-59940836D01*
X147778602Y-60041208D01*
X147799480Y-60107885D01*
X147799500Y-60110099D01*
X147799500Y-75889899D01*
X147779815Y-75956938D01*
X147778602Y-75958790D01*
X147701988Y-76073449D01*
X147701987Y-76073452D01*
X147634106Y-76237332D01*
X147634103Y-76237341D01*
X147599500Y-76411304D01*
X147599500Y-76588695D01*
X147634103Y-76762658D01*
X147634106Y-76762667D01*
X147701983Y-76926540D01*
X147701990Y-76926553D01*
X147800535Y-77074034D01*
X147800538Y-77074038D01*
X147814319Y-77087819D01*
X147847804Y-77149142D01*
X147842820Y-77218834D01*
X147800948Y-77274767D01*
X147735484Y-77299184D01*
X147726638Y-77299500D01*
X146341518Y-77299500D01*
X146274479Y-77279815D01*
X146253837Y-77263181D01*
X145426733Y-76436076D01*
X145393248Y-76374753D01*
X145392827Y-76372738D01*
X145365894Y-76237334D01*
X145328665Y-76147454D01*
X145298016Y-76073459D01*
X145298009Y-76073446D01*
X145199464Y-75925965D01*
X145199461Y-75925961D01*
X145074038Y-75800538D01*
X145074034Y-75800535D01*
X144926553Y-75701990D01*
X144926540Y-75701983D01*
X144762667Y-75634106D01*
X144762658Y-75634103D01*
X144588694Y-75599500D01*
X144588691Y-75599500D01*
X144411309Y-75599500D01*
X144411306Y-75599500D01*
X144237341Y-75634103D01*
X144237332Y-75634106D01*
X144073459Y-75701983D01*
X144073446Y-75701990D01*
X143925965Y-75800535D01*
X143925961Y-75800538D01*
X143800538Y-75925961D01*
X143800535Y-75925965D01*
X143701990Y-76073446D01*
X143701983Y-76073459D01*
X143634106Y-76237332D01*
X143634103Y-76237341D01*
X143599500Y-76411304D01*
X141700500Y-76411304D01*
X141700500Y-73931004D01*
X141673581Y-73795677D01*
X141673580Y-73795676D01*
X141673580Y-73795672D01*
X141635746Y-73704332D01*
X141620777Y-73668192D01*
X141544112Y-73553454D01*
X141236819Y-73246161D01*
X141203334Y-73184838D01*
X141200500Y-73158480D01*
X141200500Y-64978475D01*
X143599500Y-64978475D01*
X143599500Y-68041517D01*
X143608769Y-68100037D01*
X143614354Y-68135304D01*
X143671950Y-68248342D01*
X143671952Y-68248344D01*
X143671954Y-68248347D01*
X143761652Y-68338045D01*
X143761654Y-68338046D01*
X143761658Y-68338050D01*
X143859015Y-68387656D01*
X143874698Y-68395647D01*
X143968475Y-68410499D01*
X143968481Y-68410500D01*
X147031518Y-68410499D01*
X147125304Y-68395646D01*
X147238342Y-68338050D01*
X147328050Y-68248342D01*
X147385646Y-68135304D01*
X147385646Y-68135302D01*
X147385647Y-68135301D01*
X147400499Y-68041524D01*
X147400500Y-68041519D01*
X147400499Y-64978482D01*
X147385646Y-64884696D01*
X147328050Y-64771658D01*
X147328046Y-64771654D01*
X147328045Y-64771652D01*
X147238347Y-64681954D01*
X147238344Y-64681952D01*
X147238342Y-64681950D01*
X147131310Y-64627414D01*
X147125301Y-64624352D01*
X147031524Y-64609500D01*
X143968482Y-64609500D01*
X143887519Y-64622323D01*
X143874696Y-64624354D01*
X143761658Y-64681950D01*
X143761657Y-64681951D01*
X143761652Y-64681954D01*
X143671954Y-64771652D01*
X143671951Y-64771657D01*
X143614352Y-64884698D01*
X143599500Y-64978475D01*
X141200500Y-64978475D01*
X141200500Y-61431004D01*
X141173581Y-61295677D01*
X141173580Y-61295676D01*
X141173580Y-61295672D01*
X141153072Y-61246161D01*
X141120778Y-61168195D01*
X141120771Y-61168182D01*
X141044115Y-61053459D01*
X141044114Y-61053458D01*
X140946542Y-60955886D01*
X139926733Y-59936076D01*
X139893248Y-59874753D01*
X139892827Y-59872738D01*
X139865894Y-59737334D01*
X139814744Y-59613846D01*
X139798016Y-59573459D01*
X139798009Y-59573446D01*
X139699464Y-59425965D01*
X139699461Y-59425961D01*
X139574038Y-59300538D01*
X139574034Y-59300535D01*
X139426553Y-59201990D01*
X139426540Y-59201983D01*
X139262667Y-59134106D01*
X139262658Y-59134103D01*
X139088694Y-59099500D01*
X139088691Y-59099500D01*
X138911309Y-59099500D01*
X138911306Y-59099500D01*
X138737341Y-59134103D01*
X138737332Y-59134106D01*
X138573459Y-59201983D01*
X138573446Y-59201990D01*
X138425965Y-59300535D01*
X138425961Y-59300538D01*
X138300538Y-59425961D01*
X138300535Y-59425965D01*
X138201990Y-59573446D01*
X138201983Y-59573459D01*
X138134106Y-59737332D01*
X138134103Y-59737341D01*
X138099500Y-59911304D01*
X136551429Y-59911304D01*
X136551470Y-59904474D01*
X136551470Y-59904473D01*
X136574140Y-56118475D01*
X138009500Y-56118475D01*
X138009500Y-57881517D01*
X138020292Y-57949657D01*
X138024354Y-57975304D01*
X138081950Y-58088342D01*
X138081952Y-58088344D01*
X138081954Y-58088347D01*
X138171652Y-58178045D01*
X138171654Y-58178046D01*
X138171658Y-58178050D01*
X138262103Y-58224134D01*
X138284698Y-58235647D01*
X138378475Y-58250499D01*
X138378481Y-58250500D01*
X140141518Y-58250499D01*
X140235304Y-58235646D01*
X140348342Y-58178050D01*
X140438050Y-58088342D01*
X140495646Y-57975304D01*
X140495646Y-57975302D01*
X140495647Y-57975301D01*
X140506282Y-57908147D01*
X140510500Y-57881519D01*
X140510499Y-57734263D01*
X140530183Y-57667227D01*
X140582987Y-57621472D01*
X140652145Y-57611528D01*
X140715701Y-57640553D01*
X140734817Y-57661380D01*
X140846172Y-57814646D01*
X140985354Y-57953828D01*
X141144595Y-58069524D01*
X141225879Y-58110940D01*
X141319970Y-58158882D01*
X141319972Y-58158882D01*
X141319975Y-58158884D01*
X141378962Y-58178050D01*
X141507173Y-58219709D01*
X141701578Y-58250500D01*
X141701583Y-58250500D01*
X141898422Y-58250500D01*
X142092826Y-58219709D01*
X142280025Y-58158884D01*
X142455405Y-58069524D01*
X142614646Y-57953828D01*
X142753828Y-57814646D01*
X142869524Y-57655405D01*
X142958884Y-57480025D01*
X142959515Y-57478787D01*
X143007489Y-57427990D01*
X143075310Y-57411195D01*
X143141445Y-57433732D01*
X143180485Y-57478787D01*
X143270474Y-57655403D01*
X143274817Y-57661380D01*
X143386172Y-57814646D01*
X143525354Y-57953828D01*
X143684595Y-58069524D01*
X143765879Y-58110940D01*
X143859970Y-58158882D01*
X143859972Y-58158882D01*
X143859975Y-58158884D01*
X143918962Y-58178050D01*
X144047173Y-58219709D01*
X144241578Y-58250500D01*
X144241583Y-58250500D01*
X144438422Y-58250500D01*
X144632826Y-58219709D01*
X144820025Y-58158884D01*
X144995405Y-58069524D01*
X145154646Y-57953828D01*
X145293828Y-57814646D01*
X145409524Y-57655405D01*
X145498884Y-57480025D01*
X145499515Y-57478787D01*
X145547489Y-57427990D01*
X145615310Y-57411195D01*
X145681445Y-57433732D01*
X145720485Y-57478787D01*
X145810474Y-57655403D01*
X145814817Y-57661380D01*
X145926172Y-57814646D01*
X146065354Y-57953828D01*
X146224595Y-58069524D01*
X146305879Y-58110940D01*
X146399970Y-58158882D01*
X146399972Y-58158882D01*
X146399975Y-58158884D01*
X146458962Y-58178050D01*
X146587173Y-58219709D01*
X146781578Y-58250500D01*
X146781583Y-58250500D01*
X146978422Y-58250500D01*
X147172826Y-58219709D01*
X147360025Y-58158884D01*
X147535405Y-58069524D01*
X147694646Y-57953828D01*
X147833828Y-57814646D01*
X147949524Y-57655405D01*
X148038884Y-57480025D01*
X148039515Y-57478787D01*
X148087489Y-57427990D01*
X148155310Y-57411195D01*
X148221445Y-57433732D01*
X148260485Y-57478787D01*
X148350474Y-57655403D01*
X148354817Y-57661380D01*
X148466172Y-57814646D01*
X148605354Y-57953828D01*
X148764595Y-58069524D01*
X148845879Y-58110940D01*
X148939970Y-58158882D01*
X148939972Y-58158882D01*
X148939975Y-58158884D01*
X148998962Y-58178050D01*
X149127173Y-58219709D01*
X149321578Y-58250500D01*
X149321583Y-58250500D01*
X149518422Y-58250500D01*
X149712826Y-58219709D01*
X149900025Y-58158884D01*
X150075405Y-58069524D01*
X150234646Y-57953828D01*
X150373828Y-57814646D01*
X150489524Y-57655405D01*
X150578884Y-57480025D01*
X150579515Y-57478787D01*
X150627489Y-57427990D01*
X150695310Y-57411195D01*
X150761445Y-57433732D01*
X150800485Y-57478787D01*
X150890474Y-57655403D01*
X150894817Y-57661380D01*
X151006172Y-57814646D01*
X151145354Y-57953828D01*
X151304595Y-58069524D01*
X151385879Y-58110940D01*
X151479970Y-58158882D01*
X151479972Y-58158882D01*
X151479975Y-58158884D01*
X151538962Y-58178050D01*
X151667173Y-58219709D01*
X151861578Y-58250500D01*
X151861583Y-58250500D01*
X152058422Y-58250500D01*
X152252826Y-58219709D01*
X152440025Y-58158884D01*
X152615405Y-58069524D01*
X152774646Y-57953828D01*
X152913828Y-57814646D01*
X153029524Y-57655405D01*
X153118884Y-57480025D01*
X153119515Y-57478787D01*
X153167489Y-57427990D01*
X153235310Y-57411195D01*
X153301445Y-57433732D01*
X153340485Y-57478787D01*
X153430474Y-57655403D01*
X153434817Y-57661380D01*
X153546172Y-57814646D01*
X153685354Y-57953828D01*
X153844595Y-58069524D01*
X153925879Y-58110940D01*
X154019970Y-58158882D01*
X154019972Y-58158882D01*
X154019975Y-58158884D01*
X154078962Y-58178050D01*
X154207173Y-58219709D01*
X154401578Y-58250500D01*
X154401583Y-58250500D01*
X154598422Y-58250500D01*
X154792826Y-58219709D01*
X154980025Y-58158884D01*
X155155405Y-58069524D01*
X155314646Y-57953828D01*
X155453828Y-57814646D01*
X155569524Y-57655405D01*
X155603679Y-57588370D01*
X155651652Y-57537575D01*
X155719473Y-57520779D01*
X155785608Y-57543316D01*
X155824648Y-57588370D01*
X155885370Y-57707542D01*
X155885373Y-57707547D01*
X155924728Y-57761716D01*
X156557037Y-57129408D01*
X156574075Y-57192993D01*
X156639901Y-57307007D01*
X156732993Y-57400099D01*
X156847007Y-57465925D01*
X156910590Y-57482962D01*
X156278282Y-58115269D01*
X156278282Y-58115270D01*
X156332449Y-58154624D01*
X156521782Y-58251095D01*
X156723870Y-58316757D01*
X156933754Y-58350000D01*
X157146246Y-58350000D01*
X157356127Y-58316757D01*
X157356130Y-58316757D01*
X157558217Y-58251095D01*
X157747554Y-58154622D01*
X157801716Y-58115270D01*
X157801717Y-58115270D01*
X157169408Y-57482962D01*
X157232993Y-57465925D01*
X157347007Y-57400099D01*
X157440099Y-57307007D01*
X157505925Y-57192993D01*
X157522962Y-57129409D01*
X158155269Y-57761716D01*
X158165770Y-57760890D01*
X158234148Y-57775254D01*
X158283905Y-57824305D01*
X158299500Y-57884508D01*
X158299500Y-61158480D01*
X158279815Y-61225519D01*
X158263181Y-61246161D01*
X155936075Y-63573266D01*
X155874752Y-63606751D01*
X155872586Y-63607202D01*
X155737340Y-63634104D01*
X155737332Y-63634106D01*
X155573459Y-63701983D01*
X155573446Y-63701990D01*
X155425965Y-63800535D01*
X155425961Y-63800538D01*
X155300538Y-63925961D01*
X155300535Y-63925965D01*
X155201990Y-64073446D01*
X155201983Y-64073459D01*
X155134106Y-64237332D01*
X155134103Y-64237341D01*
X155099500Y-64411304D01*
X155099500Y-64588695D01*
X155134103Y-64762658D01*
X155134106Y-64762667D01*
X155201983Y-64926540D01*
X155201990Y-64926553D01*
X155300535Y-65074034D01*
X155300538Y-65074038D01*
X155425961Y-65199461D01*
X155425965Y-65199464D01*
X155573446Y-65298009D01*
X155573459Y-65298016D01*
X155679824Y-65342073D01*
X155737334Y-65365894D01*
X155737336Y-65365894D01*
X155737341Y-65365896D01*
X155911304Y-65400499D01*
X155911307Y-65400500D01*
X155911309Y-65400500D01*
X156088693Y-65400500D01*
X156088694Y-65400499D01*
X156146682Y-65388964D01*
X156262658Y-65365896D01*
X156262661Y-65365894D01*
X156262666Y-65365894D01*
X156426547Y-65298013D01*
X156574035Y-65199464D01*
X156699464Y-65074035D01*
X156798013Y-64926547D01*
X156865894Y-64762666D01*
X156892797Y-64627408D01*
X156925180Y-64565503D01*
X156926676Y-64563979D01*
X159544114Y-61946543D01*
X159620775Y-61831811D01*
X159673580Y-61704328D01*
X159700500Y-61568994D01*
X159700500Y-61431006D01*
X159700500Y-57110099D01*
X159704988Y-57093926D01*
X159704535Y-57078723D01*
X159716746Y-57051556D01*
X159718234Y-57046196D01*
X159719752Y-57043671D01*
X159798013Y-56926547D01*
X159815340Y-56884714D01*
X159820098Y-56876803D01*
X159839284Y-56859150D01*
X159855642Y-56838851D01*
X159864582Y-56835875D01*
X159871516Y-56829496D01*
X159897197Y-56825019D01*
X159921935Y-56816785D01*
X159931064Y-56819115D01*
X159940347Y-56817497D01*
X159964373Y-56827615D01*
X159989635Y-56834063D01*
X159998188Y-56841857D01*
X160004739Y-56844616D01*
X160010603Y-56853169D01*
X160026681Y-56867820D01*
X160033208Y-56876803D01*
X160046172Y-56894646D01*
X160185354Y-57033828D01*
X160344595Y-57149524D01*
X160427455Y-57191743D01*
X160519970Y-57238882D01*
X160519972Y-57238882D01*
X160519975Y-57238884D01*
X160620317Y-57271487D01*
X160707173Y-57299709D01*
X160901578Y-57330500D01*
X160901583Y-57330500D01*
X161098422Y-57330500D01*
X161292826Y-57299709D01*
X161480025Y-57238884D01*
X161655405Y-57149524D01*
X161814646Y-57033828D01*
X161953828Y-56894646D01*
X162069524Y-56735405D01*
X162158884Y-56560025D01*
X162219709Y-56372826D01*
X162250500Y-56178422D01*
X162250500Y-55981577D01*
X162219709Y-55787173D01*
X162160273Y-55604250D01*
X162158884Y-55599975D01*
X162158882Y-55599972D01*
X162158882Y-55599970D01*
X162085670Y-55456284D01*
X162069524Y-55424595D01*
X161953828Y-55265354D01*
X161814646Y-55126172D01*
X161695741Y-55039782D01*
X161655403Y-55010474D01*
X161478787Y-54920485D01*
X161427990Y-54872511D01*
X161411195Y-54804690D01*
X161433732Y-54738555D01*
X161478787Y-54699515D01*
X161655403Y-54609525D01*
X161655402Y-54609525D01*
X161655405Y-54609524D01*
X161814646Y-54493828D01*
X161953828Y-54354646D01*
X162069524Y-54195405D01*
X162158884Y-54020025D01*
X162219709Y-53832826D01*
X162225577Y-53795777D01*
X162250500Y-53638422D01*
X162250500Y-53441578D01*
X162246466Y-53416110D01*
X162246466Y-53416109D01*
X162219709Y-53247173D01*
X162175899Y-53112342D01*
X162158884Y-53059975D01*
X162158882Y-53059972D01*
X162158882Y-53059970D01*
X162070627Y-52886760D01*
X162069524Y-52884595D01*
X161953828Y-52725354D01*
X161814646Y-52586172D01*
X161681175Y-52489199D01*
X161655403Y-52470474D01*
X161478787Y-52380485D01*
X161427990Y-52332511D01*
X161411195Y-52264690D01*
X161433732Y-52198555D01*
X161478787Y-52159515D01*
X161655403Y-52069525D01*
X161655402Y-52069525D01*
X161655405Y-52069524D01*
X161814646Y-51953828D01*
X161953828Y-51814646D01*
X162069524Y-51655405D01*
X162158884Y-51480025D01*
X162219709Y-51292826D01*
X162229533Y-51230800D01*
X162250500Y-51098422D01*
X162250500Y-50901577D01*
X162245226Y-50868279D01*
X162242925Y-50853753D01*
X163650000Y-50853753D01*
X163650000Y-51066246D01*
X163683242Y-51276127D01*
X163683242Y-51276130D01*
X163748904Y-51478217D01*
X163845375Y-51667550D01*
X163884728Y-51721716D01*
X164517037Y-51089408D01*
X164534075Y-51152993D01*
X164599901Y-51267007D01*
X164692993Y-51360099D01*
X164807007Y-51425925D01*
X164870590Y-51442962D01*
X164238282Y-52075269D01*
X164238282Y-52075270D01*
X164292449Y-52114624D01*
X164411629Y-52175350D01*
X164462425Y-52223325D01*
X164479220Y-52291146D01*
X164456682Y-52357281D01*
X164411630Y-52396319D01*
X164344597Y-52430474D01*
X164289543Y-52470474D01*
X164185354Y-52546172D01*
X164185352Y-52546174D01*
X164185351Y-52546174D01*
X164046174Y-52685351D01*
X164046174Y-52685352D01*
X164046172Y-52685354D01*
X164017112Y-52725352D01*
X163930476Y-52844594D01*
X163841117Y-53019970D01*
X163780290Y-53207173D01*
X163749500Y-53401577D01*
X163749500Y-53598422D01*
X163780290Y-53792826D01*
X163841117Y-53980029D01*
X163895901Y-54087548D01*
X163930476Y-54155405D01*
X164046172Y-54314646D01*
X164185354Y-54453828D01*
X164344595Y-54569524D01*
X164423098Y-54609523D01*
X164521213Y-54659515D01*
X164572009Y-54707489D01*
X164588804Y-54775310D01*
X164566267Y-54841445D01*
X164521213Y-54880485D01*
X164344594Y-54970476D01*
X164289540Y-55010476D01*
X164185354Y-55086172D01*
X164185352Y-55086174D01*
X164185351Y-55086174D01*
X164046174Y-55225351D01*
X164046174Y-55225352D01*
X164046172Y-55225354D01*
X163996485Y-55293741D01*
X163930476Y-55384594D01*
X163841117Y-55559970D01*
X163780290Y-55747173D01*
X163749500Y-55941577D01*
X163749500Y-56138422D01*
X163780290Y-56332826D01*
X163841117Y-56520029D01*
X163911866Y-56658881D01*
X163930476Y-56695405D01*
X164046172Y-56854646D01*
X164185354Y-56993828D01*
X164344595Y-57109524D01*
X164345724Y-57110099D01*
X164519970Y-57198882D01*
X164519972Y-57198882D01*
X164519975Y-57198884D01*
X164588404Y-57221118D01*
X164707173Y-57259709D01*
X164901578Y-57290500D01*
X164901583Y-57290500D01*
X165098422Y-57290500D01*
X165292826Y-57259709D01*
X165356918Y-57238884D01*
X165480025Y-57198884D01*
X165655405Y-57109524D01*
X165814646Y-56993828D01*
X165953828Y-56854646D01*
X166069524Y-56695405D01*
X166158884Y-56520025D01*
X166219709Y-56332826D01*
X166226105Y-56292443D01*
X166250500Y-56138422D01*
X166250500Y-55941577D01*
X166219709Y-55747173D01*
X166173270Y-55604250D01*
X166158884Y-55559975D01*
X166158882Y-55559972D01*
X166158882Y-55559970D01*
X166069523Y-55384594D01*
X166063745Y-55376641D01*
X165953828Y-55225354D01*
X165814646Y-55086172D01*
X165701852Y-55004222D01*
X165655403Y-54970474D01*
X165478787Y-54880485D01*
X165427990Y-54832511D01*
X165411195Y-54764690D01*
X165433732Y-54698555D01*
X165478787Y-54659515D01*
X165655403Y-54569525D01*
X165655402Y-54569525D01*
X165655405Y-54569524D01*
X165814646Y-54453828D01*
X165947266Y-54321208D01*
X169514500Y-54321208D01*
X169514500Y-54478791D01*
X169522289Y-54557886D01*
X169522289Y-54557891D01*
X169550333Y-54698884D01*
X169553034Y-54712459D01*
X169560950Y-54738555D01*
X169576111Y-54788535D01*
X169636416Y-54934121D01*
X169673886Y-55004222D01*
X169673898Y-55004242D01*
X169761425Y-55135236D01*
X169761442Y-55135259D01*
X169811871Y-55196707D01*
X169923292Y-55308128D01*
X169923297Y-55308132D01*
X169923298Y-55308133D01*
X169984746Y-55358562D01*
X169984753Y-55358567D01*
X169984763Y-55358574D01*
X170115757Y-55446101D01*
X170115762Y-55446104D01*
X170115774Y-55446112D01*
X170185879Y-55483584D01*
X170288824Y-55526225D01*
X170331467Y-55543889D01*
X170331469Y-55543889D01*
X170331470Y-55543890D01*
X170367639Y-55554861D01*
X170426077Y-55593158D01*
X170454534Y-55656970D01*
X170443975Y-55726037D01*
X170397751Y-55778431D01*
X170369963Y-55791453D01*
X170259163Y-55827454D01*
X170090800Y-55913240D01*
X170051790Y-55941583D01*
X169937927Y-56024310D01*
X169937925Y-56024312D01*
X169937924Y-56024312D01*
X169804312Y-56157924D01*
X169804312Y-56157925D01*
X169804310Y-56157927D01*
X169784383Y-56185354D01*
X169693240Y-56310800D01*
X169607454Y-56479163D01*
X169549059Y-56658881D01*
X169519500Y-56845513D01*
X169519500Y-57034486D01*
X169549059Y-57221118D01*
X169607454Y-57400836D01*
X169657981Y-57500000D01*
X169693240Y-57569199D01*
X169804310Y-57722073D01*
X169937927Y-57855690D01*
X170090801Y-57966760D01*
X170107564Y-57975301D01*
X170259163Y-58052545D01*
X170259165Y-58052545D01*
X170259168Y-58052547D01*
X170348734Y-58081649D01*
X170380803Y-58092069D01*
X170438478Y-58131507D01*
X170465676Y-58195866D01*
X170453761Y-58264712D01*
X170406516Y-58316188D01*
X170380803Y-58327931D01*
X170259163Y-58367454D01*
X170090800Y-58453240D01*
X170003579Y-58516610D01*
X169937927Y-58564310D01*
X169937925Y-58564312D01*
X169937924Y-58564312D01*
X169804312Y-58697924D01*
X169804312Y-58697925D01*
X169804310Y-58697927D01*
X169756610Y-58763579D01*
X169693240Y-58850800D01*
X169607454Y-59019163D01*
X169549059Y-59198881D01*
X169519500Y-59385513D01*
X169519500Y-59574486D01*
X169549059Y-59761118D01*
X169607454Y-59940836D01*
X169682791Y-60088691D01*
X169693240Y-60109199D01*
X169804310Y-60262073D01*
X169937927Y-60395690D01*
X170090801Y-60506760D01*
X170170347Y-60547290D01*
X170259163Y-60592545D01*
X170259165Y-60592545D01*
X170259168Y-60592547D01*
X170348734Y-60621649D01*
X170380803Y-60632069D01*
X170438478Y-60671507D01*
X170465676Y-60735866D01*
X170453761Y-60804712D01*
X170406516Y-60856188D01*
X170380803Y-60867931D01*
X170259163Y-60907454D01*
X170090800Y-60993240D01*
X170007918Y-61053458D01*
X169937927Y-61104310D01*
X169937925Y-61104312D01*
X169937924Y-61104312D01*
X169804312Y-61237924D01*
X169804312Y-61237925D01*
X169804310Y-61237927D01*
X169798328Y-61246161D01*
X169693240Y-61390800D01*
X169607454Y-61559163D01*
X169549059Y-61738881D01*
X169519500Y-61925513D01*
X169519500Y-62114486D01*
X169549059Y-62301118D01*
X169607454Y-62480836D01*
X169693240Y-62649199D01*
X169804310Y-62802073D01*
X169937927Y-62935690D01*
X170090801Y-63046760D01*
X170170347Y-63087290D01*
X170259163Y-63132545D01*
X170259165Y-63132545D01*
X170259168Y-63132547D01*
X170348734Y-63161649D01*
X170380803Y-63172069D01*
X170438478Y-63211507D01*
X170465676Y-63275866D01*
X170453761Y-63344712D01*
X170406516Y-63396188D01*
X170380803Y-63407931D01*
X170259163Y-63447454D01*
X170090800Y-63533240D01*
X170035710Y-63573266D01*
X169937927Y-63644310D01*
X169937925Y-63644312D01*
X169937924Y-63644312D01*
X169804312Y-63777924D01*
X169804312Y-63777925D01*
X169804310Y-63777927D01*
X169787884Y-63800536D01*
X169693240Y-63930800D01*
X169607454Y-64099163D01*
X169549059Y-64278881D01*
X169519500Y-64465513D01*
X169519500Y-64654486D01*
X169549059Y-64841118D01*
X169607454Y-65020836D01*
X169693240Y-65189199D01*
X169804310Y-65342073D01*
X169937927Y-65475690D01*
X170090801Y-65586760D01*
X170259168Y-65672547D01*
X170369963Y-65708546D01*
X170427638Y-65747984D01*
X170454836Y-65812342D01*
X170442921Y-65881189D01*
X170395677Y-65932664D01*
X170367641Y-65945137D01*
X170331468Y-65956110D01*
X170185878Y-66016416D01*
X170115777Y-66053886D01*
X170115757Y-66053898D01*
X169984763Y-66141425D01*
X169984740Y-66141442D01*
X169923292Y-66191871D01*
X169811871Y-66303292D01*
X169761442Y-66364740D01*
X169761425Y-66364763D01*
X169673898Y-66495757D01*
X169673886Y-66495777D01*
X169636416Y-66565878D01*
X169576111Y-66711464D01*
X169553032Y-66787548D01*
X169522289Y-66942108D01*
X169522289Y-66942113D01*
X169514500Y-67021208D01*
X169514500Y-67178791D01*
X169522289Y-67257886D01*
X169522289Y-67257891D01*
X169553032Y-67412451D01*
X169576111Y-67488535D01*
X169636416Y-67634121D01*
X169673886Y-67704222D01*
X169673898Y-67704242D01*
X169761425Y-67835236D01*
X169761442Y-67835259D01*
X169811871Y-67896707D01*
X169923292Y-68008128D01*
X169923297Y-68008132D01*
X169923298Y-68008133D01*
X169984746Y-68058562D01*
X169984753Y-68058567D01*
X169984763Y-68058574D01*
X170115757Y-68146101D01*
X170115762Y-68146104D01*
X170115774Y-68146112D01*
X170185879Y-68183584D01*
X170288824Y-68226225D01*
X170331467Y-68243889D01*
X170331469Y-68243889D01*
X170331470Y-68243890D01*
X170367639Y-68254861D01*
X170426077Y-68293158D01*
X170454534Y-68356970D01*
X170443975Y-68426037D01*
X170397751Y-68478431D01*
X170369963Y-68491453D01*
X170259163Y-68527454D01*
X170090800Y-68613240D01*
X170003579Y-68676610D01*
X169937927Y-68724310D01*
X169937925Y-68724312D01*
X169937924Y-68724312D01*
X169804312Y-68857924D01*
X169804312Y-68857925D01*
X169804310Y-68857927D01*
X169756610Y-68923579D01*
X169693240Y-69010800D01*
X169607454Y-69179163D01*
X169549059Y-69358881D01*
X169519500Y-69545513D01*
X169519500Y-69734486D01*
X169549059Y-69921118D01*
X169607454Y-70100836D01*
X169693240Y-70269199D01*
X169804310Y-70422073D01*
X169937927Y-70555690D01*
X170090801Y-70666760D01*
X170170347Y-70707290D01*
X170259163Y-70752545D01*
X170259165Y-70752545D01*
X170259168Y-70752547D01*
X170348734Y-70781649D01*
X170380803Y-70792069D01*
X170438478Y-70831507D01*
X170465676Y-70895866D01*
X170453761Y-70964712D01*
X170406516Y-71016188D01*
X170380803Y-71027931D01*
X170259163Y-71067454D01*
X170090800Y-71153240D01*
X170003579Y-71216610D01*
X169937927Y-71264310D01*
X169937925Y-71264312D01*
X169937924Y-71264312D01*
X169804312Y-71397924D01*
X169804312Y-71397925D01*
X169804310Y-71397927D01*
X169756610Y-71463579D01*
X169693240Y-71550800D01*
X169607454Y-71719163D01*
X169549059Y-71898881D01*
X169519500Y-72085513D01*
X169519500Y-72274486D01*
X169549059Y-72461118D01*
X169607454Y-72640836D01*
X169693240Y-72809199D01*
X169804310Y-72962073D01*
X169937927Y-73095690D01*
X170090801Y-73206760D01*
X170168130Y-73246161D01*
X170259163Y-73292545D01*
X170259165Y-73292545D01*
X170259168Y-73292547D01*
X170348734Y-73321649D01*
X170380803Y-73332069D01*
X170438478Y-73371507D01*
X170465676Y-73435866D01*
X170453761Y-73504712D01*
X170406516Y-73556188D01*
X170380803Y-73567931D01*
X170259163Y-73607454D01*
X170090800Y-73693240D01*
X170003579Y-73756610D01*
X169937927Y-73804310D01*
X169937925Y-73804312D01*
X169937924Y-73804312D01*
X169804312Y-73937924D01*
X169804312Y-73937925D01*
X169804310Y-73937927D01*
X169798049Y-73946545D01*
X169693240Y-74090800D01*
X169607454Y-74259163D01*
X169549059Y-74438881D01*
X169519500Y-74625513D01*
X169519500Y-74814486D01*
X169549059Y-75001118D01*
X169607454Y-75180836D01*
X169693240Y-75349199D01*
X169804310Y-75502073D01*
X169937927Y-75635690D01*
X170090801Y-75746760D01*
X170170347Y-75787290D01*
X170259163Y-75832545D01*
X170259165Y-75832545D01*
X170259168Y-75832547D01*
X170348734Y-75861649D01*
X170380803Y-75872069D01*
X170438478Y-75911507D01*
X170465676Y-75975866D01*
X170453761Y-76044712D01*
X170406516Y-76096188D01*
X170380803Y-76107931D01*
X170259163Y-76147454D01*
X170090800Y-76233240D01*
X170085156Y-76237341D01*
X169937927Y-76344310D01*
X169937925Y-76344312D01*
X169937924Y-76344312D01*
X169804312Y-76477924D01*
X169804312Y-76477925D01*
X169804310Y-76477927D01*
X169770473Y-76524500D01*
X169693240Y-76630800D01*
X169607454Y-76799163D01*
X169549059Y-76978881D01*
X169519500Y-77165513D01*
X169519500Y-77354486D01*
X169549059Y-77541118D01*
X169607454Y-77720836D01*
X169693240Y-77889199D01*
X169804310Y-78042073D01*
X169937927Y-78175690D01*
X170090801Y-78286760D01*
X170259168Y-78372547D01*
X170369963Y-78408546D01*
X170427638Y-78447984D01*
X170454836Y-78512342D01*
X170442921Y-78581189D01*
X170395677Y-78632664D01*
X170367641Y-78645137D01*
X170331468Y-78656110D01*
X170185878Y-78716416D01*
X170115777Y-78753886D01*
X170115757Y-78753898D01*
X169984763Y-78841425D01*
X169984740Y-78841442D01*
X169923292Y-78891871D01*
X169811871Y-79003292D01*
X169761442Y-79064740D01*
X169761425Y-79064763D01*
X169673898Y-79195757D01*
X169673886Y-79195777D01*
X169636416Y-79265878D01*
X169576111Y-79411464D01*
X169553032Y-79487548D01*
X169522289Y-79642108D01*
X169522289Y-79642113D01*
X169514500Y-79721208D01*
X169514500Y-79878791D01*
X169522289Y-79957886D01*
X169522289Y-79957891D01*
X169553032Y-80112451D01*
X169576111Y-80188535D01*
X169628601Y-80315254D01*
X169636416Y-80334121D01*
X169671896Y-80400500D01*
X169673886Y-80404222D01*
X169673898Y-80404242D01*
X169761425Y-80535236D01*
X169761442Y-80535259D01*
X169811871Y-80596707D01*
X169923292Y-80708128D01*
X169923297Y-80708132D01*
X169923298Y-80708133D01*
X169984746Y-80758562D01*
X169984753Y-80758567D01*
X169984763Y-80758574D01*
X170115757Y-80846101D01*
X170115762Y-80846104D01*
X170115774Y-80846112D01*
X170185879Y-80883584D01*
X170288824Y-80926225D01*
X170331467Y-80943889D01*
X170331469Y-80943889D01*
X170331470Y-80943890D01*
X170367639Y-80954861D01*
X170426077Y-80993158D01*
X170454534Y-81056970D01*
X170443975Y-81126037D01*
X170397751Y-81178431D01*
X170369963Y-81191453D01*
X170259163Y-81227454D01*
X170090800Y-81313240D01*
X170003579Y-81376610D01*
X169937927Y-81424310D01*
X169937925Y-81424312D01*
X169937924Y-81424312D01*
X169804312Y-81557924D01*
X169804312Y-81557925D01*
X169804310Y-81557927D01*
X169756610Y-81623579D01*
X169693240Y-81710800D01*
X169607454Y-81879163D01*
X169549059Y-82058881D01*
X169519500Y-82245513D01*
X169519500Y-82434486D01*
X169549059Y-82621118D01*
X169607454Y-82800836D01*
X169693240Y-82969199D01*
X169804310Y-83122073D01*
X169937927Y-83255690D01*
X170090801Y-83366760D01*
X170170347Y-83407290D01*
X170259163Y-83452545D01*
X170259165Y-83452545D01*
X170259168Y-83452547D01*
X170348734Y-83481649D01*
X170380803Y-83492069D01*
X170438478Y-83531507D01*
X170465676Y-83595866D01*
X170453761Y-83664712D01*
X170406516Y-83716188D01*
X170380803Y-83727931D01*
X170259163Y-83767454D01*
X170090800Y-83853240D01*
X170003579Y-83916610D01*
X169937927Y-83964310D01*
X169937925Y-83964312D01*
X169937924Y-83964312D01*
X169804312Y-84097924D01*
X169804312Y-84097925D01*
X169804310Y-84097927D01*
X169756610Y-84163579D01*
X169693240Y-84250800D01*
X169607454Y-84419163D01*
X169549059Y-84598881D01*
X169519500Y-84785513D01*
X169519500Y-84974486D01*
X169549059Y-85161118D01*
X169607454Y-85340836D01*
X169693240Y-85509199D01*
X169804310Y-85662073D01*
X169937927Y-85795690D01*
X170090801Y-85906760D01*
X170159714Y-85941873D01*
X170259163Y-85992545D01*
X170259165Y-85992545D01*
X170259168Y-85992547D01*
X170348734Y-86021649D01*
X170380803Y-86032069D01*
X170438478Y-86071507D01*
X170465676Y-86135866D01*
X170453761Y-86204712D01*
X170406516Y-86256188D01*
X170380803Y-86267931D01*
X170259163Y-86307454D01*
X170090800Y-86393240D01*
X170004577Y-86455886D01*
X169937927Y-86504310D01*
X169937925Y-86504312D01*
X169937924Y-86504312D01*
X169804312Y-86637924D01*
X169804312Y-86637925D01*
X169804310Y-86637927D01*
X169756610Y-86703579D01*
X169693240Y-86790800D01*
X169607454Y-86959163D01*
X169549059Y-87138881D01*
X169519500Y-87325513D01*
X169519500Y-87514486D01*
X169549059Y-87701118D01*
X169607454Y-87880836D01*
X169693240Y-88049199D01*
X169804310Y-88202073D01*
X169937927Y-88335690D01*
X170090801Y-88446760D01*
X170170347Y-88487290D01*
X170259163Y-88532545D01*
X170259165Y-88532545D01*
X170259168Y-88532547D01*
X170348734Y-88561649D01*
X170380803Y-88572069D01*
X170438478Y-88611507D01*
X170465676Y-88675866D01*
X170453761Y-88744712D01*
X170406516Y-88796188D01*
X170380803Y-88807931D01*
X170259163Y-88847454D01*
X170090800Y-88933240D01*
X170003579Y-88996610D01*
X169937927Y-89044310D01*
X169937925Y-89044312D01*
X169937924Y-89044312D01*
X169804312Y-89177924D01*
X169804312Y-89177925D01*
X169804310Y-89177927D01*
X169756610Y-89243579D01*
X169693240Y-89330800D01*
X169607454Y-89499163D01*
X169549059Y-89678881D01*
X169519500Y-89865513D01*
X169519500Y-90054486D01*
X169549059Y-90241118D01*
X169607454Y-90420836D01*
X169685515Y-90574038D01*
X169693240Y-90589199D01*
X169804310Y-90742073D01*
X169937927Y-90875690D01*
X170090801Y-90986760D01*
X170259168Y-91072547D01*
X170369963Y-91108546D01*
X170427638Y-91147984D01*
X170454836Y-91212342D01*
X170442921Y-91281189D01*
X170395677Y-91332664D01*
X170367641Y-91345137D01*
X170331468Y-91356110D01*
X170185878Y-91416416D01*
X170115777Y-91453886D01*
X170115757Y-91453898D01*
X169984763Y-91541425D01*
X169984740Y-91541442D01*
X169923292Y-91591871D01*
X169811871Y-91703292D01*
X169761442Y-91764740D01*
X169761425Y-91764763D01*
X169673898Y-91895757D01*
X169673886Y-91895777D01*
X169636416Y-91965878D01*
X169576111Y-92111464D01*
X169553032Y-92187548D01*
X169522289Y-92342108D01*
X169522289Y-92342113D01*
X169514500Y-92421208D01*
X169514500Y-92578791D01*
X169522289Y-92657886D01*
X169522289Y-92657891D01*
X169553032Y-92812451D01*
X169576111Y-92888535D01*
X169636416Y-93034121D01*
X169673886Y-93104222D01*
X169673898Y-93104242D01*
X169761425Y-93235236D01*
X169761442Y-93235259D01*
X169811871Y-93296707D01*
X169923292Y-93408128D01*
X169923297Y-93408132D01*
X169923298Y-93408133D01*
X169984746Y-93458562D01*
X169984753Y-93458567D01*
X169984763Y-93458574D01*
X170115757Y-93546101D01*
X170115762Y-93546104D01*
X170115774Y-93546112D01*
X170185879Y-93583584D01*
X170288824Y-93626225D01*
X170331467Y-93643889D01*
X170331469Y-93643889D01*
X170331470Y-93643890D01*
X170367639Y-93654861D01*
X170426077Y-93693158D01*
X170454534Y-93756970D01*
X170443975Y-93826037D01*
X170397751Y-93878431D01*
X170369963Y-93891453D01*
X170259163Y-93927454D01*
X170090800Y-94013240D01*
X170007935Y-94073446D01*
X169937927Y-94124310D01*
X169937925Y-94124312D01*
X169937924Y-94124312D01*
X169804312Y-94257924D01*
X169804312Y-94257925D01*
X169804310Y-94257927D01*
X169756610Y-94323579D01*
X169693240Y-94410800D01*
X169607454Y-94579163D01*
X169549059Y-94758881D01*
X169519500Y-94945513D01*
X169519500Y-95134486D01*
X169549059Y-95321118D01*
X169607454Y-95500836D01*
X169675358Y-95634103D01*
X169693240Y-95669199D01*
X169804310Y-95822073D01*
X169937927Y-95955690D01*
X170090801Y-96066760D01*
X170103949Y-96073459D01*
X170259163Y-96152545D01*
X170259165Y-96152545D01*
X170259168Y-96152547D01*
X170348734Y-96181649D01*
X170380803Y-96192069D01*
X170438478Y-96231507D01*
X170465676Y-96295866D01*
X170453761Y-96364712D01*
X170406516Y-96416188D01*
X170380803Y-96427931D01*
X170259163Y-96467454D01*
X170090800Y-96553240D01*
X170003579Y-96616610D01*
X169937927Y-96664310D01*
X169937925Y-96664312D01*
X169937924Y-96664312D01*
X169804312Y-96797924D01*
X169804312Y-96797925D01*
X169804310Y-96797927D01*
X169756610Y-96863579D01*
X169693240Y-96950800D01*
X169607454Y-97119163D01*
X169549059Y-97298881D01*
X169519500Y-97485513D01*
X169519500Y-97674486D01*
X169549059Y-97861118D01*
X169607454Y-98040836D01*
X169631838Y-98088691D01*
X169693240Y-98209199D01*
X169804310Y-98362073D01*
X169937927Y-98495690D01*
X170090801Y-98606760D01*
X170098173Y-98610516D01*
X170259163Y-98692545D01*
X170259165Y-98692545D01*
X170259168Y-98692547D01*
X170355497Y-98723846D01*
X170438881Y-98750940D01*
X170625514Y-98780500D01*
X170625519Y-98780500D01*
X170814486Y-98780500D01*
X171001118Y-98750940D01*
X171180832Y-98692547D01*
X171349199Y-98606760D01*
X171502073Y-98495690D01*
X171635690Y-98362073D01*
X171746760Y-98209199D01*
X171832547Y-98040832D01*
X171890940Y-97861118D01*
X171920500Y-97674486D01*
X171920500Y-97485513D01*
X171890940Y-97298881D01*
X171859455Y-97201983D01*
X171832547Y-97119168D01*
X171832545Y-97119165D01*
X171832545Y-97119163D01*
X171746759Y-96950800D01*
X171635690Y-96797927D01*
X171502073Y-96664310D01*
X171349199Y-96553240D01*
X171263591Y-96509621D01*
X171180836Y-96467454D01*
X171106472Y-96443291D01*
X171059195Y-96427930D01*
X171034881Y-96411304D01*
X179099500Y-96411304D01*
X179099500Y-96588695D01*
X179134103Y-96762658D01*
X179134106Y-96762667D01*
X179201983Y-96926540D01*
X179201990Y-96926553D01*
X179300535Y-97074034D01*
X179300538Y-97074038D01*
X179425961Y-97199461D01*
X179425965Y-97199464D01*
X179573446Y-97298009D01*
X179573459Y-97298016D01*
X179681869Y-97342920D01*
X179737334Y-97365894D01*
X179737336Y-97365894D01*
X179737341Y-97365896D01*
X179911304Y-97400499D01*
X179911307Y-97400500D01*
X179911309Y-97400500D01*
X180088693Y-97400500D01*
X180088694Y-97400499D01*
X180146682Y-97388964D01*
X180262658Y-97365896D01*
X180262658Y-97365895D01*
X180262666Y-97365894D01*
X180300100Y-97350388D01*
X180369565Y-97342920D01*
X180432044Y-97374194D01*
X180467697Y-97434283D01*
X180465204Y-97504108D01*
X180462111Y-97512400D01*
X180446606Y-97549833D01*
X180446603Y-97549841D01*
X180412000Y-97723804D01*
X180412000Y-97901195D01*
X180446603Y-98075158D01*
X180446606Y-98075167D01*
X180514483Y-98239040D01*
X180514490Y-98239053D01*
X180613035Y-98386534D01*
X180613038Y-98386538D01*
X180738461Y-98511961D01*
X180738465Y-98511964D01*
X180885946Y-98610509D01*
X180885959Y-98610516D01*
X181008863Y-98661423D01*
X181049834Y-98678394D01*
X181049836Y-98678394D01*
X181049841Y-98678396D01*
X181223804Y-98712999D01*
X181223807Y-98713000D01*
X181223809Y-98713000D01*
X181401193Y-98713000D01*
X181401194Y-98712999D01*
X181504025Y-98692545D01*
X181575158Y-98678396D01*
X181575161Y-98678394D01*
X181575166Y-98678394D01*
X181739047Y-98610513D01*
X181886535Y-98511964D01*
X182011964Y-98386535D01*
X182110513Y-98239047D01*
X182178394Y-98075166D01*
X182205297Y-97939908D01*
X182237680Y-97878003D01*
X182239176Y-97876479D01*
X184723198Y-95392457D01*
X184763424Y-95365580D01*
X184926540Y-95298016D01*
X184926540Y-95298015D01*
X184926547Y-95298013D01*
X185074035Y-95199464D01*
X185199464Y-95074035D01*
X185298013Y-94926547D01*
X185365894Y-94762666D01*
X185400500Y-94588691D01*
X185400500Y-94411309D01*
X185400500Y-94411306D01*
X185400499Y-94411304D01*
X185365896Y-94237341D01*
X185365893Y-94237332D01*
X185298016Y-94073459D01*
X185298009Y-94073446D01*
X185199464Y-93925965D01*
X185199461Y-93925961D01*
X185074038Y-93800538D01*
X185074034Y-93800535D01*
X184926553Y-93701990D01*
X184926540Y-93701983D01*
X184762667Y-93634106D01*
X184762658Y-93634103D01*
X184588694Y-93599500D01*
X184588691Y-93599500D01*
X184411309Y-93599500D01*
X184411306Y-93599500D01*
X184237341Y-93634103D01*
X184237337Y-93634105D01*
X184237335Y-93634105D01*
X184237334Y-93634106D01*
X184212994Y-93644188D01*
X184080725Y-93698974D01*
X184011256Y-93706442D01*
X183948777Y-93675166D01*
X183945593Y-93672093D01*
X183824038Y-93550538D01*
X183824034Y-93550535D01*
X183676553Y-93451990D01*
X183676540Y-93451983D01*
X183512667Y-93384106D01*
X183512658Y-93384103D01*
X183338694Y-93349500D01*
X183338691Y-93349500D01*
X183161309Y-93349500D01*
X183161306Y-93349500D01*
X182987341Y-93384103D01*
X182987332Y-93384106D01*
X182823459Y-93451983D01*
X182823446Y-93451990D01*
X182675965Y-93550535D01*
X182675961Y-93550538D01*
X182550538Y-93675961D01*
X182550535Y-93675965D01*
X182451990Y-93823446D01*
X182451983Y-93823459D01*
X182384106Y-93987332D01*
X182384104Y-93987340D01*
X182357202Y-94122586D01*
X182324817Y-94184496D01*
X182323266Y-94186075D01*
X180746162Y-95763181D01*
X180719234Y-95777884D01*
X180693416Y-95794477D01*
X180687215Y-95795368D01*
X180684839Y-95796666D01*
X180658481Y-95799500D01*
X180610100Y-95799500D01*
X180543061Y-95779815D01*
X180541209Y-95778602D01*
X180426549Y-95701988D01*
X180426547Y-95701987D01*
X180262667Y-95634106D01*
X180262658Y-95634103D01*
X180088694Y-95599500D01*
X180088691Y-95599500D01*
X179911309Y-95599500D01*
X179911306Y-95599500D01*
X179737341Y-95634103D01*
X179737332Y-95634106D01*
X179573459Y-95701983D01*
X179573446Y-95701990D01*
X179425965Y-95800535D01*
X179425961Y-95800538D01*
X179300538Y-95925961D01*
X179300535Y-95925965D01*
X179201990Y-96073446D01*
X179201983Y-96073459D01*
X179134106Y-96237332D01*
X179134103Y-96237341D01*
X179099500Y-96411304D01*
X171034881Y-96411304D01*
X171001521Y-96388493D01*
X170974323Y-96324134D01*
X170986238Y-96255288D01*
X171033482Y-96203812D01*
X171059194Y-96192069D01*
X171180832Y-96152547D01*
X171349199Y-96066760D01*
X171502073Y-95955690D01*
X171635690Y-95822073D01*
X171746760Y-95669199D01*
X171832547Y-95500832D01*
X171890940Y-95321118D01*
X171894599Y-95298016D01*
X171920500Y-95134486D01*
X171920500Y-94945513D01*
X171890940Y-94758881D01*
X171863846Y-94675497D01*
X171832547Y-94579168D01*
X171832545Y-94579165D01*
X171832545Y-94579163D01*
X171787290Y-94490347D01*
X171746760Y-94410801D01*
X171635690Y-94257927D01*
X171502073Y-94124310D01*
X171349199Y-94013240D01*
X171298367Y-93987340D01*
X171205428Y-93939985D01*
X171154632Y-93892010D01*
X171137837Y-93824189D01*
X171160374Y-93758054D01*
X171215090Y-93714603D01*
X171261723Y-93705500D01*
X171359791Y-93705500D01*
X171381806Y-93704634D01*
X171391595Y-93704250D01*
X171514958Y-93674634D01*
X171588467Y-93644186D01*
X171617384Y-93630855D01*
X171720023Y-93556284D01*
X171776284Y-93500023D01*
X171797898Y-93476641D01*
X171864186Y-93368467D01*
X171894634Y-93294958D01*
X171905653Y-93265088D01*
X171925500Y-93139782D01*
X171925500Y-91860218D01*
X171924250Y-91828405D01*
X171894634Y-91705042D01*
X171864186Y-91631533D01*
X171850855Y-91602616D01*
X171776284Y-91499977D01*
X171720023Y-91443716D01*
X171696641Y-91422102D01*
X171588467Y-91355814D01*
X171588466Y-91355813D01*
X171588462Y-91355811D01*
X171514975Y-91325373D01*
X171514974Y-91325372D01*
X171514958Y-91325366D01*
X171485088Y-91314347D01*
X171359782Y-91294500D01*
X171261723Y-91294500D01*
X171194684Y-91274815D01*
X171148929Y-91222011D01*
X171138985Y-91152853D01*
X171168010Y-91089297D01*
X171205428Y-91060015D01*
X171234026Y-91045442D01*
X171349199Y-90986760D01*
X171502073Y-90875690D01*
X171635690Y-90742073D01*
X171746760Y-90589199D01*
X171832547Y-90420832D01*
X171890940Y-90241118D01*
X171920500Y-90054486D01*
X171920500Y-89865513D01*
X171890940Y-89678881D01*
X171856683Y-89573452D01*
X171832547Y-89499168D01*
X171832545Y-89499165D01*
X171832545Y-89499163D01*
X171746759Y-89330800D01*
X171635690Y-89177927D01*
X171502073Y-89044310D01*
X171349199Y-88933240D01*
X171180836Y-88847454D01*
X171106472Y-88823291D01*
X171059195Y-88807930D01*
X171001521Y-88768493D01*
X170974323Y-88704134D01*
X170986238Y-88635288D01*
X171033482Y-88583812D01*
X171059194Y-88572069D01*
X171180832Y-88532547D01*
X171349199Y-88446760D01*
X171502073Y-88335690D01*
X171635690Y-88202073D01*
X171746760Y-88049199D01*
X171832547Y-87880832D01*
X171890940Y-87701118D01*
X171911160Y-87573453D01*
X171920500Y-87514486D01*
X171920500Y-87325513D01*
X171890940Y-87138881D01*
X171832545Y-86959163D01*
X171746759Y-86790800D01*
X171635690Y-86637927D01*
X171502073Y-86504310D01*
X171349199Y-86393240D01*
X171321687Y-86379222D01*
X171180836Y-86307454D01*
X171080235Y-86274767D01*
X171059195Y-86267930D01*
X171001521Y-86228493D01*
X170974323Y-86164134D01*
X170986238Y-86095288D01*
X171033482Y-86043812D01*
X171059194Y-86032069D01*
X171180832Y-85992547D01*
X171349199Y-85906760D01*
X171502073Y-85795690D01*
X171635690Y-85662073D01*
X171746760Y-85509199D01*
X171832547Y-85340832D01*
X171890940Y-85161118D01*
X171904825Y-85073452D01*
X171920500Y-84974486D01*
X171920500Y-84785513D01*
X171890940Y-84598881D01*
X171863846Y-84515497D01*
X171832547Y-84419168D01*
X171832545Y-84419165D01*
X171832545Y-84419163D01*
X171772101Y-84300536D01*
X171746760Y-84250801D01*
X171635690Y-84097927D01*
X171502073Y-83964310D01*
X171349199Y-83853240D01*
X171180836Y-83767454D01*
X171106472Y-83743291D01*
X171059195Y-83727930D01*
X171001521Y-83688493D01*
X170974323Y-83624134D01*
X170986238Y-83555288D01*
X171033482Y-83503812D01*
X171059194Y-83492069D01*
X171180832Y-83452547D01*
X171349199Y-83366760D01*
X171502073Y-83255690D01*
X171635690Y-83122073D01*
X171746760Y-82969199D01*
X171832547Y-82800832D01*
X171890940Y-82621118D01*
X171920500Y-82434486D01*
X171920500Y-82245513D01*
X171890940Y-82058881D01*
X171832545Y-81879163D01*
X171746759Y-81710800D01*
X171635690Y-81557927D01*
X171502073Y-81424310D01*
X171349199Y-81313240D01*
X171205428Y-81239985D01*
X171154632Y-81192010D01*
X171137837Y-81124189D01*
X171160374Y-81058054D01*
X171215090Y-81014603D01*
X171261723Y-81005500D01*
X171359791Y-81005500D01*
X171381806Y-81004634D01*
X171391595Y-81004250D01*
X171514958Y-80974634D01*
X171588467Y-80944186D01*
X171617384Y-80930855D01*
X171720023Y-80856284D01*
X171776284Y-80800023D01*
X171797898Y-80776641D01*
X171864186Y-80668467D01*
X171894634Y-80594958D01*
X171905653Y-80565088D01*
X171925500Y-80439782D01*
X171925500Y-79160218D01*
X171924250Y-79128405D01*
X171894634Y-79005042D01*
X171864186Y-78931533D01*
X171854860Y-78911304D01*
X184599500Y-78911304D01*
X184599500Y-79088695D01*
X184634103Y-79262658D01*
X184634106Y-79262667D01*
X184701984Y-79426542D01*
X184701985Y-79426543D01*
X184701987Y-79426547D01*
X184742747Y-79487548D01*
X184778602Y-79541208D01*
X184799480Y-79607885D01*
X184799500Y-79610099D01*
X184799500Y-84889899D01*
X184779815Y-84956938D01*
X184778602Y-84958790D01*
X184701988Y-85073449D01*
X184701987Y-85073452D01*
X184634106Y-85237332D01*
X184634103Y-85237341D01*
X184599500Y-85411304D01*
X184599500Y-85588695D01*
X184634103Y-85762658D01*
X184634106Y-85762667D01*
X184701983Y-85926540D01*
X184701990Y-85926553D01*
X184800535Y-86074034D01*
X184800538Y-86074038D01*
X184925961Y-86199461D01*
X184925965Y-86199464D01*
X185073446Y-86298009D01*
X185073459Y-86298016D01*
X185196363Y-86348923D01*
X185237334Y-86365894D01*
X185237336Y-86365894D01*
X185237341Y-86365896D01*
X185411304Y-86400499D01*
X185411307Y-86400500D01*
X185411309Y-86400500D01*
X185588693Y-86400500D01*
X185588694Y-86400499D01*
X185652578Y-86387792D01*
X185762658Y-86365896D01*
X185762661Y-86365894D01*
X185762666Y-86365894D01*
X185926547Y-86298013D01*
X186074035Y-86199464D01*
X186199464Y-86074035D01*
X186298013Y-85926547D01*
X186365894Y-85762666D01*
X186369563Y-85744225D01*
X186400499Y-85588695D01*
X186400500Y-85588693D01*
X186400500Y-85411306D01*
X186400499Y-85411304D01*
X186365896Y-85237341D01*
X186365893Y-85237332D01*
X186348979Y-85196498D01*
X186298013Y-85073453D01*
X186298011Y-85073451D01*
X186298011Y-85073449D01*
X186221398Y-84958790D01*
X186200520Y-84892112D01*
X186200500Y-84889899D01*
X186200500Y-79610099D01*
X186220185Y-79543060D01*
X186221398Y-79541208D01*
X186298013Y-79426547D01*
X186365894Y-79262666D01*
X186370932Y-79237341D01*
X186400499Y-79088695D01*
X186400500Y-79088693D01*
X186400500Y-78911306D01*
X186400499Y-78911304D01*
X186365896Y-78737341D01*
X186365893Y-78737332D01*
X186357229Y-78716416D01*
X186337650Y-78669146D01*
X186298016Y-78573459D01*
X186298009Y-78573446D01*
X186199464Y-78425965D01*
X186199461Y-78425961D01*
X186074038Y-78300538D01*
X186074034Y-78300535D01*
X185926553Y-78201990D01*
X185926540Y-78201983D01*
X185762667Y-78134106D01*
X185762658Y-78134103D01*
X185588694Y-78099500D01*
X185588691Y-78099500D01*
X185411309Y-78099500D01*
X185411306Y-78099500D01*
X185237341Y-78134103D01*
X185237332Y-78134106D01*
X185073459Y-78201983D01*
X185073446Y-78201990D01*
X184925965Y-78300535D01*
X184925961Y-78300538D01*
X184800538Y-78425961D01*
X184800535Y-78425965D01*
X184701990Y-78573446D01*
X184701983Y-78573459D01*
X184634106Y-78737332D01*
X184634103Y-78737341D01*
X184599500Y-78911304D01*
X171854860Y-78911304D01*
X171850855Y-78902616D01*
X171776284Y-78799977D01*
X171720023Y-78743716D01*
X171696641Y-78722102D01*
X171588467Y-78655814D01*
X171588466Y-78655813D01*
X171588462Y-78655811D01*
X171514975Y-78625373D01*
X171514974Y-78625372D01*
X171514958Y-78625366D01*
X171485088Y-78614347D01*
X171359782Y-78594500D01*
X171261723Y-78594500D01*
X171194684Y-78574815D01*
X171148929Y-78522011D01*
X171138985Y-78452853D01*
X171168010Y-78389297D01*
X171205428Y-78360015D01*
X171234026Y-78345442D01*
X171349199Y-78286760D01*
X171502073Y-78175690D01*
X171635690Y-78042073D01*
X171746760Y-77889199D01*
X171832547Y-77720832D01*
X171890940Y-77541118D01*
X171920500Y-77354486D01*
X171920500Y-77165513D01*
X171890940Y-76978881D01*
X171832545Y-76799163D01*
X171746759Y-76630800D01*
X171635690Y-76477927D01*
X171502073Y-76344310D01*
X171349199Y-76233240D01*
X171282910Y-76199464D01*
X171180836Y-76147454D01*
X171106472Y-76123291D01*
X171059195Y-76107930D01*
X171001521Y-76068493D01*
X170974323Y-76004134D01*
X170986238Y-75935288D01*
X171033482Y-75883812D01*
X171059194Y-75872069D01*
X171180832Y-75832547D01*
X171349199Y-75746760D01*
X171502073Y-75635690D01*
X171635690Y-75502073D01*
X171746760Y-75349199D01*
X171832547Y-75180832D01*
X171890940Y-75001118D01*
X171897644Y-74958790D01*
X171920500Y-74814486D01*
X171920500Y-74625513D01*
X171890940Y-74438881D01*
X171832545Y-74259163D01*
X171746759Y-74090800D01*
X171635690Y-73937927D01*
X171502073Y-73804310D01*
X171349199Y-73693240D01*
X171180836Y-73607454D01*
X171062468Y-73568994D01*
X171059195Y-73567930D01*
X171001521Y-73528493D01*
X170974323Y-73464134D01*
X170986238Y-73395288D01*
X171033482Y-73343812D01*
X171059194Y-73332069D01*
X171180832Y-73292547D01*
X171349199Y-73206760D01*
X171502073Y-73095690D01*
X171635690Y-72962073D01*
X171746760Y-72809199D01*
X171832547Y-72640832D01*
X171890940Y-72461118D01*
X171920500Y-72274486D01*
X171920500Y-72085513D01*
X171890940Y-71898881D01*
X171832545Y-71719163D01*
X171746759Y-71550800D01*
X171635690Y-71397927D01*
X171502073Y-71264310D01*
X171349199Y-71153240D01*
X171180836Y-71067454D01*
X171106472Y-71043291D01*
X171059195Y-71027930D01*
X171001521Y-70988493D01*
X170974323Y-70924134D01*
X170986238Y-70855288D01*
X171033482Y-70803812D01*
X171059194Y-70792069D01*
X171180832Y-70752547D01*
X171349199Y-70666760D01*
X171502073Y-70555690D01*
X171635690Y-70422073D01*
X171746760Y-70269199D01*
X171832547Y-70100832D01*
X171890940Y-69921118D01*
X171920500Y-69734486D01*
X171920500Y-69545513D01*
X171890940Y-69358881D01*
X171832545Y-69179163D01*
X171746759Y-69010800D01*
X171635690Y-68857927D01*
X171502073Y-68724310D01*
X171349199Y-68613240D01*
X171205428Y-68539985D01*
X171154632Y-68492010D01*
X171137837Y-68424189D01*
X171160374Y-68358054D01*
X171215090Y-68314603D01*
X171261723Y-68305500D01*
X171359791Y-68305500D01*
X171381806Y-68304634D01*
X171391595Y-68304250D01*
X171514958Y-68274634D01*
X171588467Y-68244186D01*
X171617384Y-68230855D01*
X171720023Y-68156284D01*
X171776284Y-68100023D01*
X171797898Y-68076641D01*
X171864186Y-67968467D01*
X171894634Y-67894958D01*
X171905653Y-67865088D01*
X171925500Y-67739782D01*
X171925500Y-66460218D01*
X171924250Y-66428405D01*
X171894634Y-66305042D01*
X171864186Y-66231533D01*
X171850855Y-66202616D01*
X171776284Y-66099977D01*
X171720023Y-66043716D01*
X171696641Y-66022102D01*
X171588467Y-65955814D01*
X171588466Y-65955813D01*
X171588462Y-65955811D01*
X171514975Y-65925373D01*
X171514974Y-65925372D01*
X171514958Y-65925366D01*
X171485088Y-65914347D01*
X171359782Y-65894500D01*
X171261723Y-65894500D01*
X171194684Y-65874815D01*
X171148929Y-65822011D01*
X171138985Y-65752853D01*
X171168010Y-65689297D01*
X171205428Y-65660015D01*
X171234026Y-65645442D01*
X171349199Y-65586760D01*
X171502073Y-65475690D01*
X171635690Y-65342073D01*
X171746760Y-65189199D01*
X171832547Y-65020832D01*
X171890940Y-64841118D01*
X171920500Y-64654486D01*
X171920500Y-64465513D01*
X171890940Y-64278881D01*
X171832545Y-64099163D01*
X171746759Y-63930800D01*
X171743246Y-63925965D01*
X171635690Y-63777927D01*
X171502073Y-63644310D01*
X171349199Y-63533240D01*
X171180836Y-63447454D01*
X171106472Y-63423291D01*
X171059195Y-63407930D01*
X171001521Y-63368493D01*
X170974323Y-63304134D01*
X170986238Y-63235288D01*
X171033482Y-63183812D01*
X171059194Y-63172069D01*
X171180832Y-63132547D01*
X171349199Y-63046760D01*
X171502073Y-62935690D01*
X171635690Y-62802073D01*
X171746760Y-62649199D01*
X171832547Y-62480832D01*
X171890940Y-62301118D01*
X171920500Y-62114486D01*
X171920500Y-61925513D01*
X171890940Y-61738881D01*
X171835740Y-61568996D01*
X171832547Y-61559168D01*
X171832545Y-61559165D01*
X171832545Y-61559163D01*
X171767244Y-61431004D01*
X171746760Y-61390801D01*
X171635690Y-61237927D01*
X171502073Y-61104310D01*
X171349199Y-60993240D01*
X171180836Y-60907454D01*
X171106472Y-60883291D01*
X171059195Y-60867930D01*
X171001521Y-60828493D01*
X170974323Y-60764134D01*
X170986238Y-60695288D01*
X171033482Y-60643812D01*
X171059194Y-60632069D01*
X171180832Y-60592547D01*
X171349199Y-60506760D01*
X171502073Y-60395690D01*
X171635690Y-60262073D01*
X171746760Y-60109199D01*
X171832547Y-59940832D01*
X171890940Y-59761118D01*
X171900305Y-59701990D01*
X171920500Y-59574486D01*
X171920500Y-59385513D01*
X171890940Y-59198881D01*
X171832545Y-59019163D01*
X171785056Y-58925961D01*
X171746760Y-58850801D01*
X171635690Y-58697927D01*
X171502073Y-58564310D01*
X171349199Y-58453240D01*
X171180836Y-58367454D01*
X171106472Y-58343291D01*
X171059195Y-58327930D01*
X171001521Y-58288493D01*
X170974323Y-58224134D01*
X170986238Y-58155288D01*
X171033482Y-58103812D01*
X171059194Y-58092069D01*
X171180832Y-58052547D01*
X171349199Y-57966760D01*
X171502073Y-57855690D01*
X171635690Y-57722073D01*
X171746760Y-57569199D01*
X171832547Y-57400832D01*
X171890940Y-57221118D01*
X171920500Y-57034486D01*
X171920500Y-56845513D01*
X171890940Y-56658881D01*
X171860847Y-56566267D01*
X171832547Y-56479168D01*
X171832545Y-56479165D01*
X171832545Y-56479163D01*
X171746759Y-56310800D01*
X171635690Y-56157927D01*
X171502073Y-56024310D01*
X171349199Y-55913240D01*
X171215977Y-55845360D01*
X171205428Y-55839985D01*
X171154632Y-55792010D01*
X171137837Y-55724189D01*
X171160374Y-55658054D01*
X171215090Y-55614603D01*
X171261723Y-55605500D01*
X171359791Y-55605500D01*
X171381806Y-55604634D01*
X171391595Y-55604250D01*
X171514958Y-55574634D01*
X171588467Y-55544186D01*
X171617384Y-55530855D01*
X171720023Y-55456284D01*
X171776284Y-55400023D01*
X171797898Y-55376641D01*
X171864186Y-55268467D01*
X171894634Y-55194958D01*
X171905653Y-55165088D01*
X171925500Y-55039782D01*
X171925500Y-53760218D01*
X171924250Y-53728405D01*
X171894634Y-53605042D01*
X171864186Y-53531533D01*
X171850855Y-53502616D01*
X171776284Y-53399977D01*
X171720023Y-53343716D01*
X171696641Y-53322102D01*
X171588467Y-53255814D01*
X171588466Y-53255813D01*
X171588462Y-53255811D01*
X171514975Y-53225373D01*
X171514974Y-53225372D01*
X171514958Y-53225366D01*
X171485088Y-53214347D01*
X171359782Y-53194500D01*
X171261723Y-53194500D01*
X171194684Y-53174815D01*
X171148929Y-53122011D01*
X171138985Y-53052853D01*
X171168010Y-52989297D01*
X171205428Y-52960015D01*
X171234026Y-52945442D01*
X171349199Y-52886760D01*
X171502073Y-52775690D01*
X171635690Y-52642073D01*
X171746760Y-52489199D01*
X171832547Y-52320832D01*
X171890940Y-52141118D01*
X171895136Y-52114624D01*
X171920500Y-51954486D01*
X171920500Y-51765513D01*
X171890940Y-51578881D01*
X171863846Y-51495497D01*
X171832547Y-51399168D01*
X171832545Y-51399165D01*
X171832545Y-51399163D01*
X171769856Y-51276130D01*
X171746760Y-51230801D01*
X171635690Y-51077927D01*
X171502073Y-50944310D01*
X171349199Y-50833240D01*
X171195611Y-50754983D01*
X171144816Y-50707010D01*
X171128021Y-50639189D01*
X171150558Y-50573054D01*
X171205273Y-50529602D01*
X171251906Y-50520499D01*
X171359360Y-50520499D01*
X171359363Y-50520499D01*
X171476753Y-50505046D01*
X171476757Y-50505044D01*
X171476762Y-50505044D01*
X171622841Y-50444536D01*
X171748282Y-50348282D01*
X171844536Y-50222841D01*
X171905044Y-50076762D01*
X171920500Y-49959361D01*
X171920499Y-49217682D01*
X187200000Y-49217682D01*
X187200000Y-49422317D01*
X187232009Y-49624417D01*
X187295244Y-49819031D01*
X187388141Y-50001350D01*
X187388147Y-50001359D01*
X187420523Y-50045921D01*
X187420524Y-50045922D01*
X188017037Y-49449409D01*
X188034075Y-49512993D01*
X188099901Y-49627007D01*
X188192993Y-49720099D01*
X188307007Y-49785925D01*
X188370590Y-49802962D01*
X187774076Y-50399474D01*
X187818650Y-50431859D01*
X188000967Y-50524754D01*
X188006458Y-50526538D01*
X188064135Y-50565973D01*
X188091336Y-50630331D01*
X188079425Y-50699178D01*
X188032183Y-50750655D01*
X188024440Y-50754955D01*
X187870805Y-50833236D01*
X187796230Y-50887419D01*
X187717927Y-50944310D01*
X187717925Y-50944312D01*
X187717924Y-50944312D01*
X187584312Y-51077924D01*
X187584312Y-51077925D01*
X187584310Y-51077927D01*
X187536610Y-51143579D01*
X187473240Y-51230800D01*
X187387454Y-51399163D01*
X187329059Y-51578881D01*
X187299500Y-51765513D01*
X187299500Y-51954486D01*
X187329059Y-52141118D01*
X187387454Y-52320836D01*
X187443318Y-52430474D01*
X187473240Y-52489199D01*
X187584310Y-52642073D01*
X187717927Y-52775690D01*
X187870801Y-52886760D01*
X187966248Y-52935392D01*
X188014572Y-52960015D01*
X188065368Y-53007990D01*
X188082163Y-53075811D01*
X188059626Y-53141946D01*
X188004910Y-53185397D01*
X187958277Y-53194500D01*
X187860209Y-53194500D01*
X187828408Y-53195749D01*
X187828402Y-53195750D01*
X187705043Y-53225365D01*
X187631539Y-53255811D01*
X187602614Y-53269146D01*
X187499976Y-53343716D01*
X187443730Y-53399962D01*
X187443717Y-53399975D01*
X187443716Y-53399977D01*
X187429895Y-53414927D01*
X187422101Y-53423360D01*
X187355811Y-53531537D01*
X187325373Y-53605024D01*
X187314347Y-53634911D01*
X187314347Y-53634912D01*
X187294500Y-53760219D01*
X187294500Y-55039790D01*
X187295749Y-55071591D01*
X187295750Y-55071597D01*
X187325365Y-55194956D01*
X187355811Y-55268460D01*
X187355814Y-55268467D01*
X187369145Y-55297384D01*
X187443716Y-55400023D01*
X187499977Y-55456284D01*
X187523359Y-55477898D01*
X187631533Y-55544186D01*
X187631535Y-55544186D01*
X187631537Y-55544188D01*
X187657305Y-55554861D01*
X187705042Y-55574634D01*
X187734912Y-55585653D01*
X187860218Y-55605500D01*
X187860219Y-55605500D01*
X187958277Y-55605500D01*
X188025316Y-55625185D01*
X188071071Y-55677989D01*
X188081015Y-55747147D01*
X188051990Y-55810703D01*
X188014572Y-55839985D01*
X187870800Y-55913240D01*
X187831790Y-55941583D01*
X187717927Y-56024310D01*
X187717925Y-56024312D01*
X187717924Y-56024312D01*
X187584312Y-56157924D01*
X187584312Y-56157925D01*
X187584310Y-56157927D01*
X187564383Y-56185354D01*
X187473240Y-56310800D01*
X187387454Y-56479163D01*
X187329059Y-56658881D01*
X187299500Y-56845513D01*
X187299500Y-57034486D01*
X187329059Y-57221118D01*
X187387454Y-57400836D01*
X187437981Y-57500000D01*
X187473240Y-57569199D01*
X187584310Y-57722073D01*
X187717927Y-57855690D01*
X187870801Y-57966760D01*
X187887564Y-57975301D01*
X188039163Y-58052545D01*
X188039165Y-58052545D01*
X188039168Y-58052547D01*
X188128734Y-58081649D01*
X188160803Y-58092069D01*
X188218478Y-58131507D01*
X188245676Y-58195866D01*
X188233761Y-58264712D01*
X188186516Y-58316188D01*
X188160803Y-58327931D01*
X188039163Y-58367454D01*
X187870800Y-58453240D01*
X187783579Y-58516610D01*
X187717927Y-58564310D01*
X187717925Y-58564312D01*
X187717924Y-58564312D01*
X187584312Y-58697924D01*
X187584312Y-58697925D01*
X187584310Y-58697927D01*
X187536610Y-58763579D01*
X187473240Y-58850800D01*
X187387454Y-59019163D01*
X187329059Y-59198881D01*
X187299500Y-59385513D01*
X187299500Y-59574486D01*
X187329059Y-59761118D01*
X187387454Y-59940836D01*
X187462791Y-60088691D01*
X187473240Y-60109199D01*
X187584310Y-60262073D01*
X187717927Y-60395690D01*
X187870801Y-60506760D01*
X187950347Y-60547290D01*
X188039163Y-60592545D01*
X188039165Y-60592545D01*
X188039168Y-60592547D01*
X188128734Y-60621649D01*
X188160803Y-60632069D01*
X188218478Y-60671507D01*
X188245676Y-60735866D01*
X188233761Y-60804712D01*
X188186516Y-60856188D01*
X188160803Y-60867931D01*
X188039163Y-60907454D01*
X187870800Y-60993240D01*
X187787918Y-61053458D01*
X187717927Y-61104310D01*
X187717925Y-61104312D01*
X187717924Y-61104312D01*
X187584312Y-61237924D01*
X187584312Y-61237925D01*
X187584310Y-61237927D01*
X187578328Y-61246161D01*
X187473240Y-61390800D01*
X187387454Y-61559163D01*
X187329059Y-61738881D01*
X187299500Y-61925513D01*
X187299500Y-62114486D01*
X187329059Y-62301118D01*
X187387454Y-62480836D01*
X187473240Y-62649199D01*
X187584310Y-62802073D01*
X187717927Y-62935690D01*
X187870801Y-63046760D01*
X187950347Y-63087290D01*
X188039163Y-63132545D01*
X188039165Y-63132545D01*
X188039168Y-63132547D01*
X188128734Y-63161649D01*
X188160803Y-63172069D01*
X188218478Y-63211507D01*
X188245676Y-63275866D01*
X188233761Y-63344712D01*
X188186516Y-63396188D01*
X188160803Y-63407931D01*
X188039163Y-63447454D01*
X187870800Y-63533240D01*
X187815710Y-63573266D01*
X187717927Y-63644310D01*
X187717925Y-63644312D01*
X187717924Y-63644312D01*
X187584312Y-63777924D01*
X187584312Y-63777925D01*
X187584310Y-63777927D01*
X187567884Y-63800536D01*
X187473240Y-63930800D01*
X187387454Y-64099163D01*
X187329059Y-64278881D01*
X187299500Y-64465513D01*
X187299500Y-64654486D01*
X187329059Y-64841118D01*
X187387454Y-65020836D01*
X187473240Y-65189199D01*
X187584310Y-65342073D01*
X187717927Y-65475690D01*
X187870801Y-65586760D01*
X187966248Y-65635392D01*
X188014572Y-65660015D01*
X188065368Y-65707990D01*
X188082163Y-65775811D01*
X188059626Y-65841946D01*
X188004910Y-65885397D01*
X187958277Y-65894500D01*
X187860209Y-65894500D01*
X187828408Y-65895749D01*
X187828402Y-65895750D01*
X187705043Y-65925365D01*
X187631539Y-65955811D01*
X187602614Y-65969146D01*
X187499976Y-66043716D01*
X187443730Y-66099962D01*
X187422101Y-66123360D01*
X187355811Y-66231537D01*
X187326088Y-66303298D01*
X187325366Y-66305042D01*
X187314347Y-66334912D01*
X187294502Y-66460209D01*
X187294500Y-66460219D01*
X187294500Y-67739790D01*
X187295749Y-67771591D01*
X187295750Y-67771597D01*
X187325365Y-67894956D01*
X187325366Y-67894958D01*
X187355814Y-67968467D01*
X187369145Y-67997384D01*
X187443716Y-68100023D01*
X187499977Y-68156284D01*
X187523359Y-68177898D01*
X187631533Y-68244186D01*
X187631535Y-68244186D01*
X187631537Y-68244188D01*
X187657305Y-68254861D01*
X187705042Y-68274634D01*
X187734912Y-68285653D01*
X187860218Y-68305500D01*
X187860219Y-68305500D01*
X187958277Y-68305500D01*
X188025316Y-68325185D01*
X188071071Y-68377989D01*
X188081015Y-68447147D01*
X188051990Y-68510703D01*
X188014572Y-68539985D01*
X187870800Y-68613240D01*
X187783579Y-68676610D01*
X187717927Y-68724310D01*
X187717925Y-68724312D01*
X187717924Y-68724312D01*
X187584312Y-68857924D01*
X187584312Y-68857925D01*
X187584310Y-68857927D01*
X187536610Y-68923579D01*
X187473240Y-69010800D01*
X187387454Y-69179163D01*
X187329059Y-69358881D01*
X187299500Y-69545513D01*
X187299500Y-69734486D01*
X187329059Y-69921118D01*
X187387454Y-70100836D01*
X187473240Y-70269199D01*
X187584310Y-70422073D01*
X187717927Y-70555690D01*
X187870801Y-70666760D01*
X187950347Y-70707290D01*
X188039163Y-70752545D01*
X188039165Y-70752545D01*
X188039168Y-70752547D01*
X188128734Y-70781649D01*
X188160803Y-70792069D01*
X188218478Y-70831507D01*
X188245676Y-70895866D01*
X188233761Y-70964712D01*
X188186516Y-71016188D01*
X188160803Y-71027931D01*
X188039163Y-71067454D01*
X187870800Y-71153240D01*
X187783579Y-71216610D01*
X187717927Y-71264310D01*
X187717925Y-71264312D01*
X187717924Y-71264312D01*
X187584312Y-71397924D01*
X187584312Y-71397925D01*
X187584310Y-71397927D01*
X187536610Y-71463579D01*
X187473240Y-71550800D01*
X187387454Y-71719163D01*
X187329059Y-71898881D01*
X187299500Y-72085513D01*
X187299500Y-72274486D01*
X187329059Y-72461118D01*
X187387454Y-72640836D01*
X187473240Y-72809199D01*
X187584310Y-72962073D01*
X187717927Y-73095690D01*
X187870801Y-73206760D01*
X187948130Y-73246161D01*
X188039163Y-73292545D01*
X188039165Y-73292545D01*
X188039168Y-73292547D01*
X188128734Y-73321649D01*
X188160803Y-73332069D01*
X188218478Y-73371507D01*
X188245676Y-73435866D01*
X188233761Y-73504712D01*
X188186516Y-73556188D01*
X188160803Y-73567931D01*
X188039163Y-73607454D01*
X187870800Y-73693240D01*
X187783579Y-73756610D01*
X187717927Y-73804310D01*
X187717925Y-73804312D01*
X187717924Y-73804312D01*
X187584312Y-73937924D01*
X187584312Y-73937925D01*
X187584310Y-73937927D01*
X187578049Y-73946545D01*
X187473240Y-74090800D01*
X187387454Y-74259163D01*
X187329059Y-74438881D01*
X187299500Y-74625513D01*
X187299500Y-74814486D01*
X187329059Y-75001118D01*
X187387454Y-75180836D01*
X187473240Y-75349199D01*
X187584310Y-75502073D01*
X187717927Y-75635690D01*
X187870801Y-75746760D01*
X187950347Y-75787290D01*
X188039163Y-75832545D01*
X188039165Y-75832545D01*
X188039168Y-75832547D01*
X188128734Y-75861649D01*
X188160803Y-75872069D01*
X188218478Y-75911507D01*
X188245676Y-75975866D01*
X188233761Y-76044712D01*
X188186516Y-76096188D01*
X188160803Y-76107931D01*
X188039163Y-76147454D01*
X187870800Y-76233240D01*
X187865156Y-76237341D01*
X187717927Y-76344310D01*
X187717925Y-76344312D01*
X187717924Y-76344312D01*
X187584312Y-76477924D01*
X187584312Y-76477925D01*
X187584310Y-76477927D01*
X187550473Y-76524500D01*
X187473240Y-76630800D01*
X187387454Y-76799163D01*
X187329059Y-76978881D01*
X187299500Y-77165513D01*
X187299500Y-77354486D01*
X187329059Y-77541118D01*
X187387454Y-77720836D01*
X187473240Y-77889199D01*
X187584310Y-78042073D01*
X187717927Y-78175690D01*
X187870801Y-78286760D01*
X187966248Y-78335392D01*
X188014572Y-78360015D01*
X188065368Y-78407990D01*
X188082163Y-78475811D01*
X188059626Y-78541946D01*
X188004910Y-78585397D01*
X187958277Y-78594500D01*
X187860209Y-78594500D01*
X187828408Y-78595749D01*
X187828402Y-78595750D01*
X187705043Y-78625365D01*
X187631539Y-78655811D01*
X187602614Y-78669146D01*
X187499976Y-78743716D01*
X187443730Y-78799962D01*
X187422101Y-78823360D01*
X187355811Y-78931537D01*
X187326088Y-79003298D01*
X187325366Y-79005042D01*
X187314347Y-79034912D01*
X187294502Y-79160209D01*
X187294500Y-79160219D01*
X187294500Y-80439790D01*
X187295749Y-80471591D01*
X187295750Y-80471597D01*
X187325365Y-80594956D01*
X187355811Y-80668460D01*
X187355814Y-80668467D01*
X187369145Y-80697384D01*
X187443716Y-80800023D01*
X187499977Y-80856284D01*
X187523359Y-80877898D01*
X187631533Y-80944186D01*
X187631535Y-80944186D01*
X187631537Y-80944188D01*
X187657305Y-80954861D01*
X187705042Y-80974634D01*
X187734912Y-80985653D01*
X187860218Y-81005500D01*
X187860219Y-81005500D01*
X187958277Y-81005500D01*
X188025316Y-81025185D01*
X188071071Y-81077989D01*
X188081015Y-81147147D01*
X188051990Y-81210703D01*
X188014572Y-81239985D01*
X187870800Y-81313240D01*
X187783579Y-81376610D01*
X187717927Y-81424310D01*
X187717925Y-81424312D01*
X187717924Y-81424312D01*
X187584312Y-81557924D01*
X187584312Y-81557925D01*
X187584310Y-81557927D01*
X187536610Y-81623579D01*
X187473240Y-81710800D01*
X187387454Y-81879163D01*
X187329059Y-82058881D01*
X187299500Y-82245513D01*
X187299500Y-82434486D01*
X187329059Y-82621118D01*
X187387454Y-82800836D01*
X187473240Y-82969199D01*
X187584310Y-83122073D01*
X187717927Y-83255690D01*
X187870801Y-83366760D01*
X187950347Y-83407290D01*
X188039163Y-83452545D01*
X188039165Y-83452545D01*
X188039168Y-83452547D01*
X188128734Y-83481649D01*
X188160803Y-83492069D01*
X188218478Y-83531507D01*
X188245676Y-83595866D01*
X188233761Y-83664712D01*
X188186516Y-83716188D01*
X188160803Y-83727931D01*
X188039163Y-83767454D01*
X187870800Y-83853240D01*
X187783579Y-83916610D01*
X187717927Y-83964310D01*
X187717925Y-83964312D01*
X187717924Y-83964312D01*
X187584312Y-84097924D01*
X187584312Y-84097925D01*
X187584310Y-84097927D01*
X187536610Y-84163579D01*
X187473240Y-84250800D01*
X187387454Y-84419163D01*
X187329059Y-84598881D01*
X187299500Y-84785513D01*
X187299500Y-84974486D01*
X187329059Y-85161118D01*
X187387454Y-85340836D01*
X187473240Y-85509199D01*
X187584310Y-85662073D01*
X187717927Y-85795690D01*
X187870801Y-85906760D01*
X187939714Y-85941873D01*
X188039163Y-85992545D01*
X188039165Y-85992545D01*
X188039168Y-85992547D01*
X188128734Y-86021649D01*
X188160803Y-86032069D01*
X188218478Y-86071507D01*
X188245676Y-86135866D01*
X188233761Y-86204712D01*
X188186516Y-86256188D01*
X188160803Y-86267931D01*
X188039163Y-86307454D01*
X187870800Y-86393240D01*
X187784577Y-86455886D01*
X187717927Y-86504310D01*
X187717925Y-86504312D01*
X187717924Y-86504312D01*
X187584312Y-86637924D01*
X187584312Y-86637925D01*
X187584310Y-86637927D01*
X187536610Y-86703579D01*
X187473240Y-86790800D01*
X187387454Y-86959163D01*
X187329059Y-87138881D01*
X187299500Y-87325513D01*
X187299500Y-87514486D01*
X187329059Y-87701118D01*
X187387454Y-87880836D01*
X187473240Y-88049199D01*
X187584310Y-88202073D01*
X187717927Y-88335690D01*
X187870801Y-88446760D01*
X187950347Y-88487290D01*
X188039163Y-88532545D01*
X188039165Y-88532545D01*
X188039168Y-88532547D01*
X188128734Y-88561649D01*
X188160803Y-88572069D01*
X188218478Y-88611507D01*
X188245676Y-88675866D01*
X188233761Y-88744712D01*
X188186516Y-88796188D01*
X188160803Y-88807931D01*
X188039163Y-88847454D01*
X187870800Y-88933240D01*
X187783579Y-88996610D01*
X187717927Y-89044310D01*
X187717925Y-89044312D01*
X187717924Y-89044312D01*
X187584312Y-89177924D01*
X187584312Y-89177925D01*
X187584310Y-89177927D01*
X187536610Y-89243579D01*
X187473240Y-89330800D01*
X187387454Y-89499163D01*
X187329059Y-89678881D01*
X187299500Y-89865513D01*
X187299500Y-90054486D01*
X187329059Y-90241118D01*
X187387454Y-90420836D01*
X187465515Y-90574038D01*
X187473240Y-90589199D01*
X187584310Y-90742073D01*
X187717927Y-90875690D01*
X187870801Y-90986760D01*
X187966248Y-91035392D01*
X188014572Y-91060015D01*
X188065368Y-91107990D01*
X188082163Y-91175811D01*
X188059626Y-91241946D01*
X188004910Y-91285397D01*
X187958277Y-91294500D01*
X187860209Y-91294500D01*
X187828408Y-91295749D01*
X187828402Y-91295750D01*
X187705043Y-91325365D01*
X187631539Y-91355811D01*
X187602614Y-91369146D01*
X187499976Y-91443716D01*
X187443730Y-91499962D01*
X187422101Y-91523360D01*
X187355811Y-91631537D01*
X187326088Y-91703298D01*
X187325366Y-91705042D01*
X187314347Y-91734912D01*
X187294502Y-91860209D01*
X187294500Y-91860219D01*
X187294500Y-93139790D01*
X187295749Y-93171591D01*
X187295750Y-93171597D01*
X187325365Y-93294956D01*
X187325366Y-93294958D01*
X187355814Y-93368467D01*
X187369145Y-93397384D01*
X187443716Y-93500023D01*
X187499977Y-93556284D01*
X187523359Y-93577898D01*
X187631533Y-93644186D01*
X187631535Y-93644186D01*
X187631537Y-93644188D01*
X187657305Y-93654861D01*
X187705042Y-93674634D01*
X187734912Y-93685653D01*
X187860218Y-93705500D01*
X187860219Y-93705500D01*
X187958277Y-93705500D01*
X188025316Y-93725185D01*
X188071071Y-93777989D01*
X188081015Y-93847147D01*
X188051990Y-93910703D01*
X188014572Y-93939985D01*
X187870800Y-94013240D01*
X187787935Y-94073446D01*
X187717927Y-94124310D01*
X187717925Y-94124312D01*
X187717924Y-94124312D01*
X187584312Y-94257924D01*
X187584312Y-94257925D01*
X187584310Y-94257927D01*
X187536610Y-94323579D01*
X187473240Y-94410800D01*
X187387454Y-94579163D01*
X187329059Y-94758881D01*
X187299500Y-94945513D01*
X187299500Y-95134486D01*
X187329059Y-95321118D01*
X187387454Y-95500836D01*
X187455358Y-95634103D01*
X187473240Y-95669199D01*
X187584310Y-95822073D01*
X187717927Y-95955690D01*
X187870801Y-96066760D01*
X187883949Y-96073459D01*
X188039163Y-96152545D01*
X188039165Y-96152545D01*
X188039168Y-96152547D01*
X188128734Y-96181649D01*
X188160803Y-96192069D01*
X188218478Y-96231507D01*
X188245676Y-96295866D01*
X188233761Y-96364712D01*
X188186516Y-96416188D01*
X188160803Y-96427931D01*
X188039163Y-96467454D01*
X187870800Y-96553240D01*
X187783579Y-96616610D01*
X187717927Y-96664310D01*
X187717925Y-96664312D01*
X187717924Y-96664312D01*
X187584312Y-96797924D01*
X187584312Y-96797925D01*
X187584310Y-96797927D01*
X187536610Y-96863579D01*
X187473240Y-96950800D01*
X187387454Y-97119163D01*
X187329059Y-97298881D01*
X187299500Y-97485513D01*
X187299500Y-97674486D01*
X187329059Y-97861118D01*
X187387454Y-98040836D01*
X187411838Y-98088691D01*
X187473240Y-98209199D01*
X187584310Y-98362073D01*
X187717927Y-98495690D01*
X187870801Y-98606760D01*
X187878173Y-98610516D01*
X188039163Y-98692545D01*
X188039165Y-98692545D01*
X188039168Y-98692547D01*
X188135497Y-98723846D01*
X188218881Y-98750940D01*
X188405514Y-98780500D01*
X188405519Y-98780500D01*
X188594486Y-98780500D01*
X188781118Y-98750940D01*
X188960832Y-98692547D01*
X189129199Y-98606760D01*
X189282073Y-98495690D01*
X189415690Y-98362073D01*
X189526760Y-98209199D01*
X189612547Y-98040832D01*
X189670940Y-97861118D01*
X189700500Y-97674486D01*
X189700500Y-97485513D01*
X189670940Y-97298881D01*
X189639455Y-97201983D01*
X189612547Y-97119168D01*
X189612545Y-97119165D01*
X189612545Y-97119163D01*
X189526759Y-96950800D01*
X189415690Y-96797927D01*
X189282073Y-96664310D01*
X189129199Y-96553240D01*
X188960836Y-96467454D01*
X188886472Y-96443291D01*
X188839195Y-96427930D01*
X188781521Y-96388493D01*
X188754323Y-96324134D01*
X188766238Y-96255288D01*
X188813482Y-96203812D01*
X188839194Y-96192069D01*
X188960832Y-96152547D01*
X189129199Y-96066760D01*
X189282073Y-95955690D01*
X189415690Y-95822073D01*
X189526760Y-95669199D01*
X189612547Y-95500832D01*
X189670940Y-95321118D01*
X189674599Y-95298016D01*
X189700500Y-95134486D01*
X189700500Y-94945513D01*
X189670940Y-94758881D01*
X189643846Y-94675497D01*
X189612547Y-94579168D01*
X189612545Y-94579165D01*
X189612545Y-94579163D01*
X189567290Y-94490347D01*
X189526760Y-94410801D01*
X189415690Y-94257927D01*
X189282073Y-94124310D01*
X189129199Y-94013240D01*
X188960836Y-93927454D01*
X188850036Y-93891453D01*
X188792361Y-93852015D01*
X188765163Y-93787656D01*
X188777078Y-93718810D01*
X188824322Y-93667334D01*
X188852358Y-93654862D01*
X188888530Y-93643890D01*
X189034121Y-93583584D01*
X189104226Y-93546112D01*
X189235254Y-93458562D01*
X189296702Y-93408133D01*
X189408133Y-93296702D01*
X189458562Y-93235254D01*
X189546112Y-93104226D01*
X189583584Y-93034121D01*
X189643890Y-92888530D01*
X189666966Y-92812459D01*
X189697709Y-92657901D01*
X189705500Y-92578793D01*
X189705500Y-92421207D01*
X189697709Y-92342099D01*
X189666966Y-92187541D01*
X189643890Y-92111470D01*
X189583584Y-91965879D01*
X189546112Y-91895774D01*
X189522355Y-91860219D01*
X189458574Y-91764763D01*
X189458567Y-91764753D01*
X189458562Y-91764746D01*
X189408133Y-91703298D01*
X189408132Y-91703297D01*
X189408128Y-91703292D01*
X189296707Y-91591871D01*
X189235259Y-91541442D01*
X189235236Y-91541425D01*
X189104242Y-91453898D01*
X189104231Y-91453891D01*
X189104226Y-91453888D01*
X189034121Y-91416416D01*
X188888530Y-91356110D01*
X188888531Y-91356110D01*
X188888528Y-91356109D01*
X188852359Y-91345137D01*
X188793920Y-91306839D01*
X188765464Y-91243027D01*
X188776025Y-91173960D01*
X188822250Y-91121567D01*
X188850032Y-91108548D01*
X188960832Y-91072547D01*
X189129199Y-90986760D01*
X189282073Y-90875690D01*
X189415690Y-90742073D01*
X189526760Y-90589199D01*
X189612547Y-90420832D01*
X189670940Y-90241118D01*
X189700500Y-90054486D01*
X189700500Y-89865513D01*
X189670940Y-89678881D01*
X189636683Y-89573452D01*
X189612547Y-89499168D01*
X189612545Y-89499165D01*
X189612545Y-89499163D01*
X189526759Y-89330800D01*
X189415690Y-89177927D01*
X189282073Y-89044310D01*
X189129199Y-88933240D01*
X188960836Y-88847454D01*
X188886472Y-88823291D01*
X188839195Y-88807930D01*
X188781521Y-88768493D01*
X188754323Y-88704134D01*
X188766238Y-88635288D01*
X188813482Y-88583812D01*
X188839194Y-88572069D01*
X188960832Y-88532547D01*
X189129199Y-88446760D01*
X189282073Y-88335690D01*
X189415690Y-88202073D01*
X189526760Y-88049199D01*
X189612547Y-87880832D01*
X189670940Y-87701118D01*
X189691160Y-87573453D01*
X189700500Y-87514486D01*
X189700500Y-87325513D01*
X189670940Y-87138881D01*
X189612545Y-86959163D01*
X189526759Y-86790800D01*
X189415690Y-86637927D01*
X189282073Y-86504310D01*
X189129199Y-86393240D01*
X189101687Y-86379222D01*
X188960836Y-86307454D01*
X188860235Y-86274767D01*
X188839195Y-86267930D01*
X188781521Y-86228493D01*
X188754323Y-86164134D01*
X188766238Y-86095288D01*
X188813482Y-86043812D01*
X188839194Y-86032069D01*
X188960832Y-85992547D01*
X189129199Y-85906760D01*
X189282073Y-85795690D01*
X189415690Y-85662073D01*
X189526760Y-85509199D01*
X189612547Y-85340832D01*
X189670940Y-85161118D01*
X189684825Y-85073452D01*
X189700500Y-84974486D01*
X189700500Y-84785513D01*
X189670940Y-84598881D01*
X189643846Y-84515497D01*
X189612547Y-84419168D01*
X189612545Y-84419165D01*
X189612545Y-84419163D01*
X189552101Y-84300536D01*
X189526760Y-84250801D01*
X189415690Y-84097927D01*
X189282073Y-83964310D01*
X189129199Y-83853240D01*
X188960836Y-83767454D01*
X188886472Y-83743291D01*
X188839195Y-83727930D01*
X188781521Y-83688493D01*
X188754323Y-83624134D01*
X188766238Y-83555288D01*
X188813482Y-83503812D01*
X188839194Y-83492069D01*
X188960832Y-83452547D01*
X189129199Y-83366760D01*
X189282073Y-83255690D01*
X189415690Y-83122073D01*
X189526760Y-82969199D01*
X189612547Y-82800832D01*
X189670940Y-82621118D01*
X189700500Y-82434486D01*
X189700500Y-82245513D01*
X189670940Y-82058881D01*
X189612545Y-81879163D01*
X189526759Y-81710800D01*
X189415690Y-81557927D01*
X189282073Y-81424310D01*
X189129199Y-81313240D01*
X188960836Y-81227454D01*
X188850036Y-81191453D01*
X188792361Y-81152015D01*
X188765163Y-81087656D01*
X188777078Y-81018810D01*
X188824322Y-80967334D01*
X188852358Y-80954862D01*
X188888530Y-80943890D01*
X189034121Y-80883584D01*
X189104226Y-80846112D01*
X189235254Y-80758562D01*
X189296702Y-80708133D01*
X189408133Y-80596702D01*
X189458562Y-80535254D01*
X189546112Y-80404226D01*
X189583584Y-80334121D01*
X189643890Y-80188530D01*
X189666966Y-80112459D01*
X189697709Y-79957901D01*
X189705500Y-79878793D01*
X189705500Y-79721207D01*
X189697709Y-79642099D01*
X189666966Y-79487541D01*
X189643890Y-79411470D01*
X189643823Y-79411309D01*
X189597939Y-79300535D01*
X189583584Y-79265879D01*
X189546112Y-79195774D01*
X189522355Y-79160219D01*
X189458574Y-79064763D01*
X189458567Y-79064753D01*
X189458562Y-79064746D01*
X189408133Y-79003298D01*
X189408132Y-79003297D01*
X189408128Y-79003292D01*
X189296707Y-78891871D01*
X189235259Y-78841442D01*
X189235236Y-78841425D01*
X189104242Y-78753898D01*
X189104231Y-78753891D01*
X189104226Y-78753888D01*
X189034121Y-78716416D01*
X188995697Y-78700500D01*
X188888528Y-78656109D01*
X188852359Y-78645137D01*
X188793920Y-78606839D01*
X188765464Y-78543027D01*
X188776025Y-78473960D01*
X188822250Y-78421567D01*
X188850032Y-78408548D01*
X188960832Y-78372547D01*
X189129199Y-78286760D01*
X189282073Y-78175690D01*
X189415690Y-78042073D01*
X189526760Y-77889199D01*
X189612547Y-77720832D01*
X189670940Y-77541118D01*
X189700500Y-77354486D01*
X189700500Y-77165513D01*
X189670940Y-76978881D01*
X189612545Y-76799163D01*
X189526759Y-76630800D01*
X189415690Y-76477927D01*
X189282073Y-76344310D01*
X189129199Y-76233240D01*
X189062910Y-76199464D01*
X188960836Y-76147454D01*
X188886472Y-76123291D01*
X188839195Y-76107930D01*
X188781521Y-76068493D01*
X188754323Y-76004134D01*
X188766238Y-75935288D01*
X188813482Y-75883812D01*
X188839194Y-75872069D01*
X188960832Y-75832547D01*
X189129199Y-75746760D01*
X189282073Y-75635690D01*
X189415690Y-75502073D01*
X189526760Y-75349199D01*
X189612547Y-75180832D01*
X189670940Y-75001118D01*
X189677644Y-74958790D01*
X189700500Y-74814486D01*
X189700500Y-74625513D01*
X189670940Y-74438881D01*
X189612545Y-74259163D01*
X189526759Y-74090800D01*
X189415690Y-73937927D01*
X189282073Y-73804310D01*
X189129199Y-73693240D01*
X188960836Y-73607454D01*
X188842468Y-73568994D01*
X188839195Y-73567930D01*
X188781521Y-73528493D01*
X188754323Y-73464134D01*
X188766238Y-73395288D01*
X188813482Y-73343812D01*
X188839194Y-73332069D01*
X188960832Y-73292547D01*
X189129199Y-73206760D01*
X189282073Y-73095690D01*
X189415690Y-72962073D01*
X189526760Y-72809199D01*
X189612547Y-72640832D01*
X189670940Y-72461118D01*
X189700500Y-72274486D01*
X189700500Y-72085513D01*
X189670940Y-71898881D01*
X189612545Y-71719163D01*
X189526759Y-71550800D01*
X189415690Y-71397927D01*
X189282073Y-71264310D01*
X189129199Y-71153240D01*
X188960836Y-71067454D01*
X188886472Y-71043291D01*
X188839195Y-71027930D01*
X188781521Y-70988493D01*
X188754323Y-70924134D01*
X188766238Y-70855288D01*
X188813482Y-70803812D01*
X188839194Y-70792069D01*
X188960832Y-70752547D01*
X189129199Y-70666760D01*
X189282073Y-70555690D01*
X189415690Y-70422073D01*
X189526760Y-70269199D01*
X189612547Y-70100832D01*
X189670940Y-69921118D01*
X189700500Y-69734486D01*
X189700500Y-69545513D01*
X189670940Y-69358881D01*
X189612545Y-69179163D01*
X189526759Y-69010800D01*
X189415690Y-68857927D01*
X189282073Y-68724310D01*
X189129199Y-68613240D01*
X188960836Y-68527454D01*
X188850036Y-68491453D01*
X188792361Y-68452015D01*
X188765163Y-68387656D01*
X188777078Y-68318810D01*
X188824322Y-68267334D01*
X188852358Y-68254862D01*
X188888530Y-68243890D01*
X189034121Y-68183584D01*
X189104226Y-68146112D01*
X189235254Y-68058562D01*
X189296702Y-68008133D01*
X189408133Y-67896702D01*
X189458562Y-67835254D01*
X189546112Y-67704226D01*
X189583584Y-67634121D01*
X189643890Y-67488530D01*
X189666966Y-67412459D01*
X189697709Y-67257901D01*
X189705500Y-67178793D01*
X189705500Y-67021207D01*
X189697709Y-66942099D01*
X189666966Y-66787541D01*
X189643890Y-66711470D01*
X189583584Y-66565879D01*
X189546112Y-66495774D01*
X189522355Y-66460219D01*
X189458574Y-66364763D01*
X189458567Y-66364753D01*
X189458562Y-66364746D01*
X189408133Y-66303298D01*
X189408132Y-66303297D01*
X189408128Y-66303292D01*
X189296707Y-66191871D01*
X189235259Y-66141442D01*
X189235236Y-66141425D01*
X189104242Y-66053898D01*
X189104231Y-66053891D01*
X189104226Y-66053888D01*
X189034121Y-66016416D01*
X188888530Y-65956110D01*
X188888531Y-65956110D01*
X188888528Y-65956109D01*
X188852359Y-65945137D01*
X188793920Y-65906839D01*
X188765464Y-65843027D01*
X188776025Y-65773960D01*
X188822250Y-65721567D01*
X188850032Y-65708548D01*
X188960832Y-65672547D01*
X189129199Y-65586760D01*
X189282073Y-65475690D01*
X189415690Y-65342073D01*
X189526760Y-65189199D01*
X189612547Y-65020832D01*
X189670940Y-64841118D01*
X189700500Y-64654486D01*
X189700500Y-64465513D01*
X189670940Y-64278881D01*
X189612545Y-64099163D01*
X189526759Y-63930800D01*
X189523246Y-63925965D01*
X189415690Y-63777927D01*
X189282073Y-63644310D01*
X189129199Y-63533240D01*
X188960836Y-63447454D01*
X188886472Y-63423291D01*
X188839195Y-63407930D01*
X188781521Y-63368493D01*
X188754323Y-63304134D01*
X188766238Y-63235288D01*
X188813482Y-63183812D01*
X188839194Y-63172069D01*
X188960832Y-63132547D01*
X189129199Y-63046760D01*
X189282073Y-62935690D01*
X189415690Y-62802073D01*
X189526760Y-62649199D01*
X189612547Y-62480832D01*
X189670940Y-62301118D01*
X189700500Y-62114486D01*
X189700500Y-61925513D01*
X189670940Y-61738881D01*
X189615740Y-61568996D01*
X189612547Y-61559168D01*
X189612545Y-61559165D01*
X189612545Y-61559163D01*
X189547244Y-61431004D01*
X189526760Y-61390801D01*
X189415690Y-61237927D01*
X189282073Y-61104310D01*
X189129199Y-60993240D01*
X188960836Y-60907454D01*
X188886472Y-60883291D01*
X188839195Y-60867930D01*
X188781521Y-60828493D01*
X188754323Y-60764134D01*
X188766238Y-60695288D01*
X188813482Y-60643812D01*
X188839194Y-60632069D01*
X188960832Y-60592547D01*
X189129199Y-60506760D01*
X189282073Y-60395690D01*
X189415690Y-60262073D01*
X189526760Y-60109199D01*
X189612547Y-59940832D01*
X189670940Y-59761118D01*
X189680305Y-59701990D01*
X189700500Y-59574486D01*
X189700500Y-59385513D01*
X189670940Y-59198881D01*
X189612545Y-59019163D01*
X189565056Y-58925961D01*
X189526760Y-58850801D01*
X189415690Y-58697927D01*
X189282073Y-58564310D01*
X189129199Y-58453240D01*
X188960836Y-58367454D01*
X188886472Y-58343291D01*
X188839195Y-58327930D01*
X188781521Y-58288493D01*
X188754323Y-58224134D01*
X188766238Y-58155288D01*
X188813482Y-58103812D01*
X188839194Y-58092069D01*
X188960832Y-58052547D01*
X189129199Y-57966760D01*
X189282073Y-57855690D01*
X189415690Y-57722073D01*
X189526760Y-57569199D01*
X189612547Y-57400832D01*
X189670940Y-57221118D01*
X189700500Y-57034486D01*
X189700500Y-56845513D01*
X189670940Y-56658881D01*
X189640847Y-56566267D01*
X189612547Y-56479168D01*
X189612545Y-56479165D01*
X189612545Y-56479163D01*
X189526759Y-56310800D01*
X189415690Y-56157927D01*
X189282073Y-56024310D01*
X189129199Y-55913240D01*
X189126082Y-55911652D01*
X188960836Y-55827454D01*
X188850036Y-55791453D01*
X188792361Y-55752015D01*
X188765163Y-55687656D01*
X188777078Y-55618810D01*
X188824322Y-55567334D01*
X188852358Y-55554862D01*
X188888530Y-55543890D01*
X189034121Y-55483584D01*
X189104226Y-55446112D01*
X189235254Y-55358562D01*
X189296702Y-55308133D01*
X189408133Y-55196702D01*
X189458562Y-55135254D01*
X189546112Y-55004226D01*
X189583584Y-54934121D01*
X189643890Y-54788530D01*
X189666966Y-54712459D01*
X189697709Y-54557901D01*
X189705500Y-54478793D01*
X189705500Y-54321207D01*
X189697709Y-54242099D01*
X189666966Y-54087541D01*
X189643890Y-54011470D01*
X189583584Y-53865879D01*
X189546112Y-53795774D01*
X189546101Y-53795757D01*
X189458574Y-53664763D01*
X189458567Y-53664753D01*
X189458562Y-53664746D01*
X189408133Y-53603298D01*
X189408132Y-53603297D01*
X189408128Y-53603292D01*
X189296707Y-53491871D01*
X189235259Y-53441442D01*
X189235236Y-53441425D01*
X189104242Y-53353898D01*
X189104231Y-53353891D01*
X189104226Y-53353888D01*
X189034121Y-53316416D01*
X188888530Y-53256110D01*
X188888531Y-53256110D01*
X188888528Y-53256109D01*
X188852359Y-53245137D01*
X188793920Y-53206839D01*
X188765464Y-53143027D01*
X188776025Y-53073960D01*
X188822250Y-53021567D01*
X188850032Y-53008548D01*
X188960832Y-52972547D01*
X189129199Y-52886760D01*
X189282073Y-52775690D01*
X189415690Y-52642073D01*
X189526760Y-52489199D01*
X189612547Y-52320832D01*
X189670940Y-52141118D01*
X189675136Y-52114624D01*
X189700500Y-51954486D01*
X189700500Y-51765513D01*
X189670940Y-51578881D01*
X189643846Y-51495497D01*
X189612547Y-51399168D01*
X189612545Y-51399165D01*
X189612545Y-51399163D01*
X189549856Y-51276130D01*
X189526760Y-51230801D01*
X189415690Y-51077927D01*
X189282073Y-50944310D01*
X189129199Y-50833240D01*
X189129191Y-50833236D01*
X188975559Y-50754956D01*
X188924763Y-50706981D01*
X188907968Y-50639160D01*
X188930506Y-50573025D01*
X188985221Y-50529574D01*
X188993544Y-50526537D01*
X188999033Y-50524753D01*
X189181349Y-50431859D01*
X189225921Y-50399474D01*
X188629409Y-49802962D01*
X188692993Y-49785925D01*
X188807007Y-49720099D01*
X188900099Y-49627007D01*
X188965925Y-49512993D01*
X188982962Y-49449409D01*
X189579474Y-50045921D01*
X189611859Y-50001349D01*
X189704129Y-49820259D01*
X191299500Y-49820259D01*
X191299500Y-50179740D01*
X191339746Y-50536935D01*
X191339748Y-50536951D01*
X191419737Y-50887407D01*
X191419741Y-50887419D01*
X191538465Y-51226711D01*
X191694432Y-51550579D01*
X191694434Y-51550582D01*
X191885685Y-51854956D01*
X192109812Y-52136003D01*
X192363997Y-52390188D01*
X192645044Y-52614315D01*
X192949418Y-52805566D01*
X193273292Y-52961536D01*
X193471638Y-53030940D01*
X193612580Y-53080258D01*
X193612592Y-53080262D01*
X193963052Y-53160252D01*
X194320260Y-53200499D01*
X194320261Y-53200500D01*
X194320264Y-53200500D01*
X194679739Y-53200500D01*
X194679739Y-53200499D01*
X195036948Y-53160252D01*
X195387408Y-53080262D01*
X195726708Y-52961536D01*
X196050582Y-52805566D01*
X196354956Y-52614315D01*
X196636003Y-52390188D01*
X196890188Y-52136003D01*
X197114315Y-51854956D01*
X197305566Y-51550582D01*
X197461536Y-51226708D01*
X197580262Y-50887408D01*
X197660252Y-50536948D01*
X197700500Y-50179736D01*
X197700500Y-49820264D01*
X197660252Y-49463052D01*
X197580262Y-49112592D01*
X197461536Y-48773292D01*
X197305566Y-48449418D01*
X197114315Y-48145044D01*
X196890188Y-47863997D01*
X196636003Y-47609812D01*
X196354956Y-47385685D01*
X196074561Y-47209501D01*
X196050579Y-47194432D01*
X195726711Y-47038465D01*
X195387419Y-46919741D01*
X195387407Y-46919737D01*
X195036951Y-46839748D01*
X195036935Y-46839746D01*
X194679740Y-46799500D01*
X194679736Y-46799500D01*
X194320264Y-46799500D01*
X194320259Y-46799500D01*
X193963064Y-46839746D01*
X193963048Y-46839748D01*
X193612592Y-46919737D01*
X193612580Y-46919741D01*
X193273288Y-47038465D01*
X192949420Y-47194432D01*
X192645045Y-47385684D01*
X192363997Y-47609811D01*
X192109811Y-47863997D01*
X191885684Y-48145045D01*
X191694432Y-48449420D01*
X191538465Y-48773288D01*
X191419741Y-49112580D01*
X191419737Y-49112592D01*
X191339748Y-49463048D01*
X191339746Y-49463064D01*
X191299500Y-49820259D01*
X189704129Y-49820259D01*
X189704755Y-49819031D01*
X189717936Y-49778466D01*
X189767990Y-49624417D01*
X189800000Y-49422317D01*
X189800000Y-49217682D01*
X189767990Y-49015582D01*
X189704755Y-48820968D01*
X189611859Y-48638650D01*
X189579474Y-48594077D01*
X189579474Y-48594076D01*
X188982962Y-49190589D01*
X188965925Y-49127007D01*
X188900099Y-49012993D01*
X188807007Y-48919901D01*
X188692993Y-48854075D01*
X188629408Y-48837037D01*
X189225922Y-48240524D01*
X189225921Y-48240523D01*
X189181359Y-48208147D01*
X189181350Y-48208141D01*
X188999031Y-48115244D01*
X188804417Y-48052009D01*
X188602317Y-48020000D01*
X188397683Y-48020000D01*
X188195582Y-48052009D01*
X188000968Y-48115244D01*
X187818644Y-48208143D01*
X187774077Y-48240523D01*
X187774077Y-48240524D01*
X188370591Y-48837037D01*
X188307007Y-48854075D01*
X188192993Y-48919901D01*
X188099901Y-49012993D01*
X188034075Y-49127007D01*
X188017037Y-49190590D01*
X187420524Y-48594077D01*
X187420523Y-48594077D01*
X187388143Y-48638644D01*
X187295244Y-48820968D01*
X187232009Y-49015582D01*
X187200000Y-49217682D01*
X171920499Y-49217682D01*
X171920499Y-48680640D01*
X171920499Y-48680639D01*
X171920499Y-48680636D01*
X171905046Y-48563246D01*
X171905044Y-48563239D01*
X171905044Y-48563238D01*
X171844536Y-48417159D01*
X171844535Y-48417158D01*
X171844535Y-48417157D01*
X171803187Y-48363272D01*
X171748282Y-48291718D01*
X171622841Y-48195464D01*
X171476762Y-48134956D01*
X171476760Y-48134955D01*
X171359370Y-48119501D01*
X171359367Y-48119500D01*
X171359361Y-48119500D01*
X171359354Y-48119500D01*
X170080636Y-48119500D01*
X169963246Y-48134953D01*
X169963237Y-48134956D01*
X169817160Y-48195463D01*
X169691718Y-48291718D01*
X169595463Y-48417160D01*
X169534956Y-48563237D01*
X169534955Y-48563239D01*
X169519501Y-48680629D01*
X169519501Y-48680636D01*
X169519500Y-48680645D01*
X169519500Y-49959363D01*
X169534953Y-50076753D01*
X169534956Y-50076762D01*
X169579935Y-50185352D01*
X169595464Y-50222841D01*
X169691718Y-50348282D01*
X169817159Y-50444536D01*
X169963238Y-50505044D01*
X170080639Y-50520500D01*
X170188092Y-50520499D01*
X170255129Y-50540183D01*
X170300884Y-50592987D01*
X170310828Y-50662145D01*
X170281804Y-50725701D01*
X170244385Y-50754983D01*
X170090805Y-50833236D01*
X170016230Y-50887419D01*
X169937927Y-50944310D01*
X169937925Y-50944312D01*
X169937924Y-50944312D01*
X169804312Y-51077924D01*
X169804312Y-51077925D01*
X169804310Y-51077927D01*
X169756610Y-51143579D01*
X169693240Y-51230800D01*
X169607454Y-51399163D01*
X169549059Y-51578881D01*
X169519500Y-51765513D01*
X169519500Y-51954486D01*
X169549059Y-52141118D01*
X169607454Y-52320836D01*
X169663318Y-52430474D01*
X169693240Y-52489199D01*
X169804310Y-52642073D01*
X169937927Y-52775690D01*
X170090801Y-52886760D01*
X170259168Y-52972547D01*
X170369963Y-53008546D01*
X170427638Y-53047984D01*
X170454836Y-53112342D01*
X170442921Y-53181189D01*
X170395677Y-53232664D01*
X170367641Y-53245137D01*
X170331468Y-53256110D01*
X170185878Y-53316416D01*
X170115777Y-53353886D01*
X170115757Y-53353898D01*
X169984763Y-53441425D01*
X169984740Y-53441442D01*
X169923292Y-53491871D01*
X169811871Y-53603292D01*
X169761442Y-53664740D01*
X169761425Y-53664763D01*
X169673898Y-53795757D01*
X169673886Y-53795777D01*
X169636416Y-53865878D01*
X169576111Y-54011464D01*
X169553032Y-54087548D01*
X169522289Y-54242108D01*
X169522289Y-54242113D01*
X169514500Y-54321208D01*
X165947266Y-54321208D01*
X165953828Y-54314646D01*
X166069524Y-54155405D01*
X166158884Y-53980025D01*
X166219709Y-53792826D01*
X166250500Y-53598422D01*
X166250500Y-53401577D01*
X166219709Y-53207173D01*
X166188896Y-53112342D01*
X166158884Y-53019975D01*
X166158882Y-53019972D01*
X166158882Y-53019970D01*
X166069523Y-52844594D01*
X166041168Y-52805567D01*
X165953828Y-52685354D01*
X165814646Y-52546172D01*
X165655405Y-52430476D01*
X165588370Y-52396320D01*
X165537574Y-52348345D01*
X165520779Y-52280524D01*
X165543316Y-52214389D01*
X165588370Y-52175350D01*
X165707554Y-52114622D01*
X165761716Y-52075270D01*
X165761717Y-52075270D01*
X165129408Y-51442962D01*
X165192993Y-51425925D01*
X165307007Y-51360099D01*
X165400099Y-51267007D01*
X165465925Y-51152993D01*
X165482962Y-51089408D01*
X166115270Y-51721717D01*
X166115270Y-51721716D01*
X166154622Y-51667554D01*
X166251095Y-51478217D01*
X166316757Y-51276130D01*
X166316757Y-51276127D01*
X166350000Y-51066246D01*
X166350000Y-50853753D01*
X166316757Y-50643872D01*
X166316757Y-50643869D01*
X166251095Y-50441782D01*
X166154624Y-50252449D01*
X166115270Y-50198282D01*
X166115269Y-50198282D01*
X165482962Y-50830590D01*
X165465925Y-50767007D01*
X165400099Y-50652993D01*
X165307007Y-50559901D01*
X165192993Y-50494075D01*
X165129409Y-50477037D01*
X165761716Y-49844728D01*
X165758529Y-49804229D01*
X165772893Y-49735851D01*
X165821944Y-49686094D01*
X165876746Y-49671897D01*
X165876667Y-49670881D01*
X165881510Y-49670499D01*
X165881518Y-49670499D01*
X165975304Y-49655646D01*
X166088342Y-49598050D01*
X166178050Y-49508342D01*
X166235646Y-49395304D01*
X166235646Y-49395302D01*
X166235647Y-49395301D01*
X166250499Y-49301524D01*
X166250500Y-49301519D01*
X166250499Y-47538482D01*
X166235646Y-47444696D01*
X166178050Y-47331658D01*
X166178046Y-47331654D01*
X166178045Y-47331652D01*
X166088347Y-47241954D01*
X166088344Y-47241952D01*
X166088342Y-47241950D01*
X165995087Y-47194434D01*
X165975301Y-47184352D01*
X165881524Y-47169500D01*
X164118482Y-47169500D01*
X164037519Y-47182323D01*
X164024696Y-47184354D01*
X163911658Y-47241950D01*
X163911657Y-47241951D01*
X163911652Y-47241954D01*
X163821954Y-47331652D01*
X163821951Y-47331657D01*
X163764352Y-47444698D01*
X163749500Y-47538475D01*
X163749500Y-49301517D01*
X163760292Y-49369657D01*
X163764354Y-49395304D01*
X163821950Y-49508342D01*
X163821952Y-49508344D01*
X163821954Y-49508347D01*
X163911652Y-49598045D01*
X163911654Y-49598046D01*
X163911658Y-49598050D01*
X164024694Y-49655645D01*
X164024698Y-49655647D01*
X164118477Y-49670500D01*
X164123331Y-49670882D01*
X164123236Y-49672087D01*
X164184867Y-49690168D01*
X164230634Y-49742961D01*
X164241470Y-49804229D01*
X164238282Y-49844728D01*
X164870591Y-50477037D01*
X164807007Y-50494075D01*
X164692993Y-50559901D01*
X164599901Y-50652993D01*
X164534075Y-50767007D01*
X164517037Y-50830591D01*
X163884728Y-50198282D01*
X163884727Y-50198282D01*
X163845380Y-50252439D01*
X163748904Y-50441782D01*
X163683242Y-50643869D01*
X163683242Y-50643872D01*
X163650000Y-50853753D01*
X162242925Y-50853753D01*
X162219709Y-50707173D01*
X162182607Y-50592987D01*
X162158884Y-50519975D01*
X162158882Y-50519972D01*
X162158882Y-50519970D01*
X162097486Y-50399474D01*
X162069524Y-50344595D01*
X161953828Y-50185354D01*
X161814646Y-50046172D01*
X161661377Y-49934815D01*
X161618714Y-49879487D01*
X161612735Y-49809873D01*
X161645341Y-49748078D01*
X161706180Y-49713721D01*
X161734264Y-49710499D01*
X161881518Y-49710499D01*
X161975304Y-49695646D01*
X162088342Y-49638050D01*
X162178050Y-49548342D01*
X162235646Y-49435304D01*
X162235646Y-49435302D01*
X162235647Y-49435301D01*
X162250499Y-49341524D01*
X162250500Y-49341519D01*
X162250499Y-47578482D01*
X162250499Y-47578481D01*
X162250499Y-47578476D01*
X162246465Y-47553010D01*
X162246464Y-47553005D01*
X162244163Y-47538475D01*
X162235646Y-47484696D01*
X162178050Y-47371658D01*
X162178046Y-47371654D01*
X162178045Y-47371652D01*
X162088347Y-47281954D01*
X162088344Y-47281952D01*
X162088342Y-47281950D01*
X162009838Y-47241950D01*
X161975301Y-47224352D01*
X161881524Y-47209500D01*
X160118482Y-47209500D01*
X160037519Y-47222323D01*
X160024696Y-47224354D01*
X159911658Y-47281950D01*
X159911657Y-47281951D01*
X159911652Y-47281954D01*
X159821954Y-47371652D01*
X159821951Y-47371657D01*
X159821950Y-47371658D01*
X159814803Y-47385685D01*
X159764352Y-47484698D01*
X159749500Y-47578475D01*
X159749500Y-49341517D01*
X159756518Y-49385826D01*
X159764354Y-49435304D01*
X159821950Y-49548342D01*
X159821952Y-49548344D01*
X159821954Y-49548347D01*
X159911652Y-49638045D01*
X159911654Y-49638046D01*
X159911658Y-49638050D01*
X160013945Y-49690168D01*
X160024698Y-49695647D01*
X160118475Y-49710499D01*
X160118481Y-49710500D01*
X160265735Y-49710499D01*
X160332772Y-49730183D01*
X160378527Y-49782987D01*
X160388471Y-49852145D01*
X160359446Y-49915701D01*
X160338619Y-49934816D01*
X160185360Y-50046167D01*
X160185351Y-50046174D01*
X160046174Y-50185351D01*
X160046174Y-50185352D01*
X160046172Y-50185354D01*
X160018936Y-50222841D01*
X159930476Y-50344594D01*
X159841117Y-50519970D01*
X159780290Y-50707173D01*
X159749500Y-50901577D01*
X159749500Y-51098422D01*
X159780290Y-51292826D01*
X159841117Y-51480029D01*
X159930476Y-51655405D01*
X160046172Y-51814646D01*
X160185354Y-51953828D01*
X160344595Y-52069524D01*
X160467992Y-52132397D01*
X160521213Y-52159515D01*
X160572009Y-52207489D01*
X160588804Y-52275310D01*
X160566267Y-52341445D01*
X160521213Y-52380485D01*
X160344594Y-52470476D01*
X160253741Y-52536485D01*
X160185354Y-52586172D01*
X160185352Y-52586174D01*
X160185351Y-52586174D01*
X160046174Y-52725351D01*
X160046174Y-52725352D01*
X160046172Y-52725354D01*
X160009603Y-52775687D01*
X159930476Y-52884594D01*
X159841117Y-53059970D01*
X159780290Y-53247173D01*
X159749500Y-53441577D01*
X159749500Y-53638422D01*
X159780290Y-53832826D01*
X159841117Y-54020029D01*
X159875520Y-54087548D01*
X159930476Y-54195405D01*
X160046172Y-54354646D01*
X160185354Y-54493828D01*
X160344595Y-54609524D01*
X160467992Y-54672397D01*
X160521213Y-54699515D01*
X160572009Y-54747489D01*
X160588804Y-54815310D01*
X160566267Y-54881445D01*
X160521213Y-54920485D01*
X160344594Y-55010476D01*
X160260478Y-55071591D01*
X160185354Y-55126172D01*
X160185352Y-55126174D01*
X160185351Y-55126174D01*
X160046174Y-55265351D01*
X160046174Y-55265352D01*
X160046172Y-55265354D01*
X160022901Y-55297384D01*
X159930476Y-55424594D01*
X159841117Y-55599970D01*
X159788961Y-55760487D01*
X159749522Y-55818162D01*
X159685163Y-55845360D01*
X159616317Y-55833445D01*
X159583349Y-55809849D01*
X159574038Y-55800538D01*
X159574034Y-55800535D01*
X159426553Y-55701990D01*
X159426540Y-55701983D01*
X159262667Y-55634106D01*
X159262658Y-55634103D01*
X159088694Y-55599500D01*
X159088691Y-55599500D01*
X158911309Y-55599500D01*
X158911306Y-55599500D01*
X158737341Y-55634103D01*
X158737332Y-55634106D01*
X158573459Y-55701983D01*
X158573446Y-55701990D01*
X158425965Y-55800535D01*
X158425961Y-55800538D01*
X158300538Y-55925961D01*
X158300535Y-55925965D01*
X158201990Y-56073446D01*
X158201983Y-56073459D01*
X158134103Y-56237338D01*
X158133488Y-56239368D01*
X158132760Y-56240581D01*
X158131775Y-56242961D01*
X158131421Y-56242814D01*
X158102513Y-56291039D01*
X157522962Y-56870590D01*
X157505925Y-56807007D01*
X157440099Y-56692993D01*
X157347007Y-56599901D01*
X157232993Y-56534075D01*
X157169409Y-56517037D01*
X157801716Y-55884728D01*
X157747550Y-55845375D01*
X157558217Y-55748904D01*
X157356129Y-55683242D01*
X157146246Y-55650000D01*
X156933754Y-55650000D01*
X156723872Y-55683242D01*
X156723869Y-55683242D01*
X156521782Y-55748904D01*
X156332439Y-55845380D01*
X156278282Y-55884727D01*
X156278282Y-55884728D01*
X156910591Y-56517037D01*
X156847007Y-56534075D01*
X156732993Y-56599901D01*
X156639901Y-56692993D01*
X156574075Y-56807007D01*
X156557037Y-56870591D01*
X155924728Y-56238282D01*
X155924727Y-56238282D01*
X155885380Y-56292440D01*
X155885378Y-56292443D01*
X155824648Y-56411630D01*
X155776673Y-56462426D01*
X155708852Y-56479220D01*
X155642717Y-56456682D01*
X155603679Y-56411628D01*
X155569525Y-56344596D01*
X155530613Y-56291039D01*
X155453828Y-56185354D01*
X155314646Y-56046172D01*
X155155405Y-55930476D01*
X155146544Y-55925961D01*
X154980029Y-55841117D01*
X154792826Y-55780290D01*
X154598422Y-55749500D01*
X154598417Y-55749500D01*
X154401583Y-55749500D01*
X154401578Y-55749500D01*
X154207173Y-55780290D01*
X154019970Y-55841117D01*
X153844594Y-55930476D01*
X153753741Y-55996485D01*
X153685354Y-56046172D01*
X153685352Y-56046174D01*
X153685351Y-56046174D01*
X153546174Y-56185351D01*
X153546174Y-56185352D01*
X153546172Y-56185354D01*
X153508406Y-56237334D01*
X153430476Y-56344594D01*
X153340485Y-56521213D01*
X153292511Y-56572009D01*
X153224690Y-56588804D01*
X153158555Y-56566267D01*
X153119515Y-56521213D01*
X153092397Y-56467992D01*
X153029524Y-56344595D01*
X152913828Y-56185354D01*
X152774646Y-56046172D01*
X152615405Y-55930476D01*
X152606544Y-55925961D01*
X152440029Y-55841117D01*
X152252826Y-55780290D01*
X152058422Y-55749500D01*
X152058417Y-55749500D01*
X151861583Y-55749500D01*
X151861578Y-55749500D01*
X151667173Y-55780290D01*
X151479970Y-55841117D01*
X151304594Y-55930476D01*
X151213741Y-55996485D01*
X151145354Y-56046172D01*
X151145352Y-56046174D01*
X151145351Y-56046174D01*
X151006174Y-56185351D01*
X151006174Y-56185352D01*
X151006172Y-56185354D01*
X150968406Y-56237334D01*
X150890476Y-56344594D01*
X150800485Y-56521213D01*
X150752511Y-56572009D01*
X150684690Y-56588804D01*
X150618555Y-56566267D01*
X150579515Y-56521213D01*
X150552397Y-56467992D01*
X150489524Y-56344595D01*
X150373828Y-56185354D01*
X150234646Y-56046172D01*
X150075405Y-55930476D01*
X150066544Y-55925961D01*
X149900029Y-55841117D01*
X149712826Y-55780290D01*
X149518422Y-55749500D01*
X149518417Y-55749500D01*
X149321583Y-55749500D01*
X149321578Y-55749500D01*
X149127173Y-55780290D01*
X148939970Y-55841117D01*
X148764594Y-55930476D01*
X148673741Y-55996485D01*
X148605354Y-56046172D01*
X148605352Y-56046174D01*
X148605351Y-56046174D01*
X148466174Y-56185351D01*
X148466174Y-56185352D01*
X148466172Y-56185354D01*
X148428406Y-56237334D01*
X148350476Y-56344594D01*
X148260485Y-56521213D01*
X148212511Y-56572009D01*
X148144690Y-56588804D01*
X148078555Y-56566267D01*
X148039515Y-56521213D01*
X148012397Y-56467992D01*
X147949524Y-56344595D01*
X147833828Y-56185354D01*
X147694646Y-56046172D01*
X147535405Y-55930476D01*
X147526544Y-55925961D01*
X147360029Y-55841117D01*
X147172826Y-55780290D01*
X146978422Y-55749500D01*
X146978417Y-55749500D01*
X146781583Y-55749500D01*
X146781578Y-55749500D01*
X146587173Y-55780290D01*
X146399970Y-55841117D01*
X146224594Y-55930476D01*
X146133741Y-55996485D01*
X146065354Y-56046172D01*
X146065352Y-56046174D01*
X146065351Y-56046174D01*
X145926174Y-56185351D01*
X145926174Y-56185352D01*
X145926172Y-56185354D01*
X145888406Y-56237334D01*
X145810476Y-56344594D01*
X145720485Y-56521213D01*
X145672511Y-56572009D01*
X145604690Y-56588804D01*
X145538555Y-56566267D01*
X145499515Y-56521213D01*
X145472397Y-56467992D01*
X145409524Y-56344595D01*
X145293828Y-56185354D01*
X145154646Y-56046172D01*
X144995405Y-55930476D01*
X144986544Y-55925961D01*
X144820029Y-55841117D01*
X144632826Y-55780290D01*
X144438422Y-55749500D01*
X144438417Y-55749500D01*
X144241583Y-55749500D01*
X144241578Y-55749500D01*
X144047173Y-55780290D01*
X143859970Y-55841117D01*
X143684594Y-55930476D01*
X143593741Y-55996485D01*
X143525354Y-56046172D01*
X143525352Y-56046174D01*
X143525351Y-56046174D01*
X143386174Y-56185351D01*
X143386174Y-56185352D01*
X143386172Y-56185354D01*
X143348406Y-56237334D01*
X143270476Y-56344594D01*
X143180485Y-56521213D01*
X143132511Y-56572009D01*
X143064690Y-56588804D01*
X142998555Y-56566267D01*
X142959515Y-56521213D01*
X142932397Y-56467992D01*
X142869524Y-56344595D01*
X142753828Y-56185354D01*
X142614646Y-56046172D01*
X142455405Y-55930476D01*
X142446544Y-55925961D01*
X142280029Y-55841117D01*
X142092826Y-55780290D01*
X141898422Y-55749500D01*
X141898417Y-55749500D01*
X141701583Y-55749500D01*
X141701578Y-55749500D01*
X141507173Y-55780290D01*
X141319970Y-55841117D01*
X141144594Y-55930476D01*
X141053741Y-55996485D01*
X140985354Y-56046172D01*
X140985352Y-56046174D01*
X140985351Y-56046174D01*
X140846173Y-56185352D01*
X140734817Y-56338620D01*
X140679486Y-56381285D01*
X140609873Y-56387264D01*
X140548078Y-56354658D01*
X140513721Y-56293819D01*
X140510499Y-56265734D01*
X140510499Y-56118482D01*
X140509610Y-56112866D01*
X140495646Y-56024696D01*
X140438050Y-55911658D01*
X140438046Y-55911654D01*
X140438045Y-55911652D01*
X140348347Y-55821954D01*
X140348344Y-55821952D01*
X140348342Y-55821950D01*
X140262932Y-55778431D01*
X140235301Y-55764352D01*
X140141524Y-55749500D01*
X138378482Y-55749500D01*
X138297519Y-55762323D01*
X138284696Y-55764354D01*
X138171658Y-55821950D01*
X138171657Y-55821951D01*
X138171652Y-55821954D01*
X138081954Y-55911652D01*
X138081951Y-55911657D01*
X138081950Y-55911658D01*
X138066702Y-55941583D01*
X138024352Y-56024698D01*
X138009500Y-56118475D01*
X136574140Y-56118475D01*
X136574174Y-56112867D01*
X136574174Y-56112866D01*
X136630995Y-46623757D01*
X136651081Y-46556837D01*
X136704158Y-46511399D01*
X136754993Y-46500500D01*
X197875500Y-46500500D01*
X197942539Y-46520185D01*
G37*
%TD.AperFunction*%
%TD*%
M02*
