%TF.GenerationSoftware,KiCad,Pcbnew,9.0.1*%
%TF.CreationDate,2025-06-21T17:37:17+02:00*%
%TF.ProjectId,PicoLogger,5069636f-4c6f-4676-9765-722e6b696361,rev?*%
%TF.SameCoordinates,Original*%
%TF.FileFunction,Legend,Bot*%
%TF.FilePolarity,Positive*%
%FSLAX46Y46*%
G04 Gerber Fmt 4.6, Leading zero omitted, Abs format (unit mm)*
G04 Created by KiCad (PCBNEW 9.0.1) date 2025-06-21 17:37:17*
%MOMM*%
%LPD*%
G01*
G04 APERTURE LIST*
%ADD10C,0.150000*%
%ADD11C,0.120000*%
G04 APERTURE END LIST*
D10*
X141431009Y-65724285D02*
X141478628Y-65867142D01*
X141478628Y-65867142D02*
X141526247Y-65914761D01*
X141526247Y-65914761D02*
X141621485Y-65962380D01*
X141621485Y-65962380D02*
X141764342Y-65962380D01*
X141764342Y-65962380D02*
X141859580Y-65914761D01*
X141859580Y-65914761D02*
X141907200Y-65867142D01*
X141907200Y-65867142D02*
X141954819Y-65771904D01*
X141954819Y-65771904D02*
X141954819Y-65390952D01*
X141954819Y-65390952D02*
X140954819Y-65390952D01*
X140954819Y-65390952D02*
X140954819Y-65724285D01*
X140954819Y-65724285D02*
X141002438Y-65819523D01*
X141002438Y-65819523D02*
X141050057Y-65867142D01*
X141050057Y-65867142D02*
X141145295Y-65914761D01*
X141145295Y-65914761D02*
X141240533Y-65914761D01*
X141240533Y-65914761D02*
X141335771Y-65867142D01*
X141335771Y-65867142D02*
X141383390Y-65819523D01*
X141383390Y-65819523D02*
X141431009Y-65724285D01*
X141431009Y-65724285D02*
X141431009Y-65390952D01*
X140954819Y-66248095D02*
X140954819Y-66819523D01*
X141954819Y-66533809D02*
X140954819Y-66533809D01*
X141954819Y-67676666D02*
X141954819Y-67105238D01*
X141954819Y-67390952D02*
X140954819Y-67390952D01*
X140954819Y-67390952D02*
X141097676Y-67295714D01*
X141097676Y-67295714D02*
X141192914Y-67200476D01*
X141192914Y-67200476D02*
X141240533Y-67105238D01*
X145614700Y-68688571D02*
X145614700Y-69831429D01*
X146186128Y-69260000D02*
X145043271Y-69260000D01*
D11*
%TO.C,BT1*%
X142500000Y-65060000D02*
X142500000Y-68610000D01*
X143700000Y-65060000D02*
X142500000Y-65060000D01*
X147300000Y-65060000D02*
X148500000Y-65060000D01*
X148500000Y-65060000D02*
X148500000Y-68610000D01*
X142500000Y-68610000D02*
G75*
G02*
X142000000Y-69360000I-812500J0D01*
G01*
X145500000Y-94546170D02*
G75*
G02*
X142000000Y-69360000I-28J12836270D01*
G01*
X149000000Y-69360000D02*
G75*
G02*
X145500000Y-94546170I-3499972J-12349900D01*
G01*
X149000000Y-69360000D02*
G75*
G02*
X148500000Y-68610000I312500J750000D01*
G01*
%TD*%
M02*
