%TF.GenerationSoftware,KiCad,Pcbnew,9.0.1*%
%TF.CreationDate,2025-06-21T17:37:17+02:00*%
%TF.ProjectId,PicoLogger,5069636f-4c6f-4676-9765-722e6b696361,rev?*%
%TF.SameCoordinates,Original*%
%TF.FileFunction,Soldermask,Bot*%
%TF.FilePolarity,Negative*%
%FSLAX46Y46*%
G04 Gerber Fmt 4.6, Leading zero omitted, Abs format (unit mm)*
G04 Created by KiCad (PCBNEW 9.0.1) date 2025-06-21 17:37:17*
%MOMM*%
%LPD*%
G01*
G04 APERTURE LIST*
G04 Aperture macros list*
%AMRoundRect*
0 Rectangle with rounded corners*
0 $1 Rounding radius*
0 $2 $3 $4 $5 $6 $7 $8 $9 X,Y pos of 4 corners*
0 Add a 4 corners polygon primitive as box body*
4,1,4,$2,$3,$4,$5,$6,$7,$8,$9,$2,$3,0*
0 Add four circle primitives for the rounded corners*
1,1,$1+$1,$2,$3*
1,1,$1+$1,$4,$5*
1,1,$1+$1,$6,$7*
1,1,$1+$1,$8,$9*
0 Add four rect primitives between the rounded corners*
20,1,$1+$1,$2,$3,$4,$5,0*
20,1,$1+$1,$4,$5,$6,$7,0*
20,1,$1+$1,$6,$7,$8,$9,0*
20,1,$1+$1,$8,$9,$2,$3,0*%
%AMFreePoly0*
4,1,37,0.603843,0.796157,0.639018,0.796157,0.711114,0.766294,0.766294,0.711114,0.796157,0.639018,0.796157,0.603843,0.800000,0.600000,0.800000,-0.600000,0.796157,-0.603843,0.796157,-0.639018,0.766294,-0.711114,0.711114,-0.766294,0.639018,-0.796157,0.603843,-0.796157,0.600000,-0.800000,0.000000,-0.800000,0.000000,-0.796148,-0.078414,-0.796148,-0.232228,-0.765552,-0.377117,-0.705537,
-0.507515,-0.618408,-0.618408,-0.507515,-0.705537,-0.377117,-0.765552,-0.232228,-0.796148,-0.078414,-0.796148,0.078414,-0.765552,0.232228,-0.705537,0.377117,-0.618408,0.507515,-0.507515,0.618408,-0.377117,0.705537,-0.232228,0.765552,-0.078414,0.796148,0.000000,0.796148,0.000000,0.800000,0.600000,0.800000,0.603843,0.796157,0.603843,0.796157,$1*%
%AMFreePoly1*
4,1,37,0.000000,0.796148,0.078414,0.796148,0.232228,0.765552,0.377117,0.705537,0.507515,0.618408,0.618408,0.507515,0.705537,0.377117,0.765552,0.232228,0.796148,0.078414,0.796148,-0.078414,0.765552,-0.232228,0.705537,-0.377117,0.618408,-0.507515,0.507515,-0.618408,0.377117,-0.705537,0.232228,-0.765552,0.078414,-0.796148,0.000000,-0.796148,0.000000,-0.800000,-0.600000,-0.800000,
-0.603843,-0.796157,-0.639018,-0.796157,-0.711114,-0.766294,-0.766294,-0.711114,-0.796157,-0.639018,-0.796157,-0.603843,-0.800000,-0.600000,-0.800000,0.600000,-0.796157,0.603843,-0.796157,0.639018,-0.766294,0.711114,-0.711114,0.766294,-0.639018,0.796157,-0.603843,0.796157,-0.600000,0.800000,0.000000,0.800000,0.000000,0.796148,0.000000,0.796148,$1*%
G04 Aperture macros list end*
%ADD10R,1.700000X1.700000*%
%ADD11C,1.700000*%
%ADD12C,5.600000*%
%ADD13C,2.000000*%
%ADD14C,3.200000*%
%ADD15R,2.300000X2.300000*%
%ADD16C,2.300000*%
%ADD17RoundRect,0.250000X-1.050000X1.050000X-1.050000X-1.050000X1.050000X-1.050000X1.050000X1.050000X0*%
%ADD18C,2.600000*%
%ADD19RoundRect,0.200000X-0.600000X-0.600000X0.600000X-0.600000X0.600000X0.600000X-0.600000X0.600000X0*%
%ADD20C,1.600000*%
%ADD21FreePoly0,0.000000*%
%ADD22FreePoly1,0.000000*%
%ADD23R,2.000000X2.000000*%
%ADD24R,3.000000X3.000000*%
%ADD25C,3.000000*%
G04 APERTURE END LIST*
D10*
%TO.C,J8*%
X187000000Y-103260000D03*
D11*
X187000000Y-105800000D03*
X187000000Y-108340000D03*
X187000000Y-110880000D03*
X187000000Y-113420000D03*
X187000000Y-115960000D03*
X187000000Y-118500000D03*
%TD*%
D12*
%TO.C,H2*%
X194500000Y-50000000D03*
%TD*%
D10*
%TO.C,J1*%
X161000000Y-48460000D03*
D11*
X161000000Y-51000000D03*
X161000000Y-53540000D03*
X161000000Y-56080000D03*
%TD*%
D13*
%TO.C,SW2*%
X143250000Y-117750000D03*
X143250000Y-111250000D03*
X147750000Y-117750000D03*
X147750000Y-111250000D03*
%TD*%
D14*
%TO.C,H4*%
X102000000Y-125000000D03*
%TD*%
D15*
%TO.C,K2*%
X129875000Y-72700000D03*
D16*
X119715000Y-72700000D03*
X112095000Y-72700000D03*
X114635000Y-80320000D03*
X129875000Y-80320000D03*
%TD*%
D17*
%TO.C,J6*%
X103827500Y-91000000D03*
D18*
X103827500Y-96000000D03*
X103827500Y-101000000D03*
%TD*%
D10*
%TO.C,J2*%
X165000000Y-48420000D03*
D11*
X165000000Y-50960000D03*
X165000000Y-53500000D03*
X165000000Y-56040000D03*
%TD*%
D14*
%TO.C,H3*%
X102000000Y-50000000D03*
%TD*%
D12*
%TO.C,H1*%
X194500000Y-125000000D03*
%TD*%
D19*
%TO.C,A1*%
X170720000Y-49320000D03*
D20*
X170720000Y-51860000D03*
D21*
X170720000Y-54400000D03*
D20*
X170720000Y-56940000D03*
X170720000Y-59480000D03*
X170720000Y-62020000D03*
X170720000Y-64560000D03*
D21*
X170720000Y-67100000D03*
D20*
X170720000Y-69640000D03*
X170720000Y-72180000D03*
X170720000Y-74720000D03*
X170720000Y-77260000D03*
D21*
X170720000Y-79800000D03*
D20*
X170720000Y-82340000D03*
X170720000Y-84880000D03*
X170720000Y-87420000D03*
X170720000Y-89960000D03*
D21*
X170720000Y-92500000D03*
D20*
X170720000Y-95040000D03*
X170720000Y-97580000D03*
X188500000Y-97580000D03*
X188500000Y-95040000D03*
D22*
X188500000Y-92500000D03*
D20*
X188500000Y-89960000D03*
X188500000Y-87420000D03*
X188500000Y-84880000D03*
X188500000Y-82340000D03*
D22*
X188500000Y-79800000D03*
D20*
X188500000Y-77260000D03*
X188500000Y-74720000D03*
X188500000Y-72180000D03*
X188500000Y-69640000D03*
D22*
X188500000Y-67100000D03*
D20*
X188500000Y-64560000D03*
X188500000Y-62020000D03*
X188500000Y-59480000D03*
X188500000Y-56940000D03*
D22*
X188500000Y-54400000D03*
D20*
X188500000Y-51860000D03*
X188500000Y-49320000D03*
%TD*%
D15*
%TO.C,K4*%
X129875000Y-107700000D03*
D16*
X119715000Y-107700000D03*
X112095000Y-107700000D03*
X114635000Y-115320000D03*
X129875000Y-115320000D03*
%TD*%
D13*
%TO.C,SW1*%
X152250000Y-117750000D03*
X152250000Y-111250000D03*
X156750000Y-117750000D03*
X156750000Y-111250000D03*
%TD*%
D23*
%TO.C,BZ1*%
X161700000Y-114500000D03*
D13*
X169300000Y-114500000D03*
%TD*%
D15*
%TO.C,K3*%
X129740000Y-90200000D03*
D16*
X119580000Y-90200000D03*
X111960000Y-90200000D03*
X114500000Y-97820000D03*
X129740000Y-97820000D03*
%TD*%
D17*
%TO.C,J4*%
X103900000Y-56500000D03*
D18*
X103900000Y-61500000D03*
X103900000Y-66500000D03*
%TD*%
D17*
%TO.C,J7*%
X103827500Y-108440000D03*
D18*
X103827500Y-113440000D03*
X103827500Y-118440000D03*
%TD*%
D15*
%TO.C,K1*%
X129875000Y-55500000D03*
D16*
X119715000Y-55500000D03*
X112095000Y-55500000D03*
X114635000Y-63120000D03*
X129875000Y-63120000D03*
%TD*%
D17*
%TO.C,J5*%
X103900000Y-73700000D03*
D18*
X103900000Y-78700000D03*
X103900000Y-83700000D03*
%TD*%
D10*
%TO.C,J3*%
X139260000Y-57000000D03*
D11*
X141800000Y-57000000D03*
X144340000Y-57000000D03*
X146880000Y-57000000D03*
X149420000Y-57000000D03*
X151960000Y-57000000D03*
X154500000Y-57000000D03*
X157040000Y-57000000D03*
%TD*%
D24*
%TO.C,BT1*%
X145500000Y-66510000D03*
D25*
X145500000Y-87000000D03*
%TD*%
M02*
