M48
; DRILL file {KiCad 9.0.1} date 2025-06-21T17:37:20+0200
; FORMAT={-:-/ absolute / metric / decimal}
; #@! TF.CreationDate,2025-06-21T17:37:20+02:00
; #@! TF.GenerationSoftware,Kicad,Pcbnew,9.0.1
; #@! TF.FileFunction,Plated,1,2,PTH
FMAT,2
METRIC
; #@! TA.AperFunction,Plated,PTH,ViaDrill
T1C0.300
; #@! TA.AperFunction,Plated,PTH,ComponentDrill
T2C1.000
; #@! TA.AperFunction,Plated,PTH,ComponentDrill
T3C1.100
; #@! TA.AperFunction,Plated,PTH,ComponentDrill
T4C1.300
; #@! TA.AperFunction,Plated,PTH,ComponentDrill
T5C1.500
; #@! TA.AperFunction,Plated,PTH,ComponentDrill
T6C3.200
%
G90
G05
T1
X137.5Y-96.0
X137.5Y-113.5
X138.0Y-61.0
X138.0Y-78.5
X139.0Y-60.0
X140.0Y-85.0
X140.0Y-90.0
X140.5Y-100.4
X141.0Y-79.5
X142.5Y-80.0
X142.5Y-88.0
X144.0Y-94.0
X144.5Y-76.5
X145.5Y-69.0
X148.5Y-59.5
X148.5Y-76.5
X149.0Y-80.5
X149.5Y-75.5
X150.0Y-101.5
X150.5Y-59.5
X154.0Y-60.5
X156.0Y-64.5
X156.0Y-101.5
X158.0Y-75.5
X158.0Y-78.0
X159.0Y-56.5
X180.0Y-96.5
X181.312Y-97.812
X183.25Y-94.25
X184.5Y-94.5
X185.0Y-116.0
X185.5Y-79.0
X185.5Y-85.5
X186.0Y-98.0
T2
X139.26Y-57.0
X141.8Y-57.0
X144.34Y-57.0
X146.88Y-57.0
X149.42Y-57.0
X151.96Y-57.0
X154.5Y-57.0
X157.04Y-57.0
X161.0Y-48.46
X161.0Y-51.0
X161.0Y-53.54
X161.0Y-56.08
X161.7Y-114.5
X165.0Y-48.42
X165.0Y-50.96
X165.0Y-53.5
X165.0Y-56.04
X169.3Y-114.5
X170.72Y-49.32
X170.72Y-51.86
X170.72Y-54.4
X170.72Y-56.94
X170.72Y-59.48
X170.72Y-62.02
X170.72Y-64.56
X170.72Y-67.1
X170.72Y-69.64
X170.72Y-72.18
X170.72Y-74.72
X170.72Y-77.26
X170.72Y-79.8
X170.72Y-82.34
X170.72Y-84.88
X170.72Y-87.42
X170.72Y-89.96
X170.72Y-92.5
X170.72Y-95.04
X170.72Y-97.58
X187.0Y-103.26
X187.0Y-105.8
X187.0Y-108.34
X187.0Y-110.88
X187.0Y-113.42
X187.0Y-115.96
X187.0Y-118.5
X188.5Y-49.32
X188.5Y-51.86
X188.5Y-54.4
X188.5Y-56.94
X188.5Y-59.48
X188.5Y-62.02
X188.5Y-64.56
X188.5Y-67.1
X188.5Y-69.64
X188.5Y-72.18
X188.5Y-74.72
X188.5Y-77.26
X188.5Y-79.8
X188.5Y-82.34
X188.5Y-84.88
X188.5Y-87.42
X188.5Y-89.96
X188.5Y-92.5
X188.5Y-95.04
X188.5Y-97.58
T3
X143.25Y-111.25
X143.25Y-117.75
X147.75Y-111.25
X147.75Y-117.75
X152.25Y-111.25
X152.25Y-117.75
X156.75Y-111.25
X156.75Y-117.75
T4
X103.828Y-91.0
X103.828Y-96.0
X103.828Y-101.0
X103.828Y-108.44
X103.828Y-113.44
X103.828Y-118.44
X103.9Y-56.5
X103.9Y-61.5
X103.9Y-66.5
X103.9Y-73.7
X103.9Y-78.7
X103.9Y-83.7
X111.96Y-90.2
X112.095Y-55.5
X112.095Y-72.7
X112.095Y-107.7
X114.5Y-97.82
X114.635Y-63.12
X114.635Y-80.32
X114.635Y-115.32
X119.58Y-90.2
X119.715Y-55.5
X119.715Y-72.7
X119.715Y-107.7
X129.74Y-90.2
X129.74Y-97.82
X129.875Y-55.5
X129.875Y-63.12
X129.875Y-72.7
X129.875Y-80.32
X129.875Y-107.7
X129.875Y-115.32
T5
X145.5Y-66.51
X145.5Y-87.0
T6
X194.5Y-50.0
X194.5Y-125.0
M30
