M48
; DRILL file {KiCad 9.0.6-rc2} date 2025-10-26T22:09:17+0100
; FORMAT={-:-/ absolute / metric / decimal}
; #@! TF.CreationDate,2025-10-26T22:09:17+01:00
; #@! TF.GenerationSoftware,Kicad,Pcbnew,9.0.6-rc2
; #@! TF.FileFunction,Plated,1,2,PTH
FMAT,2
METRIC
; #@! TA.AperFunction,Plated,PTH,ViaDrill
T1C0.300
; #@! TA.AperFunction,Plated,PTH,ComponentDrill
T2C0.600
; #@! TA.AperFunction,Plated,PTH,ComponentDrill
T3C0.890
; #@! TA.AperFunction,Plated,PTH,ComponentDrill
T4C0.950
; #@! TA.AperFunction,Plated,PTH,ComponentDrill
T5C1.000
; #@! TA.AperFunction,Plated,PTH,ComponentDrill
T6C1.100
; #@! TA.AperFunction,Plated,PTH,ComponentDrill
T7C1.300
; #@! TA.AperFunction,Plated,PTH,ComponentDrill
T8C1.500
; #@! TA.AperFunction,Plated,PTH,ComponentDrill
T9C1.570
; #@! TA.AperFunction,Plated,PTH,ComponentDrill
T10C3.200
%
G90
G05
T1
X121.2Y-121.5
X125.9Y-120.8
X125.9Y-122.7
X128.1Y-73.2
X128.5Y-118.5
X128.5Y-120.0
X129.9Y-102.6
X129.9Y-104.0
X130.3Y-73.2
X135.7Y-114.9
X139.0Y-119.9
X140.26Y-98.52
X140.4Y-119.9
X142.0Y-94.0
X142.24Y-98.6
X143.0Y-111.8
X143.0Y-113.0
X143.7Y-94.0
X144.07Y-98.6
X145.4Y-97.6
X145.4Y-102.2
X153.8Y-107.7
X153.8Y-108.9
X154.0Y-103.5
X156.7Y-117.7
X156.7Y-118.8
X159.0Y-73.0
X161.4Y-97.8
X163.0Y-97.8
X163.5Y-70.6
X164.0Y-107.8
X164.3Y-57.4
X165.6Y-104.8
X165.8Y-111.7
X165.8Y-112.9
X166.0Y-82.8
X166.4Y-75.8
X167.1Y-110.9
X167.3Y-88.0
X167.7Y-89.2
X168.0Y-79.8
X168.9Y-66.3
X169.7Y-75.9
X169.9Y-98.1
X170.7Y-91.4
X171.6Y-98.1
X171.9Y-125.9
X171.97Y-63.6
X173.0Y-115.3
X173.3Y-125.9
X173.5Y-73.7
X174.2Y-91.7
X174.37Y-50.7
X174.9Y-99.0
X175.7Y-74.0
X175.7Y-113.4
X176.1Y-91.8
X176.3Y-80.8
X176.4Y-93.3
X176.6Y-89.2
X176.9Y-113.4
X177.2Y-48.2
X177.6Y-88.0
X178.6Y-91.4
X179.2Y-48.2
X179.67Y-50.7
X179.9Y-81.8
X179.9Y-91.4
X180.375Y-72.125
X181.7Y-106.9
X181.7Y-108.0
X182.7Y-104.1
X183.8Y-125.9
X186.25Y-69.0
X187.1Y-94.8
X187.6Y-123.1
X188.5Y-59.1
X189.0Y-123.1
X189.7Y-114.9
X190.3Y-59.1
X194.6Y-76.3
X194.6Y-77.8
X197.2Y-94.8
X197.75Y-76.25
X197.8Y-125.9
X197.9Y-108.5
X198.75Y-77.0
X201.7Y-84.5
X201.8Y-65.8
X201.8Y-67.7
X202.8Y-105.2
X202.8Y-106.7
X204.975Y-87.7
X205.0Y-62.0
X205.0Y-63.4
X205.625Y-86.45
X207.9Y-103.3
X208.0Y-107.7
X208.0Y-110.5
X209.4Y-122.4
X209.9Y-75.2
T3
X189.84Y-53.59
X190.856Y-55.37
X191.872Y-53.59
X192.888Y-55.37
X193.904Y-53.59
X194.92Y-55.37
X195.936Y-53.59
X196.952Y-55.37
T4
X123.9Y-95.9
X123.9Y-98.4
X123.9Y-100.9
X123.9Y-103.4
X123.9Y-109.6
X123.9Y-112.1
X123.9Y-114.6
X123.9Y-117.1
X129.6Y-124.9
X132.1Y-124.9
X134.6Y-124.9
X137.1Y-124.9
X139.6Y-124.9
X142.1Y-124.9
X144.6Y-124.9
X149.9Y-101.7
X150.7Y-124.9
X152.4Y-101.7
X153.2Y-124.9
X154.9Y-101.7
X155.7Y-124.9
X158.2Y-124.9
X160.7Y-124.9
X163.2Y-124.9
X165.7Y-124.9
X168.2Y-124.9
T5
X141.7Y-84.6
X144.24Y-84.6
X152.3Y-88.3
X152.3Y-95.9
X159.57Y-101.3
X159.57Y-119.08
X162.11Y-101.3
X162.11Y-119.08
X164.65Y-101.3
X164.65Y-119.08
X167.19Y-101.3
X167.19Y-119.08
X169.73Y-101.3
X169.73Y-119.08
X172.27Y-101.3
X172.27Y-119.08
X174.81Y-101.3
X174.81Y-119.08
X177.35Y-101.3
X177.35Y-119.08
X179.46Y-75.1
X179.89Y-101.3
X179.89Y-119.08
X182.0Y-75.1
X182.43Y-101.3
X182.43Y-119.08
X184.97Y-101.3
X184.97Y-119.08
X187.51Y-101.3
X187.51Y-119.08
X189.2Y-104.69
X189.2Y-107.19
X189.2Y-109.69
X190.05Y-101.3
X190.05Y-119.08
X192.59Y-101.3
X192.59Y-119.08
X195.13Y-101.3
X195.13Y-119.08
X196.9Y-65.3
X197.67Y-101.3
X197.67Y-119.08
X199.44Y-65.3
X200.21Y-101.3
X200.21Y-119.08
X202.75Y-101.3
X202.75Y-119.08
X205.29Y-101.3
X205.29Y-119.08
X207.83Y-101.3
X207.83Y-119.08
T6
X183.9Y-92.6
X183.9Y-97.1
X190.4Y-92.6
X190.4Y-97.1
X193.9Y-92.6
X193.9Y-97.1
X200.4Y-92.6
X200.4Y-97.1
T7
X126.9Y-78.8
X126.9Y-83.8
X126.9Y-88.8
X128.927Y-58.7
X128.927Y-63.7
X128.927Y-68.7
X137.595Y-60.4
X140.135Y-68.02
X145.215Y-60.4
X155.375Y-60.4
X155.375Y-68.02
T8
X159.18Y-79.295
X179.67Y-79.295
T9
X185.27Y-54.48
X201.53Y-54.48
T10
X207.5Y-50.1
X207.5Y-126.1
T2
G00X172.63Y-48.5
M15
G01X172.63Y-47.9
M16
G05
G00X172.63Y-52.3
M15
G01X172.63Y-51.7
M16
G05
G00X181.27Y-48.5
M15
G01X181.27Y-47.9
M16
G05
G00X181.27Y-52.3
M15
G01X181.27Y-51.7
M16
G05
M30
