%TF.GenerationSoftware,KiCad,Pcbnew,9.0.6-rc2*%
%TF.CreationDate,2025-10-26T22:09:15+01:00*%
%TF.ProjectId,CAN,43414e2e-6b69-4636-9164-5f7063625858,rev?*%
%TF.SameCoordinates,Original*%
%TF.FileFunction,Legend,Bot*%
%TF.FilePolarity,Positive*%
%FSLAX46Y46*%
G04 Gerber Fmt 4.6, Leading zero omitted, Abs format (unit mm)*
G04 Created by KiCad (PCBNEW 9.0.6-rc2) date 2025-10-26 22:09:15*
%MOMM*%
%LPD*%
G01*
G04 APERTURE LIST*
%ADD10C,0.150000*%
%ADD11C,0.120000*%
G04 APERTURE END LIST*
D10*
X180685714Y-83031009D02*
X180542857Y-83078628D01*
X180542857Y-83078628D02*
X180495238Y-83126247D01*
X180495238Y-83126247D02*
X180447619Y-83221485D01*
X180447619Y-83221485D02*
X180447619Y-83364342D01*
X180447619Y-83364342D02*
X180495238Y-83459580D01*
X180495238Y-83459580D02*
X180542857Y-83507200D01*
X180542857Y-83507200D02*
X180638095Y-83554819D01*
X180638095Y-83554819D02*
X181019047Y-83554819D01*
X181019047Y-83554819D02*
X181019047Y-82554819D01*
X181019047Y-82554819D02*
X180685714Y-82554819D01*
X180685714Y-82554819D02*
X180590476Y-82602438D01*
X180590476Y-82602438D02*
X180542857Y-82650057D01*
X180542857Y-82650057D02*
X180495238Y-82745295D01*
X180495238Y-82745295D02*
X180495238Y-82840533D01*
X180495238Y-82840533D02*
X180542857Y-82935771D01*
X180542857Y-82935771D02*
X180590476Y-82983390D01*
X180590476Y-82983390D02*
X180685714Y-83031009D01*
X180685714Y-83031009D02*
X181019047Y-83031009D01*
X180161904Y-82554819D02*
X179590476Y-82554819D01*
X179876190Y-83554819D02*
X179876190Y-82554819D01*
X178733333Y-83554819D02*
X179304761Y-83554819D01*
X179019047Y-83554819D02*
X179019047Y-82554819D01*
X179019047Y-82554819D02*
X179114285Y-82697676D01*
X179114285Y-82697676D02*
X179209523Y-82792914D01*
X179209523Y-82792914D02*
X179304761Y-82840533D01*
X177491428Y-79409701D02*
X176348571Y-79409701D01*
X176919999Y-79981129D02*
X176919999Y-78838272D01*
D11*
%TO.C,BT1*%
X181120000Y-76295001D02*
X177570000Y-76295001D01*
X181120000Y-77495001D02*
X181120000Y-76295001D01*
X181120000Y-81095001D02*
X181120000Y-82295001D01*
X181120000Y-82295001D02*
X177570000Y-82295001D01*
X151633830Y-79295001D02*
G75*
G02*
X176820000Y-75795001I12836270J28D01*
G01*
X176820000Y-82795001D02*
G75*
G02*
X151633830Y-79295001I-12349900J3499972D01*
G01*
X176820000Y-82795001D02*
G75*
G02*
X177570000Y-82295001I750000J-312500D01*
G01*
X177570000Y-76295001D02*
G75*
G02*
X176820000Y-75795001I0J812500D01*
G01*
%TD*%
M02*
