%TF.GenerationSoftware,KiCad,Pcbnew,9.0.6-rc2*%
%TF.CreationDate,2025-10-26T22:09:16+01:00*%
%TF.ProjectId,CAN,43414e2e-6b69-4636-9164-5f7063625858,rev?*%
%TF.SameCoordinates,Original*%
%TF.FileFunction,Soldermask,Top*%
%TF.FilePolarity,Negative*%
%FSLAX46Y46*%
G04 Gerber Fmt 4.6, Leading zero omitted, Abs format (unit mm)*
G04 Created by KiCad (PCBNEW 9.0.6-rc2) date 2025-10-26 22:09:16*
%MOMM*%
%LPD*%
G01*
G04 APERTURE LIST*
G04 Aperture macros list*
%AMRoundRect*
0 Rectangle with rounded corners*
0 $1 Rounding radius*
0 $2 $3 $4 $5 $6 $7 $8 $9 X,Y pos of 4 corners*
0 Add a 4 corners polygon primitive as box body*
4,1,4,$2,$3,$4,$5,$6,$7,$8,$9,$2,$3,0*
0 Add four circle primitives for the rounded corners*
1,1,$1+$1,$2,$3*
1,1,$1+$1,$4,$5*
1,1,$1+$1,$6,$7*
1,1,$1+$1,$8,$9*
0 Add four rect primitives between the rounded corners*
20,1,$1+$1,$2,$3,$4,$5,0*
20,1,$1+$1,$4,$5,$6,$7,0*
20,1,$1+$1,$6,$7,$8,$9,0*
20,1,$1+$1,$8,$9,$2,$3,0*%
%AMFreePoly0*
4,1,37,0.603843,0.796157,0.639018,0.796157,0.711114,0.766294,0.766294,0.711114,0.796157,0.639018,0.796157,0.603843,0.800000,0.600000,0.800000,-0.600000,0.796157,-0.603843,0.796157,-0.639018,0.766294,-0.711114,0.711114,-0.766294,0.639018,-0.796157,0.603843,-0.796157,0.600000,-0.800000,0.000000,-0.800000,0.000000,-0.796148,-0.078414,-0.796148,-0.232228,-0.765552,-0.377117,-0.705537,
-0.507515,-0.618408,-0.618408,-0.507515,-0.705537,-0.377117,-0.765552,-0.232228,-0.796148,-0.078414,-0.796148,0.078414,-0.765552,0.232228,-0.705537,0.377117,-0.618408,0.507515,-0.507515,0.618408,-0.377117,0.705537,-0.232228,0.765552,-0.078414,0.796148,0.000000,0.796148,0.000000,0.800000,0.600000,0.800000,0.603843,0.796157,0.603843,0.796157,$1*%
%AMFreePoly1*
4,1,37,0.000000,0.796148,0.078414,0.796148,0.232228,0.765552,0.377117,0.705537,0.507515,0.618408,0.618408,0.507515,0.705537,0.377117,0.765552,0.232228,0.796148,0.078414,0.796148,-0.078414,0.765552,-0.232228,0.705537,-0.377117,0.618408,-0.507515,0.507515,-0.618408,0.377117,-0.705537,0.232228,-0.765552,0.078414,-0.796148,0.000000,-0.796148,0.000000,-0.800000,-0.600000,-0.800000,
-0.603843,-0.796157,-0.639018,-0.796157,-0.711114,-0.766294,-0.766294,-0.711114,-0.796157,-0.639018,-0.796157,-0.603843,-0.800000,-0.600000,-0.800000,0.600000,-0.796157,0.603843,-0.796157,0.639018,-0.766294,0.711114,-0.711114,0.766294,-0.639018,0.796157,-0.603843,0.796157,-0.600000,0.800000,0.000000,0.800000,0.000000,0.796148,0.000000,0.796148,$1*%
G04 Aperture macros list end*
%ADD10RoundRect,0.200000X0.600000X-0.600000X0.600000X0.600000X-0.600000X0.600000X-0.600000X-0.600000X0*%
%ADD11C,1.600000*%
%ADD12FreePoly0,90.000000*%
%ADD13FreePoly1,90.000000*%
%ADD14R,1.600000X1.600000*%
%ADD15RoundRect,0.250000X-1.050000X1.050000X-1.050000X-1.050000X1.050000X-1.050000X1.050000X1.050000X0*%
%ADD16C,2.600000*%
%ADD17RoundRect,0.225000X0.225000X0.250000X-0.225000X0.250000X-0.225000X-0.250000X0.225000X-0.250000X0*%
%ADD18RoundRect,0.250000X0.250000X0.475000X-0.250000X0.475000X-0.250000X-0.475000X0.250000X-0.475000X0*%
%ADD19RoundRect,0.250000X-0.250000X-0.475000X0.250000X-0.475000X0.250000X0.475000X-0.250000X0.475000X0*%
%ADD20RoundRect,0.250000X0.350000X-0.450000X0.350000X0.450000X-0.350000X0.450000X-0.350000X-0.450000X0*%
%ADD21RoundRect,0.150000X-0.825000X-0.150000X0.825000X-0.150000X0.825000X0.150000X-0.825000X0.150000X0*%
%ADD22RoundRect,0.250000X0.450000X-0.262500X0.450000X0.262500X-0.450000X0.262500X-0.450000X-0.262500X0*%
%ADD23C,2.000000*%
%ADD24RoundRect,0.249999X0.640001X-0.750001X0.640001X0.750001X-0.640001X0.750001X-0.640001X-0.750001X0*%
%ADD25RoundRect,0.175000X0.175000X0.425000X-0.175000X0.425000X-0.175000X-0.425000X0.175000X-0.425000X0*%
%ADD26RoundRect,0.190000X-0.190000X-0.410000X0.190000X-0.410000X0.190000X0.410000X-0.190000X0.410000X0*%
%ADD27RoundRect,0.200000X-0.200000X-0.400000X0.200000X-0.400000X0.200000X0.400000X-0.200000X0.400000X0*%
%ADD28RoundRect,0.175000X-0.175000X-0.425000X0.175000X-0.425000X0.175000X0.425000X-0.175000X0.425000X0*%
%ADD29RoundRect,0.190000X0.190000X0.410000X-0.190000X0.410000X-0.190000X-0.410000X0.190000X-0.410000X0*%
%ADD30RoundRect,0.200000X0.200000X0.400000X-0.200000X0.400000X-0.200000X-0.400000X0.200000X-0.400000X0*%
%ADD31O,1.100000X1.700000*%
%ADD32RoundRect,0.250000X0.262500X0.450000X-0.262500X0.450000X-0.262500X-0.450000X0.262500X-0.450000X0*%
%ADD33RoundRect,0.250000X0.475000X-0.250000X0.475000X0.250000X-0.475000X0.250000X-0.475000X-0.250000X0*%
%ADD34RoundRect,0.218750X-0.218750X-0.256250X0.218750X-0.256250X0.218750X0.256250X-0.218750X0.256250X0*%
%ADD35R,2.000000X2.000000*%
%ADD36RoundRect,0.250000X-0.600000X-0.725000X0.600000X-0.725000X0.600000X0.725000X-0.600000X0.725000X0*%
%ADD37O,1.700000X1.950000*%
%ADD38R,1.700000X1.700000*%
%ADD39C,1.700000*%
%ADD40RoundRect,0.250000X0.300000X-0.300000X0.300000X0.300000X-0.300000X0.300000X-0.300000X-0.300000X0*%
%ADD41RoundRect,0.150000X0.587500X0.150000X-0.587500X0.150000X-0.587500X-0.150000X0.587500X-0.150000X0*%
%ADD42RoundRect,0.250000X-0.725000X0.600000X-0.725000X-0.600000X0.725000X-0.600000X0.725000X0.600000X0*%
%ADD43O,1.950000X1.700000*%
%ADD44RoundRect,0.250000X-0.262500X-0.450000X0.262500X-0.450000X0.262500X0.450000X-0.262500X0.450000X0*%
%ADD45RoundRect,0.150000X-0.150000X0.587500X-0.150000X-0.587500X0.150000X-0.587500X0.150000X0.587500X0*%
%ADD46C,3.200000*%
%ADD47RoundRect,0.250000X-0.450000X0.262500X-0.450000X-0.262500X0.450000X-0.262500X0.450000X0.262500X0*%
%ADD48C,3.250000*%
%ADD49R,1.500000X1.500000*%
%ADD50C,1.500000*%
%ADD51C,2.300000*%
%ADD52R,2.300000X2.300000*%
%ADD53RoundRect,0.250000X0.300000X0.300000X-0.300000X0.300000X-0.300000X-0.300000X0.300000X-0.300000X0*%
%ADD54RoundRect,0.218750X0.256250X-0.218750X0.256250X0.218750X-0.256250X0.218750X-0.256250X-0.218750X0*%
%ADD55R,1.800000X1.000000*%
%ADD56RoundRect,0.225000X-0.225000X-0.250000X0.225000X-0.250000X0.225000X0.250000X-0.225000X0.250000X0*%
%ADD57C,5.600000*%
%ADD58R,1.500000X1.100000*%
%ADD59RoundRect,0.150000X0.150000X-0.825000X0.150000X0.825000X-0.150000X0.825000X-0.150000X-0.825000X0*%
%ADD60RoundRect,0.243750X0.243750X0.456250X-0.243750X0.456250X-0.243750X-0.456250X0.243750X-0.456250X0*%
%ADD61RoundRect,0.150000X-0.875000X-0.150000X0.875000X-0.150000X0.875000X0.150000X-0.875000X0.150000X0*%
%ADD62RoundRect,0.243750X0.456250X-0.243750X0.456250X0.243750X-0.456250X0.243750X-0.456250X-0.243750X0*%
%ADD63RoundRect,0.150000X-0.587500X-0.150000X0.587500X-0.150000X0.587500X0.150000X-0.587500X0.150000X0*%
%ADD64RoundRect,0.225000X0.250000X-0.225000X0.250000X0.225000X-0.250000X0.225000X-0.250000X-0.225000X0*%
%ADD65R,3.000000X3.000000*%
%ADD66C,3.000000*%
G04 APERTURE END LIST*
D10*
%TO.C,A1*%
X159570000Y-119080000D03*
D11*
X162110000Y-119080000D03*
D12*
X164650000Y-119080000D03*
D11*
X167190000Y-119080000D03*
X169730000Y-119080000D03*
X172270000Y-119080000D03*
X174810000Y-119080000D03*
D12*
X177350000Y-119080000D03*
D11*
X179890000Y-119080000D03*
X182430000Y-119080000D03*
X184970000Y-119080000D03*
X187510000Y-119080000D03*
D12*
X190050000Y-119080000D03*
D11*
X192590000Y-119080000D03*
X195130000Y-119080000D03*
X197670000Y-119080000D03*
X200210000Y-119080000D03*
D12*
X202750000Y-119080000D03*
D11*
X205290000Y-119080000D03*
X207830000Y-119080000D03*
X207830000Y-101300000D03*
X205290000Y-101300000D03*
D13*
X202750000Y-101300000D03*
D11*
X200210000Y-101300000D03*
X197670000Y-101300000D03*
X195130000Y-101300000D03*
X192590000Y-101300000D03*
D13*
X190050000Y-101300000D03*
D11*
X187510000Y-101300000D03*
X184970000Y-101300000D03*
X182430000Y-101300000D03*
X179890000Y-101300000D03*
D13*
X177350000Y-101300000D03*
D11*
X174810000Y-101300000D03*
X172270000Y-101300000D03*
X169730000Y-101300000D03*
X167190000Y-101300000D03*
D13*
X164650000Y-101300000D03*
D11*
X162110000Y-101300000D03*
X159570000Y-101300000D03*
D14*
X189200000Y-109690000D03*
D11*
X189200000Y-104690000D03*
X189200000Y-107190000D03*
%TD*%
D15*
%TO.C,J9*%
X126900000Y-78800000D03*
D16*
X126900000Y-83800000D03*
X126900000Y-88800000D03*
%TD*%
D17*
%TO.C,C6*%
X181850000Y-69200000D03*
X180300000Y-69200000D03*
%TD*%
%TO.C,C8*%
X137752500Y-95100000D03*
X136202500Y-95100000D03*
%TD*%
D18*
%TO.C,C14*%
X161200000Y-94500000D03*
X159300000Y-94500000D03*
%TD*%
D19*
%TO.C,C2*%
X187700000Y-84300000D03*
X189600000Y-84300000D03*
%TD*%
D20*
%TO.C,Y1*%
X185950000Y-83700000D03*
X185950000Y-81500000D03*
X184250000Y-81500000D03*
X184250000Y-83700000D03*
%TD*%
D21*
%TO.C,U4*%
X165550000Y-77390000D03*
X165550000Y-78660000D03*
X165550000Y-79930000D03*
X165550000Y-81200000D03*
X170500000Y-81200000D03*
X170500000Y-79930000D03*
X170500000Y-78660000D03*
X170500000Y-77390000D03*
%TD*%
D22*
%TO.C,R2*%
X206500000Y-97800000D03*
X206500000Y-95975000D03*
%TD*%
D23*
%TO.C,SW1*%
X193900000Y-92600000D03*
X200400000Y-92600000D03*
X193900000Y-97100000D03*
X200400000Y-97100000D03*
%TD*%
D24*
%TO.C,U5*%
X169430000Y-69265000D03*
X171970000Y-69265000D03*
X171970000Y-59735000D03*
X169430000Y-59735000D03*
%TD*%
D19*
%TO.C,C18*%
X168870000Y-50600000D03*
X170770000Y-50600000D03*
%TD*%
D25*
%TO.C,J1*%
X177450000Y-52080000D03*
D26*
X175430000Y-52080000D03*
D27*
X174200000Y-52080000D03*
D28*
X176450000Y-52080000D03*
D29*
X178470000Y-52080000D03*
D30*
X179700000Y-52080000D03*
D31*
X181270000Y-52000000D03*
X181270000Y-48200000D03*
X172630000Y-52000000D03*
X172630000Y-48200000D03*
%TD*%
D32*
%TO.C,R13*%
X145252500Y-88700000D03*
X143427500Y-88700000D03*
%TD*%
D23*
%TO.C,SW2*%
X183900000Y-92600000D03*
X190400000Y-92600000D03*
X183900000Y-97100000D03*
X190400000Y-97100000D03*
%TD*%
D22*
%TO.C,R3*%
X204500000Y-97812500D03*
X204500000Y-95987500D03*
%TD*%
D33*
%TO.C,C4*%
X207600000Y-72000000D03*
X207600000Y-70100000D03*
%TD*%
D18*
%TO.C,C7*%
X182250000Y-67400000D03*
X180350000Y-67400000D03*
%TD*%
D32*
%TO.C,R23*%
X164837500Y-87782500D03*
X163012500Y-87782500D03*
%TD*%
D18*
%TO.C,C1*%
X189600000Y-81000000D03*
X187700000Y-81000000D03*
%TD*%
D34*
%TO.C,L4*%
X166425000Y-74300000D03*
X168000000Y-74300000D03*
%TD*%
D18*
%TO.C,C13*%
X162900000Y-64900000D03*
X161000000Y-64900000D03*
%TD*%
D35*
%TO.C,TP4*%
X188800000Y-73900000D03*
%TD*%
D36*
%TO.C,J5*%
X129600000Y-124900000D03*
D37*
X132100000Y-124900000D03*
X134600000Y-124900000D03*
X137100000Y-124900000D03*
X139600000Y-124900000D03*
X142100000Y-124900000D03*
X144600000Y-124900000D03*
%TD*%
D38*
%TO.C,JP3*%
X182000000Y-75100000D03*
D39*
X179460000Y-75100000D03*
%TD*%
D40*
%TO.C,D8*%
X159700000Y-92600000D03*
X159700000Y-89800000D03*
%TD*%
D32*
%TO.C,R6*%
X205800000Y-76200000D03*
X203975000Y-76200000D03*
%TD*%
D41*
%TO.C,D3*%
X137977500Y-87350000D03*
X137977500Y-85450000D03*
X136102500Y-86400000D03*
%TD*%
D32*
%TO.C,R16*%
X138190000Y-89050000D03*
X136365000Y-89050000D03*
%TD*%
D42*
%TO.C,J2*%
X123900000Y-95900000D03*
D43*
X123900000Y-98400000D03*
X123900000Y-100900000D03*
X123900000Y-103400000D03*
%TD*%
D44*
%TO.C,R21*%
X172600000Y-86300000D03*
X174425000Y-86300000D03*
%TD*%
D45*
%TO.C,Q1*%
X168337500Y-84395000D03*
X166437500Y-84395000D03*
X167387500Y-86270000D03*
%TD*%
D18*
%TO.C,C5*%
X205787500Y-80200000D03*
X203887500Y-80200000D03*
%TD*%
D32*
%TO.C,R35*%
X178670000Y-54400000D03*
X176845000Y-54400000D03*
%TD*%
D38*
%TO.C,JP2*%
X144240000Y-84600000D03*
D39*
X141700000Y-84600000D03*
%TD*%
D46*
%TO.C,H3*%
X123100000Y-50300000D03*
%TD*%
D22*
%TO.C,R33*%
X174300000Y-124412500D03*
X174300000Y-122587500D03*
%TD*%
D35*
%TO.C,TP2*%
X150400000Y-119200000D03*
%TD*%
D32*
%TO.C,R28*%
X162912500Y-68200000D03*
X161087500Y-68200000D03*
%TD*%
D40*
%TO.C,D7*%
X159000000Y-65900000D03*
X159000000Y-63100000D03*
%TD*%
D35*
%TO.C,TP3*%
X188800000Y-76900000D03*
%TD*%
D34*
%TO.C,L2*%
X180300000Y-70700000D03*
X181875000Y-70700000D03*
%TD*%
D19*
%TO.C,C17*%
X168870000Y-52700000D03*
X170770000Y-52700000D03*
%TD*%
D32*
%TO.C,R18*%
X174425000Y-81795000D03*
X172600000Y-81795000D03*
%TD*%
D44*
%TO.C,R8*%
X191525000Y-64530000D03*
X193350000Y-64530000D03*
%TD*%
%TO.C,R36*%
X173357500Y-54400000D03*
X175182500Y-54400000D03*
%TD*%
D47*
%TO.C,R24*%
X170337500Y-84195000D03*
X170337500Y-86020000D03*
%TD*%
D44*
%TO.C,R4*%
X203975000Y-82500000D03*
X205800000Y-82500000D03*
%TD*%
D48*
%TO.C,J6*%
X187050000Y-51050000D03*
X199750000Y-51050000D03*
D49*
X189840000Y-53590000D03*
D50*
X190856000Y-55370000D03*
X191872000Y-53590000D03*
X192888000Y-55370000D03*
X193904000Y-53590000D03*
X194920000Y-55370000D03*
X195936000Y-53590000D03*
X196952000Y-55370000D03*
D51*
X185270000Y-54480000D03*
X201530000Y-54480000D03*
%TD*%
D42*
%TO.C,J3*%
X123900000Y-109600000D03*
D43*
X123900000Y-112100000D03*
X123900000Y-114600000D03*
X123900000Y-117100000D03*
%TD*%
D44*
%TO.C,R10*%
X191525000Y-71030000D03*
X193350000Y-71030000D03*
%TD*%
D38*
%TO.C,JP1*%
X196900000Y-65300000D03*
D39*
X199440000Y-65300000D03*
%TD*%
D52*
%TO.C,K1*%
X155375000Y-60400000D03*
D51*
X145215000Y-60400000D03*
X137595000Y-60400000D03*
X140135000Y-68020000D03*
X155375000Y-68020000D03*
%TD*%
D35*
%TO.C,TP1*%
X154000000Y-119100000D03*
%TD*%
D53*
%TO.C,D10*%
X170670000Y-48400000D03*
X167870000Y-48400000D03*
%TD*%
D36*
%TO.C,J7*%
X149900000Y-101700000D03*
D37*
X152400000Y-101700000D03*
X154900000Y-101700000D03*
%TD*%
D44*
%TO.C,R5*%
X203962500Y-84500000D03*
X205787500Y-84500000D03*
%TD*%
D19*
%TO.C,C11*%
X172575000Y-76195000D03*
X174475000Y-76195000D03*
%TD*%
D44*
%TO.C,R12*%
X139915000Y-88700000D03*
X141740000Y-88700000D03*
%TD*%
D32*
%TO.C,R14*%
X138052500Y-91100000D03*
X136227500Y-91100000D03*
%TD*%
%TO.C,R11*%
X196862500Y-71030000D03*
X195037500Y-71030000D03*
%TD*%
D44*
%TO.C,R25*%
X168712500Y-87795000D03*
X170537500Y-87795000D03*
%TD*%
D32*
%TO.C,R20*%
X174425000Y-90300000D03*
X172600000Y-90300000D03*
%TD*%
D34*
%TO.C,L3*%
X136190000Y-96600000D03*
X137765000Y-96600000D03*
%TD*%
D47*
%TO.C,R22*%
X164200000Y-84100000D03*
X164200000Y-85925000D03*
%TD*%
D22*
%TO.C,R34*%
X180900000Y-124412500D03*
X180900000Y-122587500D03*
%TD*%
D54*
%TO.C,L1*%
X203900000Y-71687500D03*
X203900000Y-70112500D03*
%TD*%
D45*
%TO.C,D4*%
X171875000Y-73257500D03*
X169975000Y-73257500D03*
X170925000Y-75132500D03*
%TD*%
D32*
%TO.C,R27*%
X180812500Y-97600000D03*
X178987500Y-97600000D03*
%TD*%
D18*
%TO.C,C16*%
X190500000Y-89000000D03*
X188600000Y-89000000D03*
%TD*%
D44*
%TO.C,R19*%
X172600000Y-84000000D03*
X174425000Y-84000000D03*
%TD*%
%TO.C,R15*%
X136365000Y-83750000D03*
X138190000Y-83750000D03*
%TD*%
D35*
%TO.C,TP6*%
X161700000Y-73000000D03*
%TD*%
D55*
%TO.C,Y2*%
X163100000Y-79345000D03*
X163100000Y-76845000D03*
%TD*%
D56*
%TO.C,C10*%
X172935000Y-77995000D03*
X174485000Y-77995000D03*
%TD*%
D44*
%TO.C,R7*%
X203962500Y-78200000D03*
X205787500Y-78200000D03*
%TD*%
D57*
%TO.C,H2*%
X207500000Y-50100000D03*
%TD*%
D22*
%TO.C,R1*%
X209400000Y-97825000D03*
X209400000Y-96000000D03*
%TD*%
D58*
%TO.C,D9*%
X179300000Y-127637500D03*
X176300000Y-127637500D03*
X176300000Y-126137500D03*
X179300000Y-126137500D03*
%TD*%
D34*
%TO.C,L5*%
X168795000Y-54575000D03*
X170370000Y-54575000D03*
%TD*%
D41*
%TO.C,Q3*%
X166800000Y-60900000D03*
X166800000Y-59000000D03*
X164925000Y-59950000D03*
%TD*%
D59*
%TO.C,U3*%
X140260000Y-96375000D03*
X141530000Y-96375000D03*
X142800000Y-96375000D03*
X144070000Y-96375000D03*
X144070000Y-91425000D03*
X142800000Y-91425000D03*
X141530000Y-91425000D03*
X140260000Y-91425000D03*
%TD*%
D44*
%TO.C,R26*%
X178987500Y-94400000D03*
X180812500Y-94400000D03*
%TD*%
%TO.C,R31*%
X162775000Y-94500000D03*
X164600000Y-94500000D03*
%TD*%
D60*
%TO.C,D6*%
X166937500Y-70500000D03*
X165062500Y-70500000D03*
%TD*%
D45*
%TO.C,Q2*%
X162400000Y-84382500D03*
X160500000Y-84382500D03*
X161450000Y-86257500D03*
%TD*%
D22*
%TO.C,R32*%
X177600000Y-124412500D03*
X177600000Y-122587500D03*
%TD*%
D61*
%TO.C,U1*%
X191750000Y-73020000D03*
X191750000Y-74290000D03*
X191750000Y-75560000D03*
X191750000Y-76830000D03*
X191750000Y-78100000D03*
X191750000Y-79370000D03*
X191750000Y-80640000D03*
X191750000Y-81910000D03*
X191750000Y-83180000D03*
X201050000Y-83180000D03*
X201050000Y-81910000D03*
X201050000Y-80640000D03*
X201050000Y-79370000D03*
X201050000Y-78100000D03*
X201050000Y-76830000D03*
X201050000Y-75560000D03*
X201050000Y-74290000D03*
X201050000Y-73020000D03*
%TD*%
D21*
%TO.C,U2*%
X184375000Y-67225000D03*
X184375000Y-68495000D03*
X184375000Y-69765000D03*
X184375000Y-71035000D03*
X189325000Y-71035000D03*
X189325000Y-69765000D03*
X189325000Y-68495000D03*
X189325000Y-67225000D03*
%TD*%
D19*
%TO.C,C15*%
X193850000Y-89000000D03*
X195750000Y-89000000D03*
%TD*%
D46*
%TO.C,H4*%
X123000000Y-125900000D03*
%TD*%
D36*
%TO.C,J4*%
X150700000Y-124900000D03*
D37*
X153200000Y-124900000D03*
X155700000Y-124900000D03*
X158200000Y-124900000D03*
X160700000Y-124900000D03*
X163200000Y-124900000D03*
X165700000Y-124900000D03*
X168200000Y-124900000D03*
%TD*%
D22*
%TO.C,R37*%
X195600000Y-124412500D03*
X195600000Y-122587500D03*
%TD*%
D18*
%TO.C,C12*%
X162900000Y-61600000D03*
X161000000Y-61600000D03*
%TD*%
D62*
%TO.C,D11*%
X192200000Y-124475000D03*
X192200000Y-122600000D03*
%TD*%
D44*
%TO.C,R30*%
X165175000Y-67300000D03*
X167000000Y-67300000D03*
%TD*%
D18*
%TO.C,C9*%
X138127500Y-93200000D03*
X136227500Y-93200000D03*
%TD*%
D41*
%TO.C,Q7*%
X164337500Y-92650000D03*
X164337500Y-90750000D03*
X162462500Y-91700000D03*
%TD*%
D60*
%TO.C,D5*%
X174425000Y-88300000D03*
X172550000Y-88300000D03*
%TD*%
D44*
%TO.C,R9*%
X191525000Y-67830000D03*
X193350000Y-67830000D03*
%TD*%
D63*
%TO.C,D2*%
X198650000Y-69130000D03*
X198650000Y-71030000D03*
X200525000Y-70080000D03*
%TD*%
D35*
%TO.C,BZ1*%
X152300000Y-88300000D03*
D23*
X152300000Y-95900000D03*
%TD*%
D15*
%TO.C,J8*%
X128927500Y-58700000D03*
D16*
X128927500Y-63700000D03*
X128927500Y-68700000D03*
%TD*%
D22*
%TO.C,R38*%
X202300000Y-124425000D03*
X202300000Y-122600000D03*
%TD*%
D53*
%TO.C,D1*%
X206775000Y-74000000D03*
X203975000Y-74000000D03*
%TD*%
D32*
%TO.C,R17*%
X174425000Y-79795000D03*
X172600000Y-79795000D03*
%TD*%
D62*
%TO.C,D12*%
X198900000Y-124537500D03*
X198900000Y-122662500D03*
%TD*%
D57*
%TO.C,H1*%
X207500000Y-126100000D03*
%TD*%
D35*
%TO.C,TP5*%
X179400000Y-88700000D03*
%TD*%
D64*
%TO.C,C3*%
X205600000Y-71650000D03*
X205600000Y-70100000D03*
%TD*%
D44*
%TO.C,R29*%
X165187500Y-64000000D03*
X167012500Y-64000000D03*
%TD*%
D65*
%TO.C,BT1*%
X179670000Y-79295001D03*
D66*
X159180000Y-79295001D03*
%TD*%
M02*
