%TF.GenerationSoftware,KiCad,Pcbnew,9.0.6*%
%TF.CreationDate,2025-11-04T19:56:49+01:00*%
%TF.ProjectId,Load_Board,4c6f6164-5f42-46f6-9172-642e6b696361,1.0*%
%TF.SameCoordinates,Original*%
%TF.FileFunction,Soldermask,Bot*%
%TF.FilePolarity,Negative*%
%FSLAX46Y46*%
G04 Gerber Fmt 4.6, Leading zero omitted, Abs format (unit mm)*
G04 Created by KiCad (PCBNEW 9.0.6) date 2025-11-04 19:56:49*
%MOMM*%
%LPD*%
G01*
G04 APERTURE LIST*
G04 Aperture macros list*
%AMRoundRect*
0 Rectangle with rounded corners*
0 $1 Rounding radius*
0 $2 $3 $4 $5 $6 $7 $8 $9 X,Y pos of 4 corners*
0 Add a 4 corners polygon primitive as box body*
4,1,4,$2,$3,$4,$5,$6,$7,$8,$9,$2,$3,0*
0 Add four circle primitives for the rounded corners*
1,1,$1+$1,$2,$3*
1,1,$1+$1,$4,$5*
1,1,$1+$1,$6,$7*
1,1,$1+$1,$8,$9*
0 Add four rect primitives between the rounded corners*
20,1,$1+$1,$2,$3,$4,$5,0*
20,1,$1+$1,$4,$5,$6,$7,0*
20,1,$1+$1,$6,$7,$8,$9,0*
20,1,$1+$1,$8,$9,$2,$3,0*%
G04 Aperture macros list end*
%ADD10C,5.600000*%
%ADD11R,1.700000X1.700000*%
%ADD12C,1.700000*%
%ADD13C,1.600000*%
%ADD14C,2.000000*%
%ADD15RoundRect,0.250000X-0.550000X-0.550000X0.550000X-0.550000X0.550000X0.550000X-0.550000X0.550000X0*%
%ADD16RoundRect,0.250000X-0.600000X-0.600000X0.600000X-0.600000X0.600000X0.600000X-0.600000X0.600000X0*%
%ADD17C,1.500000*%
%ADD18R,2.000000X2.000000*%
G04 APERTURE END LIST*
D10*
%TO.C,H4*%
X246450000Y-128700000D03*
%TD*%
D11*
%TO.C,J15*%
X147500000Y-116350000D03*
D12*
X150040000Y-116350000D03*
%TD*%
D11*
%TO.C,J16*%
X155850000Y-115500000D03*
D12*
X158390000Y-115500000D03*
%TD*%
D13*
%TO.C,L4*%
X153865000Y-92100000D03*
X151325000Y-92100000D03*
%TD*%
%TO.C,L5*%
X153575000Y-97450000D03*
X151035000Y-97450000D03*
%TD*%
D11*
%TO.C,J17*%
X157525000Y-97450000D03*
%TD*%
%TO.C,J21*%
X157997500Y-92100000D03*
%TD*%
%TO.C,J32*%
X147997500Y-92100000D03*
%TD*%
%TO.C,J28*%
X147925000Y-97450000D03*
%TD*%
%TO.C,J70*%
X133825000Y-68500000D03*
%TD*%
%TO.C,J64*%
X126600000Y-68500000D03*
%TD*%
%TO.C,J72*%
X133862500Y-78250000D03*
%TD*%
%TO.C,J65*%
X126600000Y-73350000D03*
%TD*%
%TO.C,J66*%
X126612500Y-78200000D03*
%TD*%
%TO.C,J71*%
X133800000Y-73350000D03*
%TD*%
%TO.C,J29*%
X148025000Y-77450000D03*
%TD*%
%TO.C,J18*%
X155425000Y-77450000D03*
%TD*%
%TO.C,J30*%
X148025000Y-82350000D03*
%TD*%
%TO.C,J20*%
X157075000Y-87250000D03*
%TD*%
%TO.C,J31*%
X148025000Y-87250000D03*
%TD*%
%TO.C,J19*%
X155975000Y-82400000D03*
%TD*%
D12*
%TO.C,J6*%
X142327500Y-111975000D03*
D11*
X139787500Y-111975000D03*
%TD*%
%TO.C,J5*%
X130362500Y-112725000D03*
D12*
X132902500Y-112725000D03*
%TD*%
D11*
%TO.C,J55*%
X146100000Y-71150000D03*
%TD*%
%TO.C,J46*%
X138900000Y-71150000D03*
%TD*%
%TO.C,J53*%
X146150000Y-61450000D03*
%TD*%
%TO.C,J54*%
X146100000Y-66300000D03*
%TD*%
%TO.C,J44*%
X138900000Y-61450000D03*
%TD*%
%TO.C,J45*%
X138900000Y-66300000D03*
%TD*%
%TO.C,J77*%
X167450000Y-71150000D03*
%TD*%
D14*
%TO.C,SW2*%
X172260000Y-91190000D03*
X178760000Y-91190000D03*
X172260000Y-95690000D03*
X178760000Y-95690000D03*
%TD*%
D11*
%TO.C,J36*%
X138150000Y-83800000D03*
%TD*%
%TO.C,J75*%
X167500000Y-61050000D03*
%TD*%
%TO.C,J57*%
X191100000Y-69300000D03*
%TD*%
%TO.C,J82*%
X151150000Y-66200000D03*
%TD*%
%TO.C,J49*%
X198690000Y-73500000D03*
%TD*%
%TO.C,J33*%
X245900000Y-74800000D03*
%TD*%
%TO.C,J39*%
X223200000Y-78300000D03*
%TD*%
%TO.C,J27*%
X125750000Y-93400000D03*
%TD*%
D10*
%TO.C,H2*%
X125050000Y-61050000D03*
%TD*%
D11*
%TO.C,J84*%
X237950000Y-122692500D03*
%TD*%
%TO.C,J58*%
X203540000Y-73500000D03*
%TD*%
D13*
%TO.C,R35*%
X154170000Y-66250000D03*
X164330000Y-66250000D03*
%TD*%
D11*
%TO.C,J43*%
X181600000Y-82000000D03*
%TD*%
D13*
%TO.C,C8*%
X218350000Y-89000000D03*
X214850000Y-89000000D03*
%TD*%
D11*
%TO.C,J13*%
X147070000Y-107750000D03*
D12*
X149610000Y-107750000D03*
%TD*%
D15*
%TO.C,U2*%
X182970000Y-91195000D03*
D13*
X182970000Y-93735000D03*
X182970000Y-96275000D03*
X182970000Y-98815000D03*
X182970000Y-101355000D03*
X182970000Y-103895000D03*
X182970000Y-106435000D03*
X182970000Y-108975000D03*
X182970000Y-111515000D03*
X182970000Y-114055000D03*
X182970000Y-116595000D03*
X182970000Y-119135000D03*
X182970000Y-121675000D03*
X182970000Y-124215000D03*
X190590000Y-124215000D03*
X190590000Y-121675000D03*
X190590000Y-119135000D03*
X190590000Y-116595000D03*
X190590000Y-114055000D03*
X190590000Y-111515000D03*
X190590000Y-108975000D03*
X190590000Y-106435000D03*
X190590000Y-103895000D03*
X190590000Y-101355000D03*
X190590000Y-98815000D03*
X190590000Y-96275000D03*
X190590000Y-93735000D03*
X190590000Y-91195000D03*
%TD*%
D11*
%TO.C,J69*%
X186075000Y-82050000D03*
%TD*%
%TO.C,J22*%
X233150000Y-74650000D03*
%TD*%
%TO.C,J78*%
X226550000Y-122692500D03*
%TD*%
%TO.C,J38*%
X138150000Y-93450000D03*
%TD*%
%TO.C,J92*%
X167880000Y-100210000D03*
D12*
X167880000Y-102750000D03*
X167880000Y-105290000D03*
X167880000Y-107830000D03*
X167880000Y-110370000D03*
X167880000Y-112910000D03*
X167880000Y-115450000D03*
X167880000Y-117990000D03*
X167880000Y-120530000D03*
X167880000Y-123070000D03*
%TD*%
D11*
%TO.C,J35*%
X245900000Y-84600000D03*
%TD*%
D13*
%TO.C,R34*%
X154170000Y-61050000D03*
X164330000Y-61050000D03*
%TD*%
D16*
%TO.C,J90*%
X216120000Y-103490000D03*
D12*
X218660000Y-103490000D03*
X216120000Y-106030000D03*
X218660000Y-106030000D03*
X216120000Y-108570000D03*
X218660000Y-108570000D03*
X216120000Y-111110000D03*
X218660000Y-111110000D03*
X216120000Y-113650000D03*
X218660000Y-113650000D03*
%TD*%
D11*
%TO.C,J76*%
X167500000Y-66200000D03*
%TD*%
%TO.C,J42*%
X181750000Y-77150000D03*
%TD*%
%TO.C,J93*%
X164210000Y-100210000D03*
D12*
X164210000Y-102750000D03*
X164210000Y-105290000D03*
X164210000Y-107830000D03*
X164210000Y-110370000D03*
X164210000Y-112910000D03*
X164210000Y-115450000D03*
X164210000Y-117990000D03*
X164210000Y-120530000D03*
X164210000Y-123070000D03*
%TD*%
D11*
%TO.C,J3*%
X124200000Y-100230000D03*
D12*
X124200000Y-102770000D03*
X124200000Y-105310000D03*
X124200000Y-107850000D03*
X124200000Y-110390000D03*
X124200000Y-112930000D03*
%TD*%
D11*
%TO.C,J10*%
X139200000Y-128625000D03*
D12*
X141740000Y-128625000D03*
%TD*%
D11*
%TO.C,J62*%
X173950000Y-77150000D03*
%TD*%
D17*
%TO.C,Y4*%
X173425000Y-110375000D03*
X173425000Y-115255000D03*
%TD*%
D11*
%TO.C,J51*%
X193425000Y-77050000D03*
%TD*%
%TO.C,J56*%
X178600000Y-69375000D03*
%TD*%
%TO.C,J8*%
X139475000Y-103900000D03*
D12*
X142015000Y-103900000D03*
%TD*%
D13*
%TO.C,C3*%
X167000000Y-77150000D03*
X164500000Y-77150000D03*
%TD*%
D11*
%TO.C,J34*%
X245900000Y-79740000D03*
%TD*%
%TO.C,J41*%
X170350000Y-82150000D03*
%TD*%
D13*
%TO.C,C7*%
X218350000Y-78300000D03*
X214850000Y-78300000D03*
%TD*%
D11*
%TO.C,J1*%
X218610000Y-62150000D03*
D12*
X221150000Y-62150000D03*
X218610000Y-64690000D03*
X221150000Y-64690000D03*
X218610000Y-67230000D03*
X221150000Y-67230000D03*
X218610000Y-69770000D03*
X221150000Y-69770000D03*
%TD*%
D14*
%TO.C,SW1*%
X239750000Y-106950000D03*
X246250000Y-106950000D03*
X239750000Y-111450000D03*
X246250000Y-111450000D03*
%TD*%
D11*
%TO.C,J48*%
X186200000Y-69325000D03*
%TD*%
%TO.C,J87*%
X228250000Y-94950000D03*
%TD*%
%TO.C,J59*%
X210000000Y-78250000D03*
%TD*%
D17*
%TO.C,Y2*%
X186220000Y-63400000D03*
X191100000Y-63400000D03*
%TD*%
D11*
%TO.C,J89*%
X202300000Y-94100000D03*
D12*
X204840000Y-94100000D03*
X202300000Y-96640000D03*
X204840000Y-96640000D03*
X202300000Y-99180000D03*
X204840000Y-99180000D03*
X202300000Y-101720000D03*
X204840000Y-101720000D03*
X202300000Y-104260000D03*
X204840000Y-104260000D03*
X202300000Y-106800000D03*
X204840000Y-106800000D03*
X202300000Y-109340000D03*
X204840000Y-109340000D03*
X202300000Y-111880000D03*
X204840000Y-111880000D03*
X202300000Y-114420000D03*
X204840000Y-114420000D03*
X202300000Y-116960000D03*
X204840000Y-116960000D03*
%TD*%
D11*
%TO.C,J2*%
X236800000Y-62150000D03*
D12*
X239340000Y-62150000D03*
X236800000Y-64690000D03*
X239340000Y-64690000D03*
X236800000Y-67230000D03*
X239340000Y-67230000D03*
X236800000Y-69770000D03*
X239340000Y-69770000D03*
%TD*%
D11*
%TO.C,J81*%
X151150000Y-61050000D03*
%TD*%
%TO.C,J40*%
X170100000Y-77150000D03*
%TD*%
%TO.C,J74*%
X235450000Y-112200000D03*
%TD*%
D13*
%TO.C,R36*%
X154170000Y-71150000D03*
X164330000Y-71150000D03*
%TD*%
D11*
%TO.C,J63*%
X173900000Y-82000000D03*
%TD*%
D17*
%TO.C,Y1*%
X173695000Y-63425000D03*
X178575000Y-63425000D03*
%TD*%
D11*
%TO.C,J12*%
X139475000Y-120400000D03*
D12*
X142015000Y-120400000D03*
%TD*%
D11*
%TO.C,J4*%
X147760000Y-127000000D03*
D12*
X150300000Y-127000000D03*
X152840000Y-127000000D03*
X155380000Y-127000000D03*
X157920000Y-127000000D03*
X160460000Y-127000000D03*
%TD*%
D11*
%TO.C,J68*%
X186175000Y-77150000D03*
%TD*%
%TO.C,J7*%
X130225000Y-104575000D03*
D12*
X132765000Y-104575000D03*
%TD*%
D11*
%TO.C,J26*%
X125750000Y-88550000D03*
%TD*%
%TO.C,J86*%
X241950000Y-117592500D03*
%TD*%
%TO.C,J80*%
X230500000Y-117792500D03*
%TD*%
%TO.C,J60*%
X161400000Y-77150000D03*
%TD*%
%TO.C,J79*%
X234300000Y-122692500D03*
%TD*%
%TO.C,J37*%
X138150000Y-88700000D03*
%TD*%
%TO.C,J50*%
X223150000Y-89000000D03*
%TD*%
%TO.C,J61*%
X161550000Y-82150000D03*
%TD*%
%TO.C,J85*%
X245750000Y-122692500D03*
%TD*%
D10*
%TO.C,H3*%
X125050000Y-128850000D03*
%TD*%
D11*
%TO.C,J14*%
X155270000Y-106800000D03*
D12*
X157810000Y-106800000D03*
%TD*%
D11*
%TO.C,J52*%
X193425000Y-82050000D03*
%TD*%
%TO.C,J73*%
X235450000Y-107250000D03*
%TD*%
%TO.C,J24*%
X233150000Y-84450000D03*
%TD*%
%TO.C,J25*%
X125750000Y-83750000D03*
%TD*%
D15*
%TO.C,U1*%
X225195000Y-61890000D03*
D13*
X225195000Y-64430000D03*
X225195000Y-66970000D03*
X225195000Y-69510000D03*
X232815000Y-69510000D03*
X232815000Y-66970000D03*
X232815000Y-64430000D03*
X232815000Y-61890000D03*
%TD*%
D11*
%TO.C,J11*%
X131350000Y-120800000D03*
D12*
X133890000Y-120800000D03*
%TD*%
D17*
%TO.C,Y3*%
X198660000Y-63400000D03*
X203540000Y-63400000D03*
%TD*%
D11*
%TO.C,J47*%
X173725000Y-69350000D03*
%TD*%
D13*
%TO.C,C4*%
X167150000Y-82150000D03*
X164650000Y-82150000D03*
%TD*%
D11*
%TO.C,J83*%
X151150000Y-71200000D03*
%TD*%
%TO.C,J67*%
X210050000Y-89000000D03*
%TD*%
D18*
%TO.C,BZ1*%
X232650000Y-94950000D03*
D14*
X240250000Y-94950000D03*
%TD*%
D10*
%TO.C,H1*%
X246450000Y-61050000D03*
%TD*%
D11*
%TO.C,J88*%
X244750000Y-94950000D03*
%TD*%
%TO.C,J23*%
X233150000Y-79600000D03*
%TD*%
%TO.C,J9*%
X131250000Y-129175000D03*
D12*
X133790000Y-129175000D03*
%TD*%
M02*
