%TF.GenerationSoftware,KiCad,Pcbnew,9.0.6*%
%TF.CreationDate,2025-11-04T19:56:49+01:00*%
%TF.ProjectId,Load_Board,4c6f6164-5f42-46f6-9172-642e6b696361,1.0*%
%TF.SameCoordinates,Original*%
%TF.FileFunction,Paste,Top*%
%TF.FilePolarity,Positive*%
%FSLAX46Y46*%
G04 Gerber Fmt 4.6, Leading zero omitted, Abs format (unit mm)*
G04 Created by KiCad (PCBNEW 9.0.6) date 2025-11-04 19:56:49*
%MOMM*%
%LPD*%
G01*
G04 APERTURE LIST*
G04 Aperture macros list*
%AMRoundRect*
0 Rectangle with rounded corners*
0 $1 Rounding radius*
0 $2 $3 $4 $5 $6 $7 $8 $9 X,Y pos of 4 corners*
0 Add a 4 corners polygon primitive as box body*
4,1,4,$2,$3,$4,$5,$6,$7,$8,$9,$2,$3,0*
0 Add four circle primitives for the rounded corners*
1,1,$1+$1,$2,$3*
1,1,$1+$1,$4,$5*
1,1,$1+$1,$6,$7*
1,1,$1+$1,$8,$9*
0 Add four rect primitives between the rounded corners*
20,1,$1+$1,$2,$3,$4,$5,0*
20,1,$1+$1,$4,$5,$6,$7,0*
20,1,$1+$1,$6,$7,$8,$9,0*
20,1,$1+$1,$8,$9,$2,$3,0*%
G04 Aperture macros list end*
%ADD10RoundRect,0.150000X-0.587500X-0.150000X0.587500X-0.150000X0.587500X0.150000X-0.587500X0.150000X0*%
%ADD11RoundRect,0.250000X-0.262500X-0.450000X0.262500X-0.450000X0.262500X0.450000X-0.262500X0.450000X0*%
%ADD12RoundRect,0.250000X0.262500X0.450000X-0.262500X0.450000X-0.262500X-0.450000X0.262500X-0.450000X0*%
%ADD13RoundRect,0.237500X0.287500X0.237500X-0.287500X0.237500X-0.287500X-0.237500X0.287500X-0.237500X0*%
%ADD14RoundRect,0.250000X0.275000X0.350000X-0.275000X0.350000X-0.275000X-0.350000X0.275000X-0.350000X0*%
%ADD15RoundRect,0.250000X0.362500X0.700000X-0.362500X0.700000X-0.362500X-0.700000X0.362500X-0.700000X0*%
%ADD16RoundRect,0.250000X-0.337500X-0.475000X0.337500X-0.475000X0.337500X0.475000X-0.337500X0.475000X0*%
%ADD17RoundRect,0.250000X0.325000X0.450000X-0.325000X0.450000X-0.325000X-0.450000X0.325000X-0.450000X0*%
%ADD18RoundRect,0.250000X0.337500X0.475000X-0.337500X0.475000X-0.337500X-0.475000X0.337500X-0.475000X0*%
%ADD19RoundRect,0.150000X0.150000X-0.587500X0.150000X0.587500X-0.150000X0.587500X-0.150000X-0.587500X0*%
%ADD20RoundRect,0.237500X0.300000X0.237500X-0.300000X0.237500X-0.300000X-0.237500X0.300000X-0.237500X0*%
%ADD21RoundRect,0.250000X-0.475000X0.337500X-0.475000X-0.337500X0.475000X-0.337500X0.475000X0.337500X0*%
%ADD22RoundRect,0.250000X0.475000X-0.337500X0.475000X0.337500X-0.475000X0.337500X-0.475000X-0.337500X0*%
G04 APERTURE END LIST*
D10*
%TO.C,Q5*%
X153400000Y-112550000D03*
X151525000Y-113500000D03*
X151525000Y-111600000D03*
%TD*%
D11*
%TO.C,R17*%
X157075000Y-112550000D03*
X155250000Y-112550000D03*
%TD*%
D12*
%TO.C,R15*%
X147875000Y-111550000D03*
X149700000Y-111550000D03*
%TD*%
%TO.C,R13*%
X147875000Y-113500000D03*
X149700000Y-113500000D03*
%TD*%
%TO.C,R31*%
X129300000Y-68500000D03*
X131125000Y-68500000D03*
%TD*%
%TO.C,R33*%
X129337500Y-78250000D03*
X131162500Y-78250000D03*
%TD*%
%TO.C,R32*%
X129275000Y-73350000D03*
X131100000Y-73350000D03*
%TD*%
D13*
%TO.C,L1*%
X150850000Y-77450000D03*
X152600000Y-77450000D03*
%TD*%
D14*
%TO.C,L2*%
X150862500Y-82350000D03*
X153162500Y-82350000D03*
%TD*%
D15*
%TO.C,L3*%
X150900000Y-87250000D03*
X154225000Y-87250000D03*
%TD*%
D11*
%TO.C,R6*%
X140712500Y-109025000D03*
X138887500Y-109025000D03*
%TD*%
D12*
%TO.C,R4*%
X133387500Y-108000000D03*
X131562500Y-108000000D03*
%TD*%
D10*
%TO.C,Q2*%
X137062500Y-109025000D03*
X135187500Y-109975000D03*
X135187500Y-108075000D03*
%TD*%
D12*
%TO.C,R2*%
X131575000Y-109925000D03*
X133400000Y-109925000D03*
%TD*%
%TO.C,R24*%
X241212500Y-80700000D03*
X239387500Y-80700000D03*
%TD*%
D11*
%TO.C,R22*%
X239375000Y-77450000D03*
X241200000Y-77450000D03*
%TD*%
D16*
%TO.C,C2*%
X239125000Y-84000000D03*
X241200000Y-84000000D03*
%TD*%
D12*
%TO.C,R19*%
X226625000Y-74600000D03*
X228450000Y-74600000D03*
%TD*%
%TO.C,R21*%
X241200000Y-74200000D03*
X239375000Y-74200000D03*
%TD*%
D16*
%TO.C,C1*%
X228487500Y-84400000D03*
X226412500Y-84400000D03*
%TD*%
D12*
%TO.C,R23*%
X226662500Y-81150000D03*
X228487500Y-81150000D03*
%TD*%
D11*
%TO.C,R20*%
X228500000Y-77900000D03*
X226675000Y-77900000D03*
%TD*%
D12*
%TO.C,R29*%
X130612500Y-88550000D03*
X128787500Y-88550000D03*
%TD*%
D17*
%TO.C,D2*%
X134700000Y-88510000D03*
X132650000Y-88510000D03*
%TD*%
D12*
%TO.C,R27*%
X143425000Y-71150000D03*
X141600000Y-71150000D03*
%TD*%
%TO.C,R25*%
X143425000Y-61450000D03*
X141600000Y-61450000D03*
%TD*%
%TO.C,R26*%
X143425000Y-66300000D03*
X141600000Y-66300000D03*
%TD*%
D16*
%TO.C,C17*%
X193755000Y-115590000D03*
X195830000Y-115590000D03*
%TD*%
%TO.C,C20*%
X177412500Y-114225000D03*
X179487500Y-114225000D03*
%TD*%
D11*
%TO.C,R37*%
X172275000Y-98510000D03*
X174100000Y-98510000D03*
%TD*%
%TO.C,R11*%
X138937500Y-117150000D03*
X140762500Y-117150000D03*
%TD*%
D12*
%TO.C,R30*%
X130612500Y-93450000D03*
X128787500Y-93450000D03*
%TD*%
D11*
%TO.C,R18*%
X154710000Y-103850000D03*
X156535000Y-103850000D03*
%TD*%
D16*
%TO.C,C16*%
X193765000Y-112360000D03*
X195840000Y-112360000D03*
%TD*%
D14*
%TO.C,L6*%
X195880000Y-118730000D03*
X193580000Y-118730000D03*
%TD*%
D11*
%TO.C,R5*%
X139350000Y-100600000D03*
X141175000Y-100600000D03*
%TD*%
D16*
%TO.C,C19*%
X177312500Y-98430000D03*
X179387500Y-98430000D03*
%TD*%
D12*
%TO.C,R8*%
X133425000Y-126300000D03*
X131600000Y-126300000D03*
%TD*%
D18*
%TO.C,C6*%
X178787500Y-82020000D03*
X176712500Y-82020000D03*
%TD*%
D19*
%TO.C,Q7*%
X229570000Y-122702500D03*
X231470000Y-122702500D03*
X230520000Y-120827500D03*
%TD*%
%TO.C,Q8*%
X240950000Y-122692500D03*
X242850000Y-122692500D03*
X241900000Y-120817500D03*
%TD*%
D12*
%TO.C,R1*%
X133837500Y-101525000D03*
X132012500Y-101525000D03*
%TD*%
D17*
%TO.C,D3*%
X134700000Y-93320000D03*
X132650000Y-93320000D03*
%TD*%
D10*
%TO.C,Q1*%
X135637500Y-99650000D03*
X135637500Y-101550000D03*
X137512500Y-100600000D03*
%TD*%
D11*
%TO.C,R12*%
X138925000Y-125425000D03*
X140750000Y-125425000D03*
%TD*%
D18*
%TO.C,C5*%
X178900000Y-77150000D03*
X176825000Y-77150000D03*
%TD*%
D12*
%TO.C,R7*%
X133412500Y-118050000D03*
X131587500Y-118050000D03*
%TD*%
D20*
%TO.C,C10*%
X190600000Y-82050000D03*
X188875000Y-82050000D03*
%TD*%
D12*
%TO.C,R3*%
X133837500Y-99575000D03*
X132012500Y-99575000D03*
%TD*%
%TO.C,R10*%
X133425000Y-124350000D03*
X131600000Y-124350000D03*
%TD*%
D10*
%TO.C,Q3*%
X135237500Y-116200000D03*
X135237500Y-118100000D03*
X137112500Y-117150000D03*
%TD*%
D12*
%TO.C,R28*%
X130612500Y-83750000D03*
X128787500Y-83750000D03*
%TD*%
D16*
%TO.C,C15*%
X177625000Y-107225000D03*
X179700000Y-107225000D03*
%TD*%
D21*
%TO.C,C12*%
X203540000Y-67512500D03*
X203540000Y-69587500D03*
%TD*%
D10*
%TO.C,Q6*%
X151010000Y-102900000D03*
X151010000Y-104800000D03*
X152885000Y-103850000D03*
%TD*%
D22*
%TO.C,C11*%
X198690000Y-69575000D03*
X198690000Y-67500000D03*
%TD*%
D12*
%TO.C,R14*%
X149197500Y-104750000D03*
X147372500Y-104750000D03*
%TD*%
D18*
%TO.C,C13*%
X195797500Y-108990000D03*
X193722500Y-108990000D03*
%TD*%
%TO.C,C18*%
X179475000Y-110975000D03*
X177400000Y-110975000D03*
%TD*%
D17*
%TO.C,D1*%
X134700000Y-83800000D03*
X132650000Y-83800000D03*
%TD*%
D12*
%TO.C,R16*%
X149197500Y-102800000D03*
X147372500Y-102800000D03*
%TD*%
%TO.C,R9*%
X133412500Y-116100000D03*
X131587500Y-116100000D03*
%TD*%
D10*
%TO.C,Q4*%
X135200000Y-124475000D03*
X135200000Y-126375000D03*
X137075000Y-125425000D03*
%TD*%
D16*
%TO.C,C14*%
X177637500Y-103950000D03*
X179712500Y-103950000D03*
%TD*%
D20*
%TO.C,C9*%
X190675000Y-77150000D03*
X188950000Y-77150000D03*
%TD*%
M02*
