M48
; DRILL file {KiCad 9.0.6} date 2025-11-04T19:56:51+0100
; FORMAT={-:-/ absolute / metric / decimal}
; #@! TF.CreationDate,2025-11-04T19:56:51+01:00
; #@! TF.GenerationSoftware,Kicad,Pcbnew,9.0.6
; #@! TF.FileFunction,Plated,1,2,PTH
FMAT,2
METRIC
; #@! TA.AperFunction,Plated,PTH,ViaDrill
T1C0.300
; #@! TA.AperFunction,Plated,PTH,ComponentDrill
T2C0.800
; #@! TA.AperFunction,Plated,PTH,ComponentDrill
T3C1.000
; #@! TA.AperFunction,Plated,PTH,ComponentDrill
T4C1.100
; #@! TA.AperFunction,Plated,PTH,ComponentDrill
T5C3.200
%
G90
G05
T1
X146.2Y-109.9
X155.6Y-119.4
X218.1Y-116.27
T2
X151.035Y-97.45
X151.325Y-92.1
X153.575Y-97.45
X153.865Y-92.1
X154.17Y-61.05
X154.17Y-66.25
X154.17Y-71.15
X164.33Y-61.05
X164.33Y-66.25
X164.33Y-71.15
X164.5Y-77.15
X164.65Y-82.15
X167.0Y-77.15
X167.15Y-82.15
X173.425Y-110.375
X173.425Y-115.255
X173.695Y-63.425
X178.575Y-63.425
X182.97Y-91.195
X182.97Y-93.735
X182.97Y-96.275
X182.97Y-98.815
X182.97Y-101.355
X182.97Y-103.895
X182.97Y-106.435
X182.97Y-108.975
X182.97Y-111.515
X182.97Y-114.055
X182.97Y-116.595
X182.97Y-119.135
X182.97Y-121.675
X182.97Y-124.215
X186.22Y-63.4
X190.59Y-91.195
X190.59Y-93.735
X190.59Y-96.275
X190.59Y-98.815
X190.59Y-101.355
X190.59Y-103.895
X190.59Y-106.435
X190.59Y-108.975
X190.59Y-111.515
X190.59Y-114.055
X190.59Y-116.595
X190.59Y-119.135
X190.59Y-121.675
X190.59Y-124.215
X191.1Y-63.4
X198.66Y-63.4
X203.54Y-63.4
X214.85Y-78.3
X214.85Y-89.0
X218.35Y-78.3
X218.35Y-89.0
X225.195Y-61.89
X225.195Y-64.43
X225.195Y-66.97
X225.195Y-69.51
X232.815Y-61.89
X232.815Y-64.43
X232.815Y-66.97
X232.815Y-69.51
T3
X124.2Y-100.23
X124.2Y-102.77
X124.2Y-105.31
X124.2Y-107.85
X124.2Y-110.39
X124.2Y-112.93
X125.75Y-83.75
X125.75Y-88.55
X125.75Y-93.4
X126.6Y-68.5
X126.6Y-73.35
X126.612Y-78.2
X130.225Y-104.575
X130.362Y-112.725
X131.25Y-129.175
X131.35Y-120.8
X132.765Y-104.575
X132.903Y-112.725
X133.79Y-129.175
X133.8Y-73.35
X133.825Y-68.5
X133.862Y-78.25
X133.89Y-120.8
X138.15Y-83.8
X138.15Y-88.7
X138.15Y-93.45
X138.9Y-61.45
X138.9Y-66.3
X138.9Y-71.15
X139.2Y-128.625
X139.475Y-103.9
X139.475Y-120.4
X139.787Y-111.975
X141.74Y-128.625
X142.015Y-103.9
X142.015Y-120.4
X142.327Y-111.975
X146.1Y-66.3
X146.1Y-71.15
X146.15Y-61.45
X147.07Y-107.75
X147.5Y-116.35
X147.76Y-127.0
X147.925Y-97.45
X147.998Y-92.1
X148.025Y-77.45
X148.025Y-82.35
X148.025Y-87.25
X149.61Y-107.75
X150.04Y-116.35
X150.3Y-127.0
X151.15Y-61.05
X151.15Y-66.2
X151.15Y-71.2
X152.84Y-127.0
X155.27Y-106.8
X155.38Y-127.0
X155.425Y-77.45
X155.85Y-115.5
X155.975Y-82.4
X157.075Y-87.25
X157.525Y-97.45
X157.81Y-106.8
X157.92Y-127.0
X157.998Y-92.1
X158.39Y-115.5
X160.46Y-127.0
X161.4Y-77.15
X161.55Y-82.15
X164.21Y-100.21
X164.21Y-102.75
X164.21Y-105.29
X164.21Y-107.83
X164.21Y-110.37
X164.21Y-112.91
X164.21Y-115.45
X164.21Y-117.99
X164.21Y-120.53
X164.21Y-123.07
X167.45Y-71.15
X167.5Y-61.05
X167.5Y-66.2
X167.88Y-100.21
X167.88Y-102.75
X167.88Y-105.29
X167.88Y-107.83
X167.88Y-110.37
X167.88Y-112.91
X167.88Y-115.45
X167.88Y-117.99
X167.88Y-120.53
X167.88Y-123.07
X170.1Y-77.15
X170.35Y-82.15
X173.725Y-69.35
X173.9Y-82.0
X173.95Y-77.15
X178.6Y-69.375
X181.6Y-82.0
X181.75Y-77.15
X186.075Y-82.05
X186.175Y-77.15
X186.2Y-69.325
X191.1Y-69.3
X193.425Y-77.05
X193.425Y-82.05
X198.69Y-73.5
X202.3Y-94.1
X202.3Y-96.64
X202.3Y-99.18
X202.3Y-101.72
X202.3Y-104.26
X202.3Y-106.8
X202.3Y-109.34
X202.3Y-111.88
X202.3Y-114.42
X202.3Y-116.96
X203.54Y-73.5
X204.84Y-94.1
X204.84Y-96.64
X204.84Y-99.18
X204.84Y-101.72
X204.84Y-104.26
X204.84Y-106.8
X204.84Y-109.34
X204.84Y-111.88
X204.84Y-114.42
X204.84Y-116.96
X210.0Y-78.25
X210.05Y-89.0
X216.12Y-103.49
X216.12Y-106.03
X216.12Y-108.57
X216.12Y-111.11
X216.12Y-113.65
X218.61Y-62.15
X218.61Y-64.69
X218.61Y-67.23
X218.61Y-69.77
X218.66Y-103.49
X218.66Y-106.03
X218.66Y-108.57
X218.66Y-111.11
X218.66Y-113.65
X221.15Y-62.15
X221.15Y-64.69
X221.15Y-67.23
X221.15Y-69.77
X223.15Y-89.0
X223.2Y-78.3
X226.55Y-122.692
X228.25Y-94.95
X230.5Y-117.792
X232.65Y-94.95
X233.15Y-74.65
X233.15Y-79.6
X233.15Y-84.45
X234.3Y-122.692
X235.45Y-107.25
X235.45Y-112.2
X236.8Y-62.15
X236.8Y-64.69
X236.8Y-67.23
X236.8Y-69.77
X237.95Y-122.692
X239.34Y-62.15
X239.34Y-64.69
X239.34Y-67.23
X239.34Y-69.77
X240.25Y-94.95
X241.95Y-117.593
X244.75Y-94.95
X245.75Y-122.692
X245.9Y-74.8
X245.9Y-79.74
X245.9Y-84.6
T4
X172.26Y-91.19
X172.26Y-95.69
X178.76Y-91.19
X178.76Y-95.69
X239.75Y-106.95
X239.75Y-111.45
X246.25Y-106.95
X246.25Y-111.45
T5
X125.05Y-61.05
X125.05Y-128.85
X246.45Y-61.05
X246.45Y-128.7
M30
