%TF.GenerationSoftware,KiCad,Pcbnew,9.0.1*%
%TF.CreationDate,2025-06-21T17:44:41+02:00*%
%TF.ProjectId,PicoLogger_Small,5069636f-4c6f-4676-9765-725f536d616c,rev?*%
%TF.SameCoordinates,Original*%
%TF.FileFunction,Copper,L1,Top*%
%TF.FilePolarity,Positive*%
%FSLAX46Y46*%
G04 Gerber Fmt 4.6, Leading zero omitted, Abs format (unit mm)*
G04 Created by KiCad (PCBNEW 9.0.1) date 2025-06-21 17:44:41*
%MOMM*%
%LPD*%
G01*
G04 APERTURE LIST*
G04 Aperture macros list*
%AMRoundRect*
0 Rectangle with rounded corners*
0 $1 Rounding radius*
0 $2 $3 $4 $5 $6 $7 $8 $9 X,Y pos of 4 corners*
0 Add a 4 corners polygon primitive as box body*
4,1,4,$2,$3,$4,$5,$6,$7,$8,$9,$2,$3,0*
0 Add four circle primitives for the rounded corners*
1,1,$1+$1,$2,$3*
1,1,$1+$1,$4,$5*
1,1,$1+$1,$6,$7*
1,1,$1+$1,$8,$9*
0 Add four rect primitives between the rounded corners*
20,1,$1+$1,$2,$3,$4,$5,0*
20,1,$1+$1,$4,$5,$6,$7,0*
20,1,$1+$1,$6,$7,$8,$9,0*
20,1,$1+$1,$8,$9,$2,$3,0*%
%AMFreePoly0*
4,1,37,0.603843,0.796157,0.639018,0.796157,0.711114,0.766294,0.766294,0.711114,0.796157,0.639018,0.796157,0.603843,0.800000,0.600000,0.800000,-0.600000,0.796157,-0.603843,0.796157,-0.639018,0.766294,-0.711114,0.711114,-0.766294,0.639018,-0.796157,0.603843,-0.796157,0.600000,-0.800000,0.000000,-0.800000,0.000000,-0.796148,-0.078414,-0.796148,-0.232228,-0.765552,-0.377117,-0.705537,
-0.507515,-0.618408,-0.618408,-0.507515,-0.705537,-0.377117,-0.765552,-0.232228,-0.796148,-0.078414,-0.796148,0.078414,-0.765552,0.232228,-0.705537,0.377117,-0.618408,0.507515,-0.507515,0.618408,-0.377117,0.705537,-0.232228,0.765552,-0.078414,0.796148,0.000000,0.796148,0.000000,0.800000,0.600000,0.800000,0.603843,0.796157,0.603843,0.796157,$1*%
%AMFreePoly1*
4,1,37,0.000000,0.796148,0.078414,0.796148,0.232228,0.765552,0.377117,0.705537,0.507515,0.618408,0.618408,0.507515,0.705537,0.377117,0.765552,0.232228,0.796148,0.078414,0.796148,-0.078414,0.765552,-0.232228,0.705537,-0.377117,0.618408,-0.507515,0.507515,-0.618408,0.377117,-0.705537,0.232228,-0.765552,0.078414,-0.796148,0.000000,-0.796148,0.000000,-0.800000,-0.600000,-0.800000,
-0.603843,-0.796157,-0.639018,-0.796157,-0.711114,-0.766294,-0.766294,-0.711114,-0.796157,-0.639018,-0.796157,-0.603843,-0.800000,-0.600000,-0.800000,0.600000,-0.796157,0.603843,-0.796157,0.639018,-0.766294,0.711114,-0.711114,0.766294,-0.639018,0.796157,-0.603843,0.796157,-0.600000,0.800000,0.000000,0.800000,0.000000,0.796148,0.000000,0.796148,$1*%
G04 Aperture macros list end*
%TA.AperFunction,ComponentPad*%
%ADD10R,1.700000X1.700000*%
%TD*%
%TA.AperFunction,ComponentPad*%
%ADD11C,1.700000*%
%TD*%
%TA.AperFunction,ComponentPad*%
%ADD12C,2.000000*%
%TD*%
%TA.AperFunction,SMDPad,CuDef*%
%ADD13RoundRect,0.250000X0.262500X0.450000X-0.262500X0.450000X-0.262500X-0.450000X0.262500X-0.450000X0*%
%TD*%
%TA.AperFunction,SMDPad,CuDef*%
%ADD14R,1.800000X1.000000*%
%TD*%
%TA.AperFunction,SMDPad,CuDef*%
%ADD15R,1.100000X1.500000*%
%TD*%
%TA.AperFunction,SMDPad,CuDef*%
%ADD16RoundRect,0.250000X-0.450000X0.262500X-0.450000X-0.262500X0.450000X-0.262500X0.450000X0.262500X0*%
%TD*%
%TA.AperFunction,ComponentPad*%
%ADD17R,2.000000X2.000000*%
%TD*%
%TA.AperFunction,SMDPad,CuDef*%
%ADD18RoundRect,0.250000X0.450000X-0.262500X0.450000X0.262500X-0.450000X0.262500X-0.450000X-0.262500X0*%
%TD*%
%TA.AperFunction,ComponentPad*%
%ADD19C,5.600000*%
%TD*%
%TA.AperFunction,SMDPad,CuDef*%
%ADD20RoundRect,0.250000X0.600000X-0.400000X0.600000X0.400000X-0.600000X0.400000X-0.600000X-0.400000X0*%
%TD*%
%TA.AperFunction,SMDPad,CuDef*%
%ADD21RoundRect,0.243750X0.456250X-0.243750X0.456250X0.243750X-0.456250X0.243750X-0.456250X-0.243750X0*%
%TD*%
%TA.AperFunction,ComponentPad*%
%ADD22RoundRect,0.200000X-0.600000X-0.600000X0.600000X-0.600000X0.600000X0.600000X-0.600000X0.600000X0*%
%TD*%
%TA.AperFunction,ComponentPad*%
%ADD23C,1.600000*%
%TD*%
%TA.AperFunction,ComponentPad*%
%ADD24FreePoly0,0.000000*%
%TD*%
%TA.AperFunction,ComponentPad*%
%ADD25FreePoly1,0.000000*%
%TD*%
%TA.AperFunction,SMDPad,CuDef*%
%ADD26RoundRect,0.150000X-0.825000X-0.150000X0.825000X-0.150000X0.825000X0.150000X-0.825000X0.150000X0*%
%TD*%
%TA.AperFunction,ComponentPad*%
%ADD27R,3.000000X3.000000*%
%TD*%
%TA.AperFunction,ComponentPad*%
%ADD28C,3.000000*%
%TD*%
%TA.AperFunction,ViaPad*%
%ADD29C,1.000000*%
%TD*%
%TA.AperFunction,Conductor*%
%ADD30C,0.600000*%
%TD*%
G04 APERTURE END LIST*
D10*
%TO.P,J4,1,Pin_1*%
%TO.N,+5V*%
X145385000Y-104080000D03*
D11*
%TO.P,J4,2,Pin_2*%
%TO.N,+3.3V*%
X145385000Y-101540000D03*
%TO.P,J4,3,Pin_3*%
%TO.N,GND*%
X145385000Y-99000000D03*
%TO.P,J4,4,Pin_4*%
%TO.N,SPI CSn*%
X145385000Y-96460000D03*
%TO.P,J4,5,Pin_5*%
%TO.N,SPI SCK*%
X145385000Y-93920000D03*
%TO.P,J4,6,Pin_6*%
%TO.N,SPI RX*%
X145385000Y-91380000D03*
%TO.P,J4,7,Pin_7*%
%TO.N,SPI TX*%
X145385000Y-88840000D03*
%TD*%
D12*
%TO.P,SW1,1,1*%
%TO.N,GND*%
X176750000Y-78750000D03*
X183250000Y-78750000D03*
%TO.P,SW1,2,2*%
%TO.N,GPIO17*%
X176750000Y-83250000D03*
X183250000Y-83250000D03*
%TD*%
D13*
%TO.P,R5,1*%
%TO.N,+5V*%
X166500000Y-100750000D03*
%TO.P,R5,2*%
%TO.N,SCL*%
X164675000Y-100750000D03*
%TD*%
D14*
%TO.P,Y1,1,1*%
%TO.N,Net-(U1-OSCO)*%
X154500000Y-99500000D03*
%TO.P,Y1,2,2*%
%TO.N,Net-(U1-OSCI)*%
X154500000Y-97000000D03*
%TD*%
D15*
%TO.P,D1,1,DO*%
%TO.N,Net-(D1-DO)*%
X182750000Y-69500000D03*
%TO.P,D1,2,GND*%
%TO.N,GND*%
X182750000Y-72500000D03*
%TO.P,D1,3,VDD*%
%TO.N,Net-(D1-VDD)*%
X181250000Y-72500000D03*
%TO.P,D1,4,DI*%
%TO.N,Net-(D1-DI)*%
X181250000Y-69500000D03*
%TD*%
D16*
%TO.P,R7,1*%
%TO.N,Net-(D2-A)*%
X168500000Y-93425000D03*
%TO.P,R7,2*%
%TO.N,+5V*%
X168500000Y-95250000D03*
%TD*%
D13*
%TO.P,R4,1*%
%TO.N,+5V*%
X166500000Y-104000000D03*
%TO.P,R4,2*%
%TO.N,SDA*%
X164675000Y-104000000D03*
%TD*%
D17*
%TO.P,BZ1,1,+*%
%TO.N,GPIO11*%
X145000000Y-74200000D03*
D12*
%TO.P,BZ1,2,-*%
%TO.N,GND*%
X145000000Y-81800000D03*
%TD*%
D18*
%TO.P,R8,1*%
%TO.N,GPIO9*%
X152000000Y-99162500D03*
%TO.P,R8,2*%
%TO.N,+5V*%
X152000000Y-97337500D03*
%TD*%
D12*
%TO.P,SW2,1,1*%
%TO.N,GND*%
X176750000Y-87750000D03*
X183250000Y-87750000D03*
%TO.P,SW2,2,2*%
%TO.N,GPIO16*%
X176750000Y-92250000D03*
X183250000Y-92250000D03*
%TD*%
D19*
%TO.P,H4,1,1*%
%TO.N,GND*%
X182000000Y-114000000D03*
%TD*%
D13*
%TO.P,R2,1*%
%TO.N,Net-(D1-DO)*%
X178500000Y-71500000D03*
%TO.P,R2,2*%
%TO.N,GPIO19*%
X176675000Y-71500000D03*
%TD*%
D19*
%TO.P,H1,1,1*%
%TO.N,GND*%
X182000000Y-39000000D03*
%TD*%
D20*
%TO.P,D4,1,K*%
%TO.N,Net-(D3-K)*%
X163000000Y-95750000D03*
%TO.P,D4,2,A*%
%TO.N,+BATT*%
X163000000Y-92250000D03*
%TD*%
D13*
%TO.P,R3,1*%
%TO.N,Net-(D1-VDD)*%
X178500000Y-75000000D03*
%TO.P,R3,2*%
%TO.N,GPIO18*%
X176675000Y-75000000D03*
%TD*%
D10*
%TO.P,J1,1,Pin_1*%
%TO.N,+3.3V*%
X149000000Y-38420000D03*
D11*
%TO.P,J1,2,Pin_2*%
%TO.N,GND*%
X149000000Y-40960000D03*
%TO.P,J1,3,Pin_3*%
%TO.N,SDA*%
X149000000Y-43500000D03*
%TO.P,J1,4,Pin_4*%
%TO.N,SCL*%
X149000000Y-46040000D03*
%TD*%
D20*
%TO.P,D3,1,K*%
%TO.N,Net-(D3-K)*%
X160500000Y-95750000D03*
%TO.P,D3,2,A*%
%TO.N,+5V*%
X160500000Y-92250000D03*
%TD*%
D21*
%TO.P,D2,1,K*%
%TO.N,GPIO10*%
X166500000Y-95250000D03*
%TO.P,D2,2,A*%
%TO.N,Net-(D2-A)*%
X166500000Y-93375000D03*
%TD*%
D10*
%TO.P,J2,1,Pin_1*%
%TO.N,GND*%
X145000000Y-38420000D03*
D11*
%TO.P,J2,2,Pin_2*%
%TO.N,+5V*%
X145000000Y-40960000D03*
%TO.P,J2,3,Pin_3*%
%TO.N,SDA*%
X145000000Y-43500000D03*
%TO.P,J2,4,Pin_4*%
%TO.N,SCL*%
X145000000Y-46040000D03*
%TD*%
D19*
%TO.P,H3,1,1*%
%TO.N,GND*%
X138500000Y-114000000D03*
%TD*%
%TO.P,H2,1,1*%
%TO.N,GND*%
X138500000Y-39000000D03*
%TD*%
D13*
%TO.P,R1,1*%
%TO.N,Net-(D1-DI)*%
X178500000Y-68000000D03*
%TO.P,R1,2*%
%TO.N,GPIO20*%
X176675000Y-68000000D03*
%TD*%
%TO.P,R6,1*%
%TO.N,+5V*%
X166500000Y-97750000D03*
%TO.P,R6,2*%
%TO.N,GPIO10*%
X164675000Y-97750000D03*
%TD*%
D22*
%TO.P,A1,1,GPIO0*%
%TO.N,SDA*%
X154610000Y-38245000D03*
D23*
%TO.P,A1,2,GPIO1*%
%TO.N,SCL*%
X154610000Y-40785000D03*
D24*
%TO.P,A1,3,GND*%
%TO.N,GND*%
X154610000Y-43325000D03*
D23*
%TO.P,A1,4,GPIO2*%
%TO.N,GPIO2*%
X154610000Y-45865000D03*
%TO.P,A1,5,GPIO3*%
%TO.N,unconnected-(A1-GPIO3-Pad5)*%
X154610000Y-48405000D03*
%TO.P,A1,6,GPIO4*%
%TO.N,TX*%
X154610000Y-50945000D03*
%TO.P,A1,7,GPIO5*%
%TO.N,RX*%
X154610000Y-53485000D03*
D24*
%TO.P,A1,8,GND*%
%TO.N,GND*%
X154610000Y-56025000D03*
D23*
%TO.P,A1,9,GPIO6*%
%TO.N,unconnected-(A1-GPIO6-Pad9)*%
X154610000Y-58565000D03*
%TO.P,A1,10,GPIO7*%
%TO.N,unconnected-(A1-GPIO7-Pad10)*%
X154610000Y-61105000D03*
%TO.P,A1,11,GPIO8*%
%TO.N,unconnected-(A1-GPIO8-Pad11)*%
X154610000Y-63645000D03*
%TO.P,A1,12,GPIO9*%
%TO.N,GPIO9*%
X154610000Y-66185000D03*
D24*
%TO.P,A1,13,GND*%
%TO.N,GND*%
X154610000Y-68725000D03*
D23*
%TO.P,A1,14,GPIO10*%
%TO.N,GPIO10*%
X154610000Y-71265000D03*
%TO.P,A1,15,GPIO11*%
%TO.N,GPIO11*%
X154610000Y-73805000D03*
%TO.P,A1,16,GPIO12*%
%TO.N,SPI RX*%
X154610000Y-76345000D03*
%TO.P,A1,17,GPIO13*%
%TO.N,SPI CSn*%
X154610000Y-78885000D03*
D24*
%TO.P,A1,18,GND*%
%TO.N,GND*%
X154610000Y-81425000D03*
D23*
%TO.P,A1,19,GPIO14*%
%TO.N,SPI SCK*%
X154610000Y-83965000D03*
%TO.P,A1,20,GPIO15*%
%TO.N,SPI TX*%
X154610000Y-86505000D03*
%TO.P,A1,21,GPIO16*%
%TO.N,GPIO16*%
X172390000Y-86505000D03*
%TO.P,A1,22,GPIO17*%
%TO.N,GPIO17*%
X172390000Y-83965000D03*
D25*
%TO.P,A1,23,GND*%
%TO.N,GND*%
X172390000Y-81425000D03*
D23*
%TO.P,A1,24,GPIO18*%
%TO.N,GPIO18*%
X172390000Y-78885000D03*
%TO.P,A1,25,GPIO19*%
%TO.N,GPIO19*%
X172390000Y-76345000D03*
%TO.P,A1,26,GPIO20*%
%TO.N,GPIO20*%
X172390000Y-73805000D03*
%TO.P,A1,27,GPIO21*%
%TO.N,unconnected-(A1-GPIO21-Pad27)*%
X172390000Y-71265000D03*
D25*
%TO.P,A1,28,GND*%
%TO.N,GND*%
X172390000Y-68725000D03*
D23*
%TO.P,A1,29,GPIO22*%
%TO.N,unconnected-(A1-GPIO22-Pad29)*%
X172390000Y-66185000D03*
%TO.P,A1,30,RUN*%
%TO.N,unconnected-(A1-RUN-Pad30)*%
X172390000Y-63645000D03*
%TO.P,A1,31,GPIO26_ADC0*%
%TO.N,unconnected-(A1-GPIO26_ADC0-Pad31)*%
X172390000Y-61105000D03*
%TO.P,A1,32,GPIO27_ADC1*%
%TO.N,unconnected-(A1-GPIO27_ADC1-Pad32)*%
X172390000Y-58565000D03*
D25*
%TO.P,A1,33,AGND*%
%TO.N,GND*%
X172390000Y-56025000D03*
D23*
%TO.P,A1,34,GPIO28_ADC2*%
%TO.N,unconnected-(A1-GPIO28_ADC2-Pad34)*%
X172390000Y-53485000D03*
%TO.P,A1,35,ADC_VREF*%
%TO.N,unconnected-(A1-ADC_VREF-Pad35)*%
X172390000Y-50945000D03*
%TO.P,A1,36,3V3*%
%TO.N,unconnected-(A1-3V3-Pad36)*%
X172390000Y-48405000D03*
%TO.P,A1,37,3V3_EN*%
%TO.N,unconnected-(A1-3V3_EN-Pad37)*%
X172390000Y-45865000D03*
D25*
%TO.P,A1,38,GND*%
%TO.N,GND*%
X172390000Y-43325000D03*
D23*
%TO.P,A1,39,VSYS*%
%TO.N,+3.3V*%
X172390000Y-40785000D03*
%TO.P,A1,40,VBUS*%
%TO.N,+5V*%
X172390000Y-38245000D03*
%TD*%
D10*
%TO.P,J3,1,Pin_1*%
%TO.N,RX*%
X145385000Y-69500000D03*
D11*
%TO.P,J3,2,Pin_2*%
%TO.N,TX*%
X145385000Y-66960000D03*
%TO.P,J3,3,Pin_3*%
%TO.N,GPIO2*%
X145385000Y-64420000D03*
%TO.P,J3,4,Pin_4*%
%TO.N,SDA*%
X145385000Y-61880000D03*
%TO.P,J3,5,Pin_5*%
%TO.N,SCL*%
X145385000Y-59340000D03*
%TO.P,J3,6,Pin_6*%
%TO.N,GND*%
X145385000Y-56800000D03*
%TO.P,J3,7,Pin_7*%
%TO.N,+3.3V*%
X145385000Y-54260000D03*
%TO.P,J3,8,Pin_8*%
%TO.N,+5V*%
X145385000Y-51720000D03*
%TD*%
D26*
%TO.P,U1,1,OSCI*%
%TO.N,Net-(U1-OSCI)*%
X157025000Y-97845000D03*
%TO.P,U1,2,OSCO*%
%TO.N,Net-(U1-OSCO)*%
X157025000Y-99115000D03*
%TO.P,U1,3,~{INT}*%
%TO.N,GPIO9*%
X157025000Y-100385000D03*
%TO.P,U1,4,VSS*%
%TO.N,GND*%
X157025000Y-101655000D03*
%TO.P,U1,5,SDA*%
%TO.N,SDA*%
X161975000Y-101655000D03*
%TO.P,U1,6,SCL*%
%TO.N,SCL*%
X161975000Y-100385000D03*
%TO.P,U1,7,CLKO*%
%TO.N,GPIO10*%
X161975000Y-99115000D03*
%TO.P,U1,8,VDD*%
%TO.N,Net-(D3-K)*%
X161975000Y-97845000D03*
%TD*%
D27*
%TO.P,BT1,1,+*%
%TO.N,+BATT*%
X174490000Y-103000000D03*
D28*
%TO.P,BT1,2,-*%
%TO.N,GND*%
X154000000Y-103000000D03*
%TD*%
D29*
%TO.N,+3.3V*%
X139250000Y-84750000D03*
X139000000Y-73500000D03*
X141500000Y-46500000D03*
X141500000Y-49500000D03*
%TO.N,SPI CSn*%
X148000000Y-78000000D03*
X151615000Y-78885000D03*
%TO.N,SCL*%
X159500000Y-98500000D03*
X156500000Y-75000000D03*
X157000000Y-71000000D03*
X158750000Y-96000000D03*
X149000000Y-51500000D03*
X149000000Y-49000000D03*
%TO.N,SPI TX*%
X151500000Y-86500000D03*
X148000000Y-86500000D03*
%TO.N,SDA*%
X156500000Y-77000000D03*
X157500000Y-72500000D03*
X147000000Y-48500000D03*
X147500000Y-60000000D03*
%TO.N,SPI SCK*%
X148000000Y-80000000D03*
X151535000Y-83965000D03*
%TO.N,+5V*%
X162000000Y-89500000D03*
X168000000Y-104500000D03*
X150000000Y-97250000D03*
%TO.N,SPI RX*%
X142500000Y-81500000D03*
X142500000Y-76000000D03*
%TO.N,GPIO2*%
X151000000Y-48500000D03*
X150000000Y-58000000D03*
%TO.N,GPIO10*%
X164675000Y-93750000D03*
X158500000Y-84000000D03*
X162500000Y-84500000D03*
X164675000Y-91000000D03*
%TO.N,GPIO9*%
X157000000Y-66000000D03*
X159500000Y-72000000D03*
X160500000Y-66000000D03*
X155500000Y-89500000D03*
X159500000Y-74500000D03*
X152500000Y-94500000D03*
X152500000Y-100750000D03*
X159000000Y-87000000D03*
%TD*%
D30*
%TO.N,SDA*%
X143500000Y-45000000D02*
X145000000Y-43500000D01*
X146500000Y-48000000D02*
X144000000Y-48000000D01*
X143500000Y-47500000D02*
X143500000Y-45000000D01*
X147000000Y-48500000D02*
X146500000Y-48000000D01*
X144000000Y-48000000D02*
X143500000Y-47500000D01*
%TO.N,+3.3V*%
X144000000Y-96000000D02*
X144000000Y-100155000D01*
X139500000Y-91500000D02*
X144000000Y-96000000D01*
X139250000Y-84750000D02*
X139500000Y-85000000D01*
X139500000Y-85000000D02*
X139500000Y-91500000D01*
X144000000Y-100155000D02*
X145385000Y-101540000D01*
%TO.N,GPIO11*%
X145800000Y-75000000D02*
X145000000Y-74200000D01*
X154610000Y-73805000D02*
X153415000Y-75000000D01*
X153415000Y-75000000D02*
X145800000Y-75000000D01*
%TO.N,SDA*%
X145000000Y-43500000D02*
X149000000Y-43500000D01*
%TO.N,SCL*%
X145040000Y-46000000D02*
X145000000Y-46040000D01*
X148960000Y-46000000D02*
X145040000Y-46000000D01*
X149000000Y-46040000D02*
X148960000Y-46000000D01*
X150500000Y-44540000D02*
X149000000Y-46040000D01*
X150500000Y-43500000D02*
X150500000Y-44540000D01*
X153215000Y-40785000D02*
X150500000Y-43500000D01*
X154610000Y-40785000D02*
X153215000Y-40785000D01*
%TO.N,RX*%
X153125000Y-52000000D02*
X154610000Y-53485000D01*
X152000000Y-52000000D02*
X153125000Y-52000000D01*
X152000000Y-67000000D02*
X152000000Y-52000000D01*
X147000000Y-67000000D02*
X152000000Y-67000000D01*
X147000000Y-67885000D02*
X147000000Y-67000000D01*
X145385000Y-69500000D02*
X147000000Y-67885000D01*
%TO.N,SDA*%
X145000000Y-61880000D02*
X145620000Y-61880000D01*
X145620000Y-61880000D02*
X147500000Y-60000000D01*
%TO.N,SPI CSn*%
X147000000Y-79000000D02*
X140500000Y-79000000D01*
X140500000Y-79000000D02*
X140500000Y-91000000D01*
X140500000Y-91000000D02*
X145500000Y-96000000D01*
X145500000Y-96000000D02*
X145500000Y-96270000D01*
X148000000Y-78000000D02*
X147000000Y-79000000D01*
%TO.N,+3.3V*%
X142500000Y-70000000D02*
X139000000Y-73500000D01*
X142500000Y-51760000D02*
X142500000Y-70000000D01*
X142500000Y-50500000D02*
X142500000Y-51760000D01*
X142500000Y-36000000D02*
X150000000Y-36000000D01*
X141500000Y-46500000D02*
X142500000Y-45500000D01*
X141500000Y-49500000D02*
X142500000Y-50500000D01*
X150000000Y-36000000D02*
X169000000Y-36000000D01*
X149000000Y-37000000D02*
X150000000Y-36000000D01*
X142500000Y-51760000D02*
X145000000Y-54260000D01*
X169000000Y-37395000D02*
X172390000Y-40785000D01*
X169000000Y-36000000D02*
X169000000Y-37395000D01*
X149000000Y-38420000D02*
X149000000Y-37000000D01*
X142500000Y-45500000D02*
X142500000Y-36000000D01*
%TO.N,SPI CSn*%
X154610000Y-78885000D02*
X151615000Y-78885000D01*
%TO.N,SCL*%
X149000000Y-51500000D02*
X149000000Y-55340000D01*
X161975000Y-100385000D02*
X164310000Y-100385000D01*
X157000000Y-71000000D02*
X158500000Y-69500000D01*
X157500000Y-76000000D02*
X156500000Y-75000000D01*
X158500000Y-69500000D02*
X158500000Y-41000000D01*
X154825000Y-41000000D02*
X154610000Y-40785000D01*
X160135000Y-100385000D02*
X161975000Y-100385000D01*
X149000000Y-46040000D02*
X149000000Y-49000000D01*
X159500000Y-98500000D02*
X159500000Y-99750000D01*
X158750000Y-96000000D02*
X157500000Y-96000000D01*
X159500000Y-99750000D02*
X160135000Y-100385000D01*
X164310000Y-100385000D02*
X164675000Y-100750000D01*
X145000000Y-59340000D02*
X149000000Y-55340000D01*
X158500000Y-41000000D02*
X154825000Y-41000000D01*
X157500000Y-96000000D02*
X157500000Y-76000000D01*
%TO.N,SPI TX*%
X154605000Y-86500000D02*
X151500000Y-86500000D01*
X154610000Y-86505000D02*
X154605000Y-86500000D01*
X154235000Y-86880000D02*
X154610000Y-86505000D01*
X145850000Y-88650000D02*
X148000000Y-86500000D01*
X145500000Y-88650000D02*
X145850000Y-88650000D01*
%TO.N,SDA*%
X159500000Y-70500000D02*
X157500000Y-72500000D01*
X159905000Y-101655000D02*
X161975000Y-101655000D01*
X164675000Y-104000000D02*
X164675000Y-104250000D01*
X164000000Y-103325000D02*
X164675000Y-104000000D01*
X159500000Y-40000000D02*
X159500000Y-70500000D01*
X156365000Y-40000000D02*
X159500000Y-40000000D01*
X164000000Y-102250000D02*
X164000000Y-103325000D01*
X163405000Y-101655000D02*
X164000000Y-102250000D01*
X156500000Y-77000000D02*
X156500000Y-97000000D01*
X158500000Y-100250000D02*
X159905000Y-101655000D01*
X158500000Y-97000000D02*
X158500000Y-100250000D01*
X149000000Y-43500000D02*
X154255000Y-38245000D01*
X156500000Y-97000000D02*
X158500000Y-97000000D01*
X154610000Y-38245000D02*
X156365000Y-40000000D01*
X161975000Y-101655000D02*
X163405000Y-101655000D01*
X154255000Y-38245000D02*
X154610000Y-38245000D01*
%TO.N,SPI SCK*%
X154610000Y-83965000D02*
X151535000Y-83965000D01*
X141500000Y-80000000D02*
X141500000Y-90000000D01*
X148000000Y-80000000D02*
X141500000Y-80000000D01*
X145230000Y-93730000D02*
X145500000Y-93730000D01*
X141500000Y-90000000D02*
X145230000Y-93730000D01*
%TO.N,+5V*%
X168500000Y-95250000D02*
X168500000Y-95750000D01*
X168500000Y-95750000D02*
X166500000Y-97750000D01*
X168000000Y-104500000D02*
X167500000Y-104000000D01*
X152000000Y-97337500D02*
X150087500Y-97337500D01*
X167500000Y-104000000D02*
X166500000Y-104000000D01*
X162000000Y-89500000D02*
X160500000Y-91000000D01*
X160500000Y-91000000D02*
X160500000Y-92250000D01*
X166500000Y-104000000D02*
X166500000Y-97750000D01*
X150087500Y-97337500D02*
X150000000Y-97250000D01*
%TO.N,SPI RX*%
X144190000Y-91190000D02*
X145500000Y-91190000D01*
X154265000Y-76000000D02*
X154610000Y-76345000D01*
X142500000Y-76000000D02*
X154265000Y-76000000D01*
X142500000Y-89500000D02*
X144190000Y-91190000D01*
X142500000Y-81500000D02*
X142500000Y-89500000D01*
%TO.N,GPIO16*%
X172390000Y-86505000D02*
X172390000Y-87890000D01*
X183250000Y-92250000D02*
X176750000Y-92250000D01*
X172390000Y-87890000D02*
X176750000Y-92250000D01*
%TO.N,GPIO2*%
X151000000Y-48000000D02*
X153135000Y-45865000D01*
X150000000Y-58000000D02*
X150000000Y-65000000D01*
X145965000Y-65000000D02*
X145385000Y-64420000D01*
X151000000Y-48500000D02*
X151000000Y-48000000D01*
X150000000Y-65000000D02*
X145965000Y-65000000D01*
X153135000Y-45865000D02*
X154610000Y-45865000D01*
%TO.N,TX*%
X146345000Y-66000000D02*
X145385000Y-66960000D01*
X151000000Y-66000000D02*
X146345000Y-66000000D01*
X154555000Y-51000000D02*
X151000000Y-51000000D01*
X151000000Y-51000000D02*
X151000000Y-66000000D01*
X154610000Y-50945000D02*
X154555000Y-51000000D01*
%TO.N,GPIO10*%
X164675000Y-97750000D02*
X164675000Y-96575000D01*
X164675000Y-96575000D02*
X165675000Y-96575000D01*
X161975000Y-99115000D02*
X164135000Y-99115000D01*
X158500000Y-75155000D02*
X154610000Y-71265000D01*
X158500000Y-84000000D02*
X158500000Y-75155000D01*
X164675000Y-96575000D02*
X164675000Y-93750000D01*
X165675000Y-96075000D02*
X166500000Y-95250000D01*
X165675000Y-96575000D02*
X165675000Y-96075000D01*
X162500000Y-86000000D02*
X164675000Y-88175000D01*
X162500000Y-84500000D02*
X162500000Y-86000000D01*
X164675000Y-98575000D02*
X164675000Y-97750000D01*
X164675000Y-88175000D02*
X164675000Y-91000000D01*
X164135000Y-99115000D02*
X164675000Y-98575000D01*
%TO.N,+BATT*%
X172000000Y-103000000D02*
X174490000Y-103000000D01*
X170000000Y-96000000D02*
X170000000Y-101000000D01*
X170000000Y-96000000D02*
X170000000Y-92250000D01*
X170000000Y-101000000D02*
X172000000Y-103000000D01*
X170000000Y-92250000D02*
X163000000Y-92250000D01*
X163000000Y-92000000D02*
X163250000Y-92250000D01*
%TO.N,Net-(D2-A)*%
X168450000Y-93375000D02*
X168500000Y-93425000D01*
X167050000Y-93425000D02*
X167000000Y-93375000D01*
X166500000Y-93375000D02*
X168450000Y-93375000D01*
%TO.N,GPIO17*%
X174035000Y-83965000D02*
X172390000Y-83965000D01*
X174035000Y-83965000D02*
X174750000Y-83250000D01*
X176750000Y-83250000D02*
X183250000Y-83250000D01*
X174750000Y-83250000D02*
X176750000Y-83250000D01*
%TO.N,GPIO20*%
X175000000Y-68000000D02*
X175000000Y-70865705D01*
X172390000Y-73475705D02*
X172390000Y-73805000D01*
X176675000Y-68000000D02*
X175000000Y-68000000D01*
X175000000Y-70865705D02*
X172390000Y-73475705D01*
%TO.N,GPIO18*%
X176675000Y-75000000D02*
X176000000Y-75000000D01*
X172390000Y-78610000D02*
X172390000Y-78885000D01*
X176000000Y-75000000D02*
X172390000Y-78610000D01*
%TO.N,GPIO19*%
X173000000Y-76000000D02*
X172735000Y-76000000D01*
X175000000Y-72000000D02*
X175000000Y-74000000D01*
X175500000Y-71500000D02*
X175000000Y-72000000D01*
X176675000Y-71500000D02*
X175500000Y-71500000D01*
X175000000Y-74000000D02*
X173000000Y-76000000D01*
%TO.N,Net-(D1-DI)*%
X181250000Y-68000000D02*
X178500000Y-68000000D01*
X181250000Y-69500000D02*
X181250000Y-68000000D01*
%TO.N,Net-(D1-VDD)*%
X181250000Y-72500000D02*
X181250000Y-75000000D01*
X181250000Y-75000000D02*
X178500000Y-75000000D01*
%TO.N,Net-(D1-DO)*%
X182500000Y-71000000D02*
X179000000Y-71000000D01*
X182750000Y-70750000D02*
X182500000Y-71000000D01*
X179000000Y-71000000D02*
X178500000Y-71500000D01*
X182750000Y-69500000D02*
X182750000Y-70750000D01*
%TO.N,Net-(D3-K)*%
X163495000Y-95745000D02*
X163495000Y-97845000D01*
X160500000Y-95750000D02*
X163490000Y-95750000D01*
X163495000Y-97845000D02*
X161975000Y-97845000D01*
X163490000Y-95750000D02*
X163495000Y-95745000D01*
%TO.N,Net-(U1-OSCI)*%
X155345000Y-97845000D02*
X154500000Y-97000000D01*
X157025000Y-97845000D02*
X155345000Y-97845000D01*
%TO.N,Net-(U1-OSCO)*%
X154885000Y-99115000D02*
X154500000Y-99500000D01*
X157025000Y-99115000D02*
X154885000Y-99115000D01*
%TO.N,GPIO9*%
X159500000Y-86500000D02*
X159000000Y-87000000D01*
X159500000Y-74500000D02*
X159500000Y-86500000D01*
X155500000Y-94000000D02*
X153000000Y-94000000D01*
X160500000Y-66000000D02*
X160500000Y-71000000D01*
X155500000Y-89500000D02*
X155500000Y-94000000D01*
X155500000Y-100750000D02*
X152500000Y-100750000D01*
X153000000Y-94000000D02*
X152500000Y-94500000D01*
X156315000Y-66185000D02*
X154610000Y-66185000D01*
X152500000Y-100750000D02*
X152000000Y-100250000D01*
X157000000Y-66000000D02*
X156500000Y-66000000D01*
X160500000Y-71000000D02*
X159500000Y-72000000D01*
X157025000Y-100385000D02*
X155865000Y-100385000D01*
X155865000Y-100385000D02*
X155500000Y-100750000D01*
X152000000Y-100250000D02*
X152000000Y-99162500D01*
X156500000Y-66000000D02*
X156315000Y-66185000D01*
%TD*%
%TA.AperFunction,Conductor*%
%TO.N,GND*%
G36*
X135205703Y-114487347D02*
G01*
X135243477Y-114546125D01*
X135246117Y-114556869D01*
X135295030Y-114802781D01*
X135295033Y-114802792D01*
X135389157Y-115113078D01*
X135513238Y-115412635D01*
X135513240Y-115412640D01*
X135666079Y-115698580D01*
X135666090Y-115698598D01*
X135846212Y-115968170D01*
X135846222Y-115968184D01*
X135995890Y-116150554D01*
X135995891Y-116150555D01*
X137205748Y-114940698D01*
X137279588Y-115042330D01*
X137457670Y-115220412D01*
X137559300Y-115294251D01*
X136349443Y-116504107D01*
X136349444Y-116504108D01*
X136531815Y-116653777D01*
X136531829Y-116653787D01*
X136801401Y-116833909D01*
X136801419Y-116833920D01*
X137087359Y-116986759D01*
X137087364Y-116986761D01*
X137386921Y-117110842D01*
X137697207Y-117204966D01*
X137697218Y-117204969D01*
X137943130Y-117253883D01*
X138005041Y-117286267D01*
X138039615Y-117346983D01*
X138035876Y-117416753D01*
X137995010Y-117473425D01*
X137929992Y-117499006D01*
X137918939Y-117499500D01*
X135124500Y-117499500D01*
X135057461Y-117479815D01*
X135011706Y-117427011D01*
X135000500Y-117375500D01*
X135000500Y-114581060D01*
X135020185Y-114514021D01*
X135072989Y-114468266D01*
X135142147Y-114458322D01*
X135205703Y-114487347D01*
G37*
%TD.AperFunction*%
%TA.AperFunction,Conductor*%
G36*
X181485978Y-35520185D02*
G01*
X181531733Y-35572989D01*
X181541677Y-35642147D01*
X181512652Y-35705703D01*
X181453874Y-35743477D01*
X181443130Y-35746117D01*
X181197218Y-35795030D01*
X181197207Y-35795033D01*
X180886921Y-35889157D01*
X180587364Y-36013238D01*
X180587359Y-36013240D01*
X180301419Y-36166079D01*
X180301401Y-36166090D01*
X180031829Y-36346212D01*
X180031815Y-36346222D01*
X179849444Y-36495890D01*
X179849443Y-36495891D01*
X181059301Y-37705748D01*
X180957670Y-37779588D01*
X180779588Y-37957670D01*
X180705748Y-38059301D01*
X179495891Y-36849443D01*
X179495890Y-36849444D01*
X179346222Y-37031815D01*
X179346212Y-37031829D01*
X179166090Y-37301401D01*
X179166079Y-37301419D01*
X179013240Y-37587359D01*
X179013238Y-37587364D01*
X178889157Y-37886921D01*
X178795033Y-38197207D01*
X178795030Y-38197218D01*
X178731782Y-38515198D01*
X178731779Y-38515215D01*
X178700000Y-38837884D01*
X178700000Y-39162115D01*
X178731779Y-39484784D01*
X178731782Y-39484801D01*
X178795030Y-39802781D01*
X178795033Y-39802792D01*
X178889157Y-40113078D01*
X179013238Y-40412635D01*
X179013240Y-40412640D01*
X179166079Y-40698580D01*
X179166090Y-40698598D01*
X179346212Y-40968170D01*
X179346222Y-40968184D01*
X179495890Y-41150554D01*
X179495891Y-41150555D01*
X180705748Y-39940698D01*
X180779588Y-40042330D01*
X180957670Y-40220412D01*
X181059300Y-40294251D01*
X179849443Y-41504107D01*
X179849444Y-41504108D01*
X180031815Y-41653777D01*
X180031829Y-41653787D01*
X180301401Y-41833909D01*
X180301419Y-41833920D01*
X180587359Y-41986759D01*
X180587364Y-41986761D01*
X180886921Y-42110842D01*
X181197207Y-42204966D01*
X181197218Y-42204969D01*
X181515198Y-42268217D01*
X181515215Y-42268220D01*
X181837884Y-42300000D01*
X182162116Y-42300000D01*
X182484784Y-42268220D01*
X182484801Y-42268217D01*
X182802781Y-42204969D01*
X182802792Y-42204966D01*
X183113078Y-42110842D01*
X183412635Y-41986761D01*
X183412640Y-41986759D01*
X183698580Y-41833920D01*
X183698598Y-41833909D01*
X183968170Y-41653787D01*
X183968183Y-41653777D01*
X184150554Y-41504108D01*
X184150554Y-41504107D01*
X182940698Y-40294251D01*
X183042330Y-40220412D01*
X183220412Y-40042330D01*
X183294251Y-39940698D01*
X184504107Y-41150554D01*
X184504108Y-41150554D01*
X184653777Y-40968183D01*
X184653787Y-40968170D01*
X184833909Y-40698598D01*
X184833920Y-40698580D01*
X184986759Y-40412640D01*
X184986761Y-40412635D01*
X185110842Y-40113078D01*
X185204966Y-39802792D01*
X185204969Y-39802781D01*
X185253883Y-39556869D01*
X185286267Y-39494958D01*
X185346983Y-39460384D01*
X185416752Y-39464123D01*
X185473425Y-39504989D01*
X185499006Y-39570007D01*
X185499500Y-39581060D01*
X185499500Y-113418939D01*
X185479815Y-113485978D01*
X185427011Y-113531733D01*
X185357853Y-113541677D01*
X185294297Y-113512652D01*
X185256523Y-113453874D01*
X185253883Y-113443130D01*
X185204969Y-113197218D01*
X185204966Y-113197207D01*
X185110842Y-112886921D01*
X184986761Y-112587364D01*
X184986759Y-112587359D01*
X184833920Y-112301419D01*
X184833909Y-112301401D01*
X184653787Y-112031829D01*
X184653777Y-112031815D01*
X184504108Y-111849444D01*
X184504107Y-111849443D01*
X183294250Y-113059299D01*
X183220412Y-112957670D01*
X183042330Y-112779588D01*
X182940697Y-112705747D01*
X184150555Y-111495891D01*
X184150554Y-111495890D01*
X183968184Y-111346222D01*
X183968170Y-111346212D01*
X183698598Y-111166090D01*
X183698580Y-111166079D01*
X183412640Y-111013240D01*
X183412635Y-111013238D01*
X183113078Y-110889157D01*
X182802792Y-110795033D01*
X182802781Y-110795030D01*
X182484801Y-110731782D01*
X182484784Y-110731779D01*
X182162116Y-110700000D01*
X181837884Y-110700000D01*
X181515215Y-110731779D01*
X181515198Y-110731782D01*
X181197218Y-110795030D01*
X181197207Y-110795033D01*
X180886921Y-110889157D01*
X180587364Y-111013238D01*
X180587359Y-111013240D01*
X180301419Y-111166079D01*
X180301401Y-111166090D01*
X180031829Y-111346212D01*
X180031815Y-111346222D01*
X179849444Y-111495890D01*
X179849443Y-111495891D01*
X181059301Y-112705748D01*
X180957670Y-112779588D01*
X180779588Y-112957670D01*
X180705748Y-113059301D01*
X179495891Y-111849443D01*
X179495890Y-111849444D01*
X179346222Y-112031815D01*
X179346212Y-112031829D01*
X179166090Y-112301401D01*
X179166079Y-112301419D01*
X179013240Y-112587359D01*
X179013238Y-112587364D01*
X178889157Y-112886921D01*
X178795033Y-113197207D01*
X178795030Y-113197218D01*
X178731782Y-113515198D01*
X178731779Y-113515215D01*
X178700000Y-113837884D01*
X178700000Y-114162115D01*
X178731779Y-114484784D01*
X178731782Y-114484801D01*
X178795030Y-114802781D01*
X178795033Y-114802792D01*
X178889157Y-115113078D01*
X179013238Y-115412635D01*
X179013240Y-115412640D01*
X179166079Y-115698580D01*
X179166090Y-115698598D01*
X179346212Y-115968170D01*
X179346222Y-115968184D01*
X179495890Y-116150554D01*
X179495891Y-116150555D01*
X180705748Y-114940698D01*
X180779588Y-115042330D01*
X180957670Y-115220412D01*
X181059300Y-115294251D01*
X179849443Y-116504107D01*
X179849444Y-116504108D01*
X180031815Y-116653777D01*
X180031829Y-116653787D01*
X180301401Y-116833909D01*
X180301419Y-116833920D01*
X180587359Y-116986759D01*
X180587364Y-116986761D01*
X180886921Y-117110842D01*
X181197207Y-117204966D01*
X181197218Y-117204969D01*
X181443130Y-117253883D01*
X181505041Y-117286267D01*
X181539615Y-117346983D01*
X181535876Y-117416753D01*
X181495010Y-117473425D01*
X181429992Y-117499006D01*
X181418939Y-117499500D01*
X139081061Y-117499500D01*
X139014022Y-117479815D01*
X138968267Y-117427011D01*
X138958323Y-117357853D01*
X138987348Y-117294297D01*
X139046126Y-117256523D01*
X139056870Y-117253883D01*
X139302781Y-117204969D01*
X139302792Y-117204966D01*
X139613078Y-117110842D01*
X139912635Y-116986761D01*
X139912640Y-116986759D01*
X140198580Y-116833920D01*
X140198598Y-116833909D01*
X140468170Y-116653787D01*
X140468183Y-116653777D01*
X140650554Y-116504108D01*
X140650554Y-116504107D01*
X139440698Y-115294251D01*
X139542330Y-115220412D01*
X139720412Y-115042330D01*
X139794251Y-114940698D01*
X141004107Y-116150554D01*
X141004108Y-116150554D01*
X141153777Y-115968183D01*
X141153787Y-115968170D01*
X141333909Y-115698598D01*
X141333920Y-115698580D01*
X141486759Y-115412640D01*
X141486761Y-115412635D01*
X141610842Y-115113078D01*
X141704966Y-114802792D01*
X141704969Y-114802781D01*
X141768217Y-114484801D01*
X141768220Y-114484784D01*
X141800000Y-114162115D01*
X141800000Y-113837884D01*
X141768220Y-113515215D01*
X141768217Y-113515198D01*
X141704969Y-113197218D01*
X141704966Y-113197207D01*
X141610842Y-112886921D01*
X141486761Y-112587364D01*
X141486759Y-112587359D01*
X141333920Y-112301419D01*
X141333909Y-112301401D01*
X141153787Y-112031829D01*
X141153777Y-112031815D01*
X141004108Y-111849444D01*
X141004107Y-111849443D01*
X139794250Y-113059300D01*
X139720412Y-112957670D01*
X139542330Y-112779588D01*
X139440697Y-112705747D01*
X140650555Y-111495891D01*
X140650554Y-111495890D01*
X140468184Y-111346222D01*
X140468170Y-111346212D01*
X140198598Y-111166090D01*
X140198580Y-111166079D01*
X139912640Y-111013240D01*
X139912635Y-111013238D01*
X139613078Y-110889157D01*
X139302792Y-110795033D01*
X139302781Y-110795030D01*
X138984801Y-110731782D01*
X138984784Y-110731779D01*
X138662116Y-110700000D01*
X138337884Y-110700000D01*
X138015215Y-110731779D01*
X138015198Y-110731782D01*
X137697218Y-110795030D01*
X137697207Y-110795033D01*
X137386921Y-110889157D01*
X137087364Y-111013238D01*
X137087359Y-111013240D01*
X136801419Y-111166079D01*
X136801401Y-111166090D01*
X136531829Y-111346212D01*
X136531815Y-111346222D01*
X136349444Y-111495890D01*
X136349443Y-111495891D01*
X137559301Y-112705748D01*
X137457670Y-112779588D01*
X137279588Y-112957670D01*
X137205748Y-113059301D01*
X135995891Y-111849443D01*
X135995890Y-111849444D01*
X135846222Y-112031815D01*
X135846212Y-112031829D01*
X135666090Y-112301401D01*
X135666079Y-112301419D01*
X135513240Y-112587359D01*
X135513238Y-112587364D01*
X135389157Y-112886921D01*
X135295033Y-113197207D01*
X135295030Y-113197218D01*
X135246117Y-113443130D01*
X135213733Y-113505041D01*
X135153017Y-113539615D01*
X135083247Y-113535876D01*
X135026575Y-113495010D01*
X135000994Y-113429992D01*
X135000500Y-113418939D01*
X135000500Y-84661304D01*
X138349500Y-84661304D01*
X138349500Y-84838695D01*
X138384103Y-85012658D01*
X138384106Y-85012667D01*
X138451983Y-85176540D01*
X138451990Y-85176553D01*
X138550535Y-85324034D01*
X138550538Y-85324038D01*
X138675964Y-85449464D01*
X138744391Y-85495185D01*
X138789196Y-85548797D01*
X138799500Y-85598287D01*
X138799500Y-91431006D01*
X138799500Y-91568994D01*
X138799500Y-91568996D01*
X138799499Y-91568996D01*
X138826418Y-91704322D01*
X138826421Y-91704332D01*
X138879222Y-91831807D01*
X138955887Y-91946545D01*
X138955888Y-91946546D01*
X143263181Y-96253838D01*
X143296666Y-96315161D01*
X143299500Y-96341519D01*
X143299500Y-100086006D01*
X143299500Y-100223994D01*
X143299500Y-100223996D01*
X143299499Y-100223996D01*
X143326418Y-100359322D01*
X143326421Y-100359332D01*
X143379222Y-100486807D01*
X143455887Y-100601545D01*
X143455888Y-100601546D01*
X144111895Y-101257552D01*
X144145380Y-101318875D01*
X144146687Y-101364630D01*
X144134500Y-101441577D01*
X144134500Y-101638422D01*
X144165290Y-101832826D01*
X144226117Y-102020029D01*
X144305334Y-102175500D01*
X144315476Y-102195405D01*
X144431172Y-102354646D01*
X144570354Y-102493828D01*
X144723621Y-102605184D01*
X144766285Y-102660512D01*
X144772264Y-102730125D01*
X144739658Y-102791920D01*
X144678819Y-102826278D01*
X144650735Y-102829500D01*
X144503482Y-102829500D01*
X144422519Y-102842323D01*
X144409696Y-102844354D01*
X144296658Y-102901950D01*
X144296657Y-102901951D01*
X144296652Y-102901954D01*
X144206954Y-102991652D01*
X144206951Y-102991657D01*
X144206950Y-102991658D01*
X144189175Y-103026543D01*
X144149352Y-103104698D01*
X144134500Y-103198475D01*
X144134500Y-104961517D01*
X144140595Y-104999999D01*
X144149354Y-105055304D01*
X144206950Y-105168342D01*
X144206952Y-105168344D01*
X144206954Y-105168347D01*
X144296652Y-105258045D01*
X144296654Y-105258046D01*
X144296658Y-105258050D01*
X144409694Y-105315645D01*
X144409698Y-105315647D01*
X144503475Y-105330499D01*
X144503481Y-105330500D01*
X146266518Y-105330499D01*
X146360304Y-105315646D01*
X146473342Y-105258050D01*
X146563050Y-105168342D01*
X146620646Y-105055304D01*
X146620646Y-105055302D01*
X146620647Y-105055301D01*
X146635500Y-104961524D01*
X146635500Y-104531965D01*
X146635499Y-103198482D01*
X146627525Y-103148135D01*
X146620646Y-103104696D01*
X146563050Y-102991658D01*
X146563046Y-102991654D01*
X146563045Y-102991652D01*
X146473347Y-102901954D01*
X146473344Y-102901952D01*
X146473342Y-102901950D01*
X146392889Y-102860957D01*
X146360301Y-102844352D01*
X146266524Y-102829500D01*
X146119266Y-102829500D01*
X146052227Y-102809815D01*
X146006472Y-102757011D01*
X145996528Y-102687853D01*
X146025553Y-102624297D01*
X146046375Y-102605186D01*
X146199646Y-102493828D01*
X146338828Y-102354646D01*
X146454524Y-102195405D01*
X146543884Y-102020025D01*
X146604709Y-101832826D01*
X146620471Y-101733308D01*
X146635500Y-101638422D01*
X146635500Y-101441577D01*
X146604709Y-101247173D01*
X146556727Y-101099501D01*
X146543884Y-101059975D01*
X146543882Y-101059972D01*
X146543882Y-101059970D01*
X146454523Y-100884594D01*
X146449306Y-100877413D01*
X146338828Y-100725354D01*
X146199646Y-100586172D01*
X146040405Y-100470476D01*
X145973370Y-100436320D01*
X145922574Y-100388345D01*
X145905779Y-100320524D01*
X145928316Y-100254389D01*
X145973370Y-100215350D01*
X146092554Y-100154622D01*
X146146716Y-100115270D01*
X146146717Y-100115270D01*
X145514409Y-99482962D01*
X145577993Y-99465925D01*
X145692007Y-99400099D01*
X145785099Y-99307007D01*
X145850925Y-99192993D01*
X145867962Y-99129408D01*
X146500270Y-99761717D01*
X146500270Y-99761716D01*
X146539622Y-99707554D01*
X146636095Y-99518217D01*
X146701757Y-99316130D01*
X146701757Y-99316127D01*
X146735000Y-99106246D01*
X146735000Y-98893753D01*
X146701757Y-98683872D01*
X146701757Y-98683869D01*
X146636095Y-98481782D01*
X146539624Y-98292449D01*
X146500270Y-98238282D01*
X146500269Y-98238282D01*
X145867962Y-98870590D01*
X145850925Y-98807007D01*
X145785099Y-98692993D01*
X145692007Y-98599901D01*
X145577993Y-98534075D01*
X145514407Y-98517036D01*
X146146716Y-97884728D01*
X146092547Y-97845373D01*
X146092542Y-97845370D01*
X145973370Y-97784648D01*
X145922574Y-97736674D01*
X145905779Y-97668853D01*
X145928317Y-97602718D01*
X145973370Y-97563679D01*
X146040405Y-97529524D01*
X146199646Y-97413828D01*
X146338828Y-97274646D01*
X146454524Y-97115405D01*
X146543884Y-96940025D01*
X146604709Y-96752826D01*
X146604880Y-96751744D01*
X146635500Y-96558422D01*
X146635500Y-96361577D01*
X146604709Y-96167173D01*
X146570389Y-96061549D01*
X146543884Y-95979975D01*
X146543882Y-95979972D01*
X146543882Y-95979970D01*
X146454523Y-95804594D01*
X146338828Y-95645354D01*
X146199646Y-95506172D01*
X146054202Y-95400500D01*
X146040403Y-95390474D01*
X145863787Y-95300485D01*
X145812990Y-95252511D01*
X145796195Y-95184690D01*
X145818732Y-95118555D01*
X145863787Y-95079515D01*
X146040403Y-94989525D01*
X146040402Y-94989525D01*
X146040405Y-94989524D01*
X146199646Y-94873828D01*
X146338828Y-94734646D01*
X146454524Y-94575405D01*
X146543884Y-94400025D01*
X146604709Y-94212826D01*
X146605266Y-94209311D01*
X146635500Y-94018422D01*
X146635500Y-93821577D01*
X146604709Y-93627173D01*
X146553471Y-93469482D01*
X146543884Y-93439975D01*
X146543882Y-93439972D01*
X146543882Y-93439970D01*
X146471755Y-93298413D01*
X146454524Y-93264595D01*
X146338828Y-93105354D01*
X146199646Y-92966172D01*
X146120025Y-92908324D01*
X146040403Y-92850474D01*
X145863787Y-92760485D01*
X145812990Y-92712511D01*
X145796195Y-92644690D01*
X145818732Y-92578555D01*
X145863787Y-92539515D01*
X146040403Y-92449525D01*
X146040402Y-92449525D01*
X146040405Y-92449524D01*
X146199646Y-92333828D01*
X146338828Y-92194646D01*
X146454524Y-92035405D01*
X146543884Y-91860025D01*
X146604709Y-91672826D01*
X146617890Y-91589603D01*
X146635500Y-91478422D01*
X146635500Y-91281577D01*
X146604709Y-91087173D01*
X146560822Y-90952104D01*
X146543884Y-90899975D01*
X146543882Y-90899972D01*
X146543882Y-90899970D01*
X146461018Y-90737341D01*
X146454524Y-90724595D01*
X146338828Y-90565354D01*
X146199646Y-90426172D01*
X146116680Y-90365893D01*
X146040403Y-90310474D01*
X145863787Y-90220485D01*
X145812990Y-90172511D01*
X145796195Y-90104690D01*
X145818732Y-90038555D01*
X145863787Y-89999515D01*
X146040403Y-89909525D01*
X146040402Y-89909525D01*
X146040405Y-89909524D01*
X146199646Y-89793828D01*
X146338828Y-89654646D01*
X146454524Y-89495405D01*
X146543884Y-89320025D01*
X146604709Y-89132826D01*
X146620533Y-89032918D01*
X146635500Y-88938422D01*
X146635500Y-88906518D01*
X146655185Y-88839479D01*
X146671814Y-88818842D01*
X148063925Y-87426730D01*
X148125246Y-87393247D01*
X148127237Y-87392831D01*
X148262666Y-87365894D01*
X148426547Y-87298013D01*
X148574035Y-87199464D01*
X148699464Y-87074035D01*
X148798013Y-86926547D01*
X148865894Y-86762666D01*
X148877498Y-86704332D01*
X148900499Y-86588695D01*
X148900500Y-86588693D01*
X148900500Y-86411306D01*
X148900499Y-86411304D01*
X148865896Y-86237341D01*
X148865893Y-86237332D01*
X148861463Y-86226638D01*
X148805919Y-86092540D01*
X148798016Y-86073459D01*
X148798009Y-86073446D01*
X148699464Y-85925965D01*
X148699461Y-85925961D01*
X148574038Y-85800538D01*
X148574034Y-85800535D01*
X148426553Y-85701990D01*
X148426540Y-85701983D01*
X148262667Y-85634106D01*
X148262658Y-85634103D01*
X148088694Y-85599500D01*
X148088691Y-85599500D01*
X147911309Y-85599500D01*
X147911306Y-85599500D01*
X147737341Y-85634103D01*
X147737332Y-85634106D01*
X147573459Y-85701983D01*
X147573446Y-85701990D01*
X147425965Y-85800535D01*
X147425961Y-85800538D01*
X147300538Y-85925961D01*
X147300535Y-85925965D01*
X147201990Y-86073446D01*
X147201983Y-86073459D01*
X147134106Y-86237332D01*
X147134104Y-86237340D01*
X147107202Y-86372586D01*
X147074817Y-86434496D01*
X147073266Y-86436075D01*
X145890982Y-87618359D01*
X145829659Y-87651844D01*
X145764984Y-87648609D01*
X145677828Y-87620291D01*
X145677829Y-87620291D01*
X145483422Y-87589500D01*
X145483417Y-87589500D01*
X145286583Y-87589500D01*
X145286578Y-87589500D01*
X145092173Y-87620290D01*
X144904970Y-87681117D01*
X144729594Y-87770476D01*
X144631518Y-87841733D01*
X144570354Y-87886172D01*
X144570351Y-87886174D01*
X144431174Y-88025351D01*
X144431174Y-88025352D01*
X144431172Y-88025354D01*
X144385869Y-88087708D01*
X144315476Y-88184594D01*
X144226117Y-88359970D01*
X144165290Y-88547173D01*
X144134500Y-88741577D01*
X144134500Y-88938422D01*
X144165290Y-89132826D01*
X144226117Y-89320029D01*
X144315476Y-89495405D01*
X144431172Y-89654646D01*
X144570354Y-89793828D01*
X144729595Y-89909524D01*
X144763005Y-89926547D01*
X144906213Y-89999515D01*
X144957009Y-90047489D01*
X144973804Y-90115310D01*
X144951267Y-90181445D01*
X144906213Y-90220485D01*
X144729591Y-90310478D01*
X144567112Y-90428526D01*
X144501306Y-90452006D01*
X144433252Y-90436180D01*
X144406546Y-90415889D01*
X143236819Y-89246162D01*
X143203334Y-89184839D01*
X143200500Y-89158481D01*
X143200500Y-82110099D01*
X143205827Y-82091955D01*
X143206165Y-82073046D01*
X143219665Y-82044828D01*
X143220185Y-82043060D01*
X143221398Y-82041208D01*
X143253299Y-81993465D01*
X143286370Y-81943970D01*
X143339981Y-81899167D01*
X143409306Y-81890460D01*
X143472333Y-81920614D01*
X143509053Y-81980057D01*
X143511944Y-81993465D01*
X143536934Y-82151247D01*
X143609897Y-82375802D01*
X143717087Y-82586174D01*
X143777338Y-82669104D01*
X143777340Y-82669105D01*
X144517037Y-81929408D01*
X144534075Y-81992993D01*
X144599901Y-82107007D01*
X144692993Y-82200099D01*
X144807007Y-82265925D01*
X144870590Y-82282962D01*
X144130893Y-83022658D01*
X144213828Y-83082914D01*
X144424197Y-83190102D01*
X144648752Y-83263065D01*
X144648751Y-83263065D01*
X144881948Y-83300000D01*
X145118052Y-83300000D01*
X145351247Y-83263065D01*
X145575802Y-83190102D01*
X145786163Y-83082918D01*
X145786169Y-83082914D01*
X145869104Y-83022658D01*
X145869105Y-83022658D01*
X145129408Y-82282962D01*
X145192993Y-82265925D01*
X145307007Y-82200099D01*
X145400099Y-82107007D01*
X145465925Y-81992993D01*
X145482962Y-81929409D01*
X146222658Y-82669105D01*
X146222658Y-82669104D01*
X146282914Y-82586169D01*
X146282918Y-82586163D01*
X146390102Y-82375802D01*
X146463065Y-82151247D01*
X146500000Y-81918052D01*
X146500000Y-81681947D01*
X146463065Y-81448751D01*
X146441208Y-81381481D01*
X146390101Y-81224195D01*
X146282912Y-81013825D01*
X146198314Y-80897385D01*
X146174834Y-80831579D01*
X146190659Y-80763525D01*
X146240765Y-80714830D01*
X146298632Y-80700500D01*
X147389900Y-80700500D01*
X147456939Y-80720185D01*
X147458788Y-80721396D01*
X147573453Y-80798013D01*
X147737334Y-80865894D01*
X147737336Y-80865894D01*
X147737341Y-80865896D01*
X147911304Y-80900499D01*
X147911307Y-80900500D01*
X147911309Y-80900500D01*
X148088693Y-80900500D01*
X148088694Y-80900499D01*
X148146682Y-80888964D01*
X148262658Y-80865896D01*
X148262661Y-80865894D01*
X148262666Y-80865894D01*
X148426547Y-80798013D01*
X148574035Y-80699464D01*
X148699464Y-80574035D01*
X148798013Y-80426547D01*
X148865894Y-80262666D01*
X148868414Y-80250000D01*
X148893946Y-80121641D01*
X148900500Y-80088691D01*
X148900500Y-79911309D01*
X148900500Y-79911306D01*
X148900499Y-79911304D01*
X148865896Y-79737341D01*
X148865893Y-79737332D01*
X148798016Y-79573459D01*
X148798009Y-79573446D01*
X148699464Y-79425965D01*
X148699461Y-79425961D01*
X148574038Y-79300538D01*
X148574034Y-79300535D01*
X148426553Y-79201990D01*
X148426540Y-79201983D01*
X148262667Y-79134106D01*
X148262659Y-79134104D01*
X148199879Y-79121616D01*
X148137968Y-79089231D01*
X148103394Y-79028515D01*
X148107135Y-78958745D01*
X148148001Y-78902073D01*
X148199877Y-78878383D01*
X148262666Y-78865894D01*
X148426547Y-78798013D01*
X148574035Y-78699464D01*
X148699464Y-78574035D01*
X148798013Y-78426547D01*
X148799001Y-78424163D01*
X148839486Y-78326421D01*
X148865894Y-78262666D01*
X148870904Y-78237482D01*
X148900499Y-78088695D01*
X148900500Y-78088693D01*
X148900500Y-77911306D01*
X148900499Y-77911304D01*
X148865896Y-77737341D01*
X148865893Y-77737332D01*
X148798016Y-77573459D01*
X148798009Y-77573446D01*
X148699464Y-77425965D01*
X148699461Y-77425961D01*
X148574038Y-77300538D01*
X148574034Y-77300535D01*
X148426553Y-77201990D01*
X148426540Y-77201983D01*
X148262667Y-77134106D01*
X148262658Y-77134103D01*
X148088694Y-77099500D01*
X148088691Y-77099500D01*
X147911309Y-77099500D01*
X147911306Y-77099500D01*
X147737341Y-77134103D01*
X147737332Y-77134106D01*
X147573459Y-77201983D01*
X147573446Y-77201990D01*
X147425965Y-77300535D01*
X147425961Y-77300538D01*
X147300538Y-77425961D01*
X147300535Y-77425965D01*
X147201990Y-77573446D01*
X147201983Y-77573459D01*
X147134106Y-77737332D01*
X147134104Y-77737340D01*
X147107202Y-77872586D01*
X147074817Y-77934496D01*
X147073267Y-77936075D01*
X146746160Y-78263182D01*
X146684839Y-78296666D01*
X146658481Y-78299500D01*
X140431005Y-78299500D01*
X140295677Y-78326418D01*
X140295667Y-78326421D01*
X140168195Y-78379221D01*
X140168182Y-78379228D01*
X140053458Y-78455885D01*
X140053454Y-78455888D01*
X139955888Y-78553454D01*
X139955885Y-78553458D01*
X139879228Y-78668182D01*
X139879221Y-78668195D01*
X139826421Y-78795667D01*
X139826418Y-78795677D01*
X139799500Y-78931004D01*
X139799500Y-83817336D01*
X139779815Y-83884375D01*
X139727011Y-83930130D01*
X139657853Y-83940074D01*
X139628049Y-83931898D01*
X139569038Y-83907456D01*
X139512666Y-83884106D01*
X139512662Y-83884105D01*
X139512658Y-83884103D01*
X139338694Y-83849500D01*
X139338691Y-83849500D01*
X139161309Y-83849500D01*
X139161306Y-83849500D01*
X138987341Y-83884103D01*
X138987332Y-83884106D01*
X138823459Y-83951983D01*
X138823446Y-83951990D01*
X138675965Y-84050535D01*
X138675961Y-84050538D01*
X138550538Y-84175961D01*
X138550535Y-84175965D01*
X138451990Y-84323446D01*
X138451983Y-84323459D01*
X138384106Y-84487332D01*
X138384103Y-84487341D01*
X138349500Y-84661304D01*
X135000500Y-84661304D01*
X135000500Y-39581060D01*
X135020185Y-39514021D01*
X135072989Y-39468266D01*
X135142147Y-39458322D01*
X135205703Y-39487347D01*
X135243477Y-39546125D01*
X135246117Y-39556869D01*
X135295030Y-39802781D01*
X135295033Y-39802792D01*
X135389157Y-40113078D01*
X135513238Y-40412635D01*
X135513240Y-40412640D01*
X135666079Y-40698580D01*
X135666090Y-40698598D01*
X135846212Y-40968170D01*
X135846222Y-40968184D01*
X135995890Y-41150554D01*
X135995891Y-41150555D01*
X137205748Y-39940698D01*
X137279588Y-40042330D01*
X137457670Y-40220412D01*
X137559300Y-40294251D01*
X136349443Y-41504107D01*
X136349444Y-41504108D01*
X136531815Y-41653777D01*
X136531829Y-41653787D01*
X136801401Y-41833909D01*
X136801419Y-41833920D01*
X137087359Y-41986759D01*
X137087364Y-41986761D01*
X137386921Y-42110842D01*
X137697207Y-42204966D01*
X137697218Y-42204969D01*
X138015198Y-42268217D01*
X138015215Y-42268220D01*
X138337884Y-42300000D01*
X138662116Y-42300000D01*
X138984784Y-42268220D01*
X138984801Y-42268217D01*
X139302781Y-42204969D01*
X139302792Y-42204966D01*
X139613078Y-42110842D01*
X139912635Y-41986761D01*
X139912640Y-41986759D01*
X140198580Y-41833920D01*
X140198598Y-41833909D01*
X140468170Y-41653787D01*
X140468183Y-41653777D01*
X140650554Y-41504108D01*
X140650554Y-41504107D01*
X139440698Y-40294251D01*
X139542330Y-40220412D01*
X139720412Y-40042330D01*
X139794251Y-39940698D01*
X141004107Y-41150554D01*
X141004108Y-41150554D01*
X141153777Y-40968183D01*
X141153787Y-40968170D01*
X141333909Y-40698598D01*
X141333920Y-40698580D01*
X141486759Y-40412640D01*
X141486761Y-40412635D01*
X141560939Y-40233555D01*
X141604780Y-40179152D01*
X141671074Y-40157087D01*
X141738773Y-40174366D01*
X141786384Y-40225503D01*
X141799500Y-40281008D01*
X141799500Y-45158480D01*
X141779815Y-45225519D01*
X141763181Y-45246161D01*
X141436075Y-45573266D01*
X141374752Y-45606751D01*
X141372586Y-45607202D01*
X141237340Y-45634104D01*
X141237332Y-45634106D01*
X141073459Y-45701983D01*
X141073446Y-45701990D01*
X140925965Y-45800535D01*
X140925961Y-45800538D01*
X140800538Y-45925961D01*
X140800535Y-45925965D01*
X140701990Y-46073446D01*
X140701983Y-46073459D01*
X140634106Y-46237332D01*
X140634103Y-46237341D01*
X140599500Y-46411304D01*
X140599500Y-46588695D01*
X140634103Y-46762658D01*
X140634106Y-46762667D01*
X140701983Y-46926540D01*
X140701990Y-46926553D01*
X140800535Y-47074034D01*
X140800538Y-47074038D01*
X140925961Y-47199461D01*
X140925965Y-47199464D01*
X141073446Y-47298009D01*
X141073459Y-47298016D01*
X141196363Y-47348923D01*
X141237334Y-47365894D01*
X141237336Y-47365894D01*
X141237341Y-47365896D01*
X141411304Y-47400499D01*
X141411307Y-47400500D01*
X141411309Y-47400500D01*
X141588693Y-47400500D01*
X141588694Y-47400499D01*
X141646682Y-47388964D01*
X141762658Y-47365896D01*
X141762661Y-47365894D01*
X141762666Y-47365894D01*
X141926547Y-47298013D01*
X142074035Y-47199464D01*
X142199464Y-47074035D01*
X142298013Y-46926547D01*
X142365894Y-46762666D01*
X142392797Y-46627408D01*
X142401561Y-46610655D01*
X142405581Y-46592177D01*
X142424325Y-46567137D01*
X142425180Y-46565503D01*
X142426621Y-46564034D01*
X142587822Y-46402834D01*
X142649142Y-46369352D01*
X142718834Y-46374336D01*
X142774767Y-46416208D01*
X142799184Y-46481672D01*
X142799500Y-46490518D01*
X142799500Y-47431006D01*
X142799500Y-47568994D01*
X142799500Y-47568996D01*
X142799499Y-47568996D01*
X142826418Y-47704322D01*
X142826421Y-47704332D01*
X142879222Y-47831807D01*
X142955886Y-47946543D01*
X142955888Y-47946546D01*
X143553454Y-48544112D01*
X143668192Y-48620777D01*
X143795667Y-48673578D01*
X143795672Y-48673580D01*
X143795676Y-48673580D01*
X143795677Y-48673581D01*
X143931003Y-48700500D01*
X143931006Y-48700500D01*
X143931007Y-48700500D01*
X146025502Y-48700500D01*
X146092541Y-48720185D01*
X146138296Y-48772989D01*
X146140063Y-48777048D01*
X146201983Y-48926540D01*
X146201990Y-48926553D01*
X146300535Y-49074034D01*
X146300538Y-49074038D01*
X146425961Y-49199461D01*
X146425965Y-49199464D01*
X146573446Y-49298009D01*
X146573459Y-49298016D01*
X146696363Y-49348923D01*
X146737334Y-49365894D01*
X146737336Y-49365894D01*
X146737341Y-49365896D01*
X146911304Y-49400499D01*
X146911307Y-49400500D01*
X146911309Y-49400500D01*
X147088693Y-49400500D01*
X147088694Y-49400499D01*
X147146682Y-49388964D01*
X147262658Y-49365896D01*
X147262661Y-49365894D01*
X147262666Y-49365894D01*
X147426547Y-49298013D01*
X147574035Y-49199464D01*
X147699464Y-49074035D01*
X147798013Y-48926547D01*
X147865894Y-48762666D01*
X147870932Y-48737341D01*
X147900499Y-48588695D01*
X147900500Y-48588693D01*
X147900500Y-48411306D01*
X147900499Y-48411304D01*
X147865896Y-48237341D01*
X147865893Y-48237332D01*
X147798016Y-48073459D01*
X147798009Y-48073446D01*
X147699464Y-47925965D01*
X147699461Y-47925961D01*
X147574038Y-47800538D01*
X147574034Y-47800535D01*
X147426553Y-47701990D01*
X147426540Y-47701983D01*
X147262667Y-47634106D01*
X147262658Y-47634103D01*
X147127413Y-47607202D01*
X147065502Y-47574817D01*
X147063976Y-47573319D01*
X146946543Y-47455886D01*
X146909307Y-47431006D01*
X146831807Y-47379222D01*
X146704332Y-47326421D01*
X146704322Y-47326418D01*
X146568996Y-47299500D01*
X146568994Y-47299500D01*
X146568993Y-47299500D01*
X145775558Y-47299500D01*
X145708519Y-47279815D01*
X145662764Y-47227011D01*
X145652820Y-47157853D01*
X145681845Y-47094297D01*
X145702672Y-47075182D01*
X145704251Y-47074035D01*
X145814646Y-46993828D01*
X145953828Y-46854646D01*
X146028685Y-46751613D01*
X146084015Y-46708949D01*
X146129003Y-46700500D01*
X147870997Y-46700500D01*
X147938036Y-46720185D01*
X147971313Y-46751612D01*
X148046172Y-46854646D01*
X148185354Y-46993828D01*
X148248388Y-47039624D01*
X148291051Y-47094951D01*
X148299500Y-47139940D01*
X148299500Y-48389899D01*
X148279815Y-48456938D01*
X148278602Y-48458790D01*
X148201988Y-48573449D01*
X148201987Y-48573452D01*
X148134106Y-48737332D01*
X148134103Y-48737341D01*
X148099500Y-48911304D01*
X148099500Y-49088695D01*
X148134103Y-49262658D01*
X148134106Y-49262667D01*
X148201983Y-49426540D01*
X148201990Y-49426553D01*
X148300535Y-49574034D01*
X148300538Y-49574038D01*
X148425961Y-49699461D01*
X148425965Y-49699464D01*
X148573446Y-49798009D01*
X148573459Y-49798016D01*
X148696363Y-49848923D01*
X148737334Y-49865894D01*
X148737336Y-49865894D01*
X148737341Y-49865896D01*
X148911304Y-49900499D01*
X148911307Y-49900500D01*
X148911309Y-49900500D01*
X149088693Y-49900500D01*
X149088694Y-49900499D01*
X149146682Y-49888964D01*
X149262658Y-49865896D01*
X149262661Y-49865894D01*
X149262666Y-49865894D01*
X149426547Y-49798013D01*
X149574035Y-49699464D01*
X149699464Y-49574035D01*
X149798013Y-49426547D01*
X149865894Y-49262666D01*
X149870932Y-49237341D01*
X149900499Y-49088695D01*
X149900500Y-49088693D01*
X149900500Y-48911306D01*
X149900499Y-48911304D01*
X149865896Y-48737341D01*
X149865893Y-48737332D01*
X149839487Y-48673581D01*
X149798013Y-48573453D01*
X149798011Y-48573451D01*
X149798011Y-48573449D01*
X149721398Y-48458790D01*
X149700520Y-48392112D01*
X149700500Y-48389899D01*
X149700500Y-47139940D01*
X149720185Y-47072901D01*
X149751609Y-47039626D01*
X149814646Y-46993828D01*
X149953828Y-46854646D01*
X150069524Y-46695405D01*
X150158884Y-46520025D01*
X150219709Y-46332826D01*
X150220817Y-46325832D01*
X150250500Y-46138422D01*
X150250500Y-45941585D01*
X150248026Y-45925965D01*
X150238311Y-45864627D01*
X150247265Y-45795337D01*
X150273100Y-45757554D01*
X151044113Y-44986543D01*
X151064598Y-44955886D01*
X151068992Y-44949311D01*
X151120771Y-44871817D01*
X151120771Y-44871816D01*
X151120775Y-44871811D01*
X151170215Y-44752453D01*
X151173580Y-44744329D01*
X151190576Y-44658884D01*
X151197875Y-44622192D01*
X151200500Y-44608994D01*
X151200500Y-43841519D01*
X151220185Y-43774480D01*
X151236819Y-43753838D01*
X153468838Y-41521819D01*
X153495765Y-41507115D01*
X153521584Y-41490523D01*
X153527784Y-41489631D01*
X153530161Y-41488334D01*
X153556519Y-41485500D01*
X153571862Y-41485500D01*
X153638901Y-41505185D01*
X153672179Y-41536613D01*
X153694310Y-41567073D01*
X153827927Y-41700690D01*
X153980801Y-41811760D01*
X154132313Y-41888959D01*
X154183108Y-41936932D01*
X154199903Y-42004753D01*
X154177366Y-42070888D01*
X154123471Y-42114003D01*
X154037810Y-42149486D01*
X154037803Y-42149489D01*
X153950493Y-42196158D01*
X153881086Y-42242534D01*
X153881085Y-42242534D01*
X154480589Y-42842037D01*
X154417007Y-42859075D01*
X154302993Y-42924901D01*
X154209901Y-43017993D01*
X154144075Y-43132007D01*
X154127037Y-43195588D01*
X153527534Y-42596085D01*
X153527534Y-42596086D01*
X153481158Y-42665493D01*
X153434490Y-42752801D01*
X153374185Y-42898387D01*
X153345444Y-42993135D01*
X153314701Y-43147697D01*
X153314701Y-43147700D01*
X153305000Y-43246210D01*
X153305000Y-43403789D01*
X153314701Y-43502299D01*
X153314701Y-43502302D01*
X153345444Y-43656864D01*
X153374185Y-43751612D01*
X153434490Y-43897198D01*
X153481155Y-43984501D01*
X153481161Y-43984511D01*
X153527534Y-44053912D01*
X154127037Y-43454410D01*
X154144075Y-43517993D01*
X154209901Y-43632007D01*
X154302993Y-43725099D01*
X154417007Y-43790925D01*
X154480589Y-43807962D01*
X153881085Y-44407465D01*
X153950488Y-44453838D01*
X153950498Y-44453844D01*
X154037801Y-44500509D01*
X154123470Y-44535995D01*
X154177873Y-44579836D01*
X154199938Y-44646131D01*
X154182659Y-44713830D01*
X154132312Y-44761041D01*
X153980800Y-44838240D01*
X153893579Y-44901610D01*
X153827927Y-44949310D01*
X153827925Y-44949312D01*
X153827924Y-44949312D01*
X153694309Y-45082927D01*
X153672179Y-45113387D01*
X153616848Y-45156052D01*
X153571862Y-45164500D01*
X153066004Y-45164500D01*
X152930677Y-45191418D01*
X152930667Y-45191421D01*
X152803192Y-45244222D01*
X152688454Y-45320887D01*
X150455887Y-47553454D01*
X150379222Y-47668192D01*
X150326420Y-47795669D01*
X150326418Y-47795675D01*
X150305299Y-47901846D01*
X150286785Y-47946543D01*
X150201989Y-48073449D01*
X150201983Y-48073460D01*
X150134106Y-48237332D01*
X150134103Y-48237341D01*
X150099500Y-48411304D01*
X150099500Y-48588695D01*
X150134103Y-48762658D01*
X150134106Y-48762667D01*
X150201983Y-48926540D01*
X150201990Y-48926553D01*
X150300535Y-49074034D01*
X150300538Y-49074038D01*
X150425961Y-49199461D01*
X150425965Y-49199464D01*
X150573446Y-49298009D01*
X150573459Y-49298016D01*
X150696363Y-49348923D01*
X150737334Y-49365894D01*
X150737336Y-49365894D01*
X150737341Y-49365896D01*
X150911304Y-49400499D01*
X150911307Y-49400500D01*
X150911309Y-49400500D01*
X151088693Y-49400500D01*
X151088694Y-49400499D01*
X151146682Y-49388964D01*
X151262658Y-49365896D01*
X151262661Y-49365894D01*
X151262666Y-49365894D01*
X151426547Y-49298013D01*
X151574035Y-49199464D01*
X151699464Y-49074035D01*
X151798013Y-48926547D01*
X151865894Y-48762666D01*
X151870932Y-48737341D01*
X151900499Y-48588695D01*
X151900500Y-48588693D01*
X151900500Y-48411306D01*
X151900499Y-48411304D01*
X151865895Y-48237341D01*
X151865894Y-48237334D01*
X151864628Y-48234277D01*
X151864442Y-48232549D01*
X151864126Y-48231507D01*
X151864323Y-48231446D01*
X151857161Y-48164808D01*
X151888437Y-48102329D01*
X151891480Y-48099175D01*
X153388838Y-46601819D01*
X153415765Y-46587115D01*
X153441584Y-46570523D01*
X153447784Y-46569631D01*
X153450161Y-46568334D01*
X153476519Y-46565500D01*
X153571862Y-46565500D01*
X153638901Y-46585185D01*
X153672179Y-46616613D01*
X153680026Y-46627414D01*
X153694310Y-46647073D01*
X153827927Y-46780690D01*
X153980801Y-46891760D01*
X154049061Y-46926540D01*
X154149163Y-46977545D01*
X154149165Y-46977545D01*
X154149168Y-46977547D01*
X154233142Y-47004832D01*
X154270803Y-47017069D01*
X154328478Y-47056507D01*
X154355676Y-47120866D01*
X154343761Y-47189712D01*
X154296516Y-47241188D01*
X154270803Y-47252931D01*
X154149163Y-47292454D01*
X153980800Y-47378240D01*
X153908175Y-47431006D01*
X153827927Y-47489310D01*
X153827925Y-47489312D01*
X153827924Y-47489312D01*
X153694312Y-47622924D01*
X153694312Y-47622925D01*
X153694310Y-47622927D01*
X153686188Y-47634106D01*
X153583240Y-47775800D01*
X153497454Y-47944163D01*
X153439059Y-48123881D01*
X153409500Y-48310513D01*
X153409500Y-48499486D01*
X153439059Y-48686118D01*
X153497454Y-48865836D01*
X153583240Y-49034199D01*
X153694310Y-49187073D01*
X153827927Y-49320690D01*
X153980801Y-49431760D01*
X154060347Y-49472290D01*
X154149163Y-49517545D01*
X154149165Y-49517545D01*
X154149168Y-49517547D01*
X154238734Y-49546649D01*
X154270803Y-49557069D01*
X154328478Y-49596507D01*
X154355676Y-49660866D01*
X154343761Y-49729712D01*
X154296516Y-49781188D01*
X154270803Y-49792931D01*
X154149163Y-49832454D01*
X153980800Y-49918240D01*
X153893579Y-49981610D01*
X153827927Y-50029310D01*
X153827925Y-50029312D01*
X153827924Y-50029312D01*
X153694311Y-50162925D01*
X153632220Y-50248386D01*
X153576889Y-50291052D01*
X153531902Y-50299500D01*
X150931005Y-50299500D01*
X150795677Y-50326418D01*
X150795667Y-50326421D01*
X150668195Y-50379221D01*
X150668182Y-50379228D01*
X150553458Y-50455885D01*
X150553454Y-50455888D01*
X150455888Y-50553454D01*
X150455885Y-50553458D01*
X150379228Y-50668182D01*
X150379221Y-50668195D01*
X150326421Y-50795667D01*
X150326418Y-50795677D01*
X150299500Y-50931004D01*
X150299500Y-56990338D01*
X150279815Y-57057377D01*
X150227011Y-57103132D01*
X150157853Y-57113076D01*
X150151308Y-57111955D01*
X150088693Y-57099500D01*
X150088691Y-57099500D01*
X149911309Y-57099500D01*
X149911306Y-57099500D01*
X149737341Y-57134103D01*
X149737332Y-57134106D01*
X149573459Y-57201983D01*
X149573446Y-57201990D01*
X149425965Y-57300535D01*
X149425961Y-57300538D01*
X149300538Y-57425961D01*
X149300535Y-57425965D01*
X149201990Y-57573446D01*
X149201983Y-57573459D01*
X149134106Y-57737332D01*
X149134103Y-57737341D01*
X149099500Y-57911304D01*
X149099500Y-58088695D01*
X149134103Y-58262658D01*
X149134106Y-58262667D01*
X149201984Y-58426542D01*
X149201985Y-58426543D01*
X149201987Y-58426547D01*
X149278602Y-58541208D01*
X149299480Y-58607885D01*
X149299500Y-58610099D01*
X149299500Y-64175500D01*
X149279815Y-64242539D01*
X149227011Y-64288294D01*
X149175500Y-64299500D01*
X146737908Y-64299500D01*
X146670869Y-64279815D01*
X146625114Y-64227011D01*
X146615436Y-64194903D01*
X146604709Y-64127174D01*
X146543884Y-63939975D01*
X146543882Y-63939972D01*
X146543882Y-63939970D01*
X146454523Y-63764594D01*
X146436281Y-63739486D01*
X146338828Y-63605354D01*
X146199646Y-63466172D01*
X146058857Y-63363882D01*
X146040403Y-63350474D01*
X145863787Y-63260485D01*
X145812990Y-63212511D01*
X145796195Y-63144690D01*
X145818732Y-63078555D01*
X145863787Y-63039515D01*
X146040403Y-62949525D01*
X146040402Y-62949525D01*
X146040405Y-62949524D01*
X146199646Y-62833828D01*
X146338828Y-62694646D01*
X146454524Y-62535405D01*
X146540603Y-62366463D01*
X146543882Y-62360029D01*
X146543882Y-62360028D01*
X146543884Y-62360025D01*
X146604709Y-62172826D01*
X146628805Y-62020690D01*
X146635500Y-61978422D01*
X146635500Y-61906518D01*
X146655185Y-61839479D01*
X146671819Y-61818837D01*
X147104538Y-61386118D01*
X147563924Y-60926731D01*
X147625245Y-60893248D01*
X147627254Y-60892829D01*
X147762666Y-60865894D01*
X147926547Y-60798013D01*
X148074035Y-60699464D01*
X148199464Y-60574035D01*
X148298013Y-60426547D01*
X148305065Y-60409523D01*
X148340934Y-60322925D01*
X148365894Y-60262666D01*
X148400500Y-60088691D01*
X148400500Y-59911309D01*
X148400500Y-59911306D01*
X148400499Y-59911304D01*
X148365896Y-59737341D01*
X148365893Y-59737332D01*
X148365316Y-59735940D01*
X148305596Y-59591759D01*
X148298016Y-59573459D01*
X148298009Y-59573446D01*
X148199464Y-59425965D01*
X148199461Y-59425961D01*
X148074038Y-59300538D01*
X148074034Y-59300535D01*
X147926553Y-59201990D01*
X147926540Y-59201983D01*
X147762667Y-59134106D01*
X147762658Y-59134103D01*
X147588694Y-59099500D01*
X147588691Y-59099500D01*
X147411309Y-59099500D01*
X147411306Y-59099500D01*
X147237341Y-59134103D01*
X147237332Y-59134106D01*
X147073459Y-59201983D01*
X147073446Y-59201990D01*
X146925965Y-59300535D01*
X146925961Y-59300538D01*
X146847181Y-59379319D01*
X146785858Y-59412804D01*
X146716166Y-59407820D01*
X146660233Y-59365948D01*
X146635816Y-59300484D01*
X146635500Y-59291638D01*
X146635500Y-59241577D01*
X146604709Y-59047173D01*
X146594948Y-59017134D01*
X146549411Y-58876987D01*
X146547416Y-58807152D01*
X146579660Y-58750995D01*
X149544114Y-55786543D01*
X149620775Y-55671811D01*
X149673580Y-55544329D01*
X149680309Y-55510500D01*
X149700500Y-55408993D01*
X149700500Y-52110099D01*
X149720185Y-52043060D01*
X149721398Y-52041208D01*
X149798013Y-51926547D01*
X149865894Y-51762666D01*
X149900500Y-51588691D01*
X149900500Y-51411309D01*
X149900500Y-51411306D01*
X149900499Y-51411304D01*
X149865896Y-51237341D01*
X149865893Y-51237332D01*
X149798016Y-51073459D01*
X149798009Y-51073446D01*
X149699464Y-50925965D01*
X149699461Y-50925961D01*
X149574038Y-50800538D01*
X149574034Y-50800535D01*
X149426553Y-50701990D01*
X149426540Y-50701983D01*
X149262667Y-50634106D01*
X149262658Y-50634103D01*
X149088694Y-50599500D01*
X149088691Y-50599500D01*
X148911309Y-50599500D01*
X148911306Y-50599500D01*
X148737341Y-50634103D01*
X148737332Y-50634106D01*
X148573459Y-50701983D01*
X148573446Y-50701990D01*
X148425965Y-50800535D01*
X148425961Y-50800538D01*
X148300538Y-50925961D01*
X148300535Y-50925965D01*
X148201990Y-51073446D01*
X148201983Y-51073459D01*
X148134106Y-51237332D01*
X148134103Y-51237341D01*
X148099500Y-51411304D01*
X148099500Y-51588695D01*
X148134103Y-51762658D01*
X148134106Y-51762667D01*
X148201984Y-51926542D01*
X148201985Y-51926543D01*
X148201987Y-51926547D01*
X148259638Y-52012827D01*
X148278602Y-52041208D01*
X148299480Y-52107885D01*
X148299500Y-52110099D01*
X148299500Y-54998480D01*
X148279815Y-55065519D01*
X148263181Y-55086161D01*
X146884988Y-56464353D01*
X146823665Y-56497838D01*
X146753973Y-56492854D01*
X146698040Y-56450982D01*
X146679376Y-56414989D01*
X146636096Y-56281784D01*
X146539624Y-56092449D01*
X146500270Y-56038282D01*
X146500269Y-56038282D01*
X145867962Y-56670590D01*
X145850925Y-56607007D01*
X145785099Y-56492993D01*
X145692007Y-56399901D01*
X145577993Y-56334075D01*
X145514409Y-56317037D01*
X146146716Y-55684728D01*
X146092547Y-55645373D01*
X146092542Y-55645370D01*
X145973370Y-55584648D01*
X145922574Y-55536674D01*
X145905779Y-55468853D01*
X145928317Y-55402718D01*
X145973370Y-55363679D01*
X146040405Y-55329524D01*
X146199646Y-55213828D01*
X146338828Y-55074646D01*
X146454524Y-54915405D01*
X146543884Y-54740025D01*
X146604709Y-54552826D01*
X146612323Y-54504751D01*
X146635500Y-54358422D01*
X146635500Y-54161577D01*
X146604709Y-53967173D01*
X146543882Y-53779970D01*
X146484200Y-53662838D01*
X146454524Y-53604595D01*
X146338828Y-53445354D01*
X146199646Y-53306172D01*
X146058857Y-53203882D01*
X146040403Y-53190474D01*
X145863787Y-53100485D01*
X145812990Y-53052511D01*
X145796195Y-52984690D01*
X145818732Y-52918555D01*
X145863787Y-52879515D01*
X146040403Y-52789525D01*
X146040402Y-52789525D01*
X146040405Y-52789524D01*
X146199646Y-52673828D01*
X146338828Y-52534646D01*
X146454524Y-52375405D01*
X146540603Y-52206463D01*
X146543882Y-52200029D01*
X146543882Y-52200028D01*
X146543884Y-52200025D01*
X146604709Y-52012826D01*
X146628805Y-51860690D01*
X146635500Y-51818422D01*
X146635500Y-51621577D01*
X146604709Y-51427173D01*
X146543882Y-51239970D01*
X146459037Y-51073453D01*
X146454524Y-51064595D01*
X146338828Y-50905354D01*
X146199646Y-50766172D01*
X146040405Y-50650476D01*
X146008271Y-50634103D01*
X145865029Y-50561117D01*
X145677826Y-50500290D01*
X145483422Y-50469500D01*
X145483417Y-50469500D01*
X145286583Y-50469500D01*
X145286578Y-50469500D01*
X145092173Y-50500290D01*
X144904970Y-50561117D01*
X144729594Y-50650476D01*
X144658692Y-50701990D01*
X144570354Y-50766172D01*
X144570352Y-50766174D01*
X144570351Y-50766174D01*
X144431174Y-50905351D01*
X144431174Y-50905352D01*
X144431172Y-50905354D01*
X144412536Y-50931004D01*
X144315476Y-51064594D01*
X144226117Y-51239970D01*
X144165290Y-51427173D01*
X144134500Y-51621577D01*
X144134500Y-51818422D01*
X144165291Y-52012827D01*
X144165291Y-52012830D01*
X144208703Y-52146435D01*
X144210698Y-52216276D01*
X144174618Y-52276109D01*
X144111917Y-52306937D01*
X144042503Y-52298972D01*
X144003091Y-52272434D01*
X143236819Y-51506162D01*
X143203334Y-51444839D01*
X143200500Y-51418481D01*
X143200500Y-50431004D01*
X143173581Y-50295677D01*
X143173580Y-50295676D01*
X143173580Y-50295672D01*
X143120775Y-50168189D01*
X143106608Y-50146987D01*
X143106606Y-50146984D01*
X143106606Y-50146983D01*
X143044112Y-50053454D01*
X143044109Y-50053451D01*
X142426732Y-49436075D01*
X142393247Y-49374752D01*
X142392826Y-49372735D01*
X142365894Y-49237334D01*
X142338741Y-49171781D01*
X142298016Y-49073459D01*
X142298009Y-49073446D01*
X142199464Y-48925965D01*
X142199461Y-48925961D01*
X142074038Y-48800538D01*
X142074034Y-48800535D01*
X141926553Y-48701990D01*
X141926540Y-48701983D01*
X141762667Y-48634106D01*
X141762658Y-48634103D01*
X141588694Y-48599500D01*
X141588691Y-48599500D01*
X141411309Y-48599500D01*
X141411306Y-48599500D01*
X141237341Y-48634103D01*
X141237332Y-48634106D01*
X141073459Y-48701983D01*
X141073446Y-48701990D01*
X140925965Y-48800535D01*
X140925961Y-48800538D01*
X140800538Y-48925961D01*
X140800535Y-48925965D01*
X140701990Y-49073446D01*
X140701983Y-49073459D01*
X140634106Y-49237332D01*
X140634103Y-49237341D01*
X140599500Y-49411304D01*
X140599500Y-49588695D01*
X140634103Y-49762658D01*
X140634106Y-49762667D01*
X140701983Y-49926540D01*
X140701990Y-49926553D01*
X140800535Y-50074034D01*
X140800538Y-50074038D01*
X140925961Y-50199461D01*
X140925965Y-50199464D01*
X141073446Y-50298009D01*
X141073459Y-50298016D01*
X141171781Y-50338741D01*
X141237334Y-50365894D01*
X141372588Y-50392797D01*
X141434495Y-50425180D01*
X141436075Y-50426732D01*
X141763181Y-50753838D01*
X141796666Y-50815161D01*
X141799500Y-50841519D01*
X141799500Y-69658480D01*
X141779815Y-69725519D01*
X141763181Y-69746161D01*
X138936076Y-72573265D01*
X138874753Y-72606750D01*
X138872587Y-72607201D01*
X138737339Y-72634104D01*
X138737329Y-72634107D01*
X138573459Y-72701983D01*
X138573446Y-72701990D01*
X138425965Y-72800535D01*
X138425961Y-72800538D01*
X138300538Y-72925961D01*
X138300535Y-72925965D01*
X138201990Y-73073446D01*
X138201983Y-73073459D01*
X138134106Y-73237332D01*
X138134103Y-73237341D01*
X138099500Y-73411304D01*
X138099500Y-73588695D01*
X138134103Y-73762658D01*
X138134106Y-73762667D01*
X138201983Y-73926540D01*
X138201990Y-73926553D01*
X138300535Y-74074034D01*
X138300538Y-74074038D01*
X138425961Y-74199461D01*
X138425965Y-74199464D01*
X138573446Y-74298009D01*
X138573459Y-74298016D01*
X138639796Y-74325493D01*
X138737334Y-74365894D01*
X138737336Y-74365894D01*
X138737341Y-74365896D01*
X138911304Y-74400499D01*
X138911307Y-74400500D01*
X138911309Y-74400500D01*
X139088693Y-74400500D01*
X139088694Y-74400499D01*
X139146682Y-74388964D01*
X139262658Y-74365896D01*
X139262661Y-74365894D01*
X139262666Y-74365894D01*
X139426547Y-74298013D01*
X139574035Y-74199464D01*
X139699464Y-74074035D01*
X139798013Y-73926547D01*
X139865894Y-73762666D01*
X139892798Y-73627408D01*
X139925181Y-73565501D01*
X139926675Y-73563980D01*
X143044113Y-70446543D01*
X143062409Y-70419162D01*
X143120775Y-70331811D01*
X143159533Y-70238240D01*
X143173580Y-70204329D01*
X143179696Y-70173580D01*
X143200500Y-70068993D01*
X143200500Y-53750519D01*
X143220185Y-53683480D01*
X143272989Y-53637725D01*
X143342147Y-53627781D01*
X143405703Y-53656806D01*
X143412181Y-53662838D01*
X144111042Y-54361699D01*
X144144527Y-54423022D01*
X144145834Y-54429982D01*
X144158787Y-54511761D01*
X144165291Y-54552826D01*
X144226116Y-54740025D01*
X144315476Y-54915405D01*
X144431172Y-55074646D01*
X144570354Y-55213828D01*
X144683570Y-55296085D01*
X144729596Y-55329525D01*
X144796628Y-55363679D01*
X144847425Y-55411653D01*
X144864220Y-55479474D01*
X144841683Y-55545609D01*
X144796630Y-55584648D01*
X144677443Y-55645378D01*
X144677440Y-55645380D01*
X144623282Y-55684727D01*
X144623282Y-55684728D01*
X145255591Y-56317037D01*
X145192007Y-56334075D01*
X145077993Y-56399901D01*
X144984901Y-56492993D01*
X144919075Y-56607007D01*
X144902037Y-56670591D01*
X144269728Y-56038282D01*
X144269727Y-56038282D01*
X144230380Y-56092439D01*
X144133904Y-56281782D01*
X144068242Y-56483869D01*
X144068242Y-56483872D01*
X144035000Y-56693753D01*
X144035000Y-56906246D01*
X144068242Y-57116127D01*
X144068242Y-57116130D01*
X144133904Y-57318217D01*
X144230375Y-57507550D01*
X144269728Y-57561716D01*
X144902036Y-56929407D01*
X144919075Y-56992993D01*
X144984901Y-57107007D01*
X145077993Y-57200099D01*
X145192007Y-57265925D01*
X145255590Y-57282962D01*
X144623282Y-57915269D01*
X144623282Y-57915270D01*
X144677449Y-57954624D01*
X144796629Y-58015350D01*
X144847425Y-58063325D01*
X144864220Y-58131146D01*
X144841682Y-58197281D01*
X144796630Y-58236319D01*
X144729597Y-58270474D01*
X144711143Y-58283882D01*
X144570354Y-58386172D01*
X144570352Y-58386174D01*
X144570351Y-58386174D01*
X144431174Y-58525351D01*
X144431174Y-58525352D01*
X144431172Y-58525354D01*
X144396930Y-58572484D01*
X144315476Y-58684594D01*
X144226117Y-58859970D01*
X144165290Y-59047173D01*
X144134500Y-59241577D01*
X144134500Y-59438422D01*
X144165290Y-59632826D01*
X144226117Y-59820029D01*
X144313972Y-59992453D01*
X144315476Y-59995405D01*
X144431172Y-60154646D01*
X144570354Y-60293828D01*
X144729595Y-60409524D01*
X144763005Y-60426547D01*
X144906213Y-60499515D01*
X144957009Y-60547489D01*
X144973804Y-60615310D01*
X144951267Y-60681445D01*
X144906213Y-60720485D01*
X144729594Y-60810476D01*
X144711143Y-60823882D01*
X144570354Y-60926172D01*
X144570352Y-60926174D01*
X144570351Y-60926174D01*
X144431174Y-61065351D01*
X144431174Y-61065352D01*
X144431172Y-61065354D01*
X144381485Y-61133741D01*
X144315476Y-61224594D01*
X144226117Y-61399970D01*
X144165290Y-61587173D01*
X144134500Y-61781577D01*
X144134500Y-61978422D01*
X144165290Y-62172826D01*
X144226117Y-62360029D01*
X144313972Y-62532453D01*
X144315476Y-62535405D01*
X144431172Y-62694646D01*
X144570354Y-62833828D01*
X144729595Y-62949524D01*
X144852992Y-63012397D01*
X144906213Y-63039515D01*
X144957009Y-63087489D01*
X144973804Y-63155310D01*
X144951267Y-63221445D01*
X144906213Y-63260485D01*
X144729594Y-63350476D01*
X144711143Y-63363882D01*
X144570354Y-63466172D01*
X144570352Y-63466174D01*
X144570351Y-63466174D01*
X144431174Y-63605351D01*
X144431174Y-63605352D01*
X144431172Y-63605354D01*
X144381485Y-63673741D01*
X144315476Y-63764594D01*
X144226117Y-63939970D01*
X144165290Y-64127173D01*
X144134500Y-64321577D01*
X144134500Y-64518422D01*
X144165290Y-64712826D01*
X144226117Y-64900029D01*
X144309087Y-65062865D01*
X144315476Y-65075405D01*
X144431172Y-65234646D01*
X144570354Y-65373828D01*
X144729595Y-65489524D01*
X144852992Y-65552397D01*
X144906213Y-65579515D01*
X144957009Y-65627489D01*
X144973804Y-65695310D01*
X144951267Y-65761445D01*
X144906213Y-65800485D01*
X144729594Y-65890476D01*
X144638741Y-65956485D01*
X144570354Y-66006172D01*
X144570352Y-66006174D01*
X144570351Y-66006174D01*
X144431174Y-66145351D01*
X144431174Y-66145352D01*
X144431172Y-66145354D01*
X144381485Y-66213741D01*
X144315476Y-66304594D01*
X144226117Y-66479970D01*
X144165290Y-66667173D01*
X144134500Y-66861577D01*
X144134500Y-67058422D01*
X144165290Y-67252826D01*
X144226117Y-67440029D01*
X144305668Y-67596155D01*
X144315476Y-67615405D01*
X144431172Y-67774646D01*
X144570354Y-67913828D01*
X144723621Y-68025184D01*
X144766285Y-68080512D01*
X144772264Y-68150125D01*
X144739658Y-68211920D01*
X144678819Y-68246278D01*
X144650735Y-68249500D01*
X144503482Y-68249500D01*
X144422519Y-68262323D01*
X144409696Y-68264354D01*
X144296658Y-68321950D01*
X144296657Y-68321951D01*
X144296652Y-68321954D01*
X144206954Y-68411652D01*
X144206951Y-68411657D01*
X144206950Y-68411658D01*
X144201704Y-68421954D01*
X144149352Y-68524698D01*
X144134500Y-68618475D01*
X144134500Y-70381517D01*
X144141539Y-70425961D01*
X144149354Y-70475304D01*
X144206950Y-70588342D01*
X144206952Y-70588344D01*
X144206954Y-70588347D01*
X144296652Y-70678045D01*
X144296654Y-70678046D01*
X144296658Y-70678050D01*
X144387358Y-70724264D01*
X144409698Y-70735647D01*
X144503475Y-70750499D01*
X144503481Y-70750500D01*
X146266518Y-70750499D01*
X146360304Y-70735646D01*
X146473342Y-70678050D01*
X146563050Y-70588342D01*
X146620646Y-70475304D01*
X146620646Y-70475302D01*
X146620647Y-70475301D01*
X146635499Y-70381524D01*
X146635500Y-70381519D01*
X146635499Y-69291518D01*
X146655184Y-69224480D01*
X146671818Y-69203838D01*
X147320175Y-68555482D01*
X147544112Y-68331545D01*
X147544112Y-68331544D01*
X147544114Y-68331543D01*
X147620775Y-68216811D01*
X147673580Y-68089328D01*
X147692127Y-67996086D01*
X147700500Y-67953996D01*
X147700500Y-67824500D01*
X147720185Y-67757461D01*
X147772989Y-67711706D01*
X147824500Y-67700500D01*
X152068995Y-67700500D01*
X152160041Y-67682389D01*
X152204328Y-67673580D01*
X152331811Y-67620775D01*
X152446542Y-67544114D01*
X152544114Y-67446542D01*
X152620775Y-67331811D01*
X152673580Y-67204328D01*
X152700500Y-67068993D01*
X152700500Y-52865519D01*
X152720185Y-52798480D01*
X152772989Y-52752725D01*
X152842147Y-52742781D01*
X152905703Y-52771806D01*
X152912181Y-52777838D01*
X153380597Y-53246254D01*
X153414082Y-53307577D01*
X153415389Y-53353333D01*
X153409500Y-53390513D01*
X153409500Y-53579486D01*
X153439059Y-53766118D01*
X153497454Y-53945836D01*
X153583240Y-54114199D01*
X153694310Y-54267073D01*
X153827927Y-54400690D01*
X153980801Y-54511760D01*
X154132313Y-54588959D01*
X154183108Y-54636932D01*
X154199903Y-54704753D01*
X154177366Y-54770888D01*
X154123471Y-54814003D01*
X154037810Y-54849486D01*
X154037803Y-54849489D01*
X153950493Y-54896158D01*
X153881086Y-54942534D01*
X153881085Y-54942534D01*
X154480589Y-55542037D01*
X154417007Y-55559075D01*
X154302993Y-55624901D01*
X154209901Y-55717993D01*
X154144075Y-55832007D01*
X154127037Y-55895588D01*
X153527534Y-55296085D01*
X153527534Y-55296086D01*
X153481158Y-55365493D01*
X153434490Y-55452801D01*
X153374185Y-55598387D01*
X153345444Y-55693135D01*
X153314701Y-55847697D01*
X153314701Y-55847700D01*
X153305000Y-55946210D01*
X153305000Y-56103789D01*
X153314701Y-56202299D01*
X153314701Y-56202302D01*
X153345444Y-56356864D01*
X153374185Y-56451612D01*
X153434490Y-56597198D01*
X153481155Y-56684501D01*
X153481161Y-56684511D01*
X153527534Y-56753912D01*
X154127037Y-56154410D01*
X154144075Y-56217993D01*
X154209901Y-56332007D01*
X154302993Y-56425099D01*
X154417007Y-56490925D01*
X154480589Y-56507962D01*
X153881085Y-57107465D01*
X153950488Y-57153838D01*
X153950498Y-57153844D01*
X154037801Y-57200509D01*
X154123470Y-57235995D01*
X154177873Y-57279836D01*
X154199938Y-57346131D01*
X154182659Y-57413830D01*
X154132312Y-57461041D01*
X153980800Y-57538240D01*
X153932326Y-57573459D01*
X153827927Y-57649310D01*
X153827925Y-57649312D01*
X153827924Y-57649312D01*
X153694312Y-57782924D01*
X153694312Y-57782925D01*
X153694310Y-57782927D01*
X153646610Y-57848579D01*
X153583240Y-57935800D01*
X153497454Y-58104163D01*
X153439059Y-58283881D01*
X153409500Y-58470513D01*
X153409500Y-58659486D01*
X153439059Y-58846118D01*
X153497454Y-59025836D01*
X153552621Y-59134106D01*
X153583240Y-59194199D01*
X153694310Y-59347073D01*
X153827927Y-59480690D01*
X153980801Y-59591760D01*
X154060347Y-59632290D01*
X154149163Y-59677545D01*
X154149165Y-59677545D01*
X154149168Y-59677547D01*
X154238734Y-59706649D01*
X154270803Y-59717069D01*
X154328478Y-59756507D01*
X154355676Y-59820866D01*
X154343761Y-59889712D01*
X154296516Y-59941188D01*
X154270803Y-59952931D01*
X154149163Y-59992454D01*
X153980800Y-60078240D01*
X153893579Y-60141610D01*
X153827927Y-60189310D01*
X153827925Y-60189312D01*
X153827924Y-60189312D01*
X153694312Y-60322924D01*
X153694312Y-60322925D01*
X153694310Y-60322927D01*
X153646610Y-60388579D01*
X153583240Y-60475800D01*
X153497454Y-60644163D01*
X153439059Y-60823881D01*
X153409500Y-61010513D01*
X153409500Y-61199486D01*
X153439059Y-61386118D01*
X153497454Y-61565836D01*
X153583240Y-61734199D01*
X153694310Y-61887073D01*
X153827927Y-62020690D01*
X153980801Y-62131760D01*
X154060347Y-62172290D01*
X154149163Y-62217545D01*
X154149165Y-62217545D01*
X154149168Y-62217547D01*
X154238734Y-62246649D01*
X154270803Y-62257069D01*
X154328478Y-62296507D01*
X154355676Y-62360866D01*
X154343761Y-62429712D01*
X154296516Y-62481188D01*
X154270803Y-62492931D01*
X154149163Y-62532454D01*
X153980800Y-62618240D01*
X153893579Y-62681610D01*
X153827927Y-62729310D01*
X153827925Y-62729312D01*
X153827924Y-62729312D01*
X153694312Y-62862924D01*
X153694312Y-62862925D01*
X153694310Y-62862927D01*
X153646610Y-62928579D01*
X153583240Y-63015800D01*
X153497454Y-63184163D01*
X153439059Y-63363881D01*
X153409500Y-63550513D01*
X153409500Y-63739486D01*
X153439059Y-63926118D01*
X153497454Y-64105836D01*
X153567108Y-64242539D01*
X153583240Y-64274199D01*
X153694310Y-64427073D01*
X153827927Y-64560690D01*
X153980801Y-64671760D01*
X154060347Y-64712290D01*
X154149163Y-64757545D01*
X154149165Y-64757545D01*
X154149168Y-64757547D01*
X154238734Y-64786649D01*
X154270803Y-64797069D01*
X154328478Y-64836507D01*
X154355676Y-64900866D01*
X154343761Y-64969712D01*
X154296516Y-65021188D01*
X154270803Y-65032931D01*
X154149163Y-65072454D01*
X153980800Y-65158240D01*
X153893579Y-65221610D01*
X153827927Y-65269310D01*
X153827925Y-65269312D01*
X153827924Y-65269312D01*
X153694312Y-65402924D01*
X153694312Y-65402925D01*
X153694310Y-65402927D01*
X153649346Y-65464815D01*
X153583240Y-65555800D01*
X153497454Y-65724163D01*
X153439059Y-65903881D01*
X153409500Y-66090513D01*
X153409500Y-66279486D01*
X153439059Y-66466118D01*
X153497454Y-66645836D01*
X153574991Y-66798009D01*
X153583240Y-66814199D01*
X153694310Y-66967073D01*
X153827927Y-67100690D01*
X153980801Y-67211760D01*
X154132313Y-67288959D01*
X154183108Y-67336932D01*
X154199903Y-67404753D01*
X154177366Y-67470888D01*
X154123471Y-67514003D01*
X154037810Y-67549486D01*
X154037803Y-67549489D01*
X153950493Y-67596158D01*
X153881086Y-67642534D01*
X153881085Y-67642534D01*
X154480589Y-68242037D01*
X154417007Y-68259075D01*
X154302993Y-68324901D01*
X154209901Y-68417993D01*
X154144075Y-68532007D01*
X154127037Y-68595588D01*
X153527534Y-67996085D01*
X153527534Y-67996086D01*
X153481158Y-68065493D01*
X153434490Y-68152801D01*
X153374185Y-68298387D01*
X153345444Y-68393135D01*
X153314701Y-68547697D01*
X153314701Y-68547700D01*
X153305000Y-68646210D01*
X153305000Y-68803789D01*
X153314701Y-68902299D01*
X153314701Y-68902302D01*
X153345444Y-69056864D01*
X153374185Y-69151612D01*
X153434490Y-69297198D01*
X153481155Y-69384501D01*
X153481161Y-69384511D01*
X153527534Y-69453912D01*
X154127037Y-68854410D01*
X154144075Y-68917993D01*
X154209901Y-69032007D01*
X154302993Y-69125099D01*
X154417007Y-69190925D01*
X154480589Y-69207962D01*
X153881085Y-69807465D01*
X153950488Y-69853838D01*
X153950498Y-69853844D01*
X154037801Y-69900509D01*
X154123470Y-69935995D01*
X154177873Y-69979836D01*
X154199938Y-70046131D01*
X154182659Y-70113830D01*
X154132312Y-70161041D01*
X153980800Y-70238240D01*
X153921234Y-70281518D01*
X153827927Y-70349310D01*
X153827925Y-70349312D01*
X153827924Y-70349312D01*
X153694312Y-70482924D01*
X153694312Y-70482925D01*
X153694310Y-70482927D01*
X153658717Y-70531917D01*
X153583240Y-70635800D01*
X153497454Y-70804163D01*
X153439059Y-70983881D01*
X153409500Y-71170513D01*
X153409500Y-71359486D01*
X153439059Y-71546118D01*
X153497454Y-71725836D01*
X153556438Y-71841597D01*
X153583240Y-71894199D01*
X153694310Y-72047073D01*
X153827927Y-72180690D01*
X153980801Y-72291760D01*
X154053991Y-72329052D01*
X154149163Y-72377545D01*
X154149165Y-72377545D01*
X154149168Y-72377547D01*
X154238734Y-72406649D01*
X154270803Y-72417069D01*
X154328478Y-72456507D01*
X154355676Y-72520866D01*
X154343761Y-72589712D01*
X154296516Y-72641188D01*
X154270803Y-72652931D01*
X154149163Y-72692454D01*
X153980800Y-72778240D01*
X153893579Y-72841610D01*
X153827927Y-72889310D01*
X153827925Y-72889312D01*
X153827924Y-72889312D01*
X153694312Y-73022924D01*
X153694312Y-73022925D01*
X153694310Y-73022927D01*
X153656697Y-73074697D01*
X153583240Y-73175800D01*
X153497454Y-73344163D01*
X153439059Y-73523881D01*
X153409500Y-73710513D01*
X153409500Y-73899482D01*
X153415389Y-73936668D01*
X153406433Y-74005961D01*
X153380596Y-74043745D01*
X153161160Y-74263182D01*
X153099840Y-74296666D01*
X153073481Y-74299500D01*
X146524500Y-74299500D01*
X146457461Y-74279815D01*
X146411706Y-74227011D01*
X146400500Y-74175500D01*
X146400499Y-73168482D01*
X146400498Y-73168475D01*
X146385646Y-73074696D01*
X146328050Y-72961658D01*
X146328046Y-72961654D01*
X146328045Y-72961652D01*
X146238347Y-72871954D01*
X146238344Y-72871952D01*
X146238342Y-72871950D01*
X146161517Y-72832805D01*
X146125301Y-72814352D01*
X146031524Y-72799500D01*
X143968482Y-72799500D01*
X143887519Y-72812323D01*
X143874696Y-72814354D01*
X143761658Y-72871950D01*
X143761657Y-72871951D01*
X143761652Y-72871954D01*
X143671954Y-72961652D01*
X143671951Y-72961657D01*
X143614352Y-73074698D01*
X143599500Y-73168475D01*
X143599500Y-73168480D01*
X143599500Y-73168481D01*
X143599500Y-74199464D01*
X143599501Y-75175500D01*
X143579816Y-75242539D01*
X143527013Y-75288294D01*
X143475501Y-75299500D01*
X143110100Y-75299500D01*
X143043061Y-75279815D01*
X143041209Y-75278602D01*
X142926549Y-75201988D01*
X142926547Y-75201987D01*
X142762667Y-75134106D01*
X142762658Y-75134103D01*
X142588694Y-75099500D01*
X142588691Y-75099500D01*
X142411309Y-75099500D01*
X142411306Y-75099500D01*
X142237341Y-75134103D01*
X142237332Y-75134106D01*
X142073459Y-75201983D01*
X142073446Y-75201990D01*
X141925965Y-75300535D01*
X141925961Y-75300538D01*
X141800538Y-75425961D01*
X141800535Y-75425965D01*
X141701990Y-75573446D01*
X141701983Y-75573459D01*
X141634106Y-75737332D01*
X141634103Y-75737341D01*
X141599500Y-75911304D01*
X141599500Y-76088695D01*
X141634103Y-76262658D01*
X141634106Y-76262667D01*
X141701983Y-76426540D01*
X141701990Y-76426553D01*
X141800535Y-76574034D01*
X141800538Y-76574038D01*
X141925961Y-76699461D01*
X141925965Y-76699464D01*
X142073446Y-76798009D01*
X142073459Y-76798016D01*
X142196363Y-76848923D01*
X142237334Y-76865894D01*
X142237336Y-76865894D01*
X142237341Y-76865896D01*
X142411304Y-76900499D01*
X142411307Y-76900500D01*
X142411309Y-76900500D01*
X142588693Y-76900500D01*
X142588694Y-76900499D01*
X142646682Y-76888964D01*
X142762658Y-76865896D01*
X142762661Y-76865894D01*
X142762666Y-76865894D01*
X142926547Y-76798013D01*
X143041209Y-76721397D01*
X143107886Y-76700520D01*
X143110100Y-76700500D01*
X153373137Y-76700500D01*
X153440176Y-76720185D01*
X153485931Y-76772989D01*
X153491067Y-76786179D01*
X153497453Y-76805833D01*
X153583240Y-76974199D01*
X153694310Y-77127073D01*
X153827927Y-77260690D01*
X153980801Y-77371760D01*
X154060347Y-77412290D01*
X154149163Y-77457545D01*
X154149165Y-77457545D01*
X154149168Y-77457547D01*
X154238734Y-77486649D01*
X154270803Y-77497069D01*
X154328478Y-77536507D01*
X154355676Y-77600866D01*
X154343761Y-77669712D01*
X154296516Y-77721188D01*
X154270803Y-77732931D01*
X154149163Y-77772454D01*
X153980800Y-77858240D01*
X153910278Y-77909478D01*
X153827927Y-77969310D01*
X153827925Y-77969312D01*
X153827924Y-77969312D01*
X153694309Y-78102927D01*
X153672179Y-78133387D01*
X153616848Y-78176052D01*
X153571862Y-78184500D01*
X152225100Y-78184500D01*
X152158061Y-78164815D01*
X152156209Y-78163602D01*
X152041549Y-78086988D01*
X152041547Y-78086987D01*
X151877667Y-78019106D01*
X151877658Y-78019103D01*
X151703694Y-77984500D01*
X151703691Y-77984500D01*
X151526309Y-77984500D01*
X151526306Y-77984500D01*
X151352341Y-78019103D01*
X151352332Y-78019106D01*
X151188459Y-78086983D01*
X151188446Y-78086990D01*
X151040965Y-78185535D01*
X151040961Y-78185538D01*
X150915538Y-78310961D01*
X150915535Y-78310965D01*
X150816990Y-78458446D01*
X150816983Y-78458459D01*
X150749106Y-78622332D01*
X150749103Y-78622341D01*
X150714500Y-78796304D01*
X150714500Y-78973695D01*
X150749103Y-79147658D01*
X150749106Y-79147667D01*
X150816983Y-79311540D01*
X150816990Y-79311553D01*
X150915535Y-79459034D01*
X150915538Y-79459038D01*
X151040961Y-79584461D01*
X151040965Y-79584464D01*
X151188446Y-79683009D01*
X151188459Y-79683016D01*
X151311363Y-79733923D01*
X151352334Y-79750894D01*
X151352336Y-79750894D01*
X151352341Y-79750896D01*
X151526304Y-79785499D01*
X151526307Y-79785500D01*
X151526309Y-79785500D01*
X151703693Y-79785500D01*
X151703694Y-79785499D01*
X151761682Y-79773964D01*
X151877658Y-79750896D01*
X151877661Y-79750894D01*
X151877666Y-79750894D01*
X152041547Y-79683013D01*
X152156209Y-79606397D01*
X152222886Y-79585520D01*
X152225100Y-79585500D01*
X153571862Y-79585500D01*
X153638901Y-79605185D01*
X153672179Y-79636613D01*
X153694310Y-79667073D01*
X153827927Y-79800690D01*
X153980801Y-79911760D01*
X154132313Y-79988959D01*
X154183108Y-80036932D01*
X154199903Y-80104753D01*
X154177366Y-80170888D01*
X154123471Y-80214003D01*
X154037810Y-80249486D01*
X154037803Y-80249489D01*
X153950493Y-80296158D01*
X153881086Y-80342534D01*
X153881085Y-80342534D01*
X154480588Y-80942037D01*
X154417007Y-80959075D01*
X154302993Y-81024901D01*
X154209901Y-81117993D01*
X154144075Y-81232007D01*
X154127037Y-81295588D01*
X153527534Y-80696085D01*
X153527534Y-80696086D01*
X153481158Y-80765493D01*
X153434490Y-80852801D01*
X153374185Y-80998387D01*
X153345444Y-81093135D01*
X153314701Y-81247697D01*
X153314701Y-81247700D01*
X153305000Y-81346210D01*
X153305000Y-81503789D01*
X153314701Y-81602299D01*
X153314701Y-81602302D01*
X153345444Y-81756864D01*
X153374185Y-81851612D01*
X153434490Y-81997198D01*
X153481155Y-82084501D01*
X153481161Y-82084511D01*
X153527534Y-82153912D01*
X154127037Y-81554410D01*
X154144075Y-81617993D01*
X154209901Y-81732007D01*
X154302993Y-81825099D01*
X154417007Y-81890925D01*
X154480588Y-81907961D01*
X153881085Y-82507465D01*
X153950488Y-82553838D01*
X153950498Y-82553844D01*
X154037801Y-82600509D01*
X154123470Y-82635995D01*
X154177873Y-82679836D01*
X154199938Y-82746131D01*
X154182659Y-82813830D01*
X154132312Y-82861041D01*
X153980800Y-82938240D01*
X153893579Y-83001610D01*
X153827927Y-83049310D01*
X153827925Y-83049312D01*
X153827924Y-83049312D01*
X153694309Y-83182927D01*
X153672179Y-83213387D01*
X153616848Y-83256052D01*
X153571862Y-83264500D01*
X152145100Y-83264500D01*
X152078061Y-83244815D01*
X152076209Y-83243602D01*
X151961549Y-83166988D01*
X151961547Y-83166987D01*
X151797667Y-83099106D01*
X151797658Y-83099103D01*
X151623694Y-83064500D01*
X151623691Y-83064500D01*
X151446309Y-83064500D01*
X151446306Y-83064500D01*
X151272341Y-83099103D01*
X151272332Y-83099106D01*
X151108459Y-83166983D01*
X151108446Y-83166990D01*
X150960965Y-83265535D01*
X150960961Y-83265538D01*
X150835538Y-83390961D01*
X150835535Y-83390965D01*
X150736990Y-83538446D01*
X150736983Y-83538459D01*
X150669106Y-83702332D01*
X150669103Y-83702341D01*
X150634500Y-83876304D01*
X150634500Y-84053695D01*
X150669103Y-84227658D01*
X150669106Y-84227667D01*
X150736983Y-84391540D01*
X150736990Y-84391553D01*
X150835535Y-84539034D01*
X150835538Y-84539038D01*
X150960961Y-84664461D01*
X150960965Y-84664464D01*
X151108446Y-84763009D01*
X151108459Y-84763016D01*
X151231363Y-84813923D01*
X151272334Y-84830894D01*
X151272336Y-84830894D01*
X151272341Y-84830896D01*
X151446304Y-84865499D01*
X151446307Y-84865500D01*
X151446309Y-84865500D01*
X151623693Y-84865500D01*
X151623694Y-84865499D01*
X151698412Y-84850637D01*
X151797658Y-84830896D01*
X151797661Y-84830894D01*
X151797666Y-84830894D01*
X151961547Y-84763013D01*
X152076209Y-84686397D01*
X152142886Y-84665520D01*
X152145100Y-84665500D01*
X153571862Y-84665500D01*
X153638901Y-84685185D01*
X153672179Y-84716613D01*
X153694310Y-84747073D01*
X153827927Y-84880690D01*
X153980801Y-84991760D01*
X154060347Y-85032290D01*
X154149163Y-85077545D01*
X154149165Y-85077545D01*
X154149168Y-85077547D01*
X154238734Y-85106649D01*
X154270803Y-85117069D01*
X154328478Y-85156507D01*
X154355676Y-85220866D01*
X154343761Y-85289712D01*
X154296516Y-85341188D01*
X154270803Y-85352931D01*
X154149163Y-85392454D01*
X153980800Y-85478240D01*
X153957478Y-85495185D01*
X153827927Y-85589310D01*
X153827925Y-85589312D01*
X153827924Y-85589312D01*
X153694309Y-85722927D01*
X153675812Y-85748387D01*
X153620481Y-85791052D01*
X153575495Y-85799500D01*
X152110100Y-85799500D01*
X152043061Y-85779815D01*
X152041209Y-85778602D01*
X151926549Y-85701988D01*
X151926547Y-85701987D01*
X151762667Y-85634106D01*
X151762658Y-85634103D01*
X151588694Y-85599500D01*
X151588691Y-85599500D01*
X151411309Y-85599500D01*
X151411306Y-85599500D01*
X151237341Y-85634103D01*
X151237332Y-85634106D01*
X151073459Y-85701983D01*
X151073446Y-85701990D01*
X150925965Y-85800535D01*
X150925961Y-85800538D01*
X150800538Y-85925961D01*
X150800535Y-85925965D01*
X150701990Y-86073446D01*
X150701983Y-86073459D01*
X150634106Y-86237332D01*
X150634103Y-86237341D01*
X150599500Y-86411304D01*
X150599500Y-86588695D01*
X150634103Y-86762658D01*
X150634106Y-86762667D01*
X150701983Y-86926540D01*
X150701990Y-86926553D01*
X150800535Y-87074034D01*
X150800538Y-87074038D01*
X150925961Y-87199461D01*
X150925965Y-87199464D01*
X151073446Y-87298009D01*
X151073459Y-87298016D01*
X151142331Y-87326543D01*
X151237334Y-87365894D01*
X151237336Y-87365894D01*
X151237341Y-87365896D01*
X151411304Y-87400499D01*
X151411307Y-87400500D01*
X151411309Y-87400500D01*
X151588693Y-87400500D01*
X151588694Y-87400499D01*
X151646682Y-87388964D01*
X151762658Y-87365896D01*
X151762661Y-87365894D01*
X151762666Y-87365894D01*
X151926547Y-87298013D01*
X152041209Y-87221397D01*
X152107886Y-87200520D01*
X152110100Y-87200500D01*
X153540388Y-87200500D01*
X153607427Y-87220185D01*
X153643489Y-87255608D01*
X153667697Y-87291838D01*
X153690887Y-87326545D01*
X153788454Y-87424112D01*
X153788457Y-87424114D01*
X153903189Y-87500775D01*
X153903192Y-87500776D01*
X153903195Y-87500778D01*
X153955260Y-87522343D01*
X153988499Y-87536111D01*
X153997329Y-87540181D01*
X154048895Y-87566455D01*
X154149163Y-87617545D01*
X154149165Y-87617545D01*
X154149168Y-87617547D01*
X154206459Y-87636162D01*
X154328881Y-87675940D01*
X154515514Y-87705500D01*
X154515519Y-87705500D01*
X154704486Y-87705500D01*
X154891118Y-87675940D01*
X154902964Y-87672091D01*
X155070832Y-87617547D01*
X155239199Y-87531760D01*
X155392073Y-87420690D01*
X155525690Y-87287073D01*
X155575182Y-87218952D01*
X155630512Y-87176287D01*
X155700125Y-87170308D01*
X155761920Y-87202914D01*
X155796277Y-87263752D01*
X155799500Y-87291838D01*
X155799500Y-88490338D01*
X155779815Y-88557377D01*
X155727011Y-88603132D01*
X155657853Y-88613076D01*
X155651308Y-88611955D01*
X155588693Y-88599500D01*
X155588691Y-88599500D01*
X155411309Y-88599500D01*
X155411306Y-88599500D01*
X155237341Y-88634103D01*
X155237332Y-88634106D01*
X155073459Y-88701983D01*
X155073446Y-88701990D01*
X154925965Y-88800535D01*
X154925961Y-88800538D01*
X154800538Y-88925961D01*
X154800535Y-88925965D01*
X154701990Y-89073446D01*
X154701983Y-89073459D01*
X154634106Y-89237332D01*
X154634103Y-89237341D01*
X154599500Y-89411304D01*
X154599500Y-89588695D01*
X154634103Y-89762658D01*
X154634106Y-89762667D01*
X154701984Y-89926542D01*
X154701985Y-89926543D01*
X154701987Y-89926547D01*
X154776829Y-90038555D01*
X154778602Y-90041208D01*
X154799480Y-90107885D01*
X154799500Y-90110099D01*
X154799500Y-93175500D01*
X154779815Y-93242539D01*
X154727011Y-93288294D01*
X154675500Y-93299500D01*
X152931004Y-93299500D01*
X152795677Y-93326418D01*
X152795667Y-93326421D01*
X152668191Y-93379223D01*
X152553457Y-93455885D01*
X152553453Y-93455889D01*
X152436073Y-93573267D01*
X152374750Y-93606752D01*
X152372585Y-93607202D01*
X152237340Y-93634104D01*
X152237332Y-93634106D01*
X152073459Y-93701983D01*
X152073446Y-93701990D01*
X151925965Y-93800535D01*
X151925961Y-93800538D01*
X151800538Y-93925961D01*
X151800535Y-93925965D01*
X151701990Y-94073446D01*
X151701983Y-94073459D01*
X151634106Y-94237332D01*
X151634103Y-94237341D01*
X151599500Y-94411304D01*
X151599500Y-94588695D01*
X151634103Y-94762658D01*
X151634106Y-94762667D01*
X151701983Y-94926540D01*
X151701990Y-94926553D01*
X151800535Y-95074034D01*
X151800538Y-95074038D01*
X151925961Y-95199461D01*
X151925965Y-95199464D01*
X152073446Y-95298009D01*
X152073459Y-95298016D01*
X152196363Y-95348923D01*
X152237334Y-95365894D01*
X152237336Y-95365894D01*
X152237341Y-95365896D01*
X152411304Y-95400499D01*
X152411307Y-95400500D01*
X152411309Y-95400500D01*
X152588693Y-95400500D01*
X152588694Y-95400499D01*
X152672431Y-95383843D01*
X152762658Y-95365896D01*
X152762661Y-95365894D01*
X152762666Y-95365894D01*
X152926547Y-95298013D01*
X153074035Y-95199464D01*
X153199464Y-95074035D01*
X153298013Y-94926547D01*
X153359937Y-94777048D01*
X153403777Y-94722644D01*
X153470071Y-94700579D01*
X153474498Y-94700500D01*
X155568994Y-94700500D01*
X155589261Y-94696468D01*
X155651309Y-94684126D01*
X155720899Y-94690353D01*
X155776077Y-94733215D01*
X155799322Y-94799105D01*
X155799500Y-94805743D01*
X155799500Y-96051714D01*
X155779815Y-96118753D01*
X155727011Y-96164508D01*
X155657853Y-96174452D01*
X155619205Y-96162199D01*
X155525301Y-96114352D01*
X155431524Y-96099500D01*
X153568482Y-96099500D01*
X153487519Y-96112323D01*
X153474696Y-96114354D01*
X153361658Y-96171950D01*
X153361657Y-96171951D01*
X153361652Y-96171954D01*
X153271954Y-96261652D01*
X153271951Y-96261657D01*
X153214352Y-96374698D01*
X153199500Y-96468475D01*
X153199500Y-96611175D01*
X153179815Y-96678214D01*
X153127011Y-96723969D01*
X153057853Y-96733913D01*
X152994297Y-96704888D01*
X152972909Y-96679260D01*
X152972861Y-96679298D01*
X152971798Y-96677928D01*
X152968769Y-96674298D01*
X152968082Y-96673137D01*
X152968081Y-96673135D01*
X152968079Y-96673133D01*
X152968076Y-96673129D01*
X152851870Y-96556923D01*
X152851862Y-96556917D01*
X152761754Y-96503628D01*
X152710398Y-96473256D01*
X152710397Y-96473255D01*
X152710396Y-96473255D01*
X152710393Y-96473254D01*
X152552573Y-96427402D01*
X152552567Y-96427401D01*
X152515701Y-96424500D01*
X152515694Y-96424500D01*
X151484306Y-96424500D01*
X151484298Y-96424500D01*
X151447432Y-96427401D01*
X151447426Y-96427402D01*
X151289606Y-96473254D01*
X151289603Y-96473255D01*
X151148137Y-96556917D01*
X151148129Y-96556923D01*
X151104374Y-96600680D01*
X151043051Y-96634166D01*
X151016692Y-96637000D01*
X150711861Y-96637000D01*
X150644822Y-96617315D01*
X150624179Y-96600680D01*
X150574038Y-96550538D01*
X150574034Y-96550535D01*
X150426553Y-96451990D01*
X150426540Y-96451983D01*
X150262667Y-96384106D01*
X150262658Y-96384103D01*
X150088694Y-96349500D01*
X150088691Y-96349500D01*
X149911309Y-96349500D01*
X149911306Y-96349500D01*
X149737341Y-96384103D01*
X149737332Y-96384106D01*
X149573459Y-96451983D01*
X149573446Y-96451990D01*
X149425965Y-96550535D01*
X149425961Y-96550538D01*
X149300538Y-96675961D01*
X149300535Y-96675965D01*
X149201990Y-96823446D01*
X149201983Y-96823459D01*
X149134106Y-96987332D01*
X149134103Y-96987341D01*
X149099500Y-97161304D01*
X149099500Y-97338695D01*
X149134103Y-97512658D01*
X149134106Y-97512667D01*
X149201983Y-97676540D01*
X149201990Y-97676553D01*
X149300535Y-97824034D01*
X149300538Y-97824038D01*
X149425961Y-97949461D01*
X149425965Y-97949464D01*
X149573446Y-98048009D01*
X149573459Y-98048016D01*
X149696363Y-98098923D01*
X149737334Y-98115894D01*
X149737336Y-98115894D01*
X149737341Y-98115896D01*
X149911304Y-98150499D01*
X149911307Y-98150500D01*
X149911309Y-98150500D01*
X150088693Y-98150500D01*
X150088694Y-98150499D01*
X150146682Y-98138964D01*
X150262658Y-98115896D01*
X150262661Y-98115894D01*
X150262666Y-98115894D01*
X150365146Y-98073446D01*
X150427934Y-98047439D01*
X150475386Y-98038000D01*
X151016692Y-98038000D01*
X151039558Y-98044714D01*
X151063276Y-98047083D01*
X151075727Y-98055334D01*
X151083731Y-98057685D01*
X151093765Y-98064862D01*
X151099337Y-98069283D01*
X151148135Y-98118081D01*
X151198025Y-98147586D01*
X151204675Y-98152862D01*
X151220122Y-98174754D01*
X151238407Y-98194338D01*
X151239958Y-98202866D01*
X151244957Y-98209951D01*
X151246115Y-98236721D01*
X151250910Y-98263079D01*
X151247603Y-98271092D01*
X151247979Y-98279755D01*
X151234481Y-98302901D01*
X151224264Y-98327669D01*
X151215723Y-98335069D01*
X151212783Y-98340112D01*
X151205784Y-98343681D01*
X151190724Y-98356732D01*
X151148135Y-98381919D01*
X151148129Y-98381923D01*
X151031923Y-98498129D01*
X151031917Y-98498137D01*
X150948255Y-98639603D01*
X150948254Y-98639606D01*
X150902402Y-98797426D01*
X150902401Y-98797432D01*
X150899500Y-98834298D01*
X150899500Y-99490701D01*
X150902401Y-99527567D01*
X150902402Y-99527573D01*
X150948254Y-99685393D01*
X150948255Y-99685396D01*
X151031917Y-99826862D01*
X151031923Y-99826870D01*
X151148129Y-99943076D01*
X151148132Y-99943078D01*
X151148135Y-99943081D01*
X151238623Y-99996595D01*
X151286304Y-100047661D01*
X151299500Y-100103325D01*
X151299500Y-100181006D01*
X151299500Y-100318994D01*
X151299500Y-100318996D01*
X151299499Y-100318996D01*
X151326418Y-100454322D01*
X151326421Y-100454332D01*
X151379222Y-100581807D01*
X151392411Y-100601546D01*
X151455886Y-100696543D01*
X151573267Y-100813924D01*
X151606751Y-100875245D01*
X151607202Y-100877413D01*
X151634103Y-101012658D01*
X151634106Y-101012667D01*
X151701983Y-101176540D01*
X151701990Y-101176553D01*
X151800535Y-101324034D01*
X151800538Y-101324038D01*
X151925961Y-101449461D01*
X151925965Y-101449464D01*
X152073446Y-101548009D01*
X152073459Y-101548016D01*
X152196363Y-101598923D01*
X152237334Y-101615894D01*
X152297648Y-101627891D01*
X152305313Y-101629416D01*
X152367224Y-101661800D01*
X152401798Y-101722516D01*
X152398059Y-101792285D01*
X152379499Y-101826518D01*
X152333495Y-101886472D01*
X152202409Y-102113517D01*
X152202404Y-102113528D01*
X152102075Y-102355744D01*
X152034222Y-102608979D01*
X152034220Y-102608990D01*
X152000000Y-102868905D01*
X152000000Y-103131094D01*
X152034220Y-103391009D01*
X152034222Y-103391020D01*
X152102075Y-103644255D01*
X152202404Y-103886471D01*
X152202409Y-103886482D01*
X152333488Y-104113516D01*
X152333494Y-104113524D01*
X152420080Y-104226365D01*
X153322421Y-103324024D01*
X153335359Y-103355258D01*
X153417437Y-103478097D01*
X153521903Y-103582563D01*
X153644742Y-103664641D01*
X153675974Y-103677577D01*
X152773633Y-104579917D01*
X152773633Y-104579918D01*
X152886475Y-104666505D01*
X152886483Y-104666511D01*
X153113517Y-104797590D01*
X153113528Y-104797595D01*
X153355744Y-104897924D01*
X153608979Y-104965777D01*
X153608990Y-104965779D01*
X153868905Y-104999999D01*
X153868920Y-105000000D01*
X154131080Y-105000000D01*
X154131094Y-104999999D01*
X154391009Y-104965779D01*
X154391020Y-104965777D01*
X154644255Y-104897924D01*
X154886471Y-104797595D01*
X154886482Y-104797590D01*
X155113516Y-104666511D01*
X155113534Y-104666499D01*
X155226365Y-104579919D01*
X155226365Y-104579917D01*
X154324025Y-103677578D01*
X154355258Y-103664641D01*
X154478097Y-103582563D01*
X154582563Y-103478097D01*
X154664641Y-103355258D01*
X154677578Y-103324025D01*
X155579917Y-104226365D01*
X155579919Y-104226365D01*
X155666499Y-104113534D01*
X155666511Y-104113516D01*
X155797590Y-103886482D01*
X155797595Y-103886471D01*
X155897924Y-103644255D01*
X155965777Y-103391020D01*
X155965779Y-103391009D01*
X155999999Y-103131094D01*
X156000000Y-103131080D01*
X156000000Y-102868919D01*
X155999999Y-102868905D01*
X155965779Y-102608990D01*
X155965779Y-102608987D01*
X155965413Y-102607621D01*
X155965423Y-102607196D01*
X155964987Y-102605005D01*
X155965477Y-102604907D01*
X155967067Y-102537771D01*
X156006223Y-102479904D01*
X156070448Y-102452392D01*
X156094914Y-102451895D01*
X156134355Y-102454999D01*
X156134366Y-102455000D01*
X156775000Y-102455000D01*
X157275000Y-102455000D01*
X157915634Y-102455000D01*
X157915649Y-102454999D01*
X157952489Y-102452100D01*
X157952495Y-102452099D01*
X158110193Y-102406283D01*
X158110196Y-102406282D01*
X158251552Y-102322685D01*
X158251561Y-102322678D01*
X158367678Y-102206561D01*
X158367685Y-102206552D01*
X158451281Y-102065198D01*
X158497100Y-101907486D01*
X158497295Y-101905001D01*
X158497295Y-101905000D01*
X157275000Y-101905000D01*
X157275000Y-102455000D01*
X156775000Y-102455000D01*
X156775000Y-101905000D01*
X155448552Y-101905000D01*
X154677578Y-102675974D01*
X154664641Y-102644742D01*
X154582563Y-102521903D01*
X154478097Y-102417437D01*
X154355258Y-102335359D01*
X154324024Y-102322421D01*
X155159628Y-101486819D01*
X155220951Y-101453334D01*
X155247309Y-101450500D01*
X155568996Y-101450500D01*
X155660040Y-101432389D01*
X155704328Y-101423580D01*
X155726396Y-101414438D01*
X155773849Y-101405000D01*
X158503198Y-101405000D01*
X158549954Y-101377031D01*
X158619787Y-101379275D01*
X158668731Y-101409388D01*
X159458453Y-102199111D01*
X159458454Y-102199112D01*
X159573192Y-102275777D01*
X159686423Y-102322678D01*
X159700672Y-102328580D01*
X159700676Y-102328580D01*
X159700677Y-102328581D01*
X159836003Y-102355500D01*
X159836006Y-102355500D01*
X159836007Y-102355500D01*
X161106898Y-102355500D01*
X161906007Y-102355500D01*
X163063481Y-102355500D01*
X163092921Y-102364144D01*
X163122908Y-102370668D01*
X163127923Y-102374422D01*
X163130520Y-102375185D01*
X163151162Y-102391819D01*
X163263181Y-102503838D01*
X163296666Y-102565161D01*
X163299500Y-102591519D01*
X163299500Y-103256006D01*
X163299500Y-103393994D01*
X163299500Y-103393996D01*
X163299499Y-103393996D01*
X163326418Y-103529322D01*
X163326421Y-103529332D01*
X163379222Y-103656807D01*
X163455887Y-103771545D01*
X163455888Y-103771546D01*
X163725681Y-104041338D01*
X163759166Y-104102661D01*
X163762000Y-104129019D01*
X163762000Y-104515701D01*
X163764901Y-104552567D01*
X163764902Y-104552573D01*
X163810754Y-104710393D01*
X163810755Y-104710396D01*
X163894417Y-104851862D01*
X163894423Y-104851870D01*
X164010629Y-104968076D01*
X164010633Y-104968079D01*
X164010635Y-104968081D01*
X164152102Y-105051744D01*
X164193724Y-105063836D01*
X164309926Y-105097597D01*
X164309929Y-105097597D01*
X164309931Y-105097598D01*
X164346806Y-105100500D01*
X164346814Y-105100500D01*
X165003186Y-105100500D01*
X165003194Y-105100500D01*
X165040069Y-105097598D01*
X165040071Y-105097597D01*
X165040073Y-105097597D01*
X165081691Y-105085505D01*
X165197898Y-105051744D01*
X165339365Y-104968081D01*
X165455581Y-104851865D01*
X165480768Y-104809276D01*
X165531837Y-104761593D01*
X165600578Y-104749089D01*
X165665168Y-104775734D01*
X165694232Y-104809276D01*
X165719417Y-104851862D01*
X165719423Y-104851870D01*
X165835629Y-104968076D01*
X165835633Y-104968079D01*
X165835635Y-104968081D01*
X165977102Y-105051744D01*
X166018724Y-105063836D01*
X166134926Y-105097597D01*
X166134929Y-105097597D01*
X166134931Y-105097598D01*
X166171806Y-105100500D01*
X166171814Y-105100500D01*
X166828186Y-105100500D01*
X166828194Y-105100500D01*
X166865069Y-105097598D01*
X166865071Y-105097597D01*
X166865073Y-105097597D01*
X167022892Y-105051746D01*
X167022892Y-105051745D01*
X167022898Y-105051744D01*
X167110207Y-105000109D01*
X167177926Y-104982928D01*
X167244189Y-105005088D01*
X167276425Y-105037951D01*
X167300536Y-105074035D01*
X167300539Y-105074038D01*
X167300542Y-105074042D01*
X167425961Y-105199461D01*
X167425965Y-105199464D01*
X167573446Y-105298009D01*
X167573459Y-105298016D01*
X167651882Y-105330499D01*
X167737334Y-105365894D01*
X167737336Y-105365894D01*
X167737341Y-105365896D01*
X167911304Y-105400499D01*
X167911307Y-105400500D01*
X167911309Y-105400500D01*
X168088693Y-105400500D01*
X168088694Y-105400499D01*
X168146682Y-105388964D01*
X168262658Y-105365896D01*
X168262661Y-105365894D01*
X168262666Y-105365894D01*
X168426547Y-105298013D01*
X168574035Y-105199464D01*
X168699464Y-105074035D01*
X168798013Y-104926547D01*
X168865894Y-104762666D01*
X168866108Y-104761593D01*
X168893217Y-104625304D01*
X168900500Y-104588691D01*
X168900500Y-104411309D01*
X168900500Y-104411306D01*
X168900499Y-104411304D01*
X168865896Y-104237341D01*
X168865893Y-104237332D01*
X168861350Y-104226365D01*
X168814611Y-104113524D01*
X168798016Y-104073459D01*
X168798009Y-104073446D01*
X168699464Y-103925965D01*
X168699461Y-103925961D01*
X168574038Y-103800538D01*
X168574034Y-103800535D01*
X168426553Y-103701990D01*
X168426540Y-103701983D01*
X168262667Y-103634106D01*
X168262658Y-103634103D01*
X168127413Y-103607202D01*
X168065502Y-103574817D01*
X168063976Y-103573319D01*
X167946543Y-103455886D01*
X167933889Y-103447431D01*
X167831807Y-103379222D01*
X167704332Y-103326421D01*
X167704322Y-103326418D01*
X167568996Y-103299500D01*
X167568994Y-103299500D01*
X167568993Y-103299500D01*
X167440826Y-103299500D01*
X167435811Y-103298027D01*
X167430694Y-103299085D01*
X167402632Y-103288285D01*
X167373787Y-103279815D01*
X167369053Y-103275361D01*
X167365487Y-103273989D01*
X167354819Y-103261970D01*
X167340792Y-103248774D01*
X167337191Y-103243858D01*
X167280581Y-103148135D01*
X167230092Y-103097646D01*
X167224466Y-103089965D01*
X167215701Y-103065697D01*
X167203334Y-103043049D01*
X167201559Y-103026543D01*
X167200731Y-103024250D01*
X167201126Y-103022518D01*
X167200500Y-103016691D01*
X167200500Y-101733308D01*
X167220185Y-101666269D01*
X167236820Y-101645626D01*
X167280576Y-101601870D01*
X167280581Y-101601865D01*
X167364244Y-101460398D01*
X167401602Y-101331811D01*
X167410097Y-101302573D01*
X167410098Y-101302567D01*
X167412999Y-101265701D01*
X167413000Y-101265694D01*
X167413000Y-100234306D01*
X167410098Y-100197431D01*
X167382757Y-100103325D01*
X167364245Y-100039606D01*
X167364244Y-100039603D01*
X167364244Y-100039602D01*
X167280581Y-99898135D01*
X167280579Y-99898133D01*
X167280576Y-99898129D01*
X167236819Y-99854372D01*
X167203334Y-99793049D01*
X167200500Y-99766691D01*
X167200500Y-98733308D01*
X167220185Y-98666269D01*
X167236820Y-98645626D01*
X167280576Y-98601870D01*
X167280581Y-98601865D01*
X167364244Y-98460398D01*
X167410098Y-98302569D01*
X167413000Y-98265694D01*
X167413000Y-97879019D01*
X167432685Y-97811980D01*
X167449319Y-97791338D01*
X168231351Y-97009306D01*
X169044114Y-96196543D01*
X169047184Y-96191947D01*
X169066773Y-96175575D01*
X169083546Y-96156329D01*
X169097210Y-96150135D01*
X169100794Y-96147140D01*
X169115682Y-96141761D01*
X169140907Y-96134433D01*
X169210772Y-96134631D01*
X169269443Y-96172572D01*
X169298287Y-96236210D01*
X169299500Y-96253509D01*
X169299500Y-100931006D01*
X169299500Y-101068994D01*
X169299500Y-101068996D01*
X169299499Y-101068996D01*
X169326418Y-101204322D01*
X169326421Y-101204332D01*
X169379222Y-101331807D01*
X169455887Y-101446545D01*
X171553454Y-103544112D01*
X171553457Y-103544114D01*
X171636349Y-103599500D01*
X171668189Y-103620775D01*
X171668191Y-103620776D01*
X171668193Y-103620777D01*
X171755178Y-103656807D01*
X171795672Y-103673580D01*
X171795676Y-103673580D01*
X171795677Y-103673581D01*
X171931004Y-103700500D01*
X171931007Y-103700500D01*
X172465501Y-103700500D01*
X172532540Y-103720185D01*
X172578295Y-103772989D01*
X172589501Y-103824500D01*
X172589501Y-104531518D01*
X172604354Y-104625304D01*
X172661950Y-104738342D01*
X172661952Y-104738344D01*
X172661954Y-104738347D01*
X172751652Y-104828045D01*
X172751654Y-104828046D01*
X172751658Y-104828050D01*
X172864694Y-104885645D01*
X172864698Y-104885647D01*
X172958475Y-104900499D01*
X172958481Y-104900500D01*
X176021518Y-104900499D01*
X176115304Y-104885646D01*
X176228342Y-104828050D01*
X176318050Y-104738342D01*
X176375646Y-104625304D01*
X176375646Y-104625302D01*
X176375647Y-104625301D01*
X176390499Y-104531524D01*
X176390500Y-104531519D01*
X176390499Y-101468482D01*
X176375646Y-101374696D01*
X176318050Y-101261658D01*
X176318046Y-101261654D01*
X176318045Y-101261652D01*
X176228347Y-101171954D01*
X176228344Y-101171952D01*
X176228342Y-101171950D01*
X176151517Y-101132805D01*
X176115301Y-101114352D01*
X176021524Y-101099500D01*
X172958482Y-101099500D01*
X172877519Y-101112323D01*
X172864696Y-101114354D01*
X172751658Y-101171950D01*
X172751657Y-101171951D01*
X172751652Y-101171954D01*
X172661954Y-101261652D01*
X172661951Y-101261657D01*
X172604352Y-101374698D01*
X172589500Y-101468475D01*
X172589500Y-102175500D01*
X172586949Y-102184185D01*
X172588238Y-102193147D01*
X172577259Y-102217187D01*
X172569815Y-102242539D01*
X172562974Y-102248466D01*
X172559213Y-102256703D01*
X172536978Y-102270992D01*
X172517011Y-102288294D01*
X172506496Y-102290581D01*
X172500435Y-102294477D01*
X172465500Y-102299500D01*
X172341519Y-102299500D01*
X172274480Y-102279815D01*
X172253838Y-102263181D01*
X170736819Y-100746162D01*
X170703334Y-100684839D01*
X170700500Y-100658481D01*
X170700500Y-92181004D01*
X170673581Y-92045677D01*
X170673580Y-92045676D01*
X170673580Y-92045672D01*
X170632521Y-91946546D01*
X170620778Y-91918195D01*
X170620771Y-91918182D01*
X170544114Y-91803458D01*
X170544111Y-91803454D01*
X170446545Y-91705888D01*
X170446541Y-91705885D01*
X170331817Y-91629228D01*
X170331804Y-91629221D01*
X170204332Y-91576421D01*
X170204322Y-91576418D01*
X170068995Y-91549500D01*
X170068993Y-91549500D01*
X165607663Y-91549500D01*
X165540624Y-91529815D01*
X165494869Y-91477011D01*
X165484925Y-91407853D01*
X165493102Y-91378048D01*
X165533058Y-91281583D01*
X165540894Y-91262666D01*
X165543761Y-91248256D01*
X165564789Y-91142539D01*
X165575500Y-91088691D01*
X165575500Y-90911309D01*
X165575500Y-90911306D01*
X165575499Y-90911304D01*
X165540896Y-90737341D01*
X165540893Y-90737332D01*
X165521767Y-90691157D01*
X165473013Y-90573453D01*
X165473011Y-90573451D01*
X165473011Y-90573449D01*
X165396398Y-90458790D01*
X165375520Y-90392112D01*
X165375500Y-90389899D01*
X165375500Y-88106004D01*
X165355656Y-88006248D01*
X165353934Y-87997591D01*
X165348580Y-87970671D01*
X165313579Y-87886172D01*
X165312294Y-87883070D01*
X165312291Y-87883061D01*
X165295778Y-87843195D01*
X165295771Y-87843182D01*
X165219115Y-87728459D01*
X165171772Y-87681116D01*
X165121542Y-87630886D01*
X163236819Y-85746162D01*
X163203334Y-85684839D01*
X163200500Y-85658481D01*
X163200500Y-85110099D01*
X163220185Y-85043060D01*
X163221398Y-85041208D01*
X163298013Y-84926547D01*
X163365894Y-84762666D01*
X163368996Y-84747075D01*
X163390577Y-84638578D01*
X163400500Y-84588691D01*
X163400500Y-84411309D01*
X163400500Y-84411306D01*
X163400499Y-84411304D01*
X163365896Y-84237341D01*
X163365893Y-84237332D01*
X163298016Y-84073459D01*
X163298009Y-84073446D01*
X163205193Y-83934538D01*
X163199463Y-83925963D01*
X163074038Y-83800538D01*
X163074034Y-83800535D01*
X162926553Y-83701990D01*
X162926540Y-83701983D01*
X162762667Y-83634106D01*
X162762658Y-83634103D01*
X162588694Y-83599500D01*
X162588691Y-83599500D01*
X162411309Y-83599500D01*
X162411306Y-83599500D01*
X162237341Y-83634103D01*
X162237332Y-83634106D01*
X162073459Y-83701983D01*
X162073446Y-83701990D01*
X161925965Y-83800535D01*
X161925961Y-83800538D01*
X161800538Y-83925961D01*
X161800535Y-83925965D01*
X161701990Y-84073446D01*
X161701983Y-84073459D01*
X161634106Y-84237332D01*
X161634103Y-84237341D01*
X161599500Y-84411304D01*
X161599500Y-84588695D01*
X161634103Y-84762658D01*
X161634106Y-84762667D01*
X161701984Y-84926542D01*
X161701985Y-84926543D01*
X161701987Y-84926547D01*
X161759531Y-85012667D01*
X161778602Y-85041208D01*
X161799480Y-85107885D01*
X161799500Y-85110099D01*
X161799500Y-85931006D01*
X161799500Y-86068994D01*
X161799500Y-86068996D01*
X161799499Y-86068996D01*
X161826418Y-86204322D01*
X161826421Y-86204332D01*
X161879222Y-86331807D01*
X161955887Y-86446545D01*
X161955888Y-86446546D01*
X163938181Y-88428837D01*
X163971666Y-88490160D01*
X163974500Y-88516518D01*
X163974500Y-90389899D01*
X163954815Y-90456938D01*
X163953602Y-90458790D01*
X163876988Y-90573449D01*
X163876987Y-90573452D01*
X163809106Y-90737332D01*
X163809103Y-90737341D01*
X163774500Y-90911304D01*
X163774500Y-91075500D01*
X163754815Y-91142539D01*
X163702011Y-91188294D01*
X163650500Y-91199500D01*
X162334298Y-91199500D01*
X162297432Y-91202401D01*
X162297426Y-91202402D01*
X162139606Y-91248254D01*
X162139603Y-91248255D01*
X161998137Y-91331917D01*
X161998129Y-91331923D01*
X161881923Y-91448129D01*
X161881919Y-91448135D01*
X161856732Y-91490724D01*
X161805662Y-91538407D01*
X161736921Y-91550910D01*
X161672331Y-91524264D01*
X161643268Y-91490724D01*
X161642272Y-91489040D01*
X161618081Y-91448135D01*
X161618078Y-91448132D01*
X161618076Y-91448129D01*
X161501870Y-91331923D01*
X161501862Y-91331917D01*
X161423848Y-91285780D01*
X161376165Y-91234711D01*
X161363661Y-91165969D01*
X161390306Y-91101380D01*
X161399288Y-91091367D01*
X161644864Y-90845791D01*
X162063924Y-90426731D01*
X162125245Y-90393248D01*
X162127254Y-90392829D01*
X162262666Y-90365894D01*
X162426547Y-90298013D01*
X162574035Y-90199464D01*
X162699464Y-90074035D01*
X162798013Y-89926547D01*
X162805065Y-89909523D01*
X162852986Y-89793828D01*
X162865894Y-89762666D01*
X162900500Y-89588691D01*
X162900500Y-89411309D01*
X162900500Y-89411306D01*
X162900499Y-89411304D01*
X162865896Y-89237341D01*
X162865893Y-89237332D01*
X162855841Y-89213065D01*
X162844150Y-89184839D01*
X162798016Y-89073459D01*
X162798009Y-89073446D01*
X162699464Y-88925965D01*
X162699461Y-88925961D01*
X162574038Y-88800538D01*
X162574034Y-88800535D01*
X162426553Y-88701990D01*
X162426540Y-88701983D01*
X162262667Y-88634106D01*
X162262658Y-88634103D01*
X162088694Y-88599500D01*
X162088691Y-88599500D01*
X161911309Y-88599500D01*
X161911306Y-88599500D01*
X161737341Y-88634103D01*
X161737332Y-88634106D01*
X161573459Y-88701983D01*
X161573446Y-88701990D01*
X161425965Y-88800535D01*
X161425961Y-88800538D01*
X161300538Y-88925961D01*
X161300535Y-88925965D01*
X161201990Y-89073446D01*
X161201983Y-89073459D01*
X161134107Y-89237329D01*
X161134104Y-89237339D01*
X161107201Y-89372587D01*
X161074816Y-89434498D01*
X161073265Y-89436076D01*
X159955887Y-90553454D01*
X159879222Y-90668192D01*
X159826421Y-90795667D01*
X159826418Y-90795679D01*
X159802395Y-90916451D01*
X159802394Y-90916455D01*
X159800193Y-90927525D01*
X159799500Y-90931007D01*
X159799500Y-91109622D01*
X159799486Y-91110557D01*
X159789403Y-91143083D01*
X159779815Y-91175738D01*
X159779085Y-91176370D01*
X159778799Y-91177294D01*
X159752712Y-91199222D01*
X159727011Y-91221493D01*
X159725592Y-91222019D01*
X159725315Y-91222253D01*
X159724779Y-91222321D01*
X159710095Y-91227775D01*
X159639606Y-91248253D01*
X159639603Y-91248255D01*
X159498137Y-91331917D01*
X159498129Y-91331923D01*
X159381923Y-91448129D01*
X159381917Y-91448137D01*
X159298255Y-91589603D01*
X159298254Y-91589606D01*
X159252402Y-91747426D01*
X159252401Y-91747432D01*
X159249500Y-91784298D01*
X159249500Y-92715701D01*
X159252401Y-92752567D01*
X159252402Y-92752573D01*
X159298254Y-92910393D01*
X159298255Y-92910396D01*
X159381917Y-93051862D01*
X159381923Y-93051870D01*
X159498129Y-93168076D01*
X159498133Y-93168079D01*
X159498135Y-93168081D01*
X159639602Y-93251744D01*
X159681224Y-93263836D01*
X159797426Y-93297597D01*
X159797429Y-93297597D01*
X159797431Y-93297598D01*
X159834306Y-93300500D01*
X159834314Y-93300500D01*
X161165686Y-93300500D01*
X161165694Y-93300500D01*
X161202569Y-93297598D01*
X161202571Y-93297597D01*
X161202573Y-93297597D01*
X161244191Y-93285505D01*
X161360398Y-93251744D01*
X161501865Y-93168081D01*
X161618081Y-93051865D01*
X161643268Y-93009276D01*
X161694337Y-92961593D01*
X161763078Y-92949089D01*
X161827668Y-92975734D01*
X161856732Y-93009276D01*
X161881917Y-93051862D01*
X161881923Y-93051870D01*
X161998129Y-93168076D01*
X161998133Y-93168079D01*
X161998135Y-93168081D01*
X162139602Y-93251744D01*
X162181224Y-93263836D01*
X162297426Y-93297597D01*
X162297429Y-93297597D01*
X162297431Y-93297598D01*
X162334306Y-93300500D01*
X162334314Y-93300500D01*
X163665686Y-93300500D01*
X163665694Y-93300500D01*
X163692210Y-93298413D01*
X163760587Y-93312777D01*
X163810344Y-93361828D01*
X163825683Y-93429993D01*
X163816501Y-93469479D01*
X163809106Y-93487334D01*
X163809105Y-93487337D01*
X163809103Y-93487341D01*
X163774500Y-93661304D01*
X163774500Y-93838695D01*
X163809103Y-94012658D01*
X163809106Y-94012667D01*
X163876984Y-94176542D01*
X163876985Y-94176543D01*
X163876987Y-94176547D01*
X163917603Y-94237332D01*
X163953602Y-94291208D01*
X163974480Y-94357885D01*
X163974500Y-94360099D01*
X163974500Y-94616252D01*
X163954815Y-94683291D01*
X163902011Y-94729046D01*
X163832853Y-94738990D01*
X163815906Y-94735329D01*
X163702567Y-94702401D01*
X163665701Y-94699500D01*
X163665694Y-94699500D01*
X162334306Y-94699500D01*
X162334298Y-94699500D01*
X162297432Y-94702401D01*
X162297426Y-94702402D01*
X162139606Y-94748254D01*
X162139603Y-94748255D01*
X161998137Y-94831917D01*
X161998129Y-94831923D01*
X161881923Y-94948129D01*
X161881918Y-94948135D01*
X161868037Y-94971607D01*
X161857975Y-94988621D01*
X161849675Y-94996371D01*
X161844957Y-95006703D01*
X161824597Y-95019787D01*
X161806908Y-95036304D01*
X161794213Y-95039313D01*
X161786179Y-95044477D01*
X161751244Y-95049500D01*
X161748756Y-95049500D01*
X161681717Y-95029815D01*
X161642024Y-94988621D01*
X161618081Y-94948135D01*
X161618076Y-94948129D01*
X161501870Y-94831923D01*
X161501862Y-94831917D01*
X161384764Y-94762666D01*
X161360398Y-94748256D01*
X161360397Y-94748255D01*
X161360396Y-94748255D01*
X161360393Y-94748254D01*
X161202573Y-94702402D01*
X161202567Y-94702401D01*
X161165701Y-94699500D01*
X161165694Y-94699500D01*
X159834306Y-94699500D01*
X159834298Y-94699500D01*
X159797432Y-94702401D01*
X159797426Y-94702402D01*
X159639606Y-94748254D01*
X159639603Y-94748255D01*
X159498137Y-94831917D01*
X159498129Y-94831923D01*
X159381923Y-94948129D01*
X159381917Y-94948137D01*
X159298255Y-95089603D01*
X159298254Y-95089606D01*
X159294661Y-95101972D01*
X159257052Y-95160856D01*
X159193578Y-95190060D01*
X159128135Y-95181934D01*
X159070569Y-95158090D01*
X159012666Y-95134106D01*
X159012662Y-95134105D01*
X159012658Y-95134103D01*
X158838694Y-95099500D01*
X158838691Y-95099500D01*
X158661309Y-95099500D01*
X158661306Y-95099500D01*
X158487341Y-95134103D01*
X158487337Y-95134105D01*
X158487335Y-95134105D01*
X158487334Y-95134106D01*
X158473807Y-95139709D01*
X158371951Y-95181898D01*
X158302482Y-95189365D01*
X158240003Y-95158090D01*
X158204351Y-95098000D01*
X158200500Y-95067336D01*
X158200500Y-87773362D01*
X158220185Y-87706323D01*
X158272989Y-87660568D01*
X158342147Y-87650624D01*
X158405703Y-87679649D01*
X158412181Y-87685681D01*
X158425961Y-87699461D01*
X158425965Y-87699464D01*
X158573446Y-87798009D01*
X158573459Y-87798016D01*
X158682502Y-87843182D01*
X158737334Y-87865894D01*
X158737336Y-87865894D01*
X158737341Y-87865896D01*
X158911304Y-87900499D01*
X158911307Y-87900500D01*
X158911309Y-87900500D01*
X159088693Y-87900500D01*
X159088694Y-87900499D01*
X159160712Y-87886174D01*
X159262658Y-87865896D01*
X159262661Y-87865894D01*
X159262666Y-87865894D01*
X159426547Y-87798013D01*
X159574035Y-87699464D01*
X159699464Y-87574035D01*
X159798013Y-87426547D01*
X159865894Y-87262666D01*
X159892797Y-87127410D01*
X159925180Y-87065504D01*
X159926668Y-87063987D01*
X160044114Y-86946543D01*
X160120775Y-86831811D01*
X160173580Y-86704328D01*
X160200500Y-86568994D01*
X160200500Y-86431006D01*
X160200500Y-75110099D01*
X160220185Y-75043060D01*
X160221398Y-75041208D01*
X160298013Y-74926547D01*
X160365894Y-74762666D01*
X160400500Y-74588691D01*
X160400500Y-74411309D01*
X160400500Y-74411306D01*
X160400499Y-74411304D01*
X160365896Y-74237341D01*
X160365893Y-74237332D01*
X160298016Y-74073459D01*
X160298009Y-74073446D01*
X160199464Y-73925965D01*
X160199461Y-73925961D01*
X160074038Y-73800538D01*
X160074034Y-73800535D01*
X159926553Y-73701990D01*
X159926540Y-73701983D01*
X159762667Y-73634106D01*
X159762658Y-73634103D01*
X159588694Y-73599500D01*
X159588691Y-73599500D01*
X159411309Y-73599500D01*
X159411306Y-73599500D01*
X159237341Y-73634103D01*
X159237332Y-73634106D01*
X159073459Y-73701983D01*
X159073446Y-73701990D01*
X158925965Y-73800535D01*
X158925961Y-73800538D01*
X158800538Y-73925961D01*
X158800535Y-73925965D01*
X158701990Y-74073446D01*
X158701985Y-74073455D01*
X158687223Y-74109096D01*
X158643382Y-74163499D01*
X158577088Y-74185564D01*
X158509389Y-74168285D01*
X158484981Y-74149324D01*
X157850675Y-73515018D01*
X157817190Y-73453695D01*
X157822174Y-73384003D01*
X157864046Y-73328070D01*
X157890904Y-73312776D01*
X157926547Y-73298013D01*
X158074035Y-73199464D01*
X158199464Y-73074035D01*
X158298013Y-72926547D01*
X158365894Y-72762666D01*
X158392797Y-72627408D01*
X158401561Y-72610655D01*
X158405581Y-72592177D01*
X158424323Y-72567140D01*
X158425180Y-72565503D01*
X158426676Y-72563979D01*
X158539922Y-72450733D01*
X158601243Y-72417250D01*
X158670935Y-72422234D01*
X158726868Y-72464106D01*
X158730703Y-72469524D01*
X158800538Y-72574038D01*
X158925961Y-72699461D01*
X158925965Y-72699464D01*
X159073446Y-72798009D01*
X159073459Y-72798016D01*
X159192627Y-72847376D01*
X159237334Y-72865894D01*
X159237336Y-72865894D01*
X159237341Y-72865896D01*
X159411304Y-72900499D01*
X159411307Y-72900500D01*
X159411309Y-72900500D01*
X159588693Y-72900500D01*
X159588694Y-72900499D01*
X159646682Y-72888964D01*
X159762658Y-72865896D01*
X159762661Y-72865894D01*
X159762666Y-72865894D01*
X159926547Y-72798013D01*
X160074035Y-72699464D01*
X160199464Y-72574035D01*
X160298013Y-72426547D01*
X160299800Y-72422234D01*
X160338396Y-72329052D01*
X160365894Y-72262666D01*
X160392797Y-72127408D01*
X160425180Y-72065503D01*
X160426674Y-72063981D01*
X161044114Y-71446543D01*
X161120775Y-71331811D01*
X161131198Y-71306649D01*
X161149419Y-71262658D01*
X161173580Y-71204328D01*
X161180305Y-71170519D01*
X161186087Y-71141455D01*
X161186087Y-71141454D01*
X161197690Y-71083120D01*
X161200500Y-71068994D01*
X161200500Y-70931006D01*
X161200500Y-66610099D01*
X161220185Y-66543060D01*
X161221398Y-66541208D01*
X161298013Y-66426547D01*
X161365894Y-66262666D01*
X161400500Y-66088691D01*
X161400500Y-65911309D01*
X161400500Y-65911306D01*
X161400499Y-65911304D01*
X161365896Y-65737341D01*
X161365893Y-65737332D01*
X161360440Y-65724168D01*
X161299500Y-65577042D01*
X161298016Y-65573459D01*
X161298009Y-65573446D01*
X161199464Y-65425965D01*
X161199461Y-65425961D01*
X161074038Y-65300538D01*
X161074034Y-65300535D01*
X160926553Y-65201990D01*
X160926540Y-65201983D01*
X160762667Y-65134106D01*
X160762658Y-65134103D01*
X160588694Y-65099500D01*
X160588691Y-65099500D01*
X160411309Y-65099500D01*
X160411307Y-65099500D01*
X160348692Y-65111955D01*
X160279100Y-65105728D01*
X160223923Y-65062865D01*
X160200678Y-64996975D01*
X160200500Y-64990338D01*
X160200500Y-39931004D01*
X160173581Y-39795677D01*
X160173580Y-39795676D01*
X160173580Y-39795672D01*
X160164281Y-39773222D01*
X160120778Y-39668195D01*
X160120771Y-39668182D01*
X160044114Y-39553458D01*
X160044111Y-39553454D01*
X159946545Y-39455888D01*
X159946541Y-39455885D01*
X159831817Y-39379228D01*
X159831804Y-39379221D01*
X159704332Y-39326421D01*
X159704322Y-39326418D01*
X159568995Y-39299500D01*
X159568993Y-39299500D01*
X156706519Y-39299500D01*
X156639480Y-39279815D01*
X156618838Y-39263181D01*
X155846818Y-38491161D01*
X155813333Y-38429838D01*
X155810499Y-38403480D01*
X155810499Y-37605636D01*
X155795046Y-37488246D01*
X155795044Y-37488239D01*
X155795044Y-37488238D01*
X155734536Y-37342159D01*
X155638282Y-37216718D01*
X155512841Y-37120464D01*
X155493708Y-37112539D01*
X155366762Y-37059956D01*
X155366760Y-37059955D01*
X155249370Y-37044501D01*
X155249367Y-37044500D01*
X155249361Y-37044500D01*
X155249354Y-37044500D01*
X153970636Y-37044500D01*
X153853246Y-37059953D01*
X153853237Y-37059956D01*
X153707160Y-37120463D01*
X153581718Y-37216718D01*
X153485463Y-37342160D01*
X153424956Y-37488237D01*
X153424955Y-37488239D01*
X153410331Y-37599328D01*
X153409501Y-37605636D01*
X153409500Y-37605645D01*
X153409500Y-38048479D01*
X153389815Y-38115518D01*
X153373181Y-38136160D01*
X150561681Y-40947660D01*
X150500358Y-40981145D01*
X150430666Y-40976161D01*
X150374733Y-40934289D01*
X150350316Y-40868825D01*
X150350000Y-40859979D01*
X150350000Y-40853753D01*
X150316757Y-40643872D01*
X150316757Y-40643869D01*
X150251095Y-40441782D01*
X150154624Y-40252449D01*
X150115270Y-40198282D01*
X150115269Y-40198282D01*
X149482962Y-40830590D01*
X149465925Y-40767007D01*
X149400099Y-40652993D01*
X149307007Y-40559901D01*
X149192993Y-40494075D01*
X149129409Y-40477037D01*
X149761716Y-39844728D01*
X149758529Y-39804229D01*
X149772893Y-39735851D01*
X149821944Y-39686094D01*
X149876746Y-39671897D01*
X149876667Y-39670881D01*
X149881510Y-39670499D01*
X149881518Y-39670499D01*
X149975304Y-39655646D01*
X150088342Y-39598050D01*
X150178050Y-39508342D01*
X150235646Y-39395304D01*
X150235646Y-39395302D01*
X150235647Y-39395301D01*
X150250499Y-39301524D01*
X150250500Y-39301519D01*
X150250499Y-37538482D01*
X150235646Y-37444696D01*
X150178050Y-37331658D01*
X150178046Y-37331654D01*
X150178045Y-37331652D01*
X150088347Y-37241954D01*
X150088344Y-37241952D01*
X150088342Y-37241950D01*
X150015414Y-37204791D01*
X149964619Y-37156817D01*
X149947824Y-37088996D01*
X149970362Y-37022861D01*
X149984016Y-37006639D01*
X150253840Y-36736816D01*
X150315161Y-36703334D01*
X150341519Y-36700500D01*
X168175500Y-36700500D01*
X168242539Y-36720185D01*
X168288294Y-36772989D01*
X168299500Y-36824500D01*
X168299500Y-37463995D01*
X168326418Y-37599322D01*
X168326421Y-37599332D01*
X168379222Y-37726807D01*
X168455887Y-37841545D01*
X168455888Y-37841546D01*
X171160597Y-40546254D01*
X171194082Y-40607577D01*
X171195389Y-40653333D01*
X171189500Y-40690513D01*
X171189500Y-40879486D01*
X171219059Y-41066118D01*
X171277454Y-41245836D01*
X171355495Y-41398998D01*
X171363240Y-41414199D01*
X171474310Y-41567073D01*
X171607927Y-41700690D01*
X171709720Y-41774647D01*
X171745617Y-41800728D01*
X171788282Y-41856058D01*
X171794261Y-41925672D01*
X171761655Y-41987467D01*
X171702071Y-42021114D01*
X171702141Y-42021386D01*
X171701138Y-42021641D01*
X171700816Y-42021824D01*
X171699228Y-42022129D01*
X171556976Y-42058436D01*
X171556962Y-42058441D01*
X171500415Y-42081863D01*
X172260589Y-42842037D01*
X172197007Y-42859075D01*
X172082993Y-42924901D01*
X171989901Y-43017993D01*
X171924075Y-43132007D01*
X171907037Y-43195589D01*
X171146863Y-42435415D01*
X171146862Y-42435415D01*
X171123446Y-42491947D01*
X171123431Y-42491987D01*
X171105457Y-42542939D01*
X171105455Y-42542946D01*
X171085000Y-42685219D01*
X171085000Y-43964785D01*
X171087893Y-44018762D01*
X171087893Y-44018764D01*
X171123438Y-44158030D01*
X171123442Y-44158043D01*
X171146862Y-44214584D01*
X171907037Y-43454410D01*
X171924075Y-43517993D01*
X171989901Y-43632007D01*
X172082993Y-43725099D01*
X172197007Y-43790925D01*
X172260589Y-43807962D01*
X171500414Y-44568135D01*
X171556960Y-44591557D01*
X171556964Y-44591559D01*
X171607946Y-44609544D01*
X171695914Y-44622192D01*
X171759470Y-44651217D01*
X171797245Y-44709995D01*
X171797245Y-44779864D01*
X171759471Y-44838643D01*
X171751154Y-44845247D01*
X171607933Y-44949305D01*
X171607924Y-44949312D01*
X171474312Y-45082924D01*
X171474312Y-45082925D01*
X171474310Y-45082927D01*
X171426610Y-45148579D01*
X171363240Y-45235800D01*
X171277454Y-45404163D01*
X171219059Y-45583881D01*
X171189500Y-45770513D01*
X171189500Y-45959486D01*
X171219059Y-46146118D01*
X171277454Y-46325836D01*
X171356857Y-46481672D01*
X171363240Y-46494199D01*
X171474310Y-46647073D01*
X171607927Y-46780690D01*
X171760801Y-46891760D01*
X171829061Y-46926540D01*
X171929163Y-46977545D01*
X171929165Y-46977545D01*
X171929168Y-46977547D01*
X172013142Y-47004832D01*
X172050803Y-47017069D01*
X172108478Y-47056507D01*
X172135676Y-47120866D01*
X172123761Y-47189712D01*
X172076516Y-47241188D01*
X172050803Y-47252931D01*
X171929163Y-47292454D01*
X171760800Y-47378240D01*
X171688175Y-47431006D01*
X171607927Y-47489310D01*
X171607925Y-47489312D01*
X171607924Y-47489312D01*
X171474312Y-47622924D01*
X171474312Y-47622925D01*
X171474310Y-47622927D01*
X171466188Y-47634106D01*
X171363240Y-47775800D01*
X171277454Y-47944163D01*
X171219059Y-48123881D01*
X171189500Y-48310513D01*
X171189500Y-48499486D01*
X171219059Y-48686118D01*
X171277454Y-48865836D01*
X171363240Y-49034199D01*
X171474310Y-49187073D01*
X171607927Y-49320690D01*
X171760801Y-49431760D01*
X171840347Y-49472290D01*
X171929163Y-49517545D01*
X171929165Y-49517545D01*
X171929168Y-49517547D01*
X172018734Y-49546649D01*
X172050803Y-49557069D01*
X172108478Y-49596507D01*
X172135676Y-49660866D01*
X172123761Y-49729712D01*
X172076516Y-49781188D01*
X172050803Y-49792931D01*
X171929163Y-49832454D01*
X171760800Y-49918240D01*
X171673579Y-49981610D01*
X171607927Y-50029310D01*
X171607925Y-50029312D01*
X171607924Y-50029312D01*
X171474312Y-50162924D01*
X171474312Y-50162925D01*
X171474310Y-50162927D01*
X171447764Y-50199464D01*
X171363240Y-50315800D01*
X171277454Y-50484163D01*
X171219059Y-50663881D01*
X171189500Y-50850513D01*
X171189500Y-51039486D01*
X171219059Y-51226118D01*
X171277454Y-51405836D01*
X171363240Y-51574199D01*
X171474310Y-51727073D01*
X171607927Y-51860690D01*
X171760801Y-51971760D01*
X171840347Y-52012290D01*
X171929163Y-52057545D01*
X171929165Y-52057545D01*
X171929168Y-52057547D01*
X172018734Y-52086649D01*
X172050803Y-52097069D01*
X172108478Y-52136507D01*
X172135676Y-52200866D01*
X172123761Y-52269712D01*
X172076516Y-52321188D01*
X172050803Y-52332931D01*
X171929163Y-52372454D01*
X171760800Y-52458240D01*
X171673579Y-52521610D01*
X171607927Y-52569310D01*
X171607925Y-52569312D01*
X171607924Y-52569312D01*
X171474312Y-52702924D01*
X171474312Y-52702925D01*
X171474310Y-52702927D01*
X171426610Y-52768579D01*
X171363240Y-52855800D01*
X171277454Y-53024163D01*
X171219059Y-53203881D01*
X171189500Y-53390513D01*
X171189500Y-53579486D01*
X171219059Y-53766118D01*
X171277454Y-53945836D01*
X171363240Y-54114199D01*
X171474310Y-54267073D01*
X171607927Y-54400690D01*
X171745617Y-54500728D01*
X171788282Y-54556058D01*
X171794261Y-54625672D01*
X171761655Y-54687467D01*
X171702071Y-54721114D01*
X171702141Y-54721386D01*
X171701138Y-54721641D01*
X171700816Y-54721824D01*
X171699228Y-54722129D01*
X171556976Y-54758436D01*
X171556962Y-54758441D01*
X171500415Y-54781863D01*
X172260589Y-55542037D01*
X172197007Y-55559075D01*
X172082993Y-55624901D01*
X171989901Y-55717993D01*
X171924075Y-55832007D01*
X171907037Y-55895589D01*
X171146863Y-55135415D01*
X171146862Y-55135415D01*
X171123446Y-55191947D01*
X171123431Y-55191987D01*
X171105457Y-55242939D01*
X171105455Y-55242946D01*
X171085000Y-55385219D01*
X171085000Y-56664785D01*
X171087893Y-56718762D01*
X171087893Y-56718764D01*
X171123438Y-56858030D01*
X171123442Y-56858043D01*
X171146862Y-56914584D01*
X171907037Y-56154410D01*
X171924075Y-56217993D01*
X171989901Y-56332007D01*
X172082993Y-56425099D01*
X172197007Y-56490925D01*
X172260589Y-56507962D01*
X171500414Y-57268135D01*
X171556960Y-57291557D01*
X171556964Y-57291559D01*
X171607946Y-57309544D01*
X171695914Y-57322192D01*
X171759470Y-57351217D01*
X171797245Y-57409995D01*
X171797245Y-57479864D01*
X171759471Y-57538643D01*
X171751154Y-57545247D01*
X171607933Y-57649305D01*
X171607924Y-57649312D01*
X171474312Y-57782924D01*
X171474312Y-57782925D01*
X171474310Y-57782927D01*
X171426610Y-57848579D01*
X171363240Y-57935800D01*
X171277454Y-58104163D01*
X171219059Y-58283881D01*
X171189500Y-58470513D01*
X171189500Y-58659486D01*
X171219059Y-58846118D01*
X171277454Y-59025836D01*
X171332621Y-59134106D01*
X171363240Y-59194199D01*
X171474310Y-59347073D01*
X171607927Y-59480690D01*
X171760801Y-59591760D01*
X171840347Y-59632290D01*
X171929163Y-59677545D01*
X171929165Y-59677545D01*
X171929168Y-59677547D01*
X172018734Y-59706649D01*
X172050803Y-59717069D01*
X172108478Y-59756507D01*
X172135676Y-59820866D01*
X172123761Y-59889712D01*
X172076516Y-59941188D01*
X172050803Y-59952931D01*
X171929163Y-59992454D01*
X171760800Y-60078240D01*
X171673579Y-60141610D01*
X171607927Y-60189310D01*
X171607925Y-60189312D01*
X171607924Y-60189312D01*
X171474312Y-60322924D01*
X171474312Y-60322925D01*
X171474310Y-60322927D01*
X171426610Y-60388579D01*
X171363240Y-60475800D01*
X171277454Y-60644163D01*
X171219059Y-60823881D01*
X171189500Y-61010513D01*
X171189500Y-61199486D01*
X171219059Y-61386118D01*
X171277454Y-61565836D01*
X171363240Y-61734199D01*
X171474310Y-61887073D01*
X171607927Y-62020690D01*
X171760801Y-62131760D01*
X171840347Y-62172290D01*
X171929163Y-62217545D01*
X171929165Y-62217545D01*
X171929168Y-62217547D01*
X172018734Y-62246649D01*
X172050803Y-62257069D01*
X172108478Y-62296507D01*
X172135676Y-62360866D01*
X172123761Y-62429712D01*
X172076516Y-62481188D01*
X172050803Y-62492931D01*
X171929163Y-62532454D01*
X171760800Y-62618240D01*
X171673579Y-62681610D01*
X171607927Y-62729310D01*
X171607925Y-62729312D01*
X171607924Y-62729312D01*
X171474312Y-62862924D01*
X171474312Y-62862925D01*
X171474310Y-62862927D01*
X171426610Y-62928579D01*
X171363240Y-63015800D01*
X171277454Y-63184163D01*
X171219059Y-63363881D01*
X171189500Y-63550513D01*
X171189500Y-63739486D01*
X171219059Y-63926118D01*
X171277454Y-64105836D01*
X171347108Y-64242539D01*
X171363240Y-64274199D01*
X171474310Y-64427073D01*
X171607927Y-64560690D01*
X171760801Y-64671760D01*
X171840347Y-64712290D01*
X171929163Y-64757545D01*
X171929165Y-64757545D01*
X171929168Y-64757547D01*
X172018734Y-64786649D01*
X172050803Y-64797069D01*
X172108478Y-64836507D01*
X172135676Y-64900866D01*
X172123761Y-64969712D01*
X172076516Y-65021188D01*
X172050803Y-65032931D01*
X171929163Y-65072454D01*
X171760800Y-65158240D01*
X171673579Y-65221610D01*
X171607927Y-65269310D01*
X171607925Y-65269312D01*
X171607924Y-65269312D01*
X171474312Y-65402924D01*
X171474312Y-65402925D01*
X171474310Y-65402927D01*
X171429346Y-65464815D01*
X171363240Y-65555800D01*
X171277454Y-65724163D01*
X171219059Y-65903881D01*
X171189500Y-66090513D01*
X171189500Y-66279486D01*
X171219059Y-66466118D01*
X171277454Y-66645836D01*
X171354991Y-66798009D01*
X171363240Y-66814199D01*
X171474310Y-66967073D01*
X171607927Y-67100690D01*
X171731848Y-67190724D01*
X171745617Y-67200728D01*
X171788282Y-67256058D01*
X171794261Y-67325672D01*
X171761655Y-67387467D01*
X171702071Y-67421114D01*
X171702141Y-67421386D01*
X171701138Y-67421641D01*
X171700816Y-67421824D01*
X171699228Y-67422129D01*
X171556976Y-67458436D01*
X171556962Y-67458441D01*
X171500415Y-67481863D01*
X172260589Y-68242037D01*
X172197007Y-68259075D01*
X172082993Y-68324901D01*
X171989901Y-68417993D01*
X171924075Y-68532007D01*
X171907037Y-68595589D01*
X171146863Y-67835415D01*
X171146862Y-67835415D01*
X171123446Y-67891947D01*
X171123431Y-67891987D01*
X171105457Y-67942939D01*
X171105455Y-67942946D01*
X171085000Y-68085219D01*
X171085000Y-69364785D01*
X171087893Y-69418762D01*
X171087893Y-69418764D01*
X171123438Y-69558030D01*
X171123442Y-69558043D01*
X171146862Y-69614584D01*
X171907037Y-68854410D01*
X171924075Y-68917993D01*
X171989901Y-69032007D01*
X172082993Y-69125099D01*
X172197007Y-69190925D01*
X172260589Y-69207962D01*
X171500414Y-69968135D01*
X171556960Y-69991557D01*
X171556964Y-69991559D01*
X171607946Y-70009544D01*
X171695914Y-70022192D01*
X171759470Y-70051217D01*
X171797245Y-70109995D01*
X171797245Y-70179864D01*
X171759471Y-70238643D01*
X171751154Y-70245247D01*
X171607933Y-70349305D01*
X171607924Y-70349312D01*
X171474312Y-70482924D01*
X171474312Y-70482925D01*
X171474310Y-70482927D01*
X171438717Y-70531917D01*
X171363240Y-70635800D01*
X171277454Y-70804163D01*
X171219059Y-70983881D01*
X171189500Y-71170513D01*
X171189500Y-71359486D01*
X171219059Y-71546118D01*
X171277454Y-71725836D01*
X171336438Y-71841597D01*
X171363240Y-71894199D01*
X171474310Y-72047073D01*
X171607927Y-72180690D01*
X171760801Y-72291760D01*
X171833991Y-72329052D01*
X171929163Y-72377545D01*
X171929165Y-72377545D01*
X171929168Y-72377547D01*
X172050804Y-72417069D01*
X172108479Y-72456507D01*
X172135677Y-72520866D01*
X172123762Y-72589712D01*
X172076518Y-72641188D01*
X172050805Y-72652930D01*
X172022372Y-72662168D01*
X171929163Y-72692454D01*
X171760800Y-72778240D01*
X171673579Y-72841610D01*
X171607927Y-72889310D01*
X171607925Y-72889312D01*
X171607924Y-72889312D01*
X171474312Y-73022924D01*
X171474312Y-73022925D01*
X171474310Y-73022927D01*
X171436697Y-73074697D01*
X171363240Y-73175800D01*
X171277454Y-73344163D01*
X171219059Y-73523881D01*
X171189500Y-73710513D01*
X171189500Y-73899486D01*
X171219059Y-74086118D01*
X171277454Y-74265836D01*
X171351574Y-74411304D01*
X171363240Y-74434199D01*
X171474310Y-74587073D01*
X171607927Y-74720690D01*
X171760801Y-74831760D01*
X171840347Y-74872290D01*
X171929163Y-74917545D01*
X171929165Y-74917545D01*
X171929168Y-74917547D01*
X172018734Y-74946649D01*
X172050803Y-74957069D01*
X172108478Y-74996507D01*
X172135676Y-75060866D01*
X172123761Y-75129712D01*
X172076516Y-75181188D01*
X172050803Y-75192931D01*
X171929163Y-75232454D01*
X171760800Y-75318240D01*
X171673579Y-75381610D01*
X171607927Y-75429310D01*
X171607925Y-75429312D01*
X171607924Y-75429312D01*
X171474312Y-75562924D01*
X171474312Y-75562925D01*
X171474310Y-75562927D01*
X171466658Y-75573459D01*
X171363240Y-75715800D01*
X171277454Y-75884163D01*
X171219059Y-76063881D01*
X171189500Y-76250513D01*
X171189500Y-76439486D01*
X171219059Y-76626118D01*
X171277454Y-76805836D01*
X171363240Y-76974199D01*
X171474310Y-77127073D01*
X171607927Y-77260690D01*
X171760801Y-77371760D01*
X171840347Y-77412290D01*
X171929163Y-77457545D01*
X171929165Y-77457545D01*
X171929168Y-77457547D01*
X172018734Y-77486649D01*
X172050803Y-77497069D01*
X172108478Y-77536507D01*
X172135676Y-77600866D01*
X172123761Y-77669712D01*
X172076516Y-77721188D01*
X172050803Y-77732931D01*
X171929163Y-77772454D01*
X171760800Y-77858240D01*
X171690278Y-77909478D01*
X171607927Y-77969310D01*
X171607925Y-77969312D01*
X171607924Y-77969312D01*
X171474312Y-78102924D01*
X171474312Y-78102925D01*
X171474310Y-78102927D01*
X171430227Y-78163602D01*
X171363240Y-78255800D01*
X171277454Y-78424163D01*
X171219059Y-78603881D01*
X171189500Y-78790513D01*
X171189500Y-78979486D01*
X171219059Y-79166118D01*
X171277454Y-79345836D01*
X171335134Y-79459038D01*
X171363240Y-79514199D01*
X171474310Y-79667073D01*
X171607927Y-79800690D01*
X171745617Y-79900728D01*
X171788282Y-79956058D01*
X171794261Y-80025672D01*
X171761655Y-80087467D01*
X171702071Y-80121114D01*
X171702141Y-80121386D01*
X171701138Y-80121641D01*
X171700816Y-80121824D01*
X171699228Y-80122129D01*
X171556976Y-80158436D01*
X171556962Y-80158441D01*
X171500415Y-80181863D01*
X172260589Y-80942037D01*
X172197007Y-80959075D01*
X172082993Y-81024901D01*
X171989901Y-81117993D01*
X171924075Y-81232007D01*
X171907037Y-81295589D01*
X171146863Y-80535415D01*
X171146862Y-80535415D01*
X171123446Y-80591947D01*
X171123431Y-80591987D01*
X171105457Y-80642939D01*
X171105455Y-80642946D01*
X171085000Y-80785219D01*
X171085000Y-82064785D01*
X171087893Y-82118762D01*
X171087893Y-82118764D01*
X171123438Y-82258030D01*
X171123442Y-82258043D01*
X171146862Y-82314584D01*
X171907037Y-81554410D01*
X171924075Y-81617993D01*
X171989901Y-81732007D01*
X172082993Y-81825099D01*
X172197007Y-81890925D01*
X172260589Y-81907962D01*
X171500414Y-82668135D01*
X171556960Y-82691557D01*
X171556964Y-82691559D01*
X171607946Y-82709544D01*
X171695914Y-82722192D01*
X171759470Y-82751217D01*
X171797245Y-82809995D01*
X171797245Y-82879864D01*
X171759471Y-82938643D01*
X171751154Y-82945247D01*
X171607933Y-83049305D01*
X171607924Y-83049312D01*
X171474312Y-83182924D01*
X171474312Y-83182925D01*
X171474310Y-83182927D01*
X171441431Y-83228181D01*
X171363240Y-83335800D01*
X171277454Y-83504163D01*
X171219059Y-83683881D01*
X171189500Y-83870513D01*
X171189500Y-84059486D01*
X171219059Y-84246118D01*
X171277454Y-84425836D01*
X171358948Y-84585775D01*
X171363240Y-84594199D01*
X171474310Y-84747073D01*
X171607927Y-84880690D01*
X171760801Y-84991760D01*
X171840347Y-85032290D01*
X171929163Y-85077545D01*
X171929165Y-85077545D01*
X171929168Y-85077547D01*
X172018734Y-85106649D01*
X172050803Y-85117069D01*
X172108478Y-85156507D01*
X172135676Y-85220866D01*
X172123761Y-85289712D01*
X172076516Y-85341188D01*
X172050803Y-85352931D01*
X171929163Y-85392454D01*
X171760800Y-85478240D01*
X171737478Y-85495185D01*
X171607927Y-85589310D01*
X171607925Y-85589312D01*
X171607924Y-85589312D01*
X171474312Y-85722924D01*
X171474312Y-85722925D01*
X171474310Y-85722927D01*
X171457429Y-85746162D01*
X171363240Y-85875800D01*
X171277454Y-86044163D01*
X171219059Y-86223881D01*
X171189500Y-86410513D01*
X171189500Y-86599486D01*
X171219059Y-86786118D01*
X171277454Y-86965836D01*
X171340985Y-87090521D01*
X171363240Y-87134199D01*
X171474310Y-87287073D01*
X171607927Y-87420690D01*
X171607928Y-87420691D01*
X171607927Y-87420691D01*
X171628442Y-87435595D01*
X171638383Y-87442818D01*
X171681050Y-87498147D01*
X171689500Y-87543137D01*
X171689500Y-87821006D01*
X171689500Y-87958994D01*
X171689500Y-87958996D01*
X171689499Y-87958996D01*
X171716418Y-88094322D01*
X171716421Y-88094332D01*
X171769222Y-88221807D01*
X171845887Y-88336545D01*
X171845888Y-88336546D01*
X175345791Y-91836448D01*
X175379276Y-91897771D01*
X175380583Y-91943527D01*
X175349500Y-92139778D01*
X175349500Y-92360221D01*
X175383985Y-92577952D01*
X175452103Y-92787603D01*
X175452104Y-92787606D01*
X175552187Y-92984025D01*
X175681752Y-93162358D01*
X175681756Y-93162363D01*
X175837636Y-93318243D01*
X175837641Y-93318247D01*
X175921571Y-93379225D01*
X176015978Y-93447815D01*
X176144375Y-93513237D01*
X176212393Y-93547895D01*
X176212396Y-93547896D01*
X176290482Y-93573267D01*
X176422049Y-93616015D01*
X176639778Y-93650500D01*
X176639779Y-93650500D01*
X176860221Y-93650500D01*
X176860222Y-93650500D01*
X177077951Y-93616015D01*
X177287606Y-93547895D01*
X177484022Y-93447815D01*
X177662365Y-93318242D01*
X177818242Y-93162365D01*
X177935034Y-93001613D01*
X177990362Y-92958949D01*
X178035351Y-92950500D01*
X181964649Y-92950500D01*
X182031688Y-92970185D01*
X182064964Y-93001611D01*
X182181753Y-93162358D01*
X182181758Y-93162365D01*
X182337636Y-93318243D01*
X182337641Y-93318247D01*
X182421571Y-93379225D01*
X182515978Y-93447815D01*
X182644375Y-93513237D01*
X182712393Y-93547895D01*
X182712396Y-93547896D01*
X182790482Y-93573267D01*
X182922049Y-93616015D01*
X183139778Y-93650500D01*
X183139779Y-93650500D01*
X183360221Y-93650500D01*
X183360222Y-93650500D01*
X183577951Y-93616015D01*
X183787606Y-93547895D01*
X183984022Y-93447815D01*
X184162365Y-93318242D01*
X184318242Y-93162365D01*
X184447815Y-92984022D01*
X184547895Y-92787606D01*
X184616015Y-92577951D01*
X184650500Y-92360222D01*
X184650500Y-92139778D01*
X184616015Y-91922049D01*
X184569196Y-91777952D01*
X184547896Y-91712396D01*
X184547895Y-91712393D01*
X184505516Y-91629221D01*
X184447815Y-91515978D01*
X184420529Y-91478422D01*
X184318247Y-91337641D01*
X184318243Y-91337636D01*
X184162363Y-91181756D01*
X184162358Y-91181752D01*
X183984025Y-91052187D01*
X183984024Y-91052186D01*
X183984022Y-91052185D01*
X183921096Y-91020122D01*
X183787606Y-90952104D01*
X183787603Y-90952103D01*
X183577952Y-90883985D01*
X183469086Y-90866742D01*
X183360222Y-90849500D01*
X183139778Y-90849500D01*
X183067201Y-90860995D01*
X182922047Y-90883985D01*
X182712396Y-90952103D01*
X182712393Y-90952104D01*
X182515974Y-91052187D01*
X182337641Y-91181752D01*
X182337636Y-91181756D01*
X182181758Y-91337634D01*
X182152396Y-91378048D01*
X182064965Y-91498386D01*
X182009638Y-91541051D01*
X181964649Y-91549500D01*
X178035351Y-91549500D01*
X177968312Y-91529815D01*
X177935035Y-91498388D01*
X177818242Y-91337635D01*
X177662365Y-91181758D01*
X177662363Y-91181756D01*
X177662358Y-91181752D01*
X177484025Y-91052187D01*
X177484024Y-91052186D01*
X177484022Y-91052185D01*
X177421096Y-91020122D01*
X177287606Y-90952104D01*
X177287603Y-90952103D01*
X177077952Y-90883985D01*
X176969086Y-90866742D01*
X176860222Y-90849500D01*
X176639778Y-90849500D01*
X176554877Y-90862946D01*
X176443527Y-90880583D01*
X176374233Y-90871628D01*
X176336448Y-90845791D01*
X173126819Y-87636162D01*
X173124517Y-87631947D01*
X175250000Y-87631947D01*
X175250000Y-87868052D01*
X175286934Y-88101247D01*
X175359897Y-88325802D01*
X175467087Y-88536174D01*
X175527338Y-88619104D01*
X175527340Y-88619105D01*
X176226212Y-87920233D01*
X176237482Y-87962292D01*
X176309890Y-88087708D01*
X176412292Y-88190110D01*
X176537708Y-88262518D01*
X176579765Y-88273787D01*
X175880893Y-88972658D01*
X175963828Y-89032914D01*
X176174197Y-89140102D01*
X176398752Y-89213065D01*
X176398751Y-89213065D01*
X176631948Y-89250000D01*
X176868052Y-89250000D01*
X177101247Y-89213065D01*
X177325802Y-89140102D01*
X177536163Y-89032918D01*
X177536169Y-89032914D01*
X177619104Y-88972658D01*
X177619105Y-88972658D01*
X176920233Y-88273787D01*
X176962292Y-88262518D01*
X177087708Y-88190110D01*
X177190110Y-88087708D01*
X177262518Y-87962292D01*
X177273787Y-87920233D01*
X177972658Y-88619105D01*
X177972658Y-88619104D01*
X178032914Y-88536169D01*
X178032918Y-88536163D01*
X178140102Y-88325802D01*
X178213065Y-88101247D01*
X178250000Y-87868052D01*
X178250000Y-87631947D01*
X181750000Y-87631947D01*
X181750000Y-87868052D01*
X181786934Y-88101247D01*
X181859897Y-88325802D01*
X181967087Y-88536174D01*
X182027338Y-88619104D01*
X182027340Y-88619105D01*
X182726212Y-87920233D01*
X182737482Y-87962292D01*
X182809890Y-88087708D01*
X182912292Y-88190110D01*
X183037708Y-88262518D01*
X183079765Y-88273787D01*
X182380893Y-88972658D01*
X182463828Y-89032914D01*
X182674197Y-89140102D01*
X182898752Y-89213065D01*
X182898751Y-89213065D01*
X183131948Y-89250000D01*
X183368052Y-89250000D01*
X183601247Y-89213065D01*
X183825802Y-89140102D01*
X184036163Y-89032918D01*
X184036169Y-89032914D01*
X184119104Y-88972658D01*
X184119105Y-88972658D01*
X183420233Y-88273787D01*
X183462292Y-88262518D01*
X183587708Y-88190110D01*
X183690110Y-88087708D01*
X183762518Y-87962292D01*
X183773787Y-87920234D01*
X184472658Y-88619105D01*
X184472658Y-88619104D01*
X184532914Y-88536169D01*
X184532918Y-88536163D01*
X184640102Y-88325802D01*
X184713065Y-88101247D01*
X184750000Y-87868052D01*
X184750000Y-87631947D01*
X184713065Y-87398752D01*
X184640102Y-87174197D01*
X184532914Y-86963828D01*
X184472658Y-86880894D01*
X184472658Y-86880893D01*
X183773787Y-87579765D01*
X183762518Y-87537708D01*
X183690110Y-87412292D01*
X183587708Y-87309890D01*
X183462292Y-87237482D01*
X183420234Y-87226212D01*
X184119105Y-86527340D01*
X184119104Y-86527338D01*
X184036174Y-86467087D01*
X183825802Y-86359897D01*
X183601247Y-86286934D01*
X183601248Y-86286934D01*
X183368052Y-86250000D01*
X183131948Y-86250000D01*
X182898752Y-86286934D01*
X182674197Y-86359897D01*
X182463830Y-86467084D01*
X182380894Y-86527340D01*
X183079766Y-87226212D01*
X183037708Y-87237482D01*
X182912292Y-87309890D01*
X182809890Y-87412292D01*
X182737482Y-87537708D01*
X182726212Y-87579765D01*
X182027340Y-86880894D01*
X181967084Y-86963830D01*
X181859897Y-87174197D01*
X181786934Y-87398752D01*
X181750000Y-87631947D01*
X178250000Y-87631947D01*
X178213065Y-87398752D01*
X178140102Y-87174197D01*
X178032914Y-86963828D01*
X177972658Y-86880894D01*
X177972658Y-86880893D01*
X177273787Y-87579765D01*
X177262518Y-87537708D01*
X177190110Y-87412292D01*
X177087708Y-87309890D01*
X176962292Y-87237482D01*
X176920234Y-87226212D01*
X177619105Y-86527340D01*
X177619104Y-86527339D01*
X177536174Y-86467087D01*
X177325802Y-86359897D01*
X177101247Y-86286934D01*
X177101248Y-86286934D01*
X176868052Y-86250000D01*
X176631948Y-86250000D01*
X176398752Y-86286934D01*
X176174197Y-86359897D01*
X175963830Y-86467084D01*
X175880894Y-86527340D01*
X176579766Y-87226212D01*
X176537708Y-87237482D01*
X176412292Y-87309890D01*
X176309890Y-87412292D01*
X176237482Y-87537708D01*
X176226212Y-87579766D01*
X175527340Y-86880894D01*
X175467084Y-86963830D01*
X175359897Y-87174197D01*
X175286934Y-87398752D01*
X175250000Y-87631947D01*
X173124517Y-87631947D01*
X173093334Y-87574839D01*
X173090500Y-87548481D01*
X173090500Y-87543137D01*
X173097243Y-87520171D01*
X173098318Y-87505147D01*
X173103808Y-87497812D01*
X173110185Y-87476098D01*
X173141615Y-87442818D01*
X173172073Y-87420690D01*
X173305690Y-87287073D01*
X173416760Y-87134199D01*
X173502547Y-86965832D01*
X173560940Y-86786118D01*
X173564656Y-86762658D01*
X173590500Y-86599486D01*
X173590500Y-86410513D01*
X173560940Y-86223881D01*
X173510614Y-86068996D01*
X173502547Y-86044168D01*
X173502545Y-86044165D01*
X173502545Y-86044163D01*
X173416759Y-85875800D01*
X173384177Y-85830955D01*
X173305690Y-85722927D01*
X173172073Y-85589310D01*
X173019199Y-85478240D01*
X172962723Y-85449464D01*
X172850836Y-85392454D01*
X172776472Y-85368291D01*
X172729195Y-85352930D01*
X172671521Y-85313493D01*
X172644323Y-85249134D01*
X172656238Y-85180288D01*
X172703482Y-85128812D01*
X172729194Y-85117069D01*
X172850832Y-85077547D01*
X173019199Y-84991760D01*
X173172073Y-84880690D01*
X173305690Y-84747073D01*
X173327821Y-84716613D01*
X173383152Y-84673948D01*
X173428138Y-84665500D01*
X174103996Y-84665500D01*
X174195040Y-84647389D01*
X174239328Y-84638580D01*
X174346474Y-84594199D01*
X174366807Y-84585777D01*
X174366808Y-84585776D01*
X174366811Y-84585775D01*
X174481543Y-84509114D01*
X175003838Y-83986819D01*
X175065161Y-83953334D01*
X175091519Y-83950500D01*
X175464649Y-83950500D01*
X175531688Y-83970185D01*
X175564964Y-84001611D01*
X175681753Y-84162358D01*
X175681758Y-84162365D01*
X175837636Y-84318243D01*
X175837641Y-84318247D01*
X175985721Y-84425832D01*
X176015978Y-84447815D01*
X176136279Y-84509112D01*
X176212393Y-84547895D01*
X176212396Y-84547896D01*
X176317221Y-84581955D01*
X176422049Y-84616015D01*
X176639778Y-84650500D01*
X176639779Y-84650500D01*
X176860221Y-84650500D01*
X176860222Y-84650500D01*
X177077951Y-84616015D01*
X177287606Y-84547895D01*
X177484022Y-84447815D01*
X177662365Y-84318242D01*
X177818242Y-84162365D01*
X177935034Y-84001613D01*
X177990362Y-83958949D01*
X178035351Y-83950500D01*
X181964649Y-83950500D01*
X182031688Y-83970185D01*
X182064964Y-84001611D01*
X182181753Y-84162358D01*
X182181758Y-84162365D01*
X182337636Y-84318243D01*
X182337641Y-84318247D01*
X182485721Y-84425832D01*
X182515978Y-84447815D01*
X182636279Y-84509112D01*
X182712393Y-84547895D01*
X182712396Y-84547896D01*
X182817221Y-84581955D01*
X182922049Y-84616015D01*
X183139778Y-84650500D01*
X183139779Y-84650500D01*
X183360221Y-84650500D01*
X183360222Y-84650500D01*
X183577951Y-84616015D01*
X183787606Y-84547895D01*
X183984022Y-84447815D01*
X184162365Y-84318242D01*
X184318242Y-84162365D01*
X184447815Y-83984022D01*
X184547895Y-83787606D01*
X184616015Y-83577951D01*
X184650500Y-83360222D01*
X184650500Y-83139778D01*
X184616015Y-82922049D01*
X184579607Y-82809995D01*
X184547896Y-82712396D01*
X184547895Y-82712393D01*
X184496192Y-82610923D01*
X184447815Y-82515978D01*
X184345972Y-82375802D01*
X184318247Y-82337641D01*
X184318243Y-82337636D01*
X184162363Y-82181756D01*
X184162358Y-82181752D01*
X183984025Y-82052187D01*
X183984024Y-82052186D01*
X183984022Y-82052185D01*
X183921096Y-82020122D01*
X183787606Y-81952104D01*
X183787603Y-81952103D01*
X183577952Y-81883985D01*
X183463300Y-81865826D01*
X183360222Y-81849500D01*
X183139778Y-81849500D01*
X183067201Y-81860995D01*
X182922047Y-81883985D01*
X182712396Y-81952103D01*
X182712393Y-81952104D01*
X182515974Y-82052187D01*
X182337641Y-82181752D01*
X182337636Y-82181756D01*
X182181758Y-82337634D01*
X182154028Y-82375802D01*
X182064965Y-82498386D01*
X182009638Y-82541051D01*
X181964649Y-82549500D01*
X178035351Y-82549500D01*
X177968312Y-82529815D01*
X177935035Y-82498388D01*
X177818242Y-82337635D01*
X177662365Y-82181758D01*
X177662363Y-82181756D01*
X177662358Y-82181752D01*
X177484025Y-82052187D01*
X177484024Y-82052186D01*
X177484022Y-82052185D01*
X177421096Y-82020122D01*
X177287606Y-81952104D01*
X177287603Y-81952103D01*
X177077952Y-81883985D01*
X176963300Y-81865826D01*
X176860222Y-81849500D01*
X176639778Y-81849500D01*
X176567201Y-81860995D01*
X176422047Y-81883985D01*
X176212396Y-81952103D01*
X176212393Y-81952104D01*
X176015974Y-82052187D01*
X175837641Y-82181752D01*
X175837636Y-82181756D01*
X175681758Y-82337634D01*
X175654028Y-82375802D01*
X175564965Y-82498386D01*
X175509638Y-82541051D01*
X175464649Y-82549500D01*
X174681004Y-82549500D01*
X174545677Y-82576418D01*
X174545667Y-82576421D01*
X174418192Y-82629222D01*
X174303454Y-82705887D01*
X174303453Y-82705888D01*
X173781162Y-83228181D01*
X173719839Y-83261666D01*
X173693481Y-83264500D01*
X173428138Y-83264500D01*
X173361099Y-83244815D01*
X173327821Y-83213387D01*
X173305690Y-83182927D01*
X173172075Y-83049312D01*
X173172074Y-83049311D01*
X173172073Y-83049310D01*
X173019199Y-82938240D01*
X172867687Y-82861041D01*
X172816891Y-82813066D01*
X172800096Y-82745246D01*
X172822633Y-82679111D01*
X172876529Y-82635995D01*
X172962198Y-82600509D01*
X173049511Y-82553838D01*
X173049515Y-82553837D01*
X173118913Y-82507465D01*
X172519410Y-81907962D01*
X172582993Y-81890925D01*
X172697007Y-81825099D01*
X172790099Y-81732007D01*
X172855925Y-81617993D01*
X172872962Y-81554410D01*
X173472464Y-82153913D01*
X173472465Y-82153913D01*
X173518837Y-82084515D01*
X173518838Y-82084511D01*
X173565509Y-81997198D01*
X173625814Y-81851612D01*
X173654555Y-81756864D01*
X173685298Y-81602302D01*
X173685298Y-81602299D01*
X173695000Y-81503789D01*
X173695000Y-81346210D01*
X173685298Y-81247700D01*
X173685298Y-81247697D01*
X173654555Y-81093135D01*
X173625814Y-80998387D01*
X173565509Y-80852801D01*
X173518844Y-80765498D01*
X173518838Y-80765488D01*
X173472465Y-80696085D01*
X172872962Y-81295588D01*
X172855925Y-81232007D01*
X172790099Y-81117993D01*
X172697007Y-81024901D01*
X172582993Y-80959075D01*
X172519410Y-80942037D01*
X173118912Y-80342534D01*
X173049511Y-80296161D01*
X173049501Y-80296155D01*
X172962201Y-80249492D01*
X172876528Y-80214004D01*
X172822125Y-80170162D01*
X172800061Y-80103868D01*
X172817341Y-80036169D01*
X172867686Y-79988959D01*
X173019199Y-79911760D01*
X173172073Y-79800690D01*
X173305690Y-79667073D01*
X173416760Y-79514199D01*
X173502547Y-79345832D01*
X173560940Y-79166118D01*
X173563862Y-79147667D01*
X173590500Y-78979486D01*
X173590500Y-78790513D01*
X173568566Y-78652031D01*
X173568565Y-78652030D01*
X173565385Y-78631947D01*
X175250000Y-78631947D01*
X175250000Y-78868052D01*
X175286934Y-79101247D01*
X175359897Y-79325802D01*
X175467087Y-79536174D01*
X175527338Y-79619104D01*
X175527340Y-79619105D01*
X176226212Y-78920233D01*
X176237482Y-78962292D01*
X176309890Y-79087708D01*
X176412292Y-79190110D01*
X176537708Y-79262518D01*
X176579765Y-79273787D01*
X175880893Y-79972658D01*
X175963828Y-80032914D01*
X176174197Y-80140102D01*
X176398752Y-80213065D01*
X176398751Y-80213065D01*
X176631948Y-80250000D01*
X176868052Y-80250000D01*
X177101247Y-80213065D01*
X177325802Y-80140102D01*
X177536163Y-80032918D01*
X177536169Y-80032914D01*
X177619104Y-79972658D01*
X177619105Y-79972658D01*
X176920233Y-79273787D01*
X176962292Y-79262518D01*
X177087708Y-79190110D01*
X177190110Y-79087708D01*
X177262518Y-78962292D01*
X177273787Y-78920233D01*
X177972658Y-79619105D01*
X177972658Y-79619104D01*
X178032914Y-79536169D01*
X178032918Y-79536163D01*
X178140102Y-79325802D01*
X178213065Y-79101247D01*
X178250000Y-78868052D01*
X178250000Y-78631947D01*
X181750000Y-78631947D01*
X181750000Y-78868052D01*
X181786934Y-79101247D01*
X181859897Y-79325802D01*
X181967087Y-79536174D01*
X182027338Y-79619104D01*
X182027340Y-79619105D01*
X182726212Y-78920233D01*
X182737482Y-78962292D01*
X182809890Y-79087708D01*
X182912292Y-79190110D01*
X183037708Y-79262518D01*
X183079765Y-79273787D01*
X182380893Y-79972658D01*
X182463828Y-80032914D01*
X182674197Y-80140102D01*
X182898752Y-80213065D01*
X182898751Y-80213065D01*
X183131948Y-80250000D01*
X183368052Y-80250000D01*
X183601247Y-80213065D01*
X183825802Y-80140102D01*
X184036163Y-80032918D01*
X184036169Y-80032914D01*
X184119104Y-79972658D01*
X184119105Y-79972658D01*
X183420233Y-79273787D01*
X183462292Y-79262518D01*
X183587708Y-79190110D01*
X183690110Y-79087708D01*
X183762518Y-78962292D01*
X183773787Y-78920234D01*
X184472658Y-79619105D01*
X184472658Y-79619104D01*
X184532914Y-79536169D01*
X184532918Y-79536163D01*
X184640102Y-79325802D01*
X184713065Y-79101247D01*
X184750000Y-78868052D01*
X184750000Y-78631947D01*
X184713065Y-78398752D01*
X184640102Y-78174197D01*
X184532914Y-77963828D01*
X184472658Y-77880894D01*
X184472658Y-77880893D01*
X183773787Y-78579765D01*
X183762518Y-78537708D01*
X183690110Y-78412292D01*
X183587708Y-78309890D01*
X183462292Y-78237482D01*
X183420234Y-78226212D01*
X184119105Y-77527340D01*
X184119104Y-77527338D01*
X184036174Y-77467087D01*
X183825802Y-77359897D01*
X183601247Y-77286934D01*
X183601248Y-77286934D01*
X183368052Y-77250000D01*
X183131948Y-77250000D01*
X182898752Y-77286934D01*
X182674197Y-77359897D01*
X182463830Y-77467084D01*
X182380894Y-77527340D01*
X183079766Y-78226212D01*
X183037708Y-78237482D01*
X182912292Y-78309890D01*
X182809890Y-78412292D01*
X182737482Y-78537708D01*
X182726212Y-78579765D01*
X182027340Y-77880894D01*
X181967084Y-77963830D01*
X181859897Y-78174197D01*
X181786934Y-78398752D01*
X181750000Y-78631947D01*
X178250000Y-78631947D01*
X178213065Y-78398752D01*
X178140102Y-78174197D01*
X178032914Y-77963828D01*
X177972658Y-77880894D01*
X177972658Y-77880893D01*
X177273787Y-78579765D01*
X177262518Y-78537708D01*
X177190110Y-78412292D01*
X177087708Y-78309890D01*
X176962292Y-78237482D01*
X176920234Y-78226212D01*
X177619105Y-77527340D01*
X177619104Y-77527339D01*
X177536174Y-77467087D01*
X177325802Y-77359897D01*
X177101247Y-77286934D01*
X177101248Y-77286934D01*
X176868052Y-77250000D01*
X176631948Y-77250000D01*
X176398752Y-77286934D01*
X176174197Y-77359897D01*
X175963830Y-77467084D01*
X175880894Y-77527340D01*
X176579766Y-78226212D01*
X176537708Y-78237482D01*
X176412292Y-78309890D01*
X176309890Y-78412292D01*
X176237482Y-78537708D01*
X176226212Y-78579766D01*
X175527340Y-77880894D01*
X175467084Y-77963830D01*
X175359897Y-78174197D01*
X175286934Y-78398752D01*
X175250000Y-78631947D01*
X173565385Y-78631947D01*
X173560940Y-78603882D01*
X173540432Y-78540766D01*
X173539423Y-78536774D01*
X173540598Y-78505810D01*
X173539714Y-78474855D01*
X173541918Y-78471014D01*
X173542073Y-78466955D01*
X173554373Y-78449323D01*
X173571957Y-78418698D01*
X175950127Y-76040528D01*
X176011448Y-76007045D01*
X176081140Y-76012029D01*
X176100925Y-76021478D01*
X176152102Y-76051744D01*
X176193724Y-76063836D01*
X176309926Y-76097597D01*
X176309929Y-76097597D01*
X176309931Y-76097598D01*
X176346806Y-76100500D01*
X176346814Y-76100500D01*
X177003186Y-76100500D01*
X177003194Y-76100500D01*
X177040069Y-76097598D01*
X177040071Y-76097597D01*
X177040073Y-76097597D01*
X177081691Y-76085505D01*
X177197898Y-76051744D01*
X177339365Y-75968081D01*
X177455581Y-75851865D01*
X177480768Y-75809276D01*
X177531837Y-75761593D01*
X177600578Y-75749089D01*
X177665168Y-75775734D01*
X177694232Y-75809276D01*
X177719417Y-75851862D01*
X177719423Y-75851870D01*
X177835629Y-75968076D01*
X177835633Y-75968079D01*
X177835635Y-75968081D01*
X177977102Y-76051744D01*
X178018724Y-76063836D01*
X178134926Y-76097597D01*
X178134929Y-76097597D01*
X178134931Y-76097598D01*
X178171806Y-76100500D01*
X178171814Y-76100500D01*
X178828186Y-76100500D01*
X178828194Y-76100500D01*
X178865069Y-76097598D01*
X178865071Y-76097597D01*
X178865073Y-76097597D01*
X178906691Y-76085505D01*
X179022898Y-76051744D01*
X179164365Y-75968081D01*
X179280581Y-75851865D01*
X179334094Y-75761378D01*
X179385163Y-75713696D01*
X179440826Y-75700500D01*
X181318995Y-75700500D01*
X181410041Y-75682389D01*
X181454328Y-75673580D01*
X181581811Y-75620775D01*
X181696542Y-75544114D01*
X181794114Y-75446542D01*
X181870775Y-75331811D01*
X181923580Y-75204328D01*
X181938422Y-75129712D01*
X181950500Y-75068995D01*
X181950500Y-73866363D01*
X181970185Y-73799324D01*
X182022989Y-73753569D01*
X182087758Y-73743074D01*
X182152160Y-73749999D01*
X182152172Y-73750000D01*
X182500000Y-73750000D01*
X183000000Y-73750000D01*
X183347828Y-73750000D01*
X183347844Y-73749999D01*
X183407372Y-73743598D01*
X183407379Y-73743596D01*
X183542086Y-73693354D01*
X183542093Y-73693350D01*
X183657187Y-73607190D01*
X183657190Y-73607187D01*
X183743350Y-73492093D01*
X183743354Y-73492086D01*
X183793596Y-73357379D01*
X183793598Y-73357372D01*
X183799999Y-73297844D01*
X183800000Y-73297827D01*
X183800000Y-72750000D01*
X183000000Y-72750000D01*
X183000000Y-73750000D01*
X182500000Y-73750000D01*
X182500000Y-72624000D01*
X182519685Y-72556961D01*
X182572489Y-72511206D01*
X182624000Y-72500000D01*
X182750000Y-72500000D01*
X182750000Y-72374000D01*
X182769685Y-72306961D01*
X182822489Y-72261206D01*
X182874000Y-72250000D01*
X183800000Y-72250000D01*
X183800000Y-71702172D01*
X183799999Y-71702155D01*
X183793598Y-71642627D01*
X183793596Y-71642620D01*
X183743354Y-71507913D01*
X183743350Y-71507906D01*
X183657190Y-71392812D01*
X183657187Y-71392809D01*
X183542093Y-71306649D01*
X183542086Y-71306645D01*
X183431529Y-71265410D01*
X183375595Y-71223539D01*
X183351178Y-71158074D01*
X183366030Y-71089801D01*
X183370074Y-71083120D01*
X183370771Y-71081815D01*
X183370775Y-71081811D01*
X183411163Y-70984306D01*
X183423580Y-70954329D01*
X183438519Y-70879225D01*
X183450500Y-70818993D01*
X183450500Y-70694442D01*
X183450804Y-70690112D01*
X183461519Y-70661265D01*
X183470185Y-70631756D01*
X183473645Y-70628625D01*
X183475135Y-70624615D01*
X183492415Y-70611643D01*
X183518207Y-70588309D01*
X183538342Y-70578050D01*
X183628050Y-70488342D01*
X183685646Y-70375304D01*
X183685646Y-70375302D01*
X183685647Y-70375301D01*
X183700499Y-70281524D01*
X183700500Y-70281519D01*
X183700499Y-68718482D01*
X183685646Y-68624696D01*
X183628050Y-68511658D01*
X183628046Y-68511654D01*
X183628045Y-68511652D01*
X183538347Y-68421954D01*
X183538344Y-68421952D01*
X183538342Y-68421950D01*
X183439227Y-68371448D01*
X183425301Y-68364352D01*
X183331524Y-68349500D01*
X182168481Y-68349500D01*
X182093896Y-68361313D01*
X182024603Y-68352357D01*
X181971151Y-68307360D01*
X181950513Y-68240608D01*
X181950500Y-68238839D01*
X181950500Y-67931004D01*
X181923581Y-67795677D01*
X181923580Y-67795676D01*
X181923580Y-67795672D01*
X181907753Y-67757461D01*
X181870778Y-67668195D01*
X181870771Y-67668182D01*
X181794114Y-67553458D01*
X181794111Y-67553454D01*
X181696545Y-67455888D01*
X181696541Y-67455885D01*
X181581817Y-67379228D01*
X181581804Y-67379221D01*
X181454332Y-67326421D01*
X181454322Y-67326418D01*
X181318995Y-67299500D01*
X181318993Y-67299500D01*
X179440826Y-67299500D01*
X179373787Y-67279815D01*
X179334094Y-67238621D01*
X179318209Y-67211761D01*
X179280581Y-67148135D01*
X179280579Y-67148133D01*
X179280576Y-67148129D01*
X179164370Y-67031923D01*
X179164362Y-67031917D01*
X179054719Y-66967075D01*
X179022898Y-66948256D01*
X179022897Y-66948255D01*
X179022896Y-66948255D01*
X179022893Y-66948254D01*
X178865073Y-66902402D01*
X178865067Y-66902401D01*
X178828201Y-66899500D01*
X178828194Y-66899500D01*
X178171806Y-66899500D01*
X178171798Y-66899500D01*
X178134932Y-66902401D01*
X178134926Y-66902402D01*
X177977106Y-66948254D01*
X177977103Y-66948255D01*
X177835637Y-67031917D01*
X177835629Y-67031923D01*
X177719423Y-67148129D01*
X177719419Y-67148135D01*
X177694232Y-67190724D01*
X177643162Y-67238407D01*
X177574421Y-67250910D01*
X177509831Y-67224264D01*
X177480768Y-67190724D01*
X177479772Y-67189040D01*
X177455581Y-67148135D01*
X177455578Y-67148132D01*
X177455576Y-67148129D01*
X177339370Y-67031923D01*
X177339362Y-67031917D01*
X177229719Y-66967075D01*
X177197898Y-66948256D01*
X177197897Y-66948255D01*
X177197896Y-66948255D01*
X177197893Y-66948254D01*
X177040073Y-66902402D01*
X177040067Y-66902401D01*
X177003201Y-66899500D01*
X177003194Y-66899500D01*
X176346806Y-66899500D01*
X176346798Y-66899500D01*
X176309932Y-66902401D01*
X176309926Y-66902402D01*
X176152106Y-66948254D01*
X176152103Y-66948255D01*
X176010637Y-67031917D01*
X176010629Y-67031923D01*
X175894423Y-67148129D01*
X175894417Y-67148137D01*
X175840906Y-67238621D01*
X175789837Y-67286304D01*
X175734174Y-67299500D01*
X174931005Y-67299500D01*
X174795677Y-67326418D01*
X174795667Y-67326421D01*
X174668195Y-67379221D01*
X174668182Y-67379228D01*
X174553458Y-67455885D01*
X174553454Y-67455888D01*
X174455888Y-67553454D01*
X174455885Y-67553458D01*
X174379228Y-67668182D01*
X174379221Y-67668195D01*
X174326421Y-67795667D01*
X174326418Y-67795677D01*
X174299500Y-67931004D01*
X174299500Y-70524186D01*
X174279815Y-70591225D01*
X174263181Y-70611867D01*
X173778175Y-71096872D01*
X173716852Y-71130357D01*
X173647160Y-71125373D01*
X173591227Y-71083501D01*
X173568021Y-71028589D01*
X173560940Y-70983881D01*
X173502545Y-70804163D01*
X173457290Y-70715347D01*
X173416760Y-70635801D01*
X173305690Y-70482927D01*
X173172073Y-70349310D01*
X173019199Y-70238240D01*
X172867687Y-70161041D01*
X172816891Y-70113066D01*
X172800096Y-70045246D01*
X172822633Y-69979111D01*
X172876529Y-69935995D01*
X172962198Y-69900509D01*
X173049511Y-69853838D01*
X173049515Y-69853837D01*
X173118913Y-69807465D01*
X172519410Y-69207962D01*
X172582993Y-69190925D01*
X172697007Y-69125099D01*
X172790099Y-69032007D01*
X172855925Y-68917993D01*
X172872962Y-68854410D01*
X173472464Y-69453913D01*
X173472465Y-69453913D01*
X173518837Y-69384515D01*
X173518838Y-69384511D01*
X173565509Y-69297198D01*
X173625814Y-69151612D01*
X173654555Y-69056864D01*
X173685298Y-68902302D01*
X173685298Y-68902299D01*
X173695000Y-68803789D01*
X173695000Y-68646210D01*
X173685298Y-68547700D01*
X173685298Y-68547697D01*
X173654555Y-68393135D01*
X173625814Y-68298387D01*
X173565509Y-68152801D01*
X173518844Y-68065498D01*
X173518838Y-68065488D01*
X173472465Y-67996085D01*
X172872962Y-68595588D01*
X172855925Y-68532007D01*
X172790099Y-68417993D01*
X172697007Y-68324901D01*
X172582993Y-68259075D01*
X172519410Y-68242037D01*
X173118912Y-67642534D01*
X173049511Y-67596161D01*
X173049501Y-67596155D01*
X172962201Y-67549492D01*
X172876528Y-67514004D01*
X172822125Y-67470162D01*
X172800061Y-67403868D01*
X172817341Y-67336169D01*
X172867686Y-67288959D01*
X173019199Y-67211760D01*
X173172073Y-67100690D01*
X173305690Y-66967073D01*
X173416760Y-66814199D01*
X173502547Y-66645832D01*
X173560940Y-66466118D01*
X173590500Y-66279486D01*
X173590500Y-66090513D01*
X173560940Y-65903881D01*
X173514659Y-65761445D01*
X173502547Y-65724168D01*
X173502545Y-65724165D01*
X173502545Y-65724163D01*
X173428521Y-65578884D01*
X173416760Y-65555801D01*
X173305690Y-65402927D01*
X173172073Y-65269310D01*
X173019199Y-65158240D01*
X173001775Y-65149362D01*
X172850836Y-65072454D01*
X172776472Y-65048291D01*
X172729195Y-65032930D01*
X172671521Y-64993493D01*
X172644323Y-64929134D01*
X172656238Y-64860288D01*
X172703482Y-64808812D01*
X172729194Y-64797069D01*
X172850832Y-64757547D01*
X173019199Y-64671760D01*
X173172073Y-64560690D01*
X173305690Y-64427073D01*
X173416760Y-64274199D01*
X173502547Y-64105832D01*
X173560940Y-63926118D01*
X173590500Y-63739486D01*
X173590500Y-63550513D01*
X173560940Y-63363881D01*
X173511756Y-63212511D01*
X173502547Y-63184168D01*
X173502545Y-63184165D01*
X173502545Y-63184163D01*
X173416759Y-63015800D01*
X173368607Y-62949525D01*
X173305690Y-62862927D01*
X173172073Y-62729310D01*
X173019199Y-62618240D01*
X172850836Y-62532454D01*
X172776472Y-62508291D01*
X172729195Y-62492930D01*
X172671521Y-62453493D01*
X172644323Y-62389134D01*
X172656238Y-62320288D01*
X172703482Y-62268812D01*
X172729194Y-62257069D01*
X172850832Y-62217547D01*
X173019199Y-62131760D01*
X173172073Y-62020690D01*
X173305690Y-61887073D01*
X173416760Y-61734199D01*
X173502547Y-61565832D01*
X173560940Y-61386118D01*
X173590500Y-61199486D01*
X173590500Y-61010513D01*
X173560940Y-60823881D01*
X173527344Y-60720485D01*
X173502547Y-60644168D01*
X173502545Y-60644165D01*
X173502545Y-60644163D01*
X173416759Y-60475800D01*
X173305690Y-60322927D01*
X173172073Y-60189310D01*
X173019199Y-60078240D01*
X172850836Y-59992454D01*
X172776472Y-59968291D01*
X172729195Y-59952930D01*
X172671521Y-59913493D01*
X172644323Y-59849134D01*
X172656238Y-59780288D01*
X172703482Y-59728812D01*
X172729194Y-59717069D01*
X172850832Y-59677547D01*
X173019199Y-59591760D01*
X173172073Y-59480690D01*
X173305690Y-59347073D01*
X173416760Y-59194199D01*
X173502547Y-59025832D01*
X173560940Y-58846118D01*
X173567112Y-58807152D01*
X173590500Y-58659486D01*
X173590500Y-58470513D01*
X173560940Y-58283881D01*
X173527549Y-58181116D01*
X173502547Y-58104168D01*
X173502545Y-58104165D01*
X173502545Y-58104163D01*
X173457290Y-58015347D01*
X173416760Y-57935801D01*
X173305690Y-57782927D01*
X173172073Y-57649310D01*
X173019199Y-57538240D01*
X172867687Y-57461041D01*
X172816891Y-57413066D01*
X172800096Y-57345246D01*
X172822633Y-57279111D01*
X172876529Y-57235995D01*
X172962198Y-57200509D01*
X173049511Y-57153838D01*
X173049515Y-57153837D01*
X173118913Y-57107465D01*
X172519410Y-56507962D01*
X172582993Y-56490925D01*
X172697007Y-56425099D01*
X172790099Y-56332007D01*
X172855925Y-56217993D01*
X172872962Y-56154410D01*
X173472465Y-56753913D01*
X173518837Y-56684515D01*
X173518838Y-56684511D01*
X173565509Y-56597198D01*
X173625814Y-56451612D01*
X173654555Y-56356864D01*
X173685298Y-56202302D01*
X173685298Y-56202299D01*
X173695000Y-56103789D01*
X173695000Y-55946210D01*
X173685298Y-55847700D01*
X173685298Y-55847697D01*
X173654555Y-55693135D01*
X173625814Y-55598387D01*
X173565509Y-55452801D01*
X173518844Y-55365498D01*
X173518838Y-55365488D01*
X173472465Y-55296085D01*
X172872962Y-55895588D01*
X172855925Y-55832007D01*
X172790099Y-55717993D01*
X172697007Y-55624901D01*
X172582993Y-55559075D01*
X172519410Y-55542037D01*
X173118912Y-54942534D01*
X173049511Y-54896161D01*
X173049501Y-54896155D01*
X172962201Y-54849492D01*
X172876528Y-54814004D01*
X172822125Y-54770162D01*
X172800061Y-54703868D01*
X172817341Y-54636169D01*
X172867686Y-54588959D01*
X173019199Y-54511760D01*
X173172073Y-54400690D01*
X173305690Y-54267073D01*
X173416760Y-54114199D01*
X173502547Y-53945832D01*
X173560940Y-53766118D01*
X173563411Y-53750519D01*
X173590500Y-53579486D01*
X173590500Y-53390513D01*
X173560940Y-53203881D01*
X173511756Y-53052511D01*
X173502547Y-53024168D01*
X173502545Y-53024165D01*
X173502545Y-53024163D01*
X173428521Y-52878884D01*
X173416760Y-52855801D01*
X173305690Y-52702927D01*
X173172073Y-52569310D01*
X173019199Y-52458240D01*
X172850836Y-52372454D01*
X172776472Y-52348291D01*
X172729195Y-52332930D01*
X172671521Y-52293493D01*
X172644323Y-52229134D01*
X172656238Y-52160288D01*
X172703482Y-52108812D01*
X172729194Y-52097069D01*
X172850832Y-52057547D01*
X173019199Y-51971760D01*
X173172073Y-51860690D01*
X173305690Y-51727073D01*
X173416760Y-51574199D01*
X173502547Y-51405832D01*
X173560940Y-51226118D01*
X173590500Y-51039486D01*
X173590500Y-50850513D01*
X173560940Y-50663881D01*
X173525061Y-50553458D01*
X173502547Y-50484168D01*
X173502545Y-50484165D01*
X173502545Y-50484163D01*
X173455990Y-50392795D01*
X173416760Y-50315801D01*
X173305690Y-50162927D01*
X173172073Y-50029310D01*
X173019199Y-49918240D01*
X172850836Y-49832454D01*
X172776472Y-49808291D01*
X172729195Y-49792930D01*
X172671521Y-49753493D01*
X172644323Y-49689134D01*
X172656238Y-49620288D01*
X172703482Y-49568812D01*
X172729194Y-49557069D01*
X172850832Y-49517547D01*
X173019199Y-49431760D01*
X173172073Y-49320690D01*
X173305690Y-49187073D01*
X173416760Y-49034199D01*
X173502547Y-48865832D01*
X173560940Y-48686118D01*
X173576370Y-48588695D01*
X173590500Y-48499486D01*
X173590500Y-48310513D01*
X173560940Y-48123881D01*
X173533846Y-48040497D01*
X173502547Y-47944168D01*
X173502545Y-47944165D01*
X173502545Y-47944163D01*
X173429363Y-47800536D01*
X173416760Y-47775801D01*
X173305690Y-47622927D01*
X173172073Y-47489310D01*
X173019199Y-47378240D01*
X172850836Y-47292454D01*
X172750057Y-47259709D01*
X172729195Y-47252930D01*
X172671521Y-47213493D01*
X172644323Y-47149134D01*
X172656238Y-47080288D01*
X172703482Y-47028812D01*
X172729194Y-47017069D01*
X172850832Y-46977547D01*
X173019199Y-46891760D01*
X173172073Y-46780690D01*
X173305690Y-46647073D01*
X173416760Y-46494199D01*
X173502547Y-46325832D01*
X173560940Y-46146118D01*
X173572450Y-46073446D01*
X173590500Y-45959486D01*
X173590500Y-45770513D01*
X173560940Y-45583881D01*
X173502545Y-45404163D01*
X173423173Y-45248388D01*
X173416760Y-45235801D01*
X173305690Y-45082927D01*
X173172073Y-44949310D01*
X173019199Y-44838240D01*
X172867687Y-44761041D01*
X172816891Y-44713066D01*
X172800096Y-44645246D01*
X172822633Y-44579111D01*
X172876529Y-44535995D01*
X172962198Y-44500509D01*
X173049511Y-44453838D01*
X173049515Y-44453837D01*
X173118913Y-44407465D01*
X172519410Y-43807962D01*
X172582993Y-43790925D01*
X172697007Y-43725099D01*
X172790099Y-43632007D01*
X172855925Y-43517993D01*
X172872962Y-43454410D01*
X173472465Y-44053913D01*
X173518837Y-43984515D01*
X173518838Y-43984511D01*
X173565509Y-43897198D01*
X173625814Y-43751612D01*
X173654555Y-43656864D01*
X173685298Y-43502302D01*
X173685298Y-43502299D01*
X173695000Y-43403789D01*
X173695000Y-43246210D01*
X173685298Y-43147700D01*
X173685298Y-43147697D01*
X173654555Y-42993135D01*
X173625814Y-42898387D01*
X173565509Y-42752801D01*
X173518844Y-42665498D01*
X173518838Y-42665488D01*
X173472465Y-42596085D01*
X172872962Y-43195588D01*
X172855925Y-43132007D01*
X172790099Y-43017993D01*
X172697007Y-42924901D01*
X172582993Y-42859075D01*
X172519410Y-42842037D01*
X173118912Y-42242534D01*
X173049511Y-42196161D01*
X173049501Y-42196155D01*
X172962201Y-42149492D01*
X172876528Y-42114004D01*
X172822125Y-42070162D01*
X172800061Y-42003868D01*
X172817341Y-41936169D01*
X172867686Y-41888959D01*
X173019199Y-41811760D01*
X173172073Y-41700690D01*
X173305690Y-41567073D01*
X173416760Y-41414199D01*
X173502547Y-41245832D01*
X173560940Y-41066118D01*
X173567322Y-41025826D01*
X173590500Y-40879486D01*
X173590500Y-40690513D01*
X173560940Y-40503881D01*
X173502545Y-40324163D01*
X173416759Y-40155800D01*
X173305690Y-40002927D01*
X173172073Y-39869310D01*
X173019199Y-39758240D01*
X172850836Y-39672454D01*
X172776472Y-39648291D01*
X172729195Y-39632930D01*
X172671521Y-39593493D01*
X172644323Y-39529134D01*
X172656238Y-39460288D01*
X172703482Y-39408812D01*
X172729194Y-39397069D01*
X172850832Y-39357547D01*
X173019199Y-39271760D01*
X173172073Y-39160690D01*
X173305690Y-39027073D01*
X173416760Y-38874199D01*
X173491758Y-38727007D01*
X173502544Y-38705839D01*
X173502544Y-38705835D01*
X173502547Y-38705832D01*
X173560940Y-38526118D01*
X173566477Y-38491161D01*
X173590500Y-38339486D01*
X173590500Y-38150513D01*
X173560940Y-37963881D01*
X173502545Y-37784163D01*
X173416759Y-37615800D01*
X173409381Y-37605645D01*
X173305690Y-37462927D01*
X173172073Y-37329310D01*
X173019199Y-37218240D01*
X172992806Y-37204792D01*
X172850836Y-37132454D01*
X172671118Y-37074059D01*
X172484486Y-37044500D01*
X172484481Y-37044500D01*
X172295519Y-37044500D01*
X172295514Y-37044500D01*
X172108881Y-37074059D01*
X171929163Y-37132454D01*
X171760800Y-37218240D01*
X171673579Y-37281610D01*
X171607927Y-37329310D01*
X171607925Y-37329312D01*
X171607924Y-37329312D01*
X171474312Y-37462924D01*
X171474312Y-37462925D01*
X171474310Y-37462927D01*
X171455920Y-37488239D01*
X171363240Y-37615800D01*
X171277454Y-37784163D01*
X171219059Y-37963881D01*
X171189500Y-38150513D01*
X171189500Y-38294481D01*
X171169815Y-38361520D01*
X171117011Y-38407275D01*
X171047853Y-38417219D01*
X170984297Y-38388194D01*
X170977819Y-38382162D01*
X169736819Y-37141162D01*
X169703334Y-37079839D01*
X169700500Y-37053481D01*
X169700500Y-35931004D01*
X169673581Y-35795677D01*
X169673580Y-35795676D01*
X169673580Y-35795672D01*
X169622333Y-35671952D01*
X169614865Y-35602483D01*
X169646140Y-35540004D01*
X169706229Y-35504352D01*
X169736895Y-35500500D01*
X181418939Y-35500500D01*
X181485978Y-35520185D01*
G37*
%TD.AperFunction*%
%TA.AperFunction,Conductor*%
G36*
X185416752Y-114464123D02*
G01*
X185473425Y-114504989D01*
X185499006Y-114570007D01*
X185499500Y-114581060D01*
X185499500Y-117375500D01*
X185479815Y-117442539D01*
X185427011Y-117488294D01*
X185375500Y-117499500D01*
X182581061Y-117499500D01*
X182514022Y-117479815D01*
X182468267Y-117427011D01*
X182458323Y-117357853D01*
X182487348Y-117294297D01*
X182546126Y-117256523D01*
X182556870Y-117253883D01*
X182802781Y-117204969D01*
X182802792Y-117204966D01*
X183113078Y-117110842D01*
X183412635Y-116986761D01*
X183412640Y-116986759D01*
X183698580Y-116833920D01*
X183698598Y-116833909D01*
X183968170Y-116653787D01*
X183968183Y-116653777D01*
X184150554Y-116504108D01*
X184150554Y-116504107D01*
X182940698Y-115294251D01*
X183042330Y-115220412D01*
X183220412Y-115042330D01*
X183294251Y-114940698D01*
X184504107Y-116150554D01*
X184504108Y-116150554D01*
X184653777Y-115968183D01*
X184653787Y-115968170D01*
X184833909Y-115698598D01*
X184833920Y-115698580D01*
X184986759Y-115412640D01*
X184986761Y-115412635D01*
X185110842Y-115113078D01*
X185204966Y-114802792D01*
X185204969Y-114802781D01*
X185253883Y-114556869D01*
X185286267Y-114494958D01*
X185346983Y-114460384D01*
X185416752Y-114464123D01*
G37*
%TD.AperFunction*%
%TA.AperFunction,Conductor*%
G36*
X157718834Y-66657180D02*
G01*
X157774767Y-66699052D01*
X157799184Y-66764516D01*
X157799500Y-66773362D01*
X157799500Y-69158480D01*
X157779815Y-69225519D01*
X157763181Y-69246161D01*
X156936076Y-70073265D01*
X156874753Y-70106750D01*
X156872587Y-70107201D01*
X156737339Y-70134104D01*
X156737329Y-70134107D01*
X156573459Y-70201983D01*
X156573446Y-70201990D01*
X156425965Y-70300535D01*
X156425961Y-70300538D01*
X156300538Y-70425961D01*
X156300535Y-70425965D01*
X156201990Y-70573446D01*
X156201983Y-70573459D01*
X156134106Y-70737332D01*
X156134103Y-70737341D01*
X156099500Y-70911304D01*
X156099500Y-71088695D01*
X156134103Y-71262658D01*
X156134106Y-71262667D01*
X156201983Y-71426540D01*
X156201990Y-71426553D01*
X156300535Y-71574034D01*
X156300538Y-71574038D01*
X156425961Y-71699461D01*
X156425965Y-71699464D01*
X156573446Y-71798009D01*
X156573450Y-71798011D01*
X156573453Y-71798013D01*
X156678680Y-71841599D01*
X156691202Y-71851689D01*
X156706232Y-71857416D01*
X156717846Y-71873160D01*
X156733082Y-71885438D01*
X156738161Y-71900699D01*
X156747709Y-71913642D01*
X156748967Y-71933166D01*
X156755147Y-71951732D01*
X156751219Y-71968095D01*
X156752204Y-71983367D01*
X156741644Y-72007988D01*
X156739638Y-72016349D01*
X156737156Y-72020817D01*
X156701987Y-72073453D01*
X156684514Y-72115636D01*
X156681074Y-72121833D01*
X156661037Y-72141589D01*
X156643382Y-72163499D01*
X156636493Y-72165791D01*
X156631323Y-72170890D01*
X156603784Y-72176678D01*
X156577088Y-72185564D01*
X156570053Y-72183768D01*
X156562948Y-72185262D01*
X156536652Y-72175243D01*
X156509389Y-72168285D01*
X156500726Y-72161556D01*
X156497656Y-72160386D01*
X156495555Y-72157538D01*
X156484981Y-72149324D01*
X155839402Y-71503745D01*
X155805917Y-71442422D01*
X155804610Y-71396665D01*
X155805221Y-71392812D01*
X155810500Y-71359481D01*
X155810500Y-71170519D01*
X155810500Y-71170513D01*
X155780940Y-70983881D01*
X155722545Y-70804163D01*
X155677290Y-70715347D01*
X155636760Y-70635801D01*
X155525690Y-70482927D01*
X155392073Y-70349310D01*
X155254382Y-70249271D01*
X155211717Y-70193940D01*
X155205738Y-70124327D01*
X155238344Y-70062532D01*
X155297927Y-70028883D01*
X155297859Y-70028614D01*
X155298856Y-70028359D01*
X155299183Y-70028175D01*
X155300779Y-70027868D01*
X155443039Y-69991558D01*
X155499584Y-69968136D01*
X155499584Y-69968135D01*
X154739410Y-69207962D01*
X154802993Y-69190925D01*
X154917007Y-69125099D01*
X155010099Y-69032007D01*
X155075925Y-68917993D01*
X155092962Y-68854411D01*
X155853135Y-69614584D01*
X155853136Y-69614584D01*
X155876552Y-69558053D01*
X155894544Y-69507053D01*
X155914999Y-69364780D01*
X155915000Y-69364779D01*
X155915000Y-68085214D01*
X155912106Y-68031237D01*
X155912106Y-68031235D01*
X155876561Y-67891969D01*
X155876559Y-67891962D01*
X155853135Y-67835414D01*
X155092962Y-68595588D01*
X155075925Y-68532007D01*
X155010099Y-68417993D01*
X154917007Y-68324901D01*
X154802993Y-68259075D01*
X154739410Y-68242037D01*
X155499584Y-67481862D01*
X155443059Y-67458449D01*
X155392053Y-67440455D01*
X155392054Y-67440455D01*
X155304083Y-67427807D01*
X155240528Y-67398782D01*
X155202754Y-67340003D01*
X155202754Y-67270134D01*
X155240529Y-67211356D01*
X155248834Y-67204759D01*
X155392073Y-67100690D01*
X155525690Y-66967073D01*
X155547821Y-66936613D01*
X155603152Y-66893948D01*
X155648138Y-66885500D01*
X156383996Y-66885500D01*
X156475040Y-66867389D01*
X156519328Y-66858580D01*
X156572048Y-66836741D01*
X156641518Y-66829273D01*
X156666954Y-66836741D01*
X156737334Y-66865894D01*
X156878370Y-66893948D01*
X156911304Y-66900499D01*
X156911307Y-66900500D01*
X156911309Y-66900500D01*
X157088693Y-66900500D01*
X157088694Y-66900499D01*
X157164101Y-66885500D01*
X157262658Y-66865896D01*
X157262661Y-66865894D01*
X157262666Y-66865894D01*
X157426547Y-66798013D01*
X157574035Y-66699464D01*
X157574447Y-66699052D01*
X157587819Y-66685681D01*
X157649142Y-66652196D01*
X157718834Y-66657180D01*
G37*
%TD.AperFunction*%
%TA.AperFunction,Conductor*%
G36*
X157742539Y-41720185D02*
G01*
X157788294Y-41772989D01*
X157799500Y-41824500D01*
X157799500Y-65226638D01*
X157779815Y-65293677D01*
X157727011Y-65339432D01*
X157657853Y-65349376D01*
X157594297Y-65320351D01*
X157587819Y-65314319D01*
X157574038Y-65300538D01*
X157574034Y-65300535D01*
X157426553Y-65201990D01*
X157426540Y-65201983D01*
X157262667Y-65134106D01*
X157262658Y-65134103D01*
X157088694Y-65099500D01*
X157088691Y-65099500D01*
X156911309Y-65099500D01*
X156911306Y-65099500D01*
X156737341Y-65134103D01*
X156737332Y-65134106D01*
X156573460Y-65201983D01*
X156573449Y-65201989D01*
X156446543Y-65286785D01*
X156401846Y-65305299D01*
X156295675Y-65326418D01*
X156295669Y-65326420D01*
X156168192Y-65379222D01*
X156053456Y-65455886D01*
X156052883Y-65456357D01*
X156052523Y-65456509D01*
X156048391Y-65459271D01*
X156047867Y-65458487D01*
X155988572Y-65483667D01*
X155974222Y-65484500D01*
X155648138Y-65484500D01*
X155581099Y-65464815D01*
X155547821Y-65433387D01*
X155525690Y-65402927D01*
X155392075Y-65269312D01*
X155392073Y-65269310D01*
X155239199Y-65158240D01*
X155221775Y-65149362D01*
X155070836Y-65072454D01*
X154996472Y-65048291D01*
X154949195Y-65032930D01*
X154891521Y-64993493D01*
X154864323Y-64929134D01*
X154876238Y-64860288D01*
X154923482Y-64808812D01*
X154949194Y-64797069D01*
X155070832Y-64757547D01*
X155239199Y-64671760D01*
X155392073Y-64560690D01*
X155525690Y-64427073D01*
X155636760Y-64274199D01*
X155722547Y-64105832D01*
X155780940Y-63926118D01*
X155810500Y-63739486D01*
X155810500Y-63550513D01*
X155780940Y-63363881D01*
X155731756Y-63212511D01*
X155722547Y-63184168D01*
X155722545Y-63184165D01*
X155722545Y-63184163D01*
X155636759Y-63015800D01*
X155588607Y-62949525D01*
X155525690Y-62862927D01*
X155392073Y-62729310D01*
X155239199Y-62618240D01*
X155070836Y-62532454D01*
X154996472Y-62508291D01*
X154949195Y-62492930D01*
X154891521Y-62453493D01*
X154864323Y-62389134D01*
X154876238Y-62320288D01*
X154923482Y-62268812D01*
X154949194Y-62257069D01*
X155070832Y-62217547D01*
X155239199Y-62131760D01*
X155392073Y-62020690D01*
X155525690Y-61887073D01*
X155636760Y-61734199D01*
X155722547Y-61565832D01*
X155780940Y-61386118D01*
X155810500Y-61199486D01*
X155810500Y-61010513D01*
X155780940Y-60823881D01*
X155747344Y-60720485D01*
X155722547Y-60644168D01*
X155722545Y-60644165D01*
X155722545Y-60644163D01*
X155636759Y-60475800D01*
X155525690Y-60322927D01*
X155392073Y-60189310D01*
X155239199Y-60078240D01*
X155070836Y-59992454D01*
X154996472Y-59968291D01*
X154949195Y-59952930D01*
X154891521Y-59913493D01*
X154864323Y-59849134D01*
X154876238Y-59780288D01*
X154923482Y-59728812D01*
X154949194Y-59717069D01*
X155070832Y-59677547D01*
X155239199Y-59591760D01*
X155392073Y-59480690D01*
X155525690Y-59347073D01*
X155636760Y-59194199D01*
X155722547Y-59025832D01*
X155780940Y-58846118D01*
X155787112Y-58807152D01*
X155810500Y-58659486D01*
X155810500Y-58470513D01*
X155780940Y-58283881D01*
X155747549Y-58181116D01*
X155722547Y-58104168D01*
X155722545Y-58104165D01*
X155722545Y-58104163D01*
X155677290Y-58015347D01*
X155636760Y-57935801D01*
X155525690Y-57782927D01*
X155392073Y-57649310D01*
X155254382Y-57549271D01*
X155211717Y-57493940D01*
X155205738Y-57424327D01*
X155238344Y-57362532D01*
X155297927Y-57328883D01*
X155297859Y-57328614D01*
X155298856Y-57328359D01*
X155299183Y-57328175D01*
X155300779Y-57327868D01*
X155443039Y-57291558D01*
X155499584Y-57268136D01*
X155499584Y-57268135D01*
X154739410Y-56507962D01*
X154802993Y-56490925D01*
X154917007Y-56425099D01*
X155010099Y-56332007D01*
X155075925Y-56217993D01*
X155092962Y-56154410D01*
X155853135Y-56914584D01*
X155853136Y-56914584D01*
X155876552Y-56858053D01*
X155894544Y-56807053D01*
X155914999Y-56664780D01*
X155915000Y-56664779D01*
X155915000Y-55385214D01*
X155912106Y-55331237D01*
X155912106Y-55331235D01*
X155876561Y-55191969D01*
X155876559Y-55191962D01*
X155853135Y-55135414D01*
X155092962Y-55895588D01*
X155075925Y-55832007D01*
X155010099Y-55717993D01*
X154917007Y-55624901D01*
X154802993Y-55559075D01*
X154739410Y-55542037D01*
X155499584Y-54781862D01*
X155443059Y-54758449D01*
X155392053Y-54740455D01*
X155392054Y-54740455D01*
X155304083Y-54727807D01*
X155240528Y-54698782D01*
X155202754Y-54640003D01*
X155202754Y-54570134D01*
X155240529Y-54511356D01*
X155248834Y-54504759D01*
X155392073Y-54400690D01*
X155525690Y-54267073D01*
X155636760Y-54114199D01*
X155722547Y-53945832D01*
X155780940Y-53766118D01*
X155783411Y-53750519D01*
X155810500Y-53579486D01*
X155810500Y-53390513D01*
X155780940Y-53203881D01*
X155731756Y-53052511D01*
X155722547Y-53024168D01*
X155722545Y-53024165D01*
X155722545Y-53024163D01*
X155648521Y-52878884D01*
X155636760Y-52855801D01*
X155525690Y-52702927D01*
X155392073Y-52569310D01*
X155239199Y-52458240D01*
X155070836Y-52372454D01*
X154996472Y-52348291D01*
X154949195Y-52332930D01*
X154891521Y-52293493D01*
X154864323Y-52229134D01*
X154876238Y-52160288D01*
X154923482Y-52108812D01*
X154949194Y-52097069D01*
X155070832Y-52057547D01*
X155239199Y-51971760D01*
X155392073Y-51860690D01*
X155525690Y-51727073D01*
X155636760Y-51574199D01*
X155722547Y-51405832D01*
X155780940Y-51226118D01*
X155810500Y-51039486D01*
X155810500Y-50850513D01*
X155780940Y-50663881D01*
X155745061Y-50553458D01*
X155722547Y-50484168D01*
X155722545Y-50484165D01*
X155722545Y-50484163D01*
X155675990Y-50392795D01*
X155636760Y-50315801D01*
X155525690Y-50162927D01*
X155392073Y-50029310D01*
X155239199Y-49918240D01*
X155070836Y-49832454D01*
X154996472Y-49808291D01*
X154949195Y-49792930D01*
X154891521Y-49753493D01*
X154864323Y-49689134D01*
X154876238Y-49620288D01*
X154923482Y-49568812D01*
X154949194Y-49557069D01*
X155070832Y-49517547D01*
X155239199Y-49431760D01*
X155392073Y-49320690D01*
X155525690Y-49187073D01*
X155636760Y-49034199D01*
X155722547Y-48865832D01*
X155780940Y-48686118D01*
X155796370Y-48588695D01*
X155810500Y-48499486D01*
X155810500Y-48310513D01*
X155780940Y-48123881D01*
X155753846Y-48040497D01*
X155722547Y-47944168D01*
X155722545Y-47944165D01*
X155722545Y-47944163D01*
X155649363Y-47800536D01*
X155636760Y-47775801D01*
X155525690Y-47622927D01*
X155392073Y-47489310D01*
X155239199Y-47378240D01*
X155070836Y-47292454D01*
X154970057Y-47259709D01*
X154949195Y-47252930D01*
X154891521Y-47213493D01*
X154864323Y-47149134D01*
X154876238Y-47080288D01*
X154923482Y-47028812D01*
X154949194Y-47017069D01*
X155070832Y-46977547D01*
X155239199Y-46891760D01*
X155392073Y-46780690D01*
X155525690Y-46647073D01*
X155636760Y-46494199D01*
X155722547Y-46325832D01*
X155780940Y-46146118D01*
X155792450Y-46073446D01*
X155810500Y-45959486D01*
X155810500Y-45770513D01*
X155780940Y-45583881D01*
X155722545Y-45404163D01*
X155643173Y-45248388D01*
X155636760Y-45235801D01*
X155525690Y-45082927D01*
X155392073Y-44949310D01*
X155254382Y-44849271D01*
X155211717Y-44793940D01*
X155205738Y-44724327D01*
X155238344Y-44662532D01*
X155297927Y-44628883D01*
X155297859Y-44628614D01*
X155298856Y-44628359D01*
X155299183Y-44628175D01*
X155300779Y-44627868D01*
X155443039Y-44591558D01*
X155499584Y-44568136D01*
X155499584Y-44568135D01*
X154739410Y-43807962D01*
X154802993Y-43790925D01*
X154917007Y-43725099D01*
X155010099Y-43632007D01*
X155075925Y-43517993D01*
X155092962Y-43454410D01*
X155853135Y-44214584D01*
X155853136Y-44214584D01*
X155876552Y-44158053D01*
X155894544Y-44107053D01*
X155914999Y-43964780D01*
X155915000Y-43964779D01*
X155915000Y-42685214D01*
X155912106Y-42631237D01*
X155912106Y-42631235D01*
X155876561Y-42491969D01*
X155876559Y-42491962D01*
X155853135Y-42435414D01*
X155092962Y-43195588D01*
X155075925Y-43132007D01*
X155010099Y-43017993D01*
X154917007Y-42924901D01*
X154802993Y-42859075D01*
X154739410Y-42842037D01*
X155499584Y-42081862D01*
X155443059Y-42058449D01*
X155392053Y-42040455D01*
X155392054Y-42040455D01*
X155304083Y-42027807D01*
X155283160Y-42018251D01*
X155260756Y-42013042D01*
X155251980Y-42004012D01*
X155240528Y-41998782D01*
X155228093Y-41979433D01*
X155212061Y-41962936D01*
X155209560Y-41950594D01*
X155202754Y-41940003D01*
X155202754Y-41917002D01*
X155198186Y-41894458D01*
X155202754Y-41882725D01*
X155202754Y-41870134D01*
X155215189Y-41850784D01*
X155223535Y-41829349D01*
X155238000Y-41815290D01*
X155240529Y-41811356D01*
X155248834Y-41804759D01*
X155359740Y-41724181D01*
X155425545Y-41700702D01*
X155432624Y-41700500D01*
X157675500Y-41700500D01*
X157742539Y-41720185D01*
G37*
%TD.AperFunction*%
%TA.AperFunction,Conductor*%
G36*
X148261295Y-36720185D02*
G01*
X148307050Y-36772989D01*
X148316994Y-36842147D01*
X148315873Y-36848691D01*
X148299500Y-36931002D01*
X148299500Y-37045500D01*
X148279815Y-37112539D01*
X148227011Y-37158294D01*
X148175502Y-37169500D01*
X148118483Y-37169500D01*
X148039550Y-37182001D01*
X148024696Y-37184354D01*
X147911658Y-37241950D01*
X147911657Y-37241951D01*
X147911652Y-37241954D01*
X147821954Y-37331652D01*
X147821951Y-37331657D01*
X147821950Y-37331658D01*
X147816599Y-37342160D01*
X147764352Y-37444698D01*
X147749500Y-37538475D01*
X147749500Y-39301517D01*
X147757742Y-39353553D01*
X147764354Y-39395304D01*
X147821950Y-39508342D01*
X147821952Y-39508344D01*
X147821954Y-39508347D01*
X147911652Y-39598045D01*
X147911654Y-39598046D01*
X147911658Y-39598050D01*
X148024694Y-39655645D01*
X148024698Y-39655647D01*
X148118477Y-39670500D01*
X148123331Y-39670882D01*
X148123236Y-39672087D01*
X148184867Y-39690168D01*
X148230634Y-39742961D01*
X148241470Y-39804229D01*
X148238282Y-39844728D01*
X148870591Y-40477037D01*
X148807007Y-40494075D01*
X148692993Y-40559901D01*
X148599901Y-40652993D01*
X148534075Y-40767007D01*
X148517037Y-40830591D01*
X147884728Y-40198282D01*
X147884727Y-40198282D01*
X147845380Y-40252439D01*
X147748904Y-40441782D01*
X147683242Y-40643869D01*
X147683242Y-40643872D01*
X147650000Y-40853753D01*
X147650000Y-41066246D01*
X147683242Y-41276127D01*
X147683242Y-41276130D01*
X147748904Y-41478217D01*
X147845375Y-41667550D01*
X147884728Y-41721716D01*
X148517037Y-41089408D01*
X148534075Y-41152993D01*
X148599901Y-41267007D01*
X148692993Y-41360099D01*
X148807007Y-41425925D01*
X148870590Y-41442962D01*
X148238282Y-42075269D01*
X148238282Y-42075270D01*
X148292449Y-42114624D01*
X148411629Y-42175350D01*
X148462425Y-42223325D01*
X148479220Y-42291146D01*
X148456682Y-42357281D01*
X148411630Y-42396319D01*
X148344597Y-42430474D01*
X148264974Y-42488324D01*
X148185354Y-42546172D01*
X148185352Y-42546174D01*
X148185351Y-42546174D01*
X148046174Y-42685351D01*
X148046174Y-42685352D01*
X148046172Y-42685354D01*
X148000377Y-42748386D01*
X147945047Y-42791051D01*
X147900059Y-42799500D01*
X146099941Y-42799500D01*
X146032902Y-42779815D01*
X145999623Y-42748386D01*
X145953828Y-42685354D01*
X145814646Y-42546172D01*
X145735025Y-42488324D01*
X145655403Y-42430474D01*
X145478787Y-42340485D01*
X145427990Y-42292511D01*
X145411195Y-42224690D01*
X145433732Y-42158555D01*
X145478787Y-42119515D01*
X145655403Y-42029525D01*
X145655402Y-42029525D01*
X145655405Y-42029524D01*
X145814646Y-41913828D01*
X145953828Y-41774646D01*
X146069524Y-41615405D01*
X146158884Y-41440025D01*
X146219709Y-41252826D01*
X146235907Y-41150555D01*
X146250500Y-41058422D01*
X146250500Y-40861580D01*
X146250499Y-40861574D01*
X146219709Y-40667173D01*
X146166652Y-40503882D01*
X146158884Y-40479975D01*
X146158882Y-40479972D01*
X146158882Y-40479970D01*
X146069523Y-40304594D01*
X145953828Y-40145354D01*
X145814646Y-40006172D01*
X145798328Y-39994316D01*
X145755664Y-39938987D01*
X145749686Y-39869373D01*
X145782293Y-39807579D01*
X145843132Y-39773222D01*
X145871216Y-39770000D01*
X145897828Y-39770000D01*
X145897844Y-39769999D01*
X145957372Y-39763598D01*
X145957379Y-39763596D01*
X146092086Y-39713354D01*
X146092093Y-39713350D01*
X146207187Y-39627190D01*
X146207190Y-39627187D01*
X146293350Y-39512093D01*
X146293354Y-39512086D01*
X146343596Y-39377379D01*
X146343598Y-39377372D01*
X146349999Y-39317844D01*
X146350000Y-39317827D01*
X146350000Y-38670000D01*
X145433012Y-38670000D01*
X145465925Y-38612993D01*
X145500000Y-38485826D01*
X145500000Y-38354174D01*
X145465925Y-38227007D01*
X145433012Y-38170000D01*
X146350000Y-38170000D01*
X146350000Y-37522172D01*
X146349999Y-37522155D01*
X146343598Y-37462627D01*
X146343596Y-37462620D01*
X146293354Y-37327913D01*
X146293350Y-37327906D01*
X146207190Y-37212812D01*
X146207187Y-37212809D01*
X146092093Y-37126649D01*
X146092086Y-37126645D01*
X145957379Y-37076403D01*
X145957372Y-37076401D01*
X145897844Y-37070000D01*
X145250000Y-37070000D01*
X145250000Y-37986988D01*
X145192993Y-37954075D01*
X145065826Y-37920000D01*
X144934174Y-37920000D01*
X144807007Y-37954075D01*
X144750000Y-37986988D01*
X144750000Y-37070000D01*
X144102155Y-37070000D01*
X144042627Y-37076401D01*
X144042620Y-37076403D01*
X143907913Y-37126645D01*
X143907906Y-37126649D01*
X143792812Y-37212809D01*
X143792809Y-37212812D01*
X143706649Y-37327906D01*
X143706645Y-37327913D01*
X143656403Y-37462620D01*
X143656401Y-37462627D01*
X143650000Y-37522155D01*
X143650000Y-38170000D01*
X144566988Y-38170000D01*
X144534075Y-38227007D01*
X144500000Y-38354174D01*
X144500000Y-38485826D01*
X144534075Y-38612993D01*
X144566988Y-38670000D01*
X143650000Y-38670000D01*
X143650000Y-39317844D01*
X143656401Y-39377372D01*
X143656403Y-39377379D01*
X143706645Y-39512086D01*
X143706649Y-39512093D01*
X143792809Y-39627187D01*
X143792812Y-39627190D01*
X143907906Y-39713350D01*
X143907913Y-39713354D01*
X144042620Y-39763596D01*
X144042627Y-39763598D01*
X144102155Y-39769999D01*
X144102172Y-39770000D01*
X144128784Y-39770000D01*
X144195823Y-39789685D01*
X144241578Y-39842489D01*
X144251522Y-39911647D01*
X144222497Y-39975203D01*
X144201671Y-39994317D01*
X144185354Y-40006171D01*
X144046174Y-40145351D01*
X144046174Y-40145352D01*
X144046172Y-40145354D01*
X144021616Y-40179152D01*
X143930476Y-40304594D01*
X143841117Y-40479970D01*
X143780290Y-40667173D01*
X143749500Y-40861577D01*
X143749500Y-41058422D01*
X143780290Y-41252826D01*
X143841117Y-41440029D01*
X143905850Y-41567074D01*
X143930476Y-41615405D01*
X144046172Y-41774646D01*
X144185354Y-41913828D01*
X144344595Y-42029524D01*
X144401364Y-42058449D01*
X144521213Y-42119515D01*
X144572009Y-42167489D01*
X144588804Y-42235310D01*
X144566267Y-42301445D01*
X144521213Y-42340485D01*
X144344594Y-42430476D01*
X144259988Y-42491947D01*
X144185354Y-42546172D01*
X144185352Y-42546174D01*
X144185351Y-42546174D01*
X144046174Y-42685351D01*
X144046174Y-42685352D01*
X144046172Y-42685354D01*
X144000376Y-42748386D01*
X143930476Y-42844594D01*
X143841117Y-43019970D01*
X143780290Y-43207173D01*
X143749500Y-43401577D01*
X143749500Y-43598421D01*
X143761687Y-43675368D01*
X143752732Y-43744662D01*
X143726895Y-43782447D01*
X143412181Y-44097162D01*
X143350858Y-44130647D01*
X143281167Y-44125663D01*
X143225233Y-44083792D01*
X143200816Y-44018327D01*
X143200500Y-44009481D01*
X143200500Y-36824500D01*
X143220185Y-36757461D01*
X143272989Y-36711706D01*
X143324500Y-36700500D01*
X148194256Y-36700500D01*
X148261295Y-36720185D01*
G37*
%TD.AperFunction*%
%TA.AperFunction,Conductor*%
G36*
X185442539Y-35520185D02*
G01*
X185488294Y-35572989D01*
X185499500Y-35624500D01*
X185499500Y-38418939D01*
X185479815Y-38485978D01*
X185427011Y-38531733D01*
X185357853Y-38541677D01*
X185294297Y-38512652D01*
X185256523Y-38453874D01*
X185253883Y-38443130D01*
X185204969Y-38197218D01*
X185204966Y-38197207D01*
X185110842Y-37886921D01*
X184986761Y-37587364D01*
X184986759Y-37587359D01*
X184833920Y-37301419D01*
X184833909Y-37301401D01*
X184653787Y-37031829D01*
X184653777Y-37031815D01*
X184504108Y-36849444D01*
X184504107Y-36849443D01*
X183294250Y-38059299D01*
X183220412Y-37957670D01*
X183042330Y-37779588D01*
X182940697Y-37705747D01*
X184150555Y-36495891D01*
X184150554Y-36495890D01*
X183968184Y-36346222D01*
X183968170Y-36346212D01*
X183698598Y-36166090D01*
X183698580Y-36166079D01*
X183412640Y-36013240D01*
X183412635Y-36013238D01*
X183113078Y-35889157D01*
X182802792Y-35795033D01*
X182802781Y-35795030D01*
X182556870Y-35746117D01*
X182494959Y-35713733D01*
X182460385Y-35653017D01*
X182464124Y-35583247D01*
X182504990Y-35526575D01*
X182570008Y-35500994D01*
X182581061Y-35500500D01*
X185375500Y-35500500D01*
X185442539Y-35520185D01*
G37*
%TD.AperFunction*%
%TA.AperFunction,Conductor*%
G36*
X137985978Y-35520185D02*
G01*
X138031733Y-35572989D01*
X138041677Y-35642147D01*
X138012652Y-35705703D01*
X137953874Y-35743477D01*
X137943130Y-35746117D01*
X137697218Y-35795030D01*
X137697207Y-35795033D01*
X137386921Y-35889157D01*
X137087364Y-36013238D01*
X137087359Y-36013240D01*
X136801419Y-36166079D01*
X136801401Y-36166090D01*
X136531829Y-36346212D01*
X136531815Y-36346222D01*
X136349444Y-36495890D01*
X136349443Y-36495891D01*
X137559301Y-37705748D01*
X137457670Y-37779588D01*
X137279588Y-37957670D01*
X137205748Y-38059301D01*
X135995891Y-36849443D01*
X135995890Y-36849444D01*
X135846222Y-37031815D01*
X135846212Y-37031829D01*
X135666090Y-37301401D01*
X135666079Y-37301419D01*
X135513240Y-37587359D01*
X135513238Y-37587364D01*
X135389157Y-37886921D01*
X135295033Y-38197207D01*
X135295030Y-38197218D01*
X135246117Y-38443130D01*
X135213733Y-38505041D01*
X135153017Y-38539615D01*
X135083247Y-38535876D01*
X135026575Y-38495010D01*
X135000994Y-38429992D01*
X135000500Y-38418939D01*
X135000500Y-35624500D01*
X135020185Y-35557461D01*
X135072989Y-35511706D01*
X135124500Y-35500500D01*
X137918939Y-35500500D01*
X137985978Y-35520185D01*
G37*
%TD.AperFunction*%
%TA.AperFunction,Conductor*%
G36*
X141830144Y-35520185D02*
G01*
X141875899Y-35572989D01*
X141885843Y-35642147D01*
X141877666Y-35671953D01*
X141826420Y-35795671D01*
X141826418Y-35795677D01*
X141799500Y-35931004D01*
X141799500Y-37718991D01*
X141779815Y-37786030D01*
X141727011Y-37831785D01*
X141657853Y-37841729D01*
X141594297Y-37812704D01*
X141560939Y-37766444D01*
X141486761Y-37587364D01*
X141486759Y-37587359D01*
X141333920Y-37301419D01*
X141333909Y-37301401D01*
X141153787Y-37031829D01*
X141153777Y-37031815D01*
X141004108Y-36849444D01*
X141004107Y-36849443D01*
X139794250Y-38059300D01*
X139720412Y-37957670D01*
X139542330Y-37779588D01*
X139440697Y-37705747D01*
X140650555Y-36495891D01*
X140650554Y-36495890D01*
X140468184Y-36346222D01*
X140468170Y-36346212D01*
X140198598Y-36166090D01*
X140198580Y-36166079D01*
X139912640Y-36013240D01*
X139912635Y-36013238D01*
X139613078Y-35889157D01*
X139302792Y-35795033D01*
X139302781Y-35795030D01*
X139056870Y-35746117D01*
X138994959Y-35713733D01*
X138960385Y-35653017D01*
X138964124Y-35583247D01*
X139004990Y-35526575D01*
X139070008Y-35500994D01*
X139081061Y-35500500D01*
X141763105Y-35500500D01*
X141830144Y-35520185D01*
G37*
%TD.AperFunction*%
%TD*%
M02*
