%TF.GenerationSoftware,KiCad,Pcbnew,9.0.1*%
%TF.CreationDate,2025-06-21T17:44:42+02:00*%
%TF.ProjectId,PicoLogger_Small,5069636f-4c6f-4676-9765-725f536d616c,rev?*%
%TF.SameCoordinates,Original*%
%TF.FileFunction,Legend,Bot*%
%TF.FilePolarity,Positive*%
%FSLAX46Y46*%
G04 Gerber Fmt 4.6, Leading zero omitted, Abs format (unit mm)*
G04 Created by KiCad (PCBNEW 9.0.1) date 2025-06-21 17:44:42*
%MOMM*%
%LPD*%
G01*
G04 APERTURE LIST*
%ADD10C,0.150000*%
%ADD11C,0.120000*%
G04 APERTURE END LIST*
D10*
X175275714Y-98931009D02*
X175132857Y-98978628D01*
X175132857Y-98978628D02*
X175085238Y-99026247D01*
X175085238Y-99026247D02*
X175037619Y-99121485D01*
X175037619Y-99121485D02*
X175037619Y-99264342D01*
X175037619Y-99264342D02*
X175085238Y-99359580D01*
X175085238Y-99359580D02*
X175132857Y-99407200D01*
X175132857Y-99407200D02*
X175228095Y-99454819D01*
X175228095Y-99454819D02*
X175609047Y-99454819D01*
X175609047Y-99454819D02*
X175609047Y-98454819D01*
X175609047Y-98454819D02*
X175275714Y-98454819D01*
X175275714Y-98454819D02*
X175180476Y-98502438D01*
X175180476Y-98502438D02*
X175132857Y-98550057D01*
X175132857Y-98550057D02*
X175085238Y-98645295D01*
X175085238Y-98645295D02*
X175085238Y-98740533D01*
X175085238Y-98740533D02*
X175132857Y-98835771D01*
X175132857Y-98835771D02*
X175180476Y-98883390D01*
X175180476Y-98883390D02*
X175275714Y-98931009D01*
X175275714Y-98931009D02*
X175609047Y-98931009D01*
X174751904Y-98454819D02*
X174180476Y-98454819D01*
X174466190Y-99454819D02*
X174466190Y-98454819D01*
X173323333Y-99454819D02*
X173894761Y-99454819D01*
X173609047Y-99454819D02*
X173609047Y-98454819D01*
X173609047Y-98454819D02*
X173704285Y-98597676D01*
X173704285Y-98597676D02*
X173799523Y-98692914D01*
X173799523Y-98692914D02*
X173894761Y-98740533D01*
X172311428Y-104864700D02*
X171168571Y-104864700D01*
X171739999Y-105436128D02*
X171739999Y-104293271D01*
D11*
%TO.C,BT1*%
X175940000Y-100000000D02*
X172390000Y-100000000D01*
X175940000Y-101200000D02*
X175940000Y-100000000D01*
X175940000Y-104800000D02*
X175940000Y-106000000D01*
X175940000Y-106000000D02*
X172390000Y-106000000D01*
X146453830Y-103000000D02*
G75*
G02*
X171640000Y-99500000I12836270J28D01*
G01*
X171640000Y-106500000D02*
G75*
G02*
X146453830Y-103000000I-12349900J3499972D01*
G01*
X171640000Y-106500000D02*
G75*
G02*
X172390000Y-106000000I750000J-312500D01*
G01*
X172390000Y-100000000D02*
G75*
G02*
X171640000Y-99500000I0J812500D01*
G01*
%TD*%
M02*
