%TF.GenerationSoftware,KiCad,Pcbnew,9.0.1*%
%TF.CreationDate,2025-06-21T17:44:42+02:00*%
%TF.ProjectId,PicoLogger_Small,5069636f-4c6f-4676-9765-725f536d616c,rev?*%
%TF.SameCoordinates,Original*%
%TF.FileFunction,Copper,L2,Bot*%
%TF.FilePolarity,Positive*%
%FSLAX46Y46*%
G04 Gerber Fmt 4.6, Leading zero omitted, Abs format (unit mm)*
G04 Created by KiCad (PCBNEW 9.0.1) date 2025-06-21 17:44:42*
%MOMM*%
%LPD*%
G01*
G04 APERTURE LIST*
G04 Aperture macros list*
%AMRoundRect*
0 Rectangle with rounded corners*
0 $1 Rounding radius*
0 $2 $3 $4 $5 $6 $7 $8 $9 X,Y pos of 4 corners*
0 Add a 4 corners polygon primitive as box body*
4,1,4,$2,$3,$4,$5,$6,$7,$8,$9,$2,$3,0*
0 Add four circle primitives for the rounded corners*
1,1,$1+$1,$2,$3*
1,1,$1+$1,$4,$5*
1,1,$1+$1,$6,$7*
1,1,$1+$1,$8,$9*
0 Add four rect primitives between the rounded corners*
20,1,$1+$1,$2,$3,$4,$5,0*
20,1,$1+$1,$4,$5,$6,$7,0*
20,1,$1+$1,$6,$7,$8,$9,0*
20,1,$1+$1,$8,$9,$2,$3,0*%
%AMFreePoly0*
4,1,37,0.603843,0.796157,0.639018,0.796157,0.711114,0.766294,0.766294,0.711114,0.796157,0.639018,0.796157,0.603843,0.800000,0.600000,0.800000,-0.600000,0.796157,-0.603843,0.796157,-0.639018,0.766294,-0.711114,0.711114,-0.766294,0.639018,-0.796157,0.603843,-0.796157,0.600000,-0.800000,0.000000,-0.800000,0.000000,-0.796148,-0.078414,-0.796148,-0.232228,-0.765552,-0.377117,-0.705537,
-0.507515,-0.618408,-0.618408,-0.507515,-0.705537,-0.377117,-0.765552,-0.232228,-0.796148,-0.078414,-0.796148,0.078414,-0.765552,0.232228,-0.705537,0.377117,-0.618408,0.507515,-0.507515,0.618408,-0.377117,0.705537,-0.232228,0.765552,-0.078414,0.796148,0.000000,0.796148,0.000000,0.800000,0.600000,0.800000,0.603843,0.796157,0.603843,0.796157,$1*%
%AMFreePoly1*
4,1,37,0.000000,0.796148,0.078414,0.796148,0.232228,0.765552,0.377117,0.705537,0.507515,0.618408,0.618408,0.507515,0.705537,0.377117,0.765552,0.232228,0.796148,0.078414,0.796148,-0.078414,0.765552,-0.232228,0.705537,-0.377117,0.618408,-0.507515,0.507515,-0.618408,0.377117,-0.705537,0.232228,-0.765552,0.078414,-0.796148,0.000000,-0.796148,0.000000,-0.800000,-0.600000,-0.800000,
-0.603843,-0.796157,-0.639018,-0.796157,-0.711114,-0.766294,-0.766294,-0.711114,-0.796157,-0.639018,-0.796157,-0.603843,-0.800000,-0.600000,-0.800000,0.600000,-0.796157,0.603843,-0.796157,0.639018,-0.766294,0.711114,-0.711114,0.766294,-0.639018,0.796157,-0.603843,0.796157,-0.600000,0.800000,0.000000,0.800000,0.000000,0.796148,0.000000,0.796148,$1*%
G04 Aperture macros list end*
%TA.AperFunction,ComponentPad*%
%ADD10R,1.700000X1.700000*%
%TD*%
%TA.AperFunction,ComponentPad*%
%ADD11C,1.700000*%
%TD*%
%TA.AperFunction,ComponentPad*%
%ADD12C,2.000000*%
%TD*%
%TA.AperFunction,ComponentPad*%
%ADD13R,2.000000X2.000000*%
%TD*%
%TA.AperFunction,ComponentPad*%
%ADD14C,5.600000*%
%TD*%
%TA.AperFunction,ComponentPad*%
%ADD15RoundRect,0.200000X-0.600000X-0.600000X0.600000X-0.600000X0.600000X0.600000X-0.600000X0.600000X0*%
%TD*%
%TA.AperFunction,ComponentPad*%
%ADD16C,1.600000*%
%TD*%
%TA.AperFunction,ComponentPad*%
%ADD17FreePoly0,0.000000*%
%TD*%
%TA.AperFunction,ComponentPad*%
%ADD18FreePoly1,0.000000*%
%TD*%
%TA.AperFunction,ComponentPad*%
%ADD19R,3.000000X3.000000*%
%TD*%
%TA.AperFunction,ComponentPad*%
%ADD20C,3.000000*%
%TD*%
%TA.AperFunction,ViaPad*%
%ADD21C,1.000000*%
%TD*%
%TA.AperFunction,Conductor*%
%ADD22C,0.600000*%
%TD*%
G04 APERTURE END LIST*
D10*
%TO.P,J4,1,Pin_1*%
%TO.N,+5V*%
X145385000Y-104080000D03*
D11*
%TO.P,J4,2,Pin_2*%
%TO.N,+3.3V*%
X145385000Y-101540000D03*
%TO.P,J4,3,Pin_3*%
%TO.N,GND*%
X145385000Y-99000000D03*
%TO.P,J4,4,Pin_4*%
%TO.N,SPI CSn*%
X145385000Y-96460000D03*
%TO.P,J4,5,Pin_5*%
%TO.N,SPI SCK*%
X145385000Y-93920000D03*
%TO.P,J4,6,Pin_6*%
%TO.N,SPI RX*%
X145385000Y-91380000D03*
%TO.P,J4,7,Pin_7*%
%TO.N,SPI TX*%
X145385000Y-88840000D03*
%TD*%
D12*
%TO.P,SW1,1,1*%
%TO.N,GND*%
X176750000Y-78750000D03*
X183250000Y-78750000D03*
%TO.P,SW1,2,2*%
%TO.N,GPIO17*%
X176750000Y-83250000D03*
X183250000Y-83250000D03*
%TD*%
D13*
%TO.P,BZ1,1,+*%
%TO.N,GPIO11*%
X145000000Y-74200000D03*
D12*
%TO.P,BZ1,2,-*%
%TO.N,GND*%
X145000000Y-81800000D03*
%TD*%
%TO.P,SW2,1,1*%
%TO.N,GND*%
X176750000Y-87750000D03*
X183250000Y-87750000D03*
%TO.P,SW2,2,2*%
%TO.N,GPIO16*%
X176750000Y-92250000D03*
X183250000Y-92250000D03*
%TD*%
D14*
%TO.P,H4,1,1*%
%TO.N,GND*%
X182000000Y-114000000D03*
%TD*%
%TO.P,H1,1,1*%
%TO.N,GND*%
X182000000Y-39000000D03*
%TD*%
D10*
%TO.P,J1,1,Pin_1*%
%TO.N,+3.3V*%
X149000000Y-38420000D03*
D11*
%TO.P,J1,2,Pin_2*%
%TO.N,GND*%
X149000000Y-40960000D03*
%TO.P,J1,3,Pin_3*%
%TO.N,SDA*%
X149000000Y-43500000D03*
%TO.P,J1,4,Pin_4*%
%TO.N,SCL*%
X149000000Y-46040000D03*
%TD*%
D10*
%TO.P,J2,1,Pin_1*%
%TO.N,GND*%
X145000000Y-38420000D03*
D11*
%TO.P,J2,2,Pin_2*%
%TO.N,+5V*%
X145000000Y-40960000D03*
%TO.P,J2,3,Pin_3*%
%TO.N,SDA*%
X145000000Y-43500000D03*
%TO.P,J2,4,Pin_4*%
%TO.N,SCL*%
X145000000Y-46040000D03*
%TD*%
D14*
%TO.P,H3,1,1*%
%TO.N,GND*%
X138500000Y-114000000D03*
%TD*%
%TO.P,H2,1,1*%
%TO.N,GND*%
X138500000Y-39000000D03*
%TD*%
D15*
%TO.P,A1,1,GPIO0*%
%TO.N,SDA*%
X154610000Y-38245000D03*
D16*
%TO.P,A1,2,GPIO1*%
%TO.N,SCL*%
X154610000Y-40785000D03*
D17*
%TO.P,A1,3,GND*%
%TO.N,GND*%
X154610000Y-43325000D03*
D16*
%TO.P,A1,4,GPIO2*%
%TO.N,GPIO2*%
X154610000Y-45865000D03*
%TO.P,A1,5,GPIO3*%
%TO.N,unconnected-(A1-GPIO3-Pad5)*%
X154610000Y-48405000D03*
%TO.P,A1,6,GPIO4*%
%TO.N,TX*%
X154610000Y-50945000D03*
%TO.P,A1,7,GPIO5*%
%TO.N,RX*%
X154610000Y-53485000D03*
D17*
%TO.P,A1,8,GND*%
%TO.N,GND*%
X154610000Y-56025000D03*
D16*
%TO.P,A1,9,GPIO6*%
%TO.N,unconnected-(A1-GPIO6-Pad9)*%
X154610000Y-58565000D03*
%TO.P,A1,10,GPIO7*%
%TO.N,unconnected-(A1-GPIO7-Pad10)*%
X154610000Y-61105000D03*
%TO.P,A1,11,GPIO8*%
%TO.N,unconnected-(A1-GPIO8-Pad11)*%
X154610000Y-63645000D03*
%TO.P,A1,12,GPIO9*%
%TO.N,GPIO9*%
X154610000Y-66185000D03*
D17*
%TO.P,A1,13,GND*%
%TO.N,GND*%
X154610000Y-68725000D03*
D16*
%TO.P,A1,14,GPIO10*%
%TO.N,GPIO10*%
X154610000Y-71265000D03*
%TO.P,A1,15,GPIO11*%
%TO.N,GPIO11*%
X154610000Y-73805000D03*
%TO.P,A1,16,GPIO12*%
%TO.N,SPI RX*%
X154610000Y-76345000D03*
%TO.P,A1,17,GPIO13*%
%TO.N,SPI CSn*%
X154610000Y-78885000D03*
D17*
%TO.P,A1,18,GND*%
%TO.N,GND*%
X154610000Y-81425000D03*
D16*
%TO.P,A1,19,GPIO14*%
%TO.N,SPI SCK*%
X154610000Y-83965000D03*
%TO.P,A1,20,GPIO15*%
%TO.N,SPI TX*%
X154610000Y-86505000D03*
%TO.P,A1,21,GPIO16*%
%TO.N,GPIO16*%
X172390000Y-86505000D03*
%TO.P,A1,22,GPIO17*%
%TO.N,GPIO17*%
X172390000Y-83965000D03*
D18*
%TO.P,A1,23,GND*%
%TO.N,GND*%
X172390000Y-81425000D03*
D16*
%TO.P,A1,24,GPIO18*%
%TO.N,GPIO18*%
X172390000Y-78885000D03*
%TO.P,A1,25,GPIO19*%
%TO.N,GPIO19*%
X172390000Y-76345000D03*
%TO.P,A1,26,GPIO20*%
%TO.N,GPIO20*%
X172390000Y-73805000D03*
%TO.P,A1,27,GPIO21*%
%TO.N,unconnected-(A1-GPIO21-Pad27)*%
X172390000Y-71265000D03*
D18*
%TO.P,A1,28,GND*%
%TO.N,GND*%
X172390000Y-68725000D03*
D16*
%TO.P,A1,29,GPIO22*%
%TO.N,unconnected-(A1-GPIO22-Pad29)*%
X172390000Y-66185000D03*
%TO.P,A1,30,RUN*%
%TO.N,unconnected-(A1-RUN-Pad30)*%
X172390000Y-63645000D03*
%TO.P,A1,31,GPIO26_ADC0*%
%TO.N,unconnected-(A1-GPIO26_ADC0-Pad31)*%
X172390000Y-61105000D03*
%TO.P,A1,32,GPIO27_ADC1*%
%TO.N,unconnected-(A1-GPIO27_ADC1-Pad32)*%
X172390000Y-58565000D03*
D18*
%TO.P,A1,33,AGND*%
%TO.N,GND*%
X172390000Y-56025000D03*
D16*
%TO.P,A1,34,GPIO28_ADC2*%
%TO.N,unconnected-(A1-GPIO28_ADC2-Pad34)*%
X172390000Y-53485000D03*
%TO.P,A1,35,ADC_VREF*%
%TO.N,unconnected-(A1-ADC_VREF-Pad35)*%
X172390000Y-50945000D03*
%TO.P,A1,36,3V3*%
%TO.N,unconnected-(A1-3V3-Pad36)*%
X172390000Y-48405000D03*
%TO.P,A1,37,3V3_EN*%
%TO.N,unconnected-(A1-3V3_EN-Pad37)*%
X172390000Y-45865000D03*
D18*
%TO.P,A1,38,GND*%
%TO.N,GND*%
X172390000Y-43325000D03*
D16*
%TO.P,A1,39,VSYS*%
%TO.N,+3.3V*%
X172390000Y-40785000D03*
%TO.P,A1,40,VBUS*%
%TO.N,+5V*%
X172390000Y-38245000D03*
%TD*%
D10*
%TO.P,J3,1,Pin_1*%
%TO.N,RX*%
X145385000Y-69500000D03*
D11*
%TO.P,J3,2,Pin_2*%
%TO.N,TX*%
X145385000Y-66960000D03*
%TO.P,J3,3,Pin_3*%
%TO.N,GPIO2*%
X145385000Y-64420000D03*
%TO.P,J3,4,Pin_4*%
%TO.N,SDA*%
X145385000Y-61880000D03*
%TO.P,J3,5,Pin_5*%
%TO.N,SCL*%
X145385000Y-59340000D03*
%TO.P,J3,6,Pin_6*%
%TO.N,GND*%
X145385000Y-56800000D03*
%TO.P,J3,7,Pin_7*%
%TO.N,+3.3V*%
X145385000Y-54260000D03*
%TO.P,J3,8,Pin_8*%
%TO.N,+5V*%
X145385000Y-51720000D03*
%TD*%
D19*
%TO.P,BT1,1,+*%
%TO.N,+BATT*%
X174490000Y-103000000D03*
D20*
%TO.P,BT1,2,-*%
%TO.N,GND*%
X154000000Y-103000000D03*
%TD*%
D21*
%TO.N,+3.3V*%
X139250000Y-84750000D03*
X139000000Y-73500000D03*
X141500000Y-46500000D03*
X141500000Y-49500000D03*
%TO.N,SPI CSn*%
X148000000Y-78000000D03*
X151615000Y-78885000D03*
%TO.N,SCL*%
X159500000Y-98500000D03*
X156500000Y-75000000D03*
X157000000Y-71000000D03*
X158750000Y-96000000D03*
X149000000Y-51500000D03*
X149000000Y-49000000D03*
%TO.N,SPI TX*%
X151500000Y-86500000D03*
X148000000Y-86500000D03*
%TO.N,SDA*%
X156500000Y-77000000D03*
X157500000Y-72500000D03*
X147000000Y-48500000D03*
X147500000Y-60000000D03*
%TO.N,SPI SCK*%
X148000000Y-80000000D03*
X151535000Y-83965000D03*
%TO.N,+5V*%
X162000000Y-89500000D03*
X168000000Y-104500000D03*
X150000000Y-97250000D03*
%TO.N,SPI RX*%
X142500000Y-81500000D03*
X142500000Y-76000000D03*
%TO.N,GPIO2*%
X151000000Y-48500000D03*
X150000000Y-58000000D03*
%TO.N,GPIO10*%
X164675000Y-93750000D03*
X158500000Y-84000000D03*
X162500000Y-84500000D03*
X164675000Y-91000000D03*
%TO.N,GPIO9*%
X157000000Y-66000000D03*
X159500000Y-72000000D03*
X160500000Y-66000000D03*
X155500000Y-89500000D03*
X159500000Y-74500000D03*
X152500000Y-94500000D03*
X152500000Y-100750000D03*
X159000000Y-87000000D03*
%TD*%
D22*
%TO.N,SDA*%
X147000000Y-59500000D02*
X147500000Y-60000000D01*
X147000000Y-48500000D02*
X147000000Y-59500000D01*
%TO.N,+3.3V*%
X139000000Y-84500000D02*
X139250000Y-84750000D01*
X139000000Y-73500000D02*
X139000000Y-84500000D01*
X141500000Y-46500000D02*
X141500000Y-49500000D01*
%TO.N,SPI CSn*%
X148885000Y-78885000D02*
X148000000Y-78000000D01*
X151615000Y-78885000D02*
X148885000Y-78885000D01*
%TO.N,SCL*%
X157000000Y-71000000D02*
X156500000Y-71500000D01*
X149000000Y-51500000D02*
X149000000Y-49000000D01*
X156500000Y-71500000D02*
X156500000Y-75000000D01*
X158750000Y-96000000D02*
X158750000Y-97750000D01*
X158750000Y-97750000D02*
X159500000Y-98500000D01*
%TO.N,SPI TX*%
X148000000Y-86500000D02*
X151500000Y-86500000D01*
%TO.N,SDA*%
X157500000Y-72500000D02*
X157500000Y-76000000D01*
X157500000Y-76000000D02*
X156500000Y-77000000D01*
%TO.N,SPI SCK*%
X151535000Y-83535000D02*
X151535000Y-83965000D01*
X148000000Y-80000000D02*
X151535000Y-83535000D01*
%TO.N,SPI RX*%
X142500000Y-81500000D02*
X142500000Y-76000000D01*
%TO.N,GPIO2*%
X150000000Y-58000000D02*
X150000000Y-52500000D01*
X151000000Y-51500000D02*
X151000000Y-48500000D01*
X150000000Y-52500000D02*
X151000000Y-51500000D01*
%TO.N,GPIO10*%
X164675000Y-91000000D02*
X164675000Y-93750000D01*
X162000000Y-84000000D02*
X158500000Y-84000000D01*
X162500000Y-84500000D02*
X162000000Y-84000000D01*
%TO.N,GPIO9*%
X156500000Y-89500000D02*
X155500000Y-89500000D01*
X157000000Y-66000000D02*
X160500000Y-66000000D01*
X159500000Y-72000000D02*
X159500000Y-74500000D01*
X152500000Y-100750000D02*
X152500000Y-94500000D01*
X159000000Y-87000000D02*
X156500000Y-89500000D01*
%TD*%
%TA.AperFunction,Conductor*%
%TO.N,+5V*%
G36*
X185442539Y-35520185D02*
G01*
X185488294Y-35572989D01*
X185499500Y-35624500D01*
X185499500Y-117375500D01*
X185479815Y-117442539D01*
X185427011Y-117488294D01*
X185375500Y-117499500D01*
X135124500Y-117499500D01*
X135057461Y-117479815D01*
X135011706Y-117427011D01*
X135000500Y-117375500D01*
X135000500Y-113820259D01*
X135299500Y-113820259D01*
X135299500Y-114179740D01*
X135339746Y-114536935D01*
X135339748Y-114536951D01*
X135419737Y-114887407D01*
X135419741Y-114887419D01*
X135538465Y-115226711D01*
X135694432Y-115550579D01*
X135694434Y-115550582D01*
X135885685Y-115854956D01*
X136109812Y-116136003D01*
X136363997Y-116390188D01*
X136645044Y-116614315D01*
X136949418Y-116805566D01*
X137273292Y-116961536D01*
X137528119Y-117050703D01*
X137612580Y-117080258D01*
X137612592Y-117080262D01*
X137963052Y-117160252D01*
X138320260Y-117200499D01*
X138320261Y-117200500D01*
X138320264Y-117200500D01*
X138679739Y-117200500D01*
X138679739Y-117200499D01*
X139036948Y-117160252D01*
X139387408Y-117080262D01*
X139726708Y-116961536D01*
X140050582Y-116805566D01*
X140354956Y-116614315D01*
X140636003Y-116390188D01*
X140890188Y-116136003D01*
X141114315Y-115854956D01*
X141305566Y-115550582D01*
X141461536Y-115226708D01*
X141580262Y-114887408D01*
X141660252Y-114536948D01*
X141700500Y-114179736D01*
X141700500Y-113820264D01*
X141700499Y-113820259D01*
X178799500Y-113820259D01*
X178799500Y-114179740D01*
X178839746Y-114536935D01*
X178839748Y-114536951D01*
X178919737Y-114887407D01*
X178919741Y-114887419D01*
X179038465Y-115226711D01*
X179194432Y-115550579D01*
X179194434Y-115550582D01*
X179385685Y-115854956D01*
X179609812Y-116136003D01*
X179863997Y-116390188D01*
X180145044Y-116614315D01*
X180449418Y-116805566D01*
X180773292Y-116961536D01*
X181028119Y-117050703D01*
X181112580Y-117080258D01*
X181112592Y-117080262D01*
X181463052Y-117160252D01*
X181820260Y-117200499D01*
X181820261Y-117200500D01*
X181820264Y-117200500D01*
X182179739Y-117200500D01*
X182179739Y-117200499D01*
X182536948Y-117160252D01*
X182887408Y-117080262D01*
X183226708Y-116961536D01*
X183550582Y-116805566D01*
X183854956Y-116614315D01*
X184136003Y-116390188D01*
X184390188Y-116136003D01*
X184614315Y-115854956D01*
X184805566Y-115550582D01*
X184961536Y-115226708D01*
X185080262Y-114887408D01*
X185160252Y-114536948D01*
X185200500Y-114179736D01*
X185200500Y-113820264D01*
X185160252Y-113463052D01*
X185080262Y-113112592D01*
X184961536Y-112773292D01*
X184805566Y-112449418D01*
X184614315Y-112145044D01*
X184390188Y-111863997D01*
X184136003Y-111609812D01*
X183854956Y-111385685D01*
X183550582Y-111194434D01*
X183550579Y-111194432D01*
X183226711Y-111038465D01*
X182887419Y-110919741D01*
X182887407Y-110919737D01*
X182536951Y-110839748D01*
X182536935Y-110839746D01*
X182179740Y-110799500D01*
X182179736Y-110799500D01*
X181820264Y-110799500D01*
X181820259Y-110799500D01*
X181463064Y-110839746D01*
X181463048Y-110839748D01*
X181112592Y-110919737D01*
X181112580Y-110919741D01*
X180773288Y-111038465D01*
X180449420Y-111194432D01*
X180145045Y-111385684D01*
X179863997Y-111609811D01*
X179609811Y-111863997D01*
X179385684Y-112145045D01*
X179194432Y-112449420D01*
X179038465Y-112773288D01*
X178919741Y-113112580D01*
X178919737Y-113112592D01*
X178839748Y-113463048D01*
X178839746Y-113463064D01*
X178799500Y-113820259D01*
X141700499Y-113820259D01*
X141660252Y-113463052D01*
X141580262Y-113112592D01*
X141461536Y-112773292D01*
X141305566Y-112449418D01*
X141114315Y-112145044D01*
X140890188Y-111863997D01*
X140636003Y-111609812D01*
X140354956Y-111385685D01*
X140050582Y-111194434D01*
X140050579Y-111194432D01*
X139726711Y-111038465D01*
X139387419Y-110919741D01*
X139387407Y-110919737D01*
X139036951Y-110839748D01*
X139036935Y-110839746D01*
X138679740Y-110799500D01*
X138679736Y-110799500D01*
X138320264Y-110799500D01*
X138320259Y-110799500D01*
X137963064Y-110839746D01*
X137963048Y-110839748D01*
X137612592Y-110919737D01*
X137612580Y-110919741D01*
X137273288Y-111038465D01*
X136949420Y-111194432D01*
X136645045Y-111385684D01*
X136363997Y-111609811D01*
X136109811Y-111863997D01*
X135885684Y-112145045D01*
X135694432Y-112449420D01*
X135538465Y-112773288D01*
X135419741Y-113112580D01*
X135419737Y-113112592D01*
X135339748Y-113463048D01*
X135339746Y-113463064D01*
X135299500Y-113820259D01*
X135000500Y-113820259D01*
X135000500Y-103182155D01*
X144035000Y-103182155D01*
X144035000Y-103830000D01*
X144951988Y-103830000D01*
X144919075Y-103887007D01*
X144885000Y-104014174D01*
X144885000Y-104145826D01*
X144919075Y-104272993D01*
X144951988Y-104330000D01*
X144035000Y-104330000D01*
X144035000Y-104977844D01*
X144041401Y-105037372D01*
X144041403Y-105037379D01*
X144091645Y-105172086D01*
X144091649Y-105172093D01*
X144177809Y-105287187D01*
X144177812Y-105287190D01*
X144292906Y-105373350D01*
X144292913Y-105373354D01*
X144427620Y-105423596D01*
X144427627Y-105423598D01*
X144487155Y-105429999D01*
X144487172Y-105430000D01*
X145135000Y-105430000D01*
X145135000Y-104513012D01*
X145192007Y-104545925D01*
X145319174Y-104580000D01*
X145450826Y-104580000D01*
X145577993Y-104545925D01*
X145635000Y-104513012D01*
X145635000Y-105430000D01*
X146282828Y-105430000D01*
X146282844Y-105429999D01*
X146342372Y-105423598D01*
X146342379Y-105423596D01*
X146477086Y-105373354D01*
X146477093Y-105373350D01*
X146592187Y-105287190D01*
X146592190Y-105287187D01*
X146678350Y-105172093D01*
X146678354Y-105172086D01*
X146728596Y-105037379D01*
X146728598Y-105037372D01*
X146734999Y-104977844D01*
X146735000Y-104977827D01*
X146735000Y-104330000D01*
X145818012Y-104330000D01*
X145850925Y-104272993D01*
X145885000Y-104145826D01*
X145885000Y-104014174D01*
X145850925Y-103887007D01*
X145818012Y-103830000D01*
X146735000Y-103830000D01*
X146735000Y-103182172D01*
X146734999Y-103182155D01*
X146728598Y-103122627D01*
X146728596Y-103122620D01*
X146678354Y-102987913D01*
X146678350Y-102987906D01*
X146592190Y-102872812D01*
X146592187Y-102872809D01*
X146477093Y-102786649D01*
X146477086Y-102786645D01*
X146342379Y-102736403D01*
X146342372Y-102736401D01*
X146282844Y-102730000D01*
X146256216Y-102730000D01*
X146189177Y-102710315D01*
X146143422Y-102657511D01*
X146133478Y-102588353D01*
X146162503Y-102524797D01*
X146183329Y-102505683D01*
X146199646Y-102493828D01*
X146338828Y-102354646D01*
X146454524Y-102195405D01*
X146543884Y-102020025D01*
X146604709Y-101832826D01*
X146618752Y-101744161D01*
X146635500Y-101638422D01*
X146635500Y-101441577D01*
X146604709Y-101247173D01*
X146556727Y-101099501D01*
X146543884Y-101059975D01*
X146543882Y-101059972D01*
X146543882Y-101059970D01*
X146454523Y-100884594D01*
X146338828Y-100725354D01*
X146199646Y-100586172D01*
X146063608Y-100487334D01*
X146040403Y-100470474D01*
X145863787Y-100380485D01*
X145812990Y-100332511D01*
X145796195Y-100264690D01*
X145818732Y-100198555D01*
X145863787Y-100159515D01*
X146040403Y-100069525D01*
X146040402Y-100069525D01*
X146040405Y-100069524D01*
X146199646Y-99953828D01*
X146338828Y-99814646D01*
X146454524Y-99655405D01*
X146543884Y-99480025D01*
X146604709Y-99292826D01*
X146619496Y-99199464D01*
X146635500Y-99098422D01*
X146635500Y-98901577D01*
X146604709Y-98707173D01*
X146566806Y-98590521D01*
X146543884Y-98519975D01*
X146543882Y-98519972D01*
X146543882Y-98519970D01*
X146454523Y-98344594D01*
X146338828Y-98185354D01*
X146199646Y-98046172D01*
X146073240Y-97954332D01*
X146040403Y-97930474D01*
X145863787Y-97840485D01*
X145812990Y-97792511D01*
X145796195Y-97724690D01*
X145818732Y-97658555D01*
X145863787Y-97619515D01*
X146040403Y-97529525D01*
X146040402Y-97529525D01*
X146040405Y-97529524D01*
X146199646Y-97413828D01*
X146338828Y-97274646D01*
X146454524Y-97115405D01*
X146543884Y-96940025D01*
X146604709Y-96752826D01*
X146635500Y-96558422D01*
X146635500Y-96361577D01*
X146604709Y-96167173D01*
X146543882Y-95979970D01*
X146454523Y-95804594D01*
X146338828Y-95645354D01*
X146199646Y-95506172D01*
X146089246Y-95425961D01*
X146040403Y-95390474D01*
X145863787Y-95300485D01*
X145812990Y-95252511D01*
X145796195Y-95184690D01*
X145818732Y-95118555D01*
X145863787Y-95079515D01*
X146040403Y-94989525D01*
X146040402Y-94989525D01*
X146040405Y-94989524D01*
X146199646Y-94873828D01*
X146338828Y-94734646D01*
X146454524Y-94575405D01*
X146538137Y-94411304D01*
X151599500Y-94411304D01*
X151599500Y-94588695D01*
X151634103Y-94762658D01*
X151634106Y-94762667D01*
X151701984Y-94926542D01*
X151701985Y-94926543D01*
X151701987Y-94926547D01*
X151744068Y-94989525D01*
X151778602Y-95041208D01*
X151799480Y-95107885D01*
X151799500Y-95110099D01*
X151799500Y-100139899D01*
X151779815Y-100206938D01*
X151778602Y-100208790D01*
X151701988Y-100323449D01*
X151701987Y-100323452D01*
X151634106Y-100487332D01*
X151634103Y-100487341D01*
X151599500Y-100661304D01*
X151599500Y-100838695D01*
X151634103Y-101012658D01*
X151634106Y-101012667D01*
X151701983Y-101176540D01*
X151701990Y-101176553D01*
X151800535Y-101324034D01*
X151800538Y-101324038D01*
X151925961Y-101449461D01*
X151925965Y-101449464D01*
X152073446Y-101548009D01*
X152073459Y-101548016D01*
X152196363Y-101598923D01*
X152237334Y-101615894D01*
X152237336Y-101615894D01*
X152237341Y-101615896D01*
X152414121Y-101651060D01*
X152476032Y-101683445D01*
X152510606Y-101744161D01*
X152506867Y-101813930D01*
X152488306Y-101848163D01*
X152416400Y-101941873D01*
X152291837Y-102157623D01*
X152291830Y-102157638D01*
X152196498Y-102387792D01*
X152132017Y-102628438D01*
X152099501Y-102875424D01*
X152099500Y-102875441D01*
X152099500Y-103124558D01*
X152099501Y-103124575D01*
X152132017Y-103371561D01*
X152196498Y-103612207D01*
X152291830Y-103842361D01*
X152291837Y-103842376D01*
X152416400Y-104058126D01*
X152568060Y-104255774D01*
X152568066Y-104255781D01*
X152744218Y-104431933D01*
X152744225Y-104431939D01*
X152941873Y-104583599D01*
X153157623Y-104708162D01*
X153157638Y-104708169D01*
X153230483Y-104738342D01*
X153387793Y-104803502D01*
X153628435Y-104867982D01*
X153875435Y-104900500D01*
X153875442Y-104900500D01*
X154124558Y-104900500D01*
X154124565Y-104900500D01*
X154371565Y-104867982D01*
X154612207Y-104803502D01*
X154842373Y-104708164D01*
X155058127Y-104583599D01*
X155255776Y-104431938D01*
X155431938Y-104255776D01*
X155583599Y-104058127D01*
X155708164Y-103842373D01*
X155803502Y-103612207D01*
X155867982Y-103371565D01*
X155900500Y-103124565D01*
X155900500Y-102875435D01*
X155867982Y-102628435D01*
X155803502Y-102387793D01*
X155708164Y-102157627D01*
X155583599Y-101941873D01*
X155431938Y-101744224D01*
X155431933Y-101744218D01*
X155255781Y-101568066D01*
X155255774Y-101568060D01*
X155247857Y-101561985D01*
X155125992Y-101468475D01*
X172589500Y-101468475D01*
X172589500Y-104531517D01*
X172597179Y-104580000D01*
X172604354Y-104625304D01*
X172661950Y-104738342D01*
X172661952Y-104738344D01*
X172661954Y-104738347D01*
X172751652Y-104828045D01*
X172751654Y-104828046D01*
X172751658Y-104828050D01*
X172864694Y-104885645D01*
X172864698Y-104885647D01*
X172952116Y-104899491D01*
X172958468Y-104900498D01*
X172958475Y-104900499D01*
X172958481Y-104900500D01*
X176021518Y-104900499D01*
X176115304Y-104885646D01*
X176228342Y-104828050D01*
X176318050Y-104738342D01*
X176375646Y-104625304D01*
X176375646Y-104625302D01*
X176375647Y-104625301D01*
X176390499Y-104531524D01*
X176390500Y-104531519D01*
X176390499Y-101468482D01*
X176375646Y-101374696D01*
X176318050Y-101261658D01*
X176318046Y-101261654D01*
X176318045Y-101261652D01*
X176228347Y-101171954D01*
X176228344Y-101171952D01*
X176228342Y-101171950D01*
X176149969Y-101132017D01*
X176115301Y-101114352D01*
X176021524Y-101099500D01*
X172958482Y-101099500D01*
X172877519Y-101112323D01*
X172864696Y-101114354D01*
X172751658Y-101171950D01*
X172751657Y-101171951D01*
X172751652Y-101171954D01*
X172661954Y-101261652D01*
X172661951Y-101261657D01*
X172661950Y-101261658D01*
X172646573Y-101291837D01*
X172604352Y-101374698D01*
X172589500Y-101468475D01*
X155125992Y-101468475D01*
X155058126Y-101416400D01*
X154842376Y-101291837D01*
X154842361Y-101291830D01*
X154612207Y-101196498D01*
X154520608Y-101171954D01*
X154371565Y-101132018D01*
X154371564Y-101132017D01*
X154371561Y-101132017D01*
X154124575Y-101099501D01*
X154124570Y-101099500D01*
X154124565Y-101099500D01*
X153875435Y-101099500D01*
X153875429Y-101099500D01*
X153875424Y-101099501D01*
X153628436Y-101132017D01*
X153518649Y-101161435D01*
X153448799Y-101159772D01*
X153390937Y-101120609D01*
X153363433Y-101056381D01*
X153364939Y-101017468D01*
X153400500Y-100838693D01*
X153400500Y-100661306D01*
X153400499Y-100661304D01*
X153365896Y-100487341D01*
X153365893Y-100487332D01*
X153358910Y-100470474D01*
X153298013Y-100323453D01*
X153298011Y-100323451D01*
X153298011Y-100323449D01*
X153221398Y-100208790D01*
X153200520Y-100142112D01*
X153200500Y-100139899D01*
X153200500Y-95911304D01*
X157849500Y-95911304D01*
X157849500Y-96088695D01*
X157884103Y-96262658D01*
X157884106Y-96262667D01*
X157951984Y-96426542D01*
X157951985Y-96426543D01*
X157951987Y-96426547D01*
X158028602Y-96541208D01*
X158049480Y-96607885D01*
X158049500Y-96610099D01*
X158049500Y-97681006D01*
X158049500Y-97818994D01*
X158049500Y-97818996D01*
X158049499Y-97818996D01*
X158076418Y-97954322D01*
X158076421Y-97954332D01*
X158129222Y-98081807D01*
X158205887Y-98196545D01*
X158205888Y-98196546D01*
X158573266Y-98563923D01*
X158606751Y-98625246D01*
X158607202Y-98627413D01*
X158634103Y-98762658D01*
X158634106Y-98762667D01*
X158701983Y-98926540D01*
X158701990Y-98926553D01*
X158800535Y-99074034D01*
X158800538Y-99074038D01*
X158925961Y-99199461D01*
X158925965Y-99199464D01*
X159073446Y-99298009D01*
X159073459Y-99298016D01*
X159196363Y-99348923D01*
X159237334Y-99365894D01*
X159237336Y-99365894D01*
X159237341Y-99365896D01*
X159411304Y-99400499D01*
X159411307Y-99400500D01*
X159411309Y-99400500D01*
X159588693Y-99400500D01*
X159588694Y-99400499D01*
X159646682Y-99388964D01*
X159762658Y-99365896D01*
X159762661Y-99365894D01*
X159762666Y-99365894D01*
X159926547Y-99298013D01*
X160074035Y-99199464D01*
X160199464Y-99074035D01*
X160298013Y-98926547D01*
X160365894Y-98762666D01*
X160376933Y-98707173D01*
X160400499Y-98588695D01*
X160400500Y-98588693D01*
X160400500Y-98411306D01*
X160400499Y-98411304D01*
X160365896Y-98237341D01*
X160365893Y-98237332D01*
X160298016Y-98073459D01*
X160298009Y-98073446D01*
X160199464Y-97925965D01*
X160199461Y-97925961D01*
X160074038Y-97800538D01*
X160074034Y-97800535D01*
X159926553Y-97701990D01*
X159926540Y-97701983D01*
X159762667Y-97634106D01*
X159762658Y-97634103D01*
X159627413Y-97607202D01*
X159610656Y-97598437D01*
X159592177Y-97594417D01*
X159567138Y-97575672D01*
X159565502Y-97574817D01*
X159563923Y-97573266D01*
X159486819Y-97496162D01*
X159453334Y-97434839D01*
X159450500Y-97408481D01*
X159450500Y-96610099D01*
X159470185Y-96543060D01*
X159471398Y-96541208D01*
X159548013Y-96426547D01*
X159615894Y-96262666D01*
X159650500Y-96088691D01*
X159650500Y-95911309D01*
X159650500Y-95911306D01*
X159650499Y-95911304D01*
X159615896Y-95737341D01*
X159615893Y-95737332D01*
X159548016Y-95573459D01*
X159548009Y-95573446D01*
X159449464Y-95425965D01*
X159449461Y-95425961D01*
X159324038Y-95300538D01*
X159324034Y-95300535D01*
X159176553Y-95201990D01*
X159176540Y-95201983D01*
X159012667Y-95134106D01*
X159012658Y-95134103D01*
X158838694Y-95099500D01*
X158838691Y-95099500D01*
X158661309Y-95099500D01*
X158661306Y-95099500D01*
X158487341Y-95134103D01*
X158487332Y-95134106D01*
X158323459Y-95201983D01*
X158323446Y-95201990D01*
X158175965Y-95300535D01*
X158175961Y-95300538D01*
X158050538Y-95425961D01*
X158050535Y-95425965D01*
X157951990Y-95573446D01*
X157951983Y-95573459D01*
X157884106Y-95737332D01*
X157884103Y-95737341D01*
X157849500Y-95911304D01*
X153200500Y-95911304D01*
X153200500Y-95110099D01*
X153220185Y-95043060D01*
X153221398Y-95041208D01*
X153298013Y-94926547D01*
X153365894Y-94762666D01*
X153371468Y-94734647D01*
X153388964Y-94646682D01*
X153400500Y-94588691D01*
X153400500Y-94411309D01*
X153400500Y-94411306D01*
X153400499Y-94411304D01*
X153365896Y-94237341D01*
X153365893Y-94237332D01*
X153355742Y-94212826D01*
X153340718Y-94176553D01*
X153298016Y-94073459D01*
X153298009Y-94073446D01*
X153199464Y-93925965D01*
X153199461Y-93925961D01*
X153074038Y-93800538D01*
X153074034Y-93800535D01*
X152926553Y-93701990D01*
X152926540Y-93701983D01*
X152762667Y-93634106D01*
X152762658Y-93634103D01*
X152588694Y-93599500D01*
X152588691Y-93599500D01*
X152411309Y-93599500D01*
X152411306Y-93599500D01*
X152237341Y-93634103D01*
X152237332Y-93634106D01*
X152073459Y-93701983D01*
X152073446Y-93701990D01*
X151925965Y-93800535D01*
X151925961Y-93800538D01*
X151800538Y-93925961D01*
X151800535Y-93925965D01*
X151701990Y-94073446D01*
X151701983Y-94073459D01*
X151634106Y-94237332D01*
X151634103Y-94237341D01*
X151599500Y-94411304D01*
X146538137Y-94411304D01*
X146543884Y-94400025D01*
X146604709Y-94212826D01*
X146610456Y-94176540D01*
X146635500Y-94018422D01*
X146635500Y-93821577D01*
X146604709Y-93627173D01*
X146543882Y-93439970D01*
X146454523Y-93264594D01*
X146338828Y-93105354D01*
X146199646Y-92966172D01*
X146120025Y-92908324D01*
X146040403Y-92850474D01*
X145863787Y-92760485D01*
X145812990Y-92712511D01*
X145796195Y-92644690D01*
X145818732Y-92578555D01*
X145863787Y-92539515D01*
X146040403Y-92449525D01*
X146040402Y-92449525D01*
X146040405Y-92449524D01*
X146199646Y-92333828D01*
X146338828Y-92194646D01*
X146454524Y-92035405D01*
X146543884Y-91860025D01*
X146604709Y-91672826D01*
X146614995Y-91607885D01*
X146635500Y-91478422D01*
X146635500Y-91281577D01*
X146617586Y-91168483D01*
X146604709Y-91087174D01*
X146604708Y-91087170D01*
X146604708Y-91087169D01*
X146558038Y-90943535D01*
X146558037Y-90943533D01*
X146547565Y-90911304D01*
X163774500Y-90911304D01*
X163774500Y-91088695D01*
X163809103Y-91262658D01*
X163809106Y-91262667D01*
X163876984Y-91426542D01*
X163876985Y-91426543D01*
X163876987Y-91426547D01*
X163936741Y-91515974D01*
X163953602Y-91541208D01*
X163974480Y-91607885D01*
X163974500Y-91610099D01*
X163974500Y-93139899D01*
X163954815Y-93206938D01*
X163953602Y-93208790D01*
X163876988Y-93323449D01*
X163876987Y-93323452D01*
X163809106Y-93487332D01*
X163809103Y-93487341D01*
X163774500Y-93661304D01*
X163774500Y-93838695D01*
X163809103Y-94012658D01*
X163809106Y-94012667D01*
X163876983Y-94176540D01*
X163876990Y-94176553D01*
X163975535Y-94324034D01*
X163975538Y-94324038D01*
X164100961Y-94449461D01*
X164100965Y-94449464D01*
X164248446Y-94548009D01*
X164248459Y-94548016D01*
X164346659Y-94588691D01*
X164412334Y-94615894D01*
X164412336Y-94615894D01*
X164412341Y-94615896D01*
X164586304Y-94650499D01*
X164586307Y-94650500D01*
X164586309Y-94650500D01*
X164763693Y-94650500D01*
X164763694Y-94650499D01*
X164821682Y-94638964D01*
X164937658Y-94615896D01*
X164937661Y-94615894D01*
X164937666Y-94615894D01*
X165101547Y-94548013D01*
X165249035Y-94449464D01*
X165374464Y-94324035D01*
X165473013Y-94176547D01*
X165540894Y-94012666D01*
X165575500Y-93838691D01*
X165575500Y-93661309D01*
X165575500Y-93661306D01*
X165575499Y-93661304D01*
X165540896Y-93487341D01*
X165540893Y-93487332D01*
X165524525Y-93447815D01*
X165473013Y-93323453D01*
X165473011Y-93323451D01*
X165473011Y-93323449D01*
X165396398Y-93208790D01*
X165375520Y-93142112D01*
X165375500Y-93139899D01*
X165375500Y-92139778D01*
X175349500Y-92139778D01*
X175349500Y-92360221D01*
X175383985Y-92577952D01*
X175452103Y-92787603D01*
X175452104Y-92787606D01*
X175552187Y-92984025D01*
X175681752Y-93162358D01*
X175681756Y-93162363D01*
X175837636Y-93318243D01*
X175837641Y-93318247D01*
X175844807Y-93323453D01*
X176015978Y-93447815D01*
X176144375Y-93513237D01*
X176212393Y-93547895D01*
X176212396Y-93547896D01*
X176317221Y-93581955D01*
X176422049Y-93616015D01*
X176639778Y-93650500D01*
X176639779Y-93650500D01*
X176860221Y-93650500D01*
X176860222Y-93650500D01*
X177077951Y-93616015D01*
X177287606Y-93547895D01*
X177484022Y-93447815D01*
X177662365Y-93318242D01*
X177818242Y-93162365D01*
X177947815Y-92984022D01*
X178047895Y-92787606D01*
X178116015Y-92577951D01*
X178150500Y-92360222D01*
X178150500Y-92139778D01*
X181849500Y-92139778D01*
X181849500Y-92360221D01*
X181883985Y-92577952D01*
X181952103Y-92787603D01*
X181952104Y-92787606D01*
X182052187Y-92984025D01*
X182181752Y-93162358D01*
X182181756Y-93162363D01*
X182337636Y-93318243D01*
X182337641Y-93318247D01*
X182344807Y-93323453D01*
X182515978Y-93447815D01*
X182644375Y-93513237D01*
X182712393Y-93547895D01*
X182712396Y-93547896D01*
X182817221Y-93581955D01*
X182922049Y-93616015D01*
X183139778Y-93650500D01*
X183139779Y-93650500D01*
X183360221Y-93650500D01*
X183360222Y-93650500D01*
X183577951Y-93616015D01*
X183787606Y-93547895D01*
X183984022Y-93447815D01*
X184162365Y-93318242D01*
X184318242Y-93162365D01*
X184447815Y-92984022D01*
X184547895Y-92787606D01*
X184616015Y-92577951D01*
X184650500Y-92360222D01*
X184650500Y-92139778D01*
X184616015Y-91922049D01*
X184547895Y-91712394D01*
X184547895Y-91712393D01*
X184513237Y-91644375D01*
X184447815Y-91515978D01*
X184420529Y-91478422D01*
X184318247Y-91337641D01*
X184318243Y-91337636D01*
X184162363Y-91181756D01*
X184162358Y-91181752D01*
X183984025Y-91052187D01*
X183984024Y-91052186D01*
X183984022Y-91052185D01*
X183921096Y-91020122D01*
X183787606Y-90952104D01*
X183787603Y-90952103D01*
X183577952Y-90883985D01*
X183469086Y-90866742D01*
X183360222Y-90849500D01*
X183139778Y-90849500D01*
X183067201Y-90860995D01*
X182922047Y-90883985D01*
X182712396Y-90952103D01*
X182712393Y-90952104D01*
X182515974Y-91052187D01*
X182337641Y-91181752D01*
X182337636Y-91181756D01*
X182181756Y-91337636D01*
X182181752Y-91337641D01*
X182052187Y-91515974D01*
X181952104Y-91712393D01*
X181952103Y-91712396D01*
X181883985Y-91922047D01*
X181849500Y-92139778D01*
X178150500Y-92139778D01*
X178116015Y-91922049D01*
X178047895Y-91712394D01*
X178047895Y-91712393D01*
X178013237Y-91644375D01*
X177947815Y-91515978D01*
X177920529Y-91478422D01*
X177818247Y-91337641D01*
X177818243Y-91337636D01*
X177662363Y-91181756D01*
X177662358Y-91181752D01*
X177484025Y-91052187D01*
X177484024Y-91052186D01*
X177484022Y-91052185D01*
X177421096Y-91020122D01*
X177287606Y-90952104D01*
X177287603Y-90952103D01*
X177077952Y-90883985D01*
X176969086Y-90866742D01*
X176860222Y-90849500D01*
X176639778Y-90849500D01*
X176567201Y-90860995D01*
X176422047Y-90883985D01*
X176212396Y-90952103D01*
X176212393Y-90952104D01*
X176015974Y-91052187D01*
X175837641Y-91181752D01*
X175837636Y-91181756D01*
X175681756Y-91337636D01*
X175681752Y-91337641D01*
X175552187Y-91515974D01*
X175452104Y-91712393D01*
X175452103Y-91712396D01*
X175383985Y-91922047D01*
X175349500Y-92139778D01*
X165375500Y-92139778D01*
X165375500Y-91610099D01*
X165395185Y-91543060D01*
X165396398Y-91541208D01*
X165413259Y-91515974D01*
X165473013Y-91426547D01*
X165540894Y-91262666D01*
X165575500Y-91088691D01*
X165575500Y-90911309D01*
X165575500Y-90911306D01*
X165575499Y-90911304D01*
X165540896Y-90737341D01*
X165540893Y-90737332D01*
X165473016Y-90573459D01*
X165473009Y-90573446D01*
X165374464Y-90425965D01*
X165374461Y-90425961D01*
X165249038Y-90300538D01*
X165249034Y-90300535D01*
X165101553Y-90201990D01*
X165101540Y-90201983D01*
X164937667Y-90134106D01*
X164937658Y-90134103D01*
X164763694Y-90099500D01*
X164763691Y-90099500D01*
X164586309Y-90099500D01*
X164586306Y-90099500D01*
X164412341Y-90134103D01*
X164412332Y-90134106D01*
X164248459Y-90201983D01*
X164248446Y-90201990D01*
X164100965Y-90300535D01*
X164100961Y-90300538D01*
X163975538Y-90425961D01*
X163975535Y-90425965D01*
X163876990Y-90573446D01*
X163876983Y-90573459D01*
X163809106Y-90737332D01*
X163809103Y-90737341D01*
X163774500Y-90911304D01*
X146547565Y-90911304D01*
X146543884Y-90899974D01*
X146461018Y-90737341D01*
X146454524Y-90724595D01*
X146338828Y-90565354D01*
X146199646Y-90426172D01*
X146116680Y-90365893D01*
X146040403Y-90310474D01*
X145863787Y-90220485D01*
X145812990Y-90172511D01*
X145796195Y-90104690D01*
X145818732Y-90038555D01*
X145863787Y-89999515D01*
X146040403Y-89909525D01*
X146040402Y-89909525D01*
X146040405Y-89909524D01*
X146199646Y-89793828D01*
X146338828Y-89654646D01*
X146454524Y-89495405D01*
X146497375Y-89411304D01*
X154599500Y-89411304D01*
X154599500Y-89588695D01*
X154634103Y-89762658D01*
X154634106Y-89762667D01*
X154701983Y-89926540D01*
X154701990Y-89926553D01*
X154800535Y-90074034D01*
X154800538Y-90074038D01*
X154925961Y-90199461D01*
X154925965Y-90199464D01*
X155073446Y-90298009D01*
X155073459Y-90298016D01*
X155196363Y-90348923D01*
X155237334Y-90365894D01*
X155237336Y-90365894D01*
X155237341Y-90365896D01*
X155411304Y-90400499D01*
X155411307Y-90400500D01*
X155411309Y-90400500D01*
X155588693Y-90400500D01*
X155588694Y-90400499D01*
X155646682Y-90388964D01*
X155762658Y-90365896D01*
X155762661Y-90365894D01*
X155762666Y-90365894D01*
X155926547Y-90298013D01*
X156041209Y-90221397D01*
X156107886Y-90200520D01*
X156110100Y-90200500D01*
X156568996Y-90200500D01*
X156660040Y-90182389D01*
X156704328Y-90173580D01*
X156799627Y-90134106D01*
X156831807Y-90120777D01*
X156831808Y-90120776D01*
X156831811Y-90120775D01*
X156946543Y-90044114D01*
X159063925Y-87926730D01*
X159125246Y-87893247D01*
X159127237Y-87892831D01*
X159262666Y-87865894D01*
X159426547Y-87798013D01*
X159574035Y-87699464D01*
X159699464Y-87574035D01*
X159798013Y-87426547D01*
X159865894Y-87262666D01*
X159875894Y-87212396D01*
X159900499Y-87088695D01*
X159900500Y-87088693D01*
X159900500Y-86911306D01*
X159900499Y-86911304D01*
X159865896Y-86737341D01*
X159865893Y-86737332D01*
X159798016Y-86573459D01*
X159798009Y-86573446D01*
X159699464Y-86425965D01*
X159699461Y-86425961D01*
X159574038Y-86300538D01*
X159574034Y-86300535D01*
X159426553Y-86201990D01*
X159426540Y-86201983D01*
X159262667Y-86134106D01*
X159262658Y-86134103D01*
X159088694Y-86099500D01*
X159088691Y-86099500D01*
X158911309Y-86099500D01*
X158911306Y-86099500D01*
X158737341Y-86134103D01*
X158737332Y-86134106D01*
X158573459Y-86201983D01*
X158573446Y-86201990D01*
X158425965Y-86300535D01*
X158425961Y-86300538D01*
X158300538Y-86425961D01*
X158300535Y-86425965D01*
X158201990Y-86573446D01*
X158201983Y-86573459D01*
X158134106Y-86737332D01*
X158134104Y-86737340D01*
X158107202Y-86872586D01*
X158074817Y-86934496D01*
X158073266Y-86936075D01*
X156246162Y-88763181D01*
X156219234Y-88777884D01*
X156193416Y-88794477D01*
X156187215Y-88795368D01*
X156184839Y-88796666D01*
X156158481Y-88799500D01*
X156110100Y-88799500D01*
X156043061Y-88779815D01*
X156041209Y-88778602D01*
X155926549Y-88701988D01*
X155926547Y-88701987D01*
X155762667Y-88634106D01*
X155762658Y-88634103D01*
X155588694Y-88599500D01*
X155588691Y-88599500D01*
X155411309Y-88599500D01*
X155411306Y-88599500D01*
X155237341Y-88634103D01*
X155237332Y-88634106D01*
X155073459Y-88701983D01*
X155073446Y-88701990D01*
X154925965Y-88800535D01*
X154925961Y-88800538D01*
X154800538Y-88925961D01*
X154800535Y-88925965D01*
X154701990Y-89073446D01*
X154701983Y-89073459D01*
X154634106Y-89237332D01*
X154634103Y-89237341D01*
X154599500Y-89411304D01*
X146497375Y-89411304D01*
X146543884Y-89320025D01*
X146604709Y-89132826D01*
X146614114Y-89073446D01*
X146635500Y-88938422D01*
X146635500Y-88741577D01*
X146604709Y-88547173D01*
X146543882Y-88359970D01*
X146454523Y-88184594D01*
X146338828Y-88025354D01*
X146199646Y-87886172D01*
X146040405Y-87770476D01*
X145865029Y-87681117D01*
X145677826Y-87620290D01*
X145483422Y-87589500D01*
X145483417Y-87589500D01*
X145286583Y-87589500D01*
X145286578Y-87589500D01*
X145092173Y-87620290D01*
X144904970Y-87681117D01*
X144729594Y-87770476D01*
X144638741Y-87836485D01*
X144570354Y-87886172D01*
X144570352Y-87886174D01*
X144570351Y-87886174D01*
X144431174Y-88025351D01*
X144431174Y-88025352D01*
X144431172Y-88025354D01*
X144392958Y-88077951D01*
X144315476Y-88184594D01*
X144226117Y-88359970D01*
X144165290Y-88547173D01*
X144134500Y-88741577D01*
X144134500Y-88938422D01*
X144165290Y-89132826D01*
X144226117Y-89320029D01*
X144272627Y-89411309D01*
X144315476Y-89495405D01*
X144431172Y-89654646D01*
X144570354Y-89793828D01*
X144729595Y-89909524D01*
X144763005Y-89926547D01*
X144906213Y-89999515D01*
X144957009Y-90047489D01*
X144973804Y-90115310D01*
X144951267Y-90181445D01*
X144906213Y-90220485D01*
X144729594Y-90310476D01*
X144653320Y-90365893D01*
X144570354Y-90426172D01*
X144570352Y-90426174D01*
X144570351Y-90426174D01*
X144431174Y-90565351D01*
X144431174Y-90565352D01*
X144431172Y-90565354D01*
X144381485Y-90633741D01*
X144315476Y-90724594D01*
X144226117Y-90899970D01*
X144165290Y-91087173D01*
X144134500Y-91281577D01*
X144134500Y-91478422D01*
X144165290Y-91672826D01*
X144226117Y-91860029D01*
X144315476Y-92035405D01*
X144431172Y-92194646D01*
X144570354Y-92333828D01*
X144729595Y-92449524D01*
X144852992Y-92512397D01*
X144906213Y-92539515D01*
X144957009Y-92587489D01*
X144973804Y-92655310D01*
X144951267Y-92721445D01*
X144906213Y-92760485D01*
X144729594Y-92850476D01*
X144638741Y-92916485D01*
X144570354Y-92966172D01*
X144570352Y-92966174D01*
X144570351Y-92966174D01*
X144431174Y-93105351D01*
X144431174Y-93105352D01*
X144431172Y-93105354D01*
X144404466Y-93142112D01*
X144315476Y-93264594D01*
X144226117Y-93439970D01*
X144165290Y-93627173D01*
X144134500Y-93821577D01*
X144134500Y-94018422D01*
X144165290Y-94212826D01*
X144226117Y-94400029D01*
X144251306Y-94449464D01*
X144315476Y-94575405D01*
X144431172Y-94734646D01*
X144570354Y-94873828D01*
X144729595Y-94989524D01*
X144831031Y-95041208D01*
X144906213Y-95079515D01*
X144957009Y-95127489D01*
X144973804Y-95195310D01*
X144951267Y-95261445D01*
X144906213Y-95300485D01*
X144729594Y-95390476D01*
X144638741Y-95456485D01*
X144570354Y-95506172D01*
X144570352Y-95506174D01*
X144570351Y-95506174D01*
X144431174Y-95645351D01*
X144431174Y-95645352D01*
X144431172Y-95645354D01*
X144381485Y-95713741D01*
X144315476Y-95804594D01*
X144226117Y-95979970D01*
X144165290Y-96167173D01*
X144134500Y-96361577D01*
X144134500Y-96558422D01*
X144165290Y-96752826D01*
X144226117Y-96940029D01*
X144315476Y-97115405D01*
X144431172Y-97274646D01*
X144570354Y-97413828D01*
X144729595Y-97529524D01*
X144815444Y-97573266D01*
X144906213Y-97619515D01*
X144957009Y-97667489D01*
X144973804Y-97735310D01*
X144951267Y-97801445D01*
X144906213Y-97840485D01*
X144729594Y-97930476D01*
X144696760Y-97954332D01*
X144570354Y-98046172D01*
X144570352Y-98046174D01*
X144570351Y-98046174D01*
X144431174Y-98185351D01*
X144431174Y-98185352D01*
X144431172Y-98185354D01*
X144393408Y-98237332D01*
X144315476Y-98344594D01*
X144226117Y-98519970D01*
X144165290Y-98707173D01*
X144134500Y-98901577D01*
X144134500Y-99098422D01*
X144165290Y-99292826D01*
X144226117Y-99480029D01*
X144315476Y-99655405D01*
X144431172Y-99814646D01*
X144570354Y-99953828D01*
X144729595Y-100069524D01*
X144852992Y-100132397D01*
X144906213Y-100159515D01*
X144957009Y-100207489D01*
X144973804Y-100275310D01*
X144951267Y-100341445D01*
X144906213Y-100380485D01*
X144729594Y-100470476D01*
X144706382Y-100487341D01*
X144570354Y-100586172D01*
X144570352Y-100586174D01*
X144570351Y-100586174D01*
X144431174Y-100725351D01*
X144431174Y-100725352D01*
X144431172Y-100725354D01*
X144381485Y-100793741D01*
X144315476Y-100884594D01*
X144226117Y-101059970D01*
X144165290Y-101247173D01*
X144134500Y-101441577D01*
X144134500Y-101638422D01*
X144165290Y-101832826D01*
X144226117Y-102020029D01*
X144296225Y-102157623D01*
X144315476Y-102195405D01*
X144431172Y-102354646D01*
X144431174Y-102354648D01*
X144570354Y-102493828D01*
X144586671Y-102505683D01*
X144629336Y-102561013D01*
X144635314Y-102630627D01*
X144602707Y-102692421D01*
X144541868Y-102726778D01*
X144513784Y-102730000D01*
X144487155Y-102730000D01*
X144427627Y-102736401D01*
X144427620Y-102736403D01*
X144292913Y-102786645D01*
X144292906Y-102786649D01*
X144177812Y-102872809D01*
X144177809Y-102872812D01*
X144091649Y-102987906D01*
X144091645Y-102987913D01*
X144041403Y-103122620D01*
X144041401Y-103122627D01*
X144035000Y-103182155D01*
X135000500Y-103182155D01*
X135000500Y-86411304D01*
X147099500Y-86411304D01*
X147099500Y-86588695D01*
X147134103Y-86762658D01*
X147134106Y-86762667D01*
X147201983Y-86926540D01*
X147201990Y-86926553D01*
X147300535Y-87074034D01*
X147300538Y-87074038D01*
X147425961Y-87199461D01*
X147425965Y-87199464D01*
X147573446Y-87298009D01*
X147573459Y-87298016D01*
X147696363Y-87348923D01*
X147737334Y-87365894D01*
X147737336Y-87365894D01*
X147737341Y-87365896D01*
X147911304Y-87400499D01*
X147911307Y-87400500D01*
X147911309Y-87400500D01*
X148088693Y-87400500D01*
X148088694Y-87400499D01*
X148146682Y-87388964D01*
X148262658Y-87365896D01*
X148262661Y-87365894D01*
X148262666Y-87365894D01*
X148426547Y-87298013D01*
X148541209Y-87221397D01*
X148607886Y-87200520D01*
X148610100Y-87200500D01*
X150889900Y-87200500D01*
X150956939Y-87220185D01*
X150958788Y-87221396D01*
X151073453Y-87298013D01*
X151237334Y-87365894D01*
X151237336Y-87365894D01*
X151237341Y-87365896D01*
X151411304Y-87400499D01*
X151411307Y-87400500D01*
X151411309Y-87400500D01*
X151588693Y-87400500D01*
X151588694Y-87400499D01*
X151646682Y-87388964D01*
X151762658Y-87365896D01*
X151762661Y-87365894D01*
X151762666Y-87365894D01*
X151926547Y-87298013D01*
X152074035Y-87199464D01*
X152199464Y-87074035D01*
X152298013Y-86926547D01*
X152365894Y-86762666D01*
X152370932Y-86737341D01*
X152400499Y-86588695D01*
X152400500Y-86588693D01*
X152400500Y-86411306D01*
X152400499Y-86411304D01*
X152365896Y-86237341D01*
X152365893Y-86237332D01*
X152298016Y-86073459D01*
X152298009Y-86073446D01*
X152199464Y-85925965D01*
X152199461Y-85925961D01*
X152074038Y-85800538D01*
X152074034Y-85800535D01*
X151926553Y-85701990D01*
X151926540Y-85701983D01*
X151762667Y-85634106D01*
X151762658Y-85634103D01*
X151588694Y-85599500D01*
X151588691Y-85599500D01*
X151411309Y-85599500D01*
X151411306Y-85599500D01*
X151237341Y-85634103D01*
X151237332Y-85634106D01*
X151073452Y-85701987D01*
X151073450Y-85701988D01*
X150958791Y-85778602D01*
X150892114Y-85799480D01*
X150889900Y-85799500D01*
X148610100Y-85799500D01*
X148543061Y-85779815D01*
X148541209Y-85778602D01*
X148426549Y-85701988D01*
X148426547Y-85701987D01*
X148262667Y-85634106D01*
X148262658Y-85634103D01*
X148088694Y-85599500D01*
X148088691Y-85599500D01*
X147911309Y-85599500D01*
X147911306Y-85599500D01*
X147737341Y-85634103D01*
X147737332Y-85634106D01*
X147573459Y-85701983D01*
X147573446Y-85701990D01*
X147425965Y-85800535D01*
X147425961Y-85800538D01*
X147300538Y-85925961D01*
X147300535Y-85925965D01*
X147201990Y-86073446D01*
X147201983Y-86073459D01*
X147134106Y-86237332D01*
X147134103Y-86237341D01*
X147099500Y-86411304D01*
X135000500Y-86411304D01*
X135000500Y-73411304D01*
X138099500Y-73411304D01*
X138099500Y-73588695D01*
X138134103Y-73762658D01*
X138134106Y-73762667D01*
X138201984Y-73926542D01*
X138201985Y-73926543D01*
X138201987Y-73926547D01*
X138230309Y-73968933D01*
X138278602Y-74041208D01*
X138299480Y-74107885D01*
X138299500Y-74110099D01*
X138299500Y-84431006D01*
X138299500Y-84568994D01*
X138299500Y-84568996D01*
X138299499Y-84568996D01*
X138326418Y-84704322D01*
X138326420Y-84704328D01*
X138340061Y-84737260D01*
X138349500Y-84784713D01*
X138349500Y-84838695D01*
X138384103Y-85012658D01*
X138384106Y-85012667D01*
X138451983Y-85176540D01*
X138451990Y-85176553D01*
X138550535Y-85324034D01*
X138550538Y-85324038D01*
X138675961Y-85449461D01*
X138675965Y-85449464D01*
X138823446Y-85548009D01*
X138823459Y-85548016D01*
X138946363Y-85598923D01*
X138987334Y-85615894D01*
X138987336Y-85615894D01*
X138987341Y-85615896D01*
X139161304Y-85650499D01*
X139161307Y-85650500D01*
X139161309Y-85650500D01*
X139338693Y-85650500D01*
X139338694Y-85650499D01*
X139421124Y-85634103D01*
X139512658Y-85615896D01*
X139512661Y-85615894D01*
X139512666Y-85615894D01*
X139676547Y-85548013D01*
X139824035Y-85449464D01*
X139949464Y-85324035D01*
X140048013Y-85176547D01*
X140115894Y-85012666D01*
X140120053Y-84991760D01*
X140142146Y-84880687D01*
X140150500Y-84838691D01*
X140150500Y-84661309D01*
X140150500Y-84661306D01*
X140150499Y-84661304D01*
X140115896Y-84487341D01*
X140115893Y-84487332D01*
X140048016Y-84323459D01*
X140048009Y-84323446D01*
X139949464Y-84175965D01*
X139949461Y-84175961D01*
X139824039Y-84050539D01*
X139755607Y-84004813D01*
X139710803Y-83951200D01*
X139700500Y-83901712D01*
X139700500Y-75911304D01*
X141599500Y-75911304D01*
X141599500Y-76088695D01*
X141634103Y-76262658D01*
X141634106Y-76262667D01*
X141701984Y-76426542D01*
X141701985Y-76426543D01*
X141701987Y-76426547D01*
X141778602Y-76541208D01*
X141799480Y-76607885D01*
X141799500Y-76610099D01*
X141799500Y-80889899D01*
X141779815Y-80956938D01*
X141778602Y-80958790D01*
X141701988Y-81073449D01*
X141701987Y-81073452D01*
X141634106Y-81237332D01*
X141634103Y-81237341D01*
X141599500Y-81411304D01*
X141599500Y-81588695D01*
X141634103Y-81762658D01*
X141634106Y-81762667D01*
X141701983Y-81926540D01*
X141701990Y-81926553D01*
X141800535Y-82074034D01*
X141800538Y-82074038D01*
X141925961Y-82199461D01*
X141925965Y-82199464D01*
X142073446Y-82298009D01*
X142073459Y-82298016D01*
X142169040Y-82337606D01*
X142237334Y-82365894D01*
X142237336Y-82365894D01*
X142237341Y-82365896D01*
X142411304Y-82400499D01*
X142411307Y-82400500D01*
X142411309Y-82400500D01*
X142588693Y-82400500D01*
X142588694Y-82400499D01*
X142646682Y-82388964D01*
X142762658Y-82365896D01*
X142762661Y-82365894D01*
X142762666Y-82365894D01*
X142926547Y-82298013D01*
X143074035Y-82199464D01*
X143199464Y-82074035D01*
X143298013Y-81926547D01*
X143298014Y-81926544D01*
X143298016Y-81926541D01*
X143360939Y-81774628D01*
X143404779Y-81720224D01*
X143471073Y-81698159D01*
X143538773Y-81715438D01*
X143586383Y-81766575D01*
X143599500Y-81822080D01*
X143599500Y-81910222D01*
X143606134Y-81952105D01*
X143633985Y-82127952D01*
X143702103Y-82337603D01*
X143702104Y-82337606D01*
X143770122Y-82471096D01*
X143786326Y-82502898D01*
X143802187Y-82534025D01*
X143931752Y-82712358D01*
X143931756Y-82712363D01*
X144087636Y-82868243D01*
X144087641Y-82868247D01*
X144243192Y-82981260D01*
X144265978Y-82997815D01*
X144394375Y-83063237D01*
X144462393Y-83097895D01*
X144462396Y-83097896D01*
X144567221Y-83131955D01*
X144672049Y-83166015D01*
X144889778Y-83200500D01*
X144889779Y-83200500D01*
X145110221Y-83200500D01*
X145110222Y-83200500D01*
X145327951Y-83166015D01*
X145537606Y-83097895D01*
X145734022Y-82997815D01*
X145912365Y-82868242D01*
X146068242Y-82712365D01*
X146197815Y-82534022D01*
X146297895Y-82337606D01*
X146366015Y-82127951D01*
X146400500Y-81910222D01*
X146400500Y-81689778D01*
X146366015Y-81472049D01*
X146325127Y-81346207D01*
X146297896Y-81262396D01*
X146297895Y-81262393D01*
X146263237Y-81194375D01*
X146197815Y-81065978D01*
X146119939Y-80958790D01*
X146068247Y-80887641D01*
X146068243Y-80887636D01*
X145912363Y-80731756D01*
X145912358Y-80731752D01*
X145734025Y-80602187D01*
X145734024Y-80602186D01*
X145734022Y-80602185D01*
X145644426Y-80556533D01*
X145537606Y-80502104D01*
X145537603Y-80502103D01*
X145327952Y-80433985D01*
X145219086Y-80416742D01*
X145110222Y-80399500D01*
X144889778Y-80399500D01*
X144817201Y-80410995D01*
X144672047Y-80433985D01*
X144462396Y-80502103D01*
X144462393Y-80502104D01*
X144265974Y-80602187D01*
X144087641Y-80731752D01*
X144087636Y-80731756D01*
X143931756Y-80887636D01*
X143931752Y-80887641D01*
X143802187Y-81065974D01*
X143702104Y-81262393D01*
X143702103Y-81262396D01*
X143642431Y-81446053D01*
X143602994Y-81503728D01*
X143538635Y-81530927D01*
X143469789Y-81519013D01*
X143418313Y-81471769D01*
X143403124Y-81417169D01*
X143401097Y-81417369D01*
X143400500Y-81411314D01*
X143400500Y-81411309D01*
X143387551Y-81346208D01*
X143365896Y-81237341D01*
X143365893Y-81237332D01*
X143298013Y-81073453D01*
X143298011Y-81073451D01*
X143298011Y-81073449D01*
X143221398Y-80958790D01*
X143200520Y-80892112D01*
X143200500Y-80889899D01*
X143200500Y-77911304D01*
X147099500Y-77911304D01*
X147099500Y-78088695D01*
X147134103Y-78262658D01*
X147134106Y-78262667D01*
X147201983Y-78426540D01*
X147201990Y-78426553D01*
X147300535Y-78574034D01*
X147300538Y-78574038D01*
X147425961Y-78699461D01*
X147425965Y-78699464D01*
X147573446Y-78798009D01*
X147573459Y-78798016D01*
X147671781Y-78838741D01*
X147737334Y-78865894D01*
X147800120Y-78878382D01*
X147862028Y-78910766D01*
X147896603Y-78971481D01*
X147892864Y-79041251D01*
X147851999Y-79097923D01*
X147800120Y-79121616D01*
X147737338Y-79134104D01*
X147737332Y-79134106D01*
X147573459Y-79201983D01*
X147573446Y-79201990D01*
X147425965Y-79300535D01*
X147425961Y-79300538D01*
X147300538Y-79425961D01*
X147300535Y-79425965D01*
X147201990Y-79573446D01*
X147201983Y-79573459D01*
X147134106Y-79737332D01*
X147134103Y-79737341D01*
X147099500Y-79911304D01*
X147099500Y-80088695D01*
X147134103Y-80262658D01*
X147134106Y-80262667D01*
X147201983Y-80426540D01*
X147201990Y-80426553D01*
X147300535Y-80574034D01*
X147300538Y-80574038D01*
X147425961Y-80699461D01*
X147425965Y-80699464D01*
X147573446Y-80798009D01*
X147573459Y-80798016D01*
X147671781Y-80838741D01*
X147737334Y-80865894D01*
X147872588Y-80892797D01*
X147934495Y-80925180D01*
X147936075Y-80926732D01*
X150629302Y-83619959D01*
X150662787Y-83681282D01*
X150663238Y-83731831D01*
X150634500Y-83876304D01*
X150634500Y-84053695D01*
X150669103Y-84227658D01*
X150669106Y-84227667D01*
X150736983Y-84391540D01*
X150736990Y-84391553D01*
X150835535Y-84539034D01*
X150835538Y-84539038D01*
X150960961Y-84664461D01*
X150960965Y-84664464D01*
X151108446Y-84763009D01*
X151108459Y-84763016D01*
X151231363Y-84813923D01*
X151272334Y-84830894D01*
X151272336Y-84830894D01*
X151272341Y-84830896D01*
X151446304Y-84865499D01*
X151446307Y-84865500D01*
X151446309Y-84865500D01*
X151623693Y-84865500D01*
X151623694Y-84865499D01*
X151681682Y-84853964D01*
X151797658Y-84830896D01*
X151797661Y-84830894D01*
X151797666Y-84830894D01*
X151961547Y-84763013D01*
X152109035Y-84664464D01*
X152234464Y-84539035D01*
X152333013Y-84391547D01*
X152400894Y-84227666D01*
X152435500Y-84053691D01*
X152435500Y-83876309D01*
X152435500Y-83876306D01*
X152435499Y-83876304D01*
X152400896Y-83702341D01*
X152400893Y-83702332D01*
X152400751Y-83701990D01*
X152366774Y-83619959D01*
X152333016Y-83538459D01*
X152333009Y-83538446D01*
X152231080Y-83385900D01*
X152232270Y-83385104D01*
X152210069Y-83338159D01*
X152208580Y-83330672D01*
X152157682Y-83207792D01*
X152155778Y-83203195D01*
X152155774Y-83203188D01*
X152154974Y-83201990D01*
X152109615Y-83134106D01*
X152079114Y-83088457D01*
X152079112Y-83088455D01*
X152079110Y-83088452D01*
X152079109Y-83088451D01*
X148926732Y-79936075D01*
X148917669Y-79919477D01*
X148904537Y-79905868D01*
X148894130Y-79876370D01*
X148893247Y-79874752D01*
X148892826Y-79872735D01*
X148865894Y-79737334D01*
X148865893Y-79737332D01*
X148865169Y-79733690D01*
X148871398Y-79664098D01*
X148914261Y-79608921D01*
X148980151Y-79585678D01*
X148986787Y-79585500D01*
X151004900Y-79585500D01*
X151071939Y-79605185D01*
X151073788Y-79606396D01*
X151188453Y-79683013D01*
X151352334Y-79750894D01*
X151352336Y-79750894D01*
X151352341Y-79750896D01*
X151526304Y-79785499D01*
X151526307Y-79785500D01*
X151526309Y-79785500D01*
X151703693Y-79785500D01*
X151703694Y-79785499D01*
X151761682Y-79773964D01*
X151877658Y-79750896D01*
X151877661Y-79750894D01*
X151877666Y-79750894D01*
X152041547Y-79683013D01*
X152189035Y-79584464D01*
X152314464Y-79459035D01*
X152413013Y-79311547D01*
X152480894Y-79147666D01*
X152483592Y-79134106D01*
X152515499Y-78973695D01*
X152515500Y-78973693D01*
X152515500Y-78796306D01*
X152515499Y-78796304D01*
X152480896Y-78622341D01*
X152480893Y-78622332D01*
X152413016Y-78458459D01*
X152413009Y-78458446D01*
X152314464Y-78310965D01*
X152314461Y-78310961D01*
X152189038Y-78185538D01*
X152189034Y-78185535D01*
X152041553Y-78086990D01*
X152041540Y-78086983D01*
X151877667Y-78019106D01*
X151877658Y-78019103D01*
X151703694Y-77984500D01*
X151703691Y-77984500D01*
X151526309Y-77984500D01*
X151526306Y-77984500D01*
X151352341Y-78019103D01*
X151352332Y-78019106D01*
X151188452Y-78086987D01*
X151188450Y-78086988D01*
X151073791Y-78163602D01*
X151007114Y-78184480D01*
X151004900Y-78184500D01*
X149226519Y-78184500D01*
X149159480Y-78164815D01*
X149138838Y-78148181D01*
X148926732Y-77936075D01*
X148893247Y-77874752D01*
X148892826Y-77872735D01*
X148865894Y-77737334D01*
X148809368Y-77600866D01*
X148798016Y-77573459D01*
X148798009Y-77573446D01*
X148699464Y-77425965D01*
X148699461Y-77425961D01*
X148574038Y-77300538D01*
X148574034Y-77300535D01*
X148426553Y-77201990D01*
X148426540Y-77201983D01*
X148262667Y-77134106D01*
X148262658Y-77134103D01*
X148088694Y-77099500D01*
X148088691Y-77099500D01*
X147911309Y-77099500D01*
X147911306Y-77099500D01*
X147737341Y-77134103D01*
X147737332Y-77134106D01*
X147573459Y-77201983D01*
X147573446Y-77201990D01*
X147425965Y-77300535D01*
X147425961Y-77300538D01*
X147300538Y-77425961D01*
X147300535Y-77425965D01*
X147201990Y-77573446D01*
X147201983Y-77573459D01*
X147134106Y-77737332D01*
X147134103Y-77737341D01*
X147099500Y-77911304D01*
X143200500Y-77911304D01*
X143200500Y-76610099D01*
X143220185Y-76543060D01*
X143221398Y-76541208D01*
X143298013Y-76426547D01*
X143365894Y-76262666D01*
X143366367Y-76260292D01*
X143391467Y-76134104D01*
X143400500Y-76088691D01*
X143400500Y-75911309D01*
X143400500Y-75911306D01*
X143400499Y-75911304D01*
X143365896Y-75737341D01*
X143365893Y-75737332D01*
X143298016Y-75573459D01*
X143298009Y-75573446D01*
X143199464Y-75425965D01*
X143199461Y-75425961D01*
X143074038Y-75300538D01*
X143074034Y-75300535D01*
X142926553Y-75201990D01*
X142926540Y-75201983D01*
X142762667Y-75134106D01*
X142762658Y-75134103D01*
X142588694Y-75099500D01*
X142588691Y-75099500D01*
X142411309Y-75099500D01*
X142411306Y-75099500D01*
X142237341Y-75134103D01*
X142237332Y-75134106D01*
X142073459Y-75201983D01*
X142073446Y-75201990D01*
X141925965Y-75300535D01*
X141925961Y-75300538D01*
X141800538Y-75425961D01*
X141800535Y-75425965D01*
X141701990Y-75573446D01*
X141701983Y-75573459D01*
X141634106Y-75737332D01*
X141634103Y-75737341D01*
X141599500Y-75911304D01*
X139700500Y-75911304D01*
X139700500Y-74110099D01*
X139720185Y-74043060D01*
X139721398Y-74041208D01*
X139798013Y-73926547D01*
X139865894Y-73762666D01*
X139900500Y-73588691D01*
X139900500Y-73411309D01*
X139900500Y-73411306D01*
X139900499Y-73411304D01*
X139865896Y-73237341D01*
X139865894Y-73237336D01*
X139865894Y-73237334D01*
X139837372Y-73168475D01*
X143599500Y-73168475D01*
X143599500Y-75231517D01*
X143610031Y-75298009D01*
X143614354Y-75325304D01*
X143671950Y-75438342D01*
X143671952Y-75438344D01*
X143671954Y-75438347D01*
X143761652Y-75528045D01*
X143761654Y-75528046D01*
X143761658Y-75528050D01*
X143874694Y-75585645D01*
X143874698Y-75585647D01*
X143968475Y-75600499D01*
X143968481Y-75600500D01*
X146031518Y-75600499D01*
X146125304Y-75585646D01*
X146238342Y-75528050D01*
X146328050Y-75438342D01*
X146385646Y-75325304D01*
X146385646Y-75325302D01*
X146385647Y-75325301D01*
X146400499Y-75231524D01*
X146400500Y-75231519D01*
X146400499Y-73168482D01*
X146385646Y-73074696D01*
X146328050Y-72961658D01*
X146328046Y-72961654D01*
X146328045Y-72961652D01*
X146238347Y-72871954D01*
X146238344Y-72871952D01*
X146238342Y-72871950D01*
X146161517Y-72832805D01*
X146125301Y-72814352D01*
X146031524Y-72799500D01*
X143968482Y-72799500D01*
X143887519Y-72812323D01*
X143874696Y-72814354D01*
X143761658Y-72871950D01*
X143761657Y-72871951D01*
X143761652Y-72871954D01*
X143671954Y-72961652D01*
X143671951Y-72961657D01*
X143614352Y-73074698D01*
X143599500Y-73168475D01*
X139837372Y-73168475D01*
X139798013Y-73073453D01*
X139798011Y-73073450D01*
X139798009Y-73073446D01*
X139699464Y-72925965D01*
X139699461Y-72925961D01*
X139574038Y-72800538D01*
X139574034Y-72800535D01*
X139426553Y-72701990D01*
X139426540Y-72701983D01*
X139262667Y-72634106D01*
X139262658Y-72634103D01*
X139088694Y-72599500D01*
X139088691Y-72599500D01*
X138911309Y-72599500D01*
X138911306Y-72599500D01*
X138737341Y-72634103D01*
X138737332Y-72634106D01*
X138573459Y-72701983D01*
X138573446Y-72701990D01*
X138425965Y-72800535D01*
X138425961Y-72800538D01*
X138300538Y-72925961D01*
X138300535Y-72925965D01*
X138201990Y-73073446D01*
X138201983Y-73073459D01*
X138134106Y-73237332D01*
X138134103Y-73237341D01*
X138099500Y-73411304D01*
X135000500Y-73411304D01*
X135000500Y-51613753D01*
X144035000Y-51613753D01*
X144035000Y-51826246D01*
X144068242Y-52036127D01*
X144068242Y-52036130D01*
X144133904Y-52238217D01*
X144230375Y-52427550D01*
X144269728Y-52481716D01*
X144902036Y-51849407D01*
X144919075Y-51912993D01*
X144984901Y-52027007D01*
X145077993Y-52120099D01*
X145192007Y-52185925D01*
X145255589Y-52202962D01*
X144623282Y-52835269D01*
X144623282Y-52835270D01*
X144677449Y-52874624D01*
X144796629Y-52935350D01*
X144847425Y-52983325D01*
X144864220Y-53051146D01*
X144841682Y-53117281D01*
X144796630Y-53156319D01*
X144729597Y-53190474D01*
X144711143Y-53203882D01*
X144570354Y-53306172D01*
X144570352Y-53306174D01*
X144570351Y-53306174D01*
X144431174Y-53445351D01*
X144431174Y-53445352D01*
X144431172Y-53445354D01*
X144381485Y-53513741D01*
X144315476Y-53604594D01*
X144226117Y-53779970D01*
X144165290Y-53967173D01*
X144134500Y-54161577D01*
X144134500Y-54358422D01*
X144165290Y-54552826D01*
X144226117Y-54740029D01*
X144304644Y-54894146D01*
X144315476Y-54915405D01*
X144431172Y-55074646D01*
X144570354Y-55213828D01*
X144729595Y-55329524D01*
X144837773Y-55384643D01*
X144906213Y-55419515D01*
X144957009Y-55467489D01*
X144973804Y-55535310D01*
X144951267Y-55601445D01*
X144906213Y-55640485D01*
X144729594Y-55730476D01*
X144650214Y-55788150D01*
X144570354Y-55846172D01*
X144570352Y-55846174D01*
X144570351Y-55846174D01*
X144431174Y-55985351D01*
X144431174Y-55985352D01*
X144431172Y-55985354D01*
X144381485Y-56053741D01*
X144315476Y-56144594D01*
X144226117Y-56319970D01*
X144165290Y-56507173D01*
X144134500Y-56701577D01*
X144134500Y-56898422D01*
X144165290Y-57092826D01*
X144226117Y-57280029D01*
X144284219Y-57394060D01*
X144315476Y-57455405D01*
X144431172Y-57614646D01*
X144570354Y-57753828D01*
X144729595Y-57869524D01*
X144837773Y-57924643D01*
X144906213Y-57959515D01*
X144957009Y-58007489D01*
X144973804Y-58075310D01*
X144951267Y-58141445D01*
X144906213Y-58180485D01*
X144729594Y-58270476D01*
X144650214Y-58328150D01*
X144570354Y-58386172D01*
X144570352Y-58386174D01*
X144570351Y-58386174D01*
X144431174Y-58525351D01*
X144431174Y-58525352D01*
X144431172Y-58525354D01*
X144395804Y-58574034D01*
X144315476Y-58684594D01*
X144226117Y-58859970D01*
X144165290Y-59047173D01*
X144134500Y-59241577D01*
X144134500Y-59438422D01*
X144165290Y-59632826D01*
X144226117Y-59820029D01*
X144298523Y-59962133D01*
X144315476Y-59995405D01*
X144431172Y-60154646D01*
X144570354Y-60293828D01*
X144729595Y-60409524D01*
X144763005Y-60426547D01*
X144906213Y-60499515D01*
X144957009Y-60547489D01*
X144973804Y-60615310D01*
X144951267Y-60681445D01*
X144906213Y-60720485D01*
X144729594Y-60810476D01*
X144711143Y-60823882D01*
X144570354Y-60926172D01*
X144570352Y-60926174D01*
X144570351Y-60926174D01*
X144431174Y-61065351D01*
X144431174Y-61065352D01*
X144431172Y-61065354D01*
X144381485Y-61133741D01*
X144315476Y-61224594D01*
X144226117Y-61399970D01*
X144165290Y-61587173D01*
X144134500Y-61781577D01*
X144134500Y-61978422D01*
X144165290Y-62172826D01*
X144226117Y-62360029D01*
X144313972Y-62532453D01*
X144315476Y-62535405D01*
X144431172Y-62694646D01*
X144570354Y-62833828D01*
X144729595Y-62949524D01*
X144852992Y-63012397D01*
X144906213Y-63039515D01*
X144957009Y-63087489D01*
X144973804Y-63155310D01*
X144951267Y-63221445D01*
X144906213Y-63260485D01*
X144729594Y-63350476D01*
X144711143Y-63363882D01*
X144570354Y-63466172D01*
X144570352Y-63466174D01*
X144570351Y-63466174D01*
X144431174Y-63605351D01*
X144431174Y-63605352D01*
X144431172Y-63605354D01*
X144381485Y-63673741D01*
X144315476Y-63764594D01*
X144226117Y-63939970D01*
X144165290Y-64127173D01*
X144134500Y-64321577D01*
X144134500Y-64518422D01*
X144165290Y-64712826D01*
X144226117Y-64900029D01*
X144313972Y-65072453D01*
X144315476Y-65075405D01*
X144431172Y-65234646D01*
X144570354Y-65373828D01*
X144729595Y-65489524D01*
X144852992Y-65552397D01*
X144906213Y-65579515D01*
X144957009Y-65627489D01*
X144973804Y-65695310D01*
X144951267Y-65761445D01*
X144906213Y-65800485D01*
X144729594Y-65890476D01*
X144638741Y-65956485D01*
X144570354Y-66006172D01*
X144570352Y-66006174D01*
X144570351Y-66006174D01*
X144431174Y-66145351D01*
X144431174Y-66145352D01*
X144431172Y-66145354D01*
X144381485Y-66213741D01*
X144315476Y-66304594D01*
X144226117Y-66479970D01*
X144165290Y-66667173D01*
X144134500Y-66861577D01*
X144134500Y-67058422D01*
X144165290Y-67252826D01*
X144226117Y-67440029D01*
X144304644Y-67594146D01*
X144315476Y-67615405D01*
X144431172Y-67774646D01*
X144570354Y-67913828D01*
X144723621Y-68025184D01*
X144766285Y-68080512D01*
X144772264Y-68150125D01*
X144739658Y-68211920D01*
X144678819Y-68246278D01*
X144650735Y-68249500D01*
X144503482Y-68249500D01*
X144422519Y-68262323D01*
X144409696Y-68264354D01*
X144296658Y-68321950D01*
X144296657Y-68321951D01*
X144296652Y-68321954D01*
X144206954Y-68411652D01*
X144206951Y-68411657D01*
X144206950Y-68411658D01*
X144206497Y-68412548D01*
X144149352Y-68524698D01*
X144134500Y-68618475D01*
X144134500Y-70381517D01*
X144141539Y-70425961D01*
X144149354Y-70475304D01*
X144206950Y-70588342D01*
X144206952Y-70588344D01*
X144206954Y-70588347D01*
X144296652Y-70678045D01*
X144296654Y-70678046D01*
X144296658Y-70678050D01*
X144409694Y-70735645D01*
X144409698Y-70735647D01*
X144503475Y-70750499D01*
X144503481Y-70750500D01*
X146266518Y-70750499D01*
X146360304Y-70735646D01*
X146473342Y-70678050D01*
X146563050Y-70588342D01*
X146620646Y-70475304D01*
X146620646Y-70475302D01*
X146620647Y-70475301D01*
X146635499Y-70381524D01*
X146635500Y-70381519D01*
X146635499Y-68618482D01*
X146620646Y-68524696D01*
X146563050Y-68411658D01*
X146563046Y-68411654D01*
X146563045Y-68411652D01*
X146473347Y-68321954D01*
X146473344Y-68321952D01*
X146473342Y-68321950D01*
X146396517Y-68282805D01*
X146360301Y-68264352D01*
X146266524Y-68249500D01*
X146119266Y-68249500D01*
X146052227Y-68229815D01*
X146006472Y-68177011D01*
X145996528Y-68107853D01*
X146025553Y-68044297D01*
X146046375Y-68025186D01*
X146199646Y-67913828D01*
X146338828Y-67774646D01*
X146454524Y-67615405D01*
X146543884Y-67440025D01*
X146604709Y-67252826D01*
X146628805Y-67100690D01*
X146635500Y-67058422D01*
X146635500Y-66861577D01*
X146604709Y-66667173D01*
X146543882Y-66479970D01*
X146454523Y-66304594D01*
X146436281Y-66279486D01*
X146338828Y-66145354D01*
X146199646Y-66006172D01*
X146069075Y-65911306D01*
X146040403Y-65890474D01*
X145863787Y-65800485D01*
X145812990Y-65752511D01*
X145796195Y-65684690D01*
X145818732Y-65618555D01*
X145863787Y-65579515D01*
X146040403Y-65489525D01*
X146040402Y-65489525D01*
X146040405Y-65489524D01*
X146199646Y-65373828D01*
X146338828Y-65234646D01*
X146454524Y-65075405D01*
X146540603Y-64906463D01*
X146543882Y-64900029D01*
X146543882Y-64900028D01*
X146543884Y-64900025D01*
X146604709Y-64712826D01*
X146628805Y-64560690D01*
X146635500Y-64518422D01*
X146635500Y-64321577D01*
X146604709Y-64127173D01*
X146543882Y-63939970D01*
X146454523Y-63764594D01*
X146436281Y-63739486D01*
X146338828Y-63605354D01*
X146199646Y-63466172D01*
X146058857Y-63363882D01*
X146040403Y-63350474D01*
X145863787Y-63260485D01*
X145812990Y-63212511D01*
X145796195Y-63144690D01*
X145818732Y-63078555D01*
X145863787Y-63039515D01*
X146040403Y-62949525D01*
X146040402Y-62949525D01*
X146040405Y-62949524D01*
X146199646Y-62833828D01*
X146338828Y-62694646D01*
X146454524Y-62535405D01*
X146540603Y-62366463D01*
X146543882Y-62360029D01*
X146543882Y-62360028D01*
X146543884Y-62360025D01*
X146604709Y-62172826D01*
X146628805Y-62020690D01*
X146635500Y-61978422D01*
X146635500Y-61781577D01*
X146604709Y-61587173D01*
X146543882Y-61399970D01*
X146454523Y-61224594D01*
X146436281Y-61199486D01*
X146338828Y-61065354D01*
X146199646Y-60926172D01*
X146058857Y-60823882D01*
X146040403Y-60810474D01*
X145863787Y-60720485D01*
X145812990Y-60672511D01*
X145796195Y-60604690D01*
X145818732Y-60538555D01*
X145863787Y-60499515D01*
X146040403Y-60409525D01*
X146040402Y-60409525D01*
X146040405Y-60409524D01*
X146199646Y-60293828D01*
X146338828Y-60154646D01*
X146387143Y-60088145D01*
X146442471Y-60045481D01*
X146512085Y-60039502D01*
X146573880Y-60072107D01*
X146608237Y-60132946D01*
X146609077Y-60136840D01*
X146634104Y-60262659D01*
X146634106Y-60262667D01*
X146701983Y-60426540D01*
X146701990Y-60426553D01*
X146800535Y-60574034D01*
X146800538Y-60574038D01*
X146925961Y-60699461D01*
X146925965Y-60699464D01*
X147073446Y-60798009D01*
X147073459Y-60798016D01*
X147196363Y-60848923D01*
X147237334Y-60865894D01*
X147237336Y-60865894D01*
X147237341Y-60865896D01*
X147411304Y-60900499D01*
X147411307Y-60900500D01*
X147411309Y-60900500D01*
X147588693Y-60900500D01*
X147588694Y-60900499D01*
X147646682Y-60888964D01*
X147762658Y-60865896D01*
X147762661Y-60865894D01*
X147762666Y-60865894D01*
X147926547Y-60798013D01*
X148074035Y-60699464D01*
X148199464Y-60574035D01*
X148298013Y-60426547D01*
X148305065Y-60409523D01*
X148340934Y-60322925D01*
X148365894Y-60262666D01*
X148365894Y-60262661D01*
X148365896Y-60262658D01*
X148388964Y-60146682D01*
X148400500Y-60088691D01*
X148400500Y-59911309D01*
X148400500Y-59911306D01*
X148400499Y-59911304D01*
X148365896Y-59737341D01*
X148365893Y-59737332D01*
X148365316Y-59735940D01*
X148305596Y-59591759D01*
X148298016Y-59573459D01*
X148298009Y-59573446D01*
X148199464Y-59425965D01*
X148199461Y-59425961D01*
X148074038Y-59300538D01*
X148074034Y-59300535D01*
X147926553Y-59201990D01*
X147926544Y-59201985D01*
X147777047Y-59140062D01*
X147722644Y-59096221D01*
X147700579Y-59029927D01*
X147700500Y-59025501D01*
X147700500Y-49110099D01*
X147704527Y-49094873D01*
X147703813Y-49081629D01*
X147714578Y-49056883D01*
X147716722Y-49048781D01*
X147718923Y-49044912D01*
X147798013Y-48926547D01*
X147804327Y-48911304D01*
X148099500Y-48911304D01*
X148099500Y-49088695D01*
X148134103Y-49262658D01*
X148134106Y-49262667D01*
X148201984Y-49426542D01*
X148201985Y-49426543D01*
X148201987Y-49426547D01*
X148262791Y-49517545D01*
X148278602Y-49541208D01*
X148299480Y-49607885D01*
X148299500Y-49610099D01*
X148299500Y-50889899D01*
X148279815Y-50956938D01*
X148278602Y-50958790D01*
X148201988Y-51073449D01*
X148201987Y-51073452D01*
X148134106Y-51237332D01*
X148134103Y-51237341D01*
X148099500Y-51411304D01*
X148099500Y-51588695D01*
X148134103Y-51762658D01*
X148134106Y-51762667D01*
X148201983Y-51926540D01*
X148201990Y-51926553D01*
X148300535Y-52074034D01*
X148300538Y-52074038D01*
X148425961Y-52199461D01*
X148425965Y-52199464D01*
X148573446Y-52298009D01*
X148573459Y-52298016D01*
X148657753Y-52332931D01*
X148737334Y-52365894D01*
X148737336Y-52365894D01*
X148737341Y-52365896D01*
X148911304Y-52400499D01*
X148911307Y-52400500D01*
X148911309Y-52400500D01*
X149088693Y-52400500D01*
X149151308Y-52388045D01*
X149220900Y-52394272D01*
X149276077Y-52437135D01*
X149299322Y-52503025D01*
X149299500Y-52509662D01*
X149299500Y-57389899D01*
X149279815Y-57456938D01*
X149278602Y-57458790D01*
X149201988Y-57573449D01*
X149201987Y-57573452D01*
X149134106Y-57737332D01*
X149134103Y-57737341D01*
X149099500Y-57911304D01*
X149099500Y-58088695D01*
X149134103Y-58262658D01*
X149134106Y-58262667D01*
X149201983Y-58426540D01*
X149201990Y-58426553D01*
X149300535Y-58574034D01*
X149300538Y-58574038D01*
X149425961Y-58699461D01*
X149425965Y-58699464D01*
X149573446Y-58798009D01*
X149573459Y-58798016D01*
X149689590Y-58846118D01*
X149737334Y-58865894D01*
X149737336Y-58865894D01*
X149737341Y-58865896D01*
X149911304Y-58900499D01*
X149911307Y-58900500D01*
X149911309Y-58900500D01*
X150088693Y-58900500D01*
X150088694Y-58900499D01*
X150146682Y-58888964D01*
X150262658Y-58865896D01*
X150262661Y-58865894D01*
X150262666Y-58865894D01*
X150426547Y-58798013D01*
X150574035Y-58699464D01*
X150699464Y-58574035D01*
X150798013Y-58426547D01*
X150865894Y-58262666D01*
X150882116Y-58181116D01*
X150888964Y-58146682D01*
X150900500Y-58088691D01*
X150900500Y-57911309D01*
X150900500Y-57911306D01*
X150900499Y-57911304D01*
X150865896Y-57737341D01*
X150865893Y-57737332D01*
X150798013Y-57573453D01*
X150798011Y-57573451D01*
X150798011Y-57573449D01*
X150721398Y-57458790D01*
X150700520Y-57392112D01*
X150700500Y-57389899D01*
X150700500Y-52841519D01*
X150720185Y-52774480D01*
X150736819Y-52753838D01*
X151544112Y-51946545D01*
X151544114Y-51946543D01*
X151620775Y-51831811D01*
X151673580Y-51704328D01*
X151696582Y-51588691D01*
X151700500Y-51568996D01*
X151700500Y-49110099D01*
X151720185Y-49043060D01*
X151721398Y-49041208D01*
X151726081Y-49034199D01*
X151798013Y-48926547D01*
X151865894Y-48762666D01*
X151870932Y-48737341D01*
X151900499Y-48588695D01*
X151900500Y-48588693D01*
X151900500Y-48411306D01*
X151900499Y-48411304D01*
X151865896Y-48237341D01*
X151865893Y-48237332D01*
X151798016Y-48073459D01*
X151798009Y-48073446D01*
X151699464Y-47925965D01*
X151699461Y-47925961D01*
X151574038Y-47800538D01*
X151574034Y-47800535D01*
X151426553Y-47701990D01*
X151426540Y-47701983D01*
X151262667Y-47634106D01*
X151262658Y-47634103D01*
X151088694Y-47599500D01*
X151088691Y-47599500D01*
X150911309Y-47599500D01*
X150911306Y-47599500D01*
X150737341Y-47634103D01*
X150737332Y-47634106D01*
X150573459Y-47701983D01*
X150573446Y-47701990D01*
X150425965Y-47800535D01*
X150425961Y-47800538D01*
X150300538Y-47925961D01*
X150300535Y-47925965D01*
X150201990Y-48073446D01*
X150201983Y-48073459D01*
X150134106Y-48237332D01*
X150134103Y-48237341D01*
X150099500Y-48411304D01*
X150099500Y-48588695D01*
X150134103Y-48762658D01*
X150134106Y-48762667D01*
X150201984Y-48926542D01*
X150201985Y-48926543D01*
X150201987Y-48926547D01*
X150273919Y-49034199D01*
X150278602Y-49041208D01*
X150299480Y-49107885D01*
X150299500Y-49110099D01*
X150299500Y-51158480D01*
X150290855Y-51187920D01*
X150284332Y-51217907D01*
X150280577Y-51222922D01*
X150279815Y-51225519D01*
X150263181Y-51246162D01*
X150097312Y-51412030D01*
X150035989Y-51445514D01*
X149966297Y-51440530D01*
X149910364Y-51398658D01*
X149888014Y-51348539D01*
X149865894Y-51237334D01*
X149798013Y-51073453D01*
X149798011Y-51073451D01*
X149798011Y-51073449D01*
X149721398Y-50958790D01*
X149700520Y-50892112D01*
X149700500Y-50889899D01*
X149700500Y-49610099D01*
X149720185Y-49543060D01*
X149721398Y-49541208D01*
X149737209Y-49517545D01*
X149798013Y-49426547D01*
X149865894Y-49262666D01*
X149870932Y-49237341D01*
X149900499Y-49088695D01*
X149900500Y-49088693D01*
X149900500Y-48911306D01*
X149900499Y-48911304D01*
X149865896Y-48737341D01*
X149865893Y-48737332D01*
X149798016Y-48573459D01*
X149798009Y-48573446D01*
X149699464Y-48425965D01*
X149699461Y-48425961D01*
X149574038Y-48300538D01*
X149574034Y-48300535D01*
X149426553Y-48201990D01*
X149426540Y-48201983D01*
X149262667Y-48134106D01*
X149262658Y-48134103D01*
X149088694Y-48099500D01*
X149088691Y-48099500D01*
X148911309Y-48099500D01*
X148911306Y-48099500D01*
X148737341Y-48134103D01*
X148737332Y-48134106D01*
X148573459Y-48201983D01*
X148573446Y-48201990D01*
X148425965Y-48300535D01*
X148425961Y-48300538D01*
X148300538Y-48425961D01*
X148300535Y-48425965D01*
X148201990Y-48573446D01*
X148201983Y-48573459D01*
X148134106Y-48737332D01*
X148134103Y-48737341D01*
X148099500Y-48911304D01*
X147804327Y-48911304D01*
X147865894Y-48762666D01*
X147870932Y-48737341D01*
X147900499Y-48588695D01*
X147900500Y-48588693D01*
X147900500Y-48411306D01*
X147900499Y-48411304D01*
X147865896Y-48237341D01*
X147865893Y-48237332D01*
X147798016Y-48073459D01*
X147798009Y-48073446D01*
X147699464Y-47925965D01*
X147699461Y-47925961D01*
X147574038Y-47800538D01*
X147574034Y-47800535D01*
X147426553Y-47701990D01*
X147426540Y-47701983D01*
X147262667Y-47634106D01*
X147262658Y-47634103D01*
X147088694Y-47599500D01*
X147088691Y-47599500D01*
X146911309Y-47599500D01*
X146911306Y-47599500D01*
X146737341Y-47634103D01*
X146737332Y-47634106D01*
X146573459Y-47701983D01*
X146573446Y-47701990D01*
X146425965Y-47800535D01*
X146425961Y-47800538D01*
X146300538Y-47925961D01*
X146300535Y-47925965D01*
X146201990Y-48073446D01*
X146201983Y-48073459D01*
X146134106Y-48237332D01*
X146134103Y-48237341D01*
X146099500Y-48411304D01*
X146099500Y-48588695D01*
X146134103Y-48762658D01*
X146134106Y-48762667D01*
X146201984Y-48926542D01*
X146201985Y-48926543D01*
X146201987Y-48926547D01*
X146273919Y-49034199D01*
X146278602Y-49041208D01*
X146299480Y-49107885D01*
X146299500Y-49110099D01*
X146299500Y-50472367D01*
X146279815Y-50539406D01*
X146227011Y-50585161D01*
X146157853Y-50595105D01*
X146102620Y-50572689D01*
X146092557Y-50565378D01*
X145903217Y-50468904D01*
X145701129Y-50403242D01*
X145491246Y-50370000D01*
X145278754Y-50370000D01*
X145068872Y-50403242D01*
X145068869Y-50403242D01*
X144866782Y-50468904D01*
X144677439Y-50565380D01*
X144623282Y-50604727D01*
X144623282Y-50604728D01*
X145255591Y-51237037D01*
X145192007Y-51254075D01*
X145077993Y-51319901D01*
X144984901Y-51412993D01*
X144919075Y-51527007D01*
X144902037Y-51590591D01*
X144269728Y-50958282D01*
X144269727Y-50958282D01*
X144230380Y-51012439D01*
X144133904Y-51201782D01*
X144068242Y-51403869D01*
X144068242Y-51403872D01*
X144035000Y-51613753D01*
X135000500Y-51613753D01*
X135000500Y-46411304D01*
X140599500Y-46411304D01*
X140599500Y-46588695D01*
X140634103Y-46762658D01*
X140634106Y-46762667D01*
X140701984Y-46926542D01*
X140701985Y-46926543D01*
X140701987Y-46926547D01*
X140770319Y-47028812D01*
X140778602Y-47041208D01*
X140799480Y-47107885D01*
X140799500Y-47110099D01*
X140799500Y-48889899D01*
X140779815Y-48956938D01*
X140778602Y-48958790D01*
X140701988Y-49073449D01*
X140701987Y-49073452D01*
X140634106Y-49237332D01*
X140634103Y-49237341D01*
X140599500Y-49411304D01*
X140599500Y-49588695D01*
X140634103Y-49762658D01*
X140634106Y-49762667D01*
X140701983Y-49926540D01*
X140701990Y-49926553D01*
X140800535Y-50074034D01*
X140800538Y-50074038D01*
X140925961Y-50199461D01*
X140925965Y-50199464D01*
X141073446Y-50298009D01*
X141073459Y-50298016D01*
X141116397Y-50315801D01*
X141237334Y-50365894D01*
X141237336Y-50365894D01*
X141237341Y-50365896D01*
X141411304Y-50400499D01*
X141411307Y-50400500D01*
X141411309Y-50400500D01*
X141588693Y-50400500D01*
X141588694Y-50400499D01*
X141646682Y-50388964D01*
X141762658Y-50365896D01*
X141762661Y-50365894D01*
X141762666Y-50365894D01*
X141926547Y-50298013D01*
X142074035Y-50199464D01*
X142199464Y-50074035D01*
X142298013Y-49926547D01*
X142365894Y-49762666D01*
X142369508Y-49744500D01*
X142400499Y-49588695D01*
X142400500Y-49588693D01*
X142400500Y-49411306D01*
X142400499Y-49411304D01*
X142365896Y-49237341D01*
X142365893Y-49237332D01*
X142304326Y-49088695D01*
X142298013Y-49073453D01*
X142298011Y-49073451D01*
X142298011Y-49073449D01*
X142221398Y-48958790D01*
X142200520Y-48892112D01*
X142200500Y-48889899D01*
X142200500Y-47110099D01*
X142220185Y-47043060D01*
X142221398Y-47041208D01*
X142229681Y-47028812D01*
X142298013Y-46926547D01*
X142365894Y-46762666D01*
X142400500Y-46588691D01*
X142400500Y-46411309D01*
X142400500Y-46411306D01*
X142400499Y-46411304D01*
X142365896Y-46237341D01*
X142365893Y-46237332D01*
X142298016Y-46073459D01*
X142298009Y-46073446D01*
X142199464Y-45925965D01*
X142199461Y-45925961D01*
X142074038Y-45800538D01*
X142074034Y-45800535D01*
X141926553Y-45701990D01*
X141926540Y-45701983D01*
X141762667Y-45634106D01*
X141762658Y-45634103D01*
X141588694Y-45599500D01*
X141588691Y-45599500D01*
X141411309Y-45599500D01*
X141411306Y-45599500D01*
X141237341Y-45634103D01*
X141237332Y-45634106D01*
X141073459Y-45701983D01*
X141073446Y-45701990D01*
X140925965Y-45800535D01*
X140925961Y-45800538D01*
X140800538Y-45925961D01*
X140800535Y-45925965D01*
X140701990Y-46073446D01*
X140701983Y-46073459D01*
X140634106Y-46237332D01*
X140634103Y-46237341D01*
X140599500Y-46411304D01*
X135000500Y-46411304D01*
X135000500Y-38820259D01*
X135299500Y-38820259D01*
X135299500Y-39179740D01*
X135339746Y-39536935D01*
X135339748Y-39536951D01*
X135419737Y-39887407D01*
X135419741Y-39887419D01*
X135538465Y-40226711D01*
X135694432Y-40550579D01*
X135729536Y-40606446D01*
X135885685Y-40854956D01*
X136109812Y-41136003D01*
X136363997Y-41390188D01*
X136645044Y-41614315D01*
X136949418Y-41805566D01*
X137273292Y-41961536D01*
X137517566Y-42047011D01*
X137612580Y-42080258D01*
X137612592Y-42080262D01*
X137963052Y-42160252D01*
X138320260Y-42200499D01*
X138320261Y-42200500D01*
X138320264Y-42200500D01*
X138679739Y-42200500D01*
X138679739Y-42200499D01*
X139036948Y-42160252D01*
X139387408Y-42080262D01*
X139726708Y-41961536D01*
X140050582Y-41805566D01*
X140354956Y-41614315D01*
X140636003Y-41390188D01*
X140890188Y-41136003D01*
X141114315Y-40854956D01*
X141115071Y-40853753D01*
X143650000Y-40853753D01*
X143650000Y-41066246D01*
X143683242Y-41276127D01*
X143683242Y-41276130D01*
X143748904Y-41478217D01*
X143845375Y-41667550D01*
X143884728Y-41721716D01*
X144517037Y-41089408D01*
X144534075Y-41152993D01*
X144599901Y-41267007D01*
X144692993Y-41360099D01*
X144807007Y-41425925D01*
X144870590Y-41442962D01*
X144238282Y-42075269D01*
X144238282Y-42075270D01*
X144292449Y-42114624D01*
X144411629Y-42175350D01*
X144462425Y-42223325D01*
X144479220Y-42291146D01*
X144456682Y-42357281D01*
X144411630Y-42396319D01*
X144344597Y-42430474D01*
X144264974Y-42488324D01*
X144185354Y-42546172D01*
X144185352Y-42546174D01*
X144185351Y-42546174D01*
X144046174Y-42685351D01*
X144046174Y-42685352D01*
X144046172Y-42685354D01*
X144020450Y-42720757D01*
X143930476Y-42844594D01*
X143841117Y-43019970D01*
X143780290Y-43207173D01*
X143749500Y-43401577D01*
X143749500Y-43598422D01*
X143780290Y-43792826D01*
X143841117Y-43980029D01*
X143913306Y-44121707D01*
X143930476Y-44155405D01*
X144046172Y-44314646D01*
X144185354Y-44453828D01*
X144344595Y-44569524D01*
X144429247Y-44612656D01*
X144521213Y-44659515D01*
X144572009Y-44707489D01*
X144588804Y-44775310D01*
X144566267Y-44841445D01*
X144521213Y-44880485D01*
X144344594Y-44970476D01*
X144253741Y-45036485D01*
X144185354Y-45086172D01*
X144185352Y-45086174D01*
X144185351Y-45086174D01*
X144046174Y-45225351D01*
X144046174Y-45225352D01*
X144046172Y-45225354D01*
X144038582Y-45235801D01*
X143930476Y-45384594D01*
X143841117Y-45559970D01*
X143780290Y-45747173D01*
X143749500Y-45941577D01*
X143749500Y-46138422D01*
X143780290Y-46332826D01*
X143841117Y-46520029D01*
X143905850Y-46647074D01*
X143930476Y-46695405D01*
X144046172Y-46854646D01*
X144185354Y-46993828D01*
X144344595Y-47109524D01*
X144422335Y-47149134D01*
X144519970Y-47198882D01*
X144519972Y-47198882D01*
X144519975Y-47198884D01*
X144564937Y-47213493D01*
X144707173Y-47259709D01*
X144901578Y-47290500D01*
X144901583Y-47290500D01*
X145098422Y-47290500D01*
X145292826Y-47259709D01*
X145349827Y-47241188D01*
X145480025Y-47198884D01*
X145655405Y-47109524D01*
X145814646Y-46993828D01*
X145953828Y-46854646D01*
X146069524Y-46695405D01*
X146158884Y-46520025D01*
X146219709Y-46332826D01*
X146220817Y-46325832D01*
X146250500Y-46138422D01*
X146250500Y-45941577D01*
X146219709Y-45747173D01*
X146182970Y-45634103D01*
X146158884Y-45559975D01*
X146158882Y-45559972D01*
X146158882Y-45559970D01*
X146069523Y-45384594D01*
X145953828Y-45225354D01*
X145814646Y-45086172D01*
X145735025Y-45028324D01*
X145655403Y-44970474D01*
X145478787Y-44880485D01*
X145427990Y-44832511D01*
X145411195Y-44764690D01*
X145433732Y-44698555D01*
X145478787Y-44659515D01*
X145655403Y-44569525D01*
X145655402Y-44569525D01*
X145655405Y-44569524D01*
X145814646Y-44453828D01*
X145953828Y-44314646D01*
X146069524Y-44155405D01*
X146158884Y-43980025D01*
X146219709Y-43792826D01*
X146250500Y-43598422D01*
X146250500Y-43401577D01*
X146219709Y-43207173D01*
X146158882Y-43019970D01*
X146069523Y-42844594D01*
X145953828Y-42685354D01*
X145814646Y-42546172D01*
X145655405Y-42430476D01*
X145588370Y-42396320D01*
X145537574Y-42348345D01*
X145520779Y-42280524D01*
X145543316Y-42214389D01*
X145588370Y-42175350D01*
X145707554Y-42114622D01*
X145761716Y-42075270D01*
X145761717Y-42075270D01*
X145129408Y-41442962D01*
X145192993Y-41425925D01*
X145307007Y-41360099D01*
X145400099Y-41267007D01*
X145465925Y-41152993D01*
X145482962Y-41089408D01*
X146115270Y-41721717D01*
X146115270Y-41721716D01*
X146154622Y-41667554D01*
X146251095Y-41478217D01*
X146316757Y-41276130D01*
X146316757Y-41276127D01*
X146350000Y-41066246D01*
X146350000Y-40853753D01*
X146316757Y-40643872D01*
X146316757Y-40643869D01*
X146251095Y-40441782D01*
X146154624Y-40252449D01*
X146115270Y-40198282D01*
X146115269Y-40198282D01*
X145482962Y-40830590D01*
X145465925Y-40767007D01*
X145400099Y-40652993D01*
X145307007Y-40559901D01*
X145192993Y-40494075D01*
X145129409Y-40477037D01*
X145761716Y-39844728D01*
X145758529Y-39804229D01*
X145772893Y-39735851D01*
X145821944Y-39686094D01*
X145876746Y-39671897D01*
X145876667Y-39670881D01*
X145881510Y-39670499D01*
X145881518Y-39670499D01*
X145975304Y-39655646D01*
X146088342Y-39598050D01*
X146178050Y-39508342D01*
X146235646Y-39395304D01*
X146235646Y-39395302D01*
X146235647Y-39395301D01*
X146250499Y-39301524D01*
X146250500Y-39301519D01*
X146250499Y-37538482D01*
X146250498Y-37538475D01*
X147749500Y-37538475D01*
X147749500Y-39301517D01*
X147758265Y-39356859D01*
X147764354Y-39395304D01*
X147821950Y-39508342D01*
X147821952Y-39508344D01*
X147821954Y-39508347D01*
X147911652Y-39598045D01*
X147911654Y-39598046D01*
X147911658Y-39598050D01*
X148014991Y-39650701D01*
X148024698Y-39655647D01*
X148118475Y-39670499D01*
X148118481Y-39670500D01*
X148265735Y-39670499D01*
X148332772Y-39690183D01*
X148378527Y-39742987D01*
X148388471Y-39812145D01*
X148359446Y-39875701D01*
X148338619Y-39894816D01*
X148185360Y-40006167D01*
X148185351Y-40006174D01*
X148046174Y-40145351D01*
X148046174Y-40145352D01*
X148046172Y-40145354D01*
X148038582Y-40155801D01*
X147930476Y-40304594D01*
X147841117Y-40479970D01*
X147780290Y-40667173D01*
X147749500Y-40861577D01*
X147749500Y-41058422D01*
X147780290Y-41252826D01*
X147841117Y-41440029D01*
X147905850Y-41567074D01*
X147930476Y-41615405D01*
X148046172Y-41774646D01*
X148185354Y-41913828D01*
X148344595Y-42029524D01*
X148420162Y-42068027D01*
X148521213Y-42119515D01*
X148572009Y-42167489D01*
X148588804Y-42235310D01*
X148566267Y-42301445D01*
X148521213Y-42340485D01*
X148344594Y-42430476D01*
X148253741Y-42496485D01*
X148185354Y-42546172D01*
X148185352Y-42546174D01*
X148185351Y-42546174D01*
X148046174Y-42685351D01*
X148046174Y-42685352D01*
X148046172Y-42685354D01*
X148020450Y-42720757D01*
X147930476Y-42844594D01*
X147841117Y-43019970D01*
X147780290Y-43207173D01*
X147749500Y-43401577D01*
X147749500Y-43598422D01*
X147780290Y-43792826D01*
X147841117Y-43980029D01*
X147913306Y-44121707D01*
X147930476Y-44155405D01*
X148046172Y-44314646D01*
X148185354Y-44453828D01*
X148344595Y-44569524D01*
X148429247Y-44612656D01*
X148521213Y-44659515D01*
X148572009Y-44707489D01*
X148588804Y-44775310D01*
X148566267Y-44841445D01*
X148521213Y-44880485D01*
X148344594Y-44970476D01*
X148253741Y-45036485D01*
X148185354Y-45086172D01*
X148185352Y-45086174D01*
X148185351Y-45086174D01*
X148046174Y-45225351D01*
X148046174Y-45225352D01*
X148046172Y-45225354D01*
X148038582Y-45235801D01*
X147930476Y-45384594D01*
X147841117Y-45559970D01*
X147780290Y-45747173D01*
X147749500Y-45941577D01*
X147749500Y-46138422D01*
X147780290Y-46332826D01*
X147841117Y-46520029D01*
X147905850Y-46647074D01*
X147930476Y-46695405D01*
X148046172Y-46854646D01*
X148185354Y-46993828D01*
X148344595Y-47109524D01*
X148422335Y-47149134D01*
X148519970Y-47198882D01*
X148519972Y-47198882D01*
X148519975Y-47198884D01*
X148564937Y-47213493D01*
X148707173Y-47259709D01*
X148901578Y-47290500D01*
X148901583Y-47290500D01*
X149098422Y-47290500D01*
X149292826Y-47259709D01*
X149349827Y-47241188D01*
X149480025Y-47198884D01*
X149655405Y-47109524D01*
X149814646Y-46993828D01*
X149953828Y-46854646D01*
X150069524Y-46695405D01*
X150158884Y-46520025D01*
X150219709Y-46332826D01*
X150220817Y-46325832D01*
X150250500Y-46138422D01*
X150250500Y-45941577D01*
X150219709Y-45747173D01*
X150182970Y-45634103D01*
X150158884Y-45559975D01*
X150158882Y-45559972D01*
X150158882Y-45559970D01*
X150069523Y-45384594D01*
X149953828Y-45225354D01*
X149814646Y-45086172D01*
X149735025Y-45028324D01*
X149655403Y-44970474D01*
X149478787Y-44880485D01*
X149427990Y-44832511D01*
X149411195Y-44764690D01*
X149433732Y-44698555D01*
X149478787Y-44659515D01*
X149655403Y-44569525D01*
X149655402Y-44569525D01*
X149655405Y-44569524D01*
X149814646Y-44453828D01*
X149953828Y-44314646D01*
X150069524Y-44155405D01*
X150158884Y-43980025D01*
X150219709Y-43792826D01*
X150250500Y-43598422D01*
X150250500Y-43401577D01*
X150228482Y-43262561D01*
X150225891Y-43246208D01*
X153404500Y-43246208D01*
X153404500Y-43403791D01*
X153412289Y-43482886D01*
X153412289Y-43482891D01*
X153443032Y-43637451D01*
X153466111Y-43713535D01*
X153526416Y-43859121D01*
X153563886Y-43929222D01*
X153563898Y-43929242D01*
X153651425Y-44060236D01*
X153651442Y-44060259D01*
X153701871Y-44121707D01*
X153813292Y-44233128D01*
X153813297Y-44233132D01*
X153813298Y-44233133D01*
X153874746Y-44283562D01*
X153874753Y-44283567D01*
X153874763Y-44283574D01*
X154005757Y-44371101D01*
X154005762Y-44371104D01*
X154005774Y-44371112D01*
X154075879Y-44408584D01*
X154178824Y-44451225D01*
X154221467Y-44468889D01*
X154221469Y-44468889D01*
X154221470Y-44468890D01*
X154257639Y-44479861D01*
X154316077Y-44518158D01*
X154344534Y-44581970D01*
X154333975Y-44651037D01*
X154287751Y-44703431D01*
X154259963Y-44716453D01*
X154149163Y-44752454D01*
X153980800Y-44838240D01*
X153893579Y-44901610D01*
X153827927Y-44949310D01*
X153827925Y-44949312D01*
X153827924Y-44949312D01*
X153694312Y-45082924D01*
X153694312Y-45082925D01*
X153694310Y-45082927D01*
X153691951Y-45086174D01*
X153583240Y-45235800D01*
X153497454Y-45404163D01*
X153439059Y-45583881D01*
X153409500Y-45770513D01*
X153409500Y-45959486D01*
X153439059Y-46146118D01*
X153497454Y-46325836D01*
X153583240Y-46494199D01*
X153694310Y-46647073D01*
X153827927Y-46780690D01*
X153980801Y-46891760D01*
X154049065Y-46926542D01*
X154149163Y-46977545D01*
X154149165Y-46977545D01*
X154149168Y-46977547D01*
X154238734Y-47006649D01*
X154270803Y-47017069D01*
X154328478Y-47056507D01*
X154355676Y-47120866D01*
X154343761Y-47189712D01*
X154296516Y-47241188D01*
X154270803Y-47252931D01*
X154149163Y-47292454D01*
X153980800Y-47378240D01*
X153893579Y-47441610D01*
X153827927Y-47489310D01*
X153827925Y-47489312D01*
X153827924Y-47489312D01*
X153694312Y-47622924D01*
X153694312Y-47622925D01*
X153694310Y-47622927D01*
X153686188Y-47634106D01*
X153583240Y-47775800D01*
X153497454Y-47944163D01*
X153439059Y-48123881D01*
X153409500Y-48310513D01*
X153409500Y-48499486D01*
X153439059Y-48686118D01*
X153497454Y-48865836D01*
X153544817Y-48958790D01*
X153583240Y-49034199D01*
X153694310Y-49187073D01*
X153827927Y-49320690D01*
X153980801Y-49431760D01*
X154060347Y-49472290D01*
X154149163Y-49517545D01*
X154149165Y-49517545D01*
X154149168Y-49517547D01*
X154238734Y-49546649D01*
X154270803Y-49557069D01*
X154328478Y-49596507D01*
X154355676Y-49660866D01*
X154343761Y-49729712D01*
X154296516Y-49781188D01*
X154270803Y-49792931D01*
X154149163Y-49832454D01*
X153980800Y-49918240D01*
X153893579Y-49981610D01*
X153827927Y-50029310D01*
X153827925Y-50029312D01*
X153827924Y-50029312D01*
X153694312Y-50162924D01*
X153694312Y-50162925D01*
X153694310Y-50162927D01*
X153667764Y-50199464D01*
X153583240Y-50315800D01*
X153497454Y-50484163D01*
X153439059Y-50663881D01*
X153409500Y-50850513D01*
X153409500Y-51039486D01*
X153439059Y-51226118D01*
X153497454Y-51405836D01*
X153580588Y-51568994D01*
X153583240Y-51574199D01*
X153694310Y-51727073D01*
X153827927Y-51860690D01*
X153980801Y-51971760D01*
X154060347Y-52012290D01*
X154149163Y-52057545D01*
X154149165Y-52057545D01*
X154149168Y-52057547D01*
X154199913Y-52074035D01*
X154270803Y-52097069D01*
X154328478Y-52136507D01*
X154355676Y-52200866D01*
X154343761Y-52269712D01*
X154296516Y-52321188D01*
X154270803Y-52332931D01*
X154149163Y-52372454D01*
X153980800Y-52458240D01*
X153948489Y-52481716D01*
X153827927Y-52569310D01*
X153827925Y-52569312D01*
X153827924Y-52569312D01*
X153694312Y-52702924D01*
X153694312Y-52702925D01*
X153694310Y-52702927D01*
X153657321Y-52753838D01*
X153583240Y-52855800D01*
X153497454Y-53024163D01*
X153439059Y-53203881D01*
X153409500Y-53390513D01*
X153409500Y-53579486D01*
X153439059Y-53766118D01*
X153497454Y-53945836D01*
X153583240Y-54114199D01*
X153694310Y-54267073D01*
X153827927Y-54400690D01*
X153980801Y-54511760D01*
X154149168Y-54597547D01*
X154259963Y-54633546D01*
X154317638Y-54672984D01*
X154344836Y-54737342D01*
X154332921Y-54806189D01*
X154285677Y-54857664D01*
X154257641Y-54870137D01*
X154221468Y-54881110D01*
X154075878Y-54941416D01*
X154005777Y-54978886D01*
X154005757Y-54978898D01*
X153874763Y-55066425D01*
X153874740Y-55066442D01*
X153813292Y-55116871D01*
X153701871Y-55228292D01*
X153651442Y-55289740D01*
X153651425Y-55289763D01*
X153563898Y-55420757D01*
X153563886Y-55420777D01*
X153526416Y-55490878D01*
X153466111Y-55636464D01*
X153443032Y-55712548D01*
X153412289Y-55867108D01*
X153412289Y-55867113D01*
X153404500Y-55946208D01*
X153404500Y-56103791D01*
X153412289Y-56182886D01*
X153412289Y-56182891D01*
X153443032Y-56337451D01*
X153466111Y-56413535D01*
X153526416Y-56559121D01*
X153563886Y-56629222D01*
X153563898Y-56629242D01*
X153651425Y-56760236D01*
X153651442Y-56760259D01*
X153701871Y-56821707D01*
X153813292Y-56933128D01*
X153813297Y-56933132D01*
X153813298Y-56933133D01*
X153874746Y-56983562D01*
X153874753Y-56983567D01*
X153874763Y-56983574D01*
X154005757Y-57071101D01*
X154005762Y-57071104D01*
X154005774Y-57071112D01*
X154075879Y-57108584D01*
X154178824Y-57151225D01*
X154221467Y-57168889D01*
X154221469Y-57168889D01*
X154221470Y-57168890D01*
X154257639Y-57179861D01*
X154316077Y-57218158D01*
X154344534Y-57281970D01*
X154333975Y-57351037D01*
X154287751Y-57403431D01*
X154259963Y-57416453D01*
X154149163Y-57452454D01*
X153980800Y-57538240D01*
X153893579Y-57601610D01*
X153827927Y-57649310D01*
X153827925Y-57649312D01*
X153827924Y-57649312D01*
X153694312Y-57782924D01*
X153694312Y-57782925D01*
X153694310Y-57782927D01*
X153681292Y-57800845D01*
X153583240Y-57935800D01*
X153497454Y-58104163D01*
X153439059Y-58283881D01*
X153409500Y-58470513D01*
X153409500Y-58659486D01*
X153439059Y-58846118D01*
X153497454Y-59025836D01*
X153546320Y-59121740D01*
X153583240Y-59194199D01*
X153694310Y-59347073D01*
X153827927Y-59480690D01*
X153980801Y-59591760D01*
X154060347Y-59632290D01*
X154149163Y-59677545D01*
X154149165Y-59677545D01*
X154149168Y-59677547D01*
X154238734Y-59706649D01*
X154270803Y-59717069D01*
X154328478Y-59756507D01*
X154355676Y-59820866D01*
X154343761Y-59889712D01*
X154296516Y-59941188D01*
X154270803Y-59952931D01*
X154149163Y-59992454D01*
X153980800Y-60078240D01*
X153905505Y-60132946D01*
X153827927Y-60189310D01*
X153827925Y-60189312D01*
X153827924Y-60189312D01*
X153694312Y-60322924D01*
X153694312Y-60322925D01*
X153694310Y-60322927D01*
X153646610Y-60388579D01*
X153583240Y-60475800D01*
X153497454Y-60644163D01*
X153439059Y-60823881D01*
X153409500Y-61010513D01*
X153409500Y-61199486D01*
X153439059Y-61386118D01*
X153497454Y-61565836D01*
X153583240Y-61734199D01*
X153694310Y-61887073D01*
X153827927Y-62020690D01*
X153980801Y-62131760D01*
X154060347Y-62172290D01*
X154149163Y-62217545D01*
X154149165Y-62217545D01*
X154149168Y-62217547D01*
X154238734Y-62246649D01*
X154270803Y-62257069D01*
X154328478Y-62296507D01*
X154355676Y-62360866D01*
X154343761Y-62429712D01*
X154296516Y-62481188D01*
X154270803Y-62492931D01*
X154149163Y-62532454D01*
X153980800Y-62618240D01*
X153893579Y-62681610D01*
X153827927Y-62729310D01*
X153827925Y-62729312D01*
X153827924Y-62729312D01*
X153694312Y-62862924D01*
X153694312Y-62862925D01*
X153694310Y-62862927D01*
X153646610Y-62928579D01*
X153583240Y-63015800D01*
X153497454Y-63184163D01*
X153439059Y-63363881D01*
X153409500Y-63550513D01*
X153409500Y-63739486D01*
X153439059Y-63926118D01*
X153497454Y-64105836D01*
X153583240Y-64274199D01*
X153694310Y-64427073D01*
X153827927Y-64560690D01*
X153980801Y-64671760D01*
X154060347Y-64712290D01*
X154149163Y-64757545D01*
X154149165Y-64757545D01*
X154149168Y-64757547D01*
X154238734Y-64786649D01*
X154270803Y-64797069D01*
X154328478Y-64836507D01*
X154355676Y-64900866D01*
X154343761Y-64969712D01*
X154296516Y-65021188D01*
X154270803Y-65032931D01*
X154149163Y-65072454D01*
X153980800Y-65158240D01*
X153893579Y-65221610D01*
X153827927Y-65269310D01*
X153827925Y-65269312D01*
X153827924Y-65269312D01*
X153694312Y-65402924D01*
X153694312Y-65402925D01*
X153694310Y-65402927D01*
X153677575Y-65425961D01*
X153583240Y-65555800D01*
X153497454Y-65724163D01*
X153439059Y-65903881D01*
X153409500Y-66090513D01*
X153409500Y-66279486D01*
X153439059Y-66466118D01*
X153497454Y-66645836D01*
X153574991Y-66798009D01*
X153583240Y-66814199D01*
X153694310Y-66967073D01*
X153827927Y-67100690D01*
X153980801Y-67211760D01*
X154149168Y-67297547D01*
X154259963Y-67333546D01*
X154317638Y-67372984D01*
X154344836Y-67437342D01*
X154332921Y-67506189D01*
X154285677Y-67557664D01*
X154257641Y-67570137D01*
X154221468Y-67581110D01*
X154075878Y-67641416D01*
X154005777Y-67678886D01*
X154005757Y-67678898D01*
X153874763Y-67766425D01*
X153874740Y-67766442D01*
X153813292Y-67816871D01*
X153701871Y-67928292D01*
X153651442Y-67989740D01*
X153651425Y-67989763D01*
X153563898Y-68120757D01*
X153563886Y-68120777D01*
X153526416Y-68190878D01*
X153466111Y-68336464D01*
X153443032Y-68412548D01*
X153412289Y-68567108D01*
X153412289Y-68567113D01*
X153404500Y-68646208D01*
X153404500Y-68803791D01*
X153412289Y-68882886D01*
X153412289Y-68882891D01*
X153443032Y-69037451D01*
X153466111Y-69113535D01*
X153526416Y-69259121D01*
X153563886Y-69329222D01*
X153563898Y-69329242D01*
X153651425Y-69460236D01*
X153651442Y-69460259D01*
X153701871Y-69521707D01*
X153813292Y-69633128D01*
X153813297Y-69633132D01*
X153813298Y-69633133D01*
X153874746Y-69683562D01*
X153874753Y-69683567D01*
X153874763Y-69683574D01*
X154005757Y-69771101D01*
X154005762Y-69771104D01*
X154005774Y-69771112D01*
X154075879Y-69808584D01*
X154178824Y-69851225D01*
X154221467Y-69868889D01*
X154221469Y-69868889D01*
X154221470Y-69868890D01*
X154257639Y-69879861D01*
X154316077Y-69918158D01*
X154344534Y-69981970D01*
X154333975Y-70051037D01*
X154287751Y-70103431D01*
X154259963Y-70116453D01*
X154149163Y-70152454D01*
X153980800Y-70238240D01*
X153895060Y-70300535D01*
X153827927Y-70349310D01*
X153827925Y-70349312D01*
X153827924Y-70349312D01*
X153694312Y-70482924D01*
X153694312Y-70482925D01*
X153694310Y-70482927D01*
X153646610Y-70548579D01*
X153583240Y-70635800D01*
X153497454Y-70804163D01*
X153439059Y-70983881D01*
X153409500Y-71170513D01*
X153409500Y-71359486D01*
X153439059Y-71546118D01*
X153497454Y-71725836D01*
X153535516Y-71800536D01*
X153583240Y-71894199D01*
X153694310Y-72047073D01*
X153827927Y-72180690D01*
X153980801Y-72291760D01*
X154060347Y-72332290D01*
X154149163Y-72377545D01*
X154149165Y-72377545D01*
X154149168Y-72377547D01*
X154238734Y-72406649D01*
X154270803Y-72417069D01*
X154328478Y-72456507D01*
X154355676Y-72520866D01*
X154343761Y-72589712D01*
X154296516Y-72641188D01*
X154270803Y-72652931D01*
X154149163Y-72692454D01*
X153980800Y-72778240D01*
X153893579Y-72841610D01*
X153827927Y-72889310D01*
X153827925Y-72889312D01*
X153827924Y-72889312D01*
X153694312Y-73022924D01*
X153694312Y-73022925D01*
X153694310Y-73022927D01*
X153656697Y-73074697D01*
X153583240Y-73175800D01*
X153497454Y-73344163D01*
X153439059Y-73523881D01*
X153409500Y-73710513D01*
X153409500Y-73899486D01*
X153439059Y-74086118D01*
X153497454Y-74265836D01*
X153571574Y-74411304D01*
X153583240Y-74434199D01*
X153694310Y-74587073D01*
X153827927Y-74720690D01*
X153980801Y-74831760D01*
X154060347Y-74872290D01*
X154149163Y-74917545D01*
X154149165Y-74917545D01*
X154149168Y-74917547D01*
X154238734Y-74946649D01*
X154270803Y-74957069D01*
X154328478Y-74996507D01*
X154355676Y-75060866D01*
X154343761Y-75129712D01*
X154296516Y-75181188D01*
X154270803Y-75192931D01*
X154149163Y-75232454D01*
X153980800Y-75318240D01*
X153915211Y-75365894D01*
X153827927Y-75429310D01*
X153827925Y-75429312D01*
X153827924Y-75429312D01*
X153694312Y-75562924D01*
X153694312Y-75562925D01*
X153694310Y-75562927D01*
X153657374Y-75613765D01*
X153583240Y-75715800D01*
X153497454Y-75884163D01*
X153439059Y-76063881D01*
X153409500Y-76250513D01*
X153409500Y-76439486D01*
X153439059Y-76626118D01*
X153497454Y-76805836D01*
X153583240Y-76974199D01*
X153694310Y-77127073D01*
X153827927Y-77260690D01*
X153980801Y-77371760D01*
X154060347Y-77412290D01*
X154149163Y-77457545D01*
X154149165Y-77457545D01*
X154149168Y-77457547D01*
X154238734Y-77486649D01*
X154270803Y-77497069D01*
X154328478Y-77536507D01*
X154355676Y-77600866D01*
X154343761Y-77669712D01*
X154296516Y-77721188D01*
X154270803Y-77732931D01*
X154149163Y-77772454D01*
X153980800Y-77858240D01*
X153922635Y-77900500D01*
X153827927Y-77969310D01*
X153827925Y-77969312D01*
X153827924Y-77969312D01*
X153694312Y-78102924D01*
X153694312Y-78102925D01*
X153694310Y-78102927D01*
X153661431Y-78148181D01*
X153583240Y-78255800D01*
X153497454Y-78424163D01*
X153439059Y-78603881D01*
X153409500Y-78790513D01*
X153409500Y-78979486D01*
X153439059Y-79166118D01*
X153497454Y-79345836D01*
X153583240Y-79514199D01*
X153694310Y-79667073D01*
X153827927Y-79800690D01*
X153980801Y-79911760D01*
X154149168Y-79997547D01*
X154259963Y-80033546D01*
X154317638Y-80072984D01*
X154344836Y-80137342D01*
X154332921Y-80206189D01*
X154285677Y-80257664D01*
X154257641Y-80270137D01*
X154221468Y-80281110D01*
X154075878Y-80341416D01*
X154005777Y-80378886D01*
X154005757Y-80378898D01*
X153874763Y-80466425D01*
X153874740Y-80466442D01*
X153813292Y-80516871D01*
X153701871Y-80628292D01*
X153651442Y-80689740D01*
X153651425Y-80689763D01*
X153563898Y-80820757D01*
X153563886Y-80820777D01*
X153526416Y-80890878D01*
X153466111Y-81036464D01*
X153443032Y-81112548D01*
X153412289Y-81267108D01*
X153412289Y-81267113D01*
X153404500Y-81346208D01*
X153404500Y-81503791D01*
X153412289Y-81582886D01*
X153412289Y-81582891D01*
X153439605Y-81720224D01*
X153443034Y-81737459D01*
X153450681Y-81762667D01*
X153466111Y-81813535D01*
X153526416Y-81959121D01*
X153563886Y-82029222D01*
X153563898Y-82029242D01*
X153651425Y-82160236D01*
X153651442Y-82160259D01*
X153701871Y-82221707D01*
X153813292Y-82333128D01*
X153813297Y-82333132D01*
X153813298Y-82333133D01*
X153874746Y-82383562D01*
X153874753Y-82383567D01*
X153874763Y-82383574D01*
X154005757Y-82471101D01*
X154005762Y-82471104D01*
X154005774Y-82471112D01*
X154075879Y-82508584D01*
X154137292Y-82534022D01*
X154221467Y-82568889D01*
X154221469Y-82568889D01*
X154221470Y-82568890D01*
X154257639Y-82579861D01*
X154316077Y-82618158D01*
X154344534Y-82681970D01*
X154333975Y-82751037D01*
X154287751Y-82803431D01*
X154259963Y-82816453D01*
X154149163Y-82852454D01*
X153980800Y-82938240D01*
X153898808Y-82997812D01*
X153827927Y-83049310D01*
X153827925Y-83049312D01*
X153827924Y-83049312D01*
X153694312Y-83182924D01*
X153694312Y-83182925D01*
X153694310Y-83182927D01*
X153646610Y-83248579D01*
X153583240Y-83335800D01*
X153497454Y-83504163D01*
X153439059Y-83683881D01*
X153409500Y-83870513D01*
X153409500Y-84059486D01*
X153439059Y-84246118D01*
X153497454Y-84425836D01*
X153570397Y-84568994D01*
X153583240Y-84594199D01*
X153694310Y-84747073D01*
X153827927Y-84880690D01*
X153980801Y-84991760D01*
X154060347Y-85032290D01*
X154149163Y-85077545D01*
X154149165Y-85077545D01*
X154149168Y-85077547D01*
X154238734Y-85106649D01*
X154270803Y-85117069D01*
X154328478Y-85156507D01*
X154355676Y-85220866D01*
X154343761Y-85289712D01*
X154296516Y-85341188D01*
X154270803Y-85352931D01*
X154149163Y-85392454D01*
X153980800Y-85478240D01*
X153893579Y-85541610D01*
X153827927Y-85589310D01*
X153827925Y-85589312D01*
X153827924Y-85589312D01*
X153694312Y-85722924D01*
X153694312Y-85722925D01*
X153694310Y-85722927D01*
X153653860Y-85778602D01*
X153583240Y-85875800D01*
X153497454Y-86044163D01*
X153439059Y-86223881D01*
X153409500Y-86410513D01*
X153409500Y-86599486D01*
X153439059Y-86786118D01*
X153497454Y-86965836D01*
X153583240Y-87134199D01*
X153694310Y-87287073D01*
X153827927Y-87420690D01*
X153980801Y-87531760D01*
X154060347Y-87572290D01*
X154149163Y-87617545D01*
X154149165Y-87617545D01*
X154149168Y-87617547D01*
X154217588Y-87639778D01*
X154328881Y-87675940D01*
X154515514Y-87705500D01*
X154515519Y-87705500D01*
X154704486Y-87705500D01*
X154891118Y-87675940D01*
X155070832Y-87617547D01*
X155239199Y-87531760D01*
X155392073Y-87420690D01*
X155525690Y-87287073D01*
X155636760Y-87134199D01*
X155722547Y-86965832D01*
X155780940Y-86786118D01*
X155784656Y-86762658D01*
X155810500Y-86599486D01*
X155810500Y-86410513D01*
X155780940Y-86223881D01*
X155751769Y-86134103D01*
X155722547Y-86044168D01*
X155722545Y-86044165D01*
X155722545Y-86044163D01*
X155636759Y-85875800D01*
X155525690Y-85722927D01*
X155392073Y-85589310D01*
X155239199Y-85478240D01*
X155182723Y-85449464D01*
X155070836Y-85392454D01*
X154989089Y-85365893D01*
X154949195Y-85352930D01*
X154891521Y-85313493D01*
X154864323Y-85249134D01*
X154876238Y-85180288D01*
X154923482Y-85128812D01*
X154949194Y-85117069D01*
X155070832Y-85077547D01*
X155239199Y-84991760D01*
X155392073Y-84880690D01*
X155525690Y-84747073D01*
X155636760Y-84594199D01*
X155722547Y-84425832D01*
X155780940Y-84246118D01*
X155783862Y-84227667D01*
X155810500Y-84059486D01*
X155810500Y-83911304D01*
X157599500Y-83911304D01*
X157599500Y-84088695D01*
X157634103Y-84262658D01*
X157634106Y-84262667D01*
X157701983Y-84426540D01*
X157701990Y-84426553D01*
X157800535Y-84574034D01*
X157800538Y-84574038D01*
X157925961Y-84699461D01*
X157925965Y-84699464D01*
X158073446Y-84798009D01*
X158073459Y-84798016D01*
X158152840Y-84830896D01*
X158237334Y-84865894D01*
X158237336Y-84865894D01*
X158237341Y-84865896D01*
X158411304Y-84900499D01*
X158411307Y-84900500D01*
X158411309Y-84900500D01*
X158588693Y-84900500D01*
X158588694Y-84900499D01*
X158646682Y-84888964D01*
X158762658Y-84865896D01*
X158762661Y-84865894D01*
X158762666Y-84865894D01*
X158926547Y-84798013D01*
X159041209Y-84721397D01*
X159107886Y-84700520D01*
X159110100Y-84700500D01*
X161525502Y-84700500D01*
X161592541Y-84720185D01*
X161638296Y-84772989D01*
X161640063Y-84777048D01*
X161701983Y-84926540D01*
X161701990Y-84926553D01*
X161800535Y-85074034D01*
X161800538Y-85074038D01*
X161925961Y-85199461D01*
X161925965Y-85199464D01*
X162073446Y-85298009D01*
X162073459Y-85298016D01*
X162160479Y-85334060D01*
X162237334Y-85365894D01*
X162237336Y-85365894D01*
X162237341Y-85365896D01*
X162411304Y-85400499D01*
X162411307Y-85400500D01*
X162411309Y-85400500D01*
X162588693Y-85400500D01*
X162588694Y-85400499D01*
X162646682Y-85388964D01*
X162762658Y-85365896D01*
X162762661Y-85365894D01*
X162762666Y-85365894D01*
X162926547Y-85298013D01*
X163074035Y-85199464D01*
X163199464Y-85074035D01*
X163298013Y-84926547D01*
X163365894Y-84762666D01*
X163368996Y-84747075D01*
X163400499Y-84588695D01*
X163400500Y-84588693D01*
X163400500Y-84411306D01*
X163400499Y-84411304D01*
X163365896Y-84237341D01*
X163365893Y-84237332D01*
X163298016Y-84073459D01*
X163298009Y-84073446D01*
X163199464Y-83925965D01*
X163199461Y-83925961D01*
X163074038Y-83800538D01*
X163074034Y-83800535D01*
X162926553Y-83701990D01*
X162926540Y-83701983D01*
X162762667Y-83634106D01*
X162762658Y-83634103D01*
X162627413Y-83607202D01*
X162565502Y-83574817D01*
X162563976Y-83573319D01*
X162446543Y-83455886D01*
X162401757Y-83425961D01*
X162331807Y-83379222D01*
X162204332Y-83326421D01*
X162204322Y-83326418D01*
X162068996Y-83299500D01*
X162068994Y-83299500D01*
X162068993Y-83299500D01*
X159110100Y-83299500D01*
X159043061Y-83279815D01*
X159041209Y-83278602D01*
X158926549Y-83201988D01*
X158926547Y-83201987D01*
X158762667Y-83134106D01*
X158762658Y-83134103D01*
X158588694Y-83099500D01*
X158588691Y-83099500D01*
X158411309Y-83099500D01*
X158411306Y-83099500D01*
X158237341Y-83134103D01*
X158237332Y-83134106D01*
X158073459Y-83201983D01*
X158073446Y-83201990D01*
X157925965Y-83300535D01*
X157925961Y-83300538D01*
X157800538Y-83425961D01*
X157800535Y-83425965D01*
X157701990Y-83573446D01*
X157701983Y-83573459D01*
X157634106Y-83737332D01*
X157634103Y-83737341D01*
X157599500Y-83911304D01*
X155810500Y-83911304D01*
X155810500Y-83870513D01*
X155780940Y-83683881D01*
X155733687Y-83538453D01*
X155722547Y-83504168D01*
X155722545Y-83504165D01*
X155722545Y-83504163D01*
X155664867Y-83390965D01*
X155636760Y-83335801D01*
X155525690Y-83182927D01*
X155392073Y-83049310D01*
X155239199Y-82938240D01*
X155095428Y-82864985D01*
X155044632Y-82817010D01*
X155027837Y-82749189D01*
X155050374Y-82683054D01*
X155105090Y-82639603D01*
X155151723Y-82630500D01*
X155249791Y-82630500D01*
X155271806Y-82629634D01*
X155281595Y-82629250D01*
X155404958Y-82599634D01*
X155478467Y-82569186D01*
X155507384Y-82555855D01*
X155610023Y-82481284D01*
X155666284Y-82425023D01*
X155687898Y-82401641D01*
X155754186Y-82293467D01*
X155784634Y-82219958D01*
X155795653Y-82190088D01*
X155815500Y-82064782D01*
X155815500Y-80785218D01*
X155814250Y-80753405D01*
X155784634Y-80630042D01*
X155754186Y-80556533D01*
X155740855Y-80527616D01*
X155666284Y-80424977D01*
X155610023Y-80368716D01*
X155586641Y-80347102D01*
X155478467Y-80280814D01*
X155478466Y-80280813D01*
X155478462Y-80280811D01*
X155404975Y-80250373D01*
X155404974Y-80250372D01*
X155404958Y-80250366D01*
X155375088Y-80239347D01*
X155249782Y-80219500D01*
X155151723Y-80219500D01*
X155084684Y-80199815D01*
X155038929Y-80147011D01*
X155028985Y-80077853D01*
X155058010Y-80014297D01*
X155095428Y-79985015D01*
X155124026Y-79970442D01*
X155239199Y-79911760D01*
X155392073Y-79800690D01*
X155525690Y-79667073D01*
X155636760Y-79514199D01*
X155722547Y-79345832D01*
X155780940Y-79166118D01*
X155783862Y-79147667D01*
X155810500Y-78979486D01*
X155810500Y-78790513D01*
X155780940Y-78603881D01*
X155733687Y-78458453D01*
X155722547Y-78424168D01*
X155722545Y-78424165D01*
X155722545Y-78424163D01*
X155640258Y-78262667D01*
X155636760Y-78255801D01*
X155525690Y-78102927D01*
X155392073Y-77969310D01*
X155239199Y-77858240D01*
X155070836Y-77772454D01*
X154962769Y-77737341D01*
X154949195Y-77732930D01*
X154891521Y-77693493D01*
X154864323Y-77629134D01*
X154876238Y-77560288D01*
X154923482Y-77508812D01*
X154949194Y-77497069D01*
X155070832Y-77457547D01*
X155239199Y-77371760D01*
X155392073Y-77260690D01*
X155431414Y-77221348D01*
X155492734Y-77187864D01*
X155562426Y-77192848D01*
X155618360Y-77234718D01*
X155633655Y-77261578D01*
X155701983Y-77426540D01*
X155701990Y-77426553D01*
X155800535Y-77574034D01*
X155800538Y-77574038D01*
X155925961Y-77699461D01*
X155925965Y-77699464D01*
X156073446Y-77798009D01*
X156073459Y-77798016D01*
X156169110Y-77837635D01*
X156237334Y-77865894D01*
X156237336Y-77865894D01*
X156237341Y-77865896D01*
X156411304Y-77900499D01*
X156411307Y-77900500D01*
X156411309Y-77900500D01*
X156588693Y-77900500D01*
X156588694Y-77900499D01*
X156646682Y-77888964D01*
X156762658Y-77865896D01*
X156762661Y-77865894D01*
X156762666Y-77865894D01*
X156926547Y-77798013D01*
X157074035Y-77699464D01*
X157199464Y-77574035D01*
X157298013Y-77426547D01*
X157365894Y-77262666D01*
X157392797Y-77127408D01*
X157425180Y-77065503D01*
X157426674Y-77063981D01*
X158044114Y-76446543D01*
X158120775Y-76331811D01*
X158133730Y-76300536D01*
X158173578Y-76204332D01*
X158173580Y-76204328D01*
X158187549Y-76134104D01*
X158200500Y-76068996D01*
X158200500Y-73110099D01*
X158220185Y-73043060D01*
X158221398Y-73041208D01*
X158233613Y-73022927D01*
X158298013Y-72926547D01*
X158365894Y-72762666D01*
X158400500Y-72588691D01*
X158400500Y-72411309D01*
X158400500Y-72411306D01*
X158400499Y-72411304D01*
X158365896Y-72237341D01*
X158365893Y-72237332D01*
X158298016Y-72073459D01*
X158298009Y-72073446D01*
X158231633Y-71974108D01*
X158199464Y-71925965D01*
X158199461Y-71925961D01*
X158184804Y-71911304D01*
X158599500Y-71911304D01*
X158599500Y-72088695D01*
X158634103Y-72262658D01*
X158634106Y-72262667D01*
X158701984Y-72426542D01*
X158701985Y-72426543D01*
X158701987Y-72426547D01*
X158722006Y-72456507D01*
X158778602Y-72541208D01*
X158799480Y-72607885D01*
X158799500Y-72610099D01*
X158799500Y-73889899D01*
X158779815Y-73956938D01*
X158778602Y-73958790D01*
X158701988Y-74073449D01*
X158701987Y-74073452D01*
X158634106Y-74237332D01*
X158634103Y-74237341D01*
X158599500Y-74411304D01*
X158599500Y-74588695D01*
X158634103Y-74762658D01*
X158634106Y-74762667D01*
X158701983Y-74926540D01*
X158701990Y-74926553D01*
X158800535Y-75074034D01*
X158800538Y-75074038D01*
X158925961Y-75199461D01*
X158925965Y-75199464D01*
X159073446Y-75298009D01*
X159073459Y-75298016D01*
X159196363Y-75348923D01*
X159237334Y-75365894D01*
X159237336Y-75365894D01*
X159237341Y-75365896D01*
X159411304Y-75400499D01*
X159411307Y-75400500D01*
X159411309Y-75400500D01*
X159588693Y-75400500D01*
X159588694Y-75400499D01*
X159669711Y-75384384D01*
X159762658Y-75365896D01*
X159762661Y-75365894D01*
X159762666Y-75365894D01*
X159926547Y-75298013D01*
X160074035Y-75199464D01*
X160199464Y-75074035D01*
X160298013Y-74926547D01*
X160365894Y-74762666D01*
X160400500Y-74588691D01*
X160400500Y-74411309D01*
X160400500Y-74411306D01*
X160400499Y-74411304D01*
X160365896Y-74237341D01*
X160365893Y-74237332D01*
X160312275Y-74107885D01*
X160298013Y-74073453D01*
X160298011Y-74073451D01*
X160298011Y-74073449D01*
X160221398Y-73958790D01*
X160200520Y-73892112D01*
X160200500Y-73889899D01*
X160200500Y-72610099D01*
X160220185Y-72543060D01*
X160221398Y-72541208D01*
X160234990Y-72520866D01*
X160298013Y-72426547D01*
X160365894Y-72262666D01*
X160370932Y-72237341D01*
X160400499Y-72088695D01*
X160400500Y-72088693D01*
X160400500Y-71911306D01*
X160400499Y-71911304D01*
X160365896Y-71737341D01*
X160365893Y-71737332D01*
X160298016Y-71573459D01*
X160298009Y-71573446D01*
X160199464Y-71425965D01*
X160199461Y-71425961D01*
X160074038Y-71300538D01*
X160074034Y-71300535D01*
X159926553Y-71201990D01*
X159926540Y-71201983D01*
X159762667Y-71134106D01*
X159762658Y-71134103D01*
X159588694Y-71099500D01*
X159588691Y-71099500D01*
X159411309Y-71099500D01*
X159411306Y-71099500D01*
X159237341Y-71134103D01*
X159237332Y-71134106D01*
X159073459Y-71201983D01*
X159073446Y-71201990D01*
X158925965Y-71300535D01*
X158925961Y-71300538D01*
X158800538Y-71425961D01*
X158800535Y-71425965D01*
X158701990Y-71573446D01*
X158701983Y-71573459D01*
X158634106Y-71737332D01*
X158634103Y-71737341D01*
X158599500Y-71911304D01*
X158184804Y-71911304D01*
X158074038Y-71800538D01*
X158074034Y-71800535D01*
X157926553Y-71701990D01*
X157926540Y-71701983D01*
X157821321Y-71658401D01*
X157766917Y-71614561D01*
X157744852Y-71548266D01*
X157762131Y-71480567D01*
X157765656Y-71474971D01*
X157798013Y-71426547D01*
X157865894Y-71262666D01*
X157884225Y-71170513D01*
X157900499Y-71088695D01*
X157900500Y-71088693D01*
X157900500Y-70911306D01*
X157900499Y-70911304D01*
X157865896Y-70737341D01*
X157865893Y-70737332D01*
X157798016Y-70573459D01*
X157798009Y-70573446D01*
X157699464Y-70425965D01*
X157699461Y-70425961D01*
X157574038Y-70300538D01*
X157574034Y-70300535D01*
X157426553Y-70201990D01*
X157426540Y-70201983D01*
X157262667Y-70134106D01*
X157262658Y-70134103D01*
X157088694Y-70099500D01*
X157088691Y-70099500D01*
X156911309Y-70099500D01*
X156911306Y-70099500D01*
X156737341Y-70134103D01*
X156737332Y-70134106D01*
X156573459Y-70201983D01*
X156573446Y-70201990D01*
X156425965Y-70300535D01*
X156425961Y-70300538D01*
X156300538Y-70425961D01*
X156300535Y-70425965D01*
X156201990Y-70573446D01*
X156201983Y-70573459D01*
X156134106Y-70737332D01*
X156134104Y-70737340D01*
X156107202Y-70872585D01*
X156098437Y-70889340D01*
X156094418Y-70907819D01*
X156075672Y-70932860D01*
X156074817Y-70934496D01*
X156073267Y-70936074D01*
X155983989Y-71025353D01*
X155922666Y-71058838D01*
X155852974Y-71053854D01*
X155797040Y-71011983D01*
X155778376Y-70975991D01*
X155757358Y-70911304D01*
X155722547Y-70804168D01*
X155722545Y-70804165D01*
X155722545Y-70804163D01*
X155636759Y-70635800D01*
X155602282Y-70588347D01*
X155525690Y-70482927D01*
X155392073Y-70349310D01*
X155239199Y-70238240D01*
X155168048Y-70201987D01*
X155095428Y-70164985D01*
X155044632Y-70117010D01*
X155027837Y-70049189D01*
X155050374Y-69983054D01*
X155105090Y-69939603D01*
X155151723Y-69930500D01*
X155249791Y-69930500D01*
X155271806Y-69929634D01*
X155281595Y-69929250D01*
X155404958Y-69899634D01*
X155478467Y-69869186D01*
X155507384Y-69855855D01*
X155610023Y-69781284D01*
X155666284Y-69725023D01*
X155687898Y-69701641D01*
X155754186Y-69593467D01*
X155784634Y-69519958D01*
X155795653Y-69490088D01*
X155815500Y-69364782D01*
X155815500Y-68085218D01*
X155814250Y-68053405D01*
X155784634Y-67930042D01*
X155754186Y-67856533D01*
X155740855Y-67827616D01*
X155666284Y-67724977D01*
X155610023Y-67668716D01*
X155586641Y-67647102D01*
X155478467Y-67580814D01*
X155478466Y-67580813D01*
X155478462Y-67580811D01*
X155404975Y-67550373D01*
X155404974Y-67550372D01*
X155404958Y-67550366D01*
X155375088Y-67539347D01*
X155249782Y-67519500D01*
X155151723Y-67519500D01*
X155084684Y-67499815D01*
X155038929Y-67447011D01*
X155028985Y-67377853D01*
X155058010Y-67314297D01*
X155095428Y-67285015D01*
X155158602Y-67252826D01*
X155239199Y-67211760D01*
X155392073Y-67100690D01*
X155525690Y-66967073D01*
X155636760Y-66814199D01*
X155722547Y-66645832D01*
X155780940Y-66466118D01*
X155810500Y-66279486D01*
X155810500Y-66090513D01*
X155784224Y-65924615D01*
X155782116Y-65911304D01*
X156099500Y-65911304D01*
X156099500Y-66088695D01*
X156134103Y-66262658D01*
X156134106Y-66262667D01*
X156201983Y-66426540D01*
X156201990Y-66426553D01*
X156300535Y-66574034D01*
X156300538Y-66574038D01*
X156425961Y-66699461D01*
X156425965Y-66699464D01*
X156573446Y-66798009D01*
X156573459Y-66798016D01*
X156696363Y-66848923D01*
X156737334Y-66865894D01*
X156737336Y-66865894D01*
X156737341Y-66865896D01*
X156911304Y-66900499D01*
X156911307Y-66900500D01*
X156911309Y-66900500D01*
X157088693Y-66900500D01*
X157088694Y-66900499D01*
X157146682Y-66888964D01*
X157262658Y-66865896D01*
X157262661Y-66865894D01*
X157262666Y-66865894D01*
X157426547Y-66798013D01*
X157541209Y-66721397D01*
X157607886Y-66700520D01*
X157610100Y-66700500D01*
X159889900Y-66700500D01*
X159956939Y-66720185D01*
X159958788Y-66721396D01*
X160073453Y-66798013D01*
X160237334Y-66865894D01*
X160237336Y-66865894D01*
X160237341Y-66865896D01*
X160411304Y-66900499D01*
X160411307Y-66900500D01*
X160411309Y-66900500D01*
X160588693Y-66900500D01*
X160588694Y-66900499D01*
X160646682Y-66888964D01*
X160762658Y-66865896D01*
X160762661Y-66865894D01*
X160762666Y-66865894D01*
X160926547Y-66798013D01*
X161074035Y-66699464D01*
X161199464Y-66574035D01*
X161298013Y-66426547D01*
X161365894Y-66262666D01*
X161400500Y-66088691D01*
X161400500Y-65911309D01*
X161400500Y-65911306D01*
X161400499Y-65911304D01*
X161365896Y-65737341D01*
X161365893Y-65737332D01*
X161360440Y-65724168D01*
X161300263Y-65578884D01*
X161298016Y-65573459D01*
X161298009Y-65573446D01*
X161199464Y-65425965D01*
X161199461Y-65425961D01*
X161074038Y-65300538D01*
X161074034Y-65300535D01*
X160926553Y-65201990D01*
X160926540Y-65201983D01*
X160762667Y-65134106D01*
X160762658Y-65134103D01*
X160588694Y-65099500D01*
X160588691Y-65099500D01*
X160411309Y-65099500D01*
X160411306Y-65099500D01*
X160237341Y-65134103D01*
X160237332Y-65134106D01*
X160073452Y-65201987D01*
X160073450Y-65201988D01*
X159958791Y-65278602D01*
X159892114Y-65299480D01*
X159889900Y-65299500D01*
X157610100Y-65299500D01*
X157543061Y-65279815D01*
X157541209Y-65278602D01*
X157426549Y-65201988D01*
X157426547Y-65201987D01*
X157262667Y-65134106D01*
X157262658Y-65134103D01*
X157088694Y-65099500D01*
X157088691Y-65099500D01*
X156911309Y-65099500D01*
X156911306Y-65099500D01*
X156737341Y-65134103D01*
X156737332Y-65134106D01*
X156573459Y-65201983D01*
X156573446Y-65201990D01*
X156425965Y-65300535D01*
X156425961Y-65300538D01*
X156300538Y-65425961D01*
X156300535Y-65425965D01*
X156201990Y-65573446D01*
X156201983Y-65573459D01*
X156134106Y-65737332D01*
X156134103Y-65737341D01*
X156099500Y-65911304D01*
X155782116Y-65911304D01*
X155780940Y-65903881D01*
X155731756Y-65752511D01*
X155722547Y-65724168D01*
X155722545Y-65724165D01*
X155722545Y-65724163D01*
X155645754Y-65573453D01*
X155636760Y-65555801D01*
X155525690Y-65402927D01*
X155392073Y-65269310D01*
X155239199Y-65158240D01*
X155070836Y-65072454D01*
X154996472Y-65048291D01*
X154949195Y-65032930D01*
X154891521Y-64993493D01*
X154864323Y-64929134D01*
X154876238Y-64860288D01*
X154923482Y-64808812D01*
X154949194Y-64797069D01*
X155070832Y-64757547D01*
X155239199Y-64671760D01*
X155392073Y-64560690D01*
X155525690Y-64427073D01*
X155636760Y-64274199D01*
X155722547Y-64105832D01*
X155780940Y-63926118D01*
X155810500Y-63739486D01*
X155810500Y-63550513D01*
X155780940Y-63363881D01*
X155731756Y-63212511D01*
X155722547Y-63184168D01*
X155722545Y-63184165D01*
X155722545Y-63184163D01*
X155636759Y-63015800D01*
X155588607Y-62949525D01*
X155525690Y-62862927D01*
X155392073Y-62729310D01*
X155239199Y-62618240D01*
X155070836Y-62532454D01*
X154996472Y-62508291D01*
X154949195Y-62492930D01*
X154891521Y-62453493D01*
X154864323Y-62389134D01*
X154876238Y-62320288D01*
X154923482Y-62268812D01*
X154949194Y-62257069D01*
X155070832Y-62217547D01*
X155239199Y-62131760D01*
X155392073Y-62020690D01*
X155525690Y-61887073D01*
X155636760Y-61734199D01*
X155722547Y-61565832D01*
X155780940Y-61386118D01*
X155810500Y-61199486D01*
X155810500Y-61010513D01*
X155780940Y-60823881D01*
X155731756Y-60672511D01*
X155722547Y-60644168D01*
X155722545Y-60644165D01*
X155722545Y-60644163D01*
X155636759Y-60475800D01*
X155525690Y-60322927D01*
X155392073Y-60189310D01*
X155239199Y-60078240D01*
X155174906Y-60045481D01*
X155070836Y-59992454D01*
X154977517Y-59962133D01*
X154949195Y-59952930D01*
X154891521Y-59913493D01*
X154864323Y-59849134D01*
X154876238Y-59780288D01*
X154923482Y-59728812D01*
X154949194Y-59717069D01*
X155070832Y-59677547D01*
X155239199Y-59591760D01*
X155392073Y-59480690D01*
X155525690Y-59347073D01*
X155636760Y-59194199D01*
X155719396Y-59032014D01*
X155722545Y-59025836D01*
X155722545Y-59025835D01*
X155722547Y-59025832D01*
X155780940Y-58846118D01*
X155788560Y-58798009D01*
X155810500Y-58659486D01*
X155810500Y-58470513D01*
X155780940Y-58283881D01*
X155731756Y-58132511D01*
X155722547Y-58104168D01*
X155722545Y-58104165D01*
X155722545Y-58104163D01*
X155636759Y-57935800D01*
X155618963Y-57911306D01*
X155525690Y-57782927D01*
X155392073Y-57649310D01*
X155239199Y-57538240D01*
X155095428Y-57464985D01*
X155044632Y-57417010D01*
X155027837Y-57349189D01*
X155050374Y-57283054D01*
X155105090Y-57239603D01*
X155151723Y-57230500D01*
X155249791Y-57230500D01*
X155271806Y-57229634D01*
X155281595Y-57229250D01*
X155404958Y-57199634D01*
X155478467Y-57169186D01*
X155507384Y-57155855D01*
X155610023Y-57081284D01*
X155666284Y-57025023D01*
X155687898Y-57001641D01*
X155754186Y-56893467D01*
X155784634Y-56819958D01*
X155795653Y-56790088D01*
X155815500Y-56664782D01*
X155815500Y-55385218D01*
X155815477Y-55384643D01*
X155814250Y-55353408D01*
X155814249Y-55353402D01*
X155808516Y-55329523D01*
X155784634Y-55230042D01*
X155754186Y-55156533D01*
X155740855Y-55127616D01*
X155666284Y-55024977D01*
X155610023Y-54968716D01*
X155586641Y-54947102D01*
X155478467Y-54880814D01*
X155478466Y-54880813D01*
X155478462Y-54880811D01*
X155404975Y-54850373D01*
X155404974Y-54850372D01*
X155404958Y-54850366D01*
X155375088Y-54839347D01*
X155249782Y-54819500D01*
X155151723Y-54819500D01*
X155084684Y-54799815D01*
X155038929Y-54747011D01*
X155028985Y-54677853D01*
X155058010Y-54614297D01*
X155095428Y-54585015D01*
X155158602Y-54552826D01*
X155239199Y-54511760D01*
X155392073Y-54400690D01*
X155525690Y-54267073D01*
X155636760Y-54114199D01*
X155722547Y-53945832D01*
X155780940Y-53766118D01*
X155810500Y-53579486D01*
X155810500Y-53390513D01*
X155780940Y-53203881D01*
X155747549Y-53101116D01*
X155722547Y-53024168D01*
X155722545Y-53024165D01*
X155722545Y-53024163D01*
X155677290Y-52935347D01*
X155636760Y-52855801D01*
X155525690Y-52702927D01*
X155392073Y-52569310D01*
X155239199Y-52458240D01*
X155197778Y-52437135D01*
X155070836Y-52372454D01*
X154981478Y-52343420D01*
X154949195Y-52332930D01*
X154891521Y-52293493D01*
X154864323Y-52229134D01*
X154876238Y-52160288D01*
X154923482Y-52108812D01*
X154949194Y-52097069D01*
X155070832Y-52057547D01*
X155239199Y-51971760D01*
X155392073Y-51860690D01*
X155525690Y-51727073D01*
X155636760Y-51574199D01*
X155722547Y-51405832D01*
X155780940Y-51226118D01*
X155781909Y-51220000D01*
X155810500Y-51039486D01*
X155810500Y-50850513D01*
X155780940Y-50663881D01*
X155751309Y-50572689D01*
X155722547Y-50484168D01*
X155722545Y-50484165D01*
X155722545Y-50484163D01*
X155664376Y-50370000D01*
X155636760Y-50315801D01*
X155525690Y-50162927D01*
X155392073Y-50029310D01*
X155239199Y-49918240D01*
X155070836Y-49832454D01*
X154996472Y-49808291D01*
X154949195Y-49792930D01*
X154891521Y-49753493D01*
X154864323Y-49689134D01*
X154876238Y-49620288D01*
X154923482Y-49568812D01*
X154949194Y-49557069D01*
X155070832Y-49517547D01*
X155239199Y-49431760D01*
X155392073Y-49320690D01*
X155525690Y-49187073D01*
X155636760Y-49034199D01*
X155722547Y-48865832D01*
X155780940Y-48686118D01*
X155796370Y-48588695D01*
X155810500Y-48499486D01*
X155810500Y-48310513D01*
X155780940Y-48123881D01*
X155722545Y-47944163D01*
X155649363Y-47800536D01*
X155636760Y-47775801D01*
X155525690Y-47622927D01*
X155392073Y-47489310D01*
X155239199Y-47378240D01*
X155070836Y-47292454D01*
X154970057Y-47259709D01*
X154949195Y-47252930D01*
X154891521Y-47213493D01*
X154864323Y-47149134D01*
X154876238Y-47080288D01*
X154923482Y-47028812D01*
X154949194Y-47017069D01*
X155070832Y-46977547D01*
X155239199Y-46891760D01*
X155392073Y-46780690D01*
X155525690Y-46647073D01*
X155636760Y-46494199D01*
X155722547Y-46325832D01*
X155780940Y-46146118D01*
X155792450Y-46073446D01*
X155810500Y-45959486D01*
X155810500Y-45770513D01*
X155780940Y-45583881D01*
X155722545Y-45404163D01*
X155636759Y-45235800D01*
X155525690Y-45082927D01*
X155392073Y-44949310D01*
X155239199Y-44838240D01*
X155095428Y-44764985D01*
X155044632Y-44717010D01*
X155027837Y-44649189D01*
X155050374Y-44583054D01*
X155105090Y-44539603D01*
X155151723Y-44530500D01*
X155249791Y-44530500D01*
X155271806Y-44529634D01*
X155281595Y-44529250D01*
X155404958Y-44499634D01*
X155478467Y-44469186D01*
X155507384Y-44455855D01*
X155610023Y-44381284D01*
X155666284Y-44325023D01*
X155687898Y-44301641D01*
X155754186Y-44193467D01*
X155784634Y-44119958D01*
X155795653Y-44090088D01*
X155815500Y-43964782D01*
X155815500Y-42685218D01*
X155814250Y-42653405D01*
X155784634Y-42530042D01*
X155754186Y-42456533D01*
X155740855Y-42427616D01*
X155666284Y-42324977D01*
X155610023Y-42268716D01*
X155586641Y-42247102D01*
X155478467Y-42180814D01*
X155478466Y-42180813D01*
X155478462Y-42180811D01*
X155404975Y-42150373D01*
X155404974Y-42150372D01*
X155404958Y-42150366D01*
X155375088Y-42139347D01*
X155249782Y-42119500D01*
X155151723Y-42119500D01*
X155084684Y-42099815D01*
X155038929Y-42047011D01*
X155028985Y-41977853D01*
X155058010Y-41914297D01*
X155095428Y-41885015D01*
X155124026Y-41870442D01*
X155239199Y-41811760D01*
X155392073Y-41700690D01*
X155525690Y-41567073D01*
X155636760Y-41414199D01*
X155722547Y-41245832D01*
X155780940Y-41066118D01*
X155787322Y-41025826D01*
X155810500Y-40879486D01*
X155810500Y-40690513D01*
X155780940Y-40503881D01*
X155722545Y-40324163D01*
X155636759Y-40155800D01*
X155525690Y-40002927D01*
X155392073Y-39869310D01*
X155239199Y-39758240D01*
X155085611Y-39679983D01*
X155034816Y-39632010D01*
X155018021Y-39564189D01*
X155040558Y-39498054D01*
X155095273Y-39454602D01*
X155141906Y-39445499D01*
X155249360Y-39445499D01*
X155249363Y-39445499D01*
X155366753Y-39430046D01*
X155366757Y-39430044D01*
X155366762Y-39430044D01*
X155512841Y-39369536D01*
X155638282Y-39273282D01*
X155734536Y-39147841D01*
X155795044Y-39001762D01*
X155810500Y-38884361D01*
X155810499Y-38142682D01*
X171090000Y-38142682D01*
X171090000Y-38347317D01*
X171122009Y-38549417D01*
X171185244Y-38744031D01*
X171278141Y-38926350D01*
X171278147Y-38926359D01*
X171310523Y-38970921D01*
X171310524Y-38970922D01*
X171907037Y-38374409D01*
X171924075Y-38437993D01*
X171989901Y-38552007D01*
X172082993Y-38645099D01*
X172197007Y-38710925D01*
X172260590Y-38727962D01*
X171664076Y-39324474D01*
X171708650Y-39356859D01*
X171890967Y-39449754D01*
X171896458Y-39451538D01*
X171954135Y-39490973D01*
X171981336Y-39555331D01*
X171969425Y-39624178D01*
X171922183Y-39675655D01*
X171914440Y-39679955D01*
X171760805Y-39758236D01*
X171686607Y-39812145D01*
X171607927Y-39869310D01*
X171607925Y-39869312D01*
X171607924Y-39869312D01*
X171474312Y-40002924D01*
X171474312Y-40002925D01*
X171474310Y-40002927D01*
X171471951Y-40006174D01*
X171363240Y-40155800D01*
X171277454Y-40324163D01*
X171219059Y-40503881D01*
X171189500Y-40690513D01*
X171189500Y-40879486D01*
X171219059Y-41066118D01*
X171277454Y-41245836D01*
X171351006Y-41390188D01*
X171363240Y-41414199D01*
X171474310Y-41567073D01*
X171607927Y-41700690D01*
X171760801Y-41811760D01*
X171856248Y-41860392D01*
X171904572Y-41885015D01*
X171955368Y-41932990D01*
X171972163Y-42000811D01*
X171949626Y-42066946D01*
X171894910Y-42110397D01*
X171848277Y-42119500D01*
X171750209Y-42119500D01*
X171718408Y-42120749D01*
X171718402Y-42120750D01*
X171595043Y-42150365D01*
X171521539Y-42180811D01*
X171492614Y-42194146D01*
X171389976Y-42268716D01*
X171333730Y-42324962D01*
X171312101Y-42348360D01*
X171245811Y-42456537D01*
X171215373Y-42530024D01*
X171204347Y-42559911D01*
X171204347Y-42559912D01*
X171184500Y-42685219D01*
X171184500Y-43964790D01*
X171185749Y-43996591D01*
X171185750Y-43996597D01*
X171215365Y-44119956D01*
X171215366Y-44119958D01*
X171245814Y-44193467D01*
X171259145Y-44222384D01*
X171333716Y-44325023D01*
X171389977Y-44381284D01*
X171413359Y-44402898D01*
X171521533Y-44469186D01*
X171521535Y-44469186D01*
X171521537Y-44469188D01*
X171547305Y-44479861D01*
X171595042Y-44499634D01*
X171624912Y-44510653D01*
X171750218Y-44530500D01*
X171750219Y-44530500D01*
X171848277Y-44530500D01*
X171915316Y-44550185D01*
X171961071Y-44602989D01*
X171971015Y-44672147D01*
X171941990Y-44735703D01*
X171904572Y-44764985D01*
X171760800Y-44838240D01*
X171673579Y-44901610D01*
X171607927Y-44949310D01*
X171607925Y-44949312D01*
X171607924Y-44949312D01*
X171474312Y-45082924D01*
X171474312Y-45082925D01*
X171474310Y-45082927D01*
X171471951Y-45086174D01*
X171363240Y-45235800D01*
X171277454Y-45404163D01*
X171219059Y-45583881D01*
X171189500Y-45770513D01*
X171189500Y-45959486D01*
X171219059Y-46146118D01*
X171277454Y-46325836D01*
X171363240Y-46494199D01*
X171474310Y-46647073D01*
X171607927Y-46780690D01*
X171760801Y-46891760D01*
X171829065Y-46926542D01*
X171929163Y-46977545D01*
X171929165Y-46977545D01*
X171929168Y-46977547D01*
X172018734Y-47006649D01*
X172050803Y-47017069D01*
X172108478Y-47056507D01*
X172135676Y-47120866D01*
X172123761Y-47189712D01*
X172076516Y-47241188D01*
X172050803Y-47252931D01*
X171929163Y-47292454D01*
X171760800Y-47378240D01*
X171673579Y-47441610D01*
X171607927Y-47489310D01*
X171607925Y-47489312D01*
X171607924Y-47489312D01*
X171474312Y-47622924D01*
X171474312Y-47622925D01*
X171474310Y-47622927D01*
X171466188Y-47634106D01*
X171363240Y-47775800D01*
X171277454Y-47944163D01*
X171219059Y-48123881D01*
X171189500Y-48310513D01*
X171189500Y-48499486D01*
X171219059Y-48686118D01*
X171277454Y-48865836D01*
X171324817Y-48958790D01*
X171363240Y-49034199D01*
X171474310Y-49187073D01*
X171607927Y-49320690D01*
X171760801Y-49431760D01*
X171840347Y-49472290D01*
X171929163Y-49517545D01*
X171929165Y-49517545D01*
X171929168Y-49517547D01*
X172018734Y-49546649D01*
X172050803Y-49557069D01*
X172108478Y-49596507D01*
X172135676Y-49660866D01*
X172123761Y-49729712D01*
X172076516Y-49781188D01*
X172050803Y-49792931D01*
X171929163Y-49832454D01*
X171760800Y-49918240D01*
X171673579Y-49981610D01*
X171607927Y-50029310D01*
X171607925Y-50029312D01*
X171607924Y-50029312D01*
X171474312Y-50162924D01*
X171474312Y-50162925D01*
X171474310Y-50162927D01*
X171447764Y-50199464D01*
X171363240Y-50315800D01*
X171277454Y-50484163D01*
X171219059Y-50663881D01*
X171189500Y-50850513D01*
X171189500Y-51039486D01*
X171219059Y-51226118D01*
X171277454Y-51405836D01*
X171360588Y-51568994D01*
X171363240Y-51574199D01*
X171474310Y-51727073D01*
X171607927Y-51860690D01*
X171760801Y-51971760D01*
X171840347Y-52012290D01*
X171929163Y-52057545D01*
X171929165Y-52057545D01*
X171929168Y-52057547D01*
X171979913Y-52074035D01*
X172050803Y-52097069D01*
X172108478Y-52136507D01*
X172135676Y-52200866D01*
X172123761Y-52269712D01*
X172076516Y-52321188D01*
X172050803Y-52332931D01*
X171929163Y-52372454D01*
X171760800Y-52458240D01*
X171728489Y-52481716D01*
X171607927Y-52569310D01*
X171607925Y-52569312D01*
X171607924Y-52569312D01*
X171474312Y-52702924D01*
X171474312Y-52702925D01*
X171474310Y-52702927D01*
X171437321Y-52753838D01*
X171363240Y-52855800D01*
X171277454Y-53024163D01*
X171219059Y-53203881D01*
X171189500Y-53390513D01*
X171189500Y-53579486D01*
X171219059Y-53766118D01*
X171277454Y-53945836D01*
X171363240Y-54114199D01*
X171474310Y-54267073D01*
X171607927Y-54400690D01*
X171760801Y-54511760D01*
X171841398Y-54552826D01*
X171904572Y-54585015D01*
X171955368Y-54632990D01*
X171972163Y-54700811D01*
X171949626Y-54766946D01*
X171894910Y-54810397D01*
X171848277Y-54819500D01*
X171750209Y-54819500D01*
X171718408Y-54820749D01*
X171718402Y-54820750D01*
X171595043Y-54850365D01*
X171521539Y-54880811D01*
X171492614Y-54894146D01*
X171389976Y-54968716D01*
X171333730Y-55024962D01*
X171312101Y-55048360D01*
X171245811Y-55156537D01*
X171216088Y-55228298D01*
X171215366Y-55230042D01*
X171204347Y-55259912D01*
X171184502Y-55385209D01*
X171184500Y-55385219D01*
X171184500Y-56664790D01*
X171185749Y-56696591D01*
X171185750Y-56696597D01*
X171215365Y-56819956D01*
X171215366Y-56819958D01*
X171245814Y-56893467D01*
X171259145Y-56922384D01*
X171333716Y-57025023D01*
X171389977Y-57081284D01*
X171413359Y-57102898D01*
X171521533Y-57169186D01*
X171521535Y-57169186D01*
X171521537Y-57169188D01*
X171547305Y-57179861D01*
X171595042Y-57199634D01*
X171624912Y-57210653D01*
X171750218Y-57230500D01*
X171750219Y-57230500D01*
X171848277Y-57230500D01*
X171915316Y-57250185D01*
X171961071Y-57302989D01*
X171971015Y-57372147D01*
X171941990Y-57435703D01*
X171904572Y-57464985D01*
X171760800Y-57538240D01*
X171673579Y-57601610D01*
X171607927Y-57649310D01*
X171607925Y-57649312D01*
X171607924Y-57649312D01*
X171474312Y-57782924D01*
X171474312Y-57782925D01*
X171474310Y-57782927D01*
X171461292Y-57800845D01*
X171363240Y-57935800D01*
X171277454Y-58104163D01*
X171219059Y-58283881D01*
X171189500Y-58470513D01*
X171189500Y-58659486D01*
X171219059Y-58846118D01*
X171277454Y-59025836D01*
X171326320Y-59121740D01*
X171363240Y-59194199D01*
X171474310Y-59347073D01*
X171607927Y-59480690D01*
X171760801Y-59591760D01*
X171840347Y-59632290D01*
X171929163Y-59677545D01*
X171929165Y-59677545D01*
X171929168Y-59677547D01*
X172018734Y-59706649D01*
X172050803Y-59717069D01*
X172108478Y-59756507D01*
X172135676Y-59820866D01*
X172123761Y-59889712D01*
X172076516Y-59941188D01*
X172050803Y-59952931D01*
X171929163Y-59992454D01*
X171760800Y-60078240D01*
X171685505Y-60132946D01*
X171607927Y-60189310D01*
X171607925Y-60189312D01*
X171607924Y-60189312D01*
X171474312Y-60322924D01*
X171474312Y-60322925D01*
X171474310Y-60322927D01*
X171426610Y-60388579D01*
X171363240Y-60475800D01*
X171277454Y-60644163D01*
X171219059Y-60823881D01*
X171189500Y-61010513D01*
X171189500Y-61199486D01*
X171219059Y-61386118D01*
X171277454Y-61565836D01*
X171363240Y-61734199D01*
X171474310Y-61887073D01*
X171607927Y-62020690D01*
X171760801Y-62131760D01*
X171840347Y-62172290D01*
X171929163Y-62217545D01*
X171929165Y-62217545D01*
X171929168Y-62217547D01*
X172018734Y-62246649D01*
X172050803Y-62257069D01*
X172108478Y-62296507D01*
X172135676Y-62360866D01*
X172123761Y-62429712D01*
X172076516Y-62481188D01*
X172050803Y-62492931D01*
X171929163Y-62532454D01*
X171760800Y-62618240D01*
X171673579Y-62681610D01*
X171607927Y-62729310D01*
X171607925Y-62729312D01*
X171607924Y-62729312D01*
X171474312Y-62862924D01*
X171474312Y-62862925D01*
X171474310Y-62862927D01*
X171426610Y-62928579D01*
X171363240Y-63015800D01*
X171277454Y-63184163D01*
X171219059Y-63363881D01*
X171189500Y-63550513D01*
X171189500Y-63739486D01*
X171219059Y-63926118D01*
X171277454Y-64105836D01*
X171363240Y-64274199D01*
X171474310Y-64427073D01*
X171607927Y-64560690D01*
X171760801Y-64671760D01*
X171840347Y-64712290D01*
X171929163Y-64757545D01*
X171929165Y-64757545D01*
X171929168Y-64757547D01*
X172018734Y-64786649D01*
X172050803Y-64797069D01*
X172108478Y-64836507D01*
X172135676Y-64900866D01*
X172123761Y-64969712D01*
X172076516Y-65021188D01*
X172050803Y-65032931D01*
X171929163Y-65072454D01*
X171760800Y-65158240D01*
X171673579Y-65221610D01*
X171607927Y-65269310D01*
X171607925Y-65269312D01*
X171607924Y-65269312D01*
X171474312Y-65402924D01*
X171474312Y-65402925D01*
X171474310Y-65402927D01*
X171457575Y-65425961D01*
X171363240Y-65555800D01*
X171277454Y-65724163D01*
X171219059Y-65903881D01*
X171189500Y-66090513D01*
X171189500Y-66279486D01*
X171219059Y-66466118D01*
X171277454Y-66645836D01*
X171354991Y-66798009D01*
X171363240Y-66814199D01*
X171474310Y-66967073D01*
X171607927Y-67100690D01*
X171760801Y-67211760D01*
X171841398Y-67252826D01*
X171904572Y-67285015D01*
X171955368Y-67332990D01*
X171972163Y-67400811D01*
X171949626Y-67466946D01*
X171894910Y-67510397D01*
X171848277Y-67519500D01*
X171750209Y-67519500D01*
X171718408Y-67520749D01*
X171718402Y-67520750D01*
X171595043Y-67550365D01*
X171521539Y-67580811D01*
X171492614Y-67594146D01*
X171389976Y-67668716D01*
X171333730Y-67724962D01*
X171312101Y-67748360D01*
X171245811Y-67856537D01*
X171216088Y-67928298D01*
X171215366Y-67930042D01*
X171204347Y-67959912D01*
X171184502Y-68085209D01*
X171184500Y-68085219D01*
X171184500Y-69364790D01*
X171185749Y-69396591D01*
X171185750Y-69396597D01*
X171215365Y-69519956D01*
X171215366Y-69519958D01*
X171245814Y-69593467D01*
X171259145Y-69622384D01*
X171333716Y-69725023D01*
X171389977Y-69781284D01*
X171413359Y-69802898D01*
X171521533Y-69869186D01*
X171521535Y-69869186D01*
X171521537Y-69869188D01*
X171547305Y-69879861D01*
X171595042Y-69899634D01*
X171624912Y-69910653D01*
X171750218Y-69930500D01*
X171750219Y-69930500D01*
X171848277Y-69930500D01*
X171915316Y-69950185D01*
X171961071Y-70002989D01*
X171971015Y-70072147D01*
X171941990Y-70135703D01*
X171904572Y-70164985D01*
X171760800Y-70238240D01*
X171675060Y-70300535D01*
X171607927Y-70349310D01*
X171607925Y-70349312D01*
X171607924Y-70349312D01*
X171474312Y-70482924D01*
X171474312Y-70482925D01*
X171474310Y-70482927D01*
X171426610Y-70548579D01*
X171363240Y-70635800D01*
X171277454Y-70804163D01*
X171219059Y-70983881D01*
X171189500Y-71170513D01*
X171189500Y-71359486D01*
X171219059Y-71546118D01*
X171277454Y-71725836D01*
X171315516Y-71800536D01*
X171363240Y-71894199D01*
X171474310Y-72047073D01*
X171607927Y-72180690D01*
X171760801Y-72291760D01*
X171840347Y-72332290D01*
X171929163Y-72377545D01*
X171929165Y-72377545D01*
X171929168Y-72377547D01*
X172018734Y-72406649D01*
X172050803Y-72417069D01*
X172108478Y-72456507D01*
X172135676Y-72520866D01*
X172123761Y-72589712D01*
X172076516Y-72641188D01*
X172050803Y-72652931D01*
X171929163Y-72692454D01*
X171760800Y-72778240D01*
X171673579Y-72841610D01*
X171607927Y-72889310D01*
X171607925Y-72889312D01*
X171607924Y-72889312D01*
X171474312Y-73022924D01*
X171474312Y-73022925D01*
X171474310Y-73022927D01*
X171436697Y-73074697D01*
X171363240Y-73175800D01*
X171277454Y-73344163D01*
X171219059Y-73523881D01*
X171189500Y-73710513D01*
X171189500Y-73899486D01*
X171219059Y-74086118D01*
X171277454Y-74265836D01*
X171351574Y-74411304D01*
X171363240Y-74434199D01*
X171474310Y-74587073D01*
X171607927Y-74720690D01*
X171760801Y-74831760D01*
X171840347Y-74872290D01*
X171929163Y-74917545D01*
X171929165Y-74917545D01*
X171929168Y-74917547D01*
X172018734Y-74946649D01*
X172050803Y-74957069D01*
X172108478Y-74996507D01*
X172135676Y-75060866D01*
X172123761Y-75129712D01*
X172076516Y-75181188D01*
X172050803Y-75192931D01*
X171929163Y-75232454D01*
X171760800Y-75318240D01*
X171695211Y-75365894D01*
X171607927Y-75429310D01*
X171607925Y-75429312D01*
X171607924Y-75429312D01*
X171474312Y-75562924D01*
X171474312Y-75562925D01*
X171474310Y-75562927D01*
X171437374Y-75613765D01*
X171363240Y-75715800D01*
X171277454Y-75884163D01*
X171219059Y-76063881D01*
X171189500Y-76250513D01*
X171189500Y-76439486D01*
X171219059Y-76626118D01*
X171277454Y-76805836D01*
X171363240Y-76974199D01*
X171474310Y-77127073D01*
X171607927Y-77260690D01*
X171760801Y-77371760D01*
X171840347Y-77412290D01*
X171929163Y-77457545D01*
X171929165Y-77457545D01*
X171929168Y-77457547D01*
X172018734Y-77486649D01*
X172050803Y-77497069D01*
X172108478Y-77536507D01*
X172135676Y-77600866D01*
X172123761Y-77669712D01*
X172076516Y-77721188D01*
X172050803Y-77732931D01*
X171929163Y-77772454D01*
X171760800Y-77858240D01*
X171702635Y-77900500D01*
X171607927Y-77969310D01*
X171607925Y-77969312D01*
X171607924Y-77969312D01*
X171474312Y-78102924D01*
X171474312Y-78102925D01*
X171474310Y-78102927D01*
X171441431Y-78148181D01*
X171363240Y-78255800D01*
X171277454Y-78424163D01*
X171219059Y-78603881D01*
X171189500Y-78790513D01*
X171189500Y-78979486D01*
X171219059Y-79166118D01*
X171277454Y-79345836D01*
X171363240Y-79514199D01*
X171474310Y-79667073D01*
X171607927Y-79800690D01*
X171760801Y-79911760D01*
X171831563Y-79947815D01*
X171904572Y-79985015D01*
X171955368Y-80032990D01*
X171972163Y-80100811D01*
X171949626Y-80166946D01*
X171894910Y-80210397D01*
X171848277Y-80219500D01*
X171750209Y-80219500D01*
X171718408Y-80220749D01*
X171718402Y-80220750D01*
X171595043Y-80250365D01*
X171521539Y-80280811D01*
X171492614Y-80294146D01*
X171389976Y-80368716D01*
X171333730Y-80424962D01*
X171312101Y-80448360D01*
X171245811Y-80556537D01*
X171216088Y-80628298D01*
X171215366Y-80630042D01*
X171204347Y-80659912D01*
X171184502Y-80785209D01*
X171184500Y-80785219D01*
X171184500Y-82064790D01*
X171185749Y-82096591D01*
X171185750Y-82096597D01*
X171215365Y-82219956D01*
X171215366Y-82219958D01*
X171245814Y-82293467D01*
X171259145Y-82322384D01*
X171333716Y-82425023D01*
X171389977Y-82481284D01*
X171413359Y-82502898D01*
X171521533Y-82569186D01*
X171521535Y-82569186D01*
X171521537Y-82569188D01*
X171547305Y-82579861D01*
X171595042Y-82599634D01*
X171624912Y-82610653D01*
X171750218Y-82630500D01*
X171750219Y-82630500D01*
X171848277Y-82630500D01*
X171915316Y-82650185D01*
X171961071Y-82702989D01*
X171971015Y-82772147D01*
X171941990Y-82835703D01*
X171904572Y-82864985D01*
X171760800Y-82938240D01*
X171678808Y-82997812D01*
X171607927Y-83049310D01*
X171607925Y-83049312D01*
X171607924Y-83049312D01*
X171474312Y-83182924D01*
X171474312Y-83182925D01*
X171474310Y-83182927D01*
X171426610Y-83248579D01*
X171363240Y-83335800D01*
X171277454Y-83504163D01*
X171219059Y-83683881D01*
X171189500Y-83870513D01*
X171189500Y-84059486D01*
X171219059Y-84246118D01*
X171277454Y-84425836D01*
X171350397Y-84568994D01*
X171363240Y-84594199D01*
X171474310Y-84747073D01*
X171607927Y-84880690D01*
X171760801Y-84991760D01*
X171840347Y-85032290D01*
X171929163Y-85077545D01*
X171929165Y-85077545D01*
X171929168Y-85077547D01*
X172018734Y-85106649D01*
X172050803Y-85117069D01*
X172108478Y-85156507D01*
X172135676Y-85220866D01*
X172123761Y-85289712D01*
X172076516Y-85341188D01*
X172050803Y-85352931D01*
X171929163Y-85392454D01*
X171760800Y-85478240D01*
X171673579Y-85541610D01*
X171607927Y-85589310D01*
X171607925Y-85589312D01*
X171607924Y-85589312D01*
X171474312Y-85722924D01*
X171474312Y-85722925D01*
X171474310Y-85722927D01*
X171433860Y-85778602D01*
X171363240Y-85875800D01*
X171277454Y-86044163D01*
X171219059Y-86223881D01*
X171189500Y-86410513D01*
X171189500Y-86599486D01*
X171219059Y-86786118D01*
X171277454Y-86965836D01*
X171363240Y-87134199D01*
X171474310Y-87287073D01*
X171607927Y-87420690D01*
X171760801Y-87531760D01*
X171840347Y-87572290D01*
X171929163Y-87617545D01*
X171929165Y-87617545D01*
X171929168Y-87617547D01*
X171997588Y-87639778D01*
X172108881Y-87675940D01*
X172295514Y-87705500D01*
X172295519Y-87705500D01*
X172484486Y-87705500D01*
X172671118Y-87675940D01*
X172782412Y-87639778D01*
X175349500Y-87639778D01*
X175349500Y-87860222D01*
X175354659Y-87892795D01*
X175383985Y-88077952D01*
X175452103Y-88287603D01*
X175452104Y-88287606D01*
X175552187Y-88484025D01*
X175681752Y-88662358D01*
X175681756Y-88662363D01*
X175837636Y-88818243D01*
X175837641Y-88818247D01*
X175985898Y-88925961D01*
X176015978Y-88947815D01*
X176144375Y-89013237D01*
X176212393Y-89047895D01*
X176212396Y-89047896D01*
X176291073Y-89073459D01*
X176422049Y-89116015D01*
X176639778Y-89150500D01*
X176639779Y-89150500D01*
X176860221Y-89150500D01*
X176860222Y-89150500D01*
X177077951Y-89116015D01*
X177287606Y-89047895D01*
X177484022Y-88947815D01*
X177662365Y-88818242D01*
X177818242Y-88662365D01*
X177947815Y-88484022D01*
X178047895Y-88287606D01*
X178116015Y-88077951D01*
X178150500Y-87860222D01*
X178150500Y-87639778D01*
X181849500Y-87639778D01*
X181849500Y-87860222D01*
X181854659Y-87892795D01*
X181883985Y-88077952D01*
X181952103Y-88287603D01*
X181952104Y-88287606D01*
X182052187Y-88484025D01*
X182181752Y-88662358D01*
X182181756Y-88662363D01*
X182337636Y-88818243D01*
X182337641Y-88818247D01*
X182485898Y-88925961D01*
X182515978Y-88947815D01*
X182644375Y-89013237D01*
X182712393Y-89047895D01*
X182712396Y-89047896D01*
X182791073Y-89073459D01*
X182922049Y-89116015D01*
X183139778Y-89150500D01*
X183139779Y-89150500D01*
X183360221Y-89150500D01*
X183360222Y-89150500D01*
X183577951Y-89116015D01*
X183787606Y-89047895D01*
X183984022Y-88947815D01*
X184162365Y-88818242D01*
X184318242Y-88662365D01*
X184447815Y-88484022D01*
X184547895Y-88287606D01*
X184616015Y-88077951D01*
X184650500Y-87860222D01*
X184650500Y-87639778D01*
X184616015Y-87422049D01*
X184572159Y-87287073D01*
X184547896Y-87212396D01*
X184547895Y-87212393D01*
X184508052Y-87134199D01*
X184447815Y-87015978D01*
X184411382Y-86965832D01*
X184318247Y-86837641D01*
X184318243Y-86837636D01*
X184162363Y-86681756D01*
X184162358Y-86681752D01*
X183984025Y-86552187D01*
X183984024Y-86552186D01*
X183984022Y-86552185D01*
X183921096Y-86520122D01*
X183787606Y-86452104D01*
X183787603Y-86452103D01*
X183577952Y-86383985D01*
X183469086Y-86366742D01*
X183360222Y-86349500D01*
X183139778Y-86349500D01*
X183067201Y-86360995D01*
X182922047Y-86383985D01*
X182712396Y-86452103D01*
X182712393Y-86452104D01*
X182515974Y-86552187D01*
X182337641Y-86681752D01*
X182337636Y-86681756D01*
X182181756Y-86837636D01*
X182181752Y-86837641D01*
X182052187Y-87015974D01*
X181952104Y-87212393D01*
X181952103Y-87212396D01*
X181883985Y-87422047D01*
X181866608Y-87531760D01*
X181849500Y-87639778D01*
X178150500Y-87639778D01*
X178116015Y-87422049D01*
X178072159Y-87287073D01*
X178047896Y-87212396D01*
X178047895Y-87212393D01*
X178008052Y-87134199D01*
X177947815Y-87015978D01*
X177911382Y-86965832D01*
X177818247Y-86837641D01*
X177818243Y-86837636D01*
X177662363Y-86681756D01*
X177662358Y-86681752D01*
X177484025Y-86552187D01*
X177484024Y-86552186D01*
X177484022Y-86552185D01*
X177421096Y-86520122D01*
X177287606Y-86452104D01*
X177287603Y-86452103D01*
X177077952Y-86383985D01*
X176969086Y-86366742D01*
X176860222Y-86349500D01*
X176639778Y-86349500D01*
X176567201Y-86360995D01*
X176422047Y-86383985D01*
X176212396Y-86452103D01*
X176212393Y-86452104D01*
X176015974Y-86552187D01*
X175837641Y-86681752D01*
X175837636Y-86681756D01*
X175681756Y-86837636D01*
X175681752Y-86837641D01*
X175552187Y-87015974D01*
X175452104Y-87212393D01*
X175452103Y-87212396D01*
X175383985Y-87422047D01*
X175366608Y-87531760D01*
X175349500Y-87639778D01*
X172782412Y-87639778D01*
X172850832Y-87617547D01*
X173019199Y-87531760D01*
X173172073Y-87420690D01*
X173305690Y-87287073D01*
X173416760Y-87134199D01*
X173502547Y-86965832D01*
X173560940Y-86786118D01*
X173564656Y-86762658D01*
X173590500Y-86599486D01*
X173590500Y-86410513D01*
X173560940Y-86223881D01*
X173531769Y-86134103D01*
X173502547Y-86044168D01*
X173502545Y-86044165D01*
X173502545Y-86044163D01*
X173416759Y-85875800D01*
X173305690Y-85722927D01*
X173172073Y-85589310D01*
X173019199Y-85478240D01*
X172962723Y-85449464D01*
X172850836Y-85392454D01*
X172769089Y-85365893D01*
X172729195Y-85352930D01*
X172671521Y-85313493D01*
X172644323Y-85249134D01*
X172656238Y-85180288D01*
X172703482Y-85128812D01*
X172729194Y-85117069D01*
X172850832Y-85077547D01*
X173019199Y-84991760D01*
X173172073Y-84880690D01*
X173305690Y-84747073D01*
X173416760Y-84594199D01*
X173502547Y-84425832D01*
X173560940Y-84246118D01*
X173563862Y-84227667D01*
X173590500Y-84059486D01*
X173590500Y-83870513D01*
X173560940Y-83683881D01*
X173513687Y-83538453D01*
X173502547Y-83504168D01*
X173502545Y-83504165D01*
X173502545Y-83504163D01*
X173444867Y-83390965D01*
X173416760Y-83335801D01*
X173305690Y-83182927D01*
X173262541Y-83139778D01*
X175349500Y-83139778D01*
X175349500Y-83360221D01*
X175383985Y-83577952D01*
X175452103Y-83787603D01*
X175452104Y-83787606D01*
X175552187Y-83984025D01*
X175681752Y-84162358D01*
X175681756Y-84162363D01*
X175837636Y-84318243D01*
X175837641Y-84318247D01*
X175985721Y-84425832D01*
X176015978Y-84447815D01*
X176144375Y-84513237D01*
X176212393Y-84547895D01*
X176212396Y-84547896D01*
X176277331Y-84568994D01*
X176422049Y-84616015D01*
X176639778Y-84650500D01*
X176639779Y-84650500D01*
X176860221Y-84650500D01*
X176860222Y-84650500D01*
X177077951Y-84616015D01*
X177287606Y-84547895D01*
X177484022Y-84447815D01*
X177662365Y-84318242D01*
X177818242Y-84162365D01*
X177947815Y-83984022D01*
X178047895Y-83787606D01*
X178116015Y-83577951D01*
X178150500Y-83360222D01*
X178150500Y-83139778D01*
X181849500Y-83139778D01*
X181849500Y-83360221D01*
X181883985Y-83577952D01*
X181952103Y-83787603D01*
X181952104Y-83787606D01*
X182052187Y-83984025D01*
X182181752Y-84162358D01*
X182181756Y-84162363D01*
X182337636Y-84318243D01*
X182337641Y-84318247D01*
X182485721Y-84425832D01*
X182515978Y-84447815D01*
X182644375Y-84513237D01*
X182712393Y-84547895D01*
X182712396Y-84547896D01*
X182777331Y-84568994D01*
X182922049Y-84616015D01*
X183139778Y-84650500D01*
X183139779Y-84650500D01*
X183360221Y-84650500D01*
X183360222Y-84650500D01*
X183577951Y-84616015D01*
X183787606Y-84547895D01*
X183984022Y-84447815D01*
X184162365Y-84318242D01*
X184318242Y-84162365D01*
X184447815Y-83984022D01*
X184547895Y-83787606D01*
X184616015Y-83577951D01*
X184650500Y-83360222D01*
X184650500Y-83139778D01*
X184616015Y-82922049D01*
X184577474Y-82803431D01*
X184547896Y-82712396D01*
X184547895Y-82712393D01*
X184506167Y-82630500D01*
X184447815Y-82515978D01*
X184431260Y-82493192D01*
X184318247Y-82337641D01*
X184318243Y-82337636D01*
X184162363Y-82181756D01*
X184162358Y-82181752D01*
X183984025Y-82052187D01*
X183984024Y-82052186D01*
X183984022Y-82052185D01*
X183921096Y-82020122D01*
X183787606Y-81952104D01*
X183787603Y-81952103D01*
X183577952Y-81883985D01*
X183469086Y-81866742D01*
X183360222Y-81849500D01*
X183139778Y-81849500D01*
X183067201Y-81860995D01*
X182922047Y-81883985D01*
X182712396Y-81952103D01*
X182712393Y-81952104D01*
X182515974Y-82052187D01*
X182337641Y-82181752D01*
X182337636Y-82181756D01*
X182181756Y-82337636D01*
X182181752Y-82337641D01*
X182052187Y-82515974D01*
X181952104Y-82712393D01*
X181952103Y-82712396D01*
X181883985Y-82922047D01*
X181849500Y-83139778D01*
X178150500Y-83139778D01*
X178116015Y-82922049D01*
X178077474Y-82803431D01*
X178047896Y-82712396D01*
X178047895Y-82712393D01*
X178006167Y-82630500D01*
X177947815Y-82515978D01*
X177931260Y-82493192D01*
X177818247Y-82337641D01*
X177818243Y-82337636D01*
X177662363Y-82181756D01*
X177662358Y-82181752D01*
X177484025Y-82052187D01*
X177484024Y-82052186D01*
X177484022Y-82052185D01*
X177421096Y-82020122D01*
X177287606Y-81952104D01*
X177287603Y-81952103D01*
X177077952Y-81883985D01*
X176969086Y-81866742D01*
X176860222Y-81849500D01*
X176639778Y-81849500D01*
X176567201Y-81860995D01*
X176422047Y-81883985D01*
X176212396Y-81952103D01*
X176212393Y-81952104D01*
X176015974Y-82052187D01*
X175837641Y-82181752D01*
X175837636Y-82181756D01*
X175681756Y-82337636D01*
X175681752Y-82337641D01*
X175552187Y-82515974D01*
X175452104Y-82712393D01*
X175452103Y-82712396D01*
X175383985Y-82922047D01*
X175349500Y-83139778D01*
X173262541Y-83139778D01*
X173172073Y-83049310D01*
X173019199Y-82938240D01*
X172850836Y-82852454D01*
X172740036Y-82816453D01*
X172682361Y-82777015D01*
X172655163Y-82712656D01*
X172667078Y-82643810D01*
X172714322Y-82592334D01*
X172742358Y-82579862D01*
X172778530Y-82568890D01*
X172924121Y-82508584D01*
X172994226Y-82471112D01*
X173125254Y-82383562D01*
X173186702Y-82333133D01*
X173298133Y-82221702D01*
X173348562Y-82160254D01*
X173436112Y-82029226D01*
X173473584Y-81959121D01*
X173533890Y-81813530D01*
X173556966Y-81737459D01*
X173587709Y-81582901D01*
X173595500Y-81503793D01*
X173595500Y-81346207D01*
X173587709Y-81267099D01*
X173556966Y-81112541D01*
X173533890Y-81036470D01*
X173473584Y-80890879D01*
X173436112Y-80820774D01*
X173412355Y-80785219D01*
X173348574Y-80689763D01*
X173348567Y-80689753D01*
X173348562Y-80689746D01*
X173298133Y-80628298D01*
X173298132Y-80628297D01*
X173298128Y-80628292D01*
X173186707Y-80516871D01*
X173125259Y-80466442D01*
X173125236Y-80466425D01*
X172994242Y-80378898D01*
X172994231Y-80378891D01*
X172994226Y-80378888D01*
X172924121Y-80341416D01*
X172778530Y-80281110D01*
X172778531Y-80281110D01*
X172778528Y-80281109D01*
X172742359Y-80270137D01*
X172683920Y-80231839D01*
X172655464Y-80168027D01*
X172666025Y-80098960D01*
X172712250Y-80046567D01*
X172740032Y-80033548D01*
X172850832Y-79997547D01*
X173019199Y-79911760D01*
X173172073Y-79800690D01*
X173305690Y-79667073D01*
X173416760Y-79514199D01*
X173502547Y-79345832D01*
X173560940Y-79166118D01*
X173563862Y-79147667D01*
X173590500Y-78979486D01*
X173590500Y-78790513D01*
X173568926Y-78654304D01*
X173568926Y-78654303D01*
X173566625Y-78639778D01*
X175349500Y-78639778D01*
X175349500Y-78860222D01*
X175352376Y-78878381D01*
X175383985Y-79077952D01*
X175452103Y-79287603D01*
X175452104Y-79287606D01*
X175520122Y-79421096D01*
X175539453Y-79459035D01*
X175552187Y-79484025D01*
X175681752Y-79662358D01*
X175681756Y-79662363D01*
X175837636Y-79818243D01*
X175837641Y-79818247D01*
X175966351Y-79911759D01*
X176015978Y-79947815D01*
X176113578Y-79997545D01*
X176212393Y-80047895D01*
X176212396Y-80047896D01*
X176237154Y-80055940D01*
X176422049Y-80116015D01*
X176639778Y-80150500D01*
X176639779Y-80150500D01*
X176860221Y-80150500D01*
X176860222Y-80150500D01*
X177077951Y-80116015D01*
X177287606Y-80047895D01*
X177484022Y-79947815D01*
X177662365Y-79818242D01*
X177818242Y-79662365D01*
X177947815Y-79484022D01*
X178047895Y-79287606D01*
X178116015Y-79077951D01*
X178150500Y-78860222D01*
X178150500Y-78639778D01*
X181849500Y-78639778D01*
X181849500Y-78860222D01*
X181852376Y-78878381D01*
X181883985Y-79077952D01*
X181952103Y-79287603D01*
X181952104Y-79287606D01*
X182020122Y-79421096D01*
X182039453Y-79459035D01*
X182052187Y-79484025D01*
X182181752Y-79662358D01*
X182181756Y-79662363D01*
X182337636Y-79818243D01*
X182337641Y-79818247D01*
X182466351Y-79911759D01*
X182515978Y-79947815D01*
X182613578Y-79997545D01*
X182712393Y-80047895D01*
X182712396Y-80047896D01*
X182737154Y-80055940D01*
X182922049Y-80116015D01*
X183139778Y-80150500D01*
X183139779Y-80150500D01*
X183360221Y-80150500D01*
X183360222Y-80150500D01*
X183577951Y-80116015D01*
X183787606Y-80047895D01*
X183984022Y-79947815D01*
X184162365Y-79818242D01*
X184318242Y-79662365D01*
X184447815Y-79484022D01*
X184547895Y-79287606D01*
X184616015Y-79077951D01*
X184650500Y-78860222D01*
X184650500Y-78639778D01*
X184616015Y-78422049D01*
X184579921Y-78310961D01*
X184547896Y-78212396D01*
X184547895Y-78212393D01*
X184492117Y-78102925D01*
X184447815Y-78015978D01*
X184413909Y-77969310D01*
X184318247Y-77837641D01*
X184318243Y-77837636D01*
X184162363Y-77681756D01*
X184162358Y-77681752D01*
X183984025Y-77552187D01*
X183984024Y-77552186D01*
X183984022Y-77552185D01*
X183898899Y-77508812D01*
X183787606Y-77452104D01*
X183787603Y-77452103D01*
X183577952Y-77383985D01*
X183469086Y-77366742D01*
X183360222Y-77349500D01*
X183139778Y-77349500D01*
X183067201Y-77360995D01*
X182922047Y-77383985D01*
X182712396Y-77452103D01*
X182712393Y-77452104D01*
X182515974Y-77552187D01*
X182337641Y-77681752D01*
X182337636Y-77681756D01*
X182181756Y-77837636D01*
X182181752Y-77837641D01*
X182052187Y-78015974D01*
X181952104Y-78212393D01*
X181952103Y-78212396D01*
X181883985Y-78422047D01*
X181855185Y-78603882D01*
X181849500Y-78639778D01*
X178150500Y-78639778D01*
X178116015Y-78422049D01*
X178079921Y-78310961D01*
X178047896Y-78212396D01*
X178047895Y-78212393D01*
X177992117Y-78102925D01*
X177947815Y-78015978D01*
X177913909Y-77969310D01*
X177818247Y-77837641D01*
X177818243Y-77837636D01*
X177662363Y-77681756D01*
X177662358Y-77681752D01*
X177484025Y-77552187D01*
X177484024Y-77552186D01*
X177484022Y-77552185D01*
X177398899Y-77508812D01*
X177287606Y-77452104D01*
X177287603Y-77452103D01*
X177077952Y-77383985D01*
X176969086Y-77366742D01*
X176860222Y-77349500D01*
X176639778Y-77349500D01*
X176567201Y-77360995D01*
X176422047Y-77383985D01*
X176212396Y-77452103D01*
X176212393Y-77452104D01*
X176015974Y-77552187D01*
X175837641Y-77681752D01*
X175837636Y-77681756D01*
X175681756Y-77837636D01*
X175681752Y-77837641D01*
X175552187Y-78015974D01*
X175452104Y-78212393D01*
X175452103Y-78212396D01*
X175383985Y-78422047D01*
X175355185Y-78603882D01*
X175349500Y-78639778D01*
X173566625Y-78639778D01*
X173560940Y-78603882D01*
X173560940Y-78603881D01*
X173513687Y-78458453D01*
X173502547Y-78424168D01*
X173502545Y-78424165D01*
X173502545Y-78424163D01*
X173420258Y-78262667D01*
X173416760Y-78255801D01*
X173305690Y-78102927D01*
X173172073Y-77969310D01*
X173019199Y-77858240D01*
X172850836Y-77772454D01*
X172742769Y-77737341D01*
X172729195Y-77732930D01*
X172671521Y-77693493D01*
X172644323Y-77629134D01*
X172656238Y-77560288D01*
X172703482Y-77508812D01*
X172729194Y-77497069D01*
X172850832Y-77457547D01*
X173019199Y-77371760D01*
X173172073Y-77260690D01*
X173305690Y-77127073D01*
X173416760Y-76974199D01*
X173502547Y-76805832D01*
X173560940Y-76626118D01*
X173574095Y-76543060D01*
X173590500Y-76439486D01*
X173590500Y-76250513D01*
X173560940Y-76063881D01*
X173530918Y-75971484D01*
X173502547Y-75884168D01*
X173502545Y-75884165D01*
X173502545Y-75884163D01*
X173427735Y-75737341D01*
X173416760Y-75715801D01*
X173305690Y-75562927D01*
X173172073Y-75429310D01*
X173019199Y-75318240D01*
X172984451Y-75300535D01*
X172850836Y-75232454D01*
X172757068Y-75201987D01*
X172729195Y-75192930D01*
X172671521Y-75153493D01*
X172644323Y-75089134D01*
X172656238Y-75020288D01*
X172703482Y-74968812D01*
X172729194Y-74957069D01*
X172850832Y-74917547D01*
X173019199Y-74831760D01*
X173172073Y-74720690D01*
X173305690Y-74587073D01*
X173416760Y-74434199D01*
X173502547Y-74265832D01*
X173560940Y-74086118D01*
X173568053Y-74041208D01*
X173590500Y-73899486D01*
X173590500Y-73710513D01*
X173560940Y-73523881D01*
X173533846Y-73440497D01*
X173502547Y-73344168D01*
X173502545Y-73344165D01*
X173502545Y-73344163D01*
X173448116Y-73237341D01*
X173416760Y-73175801D01*
X173305690Y-73022927D01*
X173172073Y-72889310D01*
X173019199Y-72778240D01*
X172850836Y-72692454D01*
X172776472Y-72668291D01*
X172729195Y-72652930D01*
X172671521Y-72613493D01*
X172644323Y-72549134D01*
X172656238Y-72480288D01*
X172703482Y-72428812D01*
X172729194Y-72417069D01*
X172850832Y-72377547D01*
X173019199Y-72291760D01*
X173172073Y-72180690D01*
X173305690Y-72047073D01*
X173416760Y-71894199D01*
X173502547Y-71725832D01*
X173560940Y-71546118D01*
X173571322Y-71480567D01*
X173590500Y-71359486D01*
X173590500Y-71170513D01*
X173560940Y-70983881D01*
X173502545Y-70804163D01*
X173416759Y-70635800D01*
X173382282Y-70588347D01*
X173305690Y-70482927D01*
X173172073Y-70349310D01*
X173019199Y-70238240D01*
X172850836Y-70152454D01*
X172740036Y-70116453D01*
X172682361Y-70077015D01*
X172655163Y-70012656D01*
X172667078Y-69943810D01*
X172714322Y-69892334D01*
X172742358Y-69879862D01*
X172778530Y-69868890D01*
X172924121Y-69808584D01*
X172994226Y-69771112D01*
X173125254Y-69683562D01*
X173186702Y-69633133D01*
X173298133Y-69521702D01*
X173348562Y-69460254D01*
X173436112Y-69329226D01*
X173473584Y-69259121D01*
X173533890Y-69113530D01*
X173556966Y-69037459D01*
X173587709Y-68882901D01*
X173595500Y-68803793D01*
X173595500Y-68646207D01*
X173587709Y-68567099D01*
X173556966Y-68412541D01*
X173533890Y-68336470D01*
X173527877Y-68321954D01*
X173489712Y-68229815D01*
X173473584Y-68190879D01*
X173436112Y-68120774D01*
X173436101Y-68120757D01*
X173348574Y-67989763D01*
X173348567Y-67989753D01*
X173348562Y-67989746D01*
X173298133Y-67928298D01*
X173298132Y-67928297D01*
X173298128Y-67928292D01*
X173186707Y-67816871D01*
X173125259Y-67766442D01*
X173125236Y-67766425D01*
X172994242Y-67678898D01*
X172994231Y-67678891D01*
X172994226Y-67678888D01*
X172924121Y-67641416D01*
X172778530Y-67581110D01*
X172778531Y-67581110D01*
X172778528Y-67581109D01*
X172742359Y-67570137D01*
X172683920Y-67531839D01*
X172655464Y-67468027D01*
X172666025Y-67398960D01*
X172712250Y-67346567D01*
X172740032Y-67333548D01*
X172850832Y-67297547D01*
X173019199Y-67211760D01*
X173172073Y-67100690D01*
X173305690Y-66967073D01*
X173416760Y-66814199D01*
X173502547Y-66645832D01*
X173560940Y-66466118D01*
X173590500Y-66279486D01*
X173590500Y-66090513D01*
X173560940Y-65903881D01*
X173511756Y-65752511D01*
X173502547Y-65724168D01*
X173502545Y-65724165D01*
X173502545Y-65724163D01*
X173425754Y-65573453D01*
X173416760Y-65555801D01*
X173305690Y-65402927D01*
X173172073Y-65269310D01*
X173019199Y-65158240D01*
X172850836Y-65072454D01*
X172776472Y-65048291D01*
X172729195Y-65032930D01*
X172671521Y-64993493D01*
X172644323Y-64929134D01*
X172656238Y-64860288D01*
X172703482Y-64808812D01*
X172729194Y-64797069D01*
X172850832Y-64757547D01*
X173019199Y-64671760D01*
X173172073Y-64560690D01*
X173305690Y-64427073D01*
X173416760Y-64274199D01*
X173502547Y-64105832D01*
X173560940Y-63926118D01*
X173590500Y-63739486D01*
X173590500Y-63550513D01*
X173560940Y-63363881D01*
X173511756Y-63212511D01*
X173502547Y-63184168D01*
X173502545Y-63184165D01*
X173502545Y-63184163D01*
X173416759Y-63015800D01*
X173368607Y-62949525D01*
X173305690Y-62862927D01*
X173172073Y-62729310D01*
X173019199Y-62618240D01*
X172850836Y-62532454D01*
X172776472Y-62508291D01*
X172729195Y-62492930D01*
X172671521Y-62453493D01*
X172644323Y-62389134D01*
X172656238Y-62320288D01*
X172703482Y-62268812D01*
X172729194Y-62257069D01*
X172850832Y-62217547D01*
X173019199Y-62131760D01*
X173172073Y-62020690D01*
X173305690Y-61887073D01*
X173416760Y-61734199D01*
X173502547Y-61565832D01*
X173560940Y-61386118D01*
X173590500Y-61199486D01*
X173590500Y-61010513D01*
X173560940Y-60823881D01*
X173511756Y-60672511D01*
X173502547Y-60644168D01*
X173502545Y-60644165D01*
X173502545Y-60644163D01*
X173416759Y-60475800D01*
X173305690Y-60322927D01*
X173172073Y-60189310D01*
X173019199Y-60078240D01*
X172954906Y-60045481D01*
X172850836Y-59992454D01*
X172757517Y-59962133D01*
X172729195Y-59952930D01*
X172671521Y-59913493D01*
X172644323Y-59849134D01*
X172656238Y-59780288D01*
X172703482Y-59728812D01*
X172729194Y-59717069D01*
X172850832Y-59677547D01*
X173019199Y-59591760D01*
X173172073Y-59480690D01*
X173305690Y-59347073D01*
X173416760Y-59194199D01*
X173499396Y-59032014D01*
X173502545Y-59025836D01*
X173502545Y-59025835D01*
X173502547Y-59025832D01*
X173560940Y-58846118D01*
X173568560Y-58798009D01*
X173590500Y-58659486D01*
X173590500Y-58470513D01*
X173560940Y-58283881D01*
X173511756Y-58132511D01*
X173502547Y-58104168D01*
X173502545Y-58104165D01*
X173502545Y-58104163D01*
X173416759Y-57935800D01*
X173398963Y-57911306D01*
X173305690Y-57782927D01*
X173172073Y-57649310D01*
X173019199Y-57538240D01*
X172850836Y-57452454D01*
X172740036Y-57416453D01*
X172682361Y-57377015D01*
X172655163Y-57312656D01*
X172667078Y-57243810D01*
X172714322Y-57192334D01*
X172742358Y-57179862D01*
X172778530Y-57168890D01*
X172924121Y-57108584D01*
X172994226Y-57071112D01*
X173125254Y-56983562D01*
X173186702Y-56933133D01*
X173298133Y-56821702D01*
X173348562Y-56760254D01*
X173436112Y-56629226D01*
X173473584Y-56559121D01*
X173533890Y-56413530D01*
X173556966Y-56337459D01*
X173587709Y-56182901D01*
X173595500Y-56103793D01*
X173595500Y-55946207D01*
X173587709Y-55867099D01*
X173556966Y-55712541D01*
X173533890Y-55636470D01*
X173473584Y-55490879D01*
X173436112Y-55420774D01*
X173435271Y-55419515D01*
X173348574Y-55289763D01*
X173348567Y-55289753D01*
X173348562Y-55289746D01*
X173298133Y-55228298D01*
X173298132Y-55228297D01*
X173298128Y-55228292D01*
X173186707Y-55116871D01*
X173125259Y-55066442D01*
X173125236Y-55066425D01*
X172994242Y-54978898D01*
X172994231Y-54978891D01*
X172994226Y-54978888D01*
X172924121Y-54941416D01*
X172778530Y-54881110D01*
X172778531Y-54881110D01*
X172778528Y-54881109D01*
X172742359Y-54870137D01*
X172683920Y-54831839D01*
X172655464Y-54768027D01*
X172666025Y-54698960D01*
X172712250Y-54646567D01*
X172740032Y-54633548D01*
X172850832Y-54597547D01*
X173019199Y-54511760D01*
X173172073Y-54400690D01*
X173305690Y-54267073D01*
X173416760Y-54114199D01*
X173502547Y-53945832D01*
X173560940Y-53766118D01*
X173590500Y-53579486D01*
X173590500Y-53390513D01*
X173560940Y-53203881D01*
X173527549Y-53101116D01*
X173502547Y-53024168D01*
X173502545Y-53024165D01*
X173502545Y-53024163D01*
X173457290Y-52935347D01*
X173416760Y-52855801D01*
X173305690Y-52702927D01*
X173172073Y-52569310D01*
X173019199Y-52458240D01*
X172977778Y-52437135D01*
X172850836Y-52372454D01*
X172761478Y-52343420D01*
X172729195Y-52332930D01*
X172671521Y-52293493D01*
X172644323Y-52229134D01*
X172656238Y-52160288D01*
X172703482Y-52108812D01*
X172729194Y-52097069D01*
X172850832Y-52057547D01*
X173019199Y-51971760D01*
X173172073Y-51860690D01*
X173305690Y-51727073D01*
X173416760Y-51574199D01*
X173502547Y-51405832D01*
X173560940Y-51226118D01*
X173561909Y-51220000D01*
X173590500Y-51039486D01*
X173590500Y-50850513D01*
X173560940Y-50663881D01*
X173531309Y-50572689D01*
X173502547Y-50484168D01*
X173502545Y-50484165D01*
X173502545Y-50484163D01*
X173444376Y-50370000D01*
X173416760Y-50315801D01*
X173305690Y-50162927D01*
X173172073Y-50029310D01*
X173019199Y-49918240D01*
X172850836Y-49832454D01*
X172776472Y-49808291D01*
X172729195Y-49792930D01*
X172671521Y-49753493D01*
X172644323Y-49689134D01*
X172656238Y-49620288D01*
X172703482Y-49568812D01*
X172729194Y-49557069D01*
X172850832Y-49517547D01*
X173019199Y-49431760D01*
X173172073Y-49320690D01*
X173305690Y-49187073D01*
X173416760Y-49034199D01*
X173502547Y-48865832D01*
X173560940Y-48686118D01*
X173576370Y-48588695D01*
X173590500Y-48499486D01*
X173590500Y-48310513D01*
X173560940Y-48123881D01*
X173502545Y-47944163D01*
X173429363Y-47800536D01*
X173416760Y-47775801D01*
X173305690Y-47622927D01*
X173172073Y-47489310D01*
X173019199Y-47378240D01*
X172850836Y-47292454D01*
X172750057Y-47259709D01*
X172729195Y-47252930D01*
X172671521Y-47213493D01*
X172644323Y-47149134D01*
X172656238Y-47080288D01*
X172703482Y-47028812D01*
X172729194Y-47017069D01*
X172850832Y-46977547D01*
X173019199Y-46891760D01*
X173172073Y-46780690D01*
X173305690Y-46647073D01*
X173416760Y-46494199D01*
X173502547Y-46325832D01*
X173560940Y-46146118D01*
X173572450Y-46073446D01*
X173590500Y-45959486D01*
X173590500Y-45770513D01*
X173560940Y-45583881D01*
X173502545Y-45404163D01*
X173416759Y-45235800D01*
X173305690Y-45082927D01*
X173172073Y-44949310D01*
X173019199Y-44838240D01*
X172983972Y-44820291D01*
X172850836Y-44752454D01*
X172740036Y-44716453D01*
X172682361Y-44677015D01*
X172655163Y-44612656D01*
X172667078Y-44543810D01*
X172714322Y-44492334D01*
X172742358Y-44479862D01*
X172778530Y-44468890D01*
X172924121Y-44408584D01*
X172994226Y-44371112D01*
X173125254Y-44283562D01*
X173186702Y-44233133D01*
X173298133Y-44121702D01*
X173348562Y-44060254D01*
X173436112Y-43929226D01*
X173473584Y-43859121D01*
X173533890Y-43713530D01*
X173556966Y-43637459D01*
X173587709Y-43482901D01*
X173595500Y-43403793D01*
X173595500Y-43246207D01*
X173587709Y-43167099D01*
X173556966Y-43012541D01*
X173533890Y-42936470D01*
X173473584Y-42790879D01*
X173436112Y-42720774D01*
X173436101Y-42720757D01*
X173348574Y-42589763D01*
X173348567Y-42589753D01*
X173348562Y-42589746D01*
X173298133Y-42528298D01*
X173298132Y-42528297D01*
X173298128Y-42528292D01*
X173186707Y-42416871D01*
X173125259Y-42366442D01*
X173125236Y-42366425D01*
X172994242Y-42278898D01*
X172994231Y-42278891D01*
X172994226Y-42278888D01*
X172924121Y-42241416D01*
X172858872Y-42214389D01*
X172778528Y-42181109D01*
X172742359Y-42170137D01*
X172683920Y-42131839D01*
X172655464Y-42068027D01*
X172666025Y-41998960D01*
X172712250Y-41946567D01*
X172740032Y-41933548D01*
X172850832Y-41897547D01*
X173019199Y-41811760D01*
X173172073Y-41700690D01*
X173305690Y-41567073D01*
X173416760Y-41414199D01*
X173502547Y-41245832D01*
X173560940Y-41066118D01*
X173567322Y-41025826D01*
X173590500Y-40879486D01*
X173590500Y-40690513D01*
X173560940Y-40503881D01*
X173502545Y-40324163D01*
X173416759Y-40155800D01*
X173305690Y-40002927D01*
X173172073Y-39869310D01*
X173019199Y-39758240D01*
X172975258Y-39735851D01*
X172865559Y-39679956D01*
X172814763Y-39631981D01*
X172797968Y-39564160D01*
X172820506Y-39498025D01*
X172875221Y-39454574D01*
X172883544Y-39451537D01*
X172889033Y-39449753D01*
X173071349Y-39356859D01*
X173115921Y-39324474D01*
X172519409Y-38727962D01*
X172582993Y-38710925D01*
X172697007Y-38645099D01*
X172790099Y-38552007D01*
X172855925Y-38437993D01*
X172872962Y-38374410D01*
X173469474Y-38970922D01*
X173469474Y-38970921D01*
X173501859Y-38926349D01*
X173555915Y-38820259D01*
X178799500Y-38820259D01*
X178799500Y-39179740D01*
X178839746Y-39536935D01*
X178839748Y-39536951D01*
X178919737Y-39887407D01*
X178919741Y-39887419D01*
X179038465Y-40226711D01*
X179194432Y-40550579D01*
X179229536Y-40606446D01*
X179385685Y-40854956D01*
X179609812Y-41136003D01*
X179863997Y-41390188D01*
X180145044Y-41614315D01*
X180449418Y-41805566D01*
X180773292Y-41961536D01*
X181017566Y-42047011D01*
X181112580Y-42080258D01*
X181112592Y-42080262D01*
X181463052Y-42160252D01*
X181820260Y-42200499D01*
X181820261Y-42200500D01*
X181820264Y-42200500D01*
X182179739Y-42200500D01*
X182179739Y-42200499D01*
X182536948Y-42160252D01*
X182887408Y-42080262D01*
X183226708Y-41961536D01*
X183550582Y-41805566D01*
X183854956Y-41614315D01*
X184136003Y-41390188D01*
X184390188Y-41136003D01*
X184614315Y-40854956D01*
X184805566Y-40550582D01*
X184961536Y-40226708D01*
X185080262Y-39887408D01*
X185160252Y-39536948D01*
X185200500Y-39179736D01*
X185200500Y-38820264D01*
X185160252Y-38463052D01*
X185080262Y-38112592D01*
X184961536Y-37773292D01*
X184805566Y-37449418D01*
X184614315Y-37145044D01*
X184390188Y-36863997D01*
X184136003Y-36609812D01*
X183854956Y-36385685D01*
X183550582Y-36194434D01*
X183550579Y-36194432D01*
X183226711Y-36038465D01*
X182887419Y-35919741D01*
X182887407Y-35919737D01*
X182536951Y-35839748D01*
X182536935Y-35839746D01*
X182179740Y-35799500D01*
X182179736Y-35799500D01*
X181820264Y-35799500D01*
X181820259Y-35799500D01*
X181463064Y-35839746D01*
X181463048Y-35839748D01*
X181112592Y-35919737D01*
X181112580Y-35919741D01*
X180773288Y-36038465D01*
X180449420Y-36194432D01*
X180145045Y-36385684D01*
X179863997Y-36609811D01*
X179609811Y-36863997D01*
X179385684Y-37145045D01*
X179194432Y-37449420D01*
X179038465Y-37773288D01*
X178919741Y-38112580D01*
X178919737Y-38112592D01*
X178839748Y-38463048D01*
X178839746Y-38463064D01*
X178799500Y-38820259D01*
X173555915Y-38820259D01*
X173586369Y-38760490D01*
X173586370Y-38760488D01*
X173594754Y-38744034D01*
X173657990Y-38549417D01*
X173690000Y-38347317D01*
X173690000Y-38142682D01*
X173657990Y-37940582D01*
X173594755Y-37745968D01*
X173501859Y-37563650D01*
X173469474Y-37519077D01*
X173469474Y-37519076D01*
X172872962Y-38115589D01*
X172855925Y-38052007D01*
X172790099Y-37937993D01*
X172697007Y-37844901D01*
X172582993Y-37779075D01*
X172519408Y-37762037D01*
X173115922Y-37165524D01*
X173115921Y-37165523D01*
X173071359Y-37133147D01*
X173071350Y-37133141D01*
X172889031Y-37040244D01*
X172694417Y-36977009D01*
X172492317Y-36945000D01*
X172287683Y-36945000D01*
X172085582Y-36977009D01*
X171890968Y-37040244D01*
X171708644Y-37133143D01*
X171664077Y-37165523D01*
X171664077Y-37165524D01*
X172260591Y-37762037D01*
X172197007Y-37779075D01*
X172082993Y-37844901D01*
X171989901Y-37937993D01*
X171924075Y-38052007D01*
X171907037Y-38115590D01*
X171310524Y-37519077D01*
X171310523Y-37519077D01*
X171278143Y-37563644D01*
X171185244Y-37745968D01*
X171122009Y-37940582D01*
X171090000Y-38142682D01*
X155810499Y-38142682D01*
X155810499Y-37605640D01*
X155810499Y-37605639D01*
X155810499Y-37605636D01*
X155795046Y-37488246D01*
X155795044Y-37488239D01*
X155795044Y-37488238D01*
X155734536Y-37342159D01*
X155734535Y-37342158D01*
X155734535Y-37342157D01*
X155693187Y-37288272D01*
X155638282Y-37216718D01*
X155512841Y-37120464D01*
X155366762Y-37059956D01*
X155366760Y-37059955D01*
X155249370Y-37044501D01*
X155249367Y-37044500D01*
X155249361Y-37044500D01*
X155249354Y-37044500D01*
X153970636Y-37044500D01*
X153853246Y-37059953D01*
X153853237Y-37059956D01*
X153707160Y-37120463D01*
X153581718Y-37216718D01*
X153485463Y-37342160D01*
X153424956Y-37488237D01*
X153424955Y-37488239D01*
X153409501Y-37605629D01*
X153409501Y-37605636D01*
X153409500Y-37605645D01*
X153409500Y-38884363D01*
X153424953Y-39001753D01*
X153424956Y-39001762D01*
X153485464Y-39147841D01*
X153581718Y-39273282D01*
X153707159Y-39369536D01*
X153853238Y-39430044D01*
X153970639Y-39445500D01*
X154078092Y-39445499D01*
X154145129Y-39465183D01*
X154190884Y-39517987D01*
X154200828Y-39587145D01*
X154171804Y-39650701D01*
X154134385Y-39679983D01*
X153980805Y-39758236D01*
X153906607Y-39812145D01*
X153827927Y-39869310D01*
X153827925Y-39869312D01*
X153827924Y-39869312D01*
X153694312Y-40002924D01*
X153694312Y-40002925D01*
X153694310Y-40002927D01*
X153691951Y-40006174D01*
X153583240Y-40155800D01*
X153497454Y-40324163D01*
X153439059Y-40503881D01*
X153409500Y-40690513D01*
X153409500Y-40879486D01*
X153439059Y-41066118D01*
X153497454Y-41245836D01*
X153571006Y-41390188D01*
X153583240Y-41414199D01*
X153694310Y-41567073D01*
X153827927Y-41700690D01*
X153980801Y-41811760D01*
X154149168Y-41897547D01*
X154259963Y-41933546D01*
X154317638Y-41972984D01*
X154344836Y-42037342D01*
X154332921Y-42106189D01*
X154285677Y-42157664D01*
X154257641Y-42170137D01*
X154221468Y-42181110D01*
X154075878Y-42241416D01*
X154005777Y-42278886D01*
X154005757Y-42278898D01*
X153874763Y-42366425D01*
X153874740Y-42366442D01*
X153813292Y-42416871D01*
X153701871Y-42528292D01*
X153651442Y-42589740D01*
X153651425Y-42589763D01*
X153563898Y-42720757D01*
X153563886Y-42720777D01*
X153526416Y-42790878D01*
X153466111Y-42936464D01*
X153443032Y-43012548D01*
X153412289Y-43167108D01*
X153412289Y-43167113D01*
X153404500Y-43246208D01*
X150225891Y-43246208D01*
X150224158Y-43235267D01*
X150219709Y-43207174D01*
X150158884Y-43019975D01*
X150158882Y-43019972D01*
X150158882Y-43019970D01*
X150069523Y-42844594D01*
X149953828Y-42685354D01*
X149814646Y-42546172D01*
X149735025Y-42488324D01*
X149655403Y-42430474D01*
X149478787Y-42340485D01*
X149427990Y-42292511D01*
X149411195Y-42224690D01*
X149433732Y-42158555D01*
X149478787Y-42119515D01*
X149655403Y-42029525D01*
X149655402Y-42029525D01*
X149655405Y-42029524D01*
X149814646Y-41913828D01*
X149953828Y-41774646D01*
X150069524Y-41615405D01*
X150158884Y-41440025D01*
X150219709Y-41252826D01*
X150238212Y-41136002D01*
X150250500Y-41058422D01*
X150250500Y-40861577D01*
X150219709Y-40667173D01*
X150166652Y-40503882D01*
X150158884Y-40479975D01*
X150158882Y-40479972D01*
X150158882Y-40479970D01*
X150069523Y-40304594D01*
X149953828Y-40145354D01*
X149814646Y-40006172D01*
X149661377Y-39894815D01*
X149618714Y-39839487D01*
X149612735Y-39769873D01*
X149645341Y-39708078D01*
X149706180Y-39673721D01*
X149734264Y-39670499D01*
X149881518Y-39670499D01*
X149975304Y-39655646D01*
X150088342Y-39598050D01*
X150178050Y-39508342D01*
X150235646Y-39395304D01*
X150235646Y-39395302D01*
X150235647Y-39395301D01*
X150250499Y-39301524D01*
X150250500Y-39301519D01*
X150250499Y-37538482D01*
X150235646Y-37444696D01*
X150178050Y-37331658D01*
X150178046Y-37331654D01*
X150178045Y-37331652D01*
X150088347Y-37241954D01*
X150088344Y-37241952D01*
X150088342Y-37241950D01*
X150011517Y-37202805D01*
X149975301Y-37184352D01*
X149881524Y-37169500D01*
X148118482Y-37169500D01*
X148037519Y-37182323D01*
X148024696Y-37184354D01*
X147911658Y-37241950D01*
X147911657Y-37241951D01*
X147911652Y-37241954D01*
X147821954Y-37331652D01*
X147821951Y-37331657D01*
X147821950Y-37331658D01*
X147816599Y-37342160D01*
X147764352Y-37444698D01*
X147749500Y-37538475D01*
X146250498Y-37538475D01*
X146235646Y-37444696D01*
X146178050Y-37331658D01*
X146178046Y-37331654D01*
X146178045Y-37331652D01*
X146088347Y-37241954D01*
X146088344Y-37241952D01*
X146088342Y-37241950D01*
X146011517Y-37202805D01*
X145975301Y-37184352D01*
X145881524Y-37169500D01*
X144118482Y-37169500D01*
X144037519Y-37182323D01*
X144024696Y-37184354D01*
X143911658Y-37241950D01*
X143911657Y-37241951D01*
X143911652Y-37241954D01*
X143821954Y-37331652D01*
X143821951Y-37331657D01*
X143821950Y-37331658D01*
X143816599Y-37342160D01*
X143764352Y-37444698D01*
X143749500Y-37538475D01*
X143749500Y-39301517D01*
X143758265Y-39356859D01*
X143764354Y-39395304D01*
X143821950Y-39508342D01*
X143821952Y-39508344D01*
X143821954Y-39508347D01*
X143911652Y-39598045D01*
X143911654Y-39598046D01*
X143911658Y-39598050D01*
X144014991Y-39650701D01*
X144024698Y-39655647D01*
X144118477Y-39670500D01*
X144123331Y-39670882D01*
X144123236Y-39672087D01*
X144184867Y-39690168D01*
X144230634Y-39742961D01*
X144241470Y-39804229D01*
X144238282Y-39844728D01*
X144870591Y-40477037D01*
X144807007Y-40494075D01*
X144692993Y-40559901D01*
X144599901Y-40652993D01*
X144534075Y-40767007D01*
X144517037Y-40830590D01*
X143884728Y-40198282D01*
X143884727Y-40198282D01*
X143845380Y-40252439D01*
X143748904Y-40441782D01*
X143683242Y-40643869D01*
X143683242Y-40643872D01*
X143650000Y-40853753D01*
X141115071Y-40853753D01*
X141305566Y-40550582D01*
X141461536Y-40226708D01*
X141580262Y-39887408D01*
X141660252Y-39536948D01*
X141700500Y-39179736D01*
X141700500Y-38820264D01*
X141660252Y-38463052D01*
X141580262Y-38112592D01*
X141461536Y-37773292D01*
X141324265Y-37488246D01*
X141305569Y-37449423D01*
X141302600Y-37444698D01*
X141114315Y-37145044D01*
X140890188Y-36863997D01*
X140636003Y-36609812D01*
X140354956Y-36385685D01*
X140050582Y-36194434D01*
X140050579Y-36194432D01*
X139726711Y-36038465D01*
X139387419Y-35919741D01*
X139387407Y-35919737D01*
X139036951Y-35839748D01*
X139036935Y-35839746D01*
X138679740Y-35799500D01*
X138679736Y-35799500D01*
X138320264Y-35799500D01*
X138320259Y-35799500D01*
X137963064Y-35839746D01*
X137963048Y-35839748D01*
X137612592Y-35919737D01*
X137612580Y-35919741D01*
X137273288Y-36038465D01*
X136949420Y-36194432D01*
X136645045Y-36385684D01*
X136363997Y-36609811D01*
X136109811Y-36863997D01*
X135885684Y-37145045D01*
X135694432Y-37449420D01*
X135538465Y-37773288D01*
X135419741Y-38112580D01*
X135419737Y-38112592D01*
X135339748Y-38463048D01*
X135339746Y-38463064D01*
X135299500Y-38820259D01*
X135000500Y-38820259D01*
X135000500Y-35624500D01*
X135020185Y-35557461D01*
X135072989Y-35511706D01*
X135124500Y-35500500D01*
X185375500Y-35500500D01*
X185442539Y-35520185D01*
G37*
%TD.AperFunction*%
%TD*%
M02*
