%TF.GenerationSoftware,KiCad,Pcbnew,9.0.1*%
%TF.CreationDate,2025-06-21T17:44:42+02:00*%
%TF.ProjectId,PicoLogger_Small,5069636f-4c6f-4676-9765-725f536d616c,rev?*%
%TF.SameCoordinates,Original*%
%TF.FileFunction,Soldermask,Top*%
%TF.FilePolarity,Negative*%
%FSLAX46Y46*%
G04 Gerber Fmt 4.6, Leading zero omitted, Abs format (unit mm)*
G04 Created by KiCad (PCBNEW 9.0.1) date 2025-06-21 17:44:42*
%MOMM*%
%LPD*%
G01*
G04 APERTURE LIST*
G04 Aperture macros list*
%AMRoundRect*
0 Rectangle with rounded corners*
0 $1 Rounding radius*
0 $2 $3 $4 $5 $6 $7 $8 $9 X,Y pos of 4 corners*
0 Add a 4 corners polygon primitive as box body*
4,1,4,$2,$3,$4,$5,$6,$7,$8,$9,$2,$3,0*
0 Add four circle primitives for the rounded corners*
1,1,$1+$1,$2,$3*
1,1,$1+$1,$4,$5*
1,1,$1+$1,$6,$7*
1,1,$1+$1,$8,$9*
0 Add four rect primitives between the rounded corners*
20,1,$1+$1,$2,$3,$4,$5,0*
20,1,$1+$1,$4,$5,$6,$7,0*
20,1,$1+$1,$6,$7,$8,$9,0*
20,1,$1+$1,$8,$9,$2,$3,0*%
%AMFreePoly0*
4,1,37,0.603843,0.796157,0.639018,0.796157,0.711114,0.766294,0.766294,0.711114,0.796157,0.639018,0.796157,0.603843,0.800000,0.600000,0.800000,-0.600000,0.796157,-0.603843,0.796157,-0.639018,0.766294,-0.711114,0.711114,-0.766294,0.639018,-0.796157,0.603843,-0.796157,0.600000,-0.800000,0.000000,-0.800000,0.000000,-0.796148,-0.078414,-0.796148,-0.232228,-0.765552,-0.377117,-0.705537,
-0.507515,-0.618408,-0.618408,-0.507515,-0.705537,-0.377117,-0.765552,-0.232228,-0.796148,-0.078414,-0.796148,0.078414,-0.765552,0.232228,-0.705537,0.377117,-0.618408,0.507515,-0.507515,0.618408,-0.377117,0.705537,-0.232228,0.765552,-0.078414,0.796148,0.000000,0.796148,0.000000,0.800000,0.600000,0.800000,0.603843,0.796157,0.603843,0.796157,$1*%
%AMFreePoly1*
4,1,37,0.000000,0.796148,0.078414,0.796148,0.232228,0.765552,0.377117,0.705537,0.507515,0.618408,0.618408,0.507515,0.705537,0.377117,0.765552,0.232228,0.796148,0.078414,0.796148,-0.078414,0.765552,-0.232228,0.705537,-0.377117,0.618408,-0.507515,0.507515,-0.618408,0.377117,-0.705537,0.232228,-0.765552,0.078414,-0.796148,0.000000,-0.796148,0.000000,-0.800000,-0.600000,-0.800000,
-0.603843,-0.796157,-0.639018,-0.796157,-0.711114,-0.766294,-0.766294,-0.711114,-0.796157,-0.639018,-0.796157,-0.603843,-0.800000,-0.600000,-0.800000,0.600000,-0.796157,0.603843,-0.796157,0.639018,-0.766294,0.711114,-0.711114,0.766294,-0.639018,0.796157,-0.603843,0.796157,-0.600000,0.800000,0.000000,0.800000,0.000000,0.796148,0.000000,0.796148,$1*%
G04 Aperture macros list end*
%ADD10R,1.700000X1.700000*%
%ADD11C,1.700000*%
%ADD12C,2.000000*%
%ADD13RoundRect,0.250000X0.262500X0.450000X-0.262500X0.450000X-0.262500X-0.450000X0.262500X-0.450000X0*%
%ADD14R,1.800000X1.000000*%
%ADD15R,1.100000X1.500000*%
%ADD16RoundRect,0.250000X-0.450000X0.262500X-0.450000X-0.262500X0.450000X-0.262500X0.450000X0.262500X0*%
%ADD17R,2.000000X2.000000*%
%ADD18RoundRect,0.250000X0.450000X-0.262500X0.450000X0.262500X-0.450000X0.262500X-0.450000X-0.262500X0*%
%ADD19C,5.600000*%
%ADD20RoundRect,0.250000X0.600000X-0.400000X0.600000X0.400000X-0.600000X0.400000X-0.600000X-0.400000X0*%
%ADD21RoundRect,0.243750X0.456250X-0.243750X0.456250X0.243750X-0.456250X0.243750X-0.456250X-0.243750X0*%
%ADD22RoundRect,0.200000X-0.600000X-0.600000X0.600000X-0.600000X0.600000X0.600000X-0.600000X0.600000X0*%
%ADD23C,1.600000*%
%ADD24FreePoly0,0.000000*%
%ADD25FreePoly1,0.000000*%
%ADD26RoundRect,0.150000X-0.825000X-0.150000X0.825000X-0.150000X0.825000X0.150000X-0.825000X0.150000X0*%
%ADD27R,3.000000X3.000000*%
%ADD28C,3.000000*%
G04 APERTURE END LIST*
D10*
%TO.C,J4*%
X145385000Y-104080000D03*
D11*
X145385000Y-101540000D03*
X145385000Y-99000000D03*
X145385000Y-96460000D03*
X145385000Y-93920000D03*
X145385000Y-91380000D03*
X145385000Y-88840000D03*
%TD*%
D12*
%TO.C,SW1*%
X176750000Y-78750000D03*
X183250000Y-78750000D03*
X176750000Y-83250000D03*
X183250000Y-83250000D03*
%TD*%
D13*
%TO.C,R5*%
X166500000Y-100750000D03*
X164675000Y-100750000D03*
%TD*%
D14*
%TO.C,Y1*%
X154500000Y-99500000D03*
X154500000Y-97000000D03*
%TD*%
D15*
%TO.C,D1*%
X182750000Y-69500000D03*
X182750000Y-72500000D03*
X181250000Y-72500000D03*
X181250000Y-69500000D03*
%TD*%
D16*
%TO.C,R7*%
X168500000Y-93425000D03*
X168500000Y-95250000D03*
%TD*%
D13*
%TO.C,R4*%
X166500000Y-104000000D03*
X164675000Y-104000000D03*
%TD*%
D17*
%TO.C,BZ1*%
X145000000Y-74200000D03*
D12*
X145000000Y-81800000D03*
%TD*%
D18*
%TO.C,R8*%
X152000000Y-99162500D03*
X152000000Y-97337500D03*
%TD*%
D12*
%TO.C,SW2*%
X176750000Y-87750000D03*
X183250000Y-87750000D03*
X176750000Y-92250000D03*
X183250000Y-92250000D03*
%TD*%
D19*
%TO.C,H4*%
X182000000Y-114000000D03*
%TD*%
D13*
%TO.C,R2*%
X178500000Y-71500000D03*
X176675000Y-71500000D03*
%TD*%
D19*
%TO.C,H1*%
X182000000Y-39000000D03*
%TD*%
D20*
%TO.C,D4*%
X163000000Y-95750000D03*
X163000000Y-92250000D03*
%TD*%
D13*
%TO.C,R3*%
X178500000Y-75000000D03*
X176675000Y-75000000D03*
%TD*%
D10*
%TO.C,J1*%
X149000000Y-38420000D03*
D11*
X149000000Y-40960000D03*
X149000000Y-43500000D03*
X149000000Y-46040000D03*
%TD*%
D20*
%TO.C,D3*%
X160500000Y-95750000D03*
X160500000Y-92250000D03*
%TD*%
D21*
%TO.C,D2*%
X166500000Y-95250000D03*
X166500000Y-93375000D03*
%TD*%
D10*
%TO.C,J2*%
X145000000Y-38420000D03*
D11*
X145000000Y-40960000D03*
X145000000Y-43500000D03*
X145000000Y-46040000D03*
%TD*%
D19*
%TO.C,H3*%
X138500000Y-114000000D03*
%TD*%
%TO.C,H2*%
X138500000Y-39000000D03*
%TD*%
D13*
%TO.C,R1*%
X178500000Y-68000000D03*
X176675000Y-68000000D03*
%TD*%
%TO.C,R6*%
X166500000Y-97750000D03*
X164675000Y-97750000D03*
%TD*%
D22*
%TO.C,A1*%
X154610000Y-38245000D03*
D23*
X154610000Y-40785000D03*
D24*
X154610000Y-43325000D03*
D23*
X154610000Y-45865000D03*
X154610000Y-48405000D03*
X154610000Y-50945000D03*
X154610000Y-53485000D03*
D24*
X154610000Y-56025000D03*
D23*
X154610000Y-58565000D03*
X154610000Y-61105000D03*
X154610000Y-63645000D03*
X154610000Y-66185000D03*
D24*
X154610000Y-68725000D03*
D23*
X154610000Y-71265000D03*
X154610000Y-73805000D03*
X154610000Y-76345000D03*
X154610000Y-78885000D03*
D24*
X154610000Y-81425000D03*
D23*
X154610000Y-83965000D03*
X154610000Y-86505000D03*
X172390000Y-86505000D03*
X172390000Y-83965000D03*
D25*
X172390000Y-81425000D03*
D23*
X172390000Y-78885000D03*
X172390000Y-76345000D03*
X172390000Y-73805000D03*
X172390000Y-71265000D03*
D25*
X172390000Y-68725000D03*
D23*
X172390000Y-66185000D03*
X172390000Y-63645000D03*
X172390000Y-61105000D03*
X172390000Y-58565000D03*
D25*
X172390000Y-56025000D03*
D23*
X172390000Y-53485000D03*
X172390000Y-50945000D03*
X172390000Y-48405000D03*
X172390000Y-45865000D03*
D25*
X172390000Y-43325000D03*
D23*
X172390000Y-40785000D03*
X172390000Y-38245000D03*
%TD*%
D10*
%TO.C,J3*%
X145385000Y-69500000D03*
D11*
X145385000Y-66960000D03*
X145385000Y-64420000D03*
X145385000Y-61880000D03*
X145385000Y-59340000D03*
X145385000Y-56800000D03*
X145385000Y-54260000D03*
X145385000Y-51720000D03*
%TD*%
D26*
%TO.C,U1*%
X157025000Y-97845000D03*
X157025000Y-99115000D03*
X157025000Y-100385000D03*
X157025000Y-101655000D03*
X161975000Y-101655000D03*
X161975000Y-100385000D03*
X161975000Y-99115000D03*
X161975000Y-97845000D03*
%TD*%
D27*
%TO.C,BT1*%
X174490000Y-103000000D03*
D28*
X154000000Y-103000000D03*
%TD*%
M02*
