M48
; DRILL file {KiCad 9.0.1} date 2025-06-21T17:44:43+0200
; FORMAT={-:-/ absolute / metric / decimal}
; #@! TF.CreationDate,2025-06-21T17:44:43+02:00
; #@! TF.GenerationSoftware,Kicad,Pcbnew,9.0.1
; #@! TF.FileFunction,Plated,1,2,PTH
FMAT,2
METRIC
; #@! TA.AperFunction,Plated,PTH,ViaDrill
T1C0.300
; #@! TA.AperFunction,Plated,PTH,ComponentDrill
T2C1.000
; #@! TA.AperFunction,Plated,PTH,ComponentDrill
T3C1.100
; #@! TA.AperFunction,Plated,PTH,ComponentDrill
T4C1.500
; #@! TA.AperFunction,Plated,PTH,ComponentDrill
T5C3.200
%
G90
G05
T1
X139.0Y-73.5
X139.25Y-84.75
X141.5Y-46.5
X141.5Y-49.5
X142.5Y-76.0
X142.5Y-81.5
X147.0Y-48.5
X147.5Y-60.0
X148.0Y-78.0
X148.0Y-80.0
X148.0Y-86.5
X149.0Y-49.0
X149.0Y-51.5
X150.0Y-58.0
X150.0Y-97.25
X151.0Y-48.5
X151.5Y-86.5
X151.535Y-83.965
X151.615Y-78.885
X152.5Y-94.5
X152.5Y-100.75
X155.5Y-89.5
X156.5Y-75.0
X156.5Y-77.0
X157.0Y-66.0
X157.0Y-71.0
X157.5Y-72.5
X158.5Y-84.0
X158.75Y-96.0
X159.0Y-87.0
X159.5Y-72.0
X159.5Y-74.5
X159.5Y-98.5
X160.5Y-66.0
X162.0Y-89.5
X162.5Y-84.5
X164.675Y-91.0
X164.675Y-93.75
X168.0Y-104.5
T2
X145.0Y-38.42
X145.0Y-40.96
X145.0Y-43.5
X145.0Y-46.04
X145.0Y-74.2
X145.0Y-81.8
X145.385Y-51.72
X145.385Y-54.26
X145.385Y-56.8
X145.385Y-59.34
X145.385Y-61.88
X145.385Y-64.42
X145.385Y-66.96
X145.385Y-69.5
X145.385Y-88.84
X145.385Y-91.38
X145.385Y-93.92
X145.385Y-96.46
X145.385Y-99.0
X145.385Y-101.54
X145.385Y-104.08
X149.0Y-38.42
X149.0Y-40.96
X149.0Y-43.5
X149.0Y-46.04
X154.61Y-38.245
X154.61Y-40.785
X154.61Y-43.325
X154.61Y-45.865
X154.61Y-48.405
X154.61Y-50.945
X154.61Y-53.485
X154.61Y-56.025
X154.61Y-58.565
X154.61Y-61.105
X154.61Y-63.645
X154.61Y-66.185
X154.61Y-68.725
X154.61Y-71.265
X154.61Y-73.805
X154.61Y-76.345
X154.61Y-78.885
X154.61Y-81.425
X154.61Y-83.965
X154.61Y-86.505
X172.39Y-38.245
X172.39Y-40.785
X172.39Y-43.325
X172.39Y-45.865
X172.39Y-48.405
X172.39Y-50.945
X172.39Y-53.485
X172.39Y-56.025
X172.39Y-58.565
X172.39Y-61.105
X172.39Y-63.645
X172.39Y-66.185
X172.39Y-68.725
X172.39Y-71.265
X172.39Y-73.805
X172.39Y-76.345
X172.39Y-78.885
X172.39Y-81.425
X172.39Y-83.965
X172.39Y-86.505
T3
X176.75Y-78.75
X176.75Y-83.25
X176.75Y-87.75
X176.75Y-92.25
X183.25Y-78.75
X183.25Y-83.25
X183.25Y-87.75
X183.25Y-92.25
T4
X154.0Y-103.0
X174.49Y-103.0
T5
X138.5Y-39.0
X138.5Y-114.0
X182.0Y-39.0
X182.0Y-114.0
M30
